<?xml version="1.0" encoding="utf-8" standalone="no"?><!DOCTYPE svg PUBLIC "-//W3C//DTD SVG 1.1//EN" "http://www.w3.org/Graphics/SVG/1.1/DTD/svg11.dtd">
<svg preserveAspectRatio="xMinYMin meet" width="100%" height="100%" viewBox="0 0 698.898 524.173"  version="1.1" xmlns="http://www.w3.org/2000/svg" xmlns:xlink="http://www.w3.org/1999/xlink">
  <desc>Matlab Figure Converted by PLOT2SVG written by Juerg Schwizer</desc>
  <g id="topgroup">
  <rect x="0" y="0" width="698.898" height="524.173" fill="#ffffff" stroke="none" />
  <g id ="ID000000">
  <clipPath id="ID000001">
    <rect x="90.857" y="39.313" width="541.646" height="178.828"/>
  </clipPath>
      <polygon fill="#ffffff" fill-opacity="1.00" stroke="none" stroke-width="0.5pt" stroke-opacity="1.00" stroke-dasharray="none" points="90.857,218.141 632.502,218.141 632.502,39.313 90.857,39.313 "/>
      <polygon fill="#ffffff" fill-opacity="1.00" stroke="none" stroke-width="0.5pt" stroke-opacity="1.00" stroke-dasharray="none" points="90.857,39.313 632.502,39.313 632.502,39.313 90.857,39.313 "/>
      <polygon fill="#ffffff" fill-opacity="1.00" stroke="none" stroke-width="0.5pt" stroke-opacity="1.00" stroke-dasharray="none" points="90.857,218.141 90.857,218.141 90.857,39.313 90.857,39.313 "/>
    <g>
<g id="ID000002" clip-path="url(#ID000001)" >
      <polyline fill="none" stroke="#0000ff" stroke-width="0.5pt" stroke-dasharray="none" points="90.857,180.907 91.128,180.690 91.398,180.474 91.669,180.258 91.940,180.041 92.211,179.825 92.482,179.609 92.752,179.392 93.023,179.176 93.294,178.959 93.565,178.743 93.836,178.527 94.107,178.310 94.377,178.094 94.648,177.878 94.919,177.661 95.190,177.445 95.461,177.229 95.732,177.012 96.002,176.796 96.273,176.580 96.544,176.363 96.815,176.147 97.086,175.931 97.356,175.715 97.627,175.498 97.898,175.282 98.169,175.066 98.440,174.850 98.711,174.633 98.981,174.417 99.252,174.201 99.523,173.985 99.794,173.769 100.065,173.553 100.335,173.336 100.606,173.120 100.877,172.904 101.148,172.688 101.419,172.472 101.690,172.256 101.960,172.040 102.231,171.824 102.502,171.608 102.773,171.392 103.044,171.176 103.315,170.960 103.585,170.744 103.856,170.528 104.127,170.312 104.398,170.096 104.669,169.881 104.939,169.665 105.210,169.449 105.481,169.233 105.752,169.017 106.023,168.802 106.294,168.586 106.564,168.370 106.835,168.155 107.106,167.939 107.377,167.723 107.648,167.508 107.919,167.292 108.189,167.077 108.460,166.861 108.731,166.646 109.002,166.430 109.273,166.215 109.543,166.000 109.814,165.784 110.085,165.569 110.356,165.354 110.627,165.138 110.898,164.923 111.168,164.708 111.439,164.493 111.710,164.278 111.981,164.063 112.252,163.848 112.523,163.633 112.793,163.418 113.064,163.203 113.335,162.988 113.606,162.773 113.877,162.558 114.147,162.343 114.418,162.128 114.689,161.914 114.960,161.699 115.231,161.484 115.502,161.270 115.772,161.055 116.043,160.841 116.314,160.626 116.585,160.412 116.856,160.197 117.127,159.983 117.397,159.769 117.668,159.554 117.939,159.340 118.210,159.126 118.481,158.912 118.751,158.698 119.022,158.484 119.293,158.270 119.564,158.056 119.835,157.842 120.106,157.628 120.376,157.414 120.647,157.200 120.918,156.987 121.189,156.773 121.460,156.559 121.730,156.346 122.001,156.132 122.272,155.919 122.543,155.705 122.814,155.492 123.085,155.279 123.355,155.066 123.626,154.852 123.897,154.639 124.168,154.426 124.439,154.213 124.710,154.000 124.980,153.787 125.251,153.574 125.522,153.362 125.793,153.149 126.064,152.936 126.334,152.723 126.605,152.511 126.876,152.298 127.147,152.086 127.418,151.874 127.689,151.661 127.959,151.449 128.230,151.237 128.501,151.025 128.772,150.813 129.043,150.601 129.314,150.389 129.584,150.177 129.855,149.965 130.126,149.753 130.397,149.541 130.668,149.330 130.938,149.118 131.209,148.907 131.480,148.695 131.751,148.484 132.022,148.273 132.293,148.061 132.563,147.850 132.834,147.639 133.105,147.428 133.376,147.217 133.647,147.006 133.918,146.796 134.188,146.585 134.459,146.374 134.730,146.164 135.001,145.953 135.272,145.743 135.542,145.532 135.813,145.322 136.084,145.112 136.355,144.902 136.626,144.692 136.897,144.482 137.167,144.272 137.438,144.062 137.709,143.852 137.980,143.643 138.251,143.433 138.522,143.224 138.792,143.014 139.063,142.805 139.334,142.596 139.605,142.387 139.876,142.178 140.146,141.969 140.417,141.760 140.688,141.551 140.959,141.342 141.230,141.133 141.501,140.925 141.771,140.716 142.042,140.508 142.313,140.300 142.584,140.091 142.855,139.883 143.126,139.675 143.396,139.467 143.667,139.259 143.938,139.052 144.209,138.844 144.480,138.636 144.750,138.429 145.021,138.221 145.292,138.014 145.563,137.807 145.834,137.600 146.105,137.393 146.375,137.186 146.646,136.979 146.917,136.772 147.188,136.566 147.459,136.359 147.729,136.153 148.000,135.946 148.271,135.740 148.542,135.534 148.813,135.328 149.084,135.122 149.354,134.916 149.625,134.710 149.896,134.504 150.167,134.299 150.438,134.093 150.709,133.888 150.979,133.683 151.250,133.478 151.521,133.272 151.792,133.068 152.063,132.863 152.333,132.658 152.604,132.453 152.875,132.249 153.146,132.044 153.417,131.840 153.688,131.636 153.958,131.432 154.229,131.228 154.500,131.024 154.771,130.820 155.042,130.616 155.313,130.413 155.583,130.209 155.854,130.006 156.125,129.803 156.396,129.600 156.667,129.397 156.937,129.194 157.208,128.991 157.479,128.789 157.750,128.586 158.021,128.384 158.292,128.181 158.562,127.979 158.833,127.777 159.104,127.575 159.375,127.373 159.646,127.172 159.917,126.970 160.187,126.768 160.458,126.567 160.729,126.366 161.000,126.165 161.271,125.964 161.541,125.763 161.812,125.562 162.083,125.362 162.354,125.161 162.625,124.961 162.896,124.760 163.166,124.560 163.437,124.360 163.708,124.160 163.979,123.961 164.250,123.761 164.521,123.562 164.791,123.362 165.062,123.163 165.333,122.964 165.604,122.765 165.875,122.566 166.145,122.367 166.416,122.169 166.687,121.970 166.958,121.772 167.229,121.574 167.500,121.376 167.770,121.178 168.041,120.980 168.312,120.782 168.583,120.585 168.854,120.387 169.124,120.190 169.395,119.993 169.666,119.796 169.937,119.599 170.208,119.403 170.479,119.206 170.749,119.010 171.020,118.813 171.291,118.617 171.562,118.421 171.833,118.225 172.104,118.030 172.374,117.834 172.645,117.639 172.916,117.443 173.187,117.248 173.458,117.053 173.728,116.858 173.999,116.664 174.270,116.469 174.541,116.275 174.812,116.080 175.083,115.886 175.353,115.692 175.624,115.498 175.895,115.305 176.166,115.111 176.437,114.918 176.708,114.724 176.978,114.531 177.249,114.338 177.520,114.146 177.791,113.953 178.062,113.760 178.332,113.568 178.603,113.376 178.874,113.184 179.145,112.992 179.416,112.800 179.687,112.609 179.957,112.417 180.228,112.226 180.499,112.035 180.770,111.844 181.041,111.653 181.312,111.463 181.582,111.272 181.853,111.082 182.124,110.892 182.395,110.702 182.666,110.512 182.936,110.322 183.207,110.133 183.478,109.943 183.749,109.754 184.020,109.565 184.291,109.376 184.561,109.187 184.832,108.999 185.103,108.811 185.374,108.622 185.645,108.434 185.916,108.246 186.186,108.059 186.457,107.871 186.728,107.684 186.999,107.497 187.270,107.310 187.540,107.123 187.811,106.936 188.082,106.750 188.353,106.563 188.624,106.377 188.895,106.191 189.165,106.005 189.436,105.819 189.707,105.634 189.978,105.449 190.249,105.264 190.519,105.079 190.790,104.894 191.061,104.709 191.332,104.525 191.603,104.340 191.874,104.156 192.144,103.972 192.415,103.789 192.686,103.605 192.957,103.422 193.228,103.238 193.499,103.055 193.769,102.873 194.040,102.690 194.311,102.507 194.582,102.325 194.853,102.143 195.123,101.961 195.394,101.779 195.665,101.598 195.936,101.416 196.207,101.235 196.478,101.054 196.748,100.873 197.019,100.693 197.290,100.512 197.561,100.332 197.832,100.152 198.103,99.972 198.373,99.792 198.644,99.613 198.915,99.433 199.186,99.254 199.457,99.075 199.727,98.897 199.998,98.718 200.269,98.540 200.540,98.361 200.811,98.183 201.082,98.006 201.352,97.828 201.623,97.651 201.894,97.473 202.165,97.296 202.436,97.120 202.707,96.943 202.977,96.766 203.248,96.590 203.519,96.414 203.790,96.238 204.061,96.063 204.331,95.887 204.602,95.712 204.873,95.537 205.144,95.362 205.415,95.187 205.686,95.013 205.956,94.839 206.227,94.665 206.498,94.491 206.769,94.317 207.040,94.144 207.311,93.971 207.581,93.797 207.852,93.625 208.123,93.452 208.394,93.280 208.665,93.107 208.935,92.935 209.206,92.764 209.477,92.592 209.748,92.421 210.019,92.249 210.290,92.079 210.560,91.908 210.831,91.737 211.102,91.567 211.373,91.397 211.644,91.227 211.915,91.057 212.185,90.888 212.456,90.718 212.727,90.549 212.998,90.380 213.269,90.212 213.539,90.043 213.810,89.875 214.081,89.707 214.352,89.539 214.623,89.372 214.894,89.204 215.164,89.037 215.435,88.870 215.706,88.704 215.977,88.537 216.248,88.371 216.518,88.205 216.789,88.039 217.060,87.874 217.331,87.708 217.602,87.543 217.873,87.378 218.143,87.213 218.414,87.049 218.685,86.885 218.956,86.721 219.227,86.557 219.498,86.393 219.768,86.230 220.039,86.067 220.310,85.904 220.581,85.741 220.852,85.578 221.122,85.416 221.393,85.254 221.664,85.092 221.935,84.931 222.206,84.770 222.477,84.608 222.747,84.448 223.018,84.287 223.289,84.126 223.560,83.966 223.831,83.806 224.102,83.647 224.372,83.487 224.643,83.328 224.914,83.169 225.185,83.010 225.456,82.852 225.726,82.693 225.997,82.535 226.268,82.377 226.539,82.220 226.810,82.062 227.081,81.905 227.351,81.748 227.622,81.592 227.893,81.435 228.164,81.279 228.435,81.123 228.706,80.967 228.976,80.812 229.247,80.657 229.518,80.502 229.789,80.347 230.060,80.192 230.330,80.038 230.601,79.884 230.872,79.730 231.143,79.577 231.414,79.423 231.685,79.270 231.955,79.117 232.226,78.965 232.497,78.813 232.768,78.660 233.039,78.509 233.310,78.357 233.580,78.206 233.851,78.055 234.122,77.904 234.393,77.753 234.664,77.603 234.934,77.453 235.205,77.303 235.476,77.153 235.747,77.004 236.018,76.855 236.289,76.706 236.559,76.557 236.830,76.409 237.101,76.261 237.372,76.113 237.643,75.965 237.913,75.818 238.184,75.671 238.455,75.524 238.726,75.378 238.997,75.231 239.268,75.085 239.538,74.939 239.809,74.794 240.080,74.649 240.351,74.503 240.622,74.359 240.893,74.214 241.163,74.070 241.434,73.926 241.705,73.782 241.976,73.639 242.247,73.495 242.517,73.352 242.788,73.210 243.059,73.067 243.330,72.925 243.601,72.783 243.872,72.641 244.142,72.500 244.413,72.359 244.684,72.218 244.955,72.077 245.226,71.937 245.497,71.797 245.767,71.657 246.038,71.518 246.309,71.378 246.580,71.239 246.851,71.101 247.121,70.962 247.392,70.824 247.663,70.686 247.934,70.548 248.205,70.411 248.476,70.274 248.746,70.137 249.017,70.000 249.288,69.864 249.559,69.728 249.830,69.592 250.101,69.456 250.371,69.321 250.642,69.186 250.913,69.052 251.184,68.917 251.455,68.783 251.725,68.649 251.996,68.515 252.267,68.382 252.538,68.249 252.809,68.116 253.080,67.984 253.350,67.851 253.621,67.719 253.892,67.588 254.163,67.456 254.434,67.325 254.705,67.194 254.975,67.064 255.246,66.933 255.517,66.803 255.788,66.674 256.059,66.544 256.329,66.415 256.600,66.286 256.871,66.158 257.142,66.029 257.413,65.901 257.684,65.773 257.954,65.646 258.225,65.519 258.496,65.392 258.767,65.265 259.038,65.139 259.308,65.013 259.579,64.887 259.850,64.761 260.121,64.636 260.392,64.511 260.663,64.386 260.933,64.262 261.204,64.138 261.475,64.014 261.746,63.891 262.017,63.768 262.288,63.645 262.558,63.522 262.829,63.400 263.100,63.277 263.371,63.156 263.642,63.034 263.912,62.913 264.183,62.792 264.454,62.671 264.725,62.551 264.996,62.431 265.267,62.311 265.537,62.192 265.808,62.073 266.079,61.954 266.350,61.835 266.621,61.717 266.892,61.599 267.162,61.481 267.433,61.364 267.704,61.247 267.975,61.130 268.246,61.013 268.516,60.897 268.787,60.781 269.058,60.666 269.329,60.550 269.600,60.435 269.871,60.321 270.141,60.206 270.412,60.092 270.683,59.978 270.954,59.865 271.225,59.751 271.496,59.638 271.766,59.526 272.037,59.413 272.308,59.301 272.579,59.190 272.850,59.078 273.120,58.967 273.391,58.856 273.662,58.746 273.933,58.635 274.204,58.525 274.475,58.416 274.745,58.307 275.016,58.198 275.287,58.089 275.558,57.980 275.829,57.872 276.100,57.764 276.370,57.657 276.641,57.550 276.912,57.443 277.183,57.336 277.454,57.230 277.724,57.124 277.995,57.018 278.266,56.913 278.537,56.808 278.808,56.703 279.079,56.599 279.349,56.495 279.620,56.391 279.891,56.287 280.162,56.184 280.433,56.081 280.704,55.979 280.974,55.876 281.245,55.774 281.516,55.673 281.787,55.571 282.058,55.470 282.328,55.370 282.599,55.269 282.870,55.169 283.141,55.069 283.412,54.970 283.683,54.871 283.953,54.772 284.224,54.673 284.495,54.575 284.766,54.477 285.037,54.380 285.307,54.282 285.578,54.185 285.849,54.089 286.120,53.993 286.391,53.897 286.662,53.801 286.932,53.705 287.203,53.610 287.474,53.516 287.745,53.421 288.016,53.327 288.287,53.233 288.557,53.140 288.828,53.047 289.099,52.954 289.370,52.861 289.641,52.769 289.911,52.677 290.182,52.586 290.453,52.495 290.724,52.404 290.995,52.313 291.266,52.223 291.536,52.133 291.807,52.043 292.078,51.954 292.349,51.865 292.620,51.776 292.891,51.688 293.161,51.600 293.432,51.512 293.703,51.425 293.974,51.338 294.245,51.251 294.515,51.165 294.786,51.079 295.057,50.993 295.328,50.907 295.599,50.822 295.870,50.738 296.140,50.653 296.411,50.569 296.682,50.485 296.953,50.402 297.224,50.319 297.495,50.236 297.765,50.153 298.036,50.071 298.307,49.989 298.578,49.908 298.849,49.827 299.119,49.746 299.390,49.665 299.661,49.585 299.932,49.505 300.203,49.426 300.474,49.346 300.744,49.268 301.015,49.189 301.286,49.111 301.557,49.033 301.828,48.955 302.099,48.878 302.369,48.801 302.640,48.725 302.911,48.648 303.182,48.573 303.453,48.497 303.723,48.422 303.994,48.347 304.265,48.272 304.536,48.198 304.807,48.124 305.078,48.051 305.348,47.977 305.619,47.904 305.890,47.832 306.161,47.760 306.432,47.688 306.702,47.616 306.973,47.545 307.244,47.474 307.515,47.403 307.786,47.333 308.057,47.263 308.327,47.194 308.598,47.125 308.869,47.056 309.140,46.987 309.411,46.919 309.682,46.851 309.952,46.784 310.223,46.716 310.494,46.649 310.765,46.583 311.036,46.517 311.306,46.451 311.577,46.385 311.848,46.320 312.119,46.255 312.390,46.191 312.661,46.127 312.931,46.063 313.202,46.000 313.473,45.936 313.744,45.874 314.015,45.811 314.286,45.749 314.556,45.687 314.827,45.626 315.098,45.565 315.369,45.504 315.640,45.444 315.910,45.383 316.181,45.324 316.452,45.264 316.723,45.205 316.994,45.147 317.265,45.088 317.535,45.030 317.806,44.973 318.077,44.915 318.348,44.858 318.619,44.802 318.890,44.745 319.160,44.689 319.431,44.634 319.702,44.578 319.973,44.523 320.244,44.469 320.514,44.415 320.785,44.361 321.056,44.307 321.327,44.254 321.598,44.201 321.869,44.149 322.139,44.096 322.410,44.045 322.681,43.993 322.952,43.942 323.223,43.891 323.494,43.841 323.764,43.791 324.035,43.741 324.306,43.691 324.577,43.642 324.848,43.594 325.118,43.545 325.389,43.497 325.660,43.450 325.931,43.402 326.202,43.355 326.473,43.309 326.743,43.262 327.014,43.216 327.285,43.171 327.556,43.126 327.827,43.081 328.097,43.036 328.368,42.992 328.639,42.948 328.910,42.905 329.181,42.862 329.452,42.819 329.722,42.776 329.993,42.734 330.264,42.692 330.535,42.651 330.806,42.610 331.077,42.569 331.347,42.529 331.618,42.489 331.889,42.449 332.160,42.410 332.431,42.371 332.701,42.332 332.972,42.294 333.243,42.256 333.514,42.219 333.785,42.181 334.056,42.145 334.326,42.108 334.597,42.072 334.868,42.036 335.139,42.001 335.410,41.966 335.681,41.931 335.951,41.896 336.222,41.862 336.493,41.829 336.764,41.795 337.035,41.762 337.305,41.730 337.576,41.698 337.847,41.666 338.118,41.634 338.389,41.603 338.660,41.572 338.930,41.541 339.201,41.511 339.472,41.481 339.743,41.452 340.014,41.423 340.285,41.394 340.555,41.366 340.826,41.338 341.097,41.310 341.368,41.283 341.639,41.256 341.909,41.229 342.180,41.203 342.451,41.177 342.722,41.151 342.993,41.126 343.264,41.101 343.534,41.077 343.805,41.053 344.076,41.029 344.347,41.005 344.618,40.982 344.889,40.959 345.159,40.937 345.430,40.915 345.701,40.893 345.972,40.872 346.243,40.851 346.513,40.831 346.784,40.810 347.055,40.790 347.326,40.771 347.597,40.752 347.868,40.733 348.138,40.714 348.409,40.696 348.680,40.678 348.951,40.661 349.222,40.644 349.493,40.627 349.763,40.611 350.034,40.595 350.305,40.579 350.576,40.564 350.847,40.549 351.117,40.535 351.388,40.520 351.659,40.507 351.930,40.493 352.201,40.480 352.472,40.467 352.742,40.455 353.013,40.443 353.284,40.431 353.555,40.420 353.826,40.409 354.096,40.398 354.367,40.388 354.638,40.378 354.909,40.368 355.180,40.359 355.451,40.350 355.721,40.341 355.992,40.333 356.263,40.326 356.534,40.318 356.805,40.311 357.076,40.304 357.346,40.298 357.617,40.292 357.888,40.286 358.159,40.281 358.430,40.276 358.700,40.271 358.971,40.267 359.242,40.263 359.513,40.260 359.784,40.257 360.055,40.254 360.325,40.251 360.596,40.249 360.867,40.248 361.138,40.246 361.409,40.245 361.680,40.245 361.950,40.244 362.221,40.244 362.492,40.245 362.763,40.245 363.034,40.247 363.304,40.248 363.575,40.250 363.846,40.252 364.117,40.255 364.388,40.258 364.659,40.261 364.929,40.264 365.200,40.268 365.471,40.273 365.742,40.277 366.013,40.282 366.284,40.288 366.554,40.294 366.825,40.300 367.096,40.306 367.367,40.313 367.638,40.320 367.908,40.328 368.179,40.336 368.450,40.344 368.721,40.353 368.992,40.361 369.263,40.371 369.533,40.381 369.804,40.391 370.075,40.401 370.346,40.412 370.617,40.423 370.888,40.434 371.158,40.446 371.429,40.458 371.700,40.471 371.971,40.484 372.242,40.497 372.512,40.511 372.783,40.524 373.054,40.539 373.325,40.553 373.596,40.568 373.867,40.584 374.137,40.600 374.408,40.616 374.679,40.632 374.950,40.649 375.221,40.666 375.491,40.684 375.762,40.701 376.033,40.720 376.304,40.738 376.575,40.757 376.846,40.776 377.116,40.796 377.387,40.816 377.658,40.836 377.929,40.857 378.200,40.878 378.471,40.900 378.741,40.921 379.012,40.944 379.283,40.966 379.554,40.989 379.825,41.012 380.095,41.036 380.366,41.060 380.637,41.084 380.908,41.108 381.179,41.133 381.450,41.159 381.720,41.184 381.991,41.210 382.262,41.237 382.533,41.263 382.804,41.291 383.075,41.318 383.345,41.346 383.616,41.374 383.887,41.402 384.158,41.431 384.429,41.460 384.699,41.490 384.970,41.520 385.241,41.550 385.512,41.581 385.783,41.612 386.054,41.643 386.324,41.675 386.595,41.707 386.866,41.739 387.137,41.772 387.408,41.805 387.679,41.838 387.949,41.872 388.220,41.906 388.491,41.941 388.762,41.976 389.033,42.011 389.303,42.047 389.574,42.082 389.845,42.119 390.116,42.155 390.387,42.192 390.658,42.230 390.928,42.267 391.199,42.305 391.470,42.344 391.741,42.382 392.012,42.421 392.283,42.461 392.553,42.500 392.824,42.541 393.095,42.581 393.366,42.622 393.637,42.663 393.907,42.704 394.178,42.746 394.449,42.789 394.720,42.831 394.991,42.874 395.262,42.917 395.532,42.961 395.803,43.005 396.074,43.049 396.345,43.094 396.616,43.139 396.886,43.184 397.157,43.230 397.428,43.276 397.699,43.322 397.970,43.369 398.241,43.416 398.511,43.463 398.782,43.511 399.053,43.559 399.324,43.608 399.595,43.657 399.866,43.706 400.136,43.755 400.407,43.805 400.678,43.855 400.949,43.906 401.220,43.957 401.490,44.008 401.761,44.060 402.032,44.112 402.303,44.164 402.574,44.216 402.845,44.269 403.115,44.323 403.386,44.376 403.657,44.430 403.928,44.485 404.199,44.539 404.470,44.594 404.740,44.650 405.011,44.706 405.282,44.762 405.553,44.818 405.824,44.875 406.094,44.932 406.365,44.989 406.636,45.047 406.907,45.105 407.178,45.164 407.449,45.222 407.719,45.282 407.990,45.341 408.261,45.401 408.532,45.461 408.803,45.522 409.074,45.582 409.344,45.644 409.615,45.705 409.886,45.767 410.157,45.829 410.428,45.892 410.698,45.955 410.969,46.018 411.240,46.081 411.511,46.145 411.782,46.210 412.053,46.274 412.323,46.339 412.594,46.404 412.865,46.470 413.136,46.536 413.407,46.602 413.678,46.669 413.948,46.736 414.219,46.803 414.490,46.871 414.761,46.939 415.032,47.007 415.302,47.076 415.573,47.145 415.844,47.214 416.115,47.284 416.386,47.354 416.657,47.424 416.927,47.495 417.198,47.566 417.469,47.637 417.740,47.709 418.011,47.781 418.281,47.853 418.552,47.926 418.823,47.999 419.094,48.072 419.365,48.146 419.636,48.220 419.906,48.294 420.177,48.369 420.448,48.444 420.719,48.519 420.990,48.595 421.261,48.671 421.531,48.747 421.802,48.824 422.073,48.901 422.344,48.978 422.615,49.055 422.885,49.133 423.156,49.212 423.427,49.290 423.698,49.369 423.969,49.449 424.240,49.528 424.510,49.608 424.781,49.689 425.052,49.769 425.323,49.850 425.594,49.931 425.865,50.013 426.135,50.095 426.406,50.177 426.677,50.260 426.948,50.343 427.219,50.426 427.489,50.509 427.760,50.593 428.031,50.678 428.302,50.762 428.573,50.847 428.844,50.932 429.114,51.018 429.385,51.104 429.656,51.190 429.927,51.276 430.198,51.363 430.469,51.450 430.739,51.538 431.010,51.625 431.281,51.714 431.552,51.802 431.823,51.891 432.093,51.980 432.364,52.069 432.635,52.159 432.906,52.249 433.177,52.339 433.448,52.430 433.718,52.521 433.989,52.612 434.260,52.704 434.531,52.796 434.802,52.888 435.073,52.981 435.343,53.074 435.614,53.167 435.885,53.261 436.156,53.354 436.427,53.449 436.697,53.543 436.968,53.638 437.239,53.733 437.510,53.829 437.781,53.924 438.052,54.020 438.322,54.117 438.593,54.214 438.864,54.311 439.135,54.408 439.406,54.506 439.677,54.604 439.947,54.702 440.218,54.801 440.489,54.900 440.760,54.999 441.031,55.098 441.301,55.198 441.572,55.298 441.843,55.399 442.114,55.500 442.385,55.601 442.656,55.702 442.926,55.804 443.197,55.906 443.468,56.008 443.739,56.111 444.010,56.214 444.280,56.317 444.551,56.421 444.822,56.525 445.093,56.629 445.364,56.734 445.635,56.838 445.905,56.944 446.176,57.049 446.447,57.155 446.718,57.261 446.989,57.367 447.260,57.474 447.530,57.581 447.801,57.688 448.072,57.796 448.343,57.904 448.614,58.012 448.884,58.120 449.155,58.229 449.426,58.338 449.697,58.448 449.968,58.557 450.239,58.667 450.509,58.778 450.780,58.888 451.051,58.999 451.322,59.111 451.593,59.222 451.864,59.334 452.134,59.446 452.405,59.558 452.676,59.671 452.947,59.784 453.218,59.898 453.488,60.011 453.759,60.125 454.030,60.239 454.301,60.354 454.572,60.469 454.843,60.584 455.113,60.699 455.384,60.815 455.655,60.931 455.926,61.047 456.197,61.164 456.468,61.281 456.738,61.398 457.009,61.515 457.280,61.633 457.551,61.751 457.822,61.870 458.092,61.988 458.363,62.107 458.634,62.227 458.905,62.346 459.176,62.466 459.447,62.586 459.717,62.706 459.988,62.827 460.259,62.948 460.530,63.069 460.801,63.191 461.072,63.313 461.342,63.435 461.613,63.558 461.884,63.680 462.155,63.803 462.426,63.927 462.696,64.050 462.967,64.174 463.238,64.298 463.509,64.423 463.780,64.547 464.051,64.672 464.321,64.798 464.592,64.923 464.863,65.049 465.134,65.175 465.405,65.302 465.675,65.429 465.946,65.556 466.217,65.683 466.488,65.810 466.759,65.938 467.030,66.066 467.300,66.195 467.571,66.324 467.842,66.453 468.113,66.582 468.384,66.711 468.655,66.841 468.925,66.971 469.196,67.102 469.467,67.232 469.738,67.363 470.009,67.495 470.279,67.626 470.550,67.758 470.821,67.890 471.092,68.022 471.363,68.155 471.634,68.288 471.904,68.421 472.175,68.554 472.446,68.688 472.717,68.822 472.988,68.956 473.259,69.091 473.529,69.225 473.800,69.360 474.071,69.496 474.342,69.631 474.613,69.767 474.883,69.903 475.154,70.040 475.425,70.177 475.696,70.313 475.967,70.451 476.238,70.588 476.508,70.726 476.779,70.864 477.050,71.002 477.321,71.141 477.592,71.280 477.863,71.419 478.133,71.558 478.404,71.698 478.675,71.838 478.946,71.978 479.217,72.118 479.487,72.259 479.758,72.400 480.029,72.541 480.300,72.683 480.571,72.824 480.842,72.966 481.112,73.109 481.383,73.251 481.654,73.394 481.925,73.537 482.196,73.680 482.467,73.824 482.737,73.968 483.008,74.112 483.279,74.256 483.550,74.401 483.821,74.546 484.091,74.691 484.362,74.836 484.633,74.982 484.904,75.128 485.175,75.274 485.446,75.420 485.716,75.567 485.987,75.714 486.258,75.861 486.529,76.008 486.800,76.156 487.070,76.304 487.341,76.452 487.612,76.600 487.883,76.749 488.154,76.898 488.425,77.047 488.695,77.197 488.966,77.346 489.237,77.496 489.508,77.646 489.779,77.797 490.050,77.948 490.320,78.098 490.591,78.250 490.862,78.401 491.133,78.553 491.404,78.705 491.674,78.857 491.945,79.009 492.216,79.162 492.487,79.315 492.758,79.468 493.029,79.621 493.299,79.775 493.570,79.929 493.841,80.083 494.112,80.237 494.383,80.392 494.654,80.547 494.924,80.702 495.195,80.857 495.466,81.012 495.737,81.168 496.008,81.324 496.278,81.481 496.549,81.637 496.820,81.794 497.091,81.951 497.362,82.108 497.633,82.265 497.903,82.423 498.174,82.581 498.445,82.739 498.716,82.898 498.987,83.056 499.258,83.215 499.528,83.374 499.799,83.533 500.070,83.693 500.341,83.853 500.612,84.013 500.882,84.173 501.153,84.334 501.424,84.494 501.695,84.655 501.966,84.816 502.237,84.978 502.507,85.139 502.778,85.301 503.049,85.463 503.320,85.626 503.591,85.788 503.862,85.951 504.132,86.114 504.403,86.277 504.674,86.441 504.945,86.604 505.216,86.768 505.486,86.932 505.757,87.097 506.028,87.261 506.299,87.426 506.570,87.591 506.841,87.756 507.111,87.922 507.382,88.087 507.653,88.253 507.924,88.419 508.195,88.586 508.466,88.752 508.736,88.919 509.007,89.086 509.278,89.253 509.549,89.420 509.820,89.588 510.090,89.756 510.361,89.924 510.632,90.092 510.903,90.261 511.174,90.429 511.445,90.598 511.715,90.767 511.986,90.937 512.257,91.106 512.528,91.276 512.799,91.446 513.069,91.616 513.340,91.787 513.611,91.957 513.882,92.128 514.153,92.299 514.424,92.470 514.694,92.642 514.965,92.813 515.236,92.985 515.507,93.157 515.778,93.330 516.049,93.502 516.319,93.675 516.590,93.848 516.861,94.021 517.132,94.194 517.403,94.368 517.673,94.541 517.944,94.715 518.215,94.889 518.486,95.064 518.757,95.238 519.028,95.413 519.298,95.588 519.569,95.763 519.840,95.938 520.111,96.114 520.382,96.289 520.653,96.465 520.923,96.641 521.194,96.818 521.465,96.994 521.736,97.171 522.007,97.348 522.277,97.525 522.548,97.702 522.819,97.880 523.090,98.057 523.361,98.235 523.632,98.413 523.902,98.591 524.173,98.770 524.444,98.948 524.715,99.127 524.986,99.306 525.257,99.486 525.527,99.665 525.798,99.844 526.069,100.024 526.340,100.204 526.611,100.384 526.881,100.565 527.152,100.745 527.423,100.926 527.694,101.107 527.965,101.288 528.236,101.469 528.506,101.651 528.777,101.832 529.048,102.014 529.319,102.196 529.590,102.378 529.861,102.560 530.131,102.743 530.402,102.926 530.673,103.109 530.944,103.292 531.215,103.475 531.485,103.658 531.756,103.842 532.027,104.026 532.298,104.210 532.569,104.394 532.840,104.578 533.110,104.763 533.381,104.947 533.652,105.132 533.923,105.317 534.194,105.502 534.464,105.688 534.735,105.873 535.006,106.059 535.277,106.245 535.548,106.431 535.819,106.617 536.089,106.804 536.360,106.990 536.631,107.177 536.902,107.364 537.173,107.551 537.444,107.738 537.714,107.926 537.985,108.113 538.256,108.301 538.527,108.489 538.798,108.677 539.068,108.865 539.339,109.054 539.610,109.242 539.881,109.431 540.152,109.620 540.423,109.809 540.693,109.998 540.964,110.188 541.235,110.377 541.506,110.567 541.777,110.757 542.048,110.947 542.318,111.137 542.589,111.327 542.860,111.518 543.131,111.709 543.402,111.899 543.672,112.090 543.943,112.282 544.214,112.473 544.485,112.664 544.756,112.856 545.027,113.048 545.297,113.240 545.568,113.432 545.839,113.624 546.110,113.816 546.381,114.009 546.652,114.202 546.922,114.394 547.193,114.587 547.464,114.780 547.735,114.974 548.006,115.167 548.276,115.361 548.547,115.555 548.818,115.748 549.089,115.942 549.360,116.137 549.631,116.331 549.901,116.525 550.172,116.720 550.443,116.915 550.714,117.110 550.985,117.305 551.256,117.500 551.526,117.695 551.797,117.891 552.068,118.086 552.339,118.282 552.610,118.478 552.880,118.674 553.151,118.870 553.422,119.067 553.693,119.263 553.964,119.460 554.235,119.656 554.505,119.853 554.776,120.050 555.047,120.247 555.318,120.445 555.589,120.642 555.860,120.840 556.130,121.037 556.401,121.235 556.672,121.433 556.943,121.631 557.214,121.830 557.484,122.028 557.755,122.226 558.026,122.425 558.297,122.624 558.568,122.823 558.839,123.022 559.109,123.221 559.380,123.420 559.651,123.620 559.922,123.819 560.193,124.019 560.463,124.218 560.734,124.418 561.005,124.618 561.276,124.819 561.547,125.019 561.818,125.219 562.088,125.420 562.359,125.620 562.630,125.821 562.901,126.022 563.172,126.223 563.443,126.424 563.713,126.626 563.984,126.827 564.255,127.028 564.526,127.230 564.797,127.432 565.067,127.634 565.338,127.836 565.609,128.038 565.880,128.240 566.151,128.442 566.422,128.645 566.692,128.847 566.963,129.050 567.234,129.253 567.505,129.456 567.776,129.659 568.047,129.862 568.317,130.065 568.588,130.269 568.859,130.472 569.130,130.676 569.401,130.879 569.671,131.083 569.942,131.287 570.213,131.491 570.484,131.695 570.755,131.899 571.026,132.104 571.296,132.308 571.567,132.513 571.838,132.717 572.109,132.922 572.380,133.127 572.651,133.332 572.921,133.537 573.192,133.742 573.463,133.948 573.734,134.153 574.005,134.358 574.275,134.564 574.546,134.770 574.817,134.976 575.088,135.181 575.359,135.387 575.630,135.594 575.900,135.800 576.171,136.006 576.442,136.212 576.713,136.419 576.984,136.626 577.255,136.832 577.525,137.039 577.796,137.246 578.067,137.453 578.338,137.660 578.609,137.867 578.879,138.074 579.150,138.282 579.421,138.489 579.692,138.697 579.963,138.904 580.234,139.112 580.504,139.320 580.775,139.528 581.046,139.736 581.317,139.944 581.588,140.152 581.858,140.360 582.129,140.568 582.400,140.777 582.671,140.985 582.942,141.194 583.213,141.403 583.483,141.611 583.754,141.820 584.025,142.029 584.296,142.238 584.567,142.447 584.838,142.657 585.108,142.866 585.379,143.075 585.650,143.285 585.921,143.494 586.192,143.704 586.462,143.913 586.733,144.123 587.004,144.333 587.275,144.543 587.546,144.753 587.817,144.963 588.087,145.173 588.358,145.383 588.629,145.594 588.900,145.804 589.171,146.014 589.442,146.225 589.712,146.435 589.983,146.646 590.254,146.857 590.525,147.068 590.796,147.279 591.066,147.490 591.337,147.701 591.608,147.912 591.879,148.123 592.150,148.334 592.421,148.545 592.691,148.757 592.962,148.968 593.233,149.180 593.504,149.391 593.775,149.603 594.046,149.815 594.316,150.026 594.587,150.238 594.858,150.450 595.129,150.662 595.400,150.874 595.670,151.086 595.941,151.298 596.212,151.511 596.483,151.723 596.754,151.935 597.025,152.148 597.295,152.360 597.566,152.573 597.837,152.785 598.108,152.998 598.379,153.211 598.650,153.423 598.920,153.636 599.191,153.849 599.462,154.062 599.733,154.275 600.004,154.488 600.274,154.701 600.545,154.914 600.816,155.127 601.087,155.341 601.358,155.554 601.629,155.767 601.899,155.981 602.170,156.194 602.441,156.408 602.712,156.621 602.983,156.835 603.253,157.049 603.524,157.262 603.795,157.476 604.066,157.690 604.337,157.904 604.608,158.118 604.878,158.332 605.149,158.546 605.420,158.760 605.691,158.974 605.962,159.188 606.233,159.402 606.503,159.617 606.774,159.831 607.045,160.045 607.316,160.260 607.587,160.474 607.857,160.688 608.128,160.903 608.399,161.117 608.670,161.332 608.941,161.547 609.212,161.761 609.482,161.976 609.753,162.191 610.024,162.406 610.295,162.620 610.566,162.835 610.837,163.050 611.107,163.265 611.378,163.480 611.649,163.695 611.920,163.910 612.191,164.125 612.461,164.340 612.732,164.555 613.003,164.770 613.274,164.986 613.545,165.201 613.816,165.416 614.086,165.631 614.357,165.847 614.628,166.062 614.899,166.278 615.170,166.493 615.441,166.708 615.711,166.924 615.982,167.139 616.253,167.355 616.524,167.570 616.795,167.786 617.065,168.002 617.336,168.217 617.607,168.433 617.878,168.649 618.149,168.864 618.420,169.080 618.690,169.296 618.961,169.512 619.232,169.727 619.503,169.943 619.774,170.159 620.045,170.375 620.315,170.591 620.586,170.807 620.857,171.023 621.128,171.239 621.399,171.455 621.669,171.671 621.940,171.887 622.211,172.103 622.482,172.319 622.753,172.535 623.024,172.751 623.294,172.967 623.565,173.183 623.836,173.399 624.107,173.615 624.378,173.831 624.649,174.048 624.919,174.264 625.190,174.480 625.461,174.696 625.732,174.912 626.003,175.129 626.273,175.345 626.544,175.561 626.815,175.777 627.086,175.994 627.357,176.210 627.628,176.426 627.898,176.643 628.169,176.859 628.440,177.075 628.711,177.291 628.982,177.508 629.252,177.724 629.523,177.940 629.794,178.157 630.065,178.373 630.336,178.590 630.607,178.806 630.877,179.022 631.148,179.239 631.419,179.455 631.690,179.671 631.961,179.888 632.232,180.104 632.502,180.320 "/>
<g>
</g>
</g>
<g id="ID000003" >
  <g transform="translate(361.056,30.565)">
    <g transform="rotate(-0.0)">
      <text x="0.000" y="0.000" font-family="Helvetica" text-anchor="middle" font-size="12pt" fill="#000000" >l = 0.01, x* = -0.50</text>
    </g>
  </g>
</g>
<g id="ID000004" >
</g>
<g id="ID000005" >
</g>
    </g>
    <g>
      <polyline fill="none" stroke="#000000" stroke-width="0.5pt" stroke-dasharray="none" points="145.021,218.141 145.021,212.725 "/>
      <polyline fill="none" stroke="#000000" stroke-width="0.5pt" stroke-dasharray="none" points="199.186,218.141 199.186,212.725 "/>
      <polyline fill="none" stroke="#000000" stroke-width="0.5pt" stroke-dasharray="none" points="253.350,218.141 253.350,212.725 "/>
      <polyline fill="none" stroke="#000000" stroke-width="0.5pt" stroke-dasharray="none" points="307.515,218.141 307.515,212.725 "/>
      <polyline fill="none" stroke="#000000" stroke-width="0.5pt" stroke-dasharray="none" points="361.680,218.141 361.680,212.725 "/>
      <polyline fill="none" stroke="#000000" stroke-width="0.5pt" stroke-dasharray="none" points="415.844,218.141 415.844,212.725 "/>
      <polyline fill="none" stroke="#000000" stroke-width="0.5pt" stroke-dasharray="none" points="470.009,218.141 470.009,212.725 "/>
      <polyline fill="none" stroke="#000000" stroke-width="0.5pt" stroke-dasharray="none" points="524.173,218.141 524.173,212.725 "/>
      <polyline fill="none" stroke="#000000" stroke-width="0.5pt" stroke-dasharray="none" points="578.338,218.141 578.338,212.725 "/>
      <polyline fill="none" stroke="#000000" stroke-width="0.5pt" stroke-dasharray="none" points="90.857,218.141 632.502,218.141 "/>
      <polyline fill="none" stroke="#000000" stroke-width="0.5pt" stroke-dasharray="none" points="145.021,39.313 145.021,44.729 "/>
      <polyline fill="none" stroke="#000000" stroke-width="0.5pt" stroke-dasharray="none" points="199.186,39.313 199.186,44.729 "/>
      <polyline fill="none" stroke="#000000" stroke-width="0.5pt" stroke-dasharray="none" points="253.350,39.313 253.350,44.729 "/>
      <polyline fill="none" stroke="#000000" stroke-width="0.5pt" stroke-dasharray="none" points="307.515,39.313 307.515,44.729 "/>
      <polyline fill="none" stroke="#000000" stroke-width="0.5pt" stroke-dasharray="none" points="361.680,39.313 361.680,44.729 "/>
      <polyline fill="none" stroke="#000000" stroke-width="0.5pt" stroke-dasharray="none" points="415.844,39.313 415.844,44.729 "/>
      <polyline fill="none" stroke="#000000" stroke-width="0.5pt" stroke-dasharray="none" points="470.009,39.313 470.009,44.729 "/>
      <polyline fill="none" stroke="#000000" stroke-width="0.5pt" stroke-dasharray="none" points="524.173,39.313 524.173,44.729 "/>
      <polyline fill="none" stroke="#000000" stroke-width="0.5pt" stroke-dasharray="none" points="578.338,39.313 578.338,44.729 "/>
      <polyline fill="none" stroke="#000000" stroke-width="0.5pt" stroke-dasharray="none" points="90.857,39.313 632.502,39.313 "/>
  <g transform="translate(90.857,236.445)">
    <g transform="rotate(-0.0)">
      <text x="0.000" y="0.000" font-family="Helvetica" text-anchor="middle" font-size="12pt" fill="#000000" >-1</text>
    </g>
  </g>
  <g transform="translate(145.021,236.445)">
    <g transform="rotate(-0.0)">
      <text x="0.000" y="0.000" font-family="Helvetica" text-anchor="middle" font-size="12pt" fill="#000000" >-0.8</text>
    </g>
  </g>
  <g transform="translate(199.186,236.445)">
    <g transform="rotate(-0.0)">
      <text x="0.000" y="0.000" font-family="Helvetica" text-anchor="middle" font-size="12pt" fill="#000000" >-0.6</text>
    </g>
  </g>
  <g transform="translate(253.350,236.445)">
    <g transform="rotate(-0.0)">
      <text x="0.000" y="0.000" font-family="Helvetica" text-anchor="middle" font-size="12pt" fill="#000000" >-0.4</text>
    </g>
  </g>
  <g transform="translate(307.515,236.445)">
    <g transform="rotate(-0.0)">
      <text x="0.000" y="0.000" font-family="Helvetica" text-anchor="middle" font-size="12pt" fill="#000000" >-0.2</text>
    </g>
  </g>
  <g transform="translate(361.680,236.445)">
    <g transform="rotate(-0.0)">
      <text x="0.000" y="0.000" font-family="Helvetica" text-anchor="middle" font-size="12pt" fill="#000000" >0</text>
    </g>
  </g>
  <g transform="translate(415.844,236.445)">
    <g transform="rotate(-0.0)">
      <text x="0.000" y="0.000" font-family="Helvetica" text-anchor="middle" font-size="12pt" fill="#000000" >0.2</text>
    </g>
  </g>
  <g transform="translate(470.009,236.445)">
    <g transform="rotate(-0.0)">
      <text x="0.000" y="0.000" font-family="Helvetica" text-anchor="middle" font-size="12pt" fill="#000000" >0.4</text>
    </g>
  </g>
  <g transform="translate(524.173,236.445)">
    <g transform="rotate(-0.0)">
      <text x="0.000" y="0.000" font-family="Helvetica" text-anchor="middle" font-size="12pt" fill="#000000" >0.6</text>
    </g>
  </g>
  <g transform="translate(578.338,236.445)">
    <g transform="rotate(-0.0)">
      <text x="0.000" y="0.000" font-family="Helvetica" text-anchor="middle" font-size="12pt" fill="#000000" >0.8</text>
    </g>
  </g>
  <g transform="translate(632.502,236.445)">
    <g transform="rotate(-0.0)">
      <text x="0.000" y="0.000" font-family="Helvetica" text-anchor="middle" font-size="12pt" fill="#000000" >1</text>
    </g>
  </g>
      <polyline fill="none" stroke="#000000" stroke-width="0.5pt" stroke-dasharray="none" points="90.857,173.434 96.273,173.434 "/>
      <polyline fill="none" stroke="#000000" stroke-width="0.5pt" stroke-dasharray="none" points="90.857,128.727 96.273,128.727 "/>
      <polyline fill="none" stroke="#000000" stroke-width="0.5pt" stroke-dasharray="none" points="90.857,84.020 96.273,84.020 "/>
      <polyline fill="none" stroke="#000000" stroke-width="0.5pt" stroke-dasharray="none" points="90.857,218.141 90.857,39.313 "/>
      <polyline fill="none" stroke="#000000" stroke-width="0.5pt" stroke-dasharray="none" points="632.502,173.434 627.086,173.434 "/>
      <polyline fill="none" stroke="#000000" stroke-width="0.5pt" stroke-dasharray="none" points="632.502,128.727 627.086,128.727 "/>
      <polyline fill="none" stroke="#000000" stroke-width="0.5pt" stroke-dasharray="none" points="632.502,84.020 627.086,84.020 "/>
      <polyline fill="none" stroke="#000000" stroke-width="0.5pt" stroke-dasharray="none" points="632.502,218.141 632.502,39.313 "/>
  <g transform="translate(80.024,223.758)">
    <g transform="rotate(-0.0)">
      <text x="0.000" y="0.000" font-family="Helvetica" text-anchor="end" font-size="12pt" fill="#000000" >0.2</text>
    </g>
  </g>
  <g transform="translate(80.024,179.050)">
    <g transform="rotate(-0.0)">
      <text x="0.000" y="0.000" font-family="Helvetica" text-anchor="end" font-size="12pt" fill="#000000" >0.25</text>
    </g>
  </g>
  <g transform="translate(80.024,134.343)">
    <g transform="rotate(-0.0)">
      <text x="0.000" y="0.000" font-family="Helvetica" text-anchor="end" font-size="12pt" fill="#000000" >0.3</text>
    </g>
  </g>
  <g transform="translate(80.024,89.636)">
    <g transform="rotate(-0.0)">
      <text x="0.000" y="0.000" font-family="Helvetica" text-anchor="end" font-size="12pt" fill="#000000" >0.35</text>
    </g>
  </g>
  <g transform="translate(80.024,44.929)">
    <g transform="rotate(-0.0)">
      <text x="0.000" y="0.000" font-family="Helvetica" text-anchor="end" font-size="12pt" fill="#000000" >0.4</text>
    </g>
  </g>
      <polyline fill="none" stroke="#000000" stroke-width="0.5pt" stroke-dasharray="none" points="90.857,218.141 90.857,216.353 "/>
      <polyline fill="none" stroke="#000000" stroke-width="0.5pt" stroke-dasharray="none" points="90.857,218.141 90.857,218.141 "/>
    </g>
  </g>
  <g id ="ID000006">
  <clipPath id="ID000007">
    <rect x="90.857" y="287.686" width="541.646" height="178.828"/>
  </clipPath>
      <polygon fill="#ffffff" fill-opacity="1.00" stroke="none" stroke-width="0.5pt" stroke-opacity="1.00" stroke-dasharray="none" points="90.857,466.514 632.502,466.514 632.502,287.686 90.857,287.686 "/>
      <polygon fill="#ffffff" fill-opacity="1.00" stroke="none" stroke-width="0.5pt" stroke-opacity="1.00" stroke-dasharray="none" points="90.857,287.686 632.502,287.686 632.502,287.686 90.857,287.686 "/>
      <polygon fill="#ffffff" fill-opacity="1.00" stroke="none" stroke-width="0.5pt" stroke-opacity="1.00" stroke-dasharray="none" points="90.857,466.514 90.857,466.514 90.857,287.686 90.857,287.686 "/>
    <g>
<g id="ID000008" clip-path="url(#ID000007)" >
      <polyline fill="none" stroke="#0000ff" stroke-width="0.5pt" stroke-dasharray="none" points="90.857,428.986 91.128,428.770 91.398,428.554 91.669,428.337 91.940,428.121 92.211,427.905 92.482,427.688 92.752,427.472 93.023,427.256 93.294,427.039 93.565,426.823 93.836,426.607 94.107,426.390 94.377,426.174 94.648,425.958 94.919,425.741 95.190,425.525 95.461,425.309 95.732,425.092 96.002,424.876 96.273,424.660 96.544,424.444 96.815,424.227 97.086,424.011 97.356,423.795 97.627,423.579 97.898,423.362 98.169,423.146 98.440,422.930 98.711,422.714 98.981,422.498 99.252,422.282 99.523,422.065 99.794,421.849 100.065,421.633 100.335,421.417 100.606,421.201 100.877,420.985 101.148,420.769 101.419,420.553 101.690,420.337 101.960,420.121 102.231,419.905 102.502,419.689 102.773,419.473 103.044,419.257 103.315,419.041 103.585,418.825 103.856,418.609 104.127,418.394 104.398,418.178 104.669,417.962 104.939,417.746 105.210,417.530 105.481,417.315 105.752,417.099 106.023,416.883 106.294,416.668 106.564,416.452 106.835,416.236 107.106,416.021 107.377,415.805 107.648,415.590 107.919,415.374 108.189,415.159 108.460,414.943 108.731,414.728 109.002,414.513 109.273,414.297 109.543,414.082 109.814,413.867 110.085,413.651 110.356,413.436 110.627,413.221 110.898,413.006 111.168,412.791 111.439,412.576 111.710,412.360 111.981,412.145 112.252,411.930 112.523,411.716 112.793,411.501 113.064,411.286 113.335,411.071 113.606,410.856 113.877,410.641 114.147,410.427 114.418,410.212 114.689,409.997 114.960,409.783 115.231,409.568 115.502,409.353 115.772,409.139 116.043,408.925 116.314,408.710 116.585,408.496 116.856,408.281 117.127,408.067 117.397,407.853 117.668,407.639 117.939,407.425 118.210,407.210 118.481,406.996 118.751,406.782 119.022,406.568 119.293,406.355 119.564,406.141 119.835,405.927 120.106,405.713 120.376,405.499 120.647,405.286 120.918,405.072 121.189,404.858 121.460,404.645 121.730,404.431 122.001,404.218 122.272,404.005 122.543,403.791 122.814,403.578 123.085,403.365 123.355,403.152 123.626,402.939 123.897,402.726 124.168,402.513 124.439,402.300 124.710,402.087 124.980,401.874 125.251,401.661 125.522,401.448 125.793,401.236 126.064,401.023 126.334,400.811 126.605,400.598 126.876,400.386 127.147,400.173 127.418,399.961 127.689,399.749 127.959,399.537 128.230,399.325 128.501,399.113 128.772,398.901 129.043,398.689 129.314,398.477 129.584,398.265 129.855,398.053 130.126,397.842 130.397,397.630 130.668,397.419 130.938,397.207 131.209,396.996 131.480,396.785 131.751,396.573 132.022,396.362 132.293,396.151 132.563,395.940 132.834,395.729 133.105,395.518 133.376,395.307 133.647,395.097 133.918,394.886 134.188,394.675 134.459,394.465 134.730,394.254 135.001,394.044 135.272,393.834 135.542,393.624 135.813,393.413 136.084,393.203 136.355,392.993 136.626,392.783 136.897,392.574 137.167,392.364 137.438,392.154 137.709,391.945 137.980,391.735 138.251,391.526 138.522,391.316 138.792,391.107 139.063,390.898 139.334,390.689 139.605,390.480 139.876,390.271 140.146,390.062 140.417,389.853 140.688,389.644 140.959,389.436 141.230,389.227 141.501,389.019 141.771,388.810 142.042,388.602 142.313,388.394 142.584,388.186 142.855,387.978 143.126,387.770 143.396,387.562 143.667,387.354 143.938,387.147 144.209,386.939 144.480,386.732 144.750,386.524 145.021,386.317 145.292,386.110 145.563,385.903 145.834,385.696 146.105,385.489 146.375,385.282 146.646,385.076 146.917,384.869 147.188,384.662 147.459,384.456 147.729,384.250 148.000,384.044 148.271,383.837 148.542,383.631 148.813,383.425 149.084,383.220 149.354,383.014 149.625,382.808 149.896,382.603 150.167,382.397 150.438,382.192 150.709,381.987 150.979,381.782 151.250,381.577 151.521,381.372 151.792,381.167 152.063,380.962 152.333,380.758 152.604,380.553 152.875,380.349 153.146,380.145 153.417,379.941 153.688,379.737 153.958,379.533 154.229,379.329 154.500,379.125 154.771,378.921 155.042,378.718 155.313,378.515 155.583,378.311 155.854,378.108 156.125,377.905 156.396,377.702 156.667,377.499 156.937,377.297 157.208,377.094 157.479,376.892 157.750,376.689 158.021,376.487 158.292,376.285 158.562,376.083 158.833,375.881 159.104,375.679 159.375,375.478 159.646,375.276 159.917,375.075 160.187,374.873 160.458,374.672 160.729,374.471 161.000,374.270 161.271,374.069 161.541,373.869 161.812,373.668 162.083,373.468 162.354,373.267 162.625,373.067 162.896,372.867 163.166,372.667 163.437,372.468 163.708,372.268 163.979,372.068 164.250,371.869 164.521,371.670 164.791,371.470 165.062,371.271 165.333,371.072 165.604,370.874 165.875,370.675 166.145,370.476 166.416,370.278 166.687,370.080 166.958,369.882 167.229,369.684 167.500,369.486 167.770,369.288 168.041,369.091 168.312,368.893 168.583,368.696 168.854,368.499 169.124,368.302 169.395,368.105 169.666,367.908 169.937,367.711 170.208,367.515 170.479,367.318 170.749,367.122 171.020,366.926 171.291,366.730 171.562,366.534 171.833,366.339 172.104,366.143 172.374,365.948 172.645,365.753 172.916,365.558 173.187,365.363 173.458,365.168 173.728,364.973 173.999,364.779 174.270,364.584 174.541,364.390 174.812,364.196 175.083,364.002 175.353,363.808 175.624,363.615 175.895,363.421 176.166,363.228 176.437,363.035 176.708,362.842 176.978,362.649 177.249,362.456 177.520,362.264 177.791,362.071 178.062,361.879 178.332,361.687 178.603,361.495 178.874,361.303 179.145,361.111 179.416,360.920 179.687,360.729 179.957,360.537 180.228,360.346 180.499,360.155 180.770,359.965 181.041,359.774 181.312,359.584 181.582,359.394 181.853,359.203 182.124,359.014 182.395,358.824 182.666,358.634 182.936,358.445 183.207,358.255 183.478,358.066 183.749,357.877 184.020,357.689 184.291,357.500 184.561,357.312 184.832,357.123 185.103,356.935 185.374,356.747 185.645,356.559 185.916,356.372 186.186,356.184 186.457,355.997 186.728,355.810 186.999,355.623 187.270,355.436 187.540,355.250 187.811,355.063 188.082,354.877 188.353,354.691 188.624,354.505 188.895,354.319 189.165,354.133 189.436,353.948 189.707,353.763 189.978,353.578 190.249,353.393 190.519,353.208 190.790,353.024 191.061,352.839 191.332,352.655 191.603,352.471 191.874,352.287 192.144,352.104 192.415,351.920 192.686,351.737 192.957,351.554 193.228,351.371 193.499,351.188 193.769,351.005 194.040,350.823 194.311,350.641 194.582,350.459 194.853,350.277 195.123,350.095 195.394,349.914 195.665,349.732 195.936,349.551 196.207,349.370 196.478,349.190 196.748,349.009 197.019,348.829 197.290,348.648 197.561,348.468 197.832,348.289 198.103,348.109 198.373,347.930 198.644,347.750 198.915,347.571 199.186,347.392 199.457,347.214 199.727,347.035 199.998,346.857 200.269,346.679 200.540,346.501 200.811,346.323 201.082,346.146 201.352,345.968 201.623,345.791 201.894,345.614 202.165,345.438 202.436,345.261 202.707,345.085 202.977,344.909 203.248,344.733 203.519,344.557 203.790,344.381 204.061,344.206 204.331,344.031 204.602,343.856 204.873,343.681 205.144,343.506 205.415,343.332 205.686,343.158 205.956,342.984 206.227,342.810 206.498,342.637 206.769,342.463 207.040,342.290 207.311,342.117 207.581,341.945 207.852,341.772 208.123,341.600 208.394,341.428 208.665,341.256 208.935,341.084 209.206,340.912 209.477,340.741 209.748,340.570 210.019,340.399 210.290,340.229 210.560,340.058 210.831,339.888 211.102,339.718 211.373,339.548 211.644,339.378 211.915,339.209 212.185,339.040 212.456,338.871 212.727,338.702 212.998,338.534 213.269,338.365 213.539,338.197 213.810,338.029 214.081,337.861 214.352,337.694 214.623,337.527 214.894,337.360 215.164,337.193 215.435,337.026 215.706,336.860 215.977,336.694 216.248,336.528 216.518,336.362 216.789,336.197 217.060,336.031 217.331,335.866 217.602,335.701 217.873,335.537 218.143,335.372 218.414,335.208 218.685,335.044 218.956,334.881 219.227,334.717 219.498,334.554 219.768,334.391 220.039,334.228 220.310,334.065 220.581,333.903 220.852,333.741 221.122,333.579 221.393,333.417 221.664,333.256 221.935,333.094 222.206,332.933 222.477,332.773 222.747,332.612 223.018,332.452 223.289,332.292 223.560,332.132 223.831,331.972 224.102,331.813 224.372,331.654 224.643,331.495 224.914,331.336 225.185,331.178 225.456,331.019 225.726,330.861 225.997,330.704 226.268,330.546 226.539,330.389 226.810,330.232 227.081,330.075 227.351,329.918 227.622,329.762 227.893,329.606 228.164,329.450 228.435,329.295 228.706,329.139 228.976,328.984 229.247,328.829 229.518,328.675 229.789,328.520 230.060,328.366 230.330,328.212 230.601,328.058 230.872,327.905 231.143,327.752 231.414,327.599 231.685,327.446 231.955,327.294 232.226,327.141 232.497,326.989 232.768,326.838 233.039,326.686 233.310,326.535 233.580,326.384 233.851,326.233 234.122,326.083 234.393,325.932 234.664,325.782 234.934,325.633 235.205,325.483 235.476,325.334 235.747,325.185 236.018,325.036 236.289,324.888 236.559,324.739 236.830,324.591 237.101,324.444 237.372,324.296 237.643,324.149 237.913,324.002 238.184,323.855 238.455,323.709 238.726,323.563 238.997,323.417 239.268,323.271 239.538,323.125 239.809,322.980 240.080,322.835 240.351,322.691 240.622,322.546 240.893,322.402 241.163,322.258 241.434,322.115 241.705,321.971 241.976,321.828 242.247,321.685 242.517,321.543 242.788,321.400 243.059,321.258 243.330,321.116 243.601,320.975 243.872,320.833 244.142,320.692 244.413,320.552 244.684,320.411 244.955,320.271 245.226,320.131 245.497,319.991 245.767,319.852 246.038,319.713 246.309,319.574 246.580,319.435 246.851,319.297 247.121,319.159 247.392,319.021 247.663,318.883 247.934,318.746 248.205,318.609 248.476,318.472 248.746,318.336 249.017,318.199 249.288,318.063 249.559,317.928 249.830,317.792 250.101,317.657 250.371,317.522 250.642,317.388 250.913,317.253 251.184,317.119 251.455,316.986 251.725,316.852 251.996,316.719 252.267,316.586 252.538,316.453 252.809,316.321 253.080,316.189 253.350,316.057 253.621,315.925 253.892,315.794 254.163,315.663 254.434,315.532 254.705,315.402 254.975,315.271 255.246,315.142 255.517,315.012 255.788,314.883 256.059,314.754 256.329,314.625 256.600,314.496 256.871,314.368 257.142,314.240 257.413,314.112 257.684,313.985 257.954,313.858 258.225,313.731 258.496,313.605 258.767,313.478 259.038,313.352 259.308,313.227 259.579,313.101 259.850,312.976 260.121,312.851 260.392,312.727 260.663,312.603 260.933,312.479 261.204,312.355 261.475,312.231 261.746,312.108 262.017,311.986 262.288,311.863 262.558,311.741 262.829,311.619 263.100,311.497 263.371,311.376 263.642,311.255 263.912,311.134 264.183,311.013 264.454,310.893 264.725,310.773 264.996,310.654 265.267,310.534 265.537,310.415 265.808,310.296 266.079,310.178 266.350,310.060 266.621,309.942 266.892,309.824 267.162,309.707 267.433,309.590 267.704,309.473 267.975,309.357 268.246,309.241 268.516,309.125 268.787,309.010 269.058,308.894 269.329,308.780 269.600,308.665 269.871,308.551 270.141,308.437 270.412,308.323 270.683,308.209 270.954,308.096 271.225,307.983 271.496,307.871 271.766,307.759 272.037,307.647 272.308,307.535 272.579,307.424 272.850,307.313 273.120,307.202 273.391,307.092 273.662,306.982 273.933,306.872 274.204,306.762 274.475,306.653 274.745,306.544 275.016,306.435 275.287,306.327 275.558,306.219 275.829,306.111 276.100,306.004 276.370,305.897 276.641,305.790 276.912,305.684 277.183,305.578 277.454,305.472 277.724,305.366 277.995,305.261 278.266,305.156 278.537,305.051 278.808,304.947 279.079,304.843 279.349,304.739 279.620,304.636 279.891,304.533 280.162,304.430 280.433,304.328 280.704,304.226 280.974,304.124 281.245,304.022 281.516,303.921 281.787,303.820 282.058,303.719 282.328,303.619 282.599,303.519 282.870,303.420 283.141,303.320 283.412,303.221 283.683,303.122 283.953,303.024 284.224,302.926 284.495,302.828 284.766,302.731 285.037,302.634 285.307,302.537 285.578,302.440 285.849,302.344 286.120,302.248 286.391,302.153 286.662,302.057 286.932,301.962 287.203,301.868 287.474,301.774 287.745,301.680 288.016,301.586 288.287,301.493 288.557,301.400 288.828,301.307 289.099,301.214 289.370,301.122 289.641,301.031 289.911,300.939 290.182,300.848 290.453,300.757 290.724,300.667 290.995,300.577 291.266,300.487 291.536,300.397 291.807,300.308 292.078,300.219 292.349,300.131 292.620,300.043 292.891,299.955 293.161,299.867 293.432,299.780 293.703,299.693 293.974,299.606 294.245,299.520 294.515,299.434 294.786,299.349 295.057,299.263 295.328,299.178 295.599,299.094 295.870,299.009 296.140,298.925 296.411,298.842 296.682,298.758 296.953,298.675 297.224,298.593 297.495,298.510 297.765,298.428 298.036,298.346 298.307,298.265 298.578,298.184 298.849,298.103 299.119,298.023 299.390,297.943 299.661,297.863 299.932,297.784 300.203,297.705 300.474,297.626 300.744,297.547 301.015,297.469 301.286,297.392 301.557,297.314 301.828,297.237 302.099,297.160 302.369,297.084 302.640,297.008 302.911,296.932 303.182,296.857 303.453,296.781 303.723,296.707 303.994,296.632 304.265,296.558 304.536,296.484 304.807,296.411 305.078,296.338 305.348,296.265 305.619,296.193 305.890,296.120 306.161,296.049 306.432,295.977 306.702,295.906 306.973,295.835 307.244,295.765 307.515,295.695 307.786,295.625 308.057,295.556 308.327,295.487 308.598,295.418 308.869,295.349 309.140,295.281 309.411,295.214 309.682,295.146 309.952,295.079 310.223,295.012 310.494,294.946 310.765,294.880 311.036,294.814 311.306,294.749 311.577,294.684 311.848,294.619 312.119,294.555 312.390,294.491 312.661,294.427 312.931,294.364 313.202,294.301 313.473,294.238 313.744,294.176 314.015,294.114 314.286,294.052 314.556,293.991 314.827,293.930 315.098,293.869 315.369,293.809 315.640,293.749 315.910,293.689 316.181,293.630 316.452,293.571 316.723,293.513 316.994,293.454 317.265,293.396 317.535,293.339 317.806,293.282 318.077,293.225 318.348,293.168 318.619,293.112 318.890,293.056 319.160,293.001 319.431,292.946 319.702,292.891 319.973,292.836 320.244,292.782 320.514,292.729 320.785,292.675 321.056,292.622 321.327,292.569 321.598,292.517 321.869,292.465 322.139,292.413 322.410,292.362 322.681,292.311 322.952,292.260 323.223,292.210 323.494,292.160 323.764,292.110 324.035,292.061 324.306,292.012 324.577,291.963 324.848,291.915 325.118,291.867 325.389,291.820 325.660,291.773 325.931,291.726 326.202,291.679 326.473,291.633 326.743,291.587 327.014,291.542 327.285,291.497 327.556,291.452 327.827,291.407 328.097,291.363 328.368,291.320 328.639,291.276 328.910,291.233 329.181,291.191 329.452,291.148 329.722,291.106 329.993,291.065 330.264,291.023 330.535,290.982 330.806,290.942 331.077,290.902 331.347,290.862 331.618,290.822 331.889,290.783 332.160,290.744 332.431,290.706 332.701,290.668 332.972,290.630 333.243,290.592 333.514,290.555 333.785,290.519 334.056,290.482 334.326,290.446 334.597,290.411 334.868,290.375 335.139,290.340 335.410,290.306 335.681,290.271 335.951,290.238 336.222,290.204 336.493,290.171 336.764,290.138 337.035,290.105 337.305,290.073 337.576,290.041 337.847,290.010 338.118,289.979 338.389,289.948 338.660,289.918 338.930,289.888 339.201,289.858 339.472,289.829 339.743,289.800 340.014,289.771 340.285,289.743 340.555,289.715 340.826,289.687 341.097,289.660 341.368,289.633 341.639,289.607 341.909,289.581 342.180,289.555 342.451,289.529 342.722,289.504 342.993,289.480 343.264,289.455 343.534,289.431 343.805,289.408 344.076,289.384 344.347,289.361 344.618,289.339 344.889,289.316 345.159,289.295 345.430,289.273 345.701,289.252 345.972,289.231 346.243,289.211 346.513,289.190 346.784,289.171 347.055,289.151 347.326,289.132 347.597,289.113 347.868,289.095 348.138,289.077 348.409,289.059 348.680,289.042 348.951,289.025 349.222,289.009 349.493,288.993 349.763,288.977 350.034,288.961 350.305,288.946 350.576,288.931 350.847,288.917 351.117,288.903 351.388,288.889 351.659,288.876 351.930,288.863 352.201,288.850 352.472,288.838 352.742,288.826 353.013,288.814 353.284,288.803 353.555,288.792 353.826,288.781 354.096,288.771 354.367,288.762 354.638,288.752 354.909,288.743 355.180,288.734 355.451,288.726 355.721,288.718 355.992,288.710 356.263,288.703 356.534,288.696 356.805,288.689 357.076,288.683 357.346,288.677 357.617,288.672 357.888,288.666 358.159,288.662 358.430,288.657 358.700,288.653 358.971,288.649 359.242,288.646 359.513,288.643 359.784,288.640 360.055,288.638 360.325,288.636 360.596,288.634 360.867,288.633 361.138,288.632 361.409,288.632 361.680,288.632 361.950,288.632 362.221,288.632 362.492,288.633 362.763,288.634 363.034,288.636 363.304,288.638 363.575,288.640 363.846,288.643 364.117,288.646 364.388,288.649 364.659,288.653 364.929,288.657 365.200,288.662 365.471,288.666 365.742,288.672 366.013,288.677 366.284,288.683 366.554,288.689 366.825,288.696 367.096,288.703 367.367,288.710 367.638,288.718 367.908,288.726 368.179,288.734 368.450,288.743 368.721,288.752 368.992,288.762 369.263,288.771 369.533,288.781 369.804,288.792 370.075,288.803 370.346,288.814 370.617,288.826 370.888,288.838 371.158,288.850 371.429,288.863 371.700,288.876 371.971,288.889 372.242,288.903 372.512,288.917 372.783,288.931 373.054,288.946 373.325,288.961 373.596,288.977 373.867,288.993 374.137,289.009 374.408,289.025 374.679,289.042 374.950,289.059 375.221,289.077 375.491,289.095 375.762,289.113 376.033,289.132 376.304,289.151 376.575,289.171 376.846,289.190 377.116,289.211 377.387,289.231 377.658,289.252 377.929,289.273 378.200,289.295 378.471,289.316 378.741,289.339 379.012,289.361 379.283,289.384 379.554,289.408 379.825,289.431 380.095,289.455 380.366,289.480 380.637,289.504 380.908,289.529 381.179,289.555 381.450,289.581 381.720,289.607 381.991,289.633 382.262,289.660 382.533,289.687 382.804,289.715 383.075,289.743 383.345,289.771 383.616,289.800 383.887,289.829 384.158,289.858 384.429,289.888 384.699,289.918 384.970,289.948 385.241,289.979 385.512,290.010 385.783,290.041 386.054,290.073 386.324,290.105 386.595,290.138 386.866,290.171 387.137,290.204 387.408,290.238 387.679,290.271 387.949,290.306 388.220,290.340 388.491,290.375 388.762,290.411 389.033,290.446 389.303,290.482 389.574,290.519 389.845,290.555 390.116,290.592 390.387,290.630 390.658,290.668 390.928,290.706 391.199,290.744 391.470,290.783 391.741,290.822 392.012,290.862 392.283,290.902 392.553,290.942 392.824,290.982 393.095,291.023 393.366,291.065 393.637,291.106 393.907,291.148 394.178,291.191 394.449,291.233 394.720,291.276 394.991,291.320 395.262,291.363 395.532,291.407 395.803,291.452 396.074,291.497 396.345,291.542 396.616,291.587 396.886,291.633 397.157,291.679 397.428,291.726 397.699,291.773 397.970,291.820 398.241,291.867 398.511,291.915 398.782,291.963 399.053,292.012 399.324,292.061 399.595,292.110 399.866,292.160 400.136,292.210 400.407,292.260 400.678,292.311 400.949,292.362 401.220,292.413 401.490,292.465 401.761,292.517 402.032,292.569 402.303,292.622 402.574,292.675 402.845,292.729 403.115,292.782 403.386,292.836 403.657,292.891 403.928,292.946 404.199,293.001 404.470,293.056 404.740,293.112 405.011,293.168 405.282,293.225 405.553,293.282 405.824,293.339 406.094,293.396 406.365,293.454 406.636,293.513 406.907,293.571 407.178,293.630 407.449,293.689 407.719,293.749 407.990,293.809 408.261,293.869 408.532,293.930 408.803,293.991 409.074,294.052 409.344,294.114 409.615,294.176 409.886,294.238 410.157,294.301 410.428,294.364 410.698,294.427 410.969,294.491 411.240,294.555 411.511,294.619 411.782,294.684 412.053,294.749 412.323,294.814 412.594,294.880 412.865,294.946 413.136,295.012 413.407,295.079 413.678,295.146 413.948,295.214 414.219,295.281 414.490,295.349 414.761,295.418 415.032,295.487 415.302,295.556 415.573,295.625 415.844,295.695 416.115,295.765 416.386,295.835 416.657,295.906 416.927,295.977 417.198,296.049 417.469,296.120 417.740,296.193 418.011,296.265 418.281,296.338 418.552,296.411 418.823,296.484 419.094,296.558 419.365,296.632 419.636,296.707 419.906,296.781 420.177,296.857 420.448,296.932 420.719,297.008 420.990,297.084 421.261,297.160 421.531,297.237 421.802,297.314 422.073,297.392 422.344,297.469 422.615,297.547 422.885,297.626 423.156,297.705 423.427,297.784 423.698,297.863 423.969,297.943 424.240,298.023 424.510,298.103 424.781,298.184 425.052,298.265 425.323,298.346 425.594,298.428 425.865,298.510 426.135,298.593 426.406,298.675 426.677,298.758 426.948,298.842 427.219,298.925 427.489,299.009 427.760,299.094 428.031,299.178 428.302,299.263 428.573,299.349 428.844,299.434 429.114,299.520 429.385,299.606 429.656,299.693 429.927,299.780 430.198,299.867 430.469,299.955 430.739,300.043 431.010,300.131 431.281,300.219 431.552,300.308 431.823,300.397 432.093,300.487 432.364,300.577 432.635,300.667 432.906,300.757 433.177,300.848 433.448,300.939 433.718,301.031 433.989,301.122 434.260,301.214 434.531,301.307 434.802,301.400 435.073,301.493 435.343,301.586 435.614,301.680 435.885,301.774 436.156,301.868 436.427,301.962 436.697,302.057 436.968,302.153 437.239,302.248 437.510,302.344 437.781,302.440 438.052,302.537 438.322,302.634 438.593,302.731 438.864,302.828 439.135,302.926 439.406,303.024 439.677,303.122 439.947,303.221 440.218,303.320 440.489,303.420 440.760,303.519 441.031,303.619 441.301,303.719 441.572,303.820 441.843,303.921 442.114,304.022 442.385,304.124 442.656,304.226 442.926,304.328 443.197,304.430 443.468,304.533 443.739,304.636 444.010,304.739 444.280,304.843 444.551,304.947 444.822,305.051 445.093,305.156 445.364,305.261 445.635,305.366 445.905,305.472 446.176,305.578 446.447,305.684 446.718,305.790 446.989,305.897 447.260,306.004 447.530,306.111 447.801,306.219 448.072,306.327 448.343,306.435 448.614,306.544 448.884,306.653 449.155,306.762 449.426,306.872 449.697,306.982 449.968,307.092 450.239,307.202 450.509,307.313 450.780,307.424 451.051,307.535 451.322,307.647 451.593,307.759 451.864,307.871 452.134,307.983 452.405,308.096 452.676,308.209 452.947,308.323 453.218,308.437 453.488,308.551 453.759,308.665 454.030,308.780 454.301,308.894 454.572,309.010 454.843,309.125 455.113,309.241 455.384,309.357 455.655,309.473 455.926,309.590 456.197,309.707 456.468,309.824 456.738,309.942 457.009,310.060 457.280,310.178 457.551,310.296 457.822,310.415 458.092,310.534 458.363,310.654 458.634,310.773 458.905,310.893 459.176,311.013 459.447,311.134 459.717,311.255 459.988,311.376 460.259,311.497 460.530,311.619 460.801,311.741 461.072,311.863 461.342,311.986 461.613,312.108 461.884,312.231 462.155,312.355 462.426,312.479 462.696,312.603 462.967,312.727 463.238,312.851 463.509,312.976 463.780,313.101 464.051,313.227 464.321,313.352 464.592,313.478 464.863,313.605 465.134,313.731 465.405,313.858 465.675,313.985 465.946,314.112 466.217,314.240 466.488,314.368 466.759,314.496 467.030,314.625 467.300,314.754 467.571,314.883 467.842,315.012 468.113,315.142 468.384,315.271 468.655,315.402 468.925,315.532 469.196,315.663 469.467,315.794 469.738,315.925 470.009,316.057 470.279,316.189 470.550,316.321 470.821,316.453 471.092,316.586 471.363,316.719 471.634,316.852 471.904,316.986 472.175,317.119 472.446,317.253 472.717,317.388 472.988,317.522 473.259,317.657 473.529,317.792 473.800,317.928 474.071,318.063 474.342,318.199 474.613,318.336 474.883,318.472 475.154,318.609 475.425,318.746 475.696,318.883 475.967,319.021 476.238,319.159 476.508,319.297 476.779,319.435 477.050,319.574 477.321,319.713 477.592,319.852 477.863,319.991 478.133,320.131 478.404,320.271 478.675,320.411 478.946,320.552 479.217,320.692 479.487,320.833 479.758,320.975 480.029,321.116 480.300,321.258 480.571,321.400 480.842,321.543 481.112,321.685 481.383,321.828 481.654,321.971 481.925,322.115 482.196,322.258 482.467,322.402 482.737,322.546 483.008,322.691 483.279,322.835 483.550,322.980 483.821,323.125 484.091,323.271 484.362,323.417 484.633,323.563 484.904,323.709 485.175,323.855 485.446,324.002 485.716,324.149 485.987,324.296 486.258,324.444 486.529,324.591 486.800,324.739 487.070,324.888 487.341,325.036 487.612,325.185 487.883,325.334 488.154,325.483 488.425,325.633 488.695,325.782 488.966,325.932 489.237,326.083 489.508,326.233 489.779,326.384 490.050,326.535 490.320,326.686 490.591,326.838 490.862,326.989 491.133,327.141 491.404,327.294 491.674,327.446 491.945,327.599 492.216,327.752 492.487,327.905 492.758,328.058 493.029,328.212 493.299,328.366 493.570,328.520 493.841,328.675 494.112,328.829 494.383,328.984 494.654,329.139 494.924,329.295 495.195,329.450 495.466,329.606 495.737,329.762 496.008,329.918 496.278,330.075 496.549,330.232 496.820,330.389 497.091,330.546 497.362,330.704 497.633,330.861 497.903,331.019 498.174,331.178 498.445,331.336 498.716,331.495 498.987,331.654 499.258,331.813 499.528,331.972 499.799,332.132 500.070,332.292 500.341,332.452 500.612,332.612 500.882,332.773 501.153,332.933 501.424,333.094 501.695,333.256 501.966,333.417 502.237,333.579 502.507,333.741 502.778,333.903 503.049,334.065 503.320,334.228 503.591,334.391 503.862,334.554 504.132,334.717 504.403,334.881 504.674,335.044 504.945,335.208 505.216,335.372 505.486,335.537 505.757,335.701 506.028,335.866 506.299,336.031 506.570,336.197 506.841,336.362 507.111,336.528 507.382,336.694 507.653,336.860 507.924,337.026 508.195,337.193 508.466,337.360 508.736,337.527 509.007,337.694 509.278,337.861 509.549,338.029 509.820,338.197 510.090,338.365 510.361,338.534 510.632,338.702 510.903,338.871 511.174,339.040 511.445,339.209 511.715,339.378 511.986,339.548 512.257,339.718 512.528,339.888 512.799,340.058 513.069,340.229 513.340,340.399 513.611,340.570 513.882,340.741 514.153,340.912 514.424,341.084 514.694,341.256 514.965,341.428 515.236,341.600 515.507,341.772 515.778,341.945 516.049,342.117 516.319,342.290 516.590,342.463 516.861,342.637 517.132,342.810 517.403,342.984 517.673,343.158 517.944,343.332 518.215,343.506 518.486,343.681 518.757,343.856 519.028,344.031 519.298,344.206 519.569,344.381 519.840,344.557 520.111,344.733 520.382,344.909 520.653,345.085 520.923,345.261 521.194,345.438 521.465,345.614 521.736,345.791 522.007,345.968 522.277,346.146 522.548,346.323 522.819,346.501 523.090,346.679 523.361,346.857 523.632,347.035 523.902,347.214 524.173,347.392 524.444,347.571 524.715,347.750 524.986,347.930 525.257,348.109 525.527,348.289 525.798,348.468 526.069,348.648 526.340,348.829 526.611,349.009 526.881,349.190 527.152,349.370 527.423,349.551 527.694,349.732 527.965,349.914 528.236,350.095 528.506,350.277 528.777,350.459 529.048,350.641 529.319,350.823 529.590,351.005 529.861,351.188 530.131,351.371 530.402,351.554 530.673,351.737 530.944,351.920 531.215,352.104 531.485,352.287 531.756,352.471 532.027,352.655 532.298,352.839 532.569,353.024 532.840,353.208 533.110,353.393 533.381,353.578 533.652,353.763 533.923,353.948 534.194,354.133 534.464,354.319 534.735,354.505 535.006,354.691 535.277,354.877 535.548,355.063 535.819,355.250 536.089,355.436 536.360,355.623 536.631,355.810 536.902,355.997 537.173,356.184 537.444,356.372 537.714,356.559 537.985,356.747 538.256,356.935 538.527,357.123 538.798,357.312 539.068,357.500 539.339,357.689 539.610,357.877 539.881,358.066 540.152,358.255 540.423,358.445 540.693,358.634 540.964,358.824 541.235,359.014 541.506,359.203 541.777,359.394 542.048,359.584 542.318,359.774 542.589,359.965 542.860,360.155 543.131,360.346 543.402,360.537 543.672,360.729 543.943,360.920 544.214,361.111 544.485,361.303 544.756,361.495 545.027,361.687 545.297,361.879 545.568,362.071 545.839,362.264 546.110,362.456 546.381,362.649 546.652,362.842 546.922,363.035 547.193,363.228 547.464,363.421 547.735,363.615 548.006,363.808 548.276,364.002 548.547,364.196 548.818,364.390 549.089,364.584 549.360,364.779 549.631,364.973 549.901,365.168 550.172,365.363 550.443,365.558 550.714,365.753 550.985,365.948 551.256,366.143 551.526,366.339 551.797,366.534 552.068,366.730 552.339,366.926 552.610,367.122 552.880,367.318 553.151,367.515 553.422,367.711 553.693,367.908 553.964,368.105 554.235,368.302 554.505,368.499 554.776,368.696 555.047,368.893 555.318,369.091 555.589,369.288 555.860,369.486 556.130,369.684 556.401,369.882 556.672,370.080 556.943,370.278 557.214,370.476 557.484,370.675 557.755,370.874 558.026,371.072 558.297,371.271 558.568,371.470 558.839,371.670 559.109,371.869 559.380,372.068 559.651,372.268 559.922,372.468 560.193,372.667 560.463,372.867 560.734,373.067 561.005,373.267 561.276,373.468 561.547,373.668 561.818,373.869 562.088,374.069 562.359,374.270 562.630,374.471 562.901,374.672 563.172,374.873 563.443,375.075 563.713,375.276 563.984,375.478 564.255,375.679 564.526,375.881 564.797,376.083 565.067,376.285 565.338,376.487 565.609,376.689 565.880,376.892 566.151,377.094 566.422,377.297 566.692,377.499 566.963,377.702 567.234,377.905 567.505,378.108 567.776,378.311 568.047,378.515 568.317,378.718 568.588,378.921 568.859,379.125 569.130,379.329 569.401,379.533 569.671,379.737 569.942,379.941 570.213,380.145 570.484,380.349 570.755,380.553 571.026,380.758 571.296,380.962 571.567,381.167 571.838,381.372 572.109,381.577 572.380,381.782 572.651,381.987 572.921,382.192 573.192,382.397 573.463,382.603 573.734,382.808 574.005,383.014 574.275,383.220 574.546,383.425 574.817,383.631 575.088,383.837 575.359,384.044 575.630,384.250 575.900,384.456 576.171,384.662 576.442,384.869 576.713,385.076 576.984,385.282 577.255,385.489 577.525,385.696 577.796,385.903 578.067,386.110 578.338,386.317 578.609,386.524 578.879,386.732 579.150,386.939 579.421,387.147 579.692,387.354 579.963,387.562 580.234,387.770 580.504,387.978 580.775,388.186 581.046,388.394 581.317,388.602 581.588,388.810 581.858,389.019 582.129,389.227 582.400,389.436 582.671,389.644 582.942,389.853 583.213,390.062 583.483,390.271 583.754,390.480 584.025,390.689 584.296,390.898 584.567,391.107 584.838,391.316 585.108,391.526 585.379,391.735 585.650,391.945 585.921,392.154 586.192,392.364 586.462,392.574 586.733,392.783 587.004,392.993 587.275,393.203 587.546,393.413 587.817,393.624 588.087,393.834 588.358,394.044 588.629,394.254 588.900,394.465 589.171,394.675 589.442,394.886 589.712,395.097 589.983,395.307 590.254,395.518 590.525,395.729 590.796,395.940 591.066,396.151 591.337,396.362 591.608,396.573 591.879,396.785 592.150,396.996 592.421,397.207 592.691,397.419 592.962,397.630 593.233,397.842 593.504,398.053 593.775,398.265 594.046,398.477 594.316,398.689 594.587,398.901 594.858,399.113 595.129,399.325 595.400,399.537 595.670,399.749 595.941,399.961 596.212,400.173 596.483,400.386 596.754,400.598 597.025,400.811 597.295,401.023 597.566,401.236 597.837,401.448 598.108,401.661 598.379,401.874 598.650,402.087 598.920,402.300 599.191,402.513 599.462,402.726 599.733,402.939 600.004,403.152 600.274,403.365 600.545,403.578 600.816,403.791 601.087,404.005 601.358,404.218 601.629,404.431 601.899,404.645 602.170,404.858 602.441,405.072 602.712,405.286 602.983,405.499 603.253,405.713 603.524,405.927 603.795,406.141 604.066,406.355 604.337,406.568 604.608,406.782 604.878,406.996 605.149,407.210 605.420,407.425 605.691,407.639 605.962,407.853 606.233,408.067 606.503,408.281 606.774,408.496 607.045,408.710 607.316,408.925 607.587,409.139 607.857,409.353 608.128,409.568 608.399,409.783 608.670,409.997 608.941,410.212 609.212,410.427 609.482,410.641 609.753,410.856 610.024,411.071 610.295,411.286 610.566,411.501 610.837,411.716 611.107,411.930 611.378,412.145 611.649,412.360 611.920,412.576 612.191,412.791 612.461,413.006 612.732,413.221 613.003,413.436 613.274,413.651 613.545,413.867 613.816,414.082 614.086,414.297 614.357,414.513 614.628,414.728 614.899,414.943 615.170,415.159 615.441,415.374 615.711,415.590 615.982,415.805 616.253,416.021 616.524,416.236 616.795,416.452 617.065,416.668 617.336,416.883 617.607,417.099 617.878,417.315 618.149,417.530 618.420,417.746 618.690,417.962 618.961,418.178 619.232,418.394 619.503,418.609 619.774,418.825 620.045,419.041 620.315,419.257 620.586,419.473 620.857,419.689 621.128,419.905 621.399,420.121 621.669,420.337 621.940,420.553 622.211,420.769 622.482,420.985 622.753,421.201 623.024,421.417 623.294,421.633 623.565,421.849 623.836,422.065 624.107,422.282 624.378,422.498 624.649,422.714 624.919,422.930 625.190,423.146 625.461,423.362 625.732,423.579 626.003,423.795 626.273,424.011 626.544,424.227 626.815,424.444 627.086,424.660 627.357,424.876 627.628,425.092 627.898,425.309 628.169,425.525 628.440,425.741 628.711,425.958 628.982,426.174 629.252,426.390 629.523,426.607 629.794,426.823 630.065,427.039 630.336,427.256 630.607,427.472 630.877,427.688 631.148,427.905 631.419,428.121 631.690,428.337 631.961,428.554 632.232,428.770 632.502,428.986 "/>
<g>
</g>
</g>
<g id="ID000009" >
  <g transform="translate(361.056,278.938)">
    <g transform="rotate(-0.0)">
      <text x="0.000" y="0.000" font-family="Helvetica" text-anchor="middle" font-size="12pt" fill="#000000" >l = 0.01, x* = 0.50</text>
    </g>
  </g>
</g>
<g id="ID000010" >
</g>
<g id="ID000011" >
</g>
    </g>
    <g>
      <polyline fill="none" stroke="#000000" stroke-width="0.5pt" stroke-dasharray="none" points="145.021,466.514 145.021,461.098 "/>
      <polyline fill="none" stroke="#000000" stroke-width="0.5pt" stroke-dasharray="none" points="199.186,466.514 199.186,461.098 "/>
      <polyline fill="none" stroke="#000000" stroke-width="0.5pt" stroke-dasharray="none" points="253.350,466.514 253.350,461.098 "/>
      <polyline fill="none" stroke="#000000" stroke-width="0.5pt" stroke-dasharray="none" points="307.515,466.514 307.515,461.098 "/>
      <polyline fill="none" stroke="#000000" stroke-width="0.5pt" stroke-dasharray="none" points="361.680,466.514 361.680,461.098 "/>
      <polyline fill="none" stroke="#000000" stroke-width="0.5pt" stroke-dasharray="none" points="415.844,466.514 415.844,461.098 "/>
      <polyline fill="none" stroke="#000000" stroke-width="0.5pt" stroke-dasharray="none" points="470.009,466.514 470.009,461.098 "/>
      <polyline fill="none" stroke="#000000" stroke-width="0.5pt" stroke-dasharray="none" points="524.173,466.514 524.173,461.098 "/>
      <polyline fill="none" stroke="#000000" stroke-width="0.5pt" stroke-dasharray="none" points="578.338,466.514 578.338,461.098 "/>
      <polyline fill="none" stroke="#000000" stroke-width="0.5pt" stroke-dasharray="none" points="90.857,466.514 632.502,466.514 "/>
      <polyline fill="none" stroke="#000000" stroke-width="0.5pt" stroke-dasharray="none" points="145.021,287.686 145.021,293.102 "/>
      <polyline fill="none" stroke="#000000" stroke-width="0.5pt" stroke-dasharray="none" points="199.186,287.686 199.186,293.102 "/>
      <polyline fill="none" stroke="#000000" stroke-width="0.5pt" stroke-dasharray="none" points="253.350,287.686 253.350,293.102 "/>
      <polyline fill="none" stroke="#000000" stroke-width="0.5pt" stroke-dasharray="none" points="307.515,287.686 307.515,293.102 "/>
      <polyline fill="none" stroke="#000000" stroke-width="0.5pt" stroke-dasharray="none" points="361.680,287.686 361.680,293.102 "/>
      <polyline fill="none" stroke="#000000" stroke-width="0.5pt" stroke-dasharray="none" points="415.844,287.686 415.844,293.102 "/>
      <polyline fill="none" stroke="#000000" stroke-width="0.5pt" stroke-dasharray="none" points="470.009,287.686 470.009,293.102 "/>
      <polyline fill="none" stroke="#000000" stroke-width="0.5pt" stroke-dasharray="none" points="524.173,287.686 524.173,293.102 "/>
      <polyline fill="none" stroke="#000000" stroke-width="0.5pt" stroke-dasharray="none" points="578.338,287.686 578.338,293.102 "/>
      <polyline fill="none" stroke="#000000" stroke-width="0.5pt" stroke-dasharray="none" points="90.857,287.686 632.502,287.686 "/>
  <g transform="translate(90.857,484.818)">
    <g transform="rotate(-0.0)">
      <text x="0.000" y="0.000" font-family="Helvetica" text-anchor="middle" font-size="12pt" fill="#000000" >-1</text>
    </g>
  </g>
  <g transform="translate(145.021,484.818)">
    <g transform="rotate(-0.0)">
      <text x="0.000" y="0.000" font-family="Helvetica" text-anchor="middle" font-size="12pt" fill="#000000" >-0.8</text>
    </g>
  </g>
  <g transform="translate(199.186,484.818)">
    <g transform="rotate(-0.0)">
      <text x="0.000" y="0.000" font-family="Helvetica" text-anchor="middle" font-size="12pt" fill="#000000" >-0.6</text>
    </g>
  </g>
  <g transform="translate(253.350,484.818)">
    <g transform="rotate(-0.0)">
      <text x="0.000" y="0.000" font-family="Helvetica" text-anchor="middle" font-size="12pt" fill="#000000" >-0.4</text>
    </g>
  </g>
  <g transform="translate(307.515,484.818)">
    <g transform="rotate(-0.0)">
      <text x="0.000" y="0.000" font-family="Helvetica" text-anchor="middle" font-size="12pt" fill="#000000" >-0.2</text>
    </g>
  </g>
  <g transform="translate(361.680,484.818)">
    <g transform="rotate(-0.0)">
      <text x="0.000" y="0.000" font-family="Helvetica" text-anchor="middle" font-size="12pt" fill="#000000" >0</text>
    </g>
  </g>
  <g transform="translate(415.844,484.818)">
    <g transform="rotate(-0.0)">
      <text x="0.000" y="0.000" font-family="Helvetica" text-anchor="middle" font-size="12pt" fill="#000000" >0.2</text>
    </g>
  </g>
  <g transform="translate(470.009,484.818)">
    <g transform="rotate(-0.0)">
      <text x="0.000" y="0.000" font-family="Helvetica" text-anchor="middle" font-size="12pt" fill="#000000" >0.4</text>
    </g>
  </g>
  <g transform="translate(524.173,484.818)">
    <g transform="rotate(-0.0)">
      <text x="0.000" y="0.000" font-family="Helvetica" text-anchor="middle" font-size="12pt" fill="#000000" >0.6</text>
    </g>
  </g>
  <g transform="translate(578.338,484.818)">
    <g transform="rotate(-0.0)">
      <text x="0.000" y="0.000" font-family="Helvetica" text-anchor="middle" font-size="12pt" fill="#000000" >0.8</text>
    </g>
  </g>
  <g transform="translate(632.502,484.818)">
    <g transform="rotate(-0.0)">
      <text x="0.000" y="0.000" font-family="Helvetica" text-anchor="middle" font-size="12pt" fill="#000000" >1</text>
    </g>
  </g>
      <polyline fill="none" stroke="#000000" stroke-width="0.5pt" stroke-dasharray="none" points="90.857,421.807 96.273,421.807 "/>
      <polyline fill="none" stroke="#000000" stroke-width="0.5pt" stroke-dasharray="none" points="90.857,377.100 96.273,377.100 "/>
      <polyline fill="none" stroke="#000000" stroke-width="0.5pt" stroke-dasharray="none" points="90.857,332.393 96.273,332.393 "/>
      <polyline fill="none" stroke="#000000" stroke-width="0.5pt" stroke-dasharray="none" points="90.857,466.514 90.857,287.686 "/>
      <polyline fill="none" stroke="#000000" stroke-width="0.5pt" stroke-dasharray="none" points="632.502,421.807 627.086,421.807 "/>
      <polyline fill="none" stroke="#000000" stroke-width="0.5pt" stroke-dasharray="none" points="632.502,377.100 627.086,377.100 "/>
      <polyline fill="none" stroke="#000000" stroke-width="0.5pt" stroke-dasharray="none" points="632.502,332.393 627.086,332.393 "/>
      <polyline fill="none" stroke="#000000" stroke-width="0.5pt" stroke-dasharray="none" points="632.502,466.514 632.502,287.686 "/>
  <g transform="translate(80.024,472.130)">
    <g transform="rotate(-0.0)">
      <text x="0.000" y="0.000" font-family="Helvetica" text-anchor="end" font-size="12pt" fill="#000000" >0.2</text>
    </g>
  </g>
  <g transform="translate(80.024,427.423)">
    <g transform="rotate(-0.0)">
      <text x="0.000" y="0.000" font-family="Helvetica" text-anchor="end" font-size="12pt" fill="#000000" >0.25</text>
    </g>
  </g>
  <g transform="translate(80.024,382.716)">
    <g transform="rotate(-0.0)">
      <text x="0.000" y="0.000" font-family="Helvetica" text-anchor="end" font-size="12pt" fill="#000000" >0.3</text>
    </g>
  </g>
  <g transform="translate(80.024,338.009)">
    <g transform="rotate(-0.0)">
      <text x="0.000" y="0.000" font-family="Helvetica" text-anchor="end" font-size="12pt" fill="#000000" >0.35</text>
    </g>
  </g>
  <g transform="translate(80.024,293.302)">
    <g transform="rotate(-0.0)">
      <text x="0.000" y="0.000" font-family="Helvetica" text-anchor="end" font-size="12pt" fill="#000000" >0.4</text>
    </g>
  </g>
      <polyline fill="none" stroke="#000000" stroke-width="0.5pt" stroke-dasharray="none" points="90.857,466.514 90.857,464.726 "/>
      <polyline fill="none" stroke="#000000" stroke-width="0.5pt" stroke-dasharray="none" points="90.857,466.514 90.857,466.514 "/>
    </g>
  </g>
  </g>
</svg>
