<?xml version="1.0" encoding="utf-8" standalone="no"?><!DOCTYPE svg PUBLIC "-//W3C//DTD SVG 1.1//EN" "http://www.w3.org/Graphics/SVG/1.1/DTD/svg11.dtd">
<svg preserveAspectRatio="xMinYMin meet" width="100%" height="100%" viewBox="0 0 698.898 524.173"  version="1.1" xmlns="http://www.w3.org/2000/svg" xmlns:xlink="http://www.w3.org/1999/xlink">
  <desc>Matlab Figure Converted by PLOT2SVG written by Juerg Schwizer</desc>
  <g id="topgroup">
  <rect x="0" y="0" width="698.898" height="524.173" fill="#ffffff" stroke="none" />
  <g id ="ID000000">
  <clipPath id="ID000001">
    <rect x="90.857" y="39.313" width="541.646" height="178.828"/>
  </clipPath>
      <polygon fill="#ffffff" fill-opacity="1.00" stroke="none" stroke-width="0.5pt" stroke-opacity="1.00" stroke-dasharray="none" points="90.857,218.141 632.502,218.141 632.502,39.313 90.857,39.313 "/>
      <polygon fill="#ffffff" fill-opacity="1.00" stroke="none" stroke-width="0.5pt" stroke-opacity="1.00" stroke-dasharray="none" points="90.857,39.313 632.502,39.313 632.502,39.313 90.857,39.313 "/>
      <polygon fill="#ffffff" fill-opacity="1.00" stroke="none" stroke-width="0.5pt" stroke-opacity="1.00" stroke-dasharray="none" points="90.857,218.141 90.857,218.141 90.857,39.313 90.857,39.313 "/>
    <g>
<g id="ID000002" clip-path="url(#ID000001)" >
      <polyline fill="none" stroke="#0000ff" stroke-width="0.5pt" stroke-dasharray="none" points="90.857,218.141 91.128,218.141 91.398,218.141 91.669,218.141 91.940,218.141 92.211,218.141 92.482,218.141 92.752,218.141 93.023,218.141 93.294,218.141 93.565,218.141 93.836,218.141 94.107,218.141 94.377,218.141 94.648,218.141 94.919,218.141 95.190,218.141 95.461,218.141 95.732,218.141 96.002,218.141 96.273,218.141 96.544,218.141 96.815,218.141 97.086,218.141 97.356,218.141 97.627,218.141 97.898,218.141 98.169,218.141 98.440,218.141 98.711,218.141 98.981,218.141 99.252,218.141 99.523,218.141 99.794,218.141 100.065,218.141 100.335,218.141 100.606,218.141 100.877,218.141 101.148,218.141 101.419,218.141 101.690,218.141 101.960,218.141 102.231,218.141 102.502,218.141 102.773,218.141 103.044,218.141 103.315,218.141 103.585,218.141 103.856,218.141 104.127,218.141 104.398,218.141 104.669,218.141 104.939,218.141 105.210,218.141 105.481,218.141 105.752,218.141 106.023,218.141 106.294,218.141 106.564,218.141 106.835,218.141 107.106,218.141 107.377,218.141 107.648,218.141 107.919,218.141 108.189,218.141 108.460,218.141 108.731,218.141 109.002,218.141 109.273,218.141 109.543,218.141 109.814,218.141 110.085,218.141 110.356,218.141 110.627,218.141 110.898,218.141 111.168,218.141 111.439,218.141 111.710,218.141 111.981,218.141 112.252,218.141 112.523,218.141 112.793,218.141 113.064,218.141 113.335,218.141 113.606,218.141 113.877,218.141 114.147,218.141 114.418,218.141 114.689,218.141 114.960,218.141 115.231,218.141 115.502,218.141 115.772,218.141 116.043,218.141 116.314,218.141 116.585,218.141 116.856,218.141 117.127,218.141 117.397,218.141 117.668,218.141 117.939,218.141 118.210,218.141 118.481,218.141 118.751,218.141 119.022,218.141 119.293,218.141 119.564,218.141 119.835,218.141 120.106,218.141 120.376,218.141 120.647,218.141 120.918,218.141 121.189,218.141 121.460,218.141 121.730,218.141 122.001,218.141 122.272,218.141 122.543,218.141 122.814,218.141 123.085,218.141 123.355,218.141 123.626,218.141 123.897,218.141 124.168,218.141 124.439,218.141 124.710,218.141 124.980,218.141 125.251,218.141 125.522,218.141 125.793,218.141 126.064,218.141 126.334,218.141 126.605,218.141 126.876,218.141 127.147,218.141 127.418,218.141 127.689,218.141 127.959,218.141 128.230,218.141 128.501,218.141 128.772,218.141 129.043,218.141 129.314,218.141 129.584,218.141 129.855,218.141 130.126,218.141 130.397,218.141 130.668,218.141 130.938,218.141 131.209,218.141 131.480,218.141 131.751,218.141 132.022,218.141 132.293,218.141 132.563,218.141 132.834,218.141 133.105,218.141 133.376,218.141 133.647,218.141 133.918,218.141 134.188,218.141 134.459,218.141 134.730,218.141 135.001,218.141 135.272,218.141 135.542,218.141 135.813,218.141 136.084,218.141 136.355,218.141 136.626,218.141 136.897,218.141 137.167,218.141 137.438,218.141 137.709,218.141 137.980,218.141 138.251,218.141 138.522,218.141 138.792,218.141 139.063,218.141 139.334,218.141 139.605,218.141 139.876,218.141 140.146,218.141 140.417,218.141 140.688,218.141 140.959,218.141 141.230,218.141 141.501,218.141 141.771,218.141 142.042,218.141 142.313,218.141 142.584,218.141 142.855,218.141 143.126,218.141 143.396,218.141 143.667,218.141 143.938,218.141 144.209,218.141 144.480,218.141 144.750,218.141 145.021,218.141 145.292,218.141 145.563,218.141 145.834,218.141 146.105,218.141 146.375,218.141 146.646,218.141 146.917,218.141 147.188,218.141 147.459,218.141 147.729,218.141 148.000,218.141 148.271,218.141 148.542,218.141 148.813,218.141 149.084,218.141 149.354,218.141 149.625,218.141 149.896,218.141 150.167,218.141 150.438,218.141 150.709,218.141 150.979,218.141 151.250,218.141 151.521,218.141 151.792,218.141 152.063,218.141 152.333,218.141 152.604,218.141 152.875,218.141 153.146,218.141 153.417,218.141 153.688,218.141 153.958,218.141 154.229,218.141 154.500,218.141 154.771,218.141 155.042,218.141 155.313,218.141 155.583,218.141 155.854,218.141 156.125,218.141 156.396,218.141 156.667,218.141 156.937,218.141 157.208,218.141 157.479,218.141 157.750,218.141 158.021,218.141 158.292,218.141 158.562,218.141 158.833,218.141 159.104,218.141 159.375,218.141 159.646,218.141 159.917,218.141 160.187,218.141 160.458,218.141 160.729,218.141 161.000,218.141 161.271,218.141 161.541,218.141 161.812,218.141 162.083,218.141 162.354,218.141 162.625,218.141 162.896,218.141 163.166,218.141 163.437,218.141 163.708,218.141 163.979,218.141 164.250,218.141 164.521,218.141 164.791,218.141 165.062,218.141 165.333,218.141 165.604,218.141 165.875,218.141 166.145,218.141 166.416,218.141 166.687,218.141 166.958,218.141 167.229,218.141 167.500,218.141 167.770,218.141 168.041,218.141 168.312,218.141 168.583,218.141 168.854,218.141 169.124,218.141 169.395,218.141 169.666,218.141 169.937,218.141 170.208,218.141 170.479,218.141 170.749,218.141 171.020,218.141 171.291,218.141 171.562,218.141 171.833,218.141 172.104,218.141 172.374,218.141 172.645,218.141 172.916,218.141 173.187,218.141 173.458,218.141 173.728,218.141 173.999,218.141 174.270,218.141 174.541,218.141 174.812,218.141 175.083,218.141 175.353,218.141 175.624,218.141 175.895,218.141 176.166,218.141 176.437,218.141 176.708,218.141 176.978,218.141 177.249,218.141 177.520,218.141 177.791,218.141 178.062,218.141 178.332,218.141 178.603,218.141 178.874,218.141 179.145,218.141 179.416,218.141 179.687,218.141 179.957,218.141 180.228,218.141 180.499,218.141 180.770,218.141 181.041,218.141 181.312,218.141 181.582,218.141 181.853,218.141 182.124,218.141 182.395,218.141 182.666,218.141 182.936,218.141 183.207,218.141 183.478,218.141 183.749,218.141 184.020,218.141 184.291,218.141 184.561,218.141 184.832,218.141 185.103,218.141 185.374,218.141 185.645,218.141 185.916,218.141 186.186,218.141 186.457,218.141 186.728,218.141 186.999,218.141 187.270,218.141 187.540,218.141 187.811,218.141 188.082,218.141 188.353,218.141 188.624,218.141 188.895,218.141 189.165,218.141 189.436,218.141 189.707,218.141 189.978,218.141 190.249,218.141 190.519,218.141 190.790,218.141 191.061,218.141 191.332,218.141 191.603,218.141 191.874,218.141 192.144,218.141 192.415,218.141 192.686,218.141 192.957,218.141 193.228,218.141 193.499,218.141 193.769,218.141 194.040,218.141 194.311,218.141 194.582,218.141 194.853,218.141 195.123,218.141 195.394,218.141 195.665,218.141 195.936,218.141 196.207,218.141 196.478,218.141 196.748,218.141 197.019,218.141 197.290,218.141 197.561,218.141 197.832,218.141 198.103,218.141 198.373,218.141 198.644,218.141 198.915,218.141 199.186,218.141 199.457,218.141 199.727,218.141 199.998,218.141 200.269,218.141 200.540,218.141 200.811,218.141 201.082,218.141 201.352,218.141 201.623,218.141 201.894,218.141 202.165,218.141 202.436,218.141 202.707,218.141 202.977,218.141 203.248,218.141 203.519,218.141 203.790,218.141 204.061,218.141 204.331,218.141 204.602,218.141 204.873,218.141 205.144,218.141 205.415,218.141 205.686,218.141 205.956,218.141 206.227,218.141 206.498,218.141 206.769,218.141 207.040,218.141 207.311,218.141 207.581,218.141 207.852,218.141 208.123,218.141 208.394,218.141 208.665,218.141 208.935,218.141 209.206,218.141 209.477,218.141 209.748,218.141 210.019,218.141 210.290,218.141 210.560,218.141 210.831,218.141 211.102,218.141 211.373,218.141 211.644,218.141 211.915,218.141 212.185,218.141 212.456,218.141 212.727,218.141 212.998,218.141 213.269,218.141 213.539,218.141 213.810,218.141 214.081,218.141 214.352,218.141 214.623,218.141 214.894,218.141 215.164,218.141 215.435,218.141 215.706,218.141 215.977,218.141 216.248,218.141 216.518,218.141 216.789,218.141 217.060,218.141 217.331,218.141 217.602,218.141 217.873,218.141 218.143,218.141 218.414,218.141 218.685,218.141 218.956,218.141 219.227,218.141 219.498,218.141 219.768,218.141 220.039,218.141 220.310,218.141 220.581,218.141 220.852,218.141 221.122,218.141 221.393,218.141 221.664,218.141 221.935,218.141 222.206,218.141 222.477,218.141 222.747,218.141 223.018,218.141 223.289,218.141 223.560,218.141 223.831,218.141 224.102,218.141 224.372,218.141 224.643,218.141 224.914,218.141 225.185,218.141 225.456,218.141 225.726,218.141 225.997,218.141 226.268,218.141 226.539,218.141 226.810,218.141 227.081,218.141 227.351,218.141 227.622,218.141 227.893,218.141 228.164,218.141 228.435,218.141 228.706,218.141 228.976,218.141 229.247,218.141 229.518,218.141 229.789,218.141 230.060,218.141 230.330,218.141 230.601,218.141 230.872,218.141 231.143,218.141 231.414,218.141 231.685,218.141 231.955,218.141 232.226,218.141 232.497,218.141 232.768,218.141 233.039,218.141 233.310,218.141 233.580,218.141 233.851,218.141 234.122,218.141 234.393,218.141 234.664,218.141 234.934,218.141 235.205,218.141 235.476,218.141 235.747,218.141 236.018,218.141 236.289,218.141 236.559,218.141 236.830,218.141 237.101,218.141 237.372,218.141 237.643,218.141 237.913,218.141 238.184,218.141 238.455,218.141 238.726,218.141 238.997,218.141 239.268,218.141 239.538,218.141 239.809,218.141 240.080,218.141 240.351,218.141 240.622,218.141 240.893,218.141 241.163,218.141 241.434,218.141 241.705,218.141 241.976,218.141 242.247,218.141 242.517,218.141 242.788,218.141 243.059,218.141 243.330,218.141 243.601,218.141 243.872,218.141 244.142,218.141 244.413,218.141 244.684,218.141 244.955,218.141 245.226,218.141 245.497,218.141 245.767,218.141 246.038,218.141 246.309,218.141 246.580,218.141 246.851,218.141 247.121,218.141 247.392,218.141 247.663,218.141 247.934,218.141 248.205,218.141 248.476,218.141 248.746,218.141 249.017,218.141 249.288,218.141 249.559,218.141 249.830,218.141 250.101,218.141 250.371,218.141 250.642,218.141 250.913,218.141 251.184,218.141 251.455,218.141 251.725,218.141 251.996,218.141 252.267,218.141 252.538,218.141 252.809,218.141 253.080,218.141 253.350,218.141 253.621,218.141 253.892,218.141 254.163,218.141 254.434,218.141 254.705,218.141 254.975,218.141 255.246,218.141 255.517,218.141 255.788,218.141 256.059,218.141 256.329,218.141 256.600,218.141 256.871,218.141 257.142,218.141 257.413,218.141 257.684,218.141 257.954,218.141 258.225,218.141 258.496,218.141 258.767,218.141 259.038,218.141 259.308,218.141 259.579,218.141 259.850,218.141 260.121,218.141 260.392,218.141 260.663,218.141 260.933,218.141 261.204,218.141 261.475,218.141 261.746,218.141 262.017,218.141 262.288,218.141 262.558,218.141 262.829,218.141 263.100,218.141 263.371,218.141 263.642,218.141 263.912,218.141 264.183,218.141 264.454,218.141 264.725,218.141 264.996,218.141 265.267,218.141 265.537,218.141 265.808,218.141 266.079,218.141 266.350,218.141 266.621,218.141 266.892,218.141 267.162,218.141 267.433,218.141 267.704,218.141 267.975,218.141 268.246,218.141 268.516,218.141 268.787,218.141 269.058,218.141 269.329,218.141 269.600,218.141 269.871,218.141 270.141,218.141 270.412,218.141 270.683,218.141 270.954,218.141 271.225,218.141 271.496,218.141 271.766,218.141 272.037,218.141 272.308,218.141 272.579,218.141 272.850,218.141 273.120,218.141 273.391,218.141 273.662,218.141 273.933,218.141 274.204,218.141 274.475,218.141 274.745,218.141 275.016,218.141 275.287,218.141 275.558,218.141 275.829,218.141 276.100,218.141 276.370,218.141 276.641,218.141 276.912,218.141 277.183,218.141 277.454,218.141 277.724,218.141 277.995,218.141 278.266,218.141 278.537,218.141 278.808,218.141 279.079,218.141 279.349,218.141 279.620,218.141 279.891,218.141 280.162,218.141 280.433,218.141 280.704,218.141 280.974,218.141 281.245,218.141 281.516,218.141 281.787,218.141 282.058,218.141 282.328,218.141 282.599,218.141 282.870,218.141 283.141,218.141 283.412,218.141 283.683,218.141 283.953,218.141 284.224,218.141 284.495,218.141 284.766,218.141 285.037,218.141 285.307,218.141 285.578,218.141 285.849,218.141 286.120,218.141 286.391,218.141 286.662,218.141 286.932,218.141 287.203,218.141 287.474,218.141 287.745,218.141 288.016,218.141 288.287,218.141 288.557,218.141 288.828,218.141 289.099,218.141 289.370,218.141 289.641,218.141 289.911,218.141 290.182,218.141 290.453,218.141 290.724,218.141 290.995,218.141 291.266,218.141 291.536,218.141 291.807,218.141 292.078,218.141 292.349,218.141 292.620,218.141 292.891,218.141 293.161,218.141 293.432,218.141 293.703,218.141 293.974,218.141 294.245,218.141 294.515,218.141 294.786,218.141 295.057,218.141 295.328,218.141 295.599,218.141 295.870,218.141 296.140,218.141 296.411,218.141 296.682,218.141 296.953,218.141 297.224,218.141 297.495,218.141 297.765,218.141 298.036,218.141 298.307,218.141 298.578,218.141 298.849,218.141 299.119,218.141 299.390,218.141 299.661,218.141 299.932,218.141 300.203,218.141 300.474,218.141 300.744,218.141 301.015,218.141 301.286,218.141 301.557,218.141 301.828,218.141 302.099,218.141 302.369,218.141 302.640,218.141 302.911,218.141 303.182,218.141 303.453,218.141 303.723,218.141 303.994,218.141 304.265,218.141 304.536,218.141 304.807,218.141 305.078,218.141 305.348,218.141 305.619,218.141 305.890,218.141 306.161,218.141 306.432,218.141 306.702,218.141 306.973,218.141 307.244,218.141 307.515,218.141 307.786,218.141 308.057,218.141 308.327,218.141 308.598,218.141 308.869,218.141 309.140,218.141 309.411,218.141 309.682,218.141 309.952,218.141 310.223,218.141 310.494,218.141 310.765,218.141 311.036,218.141 311.306,218.141 311.577,218.141 311.848,218.141 312.119,218.141 312.390,218.141 312.661,218.141 312.931,218.141 313.202,218.141 313.473,218.141 313.744,218.141 314.015,218.141 314.286,218.141 314.556,218.141 314.827,218.141 315.098,218.141 315.369,218.141 315.640,218.141 315.910,218.141 316.181,218.141 316.452,218.141 316.723,218.141 316.994,218.141 317.265,218.141 317.535,218.141 317.806,218.141 318.077,218.141 318.348,218.141 318.619,218.141 318.890,218.141 319.160,218.141 319.431,218.141 319.702,218.141 319.973,218.141 320.244,218.141 320.514,218.141 320.785,218.141 321.056,218.141 321.327,218.141 321.598,218.141 321.869,218.141 322.139,218.141 322.410,218.141 322.681,218.141 322.952,218.141 323.223,218.141 323.494,218.141 323.764,218.141 324.035,218.141 324.306,218.141 324.577,218.141 324.848,218.141 325.118,218.141 325.389,218.141 325.660,218.141 325.931,218.141 326.202,218.141 326.473,218.141 326.743,218.141 327.014,218.141 327.285,218.141 327.556,218.141 327.827,218.141 328.097,218.141 328.368,218.141 328.639,218.141 328.910,218.141 329.181,218.141 329.452,218.141 329.722,218.141 329.993,218.141 330.264,218.141 330.535,218.141 330.806,218.141 331.077,218.141 331.347,218.141 331.618,218.141 331.889,218.141 332.160,218.141 332.431,218.141 332.701,218.141 332.972,218.141 333.243,218.141 333.514,218.141 333.785,218.141 334.056,218.141 334.326,218.141 334.597,218.141 334.868,218.141 335.139,218.141 335.410,218.141 335.681,218.141 335.951,218.141 336.222,218.141 336.493,218.141 336.764,218.141 337.035,218.141 337.305,218.141 337.576,218.141 337.847,218.141 338.118,218.141 338.389,218.141 338.660,218.141 338.930,218.141 339.201,218.141 339.472,218.141 339.743,218.141 340.014,218.141 340.285,218.141 340.555,218.141 340.826,218.141 341.097,218.141 341.368,218.141 341.639,218.141 341.909,218.141 342.180,218.141 342.451,218.141 342.722,218.141 342.993,218.141 343.264,218.141 343.534,218.141 343.805,218.141 344.076,218.141 344.347,218.141 344.618,218.141 344.889,218.141 345.159,218.141 345.430,218.141 345.701,218.141 345.972,218.141 346.243,218.141 346.513,218.141 346.784,218.141 347.055,218.141 347.326,218.141 347.597,218.141 347.868,218.141 348.138,218.141 348.409,218.141 348.680,218.141 348.951,218.141 349.222,218.141 349.493,218.141 349.763,218.141 350.034,218.141 350.305,218.141 350.576,218.141 350.847,218.141 351.117,218.141 351.388,218.141 351.659,218.141 351.930,218.141 352.201,218.141 352.472,218.141 352.742,218.141 353.013,218.141 353.284,218.141 353.555,218.141 353.826,218.141 354.096,218.141 354.367,218.141 354.638,218.141 354.909,218.141 355.180,218.141 355.451,218.141 355.721,218.141 355.992,218.141 356.263,218.141 356.534,218.141 356.805,218.141 357.076,218.141 357.346,218.141 357.617,218.141 357.888,218.141 358.159,218.141 358.430,218.141 358.700,218.141 358.971,218.141 359.242,218.141 359.513,218.141 359.784,218.141 360.055,218.141 360.325,218.141 360.596,218.140 360.867,218.140 361.138,218.140 361.409,218.140 361.680,218.140 361.950,218.140 362.221,218.140 362.492,218.140 362.763,218.140 363.034,218.139 363.304,218.139 363.575,218.139 363.846,218.139 364.117,218.139 364.388,218.139 364.659,218.138 364.929,218.138 365.200,218.138 365.471,218.138 365.742,218.137 366.013,218.137 366.284,218.137 366.554,218.136 366.825,218.136 367.096,218.135 367.367,218.135 367.638,218.134 367.908,218.134 368.179,218.133 368.450,218.133 368.721,218.132 368.992,218.131 369.263,218.131 369.533,218.130 369.804,218.129 370.075,218.128 370.346,218.127 370.617,218.126 370.888,218.125 371.158,218.123 371.429,218.122 371.700,218.121 371.971,218.119 372.242,218.118 372.512,218.116 372.783,218.114 373.054,218.112 373.325,218.110 373.596,218.108 373.867,218.105 374.137,218.103 374.408,218.100 374.679,218.097 374.950,218.094 375.221,218.091 375.491,218.087 375.762,218.084 376.033,218.080 376.304,218.076 376.575,218.071 376.846,218.066 377.116,218.061 377.387,218.056 377.658,218.050 377.929,218.044 378.200,218.038 378.471,218.031 378.741,218.024 379.012,218.017 379.283,218.008 379.554,218.000 379.825,217.991 380.095,217.981 380.366,217.971 380.637,217.960 380.908,217.949 381.179,217.937 381.450,217.924 381.720,217.911 381.991,217.896 382.262,217.881 382.533,217.866 382.804,217.849 383.075,217.831 383.345,217.812 383.616,217.793 383.887,217.772 384.158,217.750 384.429,217.727 384.699,217.703 384.970,217.677 385.241,217.650 385.512,217.621 385.783,217.592 386.054,217.560 386.324,217.527 386.595,217.492 386.866,217.455 387.137,217.417 387.408,217.377 387.679,217.334 387.949,217.290 388.220,217.243 388.491,217.194 388.762,217.142 389.033,217.088 389.303,217.032 389.574,216.972 389.845,216.910 390.116,216.845 390.387,216.777 390.658,216.706 390.928,216.631 391.199,216.553 391.470,216.471 391.741,216.386 392.012,216.297 392.283,216.204 392.553,216.106 392.824,216.005 393.095,215.899 393.366,215.788 393.637,215.673 393.907,215.552 394.178,215.427 394.449,215.296 394.720,215.160 394.991,215.018 395.262,214.870 395.532,214.716 395.803,214.556 396.074,214.390 396.345,214.217 396.616,214.037 396.886,213.850 397.157,213.655 397.428,213.454 397.699,213.244 397.970,213.027 398.241,212.801 398.511,212.567 398.782,212.324 399.053,212.073 399.324,211.812 399.595,211.542 399.866,211.263 400.136,210.973 400.407,210.674 400.678,210.364 400.949,210.043 401.220,209.712 401.490,209.370 401.761,209.016 402.032,208.650 402.303,208.273 402.574,207.883 402.845,207.482 403.115,207.067 403.386,206.639 403.657,206.199 403.928,205.745 404.199,205.277 404.470,204.795 404.740,204.299 405.011,203.789 405.282,203.264 405.553,202.724 405.824,202.169 406.094,201.598 406.365,201.012 406.636,200.410 406.907,199.792 407.178,199.158 407.449,198.507 407.719,197.840 407.990,197.156 408.261,196.454 408.532,195.736 408.803,195.000 409.074,194.247 409.344,193.476 409.615,192.687 409.886,191.880 410.157,191.056 410.428,190.213 410.698,189.352 410.969,188.472 411.240,187.575 411.511,186.659 411.782,185.724 412.053,184.771 412.323,183.800 412.594,182.810 412.865,181.801 413.136,180.775 413.407,179.730 413.678,178.666 413.948,177.585 414.219,176.485 414.490,175.368 414.761,174.233 415.032,173.080 415.302,171.910 415.573,170.723 415.844,169.518 416.115,168.297 416.386,167.060 416.657,165.806 416.927,164.537 417.198,163.252 417.469,161.951 417.740,160.636 418.011,159.307 418.282,157.964 418.552,156.607 418.823,155.237 419.094,153.854 419.365,152.459 419.636,151.053 419.906,149.636 420.177,148.208 420.448,146.770 420.719,145.323 420.990,143.867 421.261,142.403 421.531,140.932 421.802,139.454 422.073,137.970 422.344,136.481 422.615,134.988 422.885,133.490 423.156,131.990 423.427,130.487 423.698,128.983 423.969,127.479 424.240,125.974 424.510,124.471 424.781,122.970 425.052,121.472 425.323,119.977 425.594,118.487 425.865,117.002 426.135,115.524 426.406,114.053 426.677,112.591 426.948,111.137 427.219,109.694 427.489,108.262 427.760,106.842 428.031,105.435 428.302,104.042 428.573,102.664 428.844,101.302 429.114,99.957 429.385,98.629 429.656,97.320 429.927,96.031 430.198,94.762 430.469,93.515 430.739,92.290 431.010,91.088 431.281,89.911 431.552,88.759 431.823,87.632 432.093,86.533 432.364,85.461 432.635,84.418 432.906,83.404 433.177,82.420 433.448,81.467 433.718,80.545 433.989,79.656 434.260,78.799 434.531,77.977 434.802,77.189 435.073,76.436 435.343,75.718 435.614,75.036 435.885,74.392 436.156,73.784 436.427,73.215 436.697,72.683 436.968,72.190 437.239,71.737 437.510,71.322 437.781,70.948 438.052,70.614 438.322,70.319 438.593,70.066 438.864,69.853 439.135,69.682 439.406,69.551 439.677,69.462 439.947,69.414 440.218,69.408 440.489,69.442 440.760,69.519 441.031,69.636 441.301,69.795 441.572,69.994 441.843,70.235 442.114,70.516 442.385,70.838 442.656,71.200 442.926,71.601 443.197,72.043 443.468,72.523 443.739,73.042 444.010,73.600 444.280,74.196 444.551,74.828 444.822,75.498 445.093,76.205 445.364,76.947 445.635,77.724 445.905,78.535 446.176,79.381 446.447,80.260 446.718,81.171 446.989,82.115 447.260,83.089 447.530,84.094 447.801,85.128 448.072,86.191 448.343,87.282 448.614,88.399 448.884,89.544 449.155,90.713 449.426,91.907 449.697,93.125 449.968,94.365 450.239,95.627 450.509,96.910 450.780,98.213 451.051,99.535 451.322,100.874 451.593,102.231 451.864,103.605 452.134,104.993 452.405,106.396 452.676,107.812 452.947,109.240 453.218,110.680 453.488,112.130 453.759,113.589 454.030,115.058 454.301,116.534 454.572,118.016 454.843,119.505 455.113,120.998 455.384,122.495 455.655,123.996 455.926,125.499 456.197,127.003 456.468,128.507 456.738,130.012 457.009,131.515 457.280,133.016 457.551,134.514 457.822,136.009 458.092,137.500 458.363,138.985 458.634,140.465 458.905,141.939 459.176,143.405 459.447,144.863 459.717,146.313 459.988,147.754 460.259,149.185 460.530,150.606 460.801,152.016 461.072,153.414 461.342,154.801 461.613,156.175 461.884,157.536 462.155,158.883 462.426,160.217 462.696,161.537 462.967,162.842 463.238,164.132 463.509,165.406 463.780,166.665 464.051,167.907 464.321,169.134 464.592,170.343 464.863,171.536 465.134,172.712 465.405,173.870 465.675,175.011 465.946,176.134 466.217,177.239 466.488,178.326 466.759,179.395 467.030,180.446 467.300,181.478 467.571,182.493 467.842,183.488 468.113,184.466 468.384,185.424 468.655,186.365 468.925,187.287 469.196,188.190 469.467,189.076 469.738,189.942 470.009,190.791 470.279,191.621 470.550,192.434 470.821,193.228 471.092,194.005 471.363,194.764 471.634,195.505 471.904,196.229 472.175,196.936 472.446,197.625 472.717,198.298 472.988,198.954 473.259,199.593 473.529,200.216 473.800,200.823 474.071,201.414 474.342,201.990 474.613,202.550 474.883,203.095 475.154,203.624 475.425,204.139 475.696,204.640 475.967,205.126 476.238,205.598 476.508,206.057 476.779,206.501 477.050,206.933 477.321,207.352 477.592,207.758 477.863,208.151 478.133,208.532 478.404,208.901 478.675,209.259 478.946,209.605 479.217,209.940 479.487,210.264 479.758,210.577 480.029,210.880 480.300,211.172 480.571,211.455 480.842,211.728 481.112,211.991 481.383,212.246 481.654,212.491 481.925,212.728 482.196,212.956 482.467,213.176 482.737,213.388 483.008,213.592 483.279,213.789 483.550,213.978 483.821,214.160 484.091,214.336 484.362,214.504 484.633,214.666 484.904,214.822 485.175,214.972 485.446,215.115 485.716,215.253 485.987,215.386 486.258,215.513 486.529,215.635 486.800,215.752 487.071,215.864 487.341,215.972 487.612,216.075 487.883,216.173 488.154,216.268 488.425,216.358 488.695,216.445 488.966,216.528 489.237,216.607 489.508,216.682 489.779,216.755 490.050,216.824 490.320,216.890 490.591,216.953 490.862,217.013 491.133,217.071 491.404,217.125 491.674,217.178 491.945,217.228 492.216,217.275 492.487,217.320 492.758,217.363 493.029,217.404 493.299,217.444 493.570,217.481 493.841,217.516 494.112,217.550 494.383,217.582 494.654,217.612 494.924,217.641 495.195,217.668 495.466,217.695 495.737,217.719 496.008,217.743 496.278,217.765 496.549,217.786 496.820,217.806 497.091,217.825 497.362,217.843 497.633,217.860 497.903,217.876 498.174,217.892 498.445,217.906 498.716,217.920 498.987,217.933 499.258,217.945 499.528,217.957 499.799,217.968 500.070,217.978 500.341,217.988 500.612,217.997 500.882,218.006 501.153,218.014 501.424,218.022 501.695,218.029 501.966,218.036 502.237,218.042 502.507,218.049 502.778,218.054 503.049,218.060 503.320,218.065 503.591,218.070 503.862,218.074 504.132,218.079 504.403,218.083 504.674,218.086 504.945,218.090 505.216,218.093 505.486,218.096 505.757,218.099 506.028,218.102 506.299,218.105 506.570,218.107 506.841,218.109 507.111,218.111 507.382,218.113 507.653,218.115 507.924,218.117 508.195,218.119 508.466,218.120 508.736,218.122 509.007,218.123 509.278,218.124 509.549,218.125 509.820,218.127 510.090,218.128 510.361,218.129 510.632,218.129 510.903,218.130 511.174,218.131 511.445,218.132 511.715,218.132 511.986,218.133 512.257,218.134 512.528,218.134 512.799,218.135 513.069,218.135 513.340,218.136 513.611,218.136 513.882,218.136 514.153,218.137 514.424,218.137 514.694,218.137 514.965,218.138 515.236,218.138 515.507,218.138 515.778,218.139 516.049,218.139 516.319,218.139 516.590,218.139 516.861,218.139 517.132,218.139 517.403,218.140 517.673,218.140 517.944,218.140 518.215,218.140 518.486,218.140 518.757,218.140 519.028,218.140 519.298,218.140 519.569,218.140 519.840,218.141 520.111,218.141 520.382,218.141 520.653,218.141 520.923,218.141 521.194,218.141 521.465,218.141 521.736,218.141 522.007,218.141 522.277,218.141 522.548,218.141 522.819,218.141 523.090,218.141 523.361,218.141 523.632,218.141 523.902,218.141 524.173,218.141 524.444,218.141 524.715,218.141 524.986,218.141 525.257,218.141 525.527,218.141 525.798,218.141 526.069,218.141 526.340,218.141 526.611,218.141 526.881,218.141 527.152,218.141 527.423,218.141 527.694,218.141 527.965,218.141 528.236,218.141 528.506,218.141 528.777,218.141 529.048,218.141 529.319,218.141 529.590,218.141 529.861,218.141 530.131,218.141 530.402,218.141 530.673,218.141 530.944,218.141 531.215,218.141 531.485,218.141 531.756,218.141 532.027,218.141 532.298,218.141 532.569,218.141 532.840,218.141 533.110,218.141 533.381,218.141 533.652,218.141 533.923,218.141 534.194,218.141 534.464,218.141 534.735,218.141 535.006,218.141 535.277,218.141 535.548,218.141 535.819,218.141 536.089,218.141 536.360,218.141 536.631,218.141 536.902,218.141 537.173,218.141 537.444,218.141 537.714,218.141 537.985,218.141 538.256,218.141 538.527,218.141 538.798,218.141 539.068,218.141 539.339,218.141 539.610,218.141 539.881,218.141 540.152,218.141 540.423,218.141 540.693,218.141 540.964,218.141 541.235,218.141 541.506,218.141 541.777,218.141 542.048,218.141 542.318,218.141 542.589,218.141 542.860,218.141 543.131,218.141 543.402,218.141 543.672,218.141 543.943,218.141 544.214,218.141 544.485,218.141 544.756,218.141 545.027,218.141 545.297,218.141 545.568,218.141 545.839,218.141 546.110,218.141 546.381,218.141 546.652,218.141 546.922,218.141 547.193,218.141 547.464,218.141 547.735,218.141 548.006,218.141 548.276,218.141 548.547,218.141 548.818,218.141 549.089,218.141 549.360,218.141 549.631,218.141 549.901,218.141 550.172,218.141 550.443,218.141 550.714,218.141 550.985,218.141 551.256,218.141 551.526,218.141 551.797,218.141 552.068,218.141 552.339,218.141 552.610,218.141 552.880,218.141 553.151,218.141 553.422,218.141 553.693,218.141 553.964,218.141 554.235,218.141 554.505,218.141 554.776,218.141 555.047,218.141 555.318,218.141 555.589,218.141 555.860,218.141 556.130,218.141 556.401,218.141 556.672,218.141 556.943,218.141 557.214,218.141 557.484,218.141 557.755,218.141 558.026,218.141 558.297,218.141 558.568,218.141 558.839,218.141 559.109,218.141 559.380,218.141 559.651,218.141 559.922,218.141 560.193,218.141 560.463,218.141 560.734,218.141 561.005,218.141 561.276,218.141 561.547,218.141 561.818,218.141 562.088,218.141 562.359,218.141 562.630,218.141 562.901,218.141 563.172,218.141 563.443,218.141 563.713,218.141 563.984,218.141 564.255,218.141 564.526,218.141 564.797,218.141 565.067,218.141 565.338,218.141 565.609,218.141 565.880,218.141 566.151,218.141 566.422,218.141 566.692,218.141 566.963,218.141 567.234,218.141 567.505,218.141 567.776,218.141 568.047,218.141 568.317,218.141 568.588,218.141 568.859,218.141 569.130,218.141 569.401,218.141 569.671,218.141 569.942,218.141 570.213,218.141 570.484,218.141 570.755,218.141 571.026,218.141 571.296,218.141 571.567,218.141 571.838,218.141 572.109,218.141 572.380,218.141 572.651,218.141 572.921,218.141 573.192,218.141 573.463,218.141 573.734,218.141 574.005,218.141 574.275,218.141 574.546,218.141 574.817,218.141 575.088,218.141 575.359,218.141 575.630,218.141 575.900,218.141 576.171,218.141 576.442,218.141 576.713,218.141 576.984,218.141 577.255,218.141 577.525,218.141 577.796,218.141 578.067,218.141 578.338,218.141 578.609,218.141 578.879,218.141 579.150,218.141 579.421,218.141 579.692,218.141 579.963,218.141 580.234,218.141 580.504,218.141 580.775,218.141 581.046,218.141 581.317,218.141 581.588,218.141 581.858,218.141 582.129,218.141 582.400,218.141 582.671,218.141 582.942,218.141 583.213,218.141 583.483,218.141 583.754,218.141 584.025,218.141 584.296,218.141 584.567,218.141 584.838,218.141 585.108,218.141 585.379,218.141 585.650,218.141 585.921,218.141 586.192,218.141 586.462,218.141 586.733,218.141 587.004,218.141 587.275,218.141 587.546,218.141 587.817,218.141 588.087,218.141 588.358,218.141 588.629,218.141 588.900,218.141 589.171,218.141 589.442,218.141 589.712,218.141 589.983,218.141 590.254,218.141 590.525,218.141 590.796,218.141 591.066,218.141 591.337,218.141 591.608,218.141 591.879,218.141 592.150,218.141 592.421,218.141 592.691,218.141 592.962,218.141 593.233,218.141 593.504,218.141 593.775,218.141 594.046,218.141 594.316,218.141 594.587,218.141 594.858,218.141 595.129,218.141 595.400,218.141 595.670,218.141 595.941,218.141 596.212,218.141 596.483,218.141 596.754,218.141 597.025,218.141 597.295,218.141 597.566,218.141 597.837,218.141 598.108,218.141 598.379,218.141 598.650,218.141 598.920,218.141 599.191,218.141 599.462,218.141 599.733,218.141 600.004,218.141 600.274,218.141 600.545,218.141 600.816,218.141 601.087,218.141 601.358,218.141 601.629,218.141 601.899,218.141 602.170,218.141 602.441,218.141 602.712,218.141 602.983,218.141 603.253,218.141 603.524,218.141 603.795,218.141 604.066,218.141 604.337,218.141 604.608,218.141 604.878,218.141 605.149,218.141 605.420,218.141 605.691,218.141 605.962,218.141 606.233,218.141 606.503,218.141 606.774,218.141 607.045,218.141 607.316,218.141 607.587,218.141 607.857,218.141 608.128,218.141 608.399,218.141 608.670,218.141 608.941,218.141 609.212,218.141 609.482,218.141 609.753,218.141 610.024,218.141 610.295,218.141 610.566,218.141 610.837,218.141 611.107,218.141 611.378,218.141 611.649,218.141 611.920,218.141 612.191,218.141 612.461,218.141 612.732,218.141 613.003,218.141 613.274,218.141 613.545,218.141 613.816,218.141 614.086,218.141 614.357,218.141 614.628,218.141 614.899,218.141 615.170,218.141 615.441,218.141 615.711,218.141 615.982,218.141 616.253,218.141 616.524,218.141 616.795,218.141 617.065,218.141 617.336,218.141 617.607,218.141 617.878,218.141 618.149,218.141 618.420,218.141 618.690,218.141 618.961,218.141 619.232,218.141 619.503,218.141 619.774,218.141 620.045,218.141 620.315,218.141 620.586,218.141 620.857,218.141 621.128,218.141 621.399,218.141 621.669,218.141 621.940,218.141 622.211,218.141 622.482,218.141 622.753,218.141 623.024,218.141 623.294,218.141 623.565,218.141 623.836,218.141 624.107,218.141 624.378,218.141 624.649,218.141 624.919,218.141 625.190,218.141 625.461,218.141 625.732,218.141 626.003,218.141 626.273,218.141 626.544,218.141 626.815,218.141 627.086,218.141 627.357,218.141 627.628,218.141 627.898,218.141 628.169,218.141 628.440,218.141 628.711,218.141 628.982,218.141 629.252,218.141 629.523,218.141 629.794,218.141 630.065,218.141 630.336,218.141 630.607,218.141 630.877,218.141 631.148,218.141 631.419,218.141 631.690,218.141 631.961,218.141 632.232,218.141 632.502,218.141 "/>
<g>
</g>
</g>
<g id="ID000003" >
  <g transform="translate(361.056,30.565)">
    <g transform="rotate(-0.0)">
      <text x="0.000" y="0.000" font-family="Helvetica" text-anchor="middle" font-size="12pt" fill="#000000" >l = 0.06, x* = -0.50</text>
    </g>
  </g>
</g>
<g id="ID000004" >
</g>
<g id="ID000005" >
</g>
    </g>
    <g>
      <polyline fill="none" stroke="#000000" stroke-width="0.5pt" stroke-dasharray="none" points="145.021,218.141 145.021,212.725 "/>
      <polyline fill="none" stroke="#000000" stroke-width="0.5pt" stroke-dasharray="none" points="199.186,218.141 199.186,212.725 "/>
      <polyline fill="none" stroke="#000000" stroke-width="0.5pt" stroke-dasharray="none" points="253.350,218.141 253.350,212.725 "/>
      <polyline fill="none" stroke="#000000" stroke-width="0.5pt" stroke-dasharray="none" points="307.515,218.141 307.515,212.725 "/>
      <polyline fill="none" stroke="#000000" stroke-width="0.5pt" stroke-dasharray="none" points="361.680,218.141 361.680,212.725 "/>
      <polyline fill="none" stroke="#000000" stroke-width="0.5pt" stroke-dasharray="none" points="415.844,218.141 415.844,212.725 "/>
      <polyline fill="none" stroke="#000000" stroke-width="0.5pt" stroke-dasharray="none" points="470.009,218.141 470.009,212.725 "/>
      <polyline fill="none" stroke="#000000" stroke-width="0.5pt" stroke-dasharray="none" points="524.173,218.141 524.173,212.725 "/>
      <polyline fill="none" stroke="#000000" stroke-width="0.5pt" stroke-dasharray="none" points="578.338,218.141 578.338,212.725 "/>
      <polyline fill="none" stroke="#000000" stroke-width="0.5pt" stroke-dasharray="none" points="90.857,218.141 632.502,218.141 "/>
      <polyline fill="none" stroke="#000000" stroke-width="0.5pt" stroke-dasharray="none" points="145.021,39.313 145.021,44.729 "/>
      <polyline fill="none" stroke="#000000" stroke-width="0.5pt" stroke-dasharray="none" points="199.186,39.313 199.186,44.729 "/>
      <polyline fill="none" stroke="#000000" stroke-width="0.5pt" stroke-dasharray="none" points="253.350,39.313 253.350,44.729 "/>
      <polyline fill="none" stroke="#000000" stroke-width="0.5pt" stroke-dasharray="none" points="307.515,39.313 307.515,44.729 "/>
      <polyline fill="none" stroke="#000000" stroke-width="0.5pt" stroke-dasharray="none" points="361.680,39.313 361.680,44.729 "/>
      <polyline fill="none" stroke="#000000" stroke-width="0.5pt" stroke-dasharray="none" points="415.844,39.313 415.844,44.729 "/>
      <polyline fill="none" stroke="#000000" stroke-width="0.5pt" stroke-dasharray="none" points="470.009,39.313 470.009,44.729 "/>
      <polyline fill="none" stroke="#000000" stroke-width="0.5pt" stroke-dasharray="none" points="524.173,39.313 524.173,44.729 "/>
      <polyline fill="none" stroke="#000000" stroke-width="0.5pt" stroke-dasharray="none" points="578.338,39.313 578.338,44.729 "/>
      <polyline fill="none" stroke="#000000" stroke-width="0.5pt" stroke-dasharray="none" points="90.857,39.313 632.502,39.313 "/>
  <g transform="translate(90.857,236.445)">
    <g transform="rotate(-0.0)">
      <text x="0.000" y="0.000" font-family="Helvetica" text-anchor="middle" font-size="12pt" fill="#000000" >-1</text>
    </g>
  </g>
  <g transform="translate(145.021,236.445)">
    <g transform="rotate(-0.0)">
      <text x="0.000" y="0.000" font-family="Helvetica" text-anchor="middle" font-size="12pt" fill="#000000" >-0.8</text>
    </g>
  </g>
  <g transform="translate(199.186,236.445)">
    <g transform="rotate(-0.0)">
      <text x="0.000" y="0.000" font-family="Helvetica" text-anchor="middle" font-size="12pt" fill="#000000" >-0.6</text>
    </g>
  </g>
  <g transform="translate(253.350,236.445)">
    <g transform="rotate(-0.0)">
      <text x="0.000" y="0.000" font-family="Helvetica" text-anchor="middle" font-size="12pt" fill="#000000" >-0.4</text>
    </g>
  </g>
  <g transform="translate(307.515,236.445)">
    <g transform="rotate(-0.0)">
      <text x="0.000" y="0.000" font-family="Helvetica" text-anchor="middle" font-size="12pt" fill="#000000" >-0.2</text>
    </g>
  </g>
  <g transform="translate(361.680,236.445)">
    <g transform="rotate(-0.0)">
      <text x="0.000" y="0.000" font-family="Helvetica" text-anchor="middle" font-size="12pt" fill="#000000" >0</text>
    </g>
  </g>
  <g transform="translate(415.844,236.445)">
    <g transform="rotate(-0.0)">
      <text x="0.000" y="0.000" font-family="Helvetica" text-anchor="middle" font-size="12pt" fill="#000000" >0.2</text>
    </g>
  </g>
  <g transform="translate(470.009,236.445)">
    <g transform="rotate(-0.0)">
      <text x="0.000" y="0.000" font-family="Helvetica" text-anchor="middle" font-size="12pt" fill="#000000" >0.4</text>
    </g>
  </g>
  <g transform="translate(524.173,236.445)">
    <g transform="rotate(-0.0)">
      <text x="0.000" y="0.000" font-family="Helvetica" text-anchor="middle" font-size="12pt" fill="#000000" >0.6</text>
    </g>
  </g>
  <g transform="translate(578.338,236.445)">
    <g transform="rotate(-0.0)">
      <text x="0.000" y="0.000" font-family="Helvetica" text-anchor="middle" font-size="12pt" fill="#000000" >0.8</text>
    </g>
  </g>
  <g transform="translate(632.502,236.445)">
    <g transform="rotate(-0.0)">
      <text x="0.000" y="0.000" font-family="Helvetica" text-anchor="middle" font-size="12pt" fill="#000000" >1</text>
    </g>
  </g>
      <polyline fill="none" stroke="#000000" stroke-width="0.5pt" stroke-dasharray="none" points="90.857,173.434 96.273,173.434 "/>
      <polyline fill="none" stroke="#000000" stroke-width="0.5pt" stroke-dasharray="none" points="90.857,128.727 96.273,128.727 "/>
      <polyline fill="none" stroke="#000000" stroke-width="0.5pt" stroke-dasharray="none" points="90.857,84.020 96.273,84.020 "/>
      <polyline fill="none" stroke="#000000" stroke-width="0.5pt" stroke-dasharray="none" points="90.857,218.141 90.857,39.313 "/>
      <polyline fill="none" stroke="#000000" stroke-width="0.5pt" stroke-dasharray="none" points="632.502,173.434 627.086,173.434 "/>
      <polyline fill="none" stroke="#000000" stroke-width="0.5pt" stroke-dasharray="none" points="632.502,128.727 627.086,128.727 "/>
      <polyline fill="none" stroke="#000000" stroke-width="0.5pt" stroke-dasharray="none" points="632.502,84.020 627.086,84.020 "/>
      <polyline fill="none" stroke="#000000" stroke-width="0.5pt" stroke-dasharray="none" points="632.502,218.141 632.502,39.313 "/>
  <g transform="translate(80.024,223.758)">
    <g transform="rotate(-0.0)">
      <text x="0.000" y="0.000" font-family="Helvetica" text-anchor="end" font-size="12pt" fill="#000000" >0</text>
    </g>
  </g>
  <g transform="translate(80.024,179.050)">
    <g transform="rotate(-0.0)">
      <text x="0.000" y="0.000" font-family="Helvetica" text-anchor="end" font-size="12pt" fill="#000000" >2</text>
    </g>
  </g>
  <g transform="translate(80.024,134.343)">
    <g transform="rotate(-0.0)">
      <text x="0.000" y="0.000" font-family="Helvetica" text-anchor="end" font-size="12pt" fill="#000000" >4</text>
    </g>
  </g>
  <g transform="translate(80.024,89.636)">
    <g transform="rotate(-0.0)">
      <text x="0.000" y="0.000" font-family="Helvetica" text-anchor="end" font-size="12pt" fill="#000000" >6</text>
    </g>
  </g>
  <g transform="translate(80.024,44.929)">
    <g transform="rotate(-0.0)">
      <text x="0.000" y="0.000" font-family="Helvetica" text-anchor="end" font-size="12pt" fill="#000000" >8</text>
    </g>
  </g>
      <polyline fill="none" stroke="#000000" stroke-width="0.5pt" stroke-dasharray="none" points="90.857,218.141 90.857,216.353 "/>
      <polyline fill="none" stroke="#000000" stroke-width="0.5pt" stroke-dasharray="none" points="90.857,218.141 90.857,218.141 "/>
    </g>
  </g>
  <g id ="ID000006">
  <clipPath id="ID000007">
    <rect x="90.857" y="287.686" width="541.646" height="178.828"/>
  </clipPath>
      <polygon fill="#ffffff" fill-opacity="1.00" stroke="none" stroke-width="0.5pt" stroke-opacity="1.00" stroke-dasharray="none" points="90.857,466.514 632.502,466.514 632.502,287.686 90.857,287.686 "/>
      <polygon fill="#ffffff" fill-opacity="1.00" stroke="none" stroke-width="0.5pt" stroke-opacity="1.00" stroke-dasharray="none" points="90.857,287.686 632.502,287.686 632.502,287.686 90.857,287.686 "/>
      <polygon fill="#ffffff" fill-opacity="1.00" stroke="none" stroke-width="0.5pt" stroke-opacity="1.00" stroke-dasharray="none" points="90.857,466.514 90.857,466.514 90.857,287.686 90.857,287.686 "/>
    <g>
<g id="ID000008" clip-path="url(#ID000007)" >
      <polyline fill="none" stroke="#0000ff" stroke-width="0.5pt" stroke-dasharray="none" points="90.857,429.434 91.128,429.217 91.398,429.001 91.669,428.785 91.940,428.568 92.211,428.352 92.482,428.135 92.752,427.919 93.023,427.703 93.294,427.486 93.565,427.270 93.836,427.054 94.107,426.837 94.377,426.621 94.648,426.405 94.919,426.188 95.190,425.972 95.461,425.756 95.732,425.539 96.002,425.323 96.273,425.107 96.544,424.890 96.815,424.674 97.086,424.458 97.356,424.241 97.627,424.025 97.898,423.809 98.169,423.593 98.440,423.376 98.711,423.160 98.981,422.944 99.252,422.728 99.523,422.512 99.794,422.295 100.065,422.079 100.335,421.863 100.606,421.647 100.877,421.431 101.148,421.215 101.419,420.999 101.690,420.783 101.960,420.567 102.231,420.351 102.502,420.135 102.773,419.919 103.044,419.703 103.315,419.487 103.585,419.271 103.856,419.055 104.127,418.839 104.398,418.623 104.669,418.407 104.939,418.191 105.210,417.975 105.481,417.760 105.752,417.544 106.023,417.328 106.294,417.112 106.564,416.897 106.835,416.681 107.106,416.465 107.377,416.250 107.648,416.034 107.919,415.819 108.189,415.603 108.460,415.388 108.731,415.172 109.002,414.957 109.273,414.741 109.543,414.526 109.814,414.310 110.085,414.095 110.356,413.880 110.627,413.664 110.898,413.449 111.168,413.234 111.439,413.019 111.710,412.804 111.981,412.589 112.252,412.373 112.523,412.158 112.793,411.943 113.064,411.728 113.335,411.513 113.606,411.299 113.877,411.084 114.147,410.869 114.418,410.654 114.689,410.439 114.960,410.225 115.231,410.010 115.502,409.795 115.772,409.581 116.043,409.366 116.314,409.152 116.585,408.937 116.856,408.723 117.127,408.508 117.397,408.294 117.668,408.080 117.939,407.865 118.210,407.651 118.481,407.437 118.751,407.223 119.022,407.009 119.293,406.795 119.564,406.581 119.835,406.367 120.106,406.153 120.376,405.939 120.647,405.725 120.918,405.512 121.189,405.298 121.460,405.084 121.730,404.871 122.001,404.657 122.272,404.444 122.543,404.230 122.814,404.017 123.085,403.803 123.355,403.590 123.626,403.377 123.897,403.164 124.168,402.951 124.439,402.737 124.710,402.524 124.980,402.312 125.251,402.099 125.522,401.886 125.793,401.673 126.064,401.460 126.334,401.248 126.605,401.035 126.876,400.822 127.147,400.610 127.418,400.397 127.689,400.185 127.959,399.973 128.230,399.761 128.501,399.548 128.772,399.336 129.043,399.124 129.314,398.912 129.584,398.700 129.855,398.488 130.126,398.277 130.397,398.065 130.668,397.853 130.938,397.642 131.209,397.430 131.480,397.219 131.751,397.007 132.022,396.796 132.293,396.585 132.563,396.373 132.834,396.162 133.105,395.951 133.376,395.740 133.647,395.529 133.918,395.318 134.188,395.108 134.459,394.897 134.730,394.686 135.001,394.476 135.272,394.265 135.542,394.055 135.813,393.845 136.084,393.634 136.355,393.424 136.626,393.214 136.897,393.004 137.167,392.794 137.438,392.584 137.709,392.374 137.980,392.165 138.251,391.955 138.522,391.746 138.792,391.536 139.063,391.327 139.334,391.117 139.605,390.908 139.876,390.699 140.146,390.490 140.417,390.281 140.688,390.072 140.959,389.863 141.230,389.655 141.501,389.446 141.771,389.237 142.042,389.029 142.313,388.821 142.584,388.612 142.855,388.404 143.126,388.196 143.396,387.988 143.667,387.780 143.938,387.572 144.209,387.364 144.480,387.157 144.750,386.949 145.021,386.742 145.292,386.534 145.563,386.327 145.834,386.120 146.105,385.913 146.375,385.706 146.646,385.499 146.917,385.292 147.188,385.085 147.459,384.879 147.729,384.672 148.000,384.466 148.271,384.259 148.542,384.053 148.813,383.847 149.084,383.641 149.354,383.435 149.625,383.229 149.896,383.023 150.167,382.818 150.438,382.612 150.709,382.407 150.979,382.201 151.250,381.996 151.521,381.791 151.792,381.586 152.063,381.381 152.333,381.176 152.604,380.972 152.875,380.767 153.146,380.562 153.417,380.358 153.688,380.154 153.958,379.950 154.229,379.746 154.500,379.542 154.771,379.338 155.042,379.134 155.313,378.930 155.583,378.727 155.854,378.523 156.125,378.320 156.396,378.117 156.667,377.914 156.937,377.711 157.208,377.508 157.479,377.305 157.750,377.103 158.021,376.900 158.292,376.698 158.562,376.496 158.833,376.293 159.104,376.091 159.375,375.890 159.646,375.688 159.917,375.486 160.187,375.284 160.458,375.083 160.729,374.882 161.000,374.681 161.271,374.479 161.541,374.278 161.812,374.078 162.083,373.877 162.354,373.676 162.625,373.476 162.896,373.276 163.166,373.075 163.437,372.875 163.708,372.675 163.979,372.475 164.250,372.276 164.521,372.076 164.791,371.877 165.062,371.677 165.333,371.478 165.604,371.279 165.875,371.080 166.145,370.881 166.416,370.683 166.687,370.484 166.958,370.286 167.229,370.087 167.500,369.889 167.770,369.691 168.041,369.493 168.312,369.296 168.583,369.098 168.854,368.901 169.124,368.703 169.395,368.506 169.666,368.309 169.937,368.112 170.208,367.915 170.479,367.718 170.749,367.522 171.020,367.326 171.291,367.129 171.562,366.933 171.833,366.737 172.104,366.541 172.374,366.346 172.645,366.150 172.916,365.955 173.187,365.760 173.458,365.564 173.728,365.369 173.999,365.175 174.270,364.980 174.541,364.785 174.812,364.591 175.083,364.397 175.353,364.203 175.624,364.009 175.895,363.815 176.166,363.621 176.437,363.428 176.708,363.234 176.978,363.041 177.249,362.848 177.520,362.655 177.791,362.463 178.062,362.270 178.332,362.077 178.603,361.885 178.874,361.693 179.145,361.501 179.416,361.309 179.687,361.118 179.957,360.926 180.228,360.735 180.499,360.543 180.770,360.352 181.041,360.161 181.312,359.971 181.582,359.780 181.853,359.590 182.124,359.399 182.395,359.209 182.666,359.019 182.936,358.830 183.207,358.640 183.478,358.450 183.749,358.261 184.020,358.072 184.291,357.883 184.561,357.694 184.832,357.506 185.103,357.317 185.374,357.129 185.645,356.941 185.916,356.753 186.186,356.565 186.457,356.377 186.728,356.190 186.999,356.002 187.270,355.815 187.540,355.628 187.811,355.441 188.082,355.255 188.353,355.068 188.624,354.882 188.895,354.696 189.165,354.510 189.436,354.324 189.707,354.138 189.978,353.953 190.249,353.768 190.519,353.583 190.790,353.398 191.061,353.213 191.332,353.028 191.603,352.844 191.874,352.660 192.144,352.476 192.415,352.292 192.686,352.108 192.957,351.925 193.228,351.741 193.499,351.558 193.769,351.375 194.040,351.192 194.311,351.010 194.582,350.827 194.853,350.645 195.123,350.463 195.394,350.281 195.665,350.099 195.936,349.918 196.207,349.737 196.478,349.555 196.748,349.374 197.019,349.194 197.290,349.013 197.561,348.833 197.832,348.652 198.103,348.472 198.373,348.293 198.644,348.113 198.915,347.933 199.186,347.754 199.457,347.575 199.727,347.396 199.998,347.218 200.269,347.039 200.540,346.861 200.811,346.683 201.082,346.505 201.352,346.327 201.623,346.149 201.894,345.972 202.165,345.795 202.436,345.618 202.707,345.441 202.977,345.264 203.248,345.088 203.519,344.912 203.790,344.736 204.061,344.560 204.331,344.385 204.602,344.209 204.873,344.034 205.144,343.859 205.415,343.684 205.686,343.510 205.956,343.335 206.227,343.161 206.498,342.987 206.769,342.813 207.040,342.640 207.311,342.466 207.581,342.293 207.852,342.120 208.123,341.947 208.394,341.775 208.665,341.602 208.935,341.430 209.206,341.258 209.477,341.087 209.748,340.915 210.019,340.744 210.290,340.573 210.560,340.402 210.831,340.231 211.102,340.060 211.373,339.890 211.644,339.720 211.915,339.550 212.185,339.381 212.456,339.211 212.727,339.042 212.998,338.873 213.269,338.704 213.539,338.536 213.810,338.367 214.081,338.199 214.352,338.031 214.623,337.863 214.894,337.696 215.164,337.529 215.435,337.362 215.706,337.195 215.977,337.028 216.248,336.862 216.518,336.695 216.789,336.529 217.060,336.364 217.331,336.198 217.602,336.033 217.873,335.868 218.143,335.703 218.414,335.538 218.685,335.374 218.956,335.210 219.227,335.046 219.498,334.882 219.768,334.718 220.039,334.555 220.310,334.392 220.581,334.229 220.852,334.066 221.122,333.904 221.393,333.742 221.664,333.580 221.935,333.418 222.206,333.257 222.477,333.095 222.747,332.934 223.018,332.774 223.289,332.613 223.560,332.453 223.831,332.292 224.102,332.133 224.372,331.973 224.643,331.814 224.914,331.654 225.185,331.495 225.456,331.337 225.726,331.178 225.997,331.020 226.268,330.862 226.539,330.704 226.810,330.547 227.081,330.389 227.351,330.232 227.622,330.075 227.893,329.919 228.164,329.762 228.435,329.606 228.706,329.450 228.976,329.295 229.247,329.139 229.518,328.984 229.789,328.829 230.060,328.674 230.330,328.520 230.601,328.366 230.872,328.212 231.143,328.058 231.414,327.905 231.685,327.751 231.955,327.598 232.226,327.446 232.497,327.293 232.768,327.141 233.039,326.989 233.310,326.837 233.580,326.686 233.851,326.534 234.122,326.383 234.393,326.233 234.664,326.082 234.934,325.932 235.205,325.782 235.476,325.632 235.747,325.482 236.018,325.333 236.289,325.184 236.559,325.035 236.830,324.887 237.101,324.738 237.372,324.590 237.643,324.443 237.913,324.295 238.184,324.148 238.455,324.001 238.726,323.854 238.997,323.708 239.268,323.561 239.538,323.415 239.809,323.270 240.080,323.124 240.351,322.979 240.622,322.834 240.893,322.689 241.163,322.545 241.434,322.401 241.705,322.257 241.976,322.113 242.247,321.970 242.517,321.826 242.788,321.683 243.059,321.541 243.330,321.398 243.601,321.256 243.872,321.115 244.142,320.973 244.413,320.832 244.684,320.691 244.955,320.550 245.226,320.409 245.497,320.269 245.767,320.129 246.038,319.989 246.309,319.850 246.580,319.710 246.851,319.572 247.121,319.433 247.392,319.294 247.663,319.156 247.934,319.018 248.205,318.881 248.476,318.743 248.746,318.606 249.017,318.470 249.288,318.333 249.559,318.197 249.830,318.061 250.101,317.925 250.371,317.790 250.642,317.654 250.913,317.520 251.184,317.385 251.455,317.251 251.725,317.116 251.996,316.983 252.267,316.849 252.538,316.716 252.809,316.583 253.080,316.450 253.350,316.318 253.621,316.186 253.892,316.054 254.163,315.922 254.434,315.791 254.705,315.660 254.975,315.529 255.246,315.398 255.517,315.268 255.788,315.138 256.059,315.009 256.329,314.879 256.600,314.750 256.871,314.621 257.142,314.493 257.413,314.364 257.684,314.236 257.954,314.109 258.225,313.981 258.496,313.854 258.767,313.727 259.038,313.601 259.308,313.474 259.579,313.348 259.850,313.223 260.121,313.097 260.392,312.972 260.663,312.847 260.933,312.723 261.204,312.598 261.475,312.474 261.746,312.351 262.017,312.227 262.288,312.104 262.558,311.981 262.829,311.859 263.100,311.736 263.371,311.614 263.642,311.493 263.912,311.371 264.183,311.250 264.454,311.129 264.725,311.009 264.996,310.889 265.267,310.769 265.537,310.649 265.808,310.530 266.079,310.411 266.350,310.292 266.621,310.173 266.892,310.055 267.162,309.937 267.433,309.820 267.704,309.702 267.975,309.585 268.246,309.469 268.516,309.352 268.787,309.236 269.058,309.120 269.329,309.005 269.600,308.889 269.871,308.774 270.141,308.660 270.412,308.545 270.683,308.431 270.954,308.318 271.225,308.204 271.496,308.091 271.766,307.978 272.037,307.865 272.308,307.753 272.579,307.641 272.850,307.530 273.120,307.418 273.391,307.307 273.662,307.196 273.933,307.086 274.204,306.976 274.475,306.866 274.745,306.756 275.016,306.647 275.287,306.538 275.558,306.430 275.829,306.321 276.100,306.213 276.370,306.106 276.641,305.998 276.912,305.891 277.183,305.784 277.454,305.678 277.724,305.571 277.995,305.466 278.266,305.360 278.537,305.255 278.808,305.150 279.079,305.045 279.349,304.941 279.620,304.837 279.891,304.733 280.162,304.630 280.433,304.526 280.704,304.424 280.974,304.321 281.245,304.219 281.516,304.117 281.787,304.016 282.058,303.914 282.328,303.813 282.599,303.713 282.870,303.612 283.141,303.512 283.412,303.413 283.683,303.313 283.953,303.214 284.224,303.116 284.495,303.017 284.766,302.919 285.037,302.821 285.307,302.724 285.578,302.627 285.849,302.530 286.120,302.433 286.391,302.337 286.662,302.241 286.932,302.145 287.203,302.050 287.474,301.955 287.745,301.860 288.016,301.766 288.287,301.672 288.557,301.578 288.828,301.485 289.099,301.392 289.370,301.299 289.641,301.207 289.911,301.115 290.182,301.023 290.453,300.931 290.724,300.840 290.995,300.750 291.266,300.659 291.536,300.569 291.807,300.479 292.078,300.389 292.349,300.300 292.620,300.211 292.891,300.123 293.161,300.035 293.432,299.947 293.703,299.859 293.974,299.772 294.245,299.685 294.515,299.598 294.786,299.512 295.057,299.426 295.328,299.340 295.599,299.255 295.870,299.170 296.140,299.085 296.411,299.001 296.682,298.917 296.953,298.833 297.224,298.750 297.495,298.667 297.765,298.584 298.036,298.502 298.307,298.420 298.578,298.338 298.849,298.256 299.119,298.175 299.390,298.095 299.661,298.014 299.932,297.934 300.203,297.854 300.474,297.775 300.744,297.696 301.015,297.617 301.286,297.538 301.557,297.460 301.828,297.383 302.099,297.305 302.369,297.228 302.640,297.151 302.911,297.075 303.182,296.999 303.453,296.923 303.723,296.847 303.994,296.772 304.265,296.697 304.536,296.623 304.807,296.549 305.078,296.475 305.348,296.401 305.619,296.328 305.890,296.255 306.161,296.183 306.432,296.111 306.702,296.039 306.973,295.968 307.244,295.896 307.515,295.826 307.786,295.755 308.057,295.685 308.327,295.615 308.598,295.546 308.869,295.477 309.140,295.408 309.411,295.339 309.682,295.271 309.952,295.204 310.223,295.136 310.494,295.069 310.765,295.002 311.036,294.936 311.306,294.870 311.577,294.804 311.848,294.739 312.119,294.674 312.390,294.609 312.661,294.544 312.931,294.480 313.202,294.417 313.473,294.353 313.744,294.290 314.015,294.228 314.286,294.165 314.556,294.103 314.827,294.041 315.098,293.980 315.369,293.919 315.640,293.858 315.910,293.798 316.181,293.738 316.452,293.679 316.723,293.619 316.994,293.560 317.265,293.502 317.535,293.443 317.806,293.386 318.077,293.328 318.348,293.271 318.619,293.214 318.890,293.157 319.160,293.101 319.431,293.045 319.702,292.990 319.973,292.935 320.244,292.880 320.514,292.825 320.785,292.771 321.056,292.717 321.327,292.664 321.598,292.611 321.869,292.558 322.139,292.505 322.410,292.453 322.681,292.402 322.952,292.350 323.223,292.299 323.494,292.249 323.764,292.198 324.035,292.148 324.306,292.099 324.577,292.049 324.848,292.000 325.118,291.952 325.389,291.903 325.660,291.855 325.931,291.808 326.202,291.761 326.473,291.714 326.743,291.667 327.014,291.621 327.285,291.575 327.556,291.530 327.827,291.485 328.097,291.440 328.368,291.395 328.639,291.351 328.910,291.308 329.181,291.264 329.452,291.221 329.722,291.178 329.993,291.136 330.264,291.094 330.535,291.052 330.806,291.011 331.077,290.970 331.347,290.930 331.618,290.889 331.889,290.849 332.160,290.810 332.431,290.771 332.701,290.732 332.972,290.693 333.243,290.655 333.514,290.617 333.785,290.580 334.056,290.543 334.326,290.506 334.597,290.470 334.868,290.434 335.139,290.398 335.410,290.362 335.681,290.327 335.951,290.293 336.222,290.259 336.493,290.225 336.764,290.191 337.035,290.158 337.305,290.125 337.576,290.092 337.847,290.060 338.118,290.028 338.389,289.997 338.660,289.966 338.930,289.935 339.201,289.905 339.472,289.875 339.743,289.845 340.014,289.815 340.285,289.786 340.555,289.758 340.826,289.730 341.097,289.702 341.368,289.674 341.639,289.647 341.909,289.620 342.180,289.593 342.451,289.567 342.722,289.541 342.993,289.516 343.264,289.491 343.534,289.466 343.805,289.442 344.076,289.418 344.347,289.394 344.618,289.371 344.889,289.348 345.159,289.325 345.430,289.303 345.701,289.281 345.972,289.259 346.243,289.238 346.513,289.217 346.784,289.197 347.055,289.176 347.326,289.157 347.597,289.137 347.868,289.118 348.138,289.099 348.409,289.081 348.680,289.063 348.951,289.045 349.222,289.028 349.493,289.011 349.763,288.994 350.034,288.978 350.305,288.962 350.576,288.947 350.847,288.932 351.117,288.917 351.388,288.902 351.659,288.888 351.930,288.874 352.201,288.861 352.472,288.848 352.742,288.835 353.013,288.823 353.284,288.811 353.555,288.799 353.826,288.788 354.096,288.777 354.367,288.767 354.638,288.757 354.909,288.747 355.180,288.737 355.451,288.728 355.721,288.719 355.992,288.711 356.263,288.703 356.534,288.695 356.805,288.688 357.076,288.681 357.346,288.674 357.617,288.668 357.888,288.662 358.159,288.657 358.430,288.651 358.700,288.647 358.971,288.642 359.242,288.638 359.513,288.634 359.784,288.631 360.055,288.628 360.325,288.625 360.596,288.623 360.867,288.621 361.138,288.619 361.409,288.618 361.680,288.617 361.950,288.616 362.221,288.616 362.492,288.616 362.763,288.617 363.034,288.618 363.304,288.619 363.575,288.620 363.846,288.622 364.117,288.625 364.388,288.627 364.659,288.630 364.929,288.634 365.200,288.637 365.471,288.641 365.742,288.646 366.013,288.651 366.284,288.656 366.554,288.661 366.825,288.667 367.096,288.673 367.367,288.680 367.638,288.687 367.908,288.694 368.179,288.702 368.450,288.710 368.721,288.718 368.992,288.727 369.263,288.736 369.533,288.745 369.804,288.755 370.075,288.765 370.346,288.776 370.617,288.787 370.888,288.798 371.158,288.810 371.429,288.821 371.700,288.834 371.971,288.846 372.242,288.859 372.512,288.873 372.783,288.886 373.054,288.900 373.325,288.915 373.596,288.930 373.867,288.945 374.137,288.960 374.408,288.976 374.679,288.992 374.950,289.009 375.221,289.026 375.491,289.043 375.762,289.061 376.033,289.079 376.304,289.097 376.575,289.116 376.846,289.135 377.116,289.154 377.387,289.174 377.658,289.194 377.929,289.214 378.200,289.235 378.471,289.256 378.741,289.278 379.012,289.300 379.283,289.322 379.554,289.344 379.825,289.367 380.095,289.391 380.366,289.414 380.637,289.438 380.908,289.463 381.179,289.487 381.450,289.512 381.720,289.538 381.991,289.564 382.262,289.590 382.533,289.616 382.804,289.643 383.075,289.670 383.345,289.698 383.616,289.726 383.887,289.754 384.158,289.783 384.429,289.812 384.699,289.841 384.970,289.871 385.241,289.901 385.512,289.931 385.783,289.962 386.054,289.993 386.324,290.024 386.595,290.056 386.866,290.088 387.137,290.121 387.408,290.153 387.679,290.187 387.949,290.220 388.220,290.254 388.491,290.288 388.762,290.323 389.033,290.358 389.303,290.393 389.574,290.429 389.845,290.465 390.116,290.501 390.387,290.538 390.658,290.575 390.928,290.612 391.199,290.650 391.470,290.688 391.741,290.727 392.012,290.765 392.283,290.805 392.553,290.844 392.824,290.884 393.095,290.924 393.366,290.965 393.637,291.006 393.907,291.047 394.178,291.088 394.449,291.130 394.720,291.173 394.991,291.215 395.262,291.258 395.532,291.302 395.803,291.345 396.074,291.389 396.345,291.434 396.616,291.479 396.886,291.524 397.157,291.569 397.428,291.615 397.699,291.661 397.970,291.708 398.241,291.754 398.511,291.802 398.782,291.849 399.053,291.897 399.324,291.945 399.595,291.994 399.866,292.043 400.136,292.092 400.407,292.142 400.678,292.191 400.949,292.242 401.220,292.292 401.490,292.343 401.761,292.395 402.032,292.446 402.303,292.498 402.574,292.551 402.845,292.604 403.115,292.657 403.386,292.710 403.657,292.764 403.928,292.818 404.199,292.872 404.470,292.927 404.740,292.982 405.011,293.038 405.282,293.094 405.553,293.150 405.824,293.206 406.094,293.263 406.365,293.320 406.636,293.378 406.907,293.436 407.178,293.494 407.449,293.552 407.719,293.611 407.990,293.671 408.261,293.730 408.532,293.790 408.803,293.850 409.074,293.911 409.344,293.972 409.615,294.033 409.886,294.095 410.157,294.157 410.428,294.219 410.698,294.282 410.969,294.345 411.240,294.408 411.511,294.472 411.782,294.536 412.053,294.600 412.323,294.665 412.594,294.730 412.865,294.795 413.136,294.861 413.407,294.927 413.678,294.993 413.948,295.060 414.219,295.127 414.490,295.194 414.761,295.262 415.032,295.330 415.302,295.399 415.573,295.467 415.844,295.537 416.115,295.606 416.386,295.676 416.657,295.746 416.927,295.816 417.198,295.887 417.469,295.958 417.740,296.029 418.011,296.101 418.281,296.173 418.552,296.246 418.823,296.318 419.094,296.392 419.365,296.465 419.636,296.539 419.906,296.613 420.177,296.687 420.448,296.762 420.719,296.837 420.990,296.913 421.261,296.988 421.531,297.064 421.802,297.141 422.073,297.218 422.344,297.295 422.615,297.372 422.885,297.450 423.156,297.528 423.427,297.606 423.698,297.685 423.969,297.764 424.240,297.844 424.510,297.923 424.781,298.003 425.052,298.084 425.323,298.164 425.594,298.245 425.865,298.327 426.135,298.409 426.406,298.491 426.677,298.573 426.948,298.656 427.219,298.739 427.489,298.822 427.760,298.906 428.031,298.990 428.302,299.074 428.573,299.158 428.844,299.243 429.114,299.329 429.385,299.414 429.656,299.500 429.927,299.587 430.198,299.673 430.469,299.760 430.739,299.847 431.010,299.935 431.281,300.023 431.552,300.111 431.823,300.199 432.093,300.288 432.364,300.377 432.635,300.467 432.906,300.557 433.177,300.647 433.448,300.737 433.718,300.828 433.989,300.919 434.260,301.011 434.531,301.102 434.802,301.194 435.073,301.287 435.343,301.380 435.614,301.473 435.885,301.566 436.156,301.660 436.427,301.753 436.697,301.848 436.968,301.942 437.239,302.037 437.510,302.133 437.781,302.228 438.052,302.324 438.322,302.420 438.593,302.517 438.864,302.613 439.135,302.711 439.406,302.808 439.677,302.906 439.947,303.004 440.218,303.102 440.489,303.201 440.760,303.300 441.031,303.399 441.301,303.499 441.572,303.599 441.843,303.699 442.114,303.800 442.385,303.901 442.656,304.002 442.926,304.103 443.197,304.205 443.468,304.307 443.739,304.410 444.010,304.513 444.280,304.616 444.551,304.719 444.822,304.823 445.093,304.927 445.364,305.031 445.635,305.136 445.905,305.241 446.176,305.346 446.447,305.451 446.718,305.557 446.989,305.663 447.260,305.770 447.530,305.877 447.801,305.984 448.072,306.091 448.343,306.199 448.614,306.307 448.884,306.415 449.155,306.524 449.426,306.633 449.697,306.742 449.968,306.851 450.239,306.961 450.509,307.071 450.780,307.182 451.051,307.292 451.322,307.403 451.593,307.515 451.864,307.626 452.134,307.738 452.405,307.850 452.676,307.963 452.947,308.076 453.218,308.189 453.488,308.302 453.759,308.416 454.030,308.530 454.301,308.644 454.572,308.759 454.843,308.874 455.113,308.989 455.384,309.105 455.655,309.220 455.926,309.336 456.197,309.453 456.468,309.570 456.738,309.687 457.009,309.804 457.280,309.921 457.551,310.039 457.822,310.157 458.092,310.276 458.363,310.395 458.634,310.514 458.905,310.633 459.176,310.753 459.447,310.873 459.717,310.993 459.988,311.113 460.259,311.234 460.530,311.355 460.801,311.476 461.072,311.598 461.342,311.720 461.613,311.842 461.884,311.965 462.155,312.088 462.426,312.211 462.696,312.334 462.967,312.458 463.238,312.582 463.509,312.706 463.780,312.831 464.051,312.955 464.321,313.081 464.592,313.206 464.863,313.332 465.134,313.458 465.405,313.584 465.675,313.710 465.946,313.837 466.217,313.964 466.488,314.092 466.759,314.219 467.030,314.347 467.300,314.475 467.571,314.604 467.842,314.733 468.113,314.862 468.384,314.991 468.655,315.121 468.925,315.251 469.196,315.381 469.467,315.511 469.738,315.642 470.009,315.773 470.279,315.904 470.550,316.036 470.821,316.168 471.092,316.300 471.363,316.432 471.634,316.565 471.904,316.698 472.175,316.831 472.446,316.965 472.717,317.098 472.988,317.233 473.259,317.367 473.529,317.501 473.800,317.636 474.071,317.771 474.342,317.907 474.613,318.043 474.883,318.179 475.154,318.315 475.425,318.451 475.696,318.588 475.967,318.725 476.238,318.862 476.508,319.000 476.779,319.138 477.050,319.276 477.321,319.414 477.592,319.553 477.863,319.692 478.133,319.831 478.404,319.970 478.675,320.110 478.946,320.250 479.217,320.390 479.487,320.531 479.758,320.672 480.029,320.813 480.300,320.954 480.571,321.095 480.842,321.237 481.112,321.379 481.383,321.522 481.654,321.664 481.925,321.807 482.196,321.950 482.467,322.094 482.737,322.237 483.008,322.381 483.279,322.525 483.550,322.670 483.821,322.814 484.091,322.959 484.362,323.105 484.633,323.250 484.904,323.396 485.175,323.542 485.446,323.688 485.716,323.834 485.987,323.981 486.258,324.128 486.529,324.275 486.800,324.423 487.070,324.571 487.341,324.719 487.612,324.867 487.883,325.015 488.154,325.164 488.425,325.313 488.695,325.462 488.966,325.612 489.237,325.762 489.508,325.912 489.779,326.062 490.050,326.212 490.320,326.363 490.591,326.514 490.862,326.665 491.133,326.817 491.404,326.969 491.674,327.120 491.945,327.273 492.216,327.425 492.487,327.578 492.758,327.731 493.029,327.884 493.299,328.038 493.570,328.191 493.841,328.345 494.112,328.499 494.383,328.654 494.654,328.808 494.924,328.963 495.195,329.118 495.466,329.274 495.737,329.429 496.008,329.585 496.278,329.741 496.549,329.898 496.820,330.054 497.091,330.211 497.362,330.368 497.633,330.525 497.903,330.683 498.174,330.841 498.445,330.999 498.716,331.157 498.987,331.315 499.258,331.474 499.528,331.633 499.799,331.792 500.070,331.952 500.341,332.111 500.612,332.271 500.882,332.431 501.153,332.591 501.424,332.752 501.695,332.913 501.966,333.074 502.237,333.235 502.507,333.396 502.778,333.558 503.049,333.720 503.320,333.882 503.591,334.045 503.862,334.207 504.132,334.370 504.403,334.533 504.674,334.696 504.945,334.860 505.216,335.024 505.486,335.188 505.757,335.352 506.028,335.516 506.299,335.681 506.570,335.846 506.841,336.011 507.111,336.176 507.382,336.341 507.653,336.507 507.924,336.673 508.195,336.839 508.466,337.006 508.736,337.172 509.007,337.339 509.278,337.506 509.549,337.673 509.820,337.841 510.090,338.009 510.361,338.176 510.632,338.345 510.903,338.513 511.174,338.681 511.445,338.850 511.715,339.019 511.986,339.188 512.257,339.358 512.528,339.527 512.799,339.697 513.069,339.867 513.340,340.038 513.611,340.208 513.882,340.379 514.153,340.550 514.424,340.721 514.694,340.892 514.965,341.063 515.236,341.235 515.507,341.407 515.778,341.579 516.049,341.752 516.319,341.924 516.590,342.097 516.861,342.270 517.132,342.443 517.403,342.616 517.673,342.790 517.944,342.964 518.215,343.138 518.486,343.312 518.757,343.486 519.028,343.661 519.298,343.835 519.569,344.010 519.840,344.186 520.111,344.361 520.382,344.536 520.653,344.712 520.923,344.888 521.194,345.064 521.465,345.241 521.736,345.417 522.007,345.594 522.277,345.771 522.548,345.948 522.819,346.125 523.090,346.303 523.361,346.481 523.632,346.659 523.902,346.837 524.173,347.015 524.444,347.194 524.715,347.372 524.986,347.551 525.257,347.730 525.527,347.909 525.798,348.089 526.069,348.268 526.340,348.448 526.611,348.628 526.881,348.808 527.152,348.989 527.423,349.169 527.694,349.350 527.965,349.531 528.236,349.712 528.506,349.894 528.777,350.075 529.048,350.257 529.319,350.439 529.590,350.621 529.861,350.803 530.131,350.985 530.402,351.168 530.673,351.351 530.944,351.534 531.215,351.717 531.485,351.900 531.756,352.084 532.027,352.267 532.298,352.451 532.569,352.635 532.840,352.819 533.110,353.004 533.381,353.188 533.652,353.373 533.923,353.558 534.194,353.743 534.464,353.928 534.735,354.114 535.006,354.299 535.277,354.485 535.548,354.671 535.819,354.857 536.089,355.043 536.360,355.230 536.631,355.416 536.902,355.603 537.173,355.790 537.444,355.977 537.714,356.164 537.985,356.352 538.256,356.540 538.527,356.727 538.798,356.915 539.068,357.104 539.339,357.292 539.610,357.480 539.881,357.669 540.152,357.858 540.423,358.047 540.693,358.236 540.964,358.425 541.235,358.614 541.506,358.804 541.777,358.994 542.048,359.184 542.318,359.374 542.589,359.564 542.860,359.755 543.131,359.945 543.402,360.136 543.672,360.327 543.943,360.518 544.214,360.709 544.485,360.900 544.756,361.092 545.027,361.283 545.297,361.475 545.568,361.667 545.839,361.859 546.110,362.052 546.381,362.244 546.652,362.437 546.922,362.629 547.193,362.822 547.464,363.015 547.735,363.208 548.006,363.402 548.276,363.595 548.547,363.789 548.818,363.983 549.089,364.177 549.360,364.371 549.631,364.565 549.901,364.759 550.172,364.954 550.443,365.148 550.714,365.343 550.985,365.538 551.256,365.733 551.526,365.929 551.797,366.124 552.068,366.319 552.339,366.515 552.610,366.711 552.880,366.907 553.151,367.103 553.422,367.299 553.693,367.496 553.964,367.692 554.235,367.889 554.505,368.085 554.776,368.282 555.047,368.479 555.318,368.677 555.589,368.874 555.860,369.071 556.130,369.269 556.401,369.467 556.672,369.665 556.943,369.863 557.214,370.061 557.484,370.259 557.755,370.457 558.026,370.656 558.297,370.855 558.568,371.053 558.839,371.252 559.109,371.451 559.380,371.651 559.651,371.850 559.922,372.049 560.193,372.249 560.463,372.449 560.734,372.648 561.005,372.848 561.276,373.048 561.547,373.249 561.818,373.449 562.088,373.649 562.359,373.850 562.630,374.051 562.901,374.251 563.172,374.452 563.443,374.653 563.713,374.855 563.984,375.056 564.255,375.257 564.526,375.459 564.797,375.661 565.067,375.862 565.338,376.064 565.609,376.266 565.880,376.468 566.151,376.671 566.422,376.873 566.692,377.076 566.963,377.278 567.234,377.481 567.505,377.684 567.776,377.887 568.047,378.090 568.317,378.293 568.588,378.496 568.859,378.700 569.130,378.903 569.401,379.107 569.671,379.310 569.942,379.514 570.213,379.718 570.484,379.922 570.755,380.126 571.026,380.331 571.296,380.535 571.567,380.739 571.838,380.944 572.109,381.149 572.380,381.354 572.651,381.558 572.921,381.764 573.192,381.969 573.463,382.174 573.734,382.379 574.005,382.585 574.275,382.790 574.546,382.996 574.817,383.201 575.088,383.407 575.359,383.613 575.630,383.819 575.900,384.025 576.171,384.232 576.442,384.438 576.713,384.644 576.984,384.851 577.255,385.058 577.525,385.264 577.796,385.471 578.067,385.678 578.338,385.885 578.609,386.092 578.879,386.299 579.150,386.507 579.421,386.714 579.692,386.921 579.963,387.129 580.234,387.337 580.504,387.544 580.775,387.752 581.046,387.960 581.317,388.168 581.588,388.376 581.858,388.584 582.129,388.793 582.400,389.001 582.671,389.209 582.942,389.418 583.213,389.627 583.483,389.835 583.754,390.044 584.025,390.253 584.296,390.462 584.567,390.671 584.838,390.880 585.108,391.089 585.379,391.299 585.650,391.508 585.921,391.717 586.192,391.927 586.462,392.137 586.733,392.346 587.004,392.556 587.275,392.766 587.546,392.976 587.817,393.186 588.087,393.396 588.358,393.606 588.629,393.816 588.900,394.027 589.171,394.237 589.442,394.448 589.712,394.658 589.983,394.869 590.254,395.079 590.525,395.290 590.796,395.501 591.066,395.712 591.337,395.923 591.608,396.134 591.879,396.345 592.150,396.556 592.421,396.767 592.691,396.979 592.962,397.190 593.233,397.402 593.504,397.613 593.775,397.825 594.046,398.036 594.316,398.248 594.587,398.460 594.858,398.672 595.129,398.884 595.400,399.096 595.670,399.308 595.941,399.520 596.212,399.732 596.483,399.944 596.754,400.157 597.025,400.369 597.295,400.581 597.566,400.794 597.837,401.006 598.108,401.219 598.379,401.432 598.650,401.644 598.920,401.857 599.191,402.070 599.462,402.283 599.733,402.496 600.004,402.709 600.274,402.922 600.545,403.135 600.816,403.348 601.087,403.561 601.358,403.775 601.629,403.988 601.899,404.201 602.170,404.415 602.441,404.628 602.712,404.842 602.983,405.056 603.253,405.269 603.524,405.483 603.795,405.697 604.066,405.910 604.337,406.124 604.608,406.338 604.878,406.552 605.149,406.766 605.420,406.980 605.691,407.194 605.962,407.408 606.233,407.622 606.503,407.837 606.774,408.051 607.045,408.265 607.316,408.480 607.587,408.694 607.857,408.908 608.128,409.123 608.399,409.337 608.670,409.552 608.941,409.766 609.212,409.981 609.482,410.196 609.753,410.410 610.024,410.625 610.295,410.840 610.566,411.055 610.837,411.270 611.107,411.485 611.378,411.700 611.649,411.915 611.920,412.130 612.191,412.345 612.461,412.560 612.732,412.775 613.003,412.990 613.274,413.205 613.545,413.420 613.816,413.636 614.086,413.851 614.357,414.066 614.628,414.281 614.899,414.497 615.170,414.712 615.441,414.928 615.711,415.143 615.982,415.359 616.253,415.574 616.524,415.790 616.795,416.005 617.065,416.221 617.336,416.436 617.607,416.652 617.878,416.868 618.149,417.083 618.420,417.299 618.690,417.515 618.961,417.731 619.232,417.946 619.503,418.162 619.774,418.378 620.045,418.594 620.315,418.810 620.586,419.026 620.857,419.242 621.128,419.458 621.399,419.674 621.669,419.890 621.940,420.106 622.211,420.322 622.482,420.538 622.753,420.754 623.024,420.970 623.294,421.186 623.565,421.402 623.836,421.618 624.107,421.834 624.378,422.050 624.649,422.266 624.919,422.483 625.190,422.699 625.461,422.915 625.732,423.131 626.003,423.347 626.273,423.564 626.544,423.780 626.815,423.996 627.086,424.212 627.357,424.429 627.628,424.645 627.898,424.861 628.169,425.078 628.440,425.294 628.711,425.510 628.982,425.726 629.252,425.943 629.523,426.159 629.794,426.375 630.065,426.592 630.336,426.808 630.607,427.025 630.877,427.241 631.148,427.457 631.419,427.674 631.690,427.890 631.961,428.106 632.232,428.323 632.502,428.539 "/>
<g>
</g>
</g>
<g id="ID000009" >
  <g transform="translate(361.056,278.938)">
    <g transform="rotate(-0.0)">
      <text x="0.000" y="0.000" font-family="Helvetica" text-anchor="middle" font-size="12pt" fill="#000000" >l = 0.06, x* = 0.50</text>
    </g>
  </g>
</g>
<g id="ID000010" >
</g>
<g id="ID000011" >
</g>
    </g>
    <g>
      <polyline fill="none" stroke="#000000" stroke-width="0.5pt" stroke-dasharray="none" points="145.021,466.514 145.021,461.098 "/>
      <polyline fill="none" stroke="#000000" stroke-width="0.5pt" stroke-dasharray="none" points="199.186,466.514 199.186,461.098 "/>
      <polyline fill="none" stroke="#000000" stroke-width="0.5pt" stroke-dasharray="none" points="253.350,466.514 253.350,461.098 "/>
      <polyline fill="none" stroke="#000000" stroke-width="0.5pt" stroke-dasharray="none" points="307.515,466.514 307.515,461.098 "/>
      <polyline fill="none" stroke="#000000" stroke-width="0.5pt" stroke-dasharray="none" points="361.680,466.514 361.680,461.098 "/>
      <polyline fill="none" stroke="#000000" stroke-width="0.5pt" stroke-dasharray="none" points="415.844,466.514 415.844,461.098 "/>
      <polyline fill="none" stroke="#000000" stroke-width="0.5pt" stroke-dasharray="none" points="470.009,466.514 470.009,461.098 "/>
      <polyline fill="none" stroke="#000000" stroke-width="0.5pt" stroke-dasharray="none" points="524.173,466.514 524.173,461.098 "/>
      <polyline fill="none" stroke="#000000" stroke-width="0.5pt" stroke-dasharray="none" points="578.338,466.514 578.338,461.098 "/>
      <polyline fill="none" stroke="#000000" stroke-width="0.5pt" stroke-dasharray="none" points="90.857,466.514 632.502,466.514 "/>
      <polyline fill="none" stroke="#000000" stroke-width="0.5pt" stroke-dasharray="none" points="145.021,287.686 145.021,293.102 "/>
      <polyline fill="none" stroke="#000000" stroke-width="0.5pt" stroke-dasharray="none" points="199.186,287.686 199.186,293.102 "/>
      <polyline fill="none" stroke="#000000" stroke-width="0.5pt" stroke-dasharray="none" points="253.350,287.686 253.350,293.102 "/>
      <polyline fill="none" stroke="#000000" stroke-width="0.5pt" stroke-dasharray="none" points="307.515,287.686 307.515,293.102 "/>
      <polyline fill="none" stroke="#000000" stroke-width="0.5pt" stroke-dasharray="none" points="361.680,287.686 361.680,293.102 "/>
      <polyline fill="none" stroke="#000000" stroke-width="0.5pt" stroke-dasharray="none" points="415.844,287.686 415.844,293.102 "/>
      <polyline fill="none" stroke="#000000" stroke-width="0.5pt" stroke-dasharray="none" points="470.009,287.686 470.009,293.102 "/>
      <polyline fill="none" stroke="#000000" stroke-width="0.5pt" stroke-dasharray="none" points="524.173,287.686 524.173,293.102 "/>
      <polyline fill="none" stroke="#000000" stroke-width="0.5pt" stroke-dasharray="none" points="578.338,287.686 578.338,293.102 "/>
      <polyline fill="none" stroke="#000000" stroke-width="0.5pt" stroke-dasharray="none" points="90.857,287.686 632.502,287.686 "/>
  <g transform="translate(90.857,484.818)">
    <g transform="rotate(-0.0)">
      <text x="0.000" y="0.000" font-family="Helvetica" text-anchor="middle" font-size="12pt" fill="#000000" >-1</text>
    </g>
  </g>
  <g transform="translate(145.021,484.818)">
    <g transform="rotate(-0.0)">
      <text x="0.000" y="0.000" font-family="Helvetica" text-anchor="middle" font-size="12pt" fill="#000000" >-0.8</text>
    </g>
  </g>
  <g transform="translate(199.186,484.818)">
    <g transform="rotate(-0.0)">
      <text x="0.000" y="0.000" font-family="Helvetica" text-anchor="middle" font-size="12pt" fill="#000000" >-0.6</text>
    </g>
  </g>
  <g transform="translate(253.350,484.818)">
    <g transform="rotate(-0.0)">
      <text x="0.000" y="0.000" font-family="Helvetica" text-anchor="middle" font-size="12pt" fill="#000000" >-0.4</text>
    </g>
  </g>
  <g transform="translate(307.515,484.818)">
    <g transform="rotate(-0.0)">
      <text x="0.000" y="0.000" font-family="Helvetica" text-anchor="middle" font-size="12pt" fill="#000000" >-0.2</text>
    </g>
  </g>
  <g transform="translate(361.680,484.818)">
    <g transform="rotate(-0.0)">
      <text x="0.000" y="0.000" font-family="Helvetica" text-anchor="middle" font-size="12pt" fill="#000000" >0</text>
    </g>
  </g>
  <g transform="translate(415.844,484.818)">
    <g transform="rotate(-0.0)">
      <text x="0.000" y="0.000" font-family="Helvetica" text-anchor="middle" font-size="12pt" fill="#000000" >0.2</text>
    </g>
  </g>
  <g transform="translate(470.009,484.818)">
    <g transform="rotate(-0.0)">
      <text x="0.000" y="0.000" font-family="Helvetica" text-anchor="middle" font-size="12pt" fill="#000000" >0.4</text>
    </g>
  </g>
  <g transform="translate(524.173,484.818)">
    <g transform="rotate(-0.0)">
      <text x="0.000" y="0.000" font-family="Helvetica" text-anchor="middle" font-size="12pt" fill="#000000" >0.6</text>
    </g>
  </g>
  <g transform="translate(578.338,484.818)">
    <g transform="rotate(-0.0)">
      <text x="0.000" y="0.000" font-family="Helvetica" text-anchor="middle" font-size="12pt" fill="#000000" >0.8</text>
    </g>
  </g>
  <g transform="translate(632.502,484.818)">
    <g transform="rotate(-0.0)">
      <text x="0.000" y="0.000" font-family="Helvetica" text-anchor="middle" font-size="12pt" fill="#000000" >1</text>
    </g>
  </g>
      <polyline fill="none" stroke="#000000" stroke-width="0.5pt" stroke-dasharray="none" points="90.857,421.807 96.273,421.807 "/>
      <polyline fill="none" stroke="#000000" stroke-width="0.5pt" stroke-dasharray="none" points="90.857,377.100 96.273,377.100 "/>
      <polyline fill="none" stroke="#000000" stroke-width="0.5pt" stroke-dasharray="none" points="90.857,332.393 96.273,332.393 "/>
      <polyline fill="none" stroke="#000000" stroke-width="0.5pt" stroke-dasharray="none" points="90.857,466.514 90.857,287.686 "/>
      <polyline fill="none" stroke="#000000" stroke-width="0.5pt" stroke-dasharray="none" points="632.502,421.807 627.086,421.807 "/>
      <polyline fill="none" stroke="#000000" stroke-width="0.5pt" stroke-dasharray="none" points="632.502,377.100 627.086,377.100 "/>
      <polyline fill="none" stroke="#000000" stroke-width="0.5pt" stroke-dasharray="none" points="632.502,332.393 627.086,332.393 "/>
      <polyline fill="none" stroke="#000000" stroke-width="0.5pt" stroke-dasharray="none" points="632.502,466.514 632.502,287.686 "/>
  <g transform="translate(80.024,472.130)">
    <g transform="rotate(-0.0)">
      <text x="0.000" y="0.000" font-family="Helvetica" text-anchor="end" font-size="12pt" fill="#000000" >0.2</text>
    </g>
  </g>
  <g transform="translate(80.024,427.423)">
    <g transform="rotate(-0.0)">
      <text x="0.000" y="0.000" font-family="Helvetica" text-anchor="end" font-size="12pt" fill="#000000" >0.25</text>
    </g>
  </g>
  <g transform="translate(80.024,382.716)">
    <g transform="rotate(-0.0)">
      <text x="0.000" y="0.000" font-family="Helvetica" text-anchor="end" font-size="12pt" fill="#000000" >0.3</text>
    </g>
  </g>
  <g transform="translate(80.024,338.009)">
    <g transform="rotate(-0.0)">
      <text x="0.000" y="0.000" font-family="Helvetica" text-anchor="end" font-size="12pt" fill="#000000" >0.35</text>
    </g>
  </g>
  <g transform="translate(80.024,293.302)">
    <g transform="rotate(-0.0)">
      <text x="0.000" y="0.000" font-family="Helvetica" text-anchor="end" font-size="12pt" fill="#000000" >0.4</text>
    </g>
  </g>
      <polyline fill="none" stroke="#000000" stroke-width="0.5pt" stroke-dasharray="none" points="90.857,466.514 90.857,464.726 "/>
      <polyline fill="none" stroke="#000000" stroke-width="0.5pt" stroke-dasharray="none" points="90.857,466.514 90.857,466.514 "/>
    </g>
  </g>
  </g>
</svg>
