<?xml version="1.0" encoding="utf-8" standalone="no"?><!DOCTYPE svg PUBLIC "-//W3C//DTD SVG 1.1//EN" "http://www.w3.org/Graphics/SVG/1.1/DTD/svg11.dtd">
<svg preserveAspectRatio="xMinYMin meet" width="100%" height="100%" viewBox="0 0 698.898 524.173"  version="1.1" xmlns="http://www.w3.org/2000/svg" xmlns:xlink="http://www.w3.org/1999/xlink">
  <desc>Matlab Figure Converted by PLOT2SVG written by Juerg Schwizer</desc>
  <g id="topgroup">
  <rect x="0" y="0" width="698.898" height="524.173" fill="#ffffff" stroke="none" />
  <g id ="ID000000">
  <clipPath id="ID000001">
    <rect x="90.857" y="39.313" width="541.646" height="178.828"/>
  </clipPath>
      <polygon fill="#ffffff" fill-opacity="1.00" stroke="none" stroke-width="0.5pt" stroke-opacity="1.00" stroke-dasharray="none" points="90.857,218.141 632.502,218.141 632.502,39.313 90.857,39.313 "/>
      <polygon fill="#ffffff" fill-opacity="1.00" stroke="none" stroke-width="0.5pt" stroke-opacity="1.00" stroke-dasharray="none" points="90.857,39.313 632.502,39.313 632.502,39.313 90.857,39.313 "/>
      <polygon fill="#ffffff" fill-opacity="1.00" stroke="none" stroke-width="0.5pt" stroke-opacity="1.00" stroke-dasharray="none" points="90.857,218.141 90.857,218.141 90.857,39.313 90.857,39.313 "/>
    <g>
<g id="ID000002" clip-path="url(#ID000001)" >
      <polyline fill="none" stroke="#0000ff" stroke-width="0.5pt" stroke-dasharray="none" points="90.857,218.141 91.128,218.141 91.398,218.141 91.669,218.141 91.940,218.141 92.211,218.141 92.482,218.141 92.752,218.141 93.023,218.141 93.294,218.141 93.565,218.141 93.836,218.141 94.107,218.141 94.377,218.141 94.648,218.141 94.919,218.141 95.190,218.141 95.461,218.141 95.732,218.141 96.002,218.141 96.273,218.141 96.544,218.141 96.815,218.141 97.086,218.141 97.356,218.141 97.627,218.141 97.898,218.141 98.169,218.141 98.440,218.141 98.711,218.141 98.981,218.141 99.252,218.141 99.523,218.141 99.794,218.141 100.065,218.141 100.335,218.141 100.606,218.141 100.877,218.141 101.148,218.141 101.419,218.141 101.690,218.141 101.960,218.141 102.231,218.141 102.502,218.141 102.773,218.141 103.044,218.141 103.315,218.141 103.585,218.141 103.856,218.141 104.127,218.141 104.398,218.141 104.669,218.141 104.939,218.141 105.210,218.141 105.481,218.141 105.752,218.141 106.023,218.141 106.294,218.141 106.564,218.141 106.835,218.141 107.106,218.141 107.377,218.141 107.648,218.141 107.919,218.141 108.189,218.141 108.460,218.141 108.731,218.141 109.002,218.141 109.273,218.141 109.543,218.141 109.814,218.141 110.085,218.141 110.356,218.141 110.627,218.141 110.898,218.141 111.168,218.141 111.439,218.141 111.710,218.141 111.981,218.141 112.252,218.141 112.523,218.141 112.793,218.141 113.064,218.141 113.335,218.141 113.606,218.141 113.877,218.141 114.147,218.141 114.418,218.141 114.689,218.141 114.960,218.141 115.231,218.141 115.502,218.141 115.772,218.141 116.043,218.141 116.314,218.141 116.585,218.141 116.856,218.141 117.127,218.141 117.397,218.141 117.668,218.141 117.939,218.141 118.210,218.141 118.481,218.141 118.751,218.141 119.022,218.141 119.293,218.141 119.564,218.141 119.835,218.141 120.106,218.141 120.376,218.141 120.647,218.141 120.918,218.141 121.189,218.141 121.460,218.141 121.730,218.141 122.001,218.141 122.272,218.141 122.543,218.141 122.814,218.141 123.085,218.141 123.355,218.141 123.626,218.141 123.897,218.141 124.168,218.141 124.439,218.141 124.710,218.141 124.980,218.141 125.251,218.141 125.522,218.141 125.793,218.141 126.064,218.141 126.334,218.141 126.605,218.141 126.876,218.141 127.147,218.141 127.418,218.141 127.689,218.141 127.959,218.141 128.230,218.141 128.501,218.141 128.772,218.141 129.043,218.141 129.314,218.141 129.584,218.141 129.855,218.141 130.126,218.141 130.397,218.141 130.668,218.141 130.938,218.141 131.209,218.141 131.480,218.141 131.751,218.141 132.022,218.141 132.293,218.141 132.563,218.141 132.834,218.141 133.105,218.141 133.376,218.141 133.647,218.141 133.918,218.141 134.188,218.141 134.459,218.141 134.730,218.141 135.001,218.141 135.272,218.141 135.542,218.141 135.813,218.141 136.084,218.141 136.355,218.141 136.626,218.141 136.897,218.141 137.167,218.141 137.438,218.141 137.709,218.141 137.980,218.141 138.251,218.141 138.522,218.141 138.792,218.141 139.063,218.141 139.334,218.141 139.605,218.141 139.876,218.141 140.146,218.141 140.417,218.141 140.688,218.141 140.959,218.141 141.230,218.141 141.501,218.141 141.771,218.141 142.042,218.141 142.313,218.141 142.584,218.141 142.855,218.141 143.126,218.141 143.396,218.141 143.667,218.141 143.938,218.141 144.209,218.141 144.480,218.141 144.750,218.141 145.021,218.141 145.292,218.141 145.563,218.141 145.834,218.141 146.105,218.141 146.375,218.141 146.646,218.141 146.917,218.141 147.188,218.141 147.459,218.141 147.729,218.141 148.000,218.141 148.271,218.141 148.542,218.141 148.813,218.141 149.084,218.141 149.354,218.141 149.625,218.141 149.896,218.141 150.167,218.141 150.438,218.141 150.709,218.141 150.979,218.141 151.250,218.141 151.521,218.141 151.792,218.141 152.063,218.141 152.333,218.141 152.604,218.141 152.875,218.141 153.146,218.141 153.417,218.141 153.688,218.141 153.958,218.141 154.229,218.141 154.500,218.141 154.771,218.141 155.042,218.141 155.313,218.141 155.583,218.141 155.854,218.141 156.125,218.141 156.396,218.141 156.667,218.141 156.937,218.141 157.208,218.141 157.479,218.141 157.750,218.141 158.021,218.141 158.292,218.141 158.562,218.141 158.833,218.141 159.104,218.141 159.375,218.141 159.646,218.141 159.917,218.141 160.187,218.141 160.458,218.141 160.729,218.141 161.000,218.141 161.271,218.141 161.541,218.141 161.812,218.141 162.083,218.141 162.354,218.141 162.625,218.141 162.896,218.141 163.166,218.141 163.437,218.141 163.708,218.141 163.979,218.141 164.250,218.141 164.521,218.141 164.791,218.141 165.062,218.141 165.333,218.141 165.604,218.141 165.875,218.141 166.145,218.141 166.416,218.141 166.687,218.141 166.958,218.141 167.229,218.141 167.500,218.141 167.770,218.141 168.041,218.141 168.312,218.141 168.583,218.141 168.854,218.141 169.124,218.141 169.395,218.141 169.666,218.141 169.937,218.141 170.208,218.141 170.479,218.141 170.749,218.141 171.020,218.141 171.291,218.141 171.562,218.141 171.833,218.141 172.104,218.141 172.374,218.141 172.645,218.141 172.916,218.141 173.187,218.141 173.458,218.141 173.728,218.141 173.999,218.141 174.270,218.141 174.541,218.141 174.812,218.141 175.083,218.141 175.353,218.141 175.624,218.141 175.895,218.141 176.166,218.141 176.437,218.141 176.708,218.141 176.978,218.141 177.249,218.141 177.520,218.141 177.791,218.141 178.062,218.141 178.332,218.141 178.603,218.141 178.874,218.141 179.145,218.141 179.416,218.141 179.687,218.141 179.957,218.141 180.228,218.141 180.499,218.141 180.770,218.141 181.041,218.141 181.312,218.141 181.582,218.141 181.853,218.141 182.124,218.141 182.395,218.141 182.666,218.141 182.936,218.141 183.207,218.141 183.478,218.141 183.749,218.141 184.020,218.141 184.291,218.141 184.561,218.141 184.832,218.141 185.103,218.141 185.374,218.141 185.645,218.141 185.916,218.141 186.186,218.141 186.457,218.141 186.728,218.141 186.999,218.141 187.270,218.141 187.540,218.141 187.811,218.141 188.082,218.141 188.353,218.141 188.624,218.141 188.895,218.141 189.165,218.141 189.436,218.141 189.707,218.141 189.978,218.141 190.249,218.141 190.519,218.141 190.790,218.141 191.061,218.141 191.332,218.141 191.603,218.141 191.874,218.141 192.144,218.141 192.415,218.141 192.686,218.141 192.957,218.141 193.228,218.141 193.499,218.141 193.769,218.141 194.040,218.141 194.311,218.141 194.582,218.141 194.853,218.141 195.123,218.141 195.394,218.141 195.665,218.141 195.936,218.141 196.207,218.141 196.478,218.141 196.748,218.141 197.019,218.141 197.290,218.141 197.561,218.141 197.832,218.141 198.103,218.141 198.373,218.141 198.644,218.141 198.915,218.141 199.186,218.141 199.457,218.141 199.727,218.141 199.998,218.141 200.269,218.141 200.540,218.141 200.811,218.141 201.082,218.141 201.352,218.141 201.623,218.141 201.894,218.141 202.165,218.141 202.436,218.141 202.707,218.141 202.977,218.141 203.248,218.141 203.519,218.141 203.790,218.141 204.061,218.141 204.331,218.141 204.602,218.141 204.873,218.141 205.144,218.141 205.415,218.141 205.686,218.141 205.956,218.141 206.227,218.141 206.498,218.141 206.769,218.141 207.040,218.141 207.311,218.141 207.581,218.141 207.852,218.141 208.123,218.141 208.394,218.141 208.665,218.141 208.935,218.141 209.206,218.141 209.477,218.141 209.748,218.141 210.019,218.141 210.290,218.141 210.560,218.141 210.831,218.141 211.102,218.141 211.373,218.141 211.644,218.141 211.915,218.141 212.185,218.141 212.456,218.141 212.727,218.141 212.998,218.141 213.269,218.141 213.539,218.141 213.810,218.141 214.081,218.141 214.352,218.141 214.623,218.141 214.894,218.141 215.164,218.141 215.435,218.141 215.706,218.141 215.977,218.141 216.248,218.141 216.518,218.141 216.789,218.141 217.060,218.141 217.331,218.141 217.602,218.141 217.873,218.141 218.143,218.141 218.414,218.141 218.685,218.141 218.956,218.141 219.227,218.141 219.498,218.141 219.768,218.141 220.039,218.141 220.310,218.141 220.581,218.141 220.852,218.141 221.122,218.141 221.393,218.141 221.664,218.141 221.935,218.141 222.206,218.141 222.477,218.141 222.747,218.141 223.018,218.141 223.289,218.141 223.560,218.141 223.831,218.141 224.102,218.141 224.372,218.141 224.643,218.141 224.914,218.141 225.185,218.141 225.456,218.141 225.726,218.141 225.997,218.141 226.268,218.141 226.539,218.141 226.810,218.141 227.081,218.141 227.351,218.141 227.622,218.141 227.893,218.141 228.164,218.141 228.435,218.141 228.706,218.141 228.976,218.141 229.247,218.141 229.518,218.141 229.789,218.141 230.060,218.141 230.330,218.141 230.601,218.141 230.872,218.141 231.143,218.141 231.414,218.141 231.685,218.141 231.955,218.141 232.226,218.141 232.497,218.141 232.768,218.141 233.039,218.141 233.310,218.141 233.580,218.141 233.851,218.141 234.122,218.141 234.393,218.141 234.664,218.141 234.934,218.141 235.205,218.141 235.476,218.141 235.747,218.141 236.018,218.141 236.289,218.141 236.559,218.141 236.830,218.141 237.101,218.141 237.372,218.141 237.643,218.141 237.913,218.141 238.184,218.141 238.455,218.141 238.726,218.141 238.997,218.141 239.268,218.141 239.538,218.141 239.809,218.141 240.080,218.141 240.351,218.141 240.622,218.141 240.893,218.141 241.163,218.141 241.434,218.141 241.705,218.141 241.976,218.141 242.247,218.141 242.517,218.141 242.788,218.141 243.059,218.141 243.330,218.141 243.601,218.141 243.872,218.141 244.142,218.141 244.413,218.141 244.684,218.141 244.955,218.141 245.226,218.141 245.497,218.141 245.767,218.141 246.038,218.141 246.309,218.141 246.580,218.141 246.851,218.141 247.121,218.141 247.392,218.141 247.663,218.141 247.934,218.141 248.205,218.141 248.476,218.141 248.746,218.141 249.017,218.141 249.288,218.141 249.559,218.141 249.830,218.141 250.101,218.141 250.371,218.141 250.642,218.141 250.913,218.141 251.184,218.141 251.455,218.141 251.725,218.141 251.996,218.141 252.267,218.141 252.538,218.141 252.809,218.141 253.080,218.141 253.350,218.141 253.621,218.141 253.892,218.141 254.163,218.141 254.434,218.141 254.705,218.141 254.975,218.141 255.246,218.141 255.517,218.141 255.788,218.141 256.059,218.141 256.329,218.141 256.600,218.141 256.871,218.141 257.142,218.141 257.413,218.141 257.684,218.141 257.954,218.141 258.225,218.141 258.496,218.141 258.767,218.141 259.038,218.141 259.308,218.141 259.579,218.141 259.850,218.141 260.121,218.141 260.392,218.141 260.663,218.141 260.933,218.141 261.204,218.141 261.475,218.141 261.746,218.141 262.017,218.141 262.288,218.141 262.558,218.141 262.829,218.141 263.100,218.141 263.371,218.141 263.642,218.141 263.912,218.141 264.183,218.141 264.454,218.141 264.725,218.141 264.996,218.141 265.267,218.141 265.537,218.141 265.808,218.141 266.079,218.141 266.350,218.141 266.621,218.141 266.892,218.141 267.162,218.141 267.433,218.141 267.704,218.141 267.975,218.141 268.246,218.141 268.516,218.141 268.787,218.141 269.058,218.141 269.329,218.141 269.600,218.141 269.871,218.141 270.141,218.141 270.412,218.141 270.683,218.141 270.954,218.141 271.225,218.141 271.496,218.141 271.766,218.141 272.037,218.141 272.308,218.141 272.579,218.141 272.850,218.141 273.120,218.141 273.391,218.141 273.662,218.141 273.933,218.141 274.204,218.141 274.475,218.141 274.745,218.141 275.016,218.141 275.287,218.141 275.558,218.141 275.829,218.141 276.100,218.141 276.370,218.141 276.641,218.141 276.912,218.141 277.183,218.141 277.454,218.141 277.724,218.141 277.995,218.141 278.266,218.141 278.537,218.141 278.808,218.141 279.079,218.141 279.349,218.141 279.620,218.141 279.891,218.141 280.162,218.141 280.433,218.141 280.704,218.141 280.974,218.141 281.245,218.141 281.516,218.141 281.787,218.141 282.058,218.141 282.328,218.141 282.599,218.141 282.870,218.141 283.141,218.141 283.412,218.141 283.683,218.141 283.953,218.141 284.224,218.141 284.495,218.141 284.766,218.141 285.037,218.141 285.307,218.141 285.578,218.141 285.849,218.141 286.120,218.141 286.391,218.141 286.662,218.141 286.932,218.141 287.203,218.141 287.474,218.141 287.745,218.141 288.016,218.141 288.287,218.141 288.557,218.141 288.828,218.141 289.099,218.141 289.370,218.141 289.641,218.141 289.911,218.141 290.182,218.141 290.453,218.141 290.724,218.141 290.995,218.141 291.266,218.141 291.536,218.141 291.807,218.141 292.078,218.141 292.349,218.141 292.620,218.141 292.891,218.141 293.161,218.141 293.432,218.141 293.703,218.141 293.974,218.141 294.245,218.141 294.515,218.141 294.786,218.141 295.057,218.141 295.328,218.141 295.599,218.141 295.870,218.141 296.140,218.141 296.411,218.141 296.682,218.141 296.953,218.141 297.224,218.141 297.495,218.141 297.765,218.141 298.036,218.141 298.307,218.141 298.578,218.141 298.849,218.141 299.119,218.141 299.390,218.141 299.661,218.141 299.932,218.141 300.203,218.141 300.474,218.141 300.744,218.141 301.015,218.141 301.286,218.141 301.557,218.141 301.828,218.141 302.099,218.141 302.369,218.141 302.640,218.141 302.911,218.141 303.182,218.141 303.453,218.141 303.723,218.141 303.994,218.141 304.265,218.141 304.536,218.141 304.807,218.141 305.078,218.141 305.348,218.141 305.619,218.141 305.890,218.141 306.161,218.141 306.432,218.141 306.702,218.141 306.973,218.141 307.244,218.141 307.515,218.141 307.786,218.141 308.057,218.141 308.327,218.141 308.598,218.141 308.869,218.141 309.140,218.141 309.411,218.141 309.682,218.141 309.952,218.141 310.223,218.141 310.494,218.141 310.765,218.141 311.036,218.141 311.306,218.141 311.577,218.141 311.848,218.141 312.119,218.141 312.390,218.141 312.661,218.141 312.931,218.141 313.202,218.141 313.473,218.141 313.744,218.141 314.015,218.141 314.286,218.141 314.556,218.141 314.827,218.141 315.098,218.141 315.369,218.141 315.640,218.141 315.910,218.141 316.181,218.141 316.452,218.141 316.723,218.141 316.994,218.141 317.265,218.141 317.535,218.141 317.806,218.141 318.077,218.141 318.348,218.141 318.619,218.141 318.890,218.141 319.160,218.141 319.431,218.141 319.702,218.141 319.973,218.141 320.244,218.141 320.514,218.141 320.785,218.141 321.056,218.141 321.327,218.141 321.598,218.141 321.869,218.141 322.139,218.141 322.410,218.141 322.681,218.141 322.952,218.141 323.223,218.141 323.494,218.141 323.764,218.141 324.035,218.141 324.306,218.141 324.577,218.141 324.848,218.141 325.118,218.141 325.389,218.141 325.660,218.141 325.931,218.141 326.202,218.141 326.473,218.141 326.743,218.141 327.014,218.141 327.285,218.141 327.556,218.141 327.827,218.141 328.097,218.141 328.368,218.141 328.639,218.141 328.910,218.141 329.181,218.141 329.452,218.141 329.722,218.141 329.993,218.141 330.264,218.141 330.535,218.141 330.806,218.141 331.077,218.141 331.347,218.141 331.618,218.141 331.889,218.141 332.160,218.141 332.431,218.141 332.701,218.141 332.972,218.141 333.243,218.141 333.514,218.141 333.785,218.141 334.056,218.141 334.326,218.141 334.597,218.141 334.868,218.141 335.139,218.141 335.410,218.141 335.681,218.141 335.951,218.141 336.222,218.141 336.493,218.141 336.764,218.141 337.035,218.141 337.305,218.141 337.576,218.141 337.847,218.141 338.118,218.141 338.389,218.141 338.660,218.141 338.930,218.141 339.201,218.141 339.472,218.141 339.743,218.141 340.014,218.141 340.285,218.141 340.555,218.141 340.826,218.141 341.097,218.141 341.368,218.141 341.639,218.141 341.909,218.141 342.180,218.141 342.451,218.141 342.722,218.141 342.993,218.141 343.264,218.141 343.534,218.141 343.805,218.141 344.076,218.141 344.347,218.141 344.618,218.141 344.889,218.141 345.159,218.141 345.430,218.141 345.701,218.141 345.972,218.141 346.243,218.141 346.513,218.141 346.784,218.141 347.055,218.141 347.326,218.141 347.597,218.141 347.868,218.141 348.138,218.141 348.409,218.141 348.680,218.141 348.951,218.141 349.222,218.141 349.493,218.141 349.763,218.141 350.034,218.141 350.305,218.141 350.576,218.141 350.847,218.141 351.117,218.141 351.388,218.141 351.659,218.141 351.930,218.141 352.201,218.141 352.472,218.141 352.742,218.141 353.013,218.141 353.284,218.141 353.555,218.141 353.826,218.141 354.096,218.141 354.367,218.141 354.638,218.141 354.909,218.141 355.180,218.141 355.451,218.141 355.721,218.141 355.992,218.141 356.263,218.141 356.534,218.141 356.805,218.141 357.076,218.141 357.346,218.141 357.617,218.141 357.888,218.141 358.159,218.141 358.430,218.141 358.700,218.141 358.971,218.141 359.242,218.141 359.513,218.141 359.784,218.141 360.055,218.141 360.325,218.141 360.596,218.141 360.867,218.141 361.138,218.141 361.409,218.141 361.680,218.141 361.950,218.141 362.221,218.141 362.492,218.141 362.763,218.141 363.034,218.141 363.304,218.141 363.575,218.141 363.846,218.141 364.117,218.141 364.388,218.141 364.659,218.141 364.929,218.141 365.200,218.141 365.471,218.141 365.742,218.141 366.013,218.141 366.284,218.141 366.554,218.141 366.825,218.141 367.096,218.141 367.367,218.141 367.638,218.141 367.908,218.141 368.179,218.141 368.450,218.141 368.721,218.141 368.992,218.141 369.263,218.141 369.533,218.141 369.804,218.141 370.075,218.141 370.346,218.141 370.617,218.141 370.888,218.141 371.158,218.141 371.429,218.141 371.700,218.141 371.971,218.141 372.242,218.141 372.512,218.141 372.783,218.141 373.054,218.141 373.325,218.141 373.596,218.141 373.867,218.141 374.137,218.141 374.408,218.141 374.679,218.141 374.950,218.141 375.221,218.141 375.491,218.141 375.762,218.141 376.033,218.141 376.304,218.141 376.575,218.141 376.846,218.141 377.116,218.141 377.387,218.141 377.658,218.141 377.929,218.141 378.200,218.141 378.471,218.141 378.741,218.141 379.012,218.141 379.283,218.141 379.554,218.141 379.825,218.141 380.095,218.141 380.366,218.141 380.637,218.141 380.908,218.141 381.179,218.141 381.450,218.141 381.720,218.141 381.991,218.141 382.262,218.141 382.533,218.141 382.804,218.141 383.075,218.141 383.345,218.141 383.616,218.141 383.887,218.141 384.158,218.141 384.429,218.141 384.699,218.141 384.970,218.141 385.241,218.141 385.512,218.141 385.783,218.141 386.054,218.141 386.324,218.141 386.595,218.141 386.866,218.141 387.137,218.141 387.408,218.141 387.679,218.141 387.949,218.141 388.220,218.141 388.491,218.141 388.762,218.141 389.033,218.141 389.303,218.141 389.574,218.141 389.845,218.141 390.116,218.141 390.387,218.141 390.658,218.141 390.928,218.141 391.199,218.141 391.470,218.141 391.741,218.141 392.012,218.141 392.283,218.141 392.553,218.141 392.824,218.141 393.095,218.141 393.366,218.141 393.637,218.141 393.907,218.141 394.178,218.141 394.449,218.141 394.720,218.141 394.991,218.141 395.262,218.141 395.532,218.141 395.803,218.141 396.074,218.141 396.345,218.141 396.616,218.141 396.886,218.141 397.157,218.141 397.428,218.141 397.699,218.141 397.970,218.141 398.241,218.141 398.511,218.141 398.782,218.141 399.053,218.141 399.324,218.141 399.595,218.141 399.866,218.141 400.136,218.141 400.407,218.141 400.678,218.141 400.949,218.141 401.220,218.141 401.490,218.141 401.761,218.141 402.032,218.141 402.303,218.141 402.574,218.141 402.845,218.141 403.115,218.141 403.386,218.141 403.657,218.141 403.928,218.141 404.199,218.141 404.470,218.141 404.740,218.141 405.011,218.141 405.282,218.141 405.553,218.141 405.824,218.141 406.094,218.141 406.365,218.141 406.636,218.141 406.907,218.141 407.178,218.141 407.449,218.141 407.719,218.141 407.990,218.141 408.261,218.141 408.532,218.141 408.803,218.141 409.074,218.141 409.344,218.141 409.615,218.141 409.886,218.141 410.157,218.141 410.428,218.141 410.698,218.141 410.969,218.141 411.240,218.141 411.511,218.141 411.782,218.141 412.053,218.141 412.323,218.141 412.594,218.141 412.865,218.141 413.136,218.141 413.407,218.141 413.678,218.141 413.948,218.141 414.219,218.141 414.490,218.141 414.761,218.141 415.032,218.141 415.302,218.141 415.573,218.141 415.844,218.141 416.115,218.141 416.386,218.141 416.657,218.141 416.927,218.141 417.198,218.141 417.469,218.141 417.740,218.141 418.011,218.141 418.282,218.141 418.552,218.141 418.823,218.141 419.094,218.141 419.365,218.141 419.636,218.141 419.906,218.141 420.177,218.141 420.448,218.141 420.719,218.141 420.990,218.141 421.261,218.141 421.531,218.141 421.802,218.141 422.073,218.141 422.344,218.141 422.615,218.141 422.885,218.141 423.156,218.141 423.427,218.141 423.698,218.141 423.969,218.141 424.240,218.141 424.510,218.141 424.781,218.141 425.052,218.141 425.323,218.141 425.594,218.141 425.865,218.141 426.135,218.141 426.406,218.141 426.677,218.141 426.948,218.141 427.219,218.141 427.489,218.141 427.760,218.141 428.031,218.141 428.302,218.141 428.573,218.141 428.844,218.141 429.114,218.141 429.385,218.141 429.656,218.141 429.927,218.141 430.198,218.141 430.469,218.141 430.739,218.141 431.010,218.141 431.281,218.141 431.552,218.141 431.823,218.141 432.093,218.141 432.364,218.141 432.635,218.141 432.906,218.141 433.177,218.141 433.448,218.141 433.718,218.141 433.989,218.141 434.260,218.141 434.531,218.141 434.802,218.141 435.073,218.141 435.343,218.141 435.614,218.141 435.885,218.141 436.156,218.141 436.427,218.141 436.697,218.141 436.968,218.141 437.239,218.141 437.510,218.141 437.781,218.141 438.052,218.141 438.322,218.141 438.593,218.141 438.864,218.141 439.135,218.141 439.406,218.141 439.677,218.141 439.947,218.141 440.218,218.141 440.489,218.141 440.760,218.141 441.031,218.141 441.301,218.141 441.572,218.141 441.843,218.141 442.114,218.141 442.385,218.141 442.656,218.141 442.926,218.141 443.197,218.141 443.468,218.140 443.739,218.139 444.010,218.137 444.280,218.132 444.551,218.124 444.822,218.108 445.093,218.078 445.364,218.026 445.635,217.935 445.905,217.783 446.176,217.533 446.447,217.133 446.718,216.511 446.989,215.571 447.260,214.185 447.530,212.202 447.801,209.440 448.072,205.704 448.343,200.795 448.614,194.537 448.884,186.801 449.155,177.540 449.426,166.820 449.697,154.845 449.968,141.971 450.239,128.706 450.509,115.682 450.780,103.611 451.051,93.228 451.322,85.212 451.593,80.118 451.864,78.309 452.134,79.917 452.405,84.825 452.676,92.682 452.947,102.943 453.218,114.934 453.488,127.923 453.759,141.192 454.030,154.104 454.301,166.144 454.572,176.945 454.843,186.296 455.113,194.122 455.384,200.464 455.655,205.448 455.926,209.248 456.197,212.062 456.468,214.086 456.738,215.502 457.009,216.466 457.280,217.103 457.551,217.514 457.822,217.771 458.092,217.928 458.363,218.022 458.634,218.076 458.905,218.106 459.176,218.123 459.447,218.132 459.717,218.137 459.988,218.139 460.259,218.140 460.530,218.141 460.801,218.141 461.072,218.141 461.342,218.141 461.613,218.141 461.884,218.141 462.155,218.141 462.426,218.141 462.696,218.141 462.967,218.141 463.238,218.141 463.509,218.141 463.780,218.141 464.051,218.141 464.321,218.141 464.592,218.141 464.863,218.141 465.134,218.141 465.405,218.141 465.675,218.141 465.946,218.141 466.217,218.141 466.488,218.141 466.759,218.141 467.030,218.141 467.300,218.141 467.571,218.141 467.842,218.141 468.113,218.141 468.384,218.141 468.655,218.141 468.925,218.141 469.196,218.141 469.467,218.141 469.738,218.141 470.009,218.141 470.279,218.141 470.550,218.141 470.821,218.141 471.092,218.141 471.363,218.141 471.634,218.141 471.904,218.141 472.175,218.141 472.446,218.141 472.717,218.141 472.988,218.141 473.259,218.141 473.529,218.141 473.800,218.141 474.071,218.141 474.342,218.141 474.613,218.141 474.883,218.141 475.154,218.141 475.425,218.141 475.696,218.141 475.967,218.141 476.238,218.141 476.508,218.141 476.779,218.141 477.050,218.141 477.321,218.141 477.592,218.141 477.863,218.141 478.133,218.141 478.404,218.141 478.675,218.141 478.946,218.141 479.217,218.141 479.487,218.141 479.758,218.141 480.029,218.141 480.300,218.141 480.571,218.141 480.842,218.141 481.112,218.141 481.383,218.141 481.654,218.141 481.925,218.141 482.196,218.141 482.467,218.141 482.737,218.141 483.008,218.141 483.279,218.141 483.550,218.141 483.821,218.141 484.091,218.141 484.362,218.141 484.633,218.141 484.904,218.141 485.175,218.141 485.446,218.141 485.716,218.141 485.987,218.141 486.258,218.141 486.529,218.141 486.800,218.141 487.071,218.141 487.341,218.141 487.612,218.141 487.883,218.141 488.154,218.141 488.425,218.141 488.695,218.141 488.966,218.141 489.237,218.141 489.508,218.141 489.779,218.141 490.050,218.141 490.320,218.141 490.591,218.141 490.862,218.141 491.133,218.141 491.404,218.141 491.674,218.141 491.945,218.141 492.216,218.141 492.487,218.141 492.758,218.141 493.029,218.141 493.299,218.141 493.570,218.141 493.841,218.141 494.112,218.141 494.383,218.141 494.654,218.141 494.924,218.141 495.195,218.141 495.466,218.141 495.737,218.141 496.008,218.141 496.278,218.141 496.549,218.141 496.820,218.141 497.091,218.141 497.362,218.141 497.633,218.141 497.903,218.141 498.174,218.141 498.445,218.141 498.716,218.141 498.987,218.141 499.258,218.141 499.528,218.141 499.799,218.141 500.070,218.141 500.341,218.141 500.612,218.141 500.882,218.141 501.153,218.141 501.424,218.141 501.695,218.141 501.966,218.141 502.237,218.141 502.507,218.141 502.778,218.141 503.049,218.141 503.320,218.141 503.591,218.141 503.862,218.141 504.132,218.141 504.403,218.141 504.674,218.141 504.945,218.141 505.216,218.141 505.486,218.141 505.757,218.141 506.028,218.141 506.299,218.141 506.570,218.141 506.841,218.141 507.111,218.141 507.382,218.141 507.653,218.141 507.924,218.141 508.195,218.141 508.466,218.141 508.736,218.141 509.007,218.141 509.278,218.141 509.549,218.141 509.820,218.141 510.090,218.141 510.361,218.141 510.632,218.141 510.903,218.141 511.174,218.141 511.445,218.141 511.715,218.141 511.986,218.141 512.257,218.141 512.528,218.141 512.799,218.141 513.069,218.141 513.340,218.141 513.611,218.141 513.882,218.141 514.153,218.141 514.424,218.141 514.694,218.141 514.965,218.141 515.236,218.141 515.507,218.141 515.778,218.141 516.049,218.141 516.319,218.141 516.590,218.141 516.861,218.141 517.132,218.141 517.403,218.141 517.673,218.141 517.944,218.141 518.215,218.141 518.486,218.141 518.757,218.141 519.028,218.141 519.298,218.141 519.569,218.141 519.840,218.141 520.111,218.141 520.382,218.141 520.653,218.141 520.923,218.141 521.194,218.141 521.465,218.141 521.736,218.141 522.007,218.141 522.277,218.141 522.548,218.141 522.819,218.141 523.090,218.141 523.361,218.141 523.632,218.141 523.902,218.141 524.173,218.141 524.444,218.141 524.715,218.141 524.986,218.141 525.257,218.141 525.527,218.141 525.798,218.141 526.069,218.141 526.340,218.141 526.611,218.141 526.881,218.141 527.152,218.141 527.423,218.141 527.694,218.141 527.965,218.141 528.236,218.141 528.506,218.141 528.777,218.141 529.048,218.141 529.319,218.141 529.590,218.141 529.861,218.141 530.131,218.141 530.402,218.141 530.673,218.141 530.944,218.141 531.215,218.141 531.485,218.141 531.756,218.141 532.027,218.141 532.298,218.141 532.569,218.141 532.840,218.141 533.110,218.141 533.381,218.141 533.652,218.141 533.923,218.141 534.194,218.141 534.464,218.141 534.735,218.141 535.006,218.141 535.277,218.141 535.548,218.141 535.819,218.141 536.089,218.141 536.360,218.141 536.631,218.141 536.902,218.141 537.173,218.141 537.444,218.141 537.714,218.141 537.985,218.141 538.256,218.141 538.527,218.141 538.798,218.141 539.068,218.141 539.339,218.141 539.610,218.141 539.881,218.141 540.152,218.141 540.423,218.141 540.693,218.141 540.964,218.141 541.235,218.141 541.506,218.141 541.777,218.141 542.048,218.141 542.318,218.141 542.589,218.141 542.860,218.141 543.131,218.141 543.402,218.141 543.672,218.141 543.943,218.141 544.214,218.141 544.485,218.141 544.756,218.141 545.027,218.141 545.297,218.141 545.568,218.141 545.839,218.141 546.110,218.141 546.381,218.141 546.652,218.141 546.922,218.141 547.193,218.141 547.464,218.141 547.735,218.141 548.006,218.141 548.276,218.141 548.547,218.141 548.818,218.141 549.089,218.141 549.360,218.141 549.631,218.141 549.901,218.141 550.172,218.141 550.443,218.141 550.714,218.141 550.985,218.141 551.256,218.141 551.526,218.141 551.797,218.141 552.068,218.141 552.339,218.141 552.610,218.141 552.880,218.141 553.151,218.141 553.422,218.141 553.693,218.141 553.964,218.141 554.235,218.141 554.505,218.141 554.776,218.141 555.047,218.141 555.318,218.141 555.589,218.141 555.860,218.141 556.130,218.141 556.401,218.141 556.672,218.141 556.943,218.141 557.214,218.141 557.484,218.141 557.755,218.141 558.026,218.141 558.297,218.141 558.568,218.141 558.839,218.141 559.109,218.141 559.380,218.141 559.651,218.141 559.922,218.141 560.193,218.141 560.463,218.141 560.734,218.141 561.005,218.141 561.276,218.141 561.547,218.141 561.818,218.141 562.088,218.141 562.359,218.141 562.630,218.141 562.901,218.141 563.172,218.141 563.443,218.141 563.713,218.141 563.984,218.141 564.255,218.141 564.526,218.141 564.797,218.141 565.067,218.141 565.338,218.141 565.609,218.141 565.880,218.141 566.151,218.141 566.422,218.141 566.692,218.141 566.963,218.141 567.234,218.141 567.505,218.141 567.776,218.141 568.047,218.141 568.317,218.141 568.588,218.141 568.859,218.141 569.130,218.141 569.401,218.141 569.671,218.141 569.942,218.141 570.213,218.141 570.484,218.141 570.755,218.141 571.026,218.141 571.296,218.141 571.567,218.141 571.838,218.141 572.109,218.141 572.380,218.141 572.651,218.141 572.921,218.141 573.192,218.141 573.463,218.141 573.734,218.141 574.005,218.141 574.275,218.141 574.546,218.141 574.817,218.141 575.088,218.141 575.359,218.141 575.630,218.141 575.900,218.141 576.171,218.141 576.442,218.141 576.713,218.141 576.984,218.141 577.255,218.141 577.525,218.141 577.796,218.141 578.067,218.141 578.338,218.141 578.609,218.141 578.879,218.141 579.150,218.141 579.421,218.141 579.692,218.141 579.963,218.141 580.234,218.141 580.504,218.141 580.775,218.141 581.046,218.141 581.317,218.141 581.588,218.141 581.858,218.141 582.129,218.141 582.400,218.141 582.671,218.141 582.942,218.141 583.213,218.141 583.483,218.141 583.754,218.141 584.025,218.141 584.296,218.141 584.567,218.141 584.838,218.141 585.108,218.141 585.379,218.141 585.650,218.141 585.921,218.141 586.192,218.141 586.462,218.141 586.733,218.141 587.004,218.141 587.275,218.141 587.546,218.141 587.817,218.141 588.087,218.141 588.358,218.141 588.629,218.141 588.900,218.141 589.171,218.141 589.442,218.141 589.712,218.141 589.983,218.141 590.254,218.141 590.525,218.141 590.796,218.141 591.066,218.141 591.337,218.141 591.608,218.141 591.879,218.141 592.150,218.141 592.421,218.141 592.691,218.141 592.962,218.141 593.233,218.141 593.504,218.141 593.775,218.141 594.046,218.141 594.316,218.141 594.587,218.141 594.858,218.141 595.129,218.141 595.400,218.141 595.670,218.141 595.941,218.141 596.212,218.141 596.483,218.141 596.754,218.141 597.025,218.141 597.295,218.141 597.566,218.141 597.837,218.141 598.108,218.141 598.379,218.141 598.650,218.141 598.920,218.141 599.191,218.141 599.462,218.141 599.733,218.141 600.004,218.141 600.274,218.141 600.545,218.141 600.816,218.141 601.087,218.141 601.358,218.141 601.629,218.141 601.899,218.141 602.170,218.141 602.441,218.141 602.712,218.141 602.983,218.141 603.253,218.141 603.524,218.141 603.795,218.141 604.066,218.141 604.337,218.141 604.608,218.141 604.878,218.141 605.149,218.141 605.420,218.141 605.691,218.141 605.962,218.141 606.233,218.141 606.503,218.141 606.774,218.141 607.045,218.141 607.316,218.141 607.587,218.141 607.857,218.141 608.128,218.141 608.399,218.141 608.670,218.141 608.941,218.141 609.212,218.141 609.482,218.141 609.753,218.141 610.024,218.141 610.295,218.141 610.566,218.141 610.837,218.141 611.107,218.141 611.378,218.141 611.649,218.141 611.920,218.141 612.191,218.141 612.461,218.141 612.732,218.141 613.003,218.141 613.274,218.141 613.545,218.141 613.816,218.141 614.086,218.141 614.357,218.141 614.628,218.141 614.899,218.141 615.170,218.141 615.441,218.141 615.711,218.141 615.982,218.141 616.253,218.141 616.524,218.141 616.795,218.141 617.065,218.141 617.336,218.141 617.607,218.141 617.878,218.141 618.149,218.141 618.420,218.141 618.690,218.141 618.961,218.141 619.232,218.141 619.503,218.141 619.774,218.141 620.045,218.141 620.315,218.141 620.586,218.141 620.857,218.141 621.128,218.141 621.399,218.141 621.669,218.141 621.940,218.141 622.211,218.141 622.482,218.141 622.753,218.141 623.024,218.141 623.294,218.141 623.565,218.141 623.836,218.141 624.107,218.141 624.378,218.141 624.649,218.141 624.919,218.141 625.190,218.141 625.461,218.141 625.732,218.141 626.003,218.141 626.273,218.141 626.544,218.141 626.815,218.141 627.086,218.141 627.357,218.141 627.628,218.141 627.898,218.141 628.169,218.141 628.440,218.141 628.711,218.141 628.982,218.141 629.252,218.141 629.523,218.141 629.794,218.141 630.065,218.141 630.336,218.141 630.607,218.141 630.877,218.141 631.148,218.141 631.419,218.141 631.690,218.141 631.961,218.141 632.232,218.141 632.502,218.141 "/>
<g>
</g>
</g>
<g id="ID000003" >
  <g transform="translate(361.056,30.565)">
    <g transform="rotate(-0.0)">
      <text x="0.000" y="0.000" font-family="Helvetica" text-anchor="middle" font-size="12pt" fill="#000000" >l = 0.11, x* = -0.50</text>
    </g>
  </g>
</g>
<g id="ID000004" >
</g>
<g id="ID000005" >
</g>
    </g>
    <g>
      <polyline fill="none" stroke="#000000" stroke-width="0.5pt" stroke-dasharray="none" points="145.021,218.141 145.021,212.725 "/>
      <polyline fill="none" stroke="#000000" stroke-width="0.5pt" stroke-dasharray="none" points="199.186,218.141 199.186,212.725 "/>
      <polyline fill="none" stroke="#000000" stroke-width="0.5pt" stroke-dasharray="none" points="253.350,218.141 253.350,212.725 "/>
      <polyline fill="none" stroke="#000000" stroke-width="0.5pt" stroke-dasharray="none" points="307.515,218.141 307.515,212.725 "/>
      <polyline fill="none" stroke="#000000" stroke-width="0.5pt" stroke-dasharray="none" points="361.680,218.141 361.680,212.725 "/>
      <polyline fill="none" stroke="#000000" stroke-width="0.5pt" stroke-dasharray="none" points="415.844,218.141 415.844,212.725 "/>
      <polyline fill="none" stroke="#000000" stroke-width="0.5pt" stroke-dasharray="none" points="470.009,218.141 470.009,212.725 "/>
      <polyline fill="none" stroke="#000000" stroke-width="0.5pt" stroke-dasharray="none" points="524.173,218.141 524.173,212.725 "/>
      <polyline fill="none" stroke="#000000" stroke-width="0.5pt" stroke-dasharray="none" points="578.338,218.141 578.338,212.725 "/>
      <polyline fill="none" stroke="#000000" stroke-width="0.5pt" stroke-dasharray="none" points="90.857,218.141 632.502,218.141 "/>
      <polyline fill="none" stroke="#000000" stroke-width="0.5pt" stroke-dasharray="none" points="145.021,39.313 145.021,44.729 "/>
      <polyline fill="none" stroke="#000000" stroke-width="0.5pt" stroke-dasharray="none" points="199.186,39.313 199.186,44.729 "/>
      <polyline fill="none" stroke="#000000" stroke-width="0.5pt" stroke-dasharray="none" points="253.350,39.313 253.350,44.729 "/>
      <polyline fill="none" stroke="#000000" stroke-width="0.5pt" stroke-dasharray="none" points="307.515,39.313 307.515,44.729 "/>
      <polyline fill="none" stroke="#000000" stroke-width="0.5pt" stroke-dasharray="none" points="361.680,39.313 361.680,44.729 "/>
      <polyline fill="none" stroke="#000000" stroke-width="0.5pt" stroke-dasharray="none" points="415.844,39.313 415.844,44.729 "/>
      <polyline fill="none" stroke="#000000" stroke-width="0.5pt" stroke-dasharray="none" points="470.009,39.313 470.009,44.729 "/>
      <polyline fill="none" stroke="#000000" stroke-width="0.5pt" stroke-dasharray="none" points="524.173,39.313 524.173,44.729 "/>
      <polyline fill="none" stroke="#000000" stroke-width="0.5pt" stroke-dasharray="none" points="578.338,39.313 578.338,44.729 "/>
      <polyline fill="none" stroke="#000000" stroke-width="0.5pt" stroke-dasharray="none" points="90.857,39.313 632.502,39.313 "/>
  <g transform="translate(90.857,236.445)">
    <g transform="rotate(-0.0)">
      <text x="0.000" y="0.000" font-family="Helvetica" text-anchor="middle" font-size="12pt" fill="#000000" >-1</text>
    </g>
  </g>
  <g transform="translate(145.021,236.445)">
    <g transform="rotate(-0.0)">
      <text x="0.000" y="0.000" font-family="Helvetica" text-anchor="middle" font-size="12pt" fill="#000000" >-0.8</text>
    </g>
  </g>
  <g transform="translate(199.186,236.445)">
    <g transform="rotate(-0.0)">
      <text x="0.000" y="0.000" font-family="Helvetica" text-anchor="middle" font-size="12pt" fill="#000000" >-0.6</text>
    </g>
  </g>
  <g transform="translate(253.350,236.445)">
    <g transform="rotate(-0.0)">
      <text x="0.000" y="0.000" font-family="Helvetica" text-anchor="middle" font-size="12pt" fill="#000000" >-0.4</text>
    </g>
  </g>
  <g transform="translate(307.515,236.445)">
    <g transform="rotate(-0.0)">
      <text x="0.000" y="0.000" font-family="Helvetica" text-anchor="middle" font-size="12pt" fill="#000000" >-0.2</text>
    </g>
  </g>
  <g transform="translate(361.680,236.445)">
    <g transform="rotate(-0.0)">
      <text x="0.000" y="0.000" font-family="Helvetica" text-anchor="middle" font-size="12pt" fill="#000000" >0</text>
    </g>
  </g>
  <g transform="translate(415.844,236.445)">
    <g transform="rotate(-0.0)">
      <text x="0.000" y="0.000" font-family="Helvetica" text-anchor="middle" font-size="12pt" fill="#000000" >0.2</text>
    </g>
  </g>
  <g transform="translate(470.009,236.445)">
    <g transform="rotate(-0.0)">
      <text x="0.000" y="0.000" font-family="Helvetica" text-anchor="middle" font-size="12pt" fill="#000000" >0.4</text>
    </g>
  </g>
  <g transform="translate(524.173,236.445)">
    <g transform="rotate(-0.0)">
      <text x="0.000" y="0.000" font-family="Helvetica" text-anchor="middle" font-size="12pt" fill="#000000" >0.6</text>
    </g>
  </g>
  <g transform="translate(578.338,236.445)">
    <g transform="rotate(-0.0)">
      <text x="0.000" y="0.000" font-family="Helvetica" text-anchor="middle" font-size="12pt" fill="#000000" >0.8</text>
    </g>
  </g>
  <g transform="translate(632.502,236.445)">
    <g transform="rotate(-0.0)">
      <text x="0.000" y="0.000" font-family="Helvetica" text-anchor="middle" font-size="12pt" fill="#000000" >1</text>
    </g>
  </g>
      <polyline fill="none" stroke="#000000" stroke-width="0.5pt" stroke-dasharray="none" points="90.857,173.434 96.273,173.434 "/>
      <polyline fill="none" stroke="#000000" stroke-width="0.5pt" stroke-dasharray="none" points="90.857,128.727 96.273,128.727 "/>
      <polyline fill="none" stroke="#000000" stroke-width="0.5pt" stroke-dasharray="none" points="90.857,84.020 96.273,84.020 "/>
      <polyline fill="none" stroke="#000000" stroke-width="0.5pt" stroke-dasharray="none" points="90.857,218.141 90.857,39.313 "/>
      <polyline fill="none" stroke="#000000" stroke-width="0.5pt" stroke-dasharray="none" points="632.502,173.434 627.086,173.434 "/>
      <polyline fill="none" stroke="#000000" stroke-width="0.5pt" stroke-dasharray="none" points="632.502,128.727 627.086,128.727 "/>
      <polyline fill="none" stroke="#000000" stroke-width="0.5pt" stroke-dasharray="none" points="632.502,84.020 627.086,84.020 "/>
      <polyline fill="none" stroke="#000000" stroke-width="0.5pt" stroke-dasharray="none" points="632.502,218.141 632.502,39.313 "/>
  <g transform="translate(80.024,223.758)">
    <g transform="rotate(-0.0)">
      <text x="0.000" y="0.000" font-family="Helvetica" text-anchor="end" font-size="12pt" fill="#000000" >0</text>
    </g>
  </g>
  <g transform="translate(80.024,179.050)">
    <g transform="rotate(-0.0)">
      <text x="0.000" y="0.000" font-family="Helvetica" text-anchor="end" font-size="12pt" fill="#000000" >20</text>
    </g>
  </g>
  <g transform="translate(80.024,134.343)">
    <g transform="rotate(-0.0)">
      <text x="0.000" y="0.000" font-family="Helvetica" text-anchor="end" font-size="12pt" fill="#000000" >40</text>
    </g>
  </g>
  <g transform="translate(80.024,89.636)">
    <g transform="rotate(-0.0)">
      <text x="0.000" y="0.000" font-family="Helvetica" text-anchor="end" font-size="12pt" fill="#000000" >60</text>
    </g>
  </g>
  <g transform="translate(80.024,44.929)">
    <g transform="rotate(-0.0)">
      <text x="0.000" y="0.000" font-family="Helvetica" text-anchor="end" font-size="12pt" fill="#000000" >80</text>
    </g>
  </g>
      <polyline fill="none" stroke="#000000" stroke-width="0.5pt" stroke-dasharray="none" points="90.857,218.141 90.857,216.353 "/>
      <polyline fill="none" stroke="#000000" stroke-width="0.5pt" stroke-dasharray="none" points="90.857,218.141 90.857,218.141 "/>
    </g>
  </g>
  <g id ="ID000006">
  <clipPath id="ID000007">
    <rect x="90.857" y="287.686" width="541.646" height="178.828"/>
  </clipPath>
      <polygon fill="#ffffff" fill-opacity="1.00" stroke="none" stroke-width="0.5pt" stroke-opacity="1.00" stroke-dasharray="none" points="90.857,466.514 632.502,466.514 632.502,287.686 90.857,287.686 "/>
      <polygon fill="#ffffff" fill-opacity="1.00" stroke="none" stroke-width="0.5pt" stroke-opacity="1.00" stroke-dasharray="none" points="90.857,287.686 632.502,287.686 632.502,287.686 90.857,287.686 "/>
      <polygon fill="#ffffff" fill-opacity="1.00" stroke="none" stroke-width="0.5pt" stroke-opacity="1.00" stroke-dasharray="none" points="90.857,466.514 90.857,466.514 90.857,287.686 90.857,287.686 "/>
    <g>
<g id="ID000008" clip-path="url(#ID000007)" >
      <polyline fill="none" stroke="#0000ff" stroke-width="0.5pt" stroke-dasharray="none" points="90.857,450.534 91.128,450.345 91.398,450.156 91.669,449.967 91.940,449.778 92.211,449.589 92.482,449.400 92.752,449.211 93.023,449.021 93.294,448.832 93.565,448.643 93.836,448.453 94.107,448.264 94.377,448.074 94.648,447.885 94.919,447.695 95.190,447.506 95.461,447.316 95.732,447.126 96.002,446.937 96.273,446.747 96.544,446.557 96.815,446.367 97.086,446.177 97.356,445.987 97.627,445.797 97.898,445.607 98.169,445.417 98.440,445.227 98.711,445.037 98.981,444.847 99.252,444.657 99.523,444.466 99.794,444.276 100.065,444.086 100.335,443.895 100.606,443.705 100.877,443.515 101.148,443.324 101.419,443.134 101.690,442.943 101.960,442.753 102.231,442.562 102.502,442.372 102.773,442.181 103.044,441.990 103.315,441.799 103.585,441.609 103.856,441.418 104.127,441.227 104.398,441.036 104.669,440.845 104.939,440.655 105.210,440.464 105.481,440.273 105.752,440.082 106.023,439.891 106.294,439.700 106.564,439.509 106.835,439.318 107.106,439.126 107.377,438.935 107.648,438.744 107.919,438.553 108.189,438.362 108.460,438.171 108.731,437.979 109.002,437.788 109.273,437.597 109.543,437.405 109.814,437.214 110.085,437.023 110.356,436.831 110.627,436.640 110.898,436.449 111.168,436.257 111.439,436.066 111.710,435.874 111.981,435.683 112.252,435.491 112.523,435.300 112.793,435.108 113.064,434.916 113.335,434.725 113.606,434.533 113.877,434.342 114.147,434.150 114.418,433.958 114.689,433.767 114.960,433.575 115.231,433.383 115.502,433.192 115.772,433.000 116.043,432.808 116.314,432.616 116.585,432.425 116.856,432.233 117.127,432.041 117.397,431.849 117.668,431.658 117.939,431.466 118.210,431.274 118.481,431.082 118.751,430.890 119.022,430.698 119.293,430.507 119.564,430.315 119.835,430.123 120.106,429.931 120.376,429.739 120.647,429.547 120.918,429.355 121.189,429.164 121.460,428.972 121.730,428.780 122.001,428.588 122.272,428.396 122.543,428.204 122.814,428.012 123.085,427.820 123.355,427.628 123.626,427.436 123.897,427.245 124.168,427.053 124.439,426.861 124.710,426.669 124.980,426.477 125.251,426.285 125.522,426.093 125.793,425.901 126.064,425.709 126.334,425.517 126.605,425.326 126.876,425.134 127.147,424.942 127.418,424.750 127.689,424.558 127.959,424.366 128.230,424.174 128.501,423.983 128.772,423.791 129.043,423.599 129.314,423.407 129.584,423.215 129.855,423.023 130.126,422.832 130.397,422.640 130.668,422.448 130.938,422.256 131.209,422.065 131.480,421.873 131.751,421.681 132.022,421.489 132.293,421.298 132.563,421.106 132.834,420.914 133.105,420.723 133.376,420.531 133.647,420.339 133.918,420.148 134.188,419.956 134.459,419.765 134.730,419.573 135.001,419.381 135.272,419.190 135.542,418.998 135.813,418.807 136.084,418.615 136.355,418.424 136.626,418.233 136.897,418.041 137.167,417.850 137.438,417.658 137.709,417.467 137.980,417.276 138.251,417.084 138.522,416.893 138.792,416.702 139.063,416.511 139.334,416.320 139.605,416.128 139.876,415.937 140.146,415.746 140.417,415.555 140.688,415.364 140.959,415.173 141.230,414.982 141.501,414.791 141.771,414.600 142.042,414.409 142.313,414.218 142.584,414.027 142.855,413.836 143.126,413.646 143.396,413.455 143.667,413.264 143.938,413.073 144.209,412.883 144.480,412.692 144.750,412.501 145.021,412.311 145.292,412.120 145.563,411.930 145.834,411.739 146.105,411.549 146.375,411.358 146.646,411.168 146.917,410.978 147.188,410.787 147.459,410.597 147.729,410.407 148.000,410.217 148.271,410.027 148.542,409.836 148.813,409.646 149.084,409.456 149.354,409.266 149.625,409.077 149.896,408.887 150.167,408.697 150.438,408.507 150.709,408.317 150.979,408.127 151.250,407.938 151.521,407.748 151.792,407.559 152.063,407.369 152.333,407.180 152.604,406.990 152.875,406.801 153.146,406.611 153.417,406.422 153.688,406.233 153.958,406.044 154.229,405.855 154.500,405.665 154.771,405.476 155.042,405.287 155.313,405.098 155.583,404.910 155.854,404.721 156.125,404.532 156.396,404.343 156.667,404.155 156.937,403.966 157.208,403.777 157.479,403.589 157.750,403.400 158.021,403.212 158.292,403.024 158.562,402.835 158.833,402.647 159.104,402.459 159.375,402.271 159.646,402.083 159.917,401.895 160.187,401.707 160.458,401.519 160.729,401.331 161.000,401.143 161.271,400.956 161.541,400.768 161.812,400.581 162.083,400.393 162.354,400.206 162.625,400.018 162.896,399.831 163.166,399.644 163.437,399.457 163.708,399.269 163.979,399.082 164.250,398.895 164.521,398.709 164.791,398.522 165.062,398.335 165.333,398.148 165.604,397.962 165.875,397.775 166.145,397.589 166.416,397.402 166.687,397.216 166.958,397.030 167.229,396.843 167.500,396.657 167.770,396.471 168.041,396.285 168.312,396.099 168.583,395.913 168.854,395.728 169.124,395.542 169.395,395.356 169.666,395.171 169.937,394.985 170.208,394.800 170.479,394.615 170.749,394.430 171.020,394.244 171.291,394.059 171.562,393.874 171.833,393.689 172.104,393.505 172.374,393.320 172.645,393.135 172.916,392.951 173.187,392.766 173.458,392.582 173.728,392.397 173.999,392.213 174.270,392.029 174.541,391.845 174.812,391.661 175.083,391.477 175.353,391.293 175.624,391.110 175.895,390.926 176.166,390.742 176.437,390.559 176.708,390.376 176.978,390.192 177.249,390.009 177.520,389.826 177.791,389.643 178.062,389.460 178.332,389.277 178.603,389.095 178.874,388.912 179.145,388.729 179.416,388.547 179.687,388.365 179.957,388.182 180.228,388.000 180.499,387.818 180.770,387.636 181.041,387.454 181.312,387.273 181.582,387.091 181.853,386.909 182.124,386.728 182.395,386.546 182.666,386.365 182.936,386.184 183.207,386.003 183.478,385.822 183.749,385.641 184.020,385.460 184.291,385.280 184.561,385.099 184.832,384.919 185.103,384.738 185.374,384.558 185.645,384.378 185.916,384.198 186.186,384.018 186.457,383.838 186.728,383.658 186.999,383.479 187.270,383.299 187.540,383.120 187.811,382.941 188.082,382.761 188.353,382.582 188.624,382.403 188.895,382.224 189.165,382.046 189.436,381.867 189.707,381.689 189.978,381.510 190.249,381.332 190.519,381.154 190.790,380.976 191.061,380.798 191.332,380.620 191.603,380.442 191.874,380.265 192.144,380.087 192.415,379.910 192.686,379.732 192.957,379.555 193.228,379.378 193.499,379.201 193.769,379.025 194.040,378.848 194.311,378.672 194.582,378.495 194.853,378.319 195.123,378.143 195.394,377.967 195.665,377.791 195.936,377.615 196.207,377.439 196.478,377.264 196.748,377.088 197.019,376.913 197.290,376.738 197.561,376.563 197.832,376.388 198.103,376.213 198.373,376.038 198.644,375.864 198.915,375.690 199.186,375.515 199.457,375.341 199.727,375.167 199.998,374.993 200.269,374.819 200.540,374.646 200.811,374.472 201.082,374.299 201.352,374.126 201.623,373.953 201.894,373.780 202.165,373.607 202.436,373.434 202.707,373.262 202.977,373.089 203.248,372.917 203.519,372.745 203.790,372.573 204.061,372.401 204.331,372.229 204.602,372.058 204.873,371.886 205.144,371.715 205.415,371.544 205.686,371.373 205.956,371.202 206.227,371.031 206.498,370.861 206.769,370.690 207.040,370.520 207.311,370.350 207.581,370.180 207.852,370.010 208.123,369.840 208.394,369.670 208.665,369.501 208.935,369.332 209.206,369.163 209.477,368.994 209.748,368.825 210.019,368.656 210.290,368.487 210.560,368.319 210.831,368.151 211.102,367.983 211.373,367.815 211.644,367.647 211.915,367.479 212.185,367.312 212.456,367.144 212.727,366.977 212.998,366.810 213.269,366.643 213.539,366.477 213.810,366.310 214.081,366.144 214.352,365.977 214.623,365.811 214.894,365.645 215.164,365.480 215.435,365.314 215.706,365.148 215.977,364.983 216.248,364.818 216.518,364.653 216.789,364.488 217.060,364.323 217.331,364.159 217.602,363.995 217.873,363.830 218.143,363.666 218.414,363.503 218.685,363.339 218.956,363.175 219.227,363.012 219.498,362.849 219.768,362.686 220.039,362.523 220.310,362.360 220.581,362.198 220.852,362.035 221.122,361.873 221.393,361.711 221.664,361.549 221.935,361.387 222.206,361.226 222.477,361.065 222.747,360.903 223.018,360.742 223.289,360.582 223.560,360.421 223.831,360.260 224.102,360.100 224.372,359.940 224.643,359.780 224.914,359.620 225.185,359.461 225.456,359.301 225.726,359.142 225.997,358.983 226.268,358.824 226.539,358.665 226.810,358.506 227.081,358.348 227.351,358.190 227.622,358.032 227.893,357.874 228.164,357.716 228.435,357.559 228.706,357.402 228.976,357.244 229.247,357.088 229.518,356.931 229.789,356.774 230.060,356.618 230.330,356.462 230.601,356.306 230.872,356.150 231.143,355.994 231.414,355.839 231.685,355.683 231.955,355.528 232.226,355.373 232.497,355.219 232.768,355.064 233.039,354.910 233.310,354.756 233.580,354.602 233.851,354.448 234.122,354.294 234.393,354.141 234.664,353.988 234.934,353.835 235.205,353.682 235.476,353.529 235.747,353.377 236.018,353.225 236.289,353.072 236.559,352.921 236.830,352.769 237.101,352.618 237.372,352.466 237.643,352.315 237.913,352.164 238.184,352.014 238.455,351.863 238.726,351.713 238.997,351.563 239.268,351.413 239.538,351.263 239.809,351.114 240.080,350.964 240.351,350.815 240.622,350.667 240.893,350.518 241.163,350.369 241.434,350.221 241.705,350.073 241.976,349.925 242.247,349.777 242.517,349.630 242.788,349.483 243.059,349.336 243.330,349.189 243.601,349.042 243.872,348.896 244.142,348.750 244.413,348.604 244.684,348.458 244.955,348.312 245.226,348.167 245.497,348.022 245.767,347.877 246.038,347.732 246.309,347.587 246.580,347.443 246.851,347.299 247.121,347.155 247.392,347.011 247.663,346.868 247.934,346.724 248.205,346.581 248.476,346.438 248.746,346.296 249.017,346.153 249.288,346.011 249.559,345.869 249.830,345.727 250.101,345.586 250.371,345.444 250.642,345.303 250.913,345.162 251.184,345.022 251.455,344.881 251.725,344.741 251.996,344.601 252.267,344.461 252.538,344.322 252.809,344.182 253.080,344.043 253.350,343.904 253.621,343.765 253.892,343.627 254.163,343.489 254.434,343.351 254.705,343.213 254.975,343.075 255.246,342.938 255.517,342.801 255.788,342.664 256.059,342.527 256.329,342.391 256.600,342.254 256.871,342.118 257.142,341.983 257.413,341.847 257.684,341.712 257.954,341.577 258.225,341.442 258.496,341.307 258.767,341.173 259.038,341.038 259.308,340.904 259.579,340.771 259.850,340.637 260.121,340.504 260.392,340.371 260.663,340.238 260.933,340.106 261.204,339.973 261.475,339.841 261.746,339.709 262.017,339.578 262.288,339.446 262.558,339.315 262.829,339.184 263.100,339.054 263.371,338.923 263.642,338.793 263.912,338.663 264.183,338.533 264.454,338.404 264.725,338.275 264.996,338.146 265.267,338.017 265.537,337.888 265.808,337.760 266.079,337.632 266.350,337.504 266.621,337.377 266.892,337.249 267.162,337.122 267.433,336.995 267.704,336.869 267.975,336.742 268.246,336.616 268.516,336.490 268.787,336.365 269.058,336.239 269.329,336.114 269.600,335.989 269.871,335.865 270.141,335.740 270.412,335.616 270.683,335.492 270.954,335.369 271.225,335.245 271.496,335.122 271.766,334.999 272.037,334.877 272.308,334.754 272.579,334.632 272.850,334.510 273.120,334.388 273.391,334.267 273.662,334.146 273.933,334.025 274.204,333.904 274.475,333.784 274.745,333.664 275.016,333.544 275.287,333.424 275.558,333.305 275.829,333.186 276.100,333.067 276.370,332.948 276.641,332.830 276.912,332.712 277.183,332.594 277.454,332.477 277.724,332.359 277.995,332.242 278.266,332.125 278.537,332.009 278.808,331.893 279.079,331.777 279.349,331.661 279.620,331.545 279.891,331.430 280.162,331.315 280.433,331.200 280.704,331.086 280.974,330.972 281.245,330.858 281.516,330.744 281.787,330.631 282.058,330.517 282.328,330.405 282.599,330.292 282.870,330.180 283.141,330.067 283.412,329.956 283.683,329.844 283.953,329.733 284.224,329.622 284.495,329.511 284.766,329.400 285.037,329.290 285.307,329.180 285.578,329.071 285.849,328.961 286.120,328.852 286.391,328.743 286.662,328.634 286.932,328.526 287.203,328.418 287.474,328.310 287.745,328.203 288.016,328.095 288.287,327.988 288.557,327.882 288.828,327.775 289.099,327.669 289.370,327.563 289.641,327.457 289.911,327.352 290.182,327.247 290.453,327.142 290.724,327.038 290.995,326.933 291.266,326.829 291.536,326.726 291.807,326.622 292.078,326.519 292.349,326.416 292.620,326.314 292.891,326.211 293.161,326.109 293.432,326.007 293.703,325.906 293.974,325.805 294.245,325.704 294.515,325.603 294.786,325.503 295.057,325.403 295.328,325.303 295.599,325.203 295.870,325.104 296.140,325.005 296.411,324.906 296.682,324.808 296.953,324.710 297.224,324.612 297.495,324.514 297.765,324.417 298.036,324.320 298.307,324.223 298.578,324.127 298.849,324.031 299.119,323.935 299.390,323.839 299.661,323.744 299.932,323.649 300.203,323.554 300.474,323.460 300.744,323.365 301.015,323.272 301.286,323.178 301.557,323.085 301.828,322.992 302.099,322.899 302.369,322.807 302.640,322.714 302.911,322.622 303.182,322.531 303.453,322.440 303.723,322.349 303.994,322.258 304.265,322.168 304.536,322.077 304.807,321.988 305.078,321.898 305.348,321.809 305.619,321.720 305.890,321.631 306.161,321.543 306.432,321.455 306.702,321.367 306.973,321.279 307.244,321.192 307.515,321.105 307.786,321.019 308.057,320.932 308.327,320.846 308.598,320.761 308.869,320.675 309.140,320.590 309.411,320.505 309.682,320.421 309.952,320.336 310.223,320.252 310.494,320.169 310.765,320.085 311.036,320.002 311.306,319.919 311.577,319.837 311.848,319.755 312.119,319.673 312.390,319.591 312.661,319.510 312.931,319.429 313.202,319.348 313.473,319.268 313.744,319.188 314.015,319.108 314.286,319.029 314.556,318.949 314.827,318.870 315.098,318.792 315.369,318.714 315.640,318.636 315.910,318.558 316.181,318.481 316.452,318.403 316.723,318.327 316.994,318.250 317.265,318.174 317.535,318.098 317.806,318.023 318.077,317.947 318.348,317.872 318.619,317.798 318.890,317.723 319.160,317.649 319.431,317.576 319.702,317.502 319.973,317.429 320.244,317.356 320.514,317.284 320.785,317.212 321.056,317.140 321.327,317.068 321.598,316.997 321.869,316.926 322.139,316.855 322.410,316.785 322.681,316.715 322.952,316.645 323.223,316.576 323.494,316.506 323.764,316.438 324.035,316.369 324.306,316.301 324.577,316.233 324.848,316.165 325.118,316.098 325.389,316.031 325.660,315.964 325.931,315.898 326.202,315.832 326.473,315.766 326.743,315.701 327.014,315.636 327.285,315.571 327.556,315.507 327.827,315.442 328.097,315.379 328.368,315.315 328.639,315.252 328.910,315.189 329.181,315.126 329.452,315.064 329.722,315.002 329.993,314.940 330.264,314.879 330.535,314.818 330.806,314.757 331.077,314.697 331.347,314.637 331.618,314.577 331.889,314.517 332.160,314.458 332.431,314.399 332.701,314.341 332.972,314.283 333.243,314.225 333.514,314.167 333.785,314.110 334.056,314.053 334.326,313.996 334.597,313.940 334.868,313.884 335.139,313.829 335.410,313.773 335.681,313.718 335.951,313.663 336.222,313.609 336.493,313.555 336.764,313.501 337.035,313.448 337.305,313.395 337.576,313.342 337.847,313.289 338.118,313.237 338.389,313.185 338.660,313.134 338.930,313.083 339.201,313.032 339.472,312.981 339.743,312.931 340.014,312.881 340.285,312.831 340.555,312.782 340.826,312.733 341.097,312.684 341.368,312.636 341.639,312.588 341.909,312.540 342.180,312.493 342.451,312.446 342.722,312.399 342.993,312.353 343.264,312.307 343.534,312.261 343.805,312.216 344.076,312.171 344.347,312.126 344.618,312.081 344.889,312.037 345.159,311.993 345.430,311.950 345.701,311.907 345.972,311.864 346.243,311.821 346.513,311.779 346.784,311.737 347.055,311.696 347.326,311.655 347.597,311.614 347.868,311.573 348.138,311.533 348.409,311.493 348.680,311.453 348.951,311.414 349.222,311.375 349.493,311.337 349.763,311.298 350.034,311.260 350.305,311.223 350.576,311.185 350.847,311.148 351.117,311.112 351.388,311.075 351.659,311.039 351.930,311.004 352.201,310.968 352.472,310.933 352.742,310.899 353.013,310.864 353.284,310.830 353.555,310.797 353.826,310.763 354.096,310.730 354.367,310.697 354.638,310.665 354.909,310.633 355.180,310.601 355.451,310.570 355.721,310.539 355.992,310.508 356.263,310.477 356.534,310.447 356.805,310.418 357.076,310.388 357.346,310.359 357.617,310.330 357.888,310.302 358.159,310.274 358.430,310.246 358.700,310.218 358.971,310.191 359.242,310.164 359.513,310.138 359.784,310.112 360.055,310.086 360.325,310.060 360.596,310.035 360.867,310.010 361.138,309.986 361.409,309.962 361.680,309.938 361.950,309.914 362.221,309.891 362.492,309.868 362.763,309.846 363.034,309.824 363.304,309.802 363.575,309.780 363.846,309.759 364.117,309.738 364.388,309.718 364.659,309.697 364.929,309.677 365.200,309.658 365.471,309.639 365.742,309.620 366.013,309.601 366.284,309.583 366.554,309.565 366.825,309.548 367.096,309.530 367.367,309.514 367.638,309.497 367.908,309.481 368.179,309.465 368.450,309.449 368.721,309.434 368.992,309.419 369.263,309.405 369.533,309.390 369.804,309.376 370.075,309.363 370.346,309.350 370.617,309.337 370.888,309.324 371.158,309.312 371.429,309.300 371.700,309.288 371.971,309.277 372.242,309.266 372.512,309.256 372.783,309.245 373.054,309.235 373.325,309.226 373.596,309.217 373.867,309.208 374.137,309.199 374.408,309.191 374.679,309.183 374.950,309.175 375.221,309.168 375.491,309.161 375.762,309.155 376.033,309.148 376.304,309.142 376.575,309.137 376.846,309.132 377.116,309.127 377.387,309.122 377.658,309.118 377.929,309.114 378.200,309.110 378.471,309.107 378.741,309.104 379.012,309.101 379.283,309.099 379.554,309.097 379.825,309.096 380.095,309.094 380.366,309.093 380.637,309.093 380.908,309.093 381.179,309.093 381.450,309.093 381.720,309.094 381.991,309.095 382.262,309.096 382.533,309.098 382.804,309.100 383.075,309.103 383.345,309.105 383.616,309.108 383.887,309.112 384.158,309.116 384.429,309.120 384.699,309.124 384.970,309.129 385.241,309.134 385.512,309.139 385.783,309.145 386.054,309.151 386.324,309.157 386.595,309.164 386.866,309.171 387.137,309.179 387.408,309.186 387.679,309.194 387.949,309.203 388.220,309.212 388.491,309.221 388.762,309.230 389.033,309.240 389.303,309.250 389.574,309.260 389.845,309.271 390.116,309.282 390.387,309.293 390.658,309.305 390.928,309.317 391.199,309.330 391.470,309.342 391.741,309.355 392.012,309.369 392.283,309.382 392.553,309.396 392.824,309.411 393.095,309.426 393.366,309.441 393.637,309.456 393.907,309.472 394.178,309.488 394.449,309.504 394.720,309.521 394.991,309.538 395.262,309.555 395.532,309.573 395.803,309.591 396.074,309.609 396.345,309.628 396.616,309.647 396.886,309.666 397.157,309.686 397.428,309.706 397.699,309.726 397.970,309.747 398.241,309.768 398.511,309.790 398.782,309.811 399.053,309.833 399.324,309.856 399.595,309.878 399.866,309.901 400.136,309.925 400.407,309.948 400.678,309.972 400.949,309.997 401.220,310.021 401.490,310.046 401.761,310.071 402.032,310.097 402.303,310.123 402.574,310.149 402.845,310.176 403.115,310.203 403.386,310.230 403.657,310.258 403.928,310.286 404.199,310.314 404.470,310.343 404.740,310.372 405.011,310.401 405.282,310.430 405.553,310.460 405.824,310.491 406.094,310.521 406.365,310.552 406.636,310.583 406.907,310.615 407.178,310.647 407.449,310.679 407.719,310.712 407.990,310.744 408.261,310.778 408.532,310.811 408.803,310.845 409.074,310.879 409.344,310.914 409.615,310.949 409.886,310.984 410.157,311.019 410.428,311.055 410.698,311.091 410.969,311.128 411.240,311.164 411.511,311.202 411.782,311.239 412.053,311.277 412.323,311.315 412.594,311.353 412.865,311.392 413.136,311.431 413.407,311.471 413.678,311.510 413.948,311.550 414.219,311.591 414.490,311.632 414.761,311.673 415.032,311.714 415.302,311.756 415.573,311.798 415.844,311.840 416.115,311.883 416.386,311.926 416.657,311.969 416.927,312.012 417.198,312.056 417.469,312.101 417.740,312.145 418.011,312.190 418.282,312.235 418.552,312.281 418.823,312.327 419.094,312.373 419.365,312.420 419.636,312.466 419.906,312.514 420.177,312.561 420.448,312.609 420.719,312.657 420.990,312.706 421.261,312.754 421.531,312.803 421.802,312.853 422.073,312.903 422.344,312.953 422.615,313.003 422.885,313.054 423.156,313.105 423.427,313.156 423.698,313.208 423.969,313.260 424.240,313.312 424.510,313.365 424.781,313.418 425.052,313.471 425.323,313.525 425.594,313.578 425.865,313.633 426.135,313.687 426.406,313.742 426.677,313.797 426.948,313.853 427.219,313.908 427.489,313.965 427.760,314.021 428.031,314.078 428.302,314.135 428.573,314.192 428.844,314.250 429.114,314.308 429.385,314.366 429.656,314.425 429.927,314.484 430.198,314.543 430.469,314.603 430.739,314.663 431.010,314.723 431.281,314.784 431.552,314.844 431.823,314.906 432.093,314.967 432.364,315.029 432.635,315.091 432.906,315.153 433.177,315.216 433.448,315.279 433.718,315.343 433.989,315.406 434.260,315.470 434.531,315.535 434.802,315.599 435.073,315.664 435.343,315.729 435.614,315.795 435.885,315.861 436.156,315.927 436.427,315.993 436.697,316.060 436.968,316.127 437.239,316.195 437.510,316.262 437.781,316.330 438.052,316.399 438.322,316.467 438.593,316.536 438.864,316.606 439.135,316.675 439.406,316.745 439.677,316.815 439.947,316.886 440.218,316.957 440.489,317.028 440.760,317.099 441.031,317.171 441.301,317.243 441.572,317.315 441.843,317.388 442.114,317.461 442.385,317.534 442.656,317.608 442.926,317.682 443.197,317.756 443.468,317.830 443.739,317.905 444.010,317.980 444.280,318.055 444.551,318.131 444.822,318.207 445.093,318.283 445.364,318.360 445.635,318.437 445.905,318.514 446.176,318.592 446.447,318.669 446.718,318.748 446.989,318.826 447.260,318.905 447.530,318.984 447.801,319.063 448.072,319.143 448.343,319.223 448.614,319.303 448.884,319.383 449.155,319.464 449.426,319.545 449.697,319.627 449.968,319.708 450.239,319.790 450.509,319.873 450.780,319.955 451.051,320.038 451.322,320.121 451.593,320.205 451.864,320.289 452.134,320.373 452.405,320.457 452.676,320.542 452.947,320.627 453.218,320.712 453.488,320.798 453.759,320.884 454.030,320.970 454.301,321.056 454.572,321.143 454.843,321.230 455.113,321.317 455.384,321.405 455.655,321.493 455.926,321.581 456.197,321.670 456.468,321.758 456.738,321.848 457.009,321.937 457.280,322.027 457.551,322.117 457.822,322.207 458.092,322.297 458.363,322.388 458.634,322.479 458.905,322.571 459.176,322.662 459.447,322.754 459.717,322.847 459.988,322.939 460.259,323.032 460.530,323.125 460.801,323.219 461.072,323.312 461.342,323.406 461.613,323.501 461.884,323.595 462.155,323.690 462.426,323.785 462.696,323.881 462.967,323.976 463.238,324.072 463.509,324.169 463.780,324.265 464.051,324.362 464.321,324.459 464.592,324.557 464.863,324.654 465.134,324.752 465.405,324.851 465.675,324.949 465.946,325.048 466.217,325.147 466.488,325.246 466.759,325.346 467.030,325.446 467.300,325.546 467.571,325.647 467.842,325.748 468.113,325.849 468.384,325.950 468.655,326.052 468.925,326.154 469.196,326.256 469.467,326.358 469.738,326.461 470.009,326.564 470.279,326.667 470.550,326.771 470.821,326.875 471.092,326.979 471.363,327.083 471.634,327.188 471.904,327.293 472.175,327.398 472.446,327.503 472.717,327.609 472.988,327.715 473.259,327.821 473.529,327.928 473.800,328.035 474.071,328.142 474.342,328.249 474.613,328.357 474.883,328.465 475.154,328.573 475.425,328.682 475.696,328.790 475.967,328.899 476.238,329.009 476.508,329.118 476.779,329.228 477.050,329.338 477.321,329.448 477.592,329.559 477.863,329.670 478.133,329.781 478.404,329.893 478.675,330.004 478.946,330.116 479.217,330.228 479.487,330.341 479.758,330.454 480.029,330.567 480.300,330.680 480.571,330.793 480.842,330.907 481.112,331.021 481.383,331.136 481.654,331.250 481.925,331.365 482.196,331.480 482.467,331.595 482.737,331.711 483.008,331.827 483.279,331.943 483.550,332.059 483.821,332.176 484.091,332.293 484.362,332.410 484.633,332.528 484.904,332.645 485.175,332.763 485.446,332.881 485.716,333.000 485.987,333.119 486.258,333.238 486.529,333.357 486.800,333.476 487.071,333.596 487.341,333.716 487.612,333.836 487.883,333.957 488.154,334.078 488.425,334.199 488.695,334.320 488.966,334.441 489.237,334.563 489.508,334.685 489.779,334.807 490.050,334.930 490.320,335.053 490.591,335.176 490.862,335.299 491.133,335.422 491.404,335.546 491.674,335.670 491.945,335.794 492.216,335.919 492.487,336.044 492.758,336.169 493.029,336.294 493.299,336.419 493.570,336.545 493.841,336.671 494.112,336.797 494.383,336.924 494.654,337.050 494.924,337.177 495.195,337.304 495.466,337.432 495.737,337.560 496.008,337.688 496.278,337.816 496.549,337.944 496.820,338.073 497.091,338.202 497.362,338.331 497.633,338.460 497.903,338.590 498.174,338.719 498.445,338.850 498.716,338.980 498.987,339.110 499.258,339.241 499.528,339.372 499.799,339.503 500.070,339.635 500.341,339.767 500.612,339.899 500.882,340.031 501.153,340.163 501.424,340.296 501.695,340.429 501.966,340.562 502.237,340.695 502.507,340.829 502.778,340.963 503.049,341.097 503.320,341.231 503.591,341.366 503.862,341.500 504.132,341.635 504.403,341.770 504.674,341.906 504.945,342.042 505.216,342.177 505.486,342.314 505.757,342.450 506.028,342.586 506.299,342.723 506.570,342.860 506.841,342.997 507.111,343.135 507.382,343.273 507.653,343.411 507.924,343.549 508.195,343.687 508.466,343.826 508.736,343.964 509.007,344.103 509.278,344.243 509.549,344.382 509.820,344.522 510.090,344.662 510.361,344.802 510.632,344.942 510.903,345.083 511.174,345.224 511.445,345.365 511.715,345.506 511.986,345.647 512.257,345.789 512.528,345.931 512.799,346.073 513.069,346.215 513.340,346.358 513.611,346.500 513.882,346.643 514.153,346.787 514.424,346.930 514.694,347.074 514.965,347.217 515.236,347.361 515.507,347.506 515.778,347.650 516.049,347.795 516.319,347.940 516.590,348.085 516.861,348.230 517.132,348.375 517.403,348.521 517.673,348.667 517.944,348.813 518.215,348.959 518.486,349.106 518.757,349.253 519.028,349.400 519.298,349.547 519.569,349.694 519.840,349.842 520.111,349.989 520.382,350.137 520.653,350.286 520.923,350.434 521.194,350.582 521.465,350.731 521.736,350.880 522.007,351.029 522.277,351.179 522.548,351.328 522.819,351.478 523.090,351.628 523.361,351.778 523.632,351.929 523.902,352.079 524.173,352.230 524.444,352.381 524.715,352.532 524.986,352.683 525.257,352.835 525.527,352.987 525.798,353.139 526.069,353.291 526.340,353.443 526.611,353.596 526.881,353.748 527.152,353.901 527.423,354.054 527.694,354.208 527.965,354.361 528.236,354.515 528.506,354.669 528.777,354.823 529.048,354.977 529.319,355.131 529.590,355.286 529.861,355.441 530.131,355.596 530.402,355.751 530.673,355.906 530.944,356.062 531.215,356.217 531.485,356.373 531.756,356.529 532.027,356.686 532.298,356.842 532.569,356.999 532.840,357.156 533.110,357.313 533.381,357.470 533.652,357.627 533.923,357.785 534.194,357.943 534.464,358.101 534.735,358.259 535.006,358.417 535.277,358.575 535.548,358.734 535.819,358.893 536.089,359.052 536.360,359.211 536.631,359.370 536.902,359.530 537.173,359.690 537.444,359.849 537.714,360.010 537.985,360.170 538.256,360.330 538.527,360.491 538.798,360.651 539.068,360.812 539.339,360.973 539.610,361.135 539.881,361.296 540.152,361.458 540.423,361.619 540.693,361.781 540.964,361.944 541.235,362.106 541.506,362.268 541.777,362.431 542.048,362.594 542.318,362.757 542.589,362.920 542.860,363.083 543.131,363.246 543.402,363.410 543.672,363.574 543.943,363.738 544.214,363.902 544.485,364.066 544.756,364.230 545.027,364.395 545.297,364.560 545.568,364.725 545.839,364.890 546.110,365.055 546.381,365.220 546.652,365.386 546.922,365.552 547.193,365.717 547.464,365.883 547.735,366.050 548.006,366.216 548.276,366.382 548.547,366.549 548.818,366.716 549.089,366.883 549.360,367.050 549.631,367.217 549.901,367.385 550.172,367.552 550.443,367.720 550.714,367.888 550.985,368.056 551.256,368.224 551.526,368.392 551.797,368.561 552.068,368.729 552.339,368.898 552.610,369.067 552.880,369.236 553.151,369.405 553.422,369.575 553.693,369.744 553.964,369.914 554.235,370.084 554.505,370.253 554.776,370.424 555.047,370.594 555.318,370.764 555.589,370.935 555.860,371.105 556.130,371.276 556.401,371.447 556.672,371.618 556.943,371.789 557.214,371.961 557.484,372.132 557.755,372.304 558.026,372.476 558.297,372.648 558.568,372.820 558.839,372.992 559.109,373.164 559.380,373.337 559.651,373.509 559.922,373.682 560.193,373.855 560.463,374.028 560.734,374.201 561.005,374.374 561.276,374.548 561.547,374.721 561.818,374.895 562.088,375.069 562.359,375.243 562.630,375.417 562.901,375.591 563.172,375.765 563.443,375.940 563.713,376.114 563.984,376.289 564.255,376.464 564.526,376.639 564.797,376.814 565.067,376.989 565.338,377.165 565.609,377.340 565.880,377.516 566.151,377.691 566.422,377.867 566.692,378.043 566.963,378.219 567.234,378.395 567.505,378.572 567.776,378.748 568.047,378.925 568.317,379.102 568.588,379.278 568.859,379.455 569.130,379.632 569.401,379.810 569.671,379.987 569.942,380.164 570.213,380.342 570.484,380.519 570.755,380.697 571.026,380.875 571.296,381.053 571.567,381.231 571.838,381.409 572.109,381.588 572.380,381.766 572.651,381.945 572.921,382.123 573.192,382.302 573.463,382.481 573.734,382.660 574.005,382.839 574.275,383.018 574.546,383.198 574.817,383.377 575.088,383.557 575.359,383.736 575.630,383.916 575.900,384.096 576.171,384.276 576.442,384.456 576.713,384.636 576.984,384.817 577.255,384.997 577.525,385.178 577.796,385.358 578.067,385.539 578.338,385.720 578.609,385.901 578.879,386.082 579.150,386.263 579.421,386.444 579.692,386.625 579.963,386.807 580.234,386.988 580.504,387.170 580.775,387.352 581.046,387.533 581.317,387.715 581.588,387.897 581.858,388.079 582.129,388.262 582.400,388.444 582.671,388.626 582.942,388.809 583.213,388.991 583.483,389.174 583.754,389.357 584.025,389.540 584.296,389.723 584.567,389.906 584.838,390.089 585.108,390.272 585.379,390.455 585.650,390.639 585.921,390.822 586.192,391.006 586.462,391.189 586.733,391.373 587.004,391.557 587.275,391.741 587.546,391.925 587.817,392.109 588.087,392.293 588.358,392.478 588.629,392.662 588.900,392.846 589.171,393.031 589.442,393.215 589.712,393.400 589.983,393.585 590.254,393.770 590.525,393.955 590.796,394.140 591.066,394.325 591.337,394.510 591.608,394.695 591.879,394.881 592.150,395.066 592.421,395.251 592.691,395.437 592.962,395.623 593.233,395.808 593.504,395.994 593.775,396.180 594.046,396.366 594.316,396.552 594.587,396.738 594.858,396.924 595.129,397.110 595.400,397.297 595.670,397.483 595.941,397.670 596.212,397.856 596.483,398.043 596.754,398.229 597.025,398.416 597.295,398.603 597.566,398.790 597.837,398.977 598.108,399.164 598.379,399.351 598.650,399.538 598.920,399.725 599.191,399.912 599.462,400.100 599.733,400.287 600.004,400.475 600.274,400.662 600.545,400.850 600.816,401.037 601.087,401.225 601.358,401.413 601.629,401.601 601.899,401.789 602.170,401.977 602.441,402.165 602.712,402.353 602.983,402.541 603.253,402.729 603.524,402.917 603.795,403.106 604.066,403.294 604.337,403.482 604.608,403.671 604.878,403.859 605.149,404.048 605.420,404.237 605.691,404.425 605.962,404.614 606.233,404.803 606.503,404.992 606.774,405.181 607.045,405.370 607.316,405.559 607.587,405.748 607.857,405.937 608.128,406.126 608.399,406.315 608.670,406.504 608.941,406.694 609.212,406.883 609.482,407.073 609.753,407.262 610.024,407.451 610.295,407.641 610.566,407.831 610.837,408.020 611.107,408.210 611.378,408.400 611.649,408.589 611.920,408.779 612.191,408.969 612.461,409.159 612.732,409.349 613.003,409.539 613.274,409.729 613.545,409.919 613.816,410.109 614.086,410.299 614.357,410.490 614.628,410.680 614.899,410.870 615.170,411.060 615.441,411.251 615.711,411.441 615.982,411.632 616.253,411.822 616.524,412.012 616.795,412.203 617.065,412.394 617.336,412.584 617.607,412.775 617.878,412.965 618.149,413.156 618.420,413.347 618.690,413.538 618.961,413.728 619.232,413.919 619.503,414.110 619.774,414.301 620.045,414.492 620.315,414.683 620.586,414.874 620.857,415.065 621.128,415.256 621.399,415.447 621.669,415.638 621.940,415.829 622.211,416.020 622.482,416.211 622.753,416.403 623.024,416.594 623.294,416.785 623.565,416.976 623.836,417.168 624.107,417.359 624.378,417.550 624.649,417.742 624.919,417.933 625.190,418.124 625.461,418.316 625.732,418.507 626.003,418.699 626.273,418.890 626.544,419.082 626.815,419.273 627.086,419.465 627.357,419.656 627.628,419.848 627.898,420.039 628.169,420.231 628.440,420.423 628.711,420.614 628.982,420.806 629.252,420.998 629.523,421.189 629.794,421.381 630.065,421.573 630.336,421.764 630.607,421.956 630.877,422.148 631.148,422.340 631.419,422.531 631.690,422.723 631.961,422.915 632.232,423.107 632.502,423.299 "/>
<g>
</g>
</g>
<g id="ID000009" >
  <g transform="translate(361.056,278.938)">
    <g transform="rotate(-0.0)">
      <text x="0.000" y="0.000" font-family="Helvetica" text-anchor="middle" font-size="12pt" fill="#000000" >l = 0.11, x* = 0.50</text>
    </g>
  </g>
</g>
<g id="ID000010" >
</g>
<g id="ID000011" >
</g>
    </g>
    <g>
      <polyline fill="none" stroke="#000000" stroke-width="0.5pt" stroke-dasharray="none" points="145.021,466.514 145.021,461.098 "/>
      <polyline fill="none" stroke="#000000" stroke-width="0.5pt" stroke-dasharray="none" points="199.186,466.514 199.186,461.098 "/>
      <polyline fill="none" stroke="#000000" stroke-width="0.5pt" stroke-dasharray="none" points="253.350,466.514 253.350,461.098 "/>
      <polyline fill="none" stroke="#000000" stroke-width="0.5pt" stroke-dasharray="none" points="307.515,466.514 307.515,461.098 "/>
      <polyline fill="none" stroke="#000000" stroke-width="0.5pt" stroke-dasharray="none" points="361.680,466.514 361.680,461.098 "/>
      <polyline fill="none" stroke="#000000" stroke-width="0.5pt" stroke-dasharray="none" points="415.844,466.514 415.844,461.098 "/>
      <polyline fill="none" stroke="#000000" stroke-width="0.5pt" stroke-dasharray="none" points="470.009,466.514 470.009,461.098 "/>
      <polyline fill="none" stroke="#000000" stroke-width="0.5pt" stroke-dasharray="none" points="524.173,466.514 524.173,461.098 "/>
      <polyline fill="none" stroke="#000000" stroke-width="0.5pt" stroke-dasharray="none" points="578.338,466.514 578.338,461.098 "/>
      <polyline fill="none" stroke="#000000" stroke-width="0.5pt" stroke-dasharray="none" points="90.857,466.514 632.502,466.514 "/>
      <polyline fill="none" stroke="#000000" stroke-width="0.5pt" stroke-dasharray="none" points="145.021,287.686 145.021,293.102 "/>
      <polyline fill="none" stroke="#000000" stroke-width="0.5pt" stroke-dasharray="none" points="199.186,287.686 199.186,293.102 "/>
      <polyline fill="none" stroke="#000000" stroke-width="0.5pt" stroke-dasharray="none" points="253.350,287.686 253.350,293.102 "/>
      <polyline fill="none" stroke="#000000" stroke-width="0.5pt" stroke-dasharray="none" points="307.515,287.686 307.515,293.102 "/>
      <polyline fill="none" stroke="#000000" stroke-width="0.5pt" stroke-dasharray="none" points="361.680,287.686 361.680,293.102 "/>
      <polyline fill="none" stroke="#000000" stroke-width="0.5pt" stroke-dasharray="none" points="415.844,287.686 415.844,293.102 "/>
      <polyline fill="none" stroke="#000000" stroke-width="0.5pt" stroke-dasharray="none" points="470.009,287.686 470.009,293.102 "/>
      <polyline fill="none" stroke="#000000" stroke-width="0.5pt" stroke-dasharray="none" points="524.173,287.686 524.173,293.102 "/>
      <polyline fill="none" stroke="#000000" stroke-width="0.5pt" stroke-dasharray="none" points="578.338,287.686 578.338,293.102 "/>
      <polyline fill="none" stroke="#000000" stroke-width="0.5pt" stroke-dasharray="none" points="90.857,287.686 632.502,287.686 "/>
  <g transform="translate(90.857,484.818)">
    <g transform="rotate(-0.0)">
      <text x="0.000" y="0.000" font-family="Helvetica" text-anchor="middle" font-size="12pt" fill="#000000" >-1</text>
    </g>
  </g>
  <g transform="translate(145.021,484.818)">
    <g transform="rotate(-0.0)">
      <text x="0.000" y="0.000" font-family="Helvetica" text-anchor="middle" font-size="12pt" fill="#000000" >-0.8</text>
    </g>
  </g>
  <g transform="translate(199.186,484.818)">
    <g transform="rotate(-0.0)">
      <text x="0.000" y="0.000" font-family="Helvetica" text-anchor="middle" font-size="12pt" fill="#000000" >-0.6</text>
    </g>
  </g>
  <g transform="translate(253.350,484.818)">
    <g transform="rotate(-0.0)">
      <text x="0.000" y="0.000" font-family="Helvetica" text-anchor="middle" font-size="12pt" fill="#000000" >-0.4</text>
    </g>
  </g>
  <g transform="translate(307.515,484.818)">
    <g transform="rotate(-0.0)">
      <text x="0.000" y="0.000" font-family="Helvetica" text-anchor="middle" font-size="12pt" fill="#000000" >-0.2</text>
    </g>
  </g>
  <g transform="translate(361.680,484.818)">
    <g transform="rotate(-0.0)">
      <text x="0.000" y="0.000" font-family="Helvetica" text-anchor="middle" font-size="12pt" fill="#000000" >0</text>
    </g>
  </g>
  <g transform="translate(415.844,484.818)">
    <g transform="rotate(-0.0)">
      <text x="0.000" y="0.000" font-family="Helvetica" text-anchor="middle" font-size="12pt" fill="#000000" >0.2</text>
    </g>
  </g>
  <g transform="translate(470.009,484.818)">
    <g transform="rotate(-0.0)">
      <text x="0.000" y="0.000" font-family="Helvetica" text-anchor="middle" font-size="12pt" fill="#000000" >0.4</text>
    </g>
  </g>
  <g transform="translate(524.173,484.818)">
    <g transform="rotate(-0.0)">
      <text x="0.000" y="0.000" font-family="Helvetica" text-anchor="middle" font-size="12pt" fill="#000000" >0.6</text>
    </g>
  </g>
  <g transform="translate(578.338,484.818)">
    <g transform="rotate(-0.0)">
      <text x="0.000" y="0.000" font-family="Helvetica" text-anchor="middle" font-size="12pt" fill="#000000" >0.8</text>
    </g>
  </g>
  <g transform="translate(632.502,484.818)">
    <g transform="rotate(-0.0)">
      <text x="0.000" y="0.000" font-family="Helvetica" text-anchor="middle" font-size="12pt" fill="#000000" >1</text>
    </g>
  </g>
      <polyline fill="none" stroke="#000000" stroke-width="0.5pt" stroke-dasharray="none" points="90.857,430.748 96.273,430.748 "/>
      <polyline fill="none" stroke="#000000" stroke-width="0.5pt" stroke-dasharray="none" points="90.857,394.983 96.273,394.983 "/>
      <polyline fill="none" stroke="#000000" stroke-width="0.5pt" stroke-dasharray="none" points="90.857,359.217 96.273,359.217 "/>
      <polyline fill="none" stroke="#000000" stroke-width="0.5pt" stroke-dasharray="none" points="90.857,323.451 96.273,323.451 "/>
      <polyline fill="none" stroke="#000000" stroke-width="0.5pt" stroke-dasharray="none" points="90.857,466.514 90.857,287.686 "/>
      <polyline fill="none" stroke="#000000" stroke-width="0.5pt" stroke-dasharray="none" points="632.502,430.748 627.086,430.748 "/>
      <polyline fill="none" stroke="#000000" stroke-width="0.5pt" stroke-dasharray="none" points="632.502,394.983 627.086,394.983 "/>
      <polyline fill="none" stroke="#000000" stroke-width="0.5pt" stroke-dasharray="none" points="632.502,359.217 627.086,359.217 "/>
      <polyline fill="none" stroke="#000000" stroke-width="0.5pt" stroke-dasharray="none" points="632.502,323.451 627.086,323.451 "/>
      <polyline fill="none" stroke="#000000" stroke-width="0.5pt" stroke-dasharray="none" points="632.502,466.514 632.502,287.686 "/>
  <g transform="translate(80.024,472.130)">
    <g transform="rotate(-0.0)">
      <text x="0.000" y="0.000" font-family="Helvetica" text-anchor="end" font-size="12pt" fill="#000000" >0.2</text>
    </g>
  </g>
  <g transform="translate(80.024,436.365)">
    <g transform="rotate(-0.0)">
      <text x="0.000" y="0.000" font-family="Helvetica" text-anchor="end" font-size="12pt" fill="#000000" >0.25</text>
    </g>
  </g>
  <g transform="translate(80.024,400.599)">
    <g transform="rotate(-0.0)">
      <text x="0.000" y="0.000" font-family="Helvetica" text-anchor="end" font-size="12pt" fill="#000000" >0.3</text>
    </g>
  </g>
  <g transform="translate(80.024,364.833)">
    <g transform="rotate(-0.0)">
      <text x="0.000" y="0.000" font-family="Helvetica" text-anchor="end" font-size="12pt" fill="#000000" >0.35</text>
    </g>
  </g>
  <g transform="translate(80.024,329.068)">
    <g transform="rotate(-0.0)">
      <text x="0.000" y="0.000" font-family="Helvetica" text-anchor="end" font-size="12pt" fill="#000000" >0.4</text>
    </g>
  </g>
  <g transform="translate(80.024,293.302)">
    <g transform="rotate(-0.0)">
      <text x="0.000" y="0.000" font-family="Helvetica" text-anchor="end" font-size="12pt" fill="#000000" >0.45</text>
    </g>
  </g>
      <polyline fill="none" stroke="#000000" stroke-width="0.5pt" stroke-dasharray="none" points="90.857,466.514 90.857,464.726 "/>
      <polyline fill="none" stroke="#000000" stroke-width="0.5pt" stroke-dasharray="none" points="90.857,466.514 90.857,466.514 "/>
    </g>
  </g>
  </g>
</svg>
