<?xml version="1.0" encoding="utf-8" standalone="no"?><!DOCTYPE svg PUBLIC "-//W3C//DTD SVG 1.1//EN" "http://www.w3.org/Graphics/SVG/1.1/DTD/svg11.dtd">
<svg preserveAspectRatio="xMinYMin meet" width="100%" height="100%" viewBox="0 0 698.898 524.173"  version="1.1" xmlns="http://www.w3.org/2000/svg" xmlns:xlink="http://www.w3.org/1999/xlink">
  <desc>Matlab Figure Converted by PLOT2SVG written by Juerg Schwizer</desc>
  <g id="topgroup">
  <rect x="0" y="0" width="698.898" height="524.173" fill="#ffffff" stroke="none" />
  <g id ="ID000000">
  <clipPath id="ID000001">
    <rect x="90.857" y="39.313" width="541.646" height="178.828"/>
  </clipPath>
      <polygon fill="#ffffff" fill-opacity="1.00" stroke="none" stroke-width="0.5pt" stroke-opacity="1.00" stroke-dasharray="none" points="90.857,218.141 632.502,218.141 632.502,39.313 90.857,39.313 "/>
      <polygon fill="#ffffff" fill-opacity="1.00" stroke="none" stroke-width="0.5pt" stroke-opacity="1.00" stroke-dasharray="none" points="90.857,39.313 632.502,39.313 632.502,39.313 90.857,39.313 "/>
      <polygon fill="#ffffff" fill-opacity="1.00" stroke="none" stroke-width="0.5pt" stroke-opacity="1.00" stroke-dasharray="none" points="90.857,218.141 90.857,218.141 90.857,39.313 90.857,39.313 "/>
    <g>
<g id="ID000002" clip-path="url(#ID000001)" >
      <polyline fill="none" stroke="#0000ff" stroke-width="0.5pt" stroke-dasharray="none" points="90.857,218.141 91.128,218.141 91.398,218.141 91.669,218.141 91.940,218.141 92.211,218.141 92.482,218.141 92.752,218.141 93.023,218.141 93.294,218.141 93.565,218.141 93.836,218.141 94.107,218.141 94.377,218.141 94.648,218.141 94.919,218.141 95.190,218.141 95.461,218.141 95.732,218.141 96.002,218.141 96.273,218.141 96.544,218.141 96.815,218.141 97.086,218.141 97.356,218.141 97.627,218.141 97.898,218.141 98.169,218.141 98.440,218.141 98.711,218.141 98.981,218.141 99.252,218.141 99.523,218.141 99.794,218.141 100.065,218.141 100.335,218.141 100.606,218.141 100.877,218.141 101.148,218.141 101.419,218.141 101.690,218.141 101.960,218.141 102.231,218.141 102.502,218.141 102.773,218.141 103.044,218.141 103.315,218.141 103.585,218.141 103.856,218.141 104.127,218.141 104.398,218.141 104.669,218.141 104.939,218.141 105.210,218.141 105.481,218.141 105.752,218.141 106.023,218.141 106.294,218.141 106.564,218.141 106.835,218.141 107.106,218.141 107.377,218.141 107.648,218.141 107.919,218.141 108.189,218.141 108.460,218.141 108.731,218.141 109.002,218.141 109.273,218.141 109.543,218.141 109.814,218.141 110.085,218.141 110.356,218.141 110.627,218.141 110.898,218.141 111.168,218.141 111.439,218.141 111.710,218.141 111.981,218.141 112.252,218.141 112.523,218.141 112.793,218.141 113.064,218.141 113.335,218.141 113.606,218.141 113.877,218.141 114.147,218.141 114.418,218.141 114.689,218.141 114.960,218.141 115.231,218.141 115.502,218.141 115.772,218.141 116.043,218.141 116.314,218.141 116.585,218.141 116.856,218.141 117.127,218.141 117.397,218.141 117.668,218.141 117.939,218.141 118.210,218.141 118.481,218.141 118.751,218.141 119.022,218.141 119.293,218.141 119.564,218.141 119.835,218.141 120.106,218.141 120.376,218.141 120.647,218.141 120.918,218.141 121.189,218.141 121.460,218.141 121.730,218.141 122.001,218.141 122.272,218.141 122.543,218.141 122.814,218.141 123.085,218.141 123.355,218.141 123.626,218.141 123.897,218.141 124.168,218.141 124.439,218.141 124.710,218.141 124.980,218.141 125.251,218.141 125.522,218.141 125.793,218.141 126.064,218.141 126.334,218.141 126.605,218.141 126.876,218.141 127.147,218.141 127.418,218.141 127.689,218.141 127.959,218.141 128.230,218.141 128.501,218.141 128.772,218.141 129.043,218.141 129.314,218.141 129.584,218.141 129.855,218.141 130.126,218.141 130.397,218.141 130.668,218.141 130.938,218.141 131.209,218.141 131.480,218.141 131.751,218.141 132.022,218.141 132.293,218.141 132.563,218.141 132.834,218.141 133.105,218.141 133.376,218.141 133.647,218.141 133.918,218.141 134.188,218.141 134.459,218.141 134.730,218.141 135.001,218.141 135.272,218.141 135.542,218.141 135.813,218.141 136.084,218.141 136.355,218.141 136.626,218.141 136.897,218.141 137.167,218.141 137.438,218.141 137.709,218.141 137.980,218.141 138.251,218.141 138.522,218.141 138.792,218.141 139.063,218.141 139.334,218.141 139.605,218.141 139.876,218.141 140.146,218.141 140.417,218.141 140.688,218.141 140.959,218.141 141.230,218.141 141.501,218.141 141.771,218.141 142.042,218.141 142.313,218.141 142.584,218.141 142.855,218.141 143.126,218.141 143.396,218.141 143.667,218.141 143.938,218.141 144.209,218.141 144.480,218.141 144.750,218.141 145.021,218.141 145.292,218.141 145.563,218.141 145.834,218.141 146.105,218.141 146.375,218.141 146.646,218.141 146.917,218.141 147.188,218.141 147.459,218.141 147.729,218.141 148.000,218.141 148.271,218.141 148.542,218.141 148.813,218.141 149.084,218.141 149.354,218.141 149.625,218.141 149.896,218.141 150.167,218.141 150.438,218.141 150.709,218.141 150.979,218.141 151.250,218.141 151.521,218.141 151.792,218.141 152.063,218.141 152.333,218.141 152.604,218.141 152.875,218.141 153.146,218.141 153.417,218.141 153.688,218.141 153.958,218.141 154.229,218.141 154.500,218.141 154.771,218.141 155.042,218.141 155.313,218.141 155.583,218.141 155.854,218.141 156.125,218.141 156.396,218.141 156.667,218.141 156.937,218.141 157.208,218.141 157.479,218.141 157.750,218.141 158.021,218.141 158.292,218.141 158.562,218.141 158.833,218.141 159.104,218.141 159.375,218.141 159.646,218.141 159.917,218.141 160.187,218.141 160.458,218.141 160.729,218.141 161.000,218.141 161.271,218.141 161.541,218.141 161.812,218.141 162.083,218.141 162.354,218.141 162.625,218.141 162.896,218.141 163.166,218.141 163.437,218.141 163.708,218.141 163.979,218.141 164.250,218.141 164.521,218.141 164.791,218.141 165.062,218.141 165.333,218.141 165.604,218.141 165.875,218.141 166.145,218.141 166.416,218.141 166.687,218.141 166.958,218.141 167.229,218.141 167.500,218.141 167.770,218.141 168.041,218.141 168.312,218.141 168.583,218.141 168.854,218.141 169.124,218.141 169.395,218.141 169.666,218.141 169.937,218.141 170.208,218.141 170.479,218.141 170.749,218.141 171.020,218.141 171.291,218.141 171.562,218.141 171.833,218.141 172.104,218.141 172.374,218.141 172.645,218.141 172.916,218.141 173.187,218.141 173.458,218.141 173.728,218.141 173.999,218.141 174.270,218.141 174.541,218.141 174.812,218.141 175.083,218.141 175.353,218.141 175.624,218.141 175.895,218.141 176.166,218.141 176.437,218.141 176.708,218.141 176.978,218.141 177.249,218.141 177.520,218.141 177.791,218.141 178.062,218.141 178.332,218.141 178.603,218.141 178.874,218.141 179.145,218.141 179.416,218.141 179.687,218.141 179.957,218.141 180.228,218.141 180.499,218.141 180.770,218.141 181.041,218.141 181.312,218.141 181.582,218.141 181.853,218.141 182.124,218.141 182.395,218.141 182.666,218.141 182.936,218.141 183.207,218.141 183.478,218.141 183.749,218.141 184.020,218.141 184.291,218.141 184.561,218.141 184.832,218.141 185.103,218.141 185.374,218.141 185.645,218.141 185.916,218.141 186.186,218.141 186.457,218.141 186.728,218.141 186.999,218.141 187.270,218.141 187.540,218.141 187.811,218.141 188.082,218.141 188.353,218.141 188.624,218.141 188.895,218.141 189.165,218.141 189.436,218.141 189.707,218.141 189.978,218.141 190.249,218.141 190.519,218.141 190.790,218.141 191.061,218.141 191.332,218.141 191.603,218.141 191.874,218.141 192.144,218.141 192.415,218.141 192.686,218.141 192.957,218.141 193.228,218.141 193.499,218.141 193.769,218.141 194.040,218.141 194.311,218.141 194.582,218.141 194.853,218.141 195.123,218.141 195.394,218.141 195.665,218.141 195.936,218.141 196.207,218.141 196.478,218.141 196.748,218.141 197.019,218.141 197.290,218.141 197.561,218.141 197.832,218.141 198.103,218.141 198.373,218.141 198.644,218.141 198.915,218.141 199.186,218.141 199.457,218.141 199.727,218.141 199.998,218.141 200.269,218.141 200.540,218.141 200.811,218.141 201.082,218.141 201.352,218.141 201.623,218.141 201.894,218.141 202.165,218.141 202.436,218.141 202.707,218.141 202.977,218.141 203.248,218.141 203.519,218.141 203.790,218.141 204.061,218.141 204.331,218.141 204.602,218.141 204.873,218.141 205.144,218.141 205.415,218.141 205.686,218.141 205.956,218.141 206.227,218.141 206.498,218.141 206.769,218.141 207.040,218.141 207.311,218.141 207.581,218.141 207.852,218.141 208.123,218.141 208.394,218.141 208.665,218.141 208.935,218.141 209.206,218.141 209.477,218.141 209.748,218.141 210.019,218.141 210.290,218.141 210.560,218.141 210.831,218.141 211.102,218.141 211.373,218.141 211.644,218.141 211.915,218.141 212.185,218.141 212.456,218.141 212.727,218.141 212.998,218.141 213.269,218.141 213.539,218.141 213.810,218.141 214.081,218.141 214.352,218.141 214.623,218.141 214.894,218.141 215.164,218.141 215.435,218.141 215.706,218.141 215.977,218.141 216.248,218.141 216.518,218.141 216.789,218.141 217.060,218.141 217.331,218.141 217.602,218.141 217.873,218.141 218.143,218.141 218.414,218.141 218.685,218.141 218.956,218.141 219.227,218.141 219.498,218.141 219.768,218.141 220.039,218.141 220.310,218.141 220.581,218.141 220.852,218.141 221.122,218.141 221.393,218.141 221.664,218.141 221.935,218.141 222.206,218.141 222.477,218.141 222.747,218.141 223.018,218.141 223.289,218.141 223.560,218.141 223.831,218.141 224.102,218.141 224.372,218.141 224.643,218.141 224.914,218.141 225.185,218.141 225.456,218.141 225.726,218.141 225.997,218.141 226.268,218.141 226.539,218.141 226.810,218.141 227.081,218.141 227.351,218.141 227.622,218.141 227.893,218.141 228.164,218.141 228.435,218.141 228.706,218.141 228.976,218.141 229.247,218.141 229.518,218.141 229.789,218.141 230.060,218.141 230.330,218.141 230.601,218.141 230.872,218.141 231.143,218.141 231.414,218.141 231.685,218.141 231.955,218.141 232.226,218.141 232.497,218.141 232.768,218.141 233.039,218.141 233.310,218.141 233.580,218.141 233.851,218.141 234.122,218.141 234.393,218.141 234.664,218.141 234.934,218.141 235.205,218.141 235.476,218.141 235.747,218.141 236.018,218.141 236.289,218.141 236.559,218.141 236.830,218.141 237.101,218.141 237.372,218.141 237.643,218.141 237.913,218.141 238.184,218.141 238.455,218.141 238.726,218.141 238.997,218.141 239.268,218.141 239.538,218.141 239.809,218.141 240.080,218.141 240.351,218.141 240.622,218.141 240.893,218.141 241.163,218.141 241.434,218.141 241.705,218.141 241.976,218.141 242.247,218.141 242.517,218.141 242.788,218.141 243.059,218.141 243.330,218.141 243.601,218.141 243.872,218.141 244.142,218.141 244.413,218.141 244.684,218.141 244.955,218.141 245.226,218.141 245.497,218.141 245.767,218.141 246.038,218.141 246.309,218.141 246.580,218.141 246.851,218.141 247.121,218.141 247.392,218.141 247.663,218.141 247.934,218.141 248.205,218.141 248.476,218.141 248.746,218.141 249.017,218.141 249.288,218.141 249.559,218.141 249.830,218.141 250.101,218.141 250.371,218.141 250.642,218.141 250.913,218.141 251.184,218.141 251.455,218.141 251.725,218.141 251.996,218.141 252.267,218.141 252.538,218.141 252.809,218.141 253.080,218.141 253.350,218.141 253.621,218.141 253.892,218.141 254.163,218.141 254.434,218.141 254.705,218.141 254.975,218.141 255.246,218.141 255.517,218.141 255.788,218.141 256.059,218.141 256.329,218.141 256.600,218.141 256.871,218.141 257.142,218.141 257.413,218.141 257.684,218.141 257.954,218.141 258.225,218.141 258.496,218.141 258.767,218.141 259.038,218.141 259.308,218.141 259.579,218.141 259.850,218.141 260.121,218.141 260.392,218.141 260.663,218.141 260.933,218.141 261.204,218.141 261.475,218.141 261.746,218.141 262.017,218.141 262.288,218.141 262.558,218.141 262.829,218.141 263.100,218.141 263.371,218.141 263.642,218.141 263.912,218.141 264.183,218.141 264.454,218.141 264.725,218.141 264.996,218.141 265.267,218.141 265.537,218.141 265.808,218.141 266.079,218.141 266.350,218.141 266.621,218.141 266.892,218.141 267.162,218.141 267.433,218.141 267.704,218.141 267.975,218.141 268.246,218.141 268.516,218.141 268.787,218.141 269.058,218.141 269.329,218.141 269.600,218.141 269.871,218.141 270.141,218.141 270.412,218.141 270.683,218.141 270.954,218.141 271.225,218.141 271.496,218.141 271.766,218.141 272.037,218.141 272.308,218.141 272.579,218.141 272.850,218.141 273.120,218.141 273.391,218.141 273.662,218.141 273.933,218.141 274.204,218.141 274.475,218.141 274.745,218.141 275.016,218.141 275.287,218.141 275.558,218.141 275.829,218.141 276.100,218.141 276.370,218.141 276.641,218.141 276.912,218.141 277.183,218.141 277.454,218.141 277.724,218.141 277.995,218.141 278.266,218.141 278.537,218.141 278.808,218.141 279.079,218.141 279.349,218.141 279.620,218.141 279.891,218.141 280.162,218.141 280.433,218.141 280.704,218.141 280.974,218.141 281.245,218.141 281.516,218.141 281.787,218.141 282.058,218.141 282.328,218.141 282.599,218.141 282.870,218.141 283.141,218.141 283.412,218.141 283.683,218.141 283.953,218.141 284.224,218.141 284.495,218.141 284.766,218.141 285.037,218.141 285.307,218.141 285.578,218.141 285.849,218.141 286.120,218.141 286.391,218.141 286.662,218.141 286.932,218.141 287.203,218.141 287.474,218.141 287.745,218.141 288.016,218.141 288.287,218.141 288.557,218.141 288.828,218.141 289.099,218.141 289.370,218.141 289.641,218.141 289.911,218.141 290.182,218.141 290.453,218.141 290.724,218.141 290.995,218.141 291.266,218.141 291.536,218.141 291.807,218.141 292.078,218.141 292.349,218.141 292.620,218.141 292.891,218.141 293.161,218.141 293.432,218.141 293.703,218.141 293.974,218.141 294.245,218.141 294.515,218.141 294.786,218.141 295.057,218.141 295.328,218.141 295.599,218.141 295.870,218.141 296.140,218.141 296.411,218.141 296.682,218.141 296.953,218.141 297.224,218.141 297.495,218.141 297.765,218.141 298.036,218.141 298.307,218.141 298.578,218.141 298.849,218.141 299.119,218.141 299.390,218.141 299.661,218.141 299.932,218.141 300.203,218.141 300.474,218.141 300.744,218.141 301.015,218.141 301.286,218.141 301.557,218.141 301.828,218.141 302.099,218.141 302.369,218.141 302.640,218.141 302.911,218.141 303.182,218.141 303.453,218.141 303.723,218.141 303.994,218.141 304.265,218.141 304.536,218.141 304.807,218.141 305.078,218.141 305.348,218.141 305.619,218.141 305.890,218.141 306.161,218.141 306.432,218.141 306.702,218.141 306.973,218.141 307.244,218.141 307.515,218.141 307.786,218.141 308.057,218.141 308.327,218.141 308.598,218.141 308.869,218.141 309.140,218.141 309.411,218.141 309.682,218.141 309.952,218.141 310.223,218.141 310.494,218.141 310.765,218.141 311.036,218.141 311.306,218.141 311.577,218.141 311.848,218.141 312.119,218.141 312.390,218.141 312.661,218.141 312.931,218.141 313.202,218.141 313.473,218.141 313.744,218.141 314.015,218.141 314.286,218.141 314.556,218.141 314.827,218.141 315.098,218.141 315.369,218.141 315.640,218.141 315.910,218.141 316.181,218.141 316.452,218.141 316.723,218.141 316.994,218.141 317.265,218.141 317.535,218.141 317.806,218.141 318.077,218.141 318.348,218.141 318.619,218.141 318.890,218.141 319.160,218.141 319.431,218.141 319.702,218.141 319.973,218.141 320.244,218.141 320.514,218.141 320.785,218.141 321.056,218.141 321.327,218.141 321.598,218.141 321.869,218.141 322.139,218.141 322.410,218.141 322.681,218.141 322.952,218.141 323.223,218.141 323.494,218.141 323.764,218.141 324.035,218.141 324.306,218.141 324.577,218.141 324.848,218.141 325.118,218.141 325.389,218.141 325.660,218.141 325.931,218.141 326.202,218.141 326.473,218.141 326.743,218.141 327.014,218.141 327.285,218.141 327.556,218.141 327.827,218.141 328.097,218.141 328.368,218.141 328.639,218.141 328.910,218.141 329.181,218.141 329.452,218.141 329.722,218.141 329.993,218.141 330.264,218.141 330.535,218.141 330.806,218.141 331.077,218.141 331.347,218.141 331.618,218.141 331.889,218.141 332.160,218.141 332.431,218.141 332.701,218.141 332.972,218.141 333.243,218.141 333.514,218.141 333.785,218.141 334.056,218.141 334.326,218.141 334.597,218.141 334.868,218.141 335.139,218.141 335.410,218.141 335.681,218.141 335.951,218.141 336.222,218.141 336.493,218.141 336.764,218.141 337.035,218.141 337.305,218.141 337.576,218.141 337.847,218.141 338.118,218.141 338.389,218.141 338.660,218.141 338.930,218.141 339.201,218.141 339.472,218.141 339.743,218.141 340.014,218.141 340.285,218.141 340.555,218.141 340.826,218.141 341.097,218.141 341.368,218.141 341.639,218.141 341.909,218.141 342.180,218.141 342.451,218.141 342.722,218.141 342.993,218.141 343.264,218.141 343.534,218.141 343.805,218.141 344.076,218.141 344.347,218.141 344.618,218.141 344.889,218.141 345.159,218.141 345.430,218.141 345.701,218.141 345.972,218.141 346.243,218.141 346.513,218.141 346.784,218.141 347.055,218.141 347.326,218.141 347.597,218.141 347.868,218.141 348.138,218.141 348.409,218.141 348.680,218.141 348.951,218.141 349.222,218.141 349.493,218.141 349.763,218.141 350.034,218.141 350.305,218.141 350.576,218.141 350.847,218.141 351.117,218.141 351.388,218.141 351.659,218.141 351.930,218.141 352.201,218.141 352.472,218.141 352.742,218.141 353.013,218.141 353.284,218.141 353.555,218.141 353.826,218.141 354.096,218.141 354.367,218.141 354.638,218.141 354.909,218.141 355.180,218.141 355.451,218.141 355.721,218.141 355.992,218.141 356.263,218.141 356.534,218.141 356.805,218.141 357.076,218.141 357.346,218.141 357.617,218.141 357.888,218.141 358.159,218.141 358.430,218.141 358.700,218.141 358.971,218.141 359.242,218.141 359.513,218.141 359.784,218.141 360.055,218.141 360.325,218.141 360.596,218.141 360.867,218.141 361.138,218.141 361.409,218.141 361.680,218.141 361.950,218.141 362.221,218.141 362.492,218.141 362.763,218.141 363.034,218.141 363.304,218.141 363.575,218.141 363.846,218.141 364.117,218.141 364.388,218.141 364.659,218.141 364.929,218.141 365.200,218.141 365.471,218.141 365.742,218.141 366.013,218.141 366.284,218.141 366.554,218.141 366.825,218.141 367.096,218.141 367.367,218.141 367.638,218.141 367.908,218.141 368.179,218.141 368.450,218.141 368.721,218.141 368.992,218.141 369.263,218.141 369.533,218.141 369.804,218.141 370.075,218.141 370.346,218.141 370.617,218.141 370.888,218.141 371.158,218.141 371.429,218.141 371.700,218.141 371.971,218.141 372.242,218.141 372.512,218.141 372.783,218.141 373.054,218.141 373.325,218.141 373.596,218.141 373.867,218.141 374.137,218.141 374.408,218.141 374.679,218.141 374.950,218.141 375.221,218.141 375.491,218.141 375.762,218.141 376.033,218.141 376.304,218.141 376.575,218.141 376.846,218.141 377.116,218.141 377.387,218.141 377.658,218.141 377.929,218.141 378.200,218.141 378.471,218.141 378.741,218.141 379.012,218.141 379.283,218.141 379.554,218.141 379.825,218.141 380.095,218.141 380.366,218.141 380.637,218.141 380.908,218.141 381.179,218.141 381.450,218.141 381.720,218.141 381.991,218.141 382.262,218.141 382.533,218.141 382.804,218.141 383.075,218.141 383.345,218.141 383.616,218.141 383.887,218.141 384.158,218.141 384.429,218.141 384.699,218.141 384.970,218.141 385.241,218.141 385.512,218.141 385.783,218.141 386.054,218.141 386.324,218.141 386.595,218.141 386.866,218.141 387.137,218.141 387.408,218.141 387.679,218.141 387.949,218.141 388.220,218.141 388.491,218.141 388.762,218.141 389.033,218.141 389.303,218.141 389.574,218.141 389.845,218.141 390.116,218.141 390.387,218.141 390.658,218.141 390.928,218.141 391.199,218.141 391.470,218.141 391.741,218.141 392.012,218.141 392.283,218.141 392.553,218.141 392.824,218.141 393.095,218.141 393.366,218.141 393.637,218.141 393.907,218.141 394.178,218.141 394.449,218.141 394.720,218.141 394.991,218.141 395.262,218.141 395.532,218.141 395.803,218.141 396.074,218.141 396.345,218.141 396.616,218.141 396.886,218.141 397.157,218.141 397.428,218.141 397.699,218.141 397.970,218.141 398.241,218.141 398.511,218.141 398.782,218.141 399.053,218.141 399.324,218.141 399.595,218.141 399.866,218.141 400.136,218.141 400.407,218.141 400.678,218.141 400.949,218.141 401.220,218.141 401.490,218.141 401.761,218.141 402.032,218.141 402.303,218.141 402.574,218.141 402.845,218.141 403.115,218.141 403.386,218.141 403.657,218.141 403.928,218.141 404.199,218.141 404.470,218.141 404.740,218.141 405.011,218.141 405.282,218.141 405.553,218.141 405.824,218.141 406.094,218.141 406.365,218.141 406.636,218.141 406.907,218.141 407.178,218.141 407.449,218.141 407.719,218.141 407.990,218.141 408.261,218.141 408.532,218.141 408.803,218.141 409.074,218.141 409.344,218.141 409.615,218.141 409.886,218.141 410.157,218.141 410.428,218.141 410.698,218.141 410.969,218.141 411.240,218.141 411.511,218.141 411.782,218.141 412.053,218.141 412.323,218.141 412.594,218.141 412.865,218.141 413.136,218.141 413.407,218.141 413.678,218.141 413.948,218.141 414.219,218.141 414.490,218.141 414.761,218.141 415.032,218.141 415.302,218.141 415.573,218.141 415.844,218.141 416.115,218.141 416.386,218.141 416.657,218.141 416.927,218.141 417.198,218.141 417.469,218.141 417.740,218.141 418.011,218.141 418.282,218.141 418.552,218.141 418.823,218.141 419.094,218.141 419.365,218.141 419.636,218.141 419.906,218.141 420.177,218.141 420.448,218.141 420.719,218.141 420.990,218.141 421.261,218.141 421.531,218.141 421.802,218.141 422.073,218.141 422.344,218.141 422.615,218.141 422.885,218.141 423.156,218.141 423.427,218.141 423.698,218.141 423.969,218.141 424.240,218.141 424.510,218.141 424.781,218.141 425.052,218.141 425.323,218.141 425.594,218.141 425.865,218.141 426.135,218.141 426.406,218.141 426.677,218.141 426.948,218.141 427.219,218.141 427.489,218.141 427.760,218.141 428.031,218.141 428.302,218.141 428.573,218.141 428.844,218.141 429.114,218.141 429.385,218.141 429.656,218.141 429.927,218.141 430.198,218.141 430.469,218.141 430.739,218.141 431.010,218.141 431.281,218.141 431.552,218.141 431.823,218.141 432.093,218.141 432.364,218.141 432.635,218.141 432.906,218.141 433.177,218.141 433.448,218.141 433.718,218.141 433.989,218.141 434.260,218.141 434.531,218.141 434.802,218.141 435.073,218.141 435.343,218.141 435.614,218.141 435.885,218.141 436.156,218.141 436.427,218.141 436.697,218.141 436.968,218.141 437.239,218.141 437.510,218.141 437.781,218.141 438.052,218.141 438.322,218.141 438.593,218.141 438.864,218.141 439.135,218.141 439.406,218.141 439.677,218.141 439.947,218.141 440.218,218.141 440.489,218.141 440.760,218.141 441.031,218.141 441.301,218.141 441.572,218.141 441.843,218.141 442.114,218.141 442.385,218.141 442.656,218.141 442.926,218.141 443.197,218.141 443.468,218.141 443.739,218.141 444.010,218.141 444.280,218.141 444.551,218.141 444.822,218.141 445.093,218.141 445.364,218.141 445.635,218.141 445.905,218.141 446.176,218.141 446.447,218.141 446.718,218.141 446.989,218.141 447.260,218.141 447.530,218.141 447.801,218.141 448.072,218.141 448.343,218.141 448.614,218.141 448.884,218.141 449.155,218.141 449.426,218.141 449.697,218.141 449.968,218.141 450.239,218.141 450.509,218.141 450.780,218.141 451.051,218.141 451.322,218.141 451.593,218.141 451.864,218.141 452.134,218.141 452.405,218.141 452.676,218.141 452.947,218.141 453.218,218.141 453.488,218.141 453.759,218.128 454.030,217.891 454.301,215.364 454.572,200.330 454.843,152.104 455.113,76.578 455.384,42.684 455.655,92.407 455.926,166.046 456.197,205.662 456.468,216.413 456.738,218.003 457.009,218.135 457.280,218.141 457.551,218.141 457.822,218.141 458.092,218.141 458.363,218.141 458.634,218.141 458.905,218.141 459.176,218.141 459.447,218.141 459.717,218.141 459.988,218.141 460.259,218.141 460.530,218.141 460.801,218.141 461.072,218.141 461.342,218.141 461.613,218.141 461.884,218.141 462.155,218.141 462.426,218.141 462.696,218.141 462.967,218.141 463.238,218.141 463.509,218.141 463.780,218.141 464.051,218.141 464.321,218.141 464.592,218.141 464.863,218.141 465.134,218.141 465.405,218.141 465.675,218.141 465.946,218.141 466.217,218.141 466.488,218.141 466.759,218.141 467.030,218.141 467.300,218.141 467.571,218.141 467.842,218.141 468.113,218.141 468.384,218.141 468.655,218.141 468.925,218.141 469.196,218.141 469.467,218.141 469.738,218.141 470.009,218.141 470.279,218.141 470.550,218.141 470.821,218.141 471.092,218.141 471.363,218.141 471.634,218.141 471.904,218.141 472.175,218.141 472.446,218.141 472.717,218.141 472.988,218.141 473.259,218.141 473.529,218.141 473.800,218.141 474.071,218.141 474.342,218.141 474.613,218.141 474.883,218.141 475.154,218.141 475.425,218.141 475.696,218.141 475.967,218.141 476.238,218.141 476.508,218.141 476.779,218.141 477.050,218.141 477.321,218.141 477.592,218.141 477.863,218.141 478.133,218.141 478.404,218.141 478.675,218.141 478.946,218.141 479.217,218.141 479.487,218.141 479.758,218.141 480.029,218.141 480.300,218.141 480.571,218.141 480.842,218.141 481.112,218.141 481.383,218.141 481.654,218.141 481.925,218.141 482.196,218.141 482.467,218.141 482.737,218.141 483.008,218.141 483.279,218.141 483.550,218.141 483.821,218.141 484.091,218.141 484.362,218.141 484.633,218.141 484.904,218.141 485.175,218.141 485.446,218.141 485.716,218.141 485.987,218.141 486.258,218.141 486.529,218.141 486.800,218.141 487.071,218.141 487.341,218.141 487.612,218.141 487.883,218.141 488.154,218.141 488.425,218.141 488.695,218.141 488.966,218.141 489.237,218.141 489.508,218.141 489.779,218.141 490.050,218.141 490.320,218.141 490.591,218.141 490.862,218.141 491.133,218.141 491.404,218.141 491.674,218.141 491.945,218.141 492.216,218.141 492.487,218.141 492.758,218.141 493.029,218.141 493.299,218.141 493.570,218.141 493.841,218.141 494.112,218.141 494.383,218.141 494.654,218.141 494.924,218.141 495.195,218.141 495.466,218.141 495.737,218.141 496.008,218.141 496.278,218.141 496.549,218.141 496.820,218.141 497.091,218.141 497.362,218.141 497.633,218.141 497.903,218.141 498.174,218.141 498.445,218.141 498.716,218.141 498.987,218.141 499.258,218.141 499.528,218.141 499.799,218.141 500.070,218.141 500.341,218.141 500.612,218.141 500.882,218.141 501.153,218.141 501.424,218.141 501.695,218.141 501.966,218.141 502.237,218.141 502.507,218.141 502.778,218.141 503.049,218.141 503.320,218.141 503.591,218.141 503.862,218.141 504.132,218.141 504.403,218.141 504.674,218.141 504.945,218.141 505.216,218.141 505.486,218.141 505.757,218.141 506.028,218.141 506.299,218.141 506.570,218.141 506.841,218.141 507.111,218.141 507.382,218.141 507.653,218.141 507.924,218.141 508.195,218.141 508.466,218.141 508.736,218.141 509.007,218.141 509.278,218.141 509.549,218.141 509.820,218.141 510.090,218.141 510.361,218.141 510.632,218.141 510.903,218.141 511.174,218.141 511.445,218.141 511.715,218.141 511.986,218.141 512.257,218.141 512.528,218.141 512.799,218.141 513.069,218.141 513.340,218.141 513.611,218.141 513.882,218.141 514.153,218.141 514.424,218.141 514.694,218.141 514.965,218.141 515.236,218.141 515.507,218.141 515.778,218.141 516.049,218.141 516.319,218.141 516.590,218.141 516.861,218.141 517.132,218.141 517.403,218.141 517.673,218.141 517.944,218.141 518.215,218.141 518.486,218.141 518.757,218.141 519.028,218.141 519.298,218.141 519.569,218.141 519.840,218.141 520.111,218.141 520.382,218.141 520.653,218.141 520.923,218.141 521.194,218.141 521.465,218.141 521.736,218.141 522.007,218.141 522.277,218.141 522.548,218.141 522.819,218.141 523.090,218.141 523.361,218.141 523.632,218.141 523.902,218.141 524.173,218.141 524.444,218.141 524.715,218.141 524.986,218.141 525.257,218.141 525.527,218.141 525.798,218.141 526.069,218.141 526.340,218.141 526.611,218.141 526.881,218.141 527.152,218.141 527.423,218.141 527.694,218.141 527.965,218.141 528.236,218.141 528.506,218.141 528.777,218.141 529.048,218.141 529.319,218.141 529.590,218.141 529.861,218.141 530.131,218.141 530.402,218.141 530.673,218.141 530.944,218.141 531.215,218.141 531.485,218.141 531.756,218.141 532.027,218.141 532.298,218.141 532.569,218.141 532.840,218.141 533.110,218.141 533.381,218.141 533.652,218.141 533.923,218.141 534.194,218.141 534.464,218.141 534.735,218.141 535.006,218.141 535.277,218.141 535.548,218.141 535.819,218.141 536.089,218.141 536.360,218.141 536.631,218.141 536.902,218.141 537.173,218.141 537.444,218.141 537.714,218.141 537.985,218.141 538.256,218.141 538.527,218.141 538.798,218.141 539.068,218.141 539.339,218.141 539.610,218.141 539.881,218.141 540.152,218.141 540.423,218.141 540.693,218.141 540.964,218.141 541.235,218.141 541.506,218.141 541.777,218.141 542.048,218.141 542.318,218.141 542.589,218.141 542.860,218.141 543.131,218.141 543.402,218.141 543.672,218.141 543.943,218.141 544.214,218.141 544.485,218.141 544.756,218.141 545.027,218.141 545.297,218.141 545.568,218.141 545.839,218.141 546.110,218.141 546.381,218.141 546.652,218.141 546.922,218.141 547.193,218.141 547.464,218.141 547.735,218.141 548.006,218.141 548.276,218.141 548.547,218.141 548.818,218.141 549.089,218.141 549.360,218.141 549.631,218.141 549.901,218.141 550.172,218.141 550.443,218.141 550.714,218.141 550.985,218.141 551.256,218.141 551.526,218.141 551.797,218.141 552.068,218.141 552.339,218.141 552.610,218.141 552.880,218.141 553.151,218.141 553.422,218.141 553.693,218.141 553.964,218.141 554.235,218.141 554.505,218.141 554.776,218.141 555.047,218.141 555.318,218.141 555.589,218.141 555.860,218.141 556.130,218.141 556.401,218.141 556.672,218.141 556.943,218.141 557.214,218.141 557.484,218.141 557.755,218.141 558.026,218.141 558.297,218.141 558.568,218.141 558.839,218.141 559.109,218.141 559.380,218.141 559.651,218.141 559.922,218.141 560.193,218.141 560.463,218.141 560.734,218.141 561.005,218.141 561.276,218.141 561.547,218.141 561.818,218.141 562.088,218.141 562.359,218.141 562.630,218.141 562.901,218.141 563.172,218.141 563.443,218.141 563.713,218.141 563.984,218.141 564.255,218.141 564.526,218.141 564.797,218.141 565.067,218.141 565.338,218.141 565.609,218.141 565.880,218.141 566.151,218.141 566.422,218.141 566.692,218.141 566.963,218.141 567.234,218.141 567.505,218.141 567.776,218.141 568.047,218.141 568.317,218.141 568.588,218.141 568.859,218.141 569.130,218.141 569.401,218.141 569.671,218.141 569.942,218.141 570.213,218.141 570.484,218.141 570.755,218.141 571.026,218.141 571.296,218.141 571.567,218.141 571.838,218.141 572.109,218.141 572.380,218.141 572.651,218.141 572.921,218.141 573.192,218.141 573.463,218.141 573.734,218.141 574.005,218.141 574.275,218.141 574.546,218.141 574.817,218.141 575.088,218.141 575.359,218.141 575.630,218.141 575.900,218.141 576.171,218.141 576.442,218.141 576.713,218.141 576.984,218.141 577.255,218.141 577.525,218.141 577.796,218.141 578.067,218.141 578.338,218.141 578.609,218.141 578.879,218.141 579.150,218.141 579.421,218.141 579.692,218.141 579.963,218.141 580.234,218.141 580.504,218.141 580.775,218.141 581.046,218.141 581.317,218.141 581.588,218.141 581.858,218.141 582.129,218.141 582.400,218.141 582.671,218.141 582.942,218.141 583.213,218.141 583.483,218.141 583.754,218.141 584.025,218.141 584.296,218.141 584.567,218.141 584.838,218.141 585.108,218.141 585.379,218.141 585.650,218.141 585.921,218.141 586.192,218.141 586.462,218.141 586.733,218.141 587.004,218.141 587.275,218.141 587.546,218.141 587.817,218.141 588.087,218.141 588.358,218.141 588.629,218.141 588.900,218.141 589.171,218.141 589.442,218.141 589.712,218.141 589.983,218.141 590.254,218.141 590.525,218.141 590.796,218.141 591.066,218.141 591.337,218.141 591.608,218.141 591.879,218.141 592.150,218.141 592.421,218.141 592.691,218.141 592.962,218.141 593.233,218.141 593.504,218.141 593.775,218.141 594.046,218.141 594.316,218.141 594.587,218.141 594.858,218.141 595.129,218.141 595.400,218.141 595.670,218.141 595.941,218.141 596.212,218.141 596.483,218.141 596.754,218.141 597.025,218.141 597.295,218.141 597.566,218.141 597.837,218.141 598.108,218.141 598.379,218.141 598.650,218.141 598.920,218.141 599.191,218.141 599.462,218.141 599.733,218.141 600.004,218.141 600.274,218.141 600.545,218.141 600.816,218.141 601.087,218.141 601.358,218.141 601.629,218.141 601.899,218.141 602.170,218.141 602.441,218.141 602.712,218.141 602.983,218.141 603.253,218.141 603.524,218.141 603.795,218.141 604.066,218.141 604.337,218.141 604.608,218.141 604.878,218.141 605.149,218.141 605.420,218.141 605.691,218.141 605.962,218.141 606.233,218.141 606.503,218.141 606.774,218.141 607.045,218.141 607.316,218.141 607.587,218.141 607.857,218.141 608.128,218.141 608.399,218.141 608.670,218.141 608.941,218.141 609.212,218.141 609.482,218.141 609.753,218.141 610.024,218.141 610.295,218.141 610.566,218.141 610.837,218.141 611.107,218.141 611.378,218.141 611.649,218.141 611.920,218.141 612.191,218.141 612.461,218.141 612.732,218.141 613.003,218.141 613.274,218.141 613.545,218.141 613.816,218.141 614.086,218.141 614.357,218.141 614.628,218.141 614.899,218.141 615.170,218.141 615.441,218.141 615.711,218.141 615.982,218.141 616.253,218.141 616.524,218.141 616.795,218.141 617.065,218.141 617.336,218.141 617.607,218.141 617.878,218.141 618.149,218.141 618.420,218.141 618.690,218.141 618.961,218.141 619.232,218.141 619.503,218.141 619.774,218.141 620.045,218.141 620.315,218.141 620.586,218.141 620.857,218.141 621.128,218.141 621.399,218.141 621.669,218.141 621.940,218.141 622.211,218.141 622.482,218.141 622.753,218.141 623.024,218.141 623.294,218.141 623.565,218.141 623.836,218.141 624.107,218.141 624.378,218.141 624.649,218.141 624.919,218.141 625.190,218.141 625.461,218.141 625.732,218.141 626.003,218.141 626.273,218.141 626.544,218.141 626.815,218.141 627.086,218.141 627.357,218.141 627.628,218.141 627.898,218.141 628.169,218.141 628.440,218.141 628.711,218.141 628.982,218.141 629.252,218.141 629.523,218.141 629.794,218.141 630.065,218.141 630.336,218.141 630.607,218.141 630.877,218.141 631.148,218.141 631.419,218.141 631.690,218.141 631.961,218.141 632.232,218.141 632.502,218.141 "/>
<g>
</g>
</g>
<g id="ID000003" >
  <g transform="translate(361.056,30.565)">
    <g transform="rotate(-0.0)">
      <text x="0.000" y="0.000" font-family="Helvetica" text-anchor="middle" font-size="12pt" fill="#000000" >l = 0.16, x* = -0.50</text>
    </g>
  </g>
</g>
<g id="ID000004" >
</g>
<g id="ID000005" >
</g>
    </g>
    <g>
      <polyline fill="none" stroke="#000000" stroke-width="0.5pt" stroke-dasharray="none" points="145.021,218.141 145.021,212.725 "/>
      <polyline fill="none" stroke="#000000" stroke-width="0.5pt" stroke-dasharray="none" points="199.186,218.141 199.186,212.725 "/>
      <polyline fill="none" stroke="#000000" stroke-width="0.5pt" stroke-dasharray="none" points="253.350,218.141 253.350,212.725 "/>
      <polyline fill="none" stroke="#000000" stroke-width="0.5pt" stroke-dasharray="none" points="307.515,218.141 307.515,212.725 "/>
      <polyline fill="none" stroke="#000000" stroke-width="0.5pt" stroke-dasharray="none" points="361.680,218.141 361.680,212.725 "/>
      <polyline fill="none" stroke="#000000" stroke-width="0.5pt" stroke-dasharray="none" points="415.844,218.141 415.844,212.725 "/>
      <polyline fill="none" stroke="#000000" stroke-width="0.5pt" stroke-dasharray="none" points="470.009,218.141 470.009,212.725 "/>
      <polyline fill="none" stroke="#000000" stroke-width="0.5pt" stroke-dasharray="none" points="524.173,218.141 524.173,212.725 "/>
      <polyline fill="none" stroke="#000000" stroke-width="0.5pt" stroke-dasharray="none" points="578.338,218.141 578.338,212.725 "/>
      <polyline fill="none" stroke="#000000" stroke-width="0.5pt" stroke-dasharray="none" points="90.857,218.141 632.502,218.141 "/>
      <polyline fill="none" stroke="#000000" stroke-width="0.5pt" stroke-dasharray="none" points="145.021,39.313 145.021,44.729 "/>
      <polyline fill="none" stroke="#000000" stroke-width="0.5pt" stroke-dasharray="none" points="199.186,39.313 199.186,44.729 "/>
      <polyline fill="none" stroke="#000000" stroke-width="0.5pt" stroke-dasharray="none" points="253.350,39.313 253.350,44.729 "/>
      <polyline fill="none" stroke="#000000" stroke-width="0.5pt" stroke-dasharray="none" points="307.515,39.313 307.515,44.729 "/>
      <polyline fill="none" stroke="#000000" stroke-width="0.5pt" stroke-dasharray="none" points="361.680,39.313 361.680,44.729 "/>
      <polyline fill="none" stroke="#000000" stroke-width="0.5pt" stroke-dasharray="none" points="415.844,39.313 415.844,44.729 "/>
      <polyline fill="none" stroke="#000000" stroke-width="0.5pt" stroke-dasharray="none" points="470.009,39.313 470.009,44.729 "/>
      <polyline fill="none" stroke="#000000" stroke-width="0.5pt" stroke-dasharray="none" points="524.173,39.313 524.173,44.729 "/>
      <polyline fill="none" stroke="#000000" stroke-width="0.5pt" stroke-dasharray="none" points="578.338,39.313 578.338,44.729 "/>
      <polyline fill="none" stroke="#000000" stroke-width="0.5pt" stroke-dasharray="none" points="90.857,39.313 632.502,39.313 "/>
  <g transform="translate(90.857,236.445)">
    <g transform="rotate(-0.0)">
      <text x="0.000" y="0.000" font-family="Helvetica" text-anchor="middle" font-size="12pt" fill="#000000" >-1</text>
    </g>
  </g>
  <g transform="translate(145.021,236.445)">
    <g transform="rotate(-0.0)">
      <text x="0.000" y="0.000" font-family="Helvetica" text-anchor="middle" font-size="12pt" fill="#000000" >-0.8</text>
    </g>
  </g>
  <g transform="translate(199.186,236.445)">
    <g transform="rotate(-0.0)">
      <text x="0.000" y="0.000" font-family="Helvetica" text-anchor="middle" font-size="12pt" fill="#000000" >-0.6</text>
    </g>
  </g>
  <g transform="translate(253.350,236.445)">
    <g transform="rotate(-0.0)">
      <text x="0.000" y="0.000" font-family="Helvetica" text-anchor="middle" font-size="12pt" fill="#000000" >-0.4</text>
    </g>
  </g>
  <g transform="translate(307.515,236.445)">
    <g transform="rotate(-0.0)">
      <text x="0.000" y="0.000" font-family="Helvetica" text-anchor="middle" font-size="12pt" fill="#000000" >-0.2</text>
    </g>
  </g>
  <g transform="translate(361.680,236.445)">
    <g transform="rotate(-0.0)">
      <text x="0.000" y="0.000" font-family="Helvetica" text-anchor="middle" font-size="12pt" fill="#000000" >0</text>
    </g>
  </g>
  <g transform="translate(415.844,236.445)">
    <g transform="rotate(-0.0)">
      <text x="0.000" y="0.000" font-family="Helvetica" text-anchor="middle" font-size="12pt" fill="#000000" >0.2</text>
    </g>
  </g>
  <g transform="translate(470.009,236.445)">
    <g transform="rotate(-0.0)">
      <text x="0.000" y="0.000" font-family="Helvetica" text-anchor="middle" font-size="12pt" fill="#000000" >0.4</text>
    </g>
  </g>
  <g transform="translate(524.173,236.445)">
    <g transform="rotate(-0.0)">
      <text x="0.000" y="0.000" font-family="Helvetica" text-anchor="middle" font-size="12pt" fill="#000000" >0.6</text>
    </g>
  </g>
  <g transform="translate(578.338,236.445)">
    <g transform="rotate(-0.0)">
      <text x="0.000" y="0.000" font-family="Helvetica" text-anchor="middle" font-size="12pt" fill="#000000" >0.8</text>
    </g>
  </g>
  <g transform="translate(632.502,236.445)">
    <g transform="rotate(-0.0)">
      <text x="0.000" y="0.000" font-family="Helvetica" text-anchor="middle" font-size="12pt" fill="#000000" >1</text>
    </g>
  </g>
      <polyline fill="none" stroke="#000000" stroke-width="0.5pt" stroke-dasharray="none" points="90.857,188.337 96.273,188.337 "/>
      <polyline fill="none" stroke="#000000" stroke-width="0.5pt" stroke-dasharray="none" points="90.857,158.532 96.273,158.532 "/>
      <polyline fill="none" stroke="#000000" stroke-width="0.5pt" stroke-dasharray="none" points="90.857,128.727 96.273,128.727 "/>
      <polyline fill="none" stroke="#000000" stroke-width="0.5pt" stroke-dasharray="none" points="90.857,98.922 96.273,98.922 "/>
      <polyline fill="none" stroke="#000000" stroke-width="0.5pt" stroke-dasharray="none" points="90.857,69.118 96.273,69.118 "/>
      <polyline fill="none" stroke="#000000" stroke-width="0.5pt" stroke-dasharray="none" points="90.857,218.141 90.857,39.313 "/>
      <polyline fill="none" stroke="#000000" stroke-width="0.5pt" stroke-dasharray="none" points="632.502,188.337 627.086,188.337 "/>
      <polyline fill="none" stroke="#000000" stroke-width="0.5pt" stroke-dasharray="none" points="632.502,158.532 627.086,158.532 "/>
      <polyline fill="none" stroke="#000000" stroke-width="0.5pt" stroke-dasharray="none" points="632.502,128.727 627.086,128.727 "/>
      <polyline fill="none" stroke="#000000" stroke-width="0.5pt" stroke-dasharray="none" points="632.502,98.922 627.086,98.922 "/>
      <polyline fill="none" stroke="#000000" stroke-width="0.5pt" stroke-dasharray="none" points="632.502,69.118 627.086,69.118 "/>
      <polyline fill="none" stroke="#000000" stroke-width="0.5pt" stroke-dasharray="none" points="632.502,218.141 632.502,39.313 "/>
  <g transform="translate(80.024,223.758)">
    <g transform="rotate(-0.0)">
      <text x="0.000" y="0.000" font-family="Helvetica" text-anchor="end" font-size="12pt" fill="#000000" >0</text>
    </g>
  </g>
  <g transform="translate(80.024,193.953)">
    <g transform="rotate(-0.0)">
      <text x="0.000" y="0.000" font-family="Helvetica" text-anchor="end" font-size="12pt" fill="#000000" >50</text>
    </g>
  </g>
  <g transform="translate(80.024,164.148)">
    <g transform="rotate(-0.0)">
      <text x="0.000" y="0.000" font-family="Helvetica" text-anchor="end" font-size="12pt" fill="#000000" >100</text>
    </g>
  </g>
  <g transform="translate(80.024,134.343)">
    <g transform="rotate(-0.0)">
      <text x="0.000" y="0.000" font-family="Helvetica" text-anchor="end" font-size="12pt" fill="#000000" >150</text>
    </g>
  </g>
  <g transform="translate(80.024,104.539)">
    <g transform="rotate(-0.0)">
      <text x="0.000" y="0.000" font-family="Helvetica" text-anchor="end" font-size="12pt" fill="#000000" >200</text>
    </g>
  </g>
  <g transform="translate(80.024,74.734)">
    <g transform="rotate(-0.0)">
      <text x="0.000" y="0.000" font-family="Helvetica" text-anchor="end" font-size="12pt" fill="#000000" >250</text>
    </g>
  </g>
  <g transform="translate(80.024,44.929)">
    <g transform="rotate(-0.0)">
      <text x="0.000" y="0.000" font-family="Helvetica" text-anchor="end" font-size="12pt" fill="#000000" >300</text>
    </g>
  </g>
      <polyline fill="none" stroke="#000000" stroke-width="0.5pt" stroke-dasharray="none" points="90.857,218.141 90.857,216.353 "/>
      <polyline fill="none" stroke="#000000" stroke-width="0.5pt" stroke-dasharray="none" points="90.857,218.141 90.857,218.141 "/>
    </g>
  </g>
  <g id ="ID000006">
  <clipPath id="ID000007">
    <rect x="90.857" y="287.686" width="541.646" height="178.828"/>
  </clipPath>
      <polygon fill="#ffffff" fill-opacity="1.00" stroke="none" stroke-width="0.5pt" stroke-opacity="1.00" stroke-dasharray="none" points="90.857,466.514 632.502,466.514 632.502,287.686 90.857,287.686 "/>
      <polygon fill="#ffffff" fill-opacity="1.00" stroke="none" stroke-width="0.5pt" stroke-opacity="1.00" stroke-dasharray="none" points="90.857,287.686 632.502,287.686 632.502,287.686 90.857,287.686 "/>
      <polygon fill="#ffffff" fill-opacity="1.00" stroke="none" stroke-width="0.5pt" stroke-opacity="1.00" stroke-dasharray="none" points="90.857,466.514 90.857,466.514 90.857,287.686 90.857,287.686 "/>
    <g>
<g id="ID000008" clip-path="url(#ID000007)" >
      <polyline fill="none" stroke="#0000ff" stroke-width="0.5pt" stroke-dasharray="none" points="90.857,446.153 91.128,446.037 91.398,445.921 91.669,445.804 91.940,445.688 92.211,445.571 92.482,445.454 92.752,445.337 93.023,445.220 93.294,445.103 93.565,444.985 93.836,444.868 94.107,444.750 94.377,444.632 94.648,444.514 94.919,444.396 95.190,444.278 95.461,444.160 95.732,444.041 96.002,443.922 96.273,443.804 96.544,443.685 96.815,443.566 97.086,443.446 97.356,443.327 97.627,443.207 97.898,443.088 98.169,442.968 98.440,442.848 98.711,442.728 98.981,442.608 99.252,442.488 99.523,442.367 99.794,442.247 100.065,442.126 100.335,442.005 100.606,441.884 100.877,441.763 101.148,441.642 101.419,441.520 101.690,441.399 101.960,441.277 102.231,441.155 102.502,441.033 102.773,440.911 103.044,440.789 103.315,440.666 103.585,440.544 103.856,440.421 104.127,440.299 104.398,440.176 104.669,440.053 104.939,439.929 105.210,439.806 105.481,439.683 105.752,439.559 106.023,439.435 106.294,439.312 106.564,439.188 106.835,439.064 107.106,438.939 107.377,438.815 107.648,438.690 107.919,438.566 108.189,438.441 108.460,438.316 108.731,438.191 109.002,438.066 109.273,437.941 109.543,437.815 109.814,437.690 110.085,437.564 110.356,437.438 110.627,437.312 110.898,437.186 111.168,437.060 111.439,436.934 111.710,436.807 111.981,436.681 112.252,436.554 112.523,436.427 112.793,436.300 113.064,436.173 113.335,436.046 113.606,435.918 113.877,435.791 114.147,435.663 114.418,435.536 114.689,435.408 114.960,435.280 115.231,435.152 115.502,435.023 115.772,434.895 116.043,434.766 116.314,434.638 116.585,434.509 116.856,434.380 117.127,434.251 117.397,434.122 117.668,433.993 117.939,433.863 118.210,433.734 118.481,433.604 118.751,433.474 119.022,433.345 119.293,433.215 119.564,433.084 119.835,432.954 120.106,432.824 120.376,432.693 120.647,432.563 120.918,432.432 121.189,432.301 121.460,432.170 121.730,432.039 122.001,431.908 122.272,431.776 122.543,431.645 122.814,431.513 123.085,431.382 123.355,431.250 123.626,431.118 123.897,430.986 124.168,430.854 124.439,430.721 124.710,430.589 124.980,430.456 125.251,430.324 125.522,430.191 125.793,430.058 126.064,429.925 126.334,429.792 126.605,429.659 126.876,429.525 127.147,429.392 127.418,429.258 127.689,429.124 127.959,428.991 128.230,428.857 128.501,428.722 128.772,428.588 129.043,428.454 129.314,428.320 129.584,428.185 129.855,428.050 130.126,427.916 130.397,427.781 130.668,427.646 130.938,427.511 131.209,427.376 131.480,427.240 131.751,427.105 132.022,426.969 132.293,426.834 132.563,426.698 132.834,426.562 133.105,426.426 133.376,426.290 133.647,426.154 133.918,426.017 134.188,425.881 134.459,425.744 134.730,425.608 135.001,425.471 135.272,425.334 135.542,425.197 135.813,425.060 136.084,424.923 136.355,424.785 136.626,424.648 136.897,424.511 137.167,424.373 137.438,424.235 137.709,424.097 137.980,423.959 138.251,423.821 138.522,423.683 138.792,423.545 139.063,423.407 139.334,423.268 139.605,423.130 139.876,422.991 140.146,422.852 140.417,422.713 140.688,422.574 140.959,422.435 141.230,422.296 141.501,422.157 141.771,422.017 142.042,421.878 142.313,421.738 142.584,421.599 142.855,421.459 143.126,421.319 143.396,421.179 143.667,421.039 143.938,420.899 144.209,420.758 144.480,420.618 144.750,420.478 145.021,420.337 145.292,420.196 145.563,420.056 145.834,419.915 146.105,419.774 146.375,419.633 146.646,419.492 146.917,419.350 147.188,419.209 147.459,419.068 147.729,418.926 148.000,418.784 148.271,418.643 148.542,418.501 148.813,418.359 149.084,418.217 149.354,418.075 149.625,417.933 149.896,417.790 150.167,417.648 150.438,417.506 150.709,417.363 150.979,417.220 151.250,417.078 151.521,416.935 151.792,416.792 152.063,416.649 152.333,416.506 152.604,416.363 152.875,416.219 153.146,416.076 153.417,415.933 153.688,415.789 153.958,415.646 154.229,415.502 154.500,415.358 154.771,415.214 155.042,415.070 155.313,414.926 155.583,414.782 155.854,414.638 156.125,414.494 156.396,414.349 156.667,414.205 156.937,414.060 157.208,413.916 157.479,413.771 157.750,413.626 158.021,413.481 158.292,413.337 158.562,413.192 158.833,413.046 159.104,412.901 159.375,412.756 159.646,412.611 159.917,412.465 160.187,412.320 160.458,412.174 160.729,412.029 161.000,411.883 161.271,411.737 161.541,411.591 161.812,411.445 162.083,411.299 162.354,411.153 162.625,411.007 162.896,410.861 163.166,410.715 163.437,410.568 163.708,410.422 163.979,410.275 164.250,410.129 164.521,409.982 164.791,409.835 165.062,409.688 165.333,409.541 165.604,409.395 165.875,409.247 166.145,409.100 166.416,408.953 166.687,408.806 166.958,408.659 167.229,408.511 167.500,408.364 167.770,408.216 168.041,408.069 168.312,407.921 168.583,407.774 168.854,407.626 169.124,407.478 169.395,407.330 169.666,407.182 169.937,407.034 170.208,406.886 170.479,406.738 170.749,406.590 171.020,406.442 171.291,406.293 171.562,406.145 171.833,405.996 172.104,405.848 172.374,405.699 172.645,405.551 172.916,405.402 173.187,405.253 173.458,405.105 173.728,404.956 173.999,404.807 174.270,404.658 174.541,404.509 174.812,404.360 175.083,404.211 175.353,404.062 175.624,403.912 175.895,403.763 176.166,403.614 176.437,403.464 176.708,403.315 176.978,403.165 177.249,403.016 177.520,402.866 177.791,402.717 178.062,402.567 178.332,402.417 178.603,402.267 178.874,402.118 179.145,401.968 179.416,401.818 179.687,401.668 179.957,401.518 180.228,401.368 180.499,401.217 180.770,401.067 181.041,400.917 181.312,400.767 181.582,400.617 181.853,400.466 182.124,400.316 182.395,400.165 182.666,400.015 182.936,399.864 183.207,399.714 183.478,399.563 183.749,399.413 184.020,399.262 184.291,399.111 184.561,398.960 184.832,398.810 185.103,398.659 185.374,398.508 185.645,398.357 185.916,398.206 186.186,398.055 186.457,397.904 186.728,397.753 186.999,397.602 187.270,397.451 187.540,397.300 187.811,397.149 188.082,396.997 188.353,396.846 188.624,396.695 188.895,396.544 189.165,396.392 189.436,396.241 189.707,396.089 189.978,395.938 190.249,395.787 190.519,395.635 190.790,395.484 191.061,395.332 191.332,395.181 191.603,395.029 191.874,394.877 192.144,394.726 192.415,394.574 192.686,394.422 192.957,394.271 193.228,394.119 193.499,393.967 193.769,393.815 194.040,393.664 194.311,393.512 194.582,393.360 194.853,393.208 195.123,393.056 195.394,392.904 195.665,392.752 195.936,392.600 196.207,392.448 196.478,392.296 196.748,392.144 197.019,391.992 197.290,391.840 197.561,391.688 197.832,391.536 198.103,391.384 198.373,391.232 198.644,391.080 198.915,390.928 199.186,390.776 199.457,390.624 199.727,390.472 199.998,390.319 200.269,390.167 200.540,390.015 200.811,389.863 201.082,389.711 201.352,389.559 201.623,389.406 201.894,389.254 202.165,389.102 202.436,388.950 202.707,388.797 202.977,388.645 203.248,388.493 203.519,388.341 203.790,388.189 204.061,388.036 204.331,387.884 204.602,387.732 204.873,387.580 205.144,387.427 205.415,387.275 205.686,387.123 205.956,386.971 206.227,386.818 206.498,386.666 206.769,386.514 207.040,386.362 207.311,386.209 207.581,386.057 207.852,385.905 208.123,385.753 208.394,385.601 208.665,385.448 208.935,385.296 209.206,385.144 209.477,384.992 209.748,384.840 210.019,384.687 210.290,384.535 210.560,384.383 210.831,384.231 211.102,384.079 211.373,383.927 211.644,383.775 211.915,383.623 212.185,383.471 212.456,383.319 212.727,383.167 212.998,383.015 213.269,382.863 213.539,382.711 213.810,382.559 214.081,382.407 214.352,382.255 214.623,382.103 214.894,381.951 215.164,381.799 215.435,381.647 215.706,381.495 215.977,381.343 216.248,381.192 216.518,381.040 216.789,380.888 217.060,380.736 217.331,380.585 217.602,380.433 217.873,380.281 218.143,380.130 218.414,379.978 218.685,379.827 218.956,379.675 219.227,379.524 219.498,379.372 219.768,379.221 220.039,379.069 220.310,378.918 220.581,378.767 220.852,378.615 221.122,378.464 221.393,378.313 221.664,378.161 221.935,378.010 222.206,377.859 222.477,377.708 222.747,377.557 223.018,377.406 223.289,377.255 223.560,377.104 223.831,376.953 224.102,376.802 224.372,376.651 224.643,376.500 224.914,376.350 225.185,376.199 225.456,376.048 225.726,375.897 225.997,375.747 226.268,375.596 226.539,375.446 226.810,375.295 227.081,375.145 227.351,374.994 227.622,374.844 227.893,374.694 228.164,374.544 228.435,374.393 228.706,374.243 228.976,374.093 229.247,373.943 229.518,373.793 229.789,373.643 230.060,373.493 230.330,373.343 230.601,373.194 230.872,373.044 231.143,372.894 231.414,372.745 231.685,372.595 231.955,372.445 232.226,372.296 232.497,372.147 232.768,371.997 233.039,371.848 233.310,371.699 233.580,371.550 233.851,371.400 234.122,371.251 234.393,371.102 234.664,370.953 234.934,370.805 235.205,370.656 235.476,370.507 235.747,370.358 236.018,370.210 236.289,370.061 236.559,369.913 236.830,369.764 237.101,369.616 237.372,369.468 237.643,369.319 237.913,369.171 238.184,369.023 238.455,368.875 238.726,368.727 238.997,368.579 239.268,368.432 239.538,368.284 239.809,368.136 240.080,367.989 240.351,367.841 240.622,367.694 240.893,367.546 241.163,367.399 241.434,367.252 241.705,367.105 241.976,366.958 242.247,366.811 242.517,366.664 242.788,366.517 243.059,366.370 243.330,366.224 243.601,366.077 243.872,365.931 244.142,365.784 244.413,365.638 244.684,365.492 244.955,365.346 245.226,365.200 245.497,365.054 245.767,364.908 246.038,364.762 246.309,364.616 246.580,364.471 246.851,364.325 247.121,364.180 247.392,364.034 247.663,363.889 247.934,363.744 248.205,363.599 248.476,363.454 248.746,363.309 249.017,363.164 249.288,363.019 249.559,362.875 249.830,362.730 250.101,362.586 250.371,362.441 250.642,362.297 250.913,362.153 251.184,362.009 251.455,361.865 251.725,361.721 251.996,361.577 252.267,361.434 252.538,361.290 252.809,361.147 253.080,361.003 253.350,360.860 253.621,360.717 253.892,360.574 254.163,360.431 254.434,360.288 254.705,360.146 254.975,360.003 255.246,359.861 255.517,359.718 255.788,359.576 256.059,359.434 256.329,359.292 256.600,359.150 256.871,359.008 257.142,358.866 257.413,358.725 257.684,358.583 257.954,358.442 258.225,358.300 258.496,358.159 258.767,358.018 259.038,357.877 259.308,357.736 259.579,357.596 259.850,357.455 260.121,357.315 260.392,357.174 260.663,357.034 260.933,356.894 261.204,356.754 261.475,356.614 261.746,356.475 262.017,356.335 262.288,356.196 262.558,356.056 262.829,355.917 263.100,355.778 263.371,355.639 263.642,355.500 263.912,355.361 264.183,355.223 264.454,355.084 264.725,354.946 264.996,354.808 265.267,354.670 265.537,354.532 265.808,354.394 266.079,354.256 266.350,354.118 266.621,353.981 266.892,353.844 267.162,353.707 267.433,353.570 267.704,353.433 267.975,353.296 268.246,353.159 268.516,353.023 268.787,352.887 269.058,352.750 269.329,352.614 269.600,352.478 269.871,352.343 270.141,352.207 270.412,352.071 270.683,351.936 270.954,351.801 271.225,351.666 271.496,351.531 271.766,351.396 272.037,351.261 272.308,351.127 272.579,350.993 272.850,350.858 273.120,350.724 273.391,350.590 273.662,350.457 273.933,350.323 274.204,350.190 274.475,350.056 274.745,349.923 275.016,349.790 275.287,349.657 275.558,349.525 275.829,349.392 276.100,349.260 276.370,349.127 276.641,348.995 276.912,348.863 277.183,348.732 277.454,348.600 277.724,348.469 277.995,348.337 278.266,348.206 278.537,348.075 278.808,347.944 279.079,347.814 279.349,347.683 279.620,347.553 279.891,347.423 280.162,347.293 280.433,347.163 280.704,347.033 280.974,346.904 281.245,346.774 281.516,346.645 281.787,346.516 282.058,346.387 282.328,346.259 282.599,346.130 282.870,346.002 283.141,345.874 283.412,345.746 283.683,345.618 283.953,345.490 284.224,345.363 284.495,345.235 284.766,345.108 285.037,344.981 285.307,344.854 285.578,344.728 285.849,344.601 286.120,344.475 286.391,344.349 286.662,344.223 286.932,344.097 287.203,343.972 287.474,343.847 287.745,343.721 288.016,343.596 288.287,343.471 288.557,343.347 288.828,343.222 289.099,343.098 289.370,342.974 289.641,342.850 289.911,342.726 290.182,342.603 290.453,342.479 290.724,342.356 290.995,342.233 291.266,342.110 291.536,341.988 291.807,341.865 292.078,341.743 292.349,341.621 292.620,341.499 292.891,341.378 293.161,341.256 293.432,341.135 293.703,341.014 293.974,340.893 294.245,340.772 294.515,340.652 294.786,340.531 295.057,340.411 295.328,340.291 295.599,340.171 295.870,340.052 296.140,339.933 296.411,339.813 296.682,339.694 296.953,339.576 297.224,339.457 297.495,339.339 297.765,339.221 298.036,339.103 298.307,338.985 298.578,338.867 298.849,338.750 299.119,338.633 299.390,338.516 299.661,338.399 299.932,338.283 300.203,338.166 300.474,338.050 300.744,337.934 301.015,337.819 301.286,337.703 301.557,337.588 301.828,337.473 302.099,337.358 302.369,337.243 302.640,337.129 302.911,337.015 303.182,336.901 303.453,336.787 303.723,336.673 303.994,336.560 304.265,336.447 304.536,336.334 304.807,336.221 305.078,336.109 305.348,335.996 305.619,335.884 305.890,335.772 306.161,335.661 306.432,335.549 306.702,335.438 306.973,335.327 307.244,335.216 307.515,335.106 307.786,334.996 308.057,334.886 308.327,334.776 308.598,334.666 308.869,334.557 309.140,334.447 309.411,334.338 309.682,334.230 309.952,334.121 310.223,334.013 310.494,333.905 310.765,333.797 311.036,333.689 311.306,333.582 311.577,333.475 311.848,333.368 312.119,333.261 312.390,333.154 312.661,333.048 312.931,332.942 313.202,332.836 313.473,332.731 313.744,332.626 314.015,332.520 314.286,332.416 314.556,332.311 314.827,332.207 315.098,332.102 315.369,331.998 315.640,331.895 315.910,331.791 316.181,331.688 316.452,331.585 316.723,331.482 316.994,331.380 317.265,331.278 317.535,331.176 317.806,331.074 318.077,330.972 318.348,330.871 318.619,330.770 318.890,330.669 319.160,330.569 319.431,330.468 319.702,330.368 319.973,330.268 320.244,330.169 320.514,330.070 320.785,329.970 321.056,329.872 321.327,329.773 321.598,329.675 321.869,329.576 322.139,329.479 322.410,329.381 322.681,329.284 322.952,329.187 323.223,329.090 323.494,328.993 323.764,328.897 324.035,328.801 324.306,328.705 324.577,328.609 324.848,328.514 325.118,328.419 325.389,328.324 325.660,328.229 325.931,328.135 326.202,328.041 326.473,327.947 326.743,327.853 327.014,327.760 327.285,327.667 327.556,327.574 327.827,327.482 328.097,327.389 328.368,327.297 328.639,327.206 328.910,327.114 329.181,327.023 329.452,326.932 329.722,326.841 329.993,326.751 330.264,326.661 330.535,326.571 330.806,326.481 331.077,326.392 331.347,326.302 331.618,326.214 331.889,326.125 332.160,326.037 332.431,325.949 332.701,325.861 332.972,325.773 333.243,325.686 333.514,325.599 333.785,325.512 334.056,325.426 334.326,325.339 334.597,325.254 334.868,325.168 335.139,325.082 335.410,324.997 335.681,324.913 335.951,324.828 336.222,324.744 336.493,324.660 336.764,324.576 337.035,324.492 337.305,324.409 337.576,324.326 337.847,324.244 338.118,324.161 338.389,324.079 338.660,323.997 338.930,323.916 339.201,323.834 339.472,323.753 339.743,323.673 340.014,323.592 340.285,323.512 340.555,323.432 340.826,323.352 341.097,323.273 341.368,323.194 341.639,323.115 341.909,323.037 342.180,322.958 342.451,322.881 342.722,322.803 342.993,322.726 343.264,322.648 343.534,322.572 343.805,322.495 344.076,322.419 344.347,322.343 344.618,322.267 344.889,322.192 345.159,322.117 345.430,322.042 345.701,321.967 345.972,321.893 346.243,321.819 346.513,321.745 346.784,321.672 347.055,321.599 347.326,321.526 347.597,321.454 347.868,321.381 348.138,321.310 348.409,321.238 348.680,321.167 348.951,321.095 349.222,321.025 349.493,320.954 349.763,320.884 350.034,320.814 350.305,320.744 350.576,320.675 350.847,320.606 351.117,320.537 351.388,320.469 351.659,320.401 351.930,320.333 352.201,320.265 352.472,320.198 352.742,320.131 353.013,320.065 353.284,319.998 353.555,319.932 353.826,319.866 354.096,319.801 354.367,319.736 354.638,319.671 354.909,319.606 355.180,319.542 355.451,319.478 355.721,319.414 355.992,319.351 356.263,319.288 356.534,319.225 356.805,319.162 357.076,319.100 357.346,319.038 357.617,318.977 357.888,318.916 358.159,318.855 358.430,318.794 358.700,318.734 358.971,318.673 359.242,318.614 359.513,318.554 359.784,318.495 360.055,318.436 360.325,318.378 360.596,318.319 360.867,318.261 361.138,318.204 361.409,318.147 361.680,318.089 361.950,318.033 362.221,317.976 362.492,317.920 362.763,317.864 363.034,317.809 363.304,317.754 363.575,317.699 363.846,317.644 364.117,317.590 364.388,317.536 364.659,317.483 364.929,317.429 365.200,317.376 365.471,317.323 365.742,317.271 366.013,317.219 366.284,317.167 366.554,317.116 366.825,317.065 367.096,317.014 367.367,316.963 367.638,316.913 367.908,316.863 368.179,316.814 368.450,316.764 368.721,316.715 368.992,316.667 369.263,316.618 369.533,316.570 369.804,316.523 370.075,316.475 370.346,316.428 370.617,316.381 370.888,316.335 371.158,316.289 371.429,316.243 371.700,316.197 371.971,316.152 372.242,316.107 372.512,316.063 372.783,316.019 373.054,315.975 373.325,315.931 373.596,315.888 373.867,315.845 374.137,315.802 374.408,315.760 374.679,315.718 374.950,315.676 375.221,315.635 375.491,315.594 375.762,315.553 376.033,315.513 376.304,315.473 376.575,315.433 376.846,315.393 377.116,315.354 377.387,315.315 377.658,315.277 377.929,315.239 378.200,315.201 378.471,315.163 378.741,315.126 379.012,315.089 379.283,315.053 379.554,315.016 379.825,314.981 380.095,314.945 380.366,314.910 380.637,314.875 380.908,314.840 381.179,314.806 381.450,314.772 381.720,314.738 381.991,314.705 382.262,314.672 382.533,314.639 382.804,314.607 383.075,314.575 383.345,314.543 383.616,314.512 383.887,314.481 384.158,314.450 384.429,314.420 384.699,314.389 384.970,314.360 385.241,314.330 385.512,314.301 385.783,314.272 386.054,314.244 386.324,314.216 386.595,314.188 386.866,314.161 387.137,314.133 387.408,314.107 387.679,314.080 387.949,314.054 388.220,314.028 388.491,314.003 388.762,313.977 389.033,313.953 389.303,313.928 389.574,313.904 389.845,313.880 390.116,313.856 390.387,313.833 390.658,313.810 390.928,313.788 391.199,313.766 391.470,313.744 391.741,313.722 392.012,313.701 392.283,313.680 392.553,313.659 392.824,313.639 393.095,313.619 393.366,313.600 393.637,313.580 393.907,313.561 394.178,313.543 394.449,313.525 394.720,313.507 394.991,313.489 395.262,313.472 395.532,313.455 395.803,313.438 396.074,313.422 396.345,313.406 396.616,313.390 396.886,313.375 397.157,313.360 397.428,313.346 397.699,313.331 397.970,313.317 398.241,313.304 398.511,313.290 398.782,313.277 399.053,313.265 399.324,313.252 399.595,313.240 399.866,313.229 400.136,313.217 400.407,313.207 400.678,313.196 400.949,313.186 401.220,313.176 401.490,313.166 401.761,313.157 402.032,313.148 402.303,313.139 402.574,313.131 402.845,313.123 403.115,313.115 403.386,313.108 403.657,313.101 403.928,313.094 404.199,313.088 404.470,313.082 404.740,313.076 405.011,313.071 405.282,313.066 405.553,313.061 405.824,313.057 406.094,313.053 406.365,313.049 406.636,313.046 406.907,313.043 407.178,313.040 407.449,313.038 407.719,313.036 407.990,313.034 408.261,313.033 408.532,313.032 408.803,313.031 409.074,313.031 409.344,313.031 409.615,313.031 409.886,313.032 410.157,313.033 410.428,313.034 410.698,313.036 410.969,313.038 411.240,313.040 411.511,313.043 411.782,313.046 412.053,313.049 412.323,313.053 412.594,313.057 412.865,313.061 413.136,313.066 413.407,313.071 413.678,313.076 413.948,313.082 414.219,313.088 414.490,313.094 414.761,313.101 415.032,313.108 415.302,313.115 415.573,313.123 415.844,313.130 416.115,313.139 416.386,313.147 416.657,313.156 416.927,313.166 417.198,313.175 417.469,313.185 417.740,313.196 418.011,313.206 418.282,313.217 418.552,313.229 418.823,313.240 419.094,313.252 419.365,313.264 419.636,313.277 419.906,313.290 420.177,313.303 420.448,313.317 420.719,313.331 420.990,313.345 421.261,313.360 421.531,313.375 421.802,313.390 422.073,313.406 422.344,313.422 422.615,313.438 422.885,313.455 423.156,313.471 423.427,313.489 423.698,313.506 423.969,313.524 424.240,313.543 424.510,313.561 424.781,313.580 425.052,313.599 425.323,313.619 425.594,313.639 425.865,313.659 426.135,313.680 426.406,313.701 426.677,313.722 426.948,313.743 427.219,313.765 427.489,313.787 427.760,313.810 428.031,313.833 428.302,313.856 428.573,313.880 428.844,313.903 429.114,313.928 429.385,313.952 429.656,313.977 429.927,314.002 430.198,314.028 430.469,314.053 430.739,314.080 431.010,314.106 431.281,314.133 431.552,314.160 431.823,314.187 432.093,314.215 432.364,314.243 432.635,314.272 432.906,314.301 433.177,314.330 433.448,314.359 433.718,314.389 433.989,314.419 434.260,314.449 434.531,314.480 434.802,314.511 435.073,314.542 435.343,314.574 435.614,314.606 435.885,314.639 436.156,314.671 436.427,314.704 436.697,314.738 436.968,314.771 437.239,314.805 437.510,314.839 437.781,314.874 438.052,314.909 438.322,314.944 438.593,314.980 438.864,315.016 439.135,315.052 439.406,315.089 439.677,315.125 439.947,315.163 440.218,315.200 440.489,315.238 440.760,315.276 441.031,315.315 441.301,315.353 441.572,315.393 441.843,315.432 442.114,315.472 442.385,315.512 442.656,315.552 442.926,315.593 443.197,315.634 443.468,315.675 443.739,315.717 444.010,315.759 444.280,315.801 444.551,315.844 444.822,315.887 445.093,315.930 445.364,315.974 445.635,316.018 445.905,316.062 446.176,316.107 446.447,316.151 446.718,316.197 446.989,316.242 447.260,316.288 447.530,316.334 447.801,316.380 448.072,316.427 448.343,316.474 448.614,316.522 448.884,316.569 449.155,316.617 449.426,316.666 449.697,316.714 449.968,316.763 450.239,316.813 450.509,316.862 450.780,316.912 451.051,316.962 451.322,317.013 451.593,317.064 451.864,317.115 452.134,317.166 452.405,317.218 452.676,317.270 452.947,317.322 453.218,317.375 453.488,317.428 453.759,317.482 454.030,317.535 454.301,317.589 454.572,317.643 454.843,317.698 455.113,317.753 455.384,317.808 455.655,317.863 455.926,317.919 456.197,317.975 456.468,318.032 456.738,318.088 457.009,318.145 457.280,318.203 457.551,318.260 457.822,318.318 458.092,318.377 458.363,318.435 458.634,318.494 458.905,318.553 459.176,318.613 459.447,318.672 459.717,318.732 459.988,318.793 460.259,318.853 460.530,318.914 460.801,318.976 461.072,319.037 461.342,319.099 461.613,319.161 461.884,319.224 462.155,319.287 462.426,319.350 462.696,319.413 462.967,319.477 463.238,319.541 463.509,319.605 463.780,319.670 464.051,319.734 464.321,319.800 464.592,319.865 464.863,319.931 465.134,319.997 465.405,320.063 465.675,320.130 465.946,320.197 466.217,320.264 466.488,320.332 466.759,320.400 467.030,320.468 467.300,320.536 467.571,320.605 467.842,320.674 468.113,320.743 468.384,320.813 468.655,320.883 468.925,320.953 469.196,321.023 469.467,321.094 469.738,321.165 470.009,321.237 470.279,321.308 470.550,321.380 470.821,321.452 471.092,321.525 471.363,321.598 471.634,321.671 471.904,321.744 472.175,321.818 472.446,321.892 472.717,321.966 472.988,322.041 473.259,322.115 473.529,322.190 473.800,322.266 474.071,322.341 474.342,322.417 474.613,322.494 474.883,322.570 475.154,322.647 475.425,322.724 475.696,322.801 475.967,322.879 476.238,322.957 476.508,323.035 476.779,323.114 477.050,323.193 477.321,323.272 477.592,323.351 477.863,323.431 478.133,323.510 478.404,323.591 478.675,323.671 478.946,323.752 479.217,323.833 479.487,323.914 479.758,323.996 480.029,324.077 480.300,324.160 480.571,324.242 480.842,324.325 481.112,324.408 481.383,324.491 481.654,324.574 481.925,324.658 482.196,324.742 482.467,324.826 482.737,324.911 483.008,324.996 483.279,325.081 483.550,325.166 483.821,325.252 484.091,325.338 484.362,325.424 484.633,325.511 484.904,325.597 485.175,325.684 485.446,325.772 485.716,325.859 485.987,325.947 486.258,326.035 486.529,326.123 486.800,326.212 487.071,326.301 487.341,326.390 487.612,326.479 487.883,326.569 488.154,326.659 488.425,326.749 488.695,326.840 488.966,326.930 489.237,327.021 489.508,327.112 489.779,327.204 490.050,327.296 490.320,327.388 490.591,327.480 490.862,327.573 491.133,327.665 491.404,327.758 491.674,327.852 491.945,327.945 492.216,328.039 492.487,328.133 492.758,328.227 493.029,328.322 493.299,328.417 493.570,328.512 493.841,328.607 494.112,328.703 494.383,328.799 494.654,328.895 494.924,328.991 495.195,329.088 495.466,329.185 495.737,329.282 496.008,329.379 496.278,329.477 496.549,329.575 496.820,329.673 497.091,329.771 497.362,329.870 497.633,329.969 497.903,330.068 498.174,330.167 498.445,330.267 498.716,330.366 498.987,330.466 499.258,330.567 499.528,330.667 499.799,330.768 500.070,330.869 500.341,330.970 500.612,331.072 500.882,331.174 501.153,331.276 501.424,331.378 501.695,331.481 501.966,331.583 502.237,331.686 502.507,331.789 502.778,331.893 503.049,331.997 503.320,332.100 503.591,332.205 503.862,332.309 504.132,332.414 504.403,332.518 504.674,332.624 504.945,332.729 505.216,332.834 505.486,332.940 505.757,333.046 506.028,333.152 506.299,333.259 506.570,333.366 506.841,333.473 507.111,333.580 507.382,333.687 507.653,333.795 507.924,333.903 508.195,334.011 508.466,334.119 508.736,334.228 509.007,334.336 509.278,334.445 509.549,334.555 509.820,334.664 510.090,334.774 510.361,334.883 510.632,334.994 510.903,335.104 511.174,335.214 511.445,335.325 511.715,335.436 511.986,335.547 512.257,335.659 512.528,335.770 512.799,335.882 513.069,335.994 513.340,336.107 513.611,336.219 513.882,336.332 514.153,336.445 514.424,336.558 514.694,336.671 514.965,336.785 515.236,336.899 515.507,337.013 515.778,337.127 516.049,337.241 516.319,337.356 516.590,337.471 516.861,337.586 517.132,337.701 517.403,337.817 517.673,337.932 517.944,338.048 518.215,338.164 518.486,338.281 518.757,338.397 519.028,338.514 519.298,338.631 519.569,338.748 519.840,338.865 520.111,338.983 520.382,339.101 520.653,339.218 520.923,339.337 521.194,339.455 521.465,339.573 521.736,339.692 522.007,339.811 522.277,339.930 522.548,340.050 522.819,340.169 523.090,340.289 523.361,340.409 523.632,340.529 523.902,340.649 524.173,340.770 524.444,340.890 524.715,341.011 524.986,341.132 525.257,341.254 525.527,341.375 525.798,341.497 526.069,341.619 526.340,341.741 526.611,341.863 526.881,341.985 527.152,342.108 527.423,342.231 527.694,342.354 527.965,342.477 528.236,342.600 528.506,342.724 528.777,342.848 529.048,342.972 529.319,343.096 529.590,343.220 529.861,343.345 530.131,343.469 530.402,343.594 530.673,343.719 530.944,343.844 531.215,343.970 531.485,344.095 531.756,344.221 532.027,344.347 532.298,344.473 532.569,344.599 532.840,344.726 533.110,344.852 533.381,344.979 533.652,345.106 533.923,345.233 534.194,345.360 534.464,345.488 534.735,345.615 535.006,345.743 535.277,345.871 535.548,345.999 535.819,346.128 536.089,346.256 536.360,346.385 536.631,346.514 536.902,346.643 537.173,346.772 537.444,346.901 537.714,347.031 537.985,347.161 538.256,347.290 538.527,347.420 538.798,347.551 539.068,347.681 539.339,347.811 539.610,347.942 539.881,348.073 540.152,348.204 540.423,348.335 540.693,348.466 540.964,348.598 541.235,348.729 541.506,348.861 541.777,348.993 542.048,349.125 542.318,349.257 542.589,349.390 542.860,349.522 543.131,349.655 543.402,349.788 543.672,349.921 543.943,350.054 544.214,350.187 544.485,350.321 544.756,350.454 545.027,350.588 545.297,350.722 545.568,350.856 545.839,350.990 546.110,351.124 546.381,351.259 546.652,351.394 546.922,351.528 547.193,351.663 547.464,351.798 547.735,351.934 548.006,352.069 548.276,352.204 548.547,352.340 548.818,352.476 549.089,352.612 549.360,352.748 549.631,352.884 549.901,353.020 550.172,353.157 550.443,353.293 550.714,353.430 550.985,353.567 551.256,353.704 551.526,353.841 551.797,353.979 552.068,354.116 552.339,354.254 552.610,354.391 552.880,354.529 553.151,354.667 553.422,354.805 553.693,354.943 553.964,355.082 554.235,355.220 554.505,355.359 554.776,355.497 555.047,355.636 555.318,355.775 555.589,355.914 555.860,356.054 556.130,356.193 556.401,356.332 556.672,356.472 556.943,356.612 557.214,356.752 557.484,356.892 557.755,357.032 558.026,357.172 558.297,357.312 558.568,357.453 558.839,357.593 559.109,357.734 559.380,357.875 559.651,358.016 559.922,358.157 560.193,358.298 560.463,358.439 560.734,358.580 561.005,358.722 561.276,358.864 561.547,359.005 561.818,359.147 562.088,359.289 562.359,359.431 562.630,359.573 562.901,359.716 563.172,359.858 563.443,360.000 563.713,360.143 563.984,360.286 564.255,360.428 564.526,360.571 564.797,360.714 565.067,360.858 565.338,361.001 565.609,361.144 565.880,361.288 566.151,361.431 566.422,361.575 566.692,361.718 566.963,361.862 567.234,362.006 567.505,362.150 567.776,362.294 568.047,362.439 568.317,362.583 568.588,362.727 568.859,362.872 569.130,363.017 569.401,363.161 569.671,363.306 569.942,363.451 570.213,363.596 570.484,363.741 570.755,363.886 571.026,364.031 571.296,364.177 571.567,364.322 571.838,364.468 572.109,364.613 572.380,364.759 572.651,364.905 572.921,365.051 573.192,365.197 573.463,365.343 573.734,365.489 574.005,365.635 574.275,365.782 574.546,365.928 574.817,366.074 575.088,366.221 575.359,366.368 575.630,366.514 575.900,366.661 576.171,366.808 576.442,366.955 576.713,367.102 576.984,367.249 577.255,367.396 577.525,367.544 577.796,367.691 578.067,367.838 578.338,367.986 578.609,368.134 578.879,368.281 579.150,368.429 579.421,368.577 579.692,368.725 579.963,368.872 580.234,369.020 580.504,369.169 580.775,369.317 581.046,369.465 581.317,369.613 581.588,369.762 581.858,369.910 582.129,370.058 582.400,370.207 582.671,370.356 582.942,370.504 583.213,370.653 583.483,370.802 583.754,370.951 584.025,371.100 584.296,371.249 584.567,371.398 584.838,371.547 585.108,371.696 585.379,371.845 585.650,371.994 585.921,372.144 586.192,372.293 586.462,372.443 586.733,372.592 587.004,372.742 587.275,372.891 587.546,373.041 587.817,373.191 588.087,373.341 588.358,373.490 588.629,373.640 588.900,373.790 589.171,373.940 589.442,374.090 589.712,374.240 589.983,374.391 590.254,374.541 590.525,374.691 590.796,374.841 591.066,374.992 591.337,375.142 591.608,375.293 591.879,375.443 592.150,375.594 592.421,375.744 592.691,375.895 592.962,376.045 593.233,376.196 593.504,376.347 593.775,376.498 594.046,376.648 594.316,376.799 594.587,376.950 594.858,377.101 595.129,377.252 595.400,377.403 595.670,377.554 595.941,377.705 596.212,377.856 596.483,378.007 596.754,378.159 597.025,378.310 597.295,378.461 597.566,378.612 597.837,378.764 598.108,378.915 598.379,379.066 598.650,379.218 598.920,379.369 599.191,379.521 599.462,379.672 599.733,379.824 600.004,379.975 600.274,380.127 600.545,380.279 600.816,380.430 601.087,380.582 601.358,380.734 601.629,380.885 601.899,381.037 602.170,381.189 602.441,381.341 602.712,381.492 602.983,381.644 603.253,381.796 603.524,381.948 603.795,382.100 604.066,382.252 604.337,382.404 604.608,382.556 604.878,382.708 605.149,382.860 605.420,383.012 605.691,383.164 605.962,383.316 606.233,383.468 606.503,383.620 606.774,383.772 607.045,383.924 607.316,384.076 607.587,384.228 607.857,384.380 608.128,384.533 608.399,384.685 608.670,384.837 608.941,384.989 609.212,385.141 609.482,385.293 609.753,385.446 610.024,385.598 610.295,385.750 610.566,385.902 610.837,386.054 611.107,386.207 611.378,386.359 611.649,386.511 611.920,386.663 612.191,386.816 612.461,386.968 612.732,387.120 613.003,387.272 613.274,387.425 613.545,387.577 613.816,387.729 614.086,387.881 614.357,388.033 614.628,388.186 614.899,388.338 615.170,388.490 615.441,388.642 615.711,388.795 615.982,388.947 616.253,389.099 616.524,389.251 616.795,389.404 617.065,389.556 617.336,389.708 617.607,389.860 617.878,390.012 618.149,390.164 618.420,390.317 618.690,390.469 618.961,390.621 619.232,390.773 619.503,390.925 619.774,391.077 620.045,391.229 620.315,391.381 620.586,391.533 620.857,391.686 621.128,391.838 621.399,391.990 621.669,392.142 621.940,392.294 622.211,392.446 622.482,392.598 622.753,392.749 623.024,392.901 623.294,393.053 623.565,393.205 623.836,393.357 624.107,393.509 624.378,393.661 624.649,393.813 624.919,393.964 625.190,394.116 625.461,394.268 625.732,394.419 626.003,394.571 626.273,394.723 626.544,394.874 626.815,395.026 627.086,395.178 627.357,395.329 627.628,395.481 627.898,395.632 628.169,395.784 628.440,395.935 628.711,396.087 628.982,396.238 629.252,396.389 629.523,396.541 629.794,396.692 630.065,396.843 630.336,396.995 630.607,397.146 630.877,397.297 631.148,397.448 631.419,397.599 631.690,397.750 631.961,397.901 632.232,398.052 632.502,398.203 "/>
<g>
</g>
</g>
<g id="ID000009" >
  <g transform="translate(361.056,278.938)">
    <g transform="rotate(-0.0)">
      <text x="0.000" y="0.000" font-family="Helvetica" text-anchor="middle" font-size="12pt" fill="#000000" >l = 0.16, x* = 0.50</text>
    </g>
  </g>
</g>
<g id="ID000010" >
</g>
<g id="ID000011" >
</g>
    </g>
    <g>
      <polyline fill="none" stroke="#000000" stroke-width="0.5pt" stroke-dasharray="none" points="145.021,466.514 145.021,461.098 "/>
      <polyline fill="none" stroke="#000000" stroke-width="0.5pt" stroke-dasharray="none" points="199.186,466.514 199.186,461.098 "/>
      <polyline fill="none" stroke="#000000" stroke-width="0.5pt" stroke-dasharray="none" points="253.350,466.514 253.350,461.098 "/>
      <polyline fill="none" stroke="#000000" stroke-width="0.5pt" stroke-dasharray="none" points="307.515,466.514 307.515,461.098 "/>
      <polyline fill="none" stroke="#000000" stroke-width="0.5pt" stroke-dasharray="none" points="361.680,466.514 361.680,461.098 "/>
      <polyline fill="none" stroke="#000000" stroke-width="0.5pt" stroke-dasharray="none" points="415.844,466.514 415.844,461.098 "/>
      <polyline fill="none" stroke="#000000" stroke-width="0.5pt" stroke-dasharray="none" points="470.009,466.514 470.009,461.098 "/>
      <polyline fill="none" stroke="#000000" stroke-width="0.5pt" stroke-dasharray="none" points="524.173,466.514 524.173,461.098 "/>
      <polyline fill="none" stroke="#000000" stroke-width="0.5pt" stroke-dasharray="none" points="578.338,466.514 578.338,461.098 "/>
      <polyline fill="none" stroke="#000000" stroke-width="0.5pt" stroke-dasharray="none" points="90.857,466.514 632.502,466.514 "/>
      <polyline fill="none" stroke="#000000" stroke-width="0.5pt" stroke-dasharray="none" points="145.021,287.686 145.021,293.102 "/>
      <polyline fill="none" stroke="#000000" stroke-width="0.5pt" stroke-dasharray="none" points="199.186,287.686 199.186,293.102 "/>
      <polyline fill="none" stroke="#000000" stroke-width="0.5pt" stroke-dasharray="none" points="253.350,287.686 253.350,293.102 "/>
      <polyline fill="none" stroke="#000000" stroke-width="0.5pt" stroke-dasharray="none" points="307.515,287.686 307.515,293.102 "/>
      <polyline fill="none" stroke="#000000" stroke-width="0.5pt" stroke-dasharray="none" points="361.680,287.686 361.680,293.102 "/>
      <polyline fill="none" stroke="#000000" stroke-width="0.5pt" stroke-dasharray="none" points="415.844,287.686 415.844,293.102 "/>
      <polyline fill="none" stroke="#000000" stroke-width="0.5pt" stroke-dasharray="none" points="470.009,287.686 470.009,293.102 "/>
      <polyline fill="none" stroke="#000000" stroke-width="0.5pt" stroke-dasharray="none" points="524.173,287.686 524.173,293.102 "/>
      <polyline fill="none" stroke="#000000" stroke-width="0.5pt" stroke-dasharray="none" points="578.338,287.686 578.338,293.102 "/>
      <polyline fill="none" stroke="#000000" stroke-width="0.5pt" stroke-dasharray="none" points="90.857,287.686 632.502,287.686 "/>
  <g transform="translate(90.857,484.818)">
    <g transform="rotate(-0.0)">
      <text x="0.000" y="0.000" font-family="Helvetica" text-anchor="middle" font-size="12pt" fill="#000000" >-1</text>
    </g>
  </g>
  <g transform="translate(145.021,484.818)">
    <g transform="rotate(-0.0)">
      <text x="0.000" y="0.000" font-family="Helvetica" text-anchor="middle" font-size="12pt" fill="#000000" >-0.8</text>
    </g>
  </g>
  <g transform="translate(199.186,484.818)">
    <g transform="rotate(-0.0)">
      <text x="0.000" y="0.000" font-family="Helvetica" text-anchor="middle" font-size="12pt" fill="#000000" >-0.6</text>
    </g>
  </g>
  <g transform="translate(253.350,484.818)">
    <g transform="rotate(-0.0)">
      <text x="0.000" y="0.000" font-family="Helvetica" text-anchor="middle" font-size="12pt" fill="#000000" >-0.4</text>
    </g>
  </g>
  <g transform="translate(307.515,484.818)">
    <g transform="rotate(-0.0)">
      <text x="0.000" y="0.000" font-family="Helvetica" text-anchor="middle" font-size="12pt" fill="#000000" >-0.2</text>
    </g>
  </g>
  <g transform="translate(361.680,484.818)">
    <g transform="rotate(-0.0)">
      <text x="0.000" y="0.000" font-family="Helvetica" text-anchor="middle" font-size="12pt" fill="#000000" >0</text>
    </g>
  </g>
  <g transform="translate(415.844,484.818)">
    <g transform="rotate(-0.0)">
      <text x="0.000" y="0.000" font-family="Helvetica" text-anchor="middle" font-size="12pt" fill="#000000" >0.2</text>
    </g>
  </g>
  <g transform="translate(470.009,484.818)">
    <g transform="rotate(-0.0)">
      <text x="0.000" y="0.000" font-family="Helvetica" text-anchor="middle" font-size="12pt" fill="#000000" >0.4</text>
    </g>
  </g>
  <g transform="translate(524.173,484.818)">
    <g transform="rotate(-0.0)">
      <text x="0.000" y="0.000" font-family="Helvetica" text-anchor="middle" font-size="12pt" fill="#000000" >0.6</text>
    </g>
  </g>
  <g transform="translate(578.338,484.818)">
    <g transform="rotate(-0.0)">
      <text x="0.000" y="0.000" font-family="Helvetica" text-anchor="middle" font-size="12pt" fill="#000000" >0.8</text>
    </g>
  </g>
  <g transform="translate(632.502,484.818)">
    <g transform="rotate(-0.0)">
      <text x="0.000" y="0.000" font-family="Helvetica" text-anchor="middle" font-size="12pt" fill="#000000" >1</text>
    </g>
  </g>
      <polyline fill="none" stroke="#000000" stroke-width="0.5pt" stroke-dasharray="none" points="90.857,430.748 96.273,430.748 "/>
      <polyline fill="none" stroke="#000000" stroke-width="0.5pt" stroke-dasharray="none" points="90.857,394.983 96.273,394.983 "/>
      <polyline fill="none" stroke="#000000" stroke-width="0.5pt" stroke-dasharray="none" points="90.857,359.217 96.273,359.217 "/>
      <polyline fill="none" stroke="#000000" stroke-width="0.5pt" stroke-dasharray="none" points="90.857,323.451 96.273,323.451 "/>
      <polyline fill="none" stroke="#000000" stroke-width="0.5pt" stroke-dasharray="none" points="90.857,466.514 90.857,287.686 "/>
      <polyline fill="none" stroke="#000000" stroke-width="0.5pt" stroke-dasharray="none" points="632.502,430.748 627.086,430.748 "/>
      <polyline fill="none" stroke="#000000" stroke-width="0.5pt" stroke-dasharray="none" points="632.502,394.983 627.086,394.983 "/>
      <polyline fill="none" stroke="#000000" stroke-width="0.5pt" stroke-dasharray="none" points="632.502,359.217 627.086,359.217 "/>
      <polyline fill="none" stroke="#000000" stroke-width="0.5pt" stroke-dasharray="none" points="632.502,323.451 627.086,323.451 "/>
      <polyline fill="none" stroke="#000000" stroke-width="0.5pt" stroke-dasharray="none" points="632.502,466.514 632.502,287.686 "/>
  <g transform="translate(80.024,472.130)">
    <g transform="rotate(-0.0)">
      <text x="0.000" y="0.000" font-family="Helvetica" text-anchor="end" font-size="12pt" fill="#000000" >0.1</text>
    </g>
  </g>
  <g transform="translate(80.024,436.365)">
    <g transform="rotate(-0.0)">
      <text x="0.000" y="0.000" font-family="Helvetica" text-anchor="end" font-size="12pt" fill="#000000" >0.2</text>
    </g>
  </g>
  <g transform="translate(80.024,400.599)">
    <g transform="rotate(-0.0)">
      <text x="0.000" y="0.000" font-family="Helvetica" text-anchor="end" font-size="12pt" fill="#000000" >0.3</text>
    </g>
  </g>
  <g transform="translate(80.024,364.833)">
    <g transform="rotate(-0.0)">
      <text x="0.000" y="0.000" font-family="Helvetica" text-anchor="end" font-size="12pt" fill="#000000" >0.4</text>
    </g>
  </g>
  <g transform="translate(80.024,329.068)">
    <g transform="rotate(-0.0)">
      <text x="0.000" y="0.000" font-family="Helvetica" text-anchor="end" font-size="12pt" fill="#000000" >0.5</text>
    </g>
  </g>
  <g transform="translate(80.024,293.302)">
    <g transform="rotate(-0.0)">
      <text x="0.000" y="0.000" font-family="Helvetica" text-anchor="end" font-size="12pt" fill="#000000" >0.6</text>
    </g>
  </g>
      <polyline fill="none" stroke="#000000" stroke-width="0.5pt" stroke-dasharray="none" points="90.857,466.514 90.857,464.726 "/>
      <polyline fill="none" stroke="#000000" stroke-width="0.5pt" stroke-dasharray="none" points="90.857,466.514 90.857,466.514 "/>
    </g>
  </g>
  </g>
</svg>
