<?xml version="1.0" encoding="utf-8" standalone="no"?><!DOCTYPE svg PUBLIC "-//W3C//DTD SVG 1.1//EN" "http://www.w3.org/Graphics/SVG/1.1/DTD/svg11.dtd">
<svg preserveAspectRatio="xMinYMin meet" width="100%" height="100%" viewBox="0 0 698.898 524.173"  version="1.1" xmlns="http://www.w3.org/2000/svg" xmlns:xlink="http://www.w3.org/1999/xlink">
  <desc>Matlab Figure Converted by PLOT2SVG written by Juerg Schwizer</desc>
  <g id="topgroup">
  <rect x="0" y="0" width="698.898" height="524.173" fill="#ffffff" stroke="none" />
  <g id ="ID000000">
  <clipPath id="ID000001">
    <rect x="90.857" y="39.313" width="541.646" height="178.828"/>
  </clipPath>
      <polygon fill="#ffffff" fill-opacity="1.00" stroke="none" stroke-width="0.5pt" stroke-opacity="1.00" stroke-dasharray="none" points="90.857,218.141 632.502,218.141 632.502,39.313 90.857,39.313 "/>
      <polygon fill="#ffffff" fill-opacity="1.00" stroke="none" stroke-width="0.5pt" stroke-opacity="1.00" stroke-dasharray="none" points="90.857,39.313 632.502,39.313 632.502,39.313 90.857,39.313 "/>
      <polygon fill="#ffffff" fill-opacity="1.00" stroke="none" stroke-width="0.5pt" stroke-opacity="1.00" stroke-dasharray="none" points="90.857,218.141 90.857,218.141 90.857,39.313 90.857,39.313 "/>
    <g>
<g id="ID000002" clip-path="url(#ID000001)" >
      <polyline fill="none" stroke="#0000ff" stroke-width="0.5pt" stroke-dasharray="none" points="90.857,218.141 91.128,218.141 91.398,218.141 91.669,218.141 91.940,218.141 92.211,218.141 92.482,218.141 92.752,218.141 93.023,218.141 93.294,218.141 93.565,218.141 93.836,218.141 94.107,218.141 94.377,218.141 94.648,218.141 94.919,218.141 95.190,218.141 95.461,218.141 95.732,218.141 96.002,218.141 96.273,218.141 96.544,218.141 96.815,218.141 97.086,218.141 97.356,218.141 97.627,218.141 97.898,218.141 98.169,218.141 98.440,218.141 98.711,218.141 98.981,218.141 99.252,218.141 99.523,218.141 99.794,218.141 100.065,218.141 100.335,218.141 100.606,218.141 100.877,218.141 101.148,218.141 101.419,218.141 101.690,218.141 101.960,218.141 102.231,218.141 102.502,218.141 102.773,218.141 103.044,218.141 103.315,218.141 103.585,218.141 103.856,218.141 104.127,218.141 104.398,218.141 104.669,218.141 104.939,218.141 105.210,218.141 105.481,218.141 105.752,218.141 106.023,218.141 106.294,218.141 106.564,218.141 106.835,218.141 107.106,218.141 107.377,218.141 107.648,218.141 107.919,218.141 108.189,218.141 108.460,218.141 108.731,218.141 109.002,218.141 109.273,218.141 109.543,218.141 109.814,218.141 110.085,218.141 110.356,218.141 110.627,218.141 110.898,218.141 111.168,218.141 111.439,218.141 111.710,218.141 111.981,218.141 112.252,218.141 112.523,218.141 112.793,218.141 113.064,218.141 113.335,218.141 113.606,218.141 113.877,218.141 114.147,218.141 114.418,218.141 114.689,218.141 114.960,218.141 115.231,218.141 115.502,218.141 115.772,218.141 116.043,218.141 116.314,218.141 116.585,218.141 116.856,218.141 117.127,218.141 117.397,218.141 117.668,218.141 117.939,218.141 118.210,218.141 118.481,218.141 118.751,218.141 119.022,218.141 119.293,218.141 119.564,218.141 119.835,218.141 120.106,218.141 120.376,218.141 120.647,218.141 120.918,218.141 121.189,218.141 121.460,218.141 121.730,218.141 122.001,218.141 122.272,218.141 122.543,218.141 122.814,218.141 123.085,218.141 123.355,218.141 123.626,218.141 123.897,218.141 124.168,218.141 124.439,218.141 124.710,218.141 124.980,218.141 125.251,218.141 125.522,218.141 125.793,218.141 126.064,218.141 126.334,218.141 126.605,218.141 126.876,218.141 127.147,218.141 127.418,218.141 127.689,218.141 127.959,218.141 128.230,218.141 128.501,218.141 128.772,218.141 129.043,218.141 129.314,218.141 129.584,218.141 129.855,218.141 130.126,218.141 130.397,218.141 130.668,218.141 130.938,218.141 131.209,218.141 131.480,218.141 131.751,218.141 132.022,218.141 132.293,218.141 132.563,218.141 132.834,218.141 133.105,218.141 133.376,218.141 133.647,218.141 133.918,218.141 134.188,218.141 134.459,218.141 134.730,218.141 135.001,218.141 135.272,218.141 135.542,218.141 135.813,218.141 136.084,218.141 136.355,218.141 136.626,218.141 136.897,218.141 137.167,218.141 137.438,218.141 137.709,218.141 137.980,218.141 138.251,218.141 138.522,218.141 138.792,218.141 139.063,218.141 139.334,218.141 139.605,218.141 139.876,218.141 140.146,218.141 140.417,218.141 140.688,218.141 140.959,218.141 141.230,218.141 141.501,218.141 141.771,218.141 142.042,218.141 142.313,218.141 142.584,218.141 142.855,218.141 143.126,218.141 143.396,218.141 143.667,218.141 143.938,218.141 144.209,218.141 144.480,218.141 144.750,218.141 145.021,218.141 145.292,218.141 145.563,218.141 145.834,218.141 146.105,218.141 146.375,218.141 146.646,218.141 146.917,218.141 147.188,218.141 147.459,218.141 147.729,218.141 148.000,218.141 148.271,218.141 148.542,218.141 148.813,218.141 149.084,218.141 149.354,218.141 149.625,218.141 149.896,218.141 150.167,218.141 150.438,218.141 150.709,218.141 150.979,218.141 151.250,218.141 151.521,218.141 151.792,218.141 152.063,218.141 152.333,218.141 152.604,218.141 152.875,218.141 153.146,218.141 153.417,218.141 153.688,218.141 153.958,218.141 154.229,218.141 154.500,218.141 154.771,218.141 155.042,218.141 155.313,218.141 155.583,218.141 155.854,218.141 156.125,218.141 156.396,218.141 156.667,218.141 156.937,218.141 157.208,218.141 157.479,218.141 157.750,218.141 158.021,218.141 158.292,218.141 158.562,218.141 158.833,218.141 159.104,218.141 159.375,218.141 159.646,218.141 159.917,218.141 160.187,218.141 160.458,218.141 160.729,218.141 161.000,218.141 161.271,218.141 161.541,218.141 161.812,218.141 162.083,218.141 162.354,218.141 162.625,218.141 162.896,218.141 163.166,218.141 163.437,218.141 163.708,218.141 163.979,218.141 164.250,218.141 164.521,218.141 164.791,218.141 165.062,218.141 165.333,218.141 165.604,218.141 165.875,218.141 166.145,218.141 166.416,218.141 166.687,218.141 166.958,218.141 167.229,218.141 167.500,218.141 167.770,218.141 168.041,218.141 168.312,218.141 168.583,218.141 168.854,218.141 169.124,218.141 169.395,218.141 169.666,218.141 169.937,218.141 170.208,218.141 170.479,218.141 170.749,218.141 171.020,218.141 171.291,218.141 171.562,218.141 171.833,218.141 172.104,218.141 172.374,218.141 172.645,218.141 172.916,218.141 173.187,218.141 173.458,218.141 173.728,218.141 173.999,218.141 174.270,218.141 174.541,218.141 174.812,218.141 175.083,218.141 175.353,218.141 175.624,218.141 175.895,218.141 176.166,218.141 176.437,218.141 176.708,218.141 176.978,218.141 177.249,218.141 177.520,218.141 177.791,218.141 178.062,218.141 178.332,218.141 178.603,218.141 178.874,218.141 179.145,218.141 179.416,218.141 179.687,218.141 179.957,218.141 180.228,218.141 180.499,218.141 180.770,218.141 181.041,218.141 181.312,218.141 181.582,218.141 181.853,218.141 182.124,218.141 182.395,218.141 182.666,218.141 182.936,218.141 183.207,218.141 183.478,218.141 183.749,218.141 184.020,218.141 184.291,218.141 184.561,218.141 184.832,218.141 185.103,218.141 185.374,218.141 185.645,218.141 185.916,218.141 186.186,218.141 186.457,218.141 186.728,218.141 186.999,218.141 187.270,218.141 187.540,218.141 187.811,218.141 188.082,218.141 188.353,218.141 188.624,218.141 188.895,218.141 189.165,218.141 189.436,218.141 189.707,218.141 189.978,218.141 190.249,218.141 190.519,218.141 190.790,218.141 191.061,218.141 191.332,218.141 191.603,218.141 191.874,218.141 192.144,218.141 192.415,218.141 192.686,218.141 192.957,218.141 193.228,218.141 193.499,218.141 193.769,218.141 194.040,218.141 194.311,218.141 194.582,218.141 194.853,218.141 195.123,218.141 195.394,218.141 195.665,218.141 195.936,218.141 196.207,218.141 196.478,218.141 196.748,218.141 197.019,218.141 197.290,218.141 197.561,218.141 197.832,218.141 198.103,218.141 198.373,218.141 198.644,218.141 198.915,218.141 199.186,218.141 199.457,218.141 199.727,218.141 199.998,218.141 200.269,218.141 200.540,218.141 200.811,218.141 201.082,218.141 201.352,218.141 201.623,218.141 201.894,218.141 202.165,218.141 202.436,218.141 202.707,218.141 202.977,218.141 203.248,218.141 203.519,218.141 203.790,218.141 204.061,218.141 204.331,218.141 204.602,218.141 204.873,218.141 205.144,218.141 205.415,218.141 205.686,218.141 205.956,218.141 206.227,218.141 206.498,218.141 206.769,218.141 207.040,218.141 207.311,218.141 207.581,218.141 207.852,218.141 208.123,218.141 208.394,218.141 208.665,218.141 208.935,218.141 209.206,218.141 209.477,218.141 209.748,218.141 210.019,218.141 210.290,218.141 210.560,218.141 210.831,218.141 211.102,218.141 211.373,218.141 211.644,218.141 211.915,218.141 212.185,218.141 212.456,218.141 212.727,218.141 212.998,218.141 213.269,218.141 213.539,218.141 213.810,218.141 214.081,218.141 214.352,218.141 214.623,218.141 214.894,218.141 215.164,218.141 215.435,218.141 215.706,218.141 215.977,218.141 216.248,218.141 216.518,218.141 216.789,218.141 217.060,218.141 217.331,218.141 217.602,218.141 217.873,218.141 218.143,218.141 218.414,218.141 218.685,218.141 218.956,218.141 219.227,218.141 219.498,218.141 219.768,218.141 220.039,218.141 220.310,218.141 220.581,218.141 220.852,218.141 221.122,218.141 221.393,218.141 221.664,218.141 221.935,218.141 222.206,218.141 222.477,218.141 222.747,218.141 223.018,218.141 223.289,218.141 223.560,218.141 223.831,218.141 224.102,218.141 224.372,218.141 224.643,218.141 224.914,218.141 225.185,218.141 225.456,218.141 225.726,218.141 225.997,218.141 226.268,218.141 226.539,218.141 226.810,218.141 227.081,218.141 227.351,218.141 227.622,218.141 227.893,218.141 228.164,218.141 228.435,218.141 228.706,218.141 228.976,218.141 229.247,218.141 229.518,218.141 229.789,218.141 230.060,218.141 230.330,218.141 230.601,218.141 230.872,218.141 231.143,218.141 231.414,218.141 231.685,218.141 231.955,218.141 232.226,218.141 232.497,218.141 232.768,218.141 233.039,218.141 233.310,218.141 233.580,218.141 233.851,218.141 234.122,218.141 234.393,218.141 234.664,218.141 234.934,218.141 235.205,218.141 235.476,218.141 235.747,218.141 236.018,218.141 236.289,218.141 236.559,218.141 236.830,218.141 237.101,218.141 237.372,218.141 237.643,218.141 237.913,218.141 238.184,218.141 238.455,218.141 238.726,218.141 238.997,218.141 239.268,218.141 239.538,218.141 239.809,218.141 240.080,218.141 240.351,218.141 240.622,218.141 240.893,218.141 241.163,218.141 241.434,218.141 241.705,218.141 241.976,218.141 242.247,218.141 242.517,218.141 242.788,218.141 243.059,218.141 243.330,218.141 243.601,218.141 243.872,218.141 244.142,218.141 244.413,218.141 244.684,218.141 244.955,218.141 245.226,218.141 245.497,218.141 245.767,218.141 246.038,218.141 246.309,218.141 246.580,218.141 246.851,218.141 247.121,218.141 247.392,218.141 247.663,218.141 247.934,218.141 248.205,218.141 248.476,218.141 248.746,218.141 249.017,218.141 249.288,218.141 249.559,218.141 249.830,218.141 250.101,218.141 250.371,218.141 250.642,218.141 250.913,218.141 251.184,218.141 251.455,218.141 251.725,218.141 251.996,218.141 252.267,218.141 252.538,218.141 252.809,218.141 253.080,218.141 253.350,218.141 253.621,218.141 253.892,218.141 254.163,218.141 254.434,218.141 254.705,218.141 254.975,218.141 255.246,218.141 255.517,218.141 255.788,218.141 256.059,218.141 256.329,218.141 256.600,218.141 256.871,218.141 257.142,218.141 257.413,218.141 257.684,218.141 257.954,218.141 258.225,218.141 258.496,218.141 258.767,218.141 259.038,218.141 259.308,218.141 259.579,218.141 259.850,218.141 260.121,218.141 260.392,218.141 260.663,218.141 260.933,218.141 261.204,218.141 261.475,218.141 261.746,218.141 262.017,218.141 262.288,218.141 262.558,218.141 262.829,218.141 263.100,218.141 263.371,218.141 263.642,218.141 263.912,218.141 264.183,218.141 264.454,218.141 264.725,218.141 264.996,218.141 265.267,218.141 265.537,218.141 265.808,218.141 266.079,218.141 266.350,218.141 266.621,218.141 266.892,218.141 267.162,218.141 267.433,218.141 267.704,218.141 267.975,218.141 268.246,218.141 268.516,218.141 268.787,218.141 269.058,218.141 269.329,218.141 269.600,218.141 269.871,218.141 270.141,218.141 270.412,218.141 270.683,218.141 270.954,218.141 271.225,218.141 271.496,218.141 271.766,218.141 272.037,218.141 272.308,218.141 272.579,218.141 272.850,218.141 273.120,218.141 273.391,218.141 273.662,218.141 273.933,218.141 274.204,218.141 274.475,218.141 274.745,218.141 275.016,218.141 275.287,218.141 275.558,218.141 275.829,218.141 276.100,218.141 276.370,218.141 276.641,218.141 276.912,218.141 277.183,218.141 277.454,218.141 277.724,218.141 277.995,218.141 278.266,218.141 278.537,218.141 278.808,218.141 279.079,218.141 279.349,218.141 279.620,218.141 279.891,218.141 280.162,218.141 280.433,218.141 280.704,218.141 280.974,218.141 281.245,218.141 281.516,218.141 281.787,218.141 282.058,218.141 282.328,218.141 282.599,218.141 282.870,218.141 283.141,218.141 283.412,218.141 283.683,218.141 283.953,218.141 284.224,218.141 284.495,218.141 284.766,218.141 285.037,218.141 285.307,218.141 285.578,218.141 285.849,218.141 286.120,218.141 286.391,218.141 286.662,218.141 286.932,218.141 287.203,218.141 287.474,218.141 287.745,218.141 288.016,218.141 288.287,218.141 288.557,218.141 288.828,218.141 289.099,218.141 289.370,218.141 289.641,218.141 289.911,218.141 290.182,218.141 290.453,218.141 290.724,218.141 290.995,218.141 291.266,218.141 291.536,218.141 291.807,218.141 292.078,218.141 292.349,218.141 292.620,218.141 292.891,218.141 293.161,218.141 293.432,218.141 293.703,218.141 293.974,218.141 294.245,218.141 294.515,218.141 294.786,218.141 295.057,218.141 295.328,218.141 295.599,218.141 295.870,218.141 296.140,218.141 296.411,218.141 296.682,218.141 296.953,218.141 297.224,218.141 297.495,218.141 297.765,218.141 298.036,218.141 298.307,218.141 298.578,218.141 298.849,218.141 299.119,218.141 299.390,218.141 299.661,218.141 299.932,218.141 300.203,218.141 300.474,218.141 300.744,218.141 301.015,218.141 301.286,218.141 301.557,218.141 301.828,218.141 302.099,218.141 302.369,218.141 302.640,218.141 302.911,218.141 303.182,218.141 303.453,218.141 303.723,218.141 303.994,218.141 304.265,218.141 304.536,218.141 304.807,218.141 305.078,218.141 305.348,218.141 305.619,218.141 305.890,218.141 306.161,218.141 306.432,218.141 306.702,218.141 306.973,218.141 307.244,218.141 307.515,218.141 307.786,218.141 308.057,218.141 308.327,218.141 308.598,218.141 308.869,218.141 309.140,218.141 309.411,218.141 309.682,218.141 309.952,218.141 310.223,218.141 310.494,218.141 310.765,218.141 311.036,218.141 311.306,218.141 311.577,218.141 311.848,218.141 312.119,218.141 312.390,218.141 312.661,218.141 312.931,218.141 313.202,218.141 313.473,218.141 313.744,218.141 314.015,218.141 314.286,218.141 314.556,218.141 314.827,218.141 315.098,218.141 315.369,218.141 315.640,218.141 315.910,218.141 316.181,218.141 316.452,218.141 316.723,218.141 316.994,218.141 317.265,218.141 317.535,218.141 317.806,218.141 318.077,218.141 318.348,218.141 318.619,218.141 318.890,218.141 319.160,218.141 319.431,218.141 319.702,218.141 319.973,218.141 320.244,218.141 320.514,218.141 320.785,218.141 321.056,218.141 321.327,218.141 321.598,218.141 321.869,218.141 322.139,218.141 322.410,218.141 322.681,218.141 322.952,218.141 323.223,218.141 323.494,218.141 323.764,218.141 324.035,218.141 324.306,218.141 324.577,218.141 324.848,218.141 325.118,218.141 325.389,218.141 325.660,218.141 325.931,218.141 326.202,218.141 326.473,218.141 326.743,218.141 327.014,218.141 327.285,218.141 327.556,218.141 327.827,218.141 328.097,218.141 328.368,218.141 328.639,218.141 328.910,218.141 329.181,218.141 329.452,218.141 329.722,218.141 329.993,218.141 330.264,218.141 330.535,218.141 330.806,218.141 331.077,218.141 331.347,218.141 331.618,218.141 331.889,218.141 332.160,218.141 332.431,218.141 332.701,218.141 332.972,218.141 333.243,218.141 333.514,218.141 333.785,218.141 334.056,218.141 334.326,218.141 334.597,218.141 334.868,218.141 335.139,218.141 335.410,218.141 335.681,218.141 335.951,218.141 336.222,218.141 336.493,218.141 336.764,218.141 337.035,218.141 337.305,218.141 337.576,218.141 337.847,218.141 338.118,218.141 338.389,218.141 338.660,218.141 338.930,218.141 339.201,218.141 339.472,218.141 339.743,218.141 340.014,218.141 340.285,218.141 340.555,218.141 340.826,218.141 341.097,218.141 341.368,218.141 341.639,218.141 341.909,218.141 342.180,218.141 342.451,218.141 342.722,218.141 342.993,218.141 343.264,218.141 343.534,218.141 343.805,218.141 344.076,218.141 344.347,218.141 344.618,218.141 344.889,218.141 345.159,218.141 345.430,218.141 345.701,218.141 345.972,218.141 346.243,218.141 346.513,218.141 346.784,218.141 347.055,218.141 347.326,218.141 347.597,218.141 347.868,218.141 348.138,218.141 348.409,218.141 348.680,218.141 348.951,218.141 349.222,218.141 349.493,218.141 349.763,218.141 350.034,218.141 350.305,218.141 350.576,218.141 350.847,218.141 351.117,218.141 351.388,218.141 351.659,218.141 351.930,218.141 352.201,218.141 352.472,218.141 352.742,218.141 353.013,218.141 353.284,218.141 353.555,218.141 353.826,218.141 354.096,218.141 354.367,218.141 354.638,218.141 354.909,218.141 355.180,218.141 355.451,218.141 355.721,218.141 355.992,218.141 356.263,218.141 356.534,218.141 356.805,218.141 357.076,218.141 357.346,218.141 357.617,218.141 357.888,218.141 358.159,218.141 358.430,218.141 358.700,218.141 358.971,218.141 359.242,218.141 359.513,218.141 359.784,218.141 360.055,218.141 360.325,218.141 360.596,218.141 360.867,218.141 361.138,218.141 361.409,218.141 361.680,218.141 361.950,218.141 362.221,218.141 362.492,218.141 362.763,218.141 363.034,218.141 363.304,218.141 363.575,218.141 363.846,218.141 364.117,218.141 364.388,218.141 364.659,218.141 364.929,218.141 365.200,218.141 365.471,218.141 365.742,218.141 366.013,218.141 366.284,218.141 366.554,218.141 366.825,218.141 367.096,218.141 367.367,218.141 367.638,218.141 367.908,218.141 368.179,218.141 368.450,218.141 368.721,218.141 368.992,218.141 369.263,218.141 369.533,218.141 369.804,218.141 370.075,218.141 370.346,218.141 370.617,218.141 370.888,218.141 371.158,218.141 371.429,218.141 371.700,218.141 371.971,218.141 372.242,218.141 372.512,218.141 372.783,218.141 373.054,218.141 373.325,218.141 373.596,218.141 373.867,218.141 374.137,218.141 374.408,218.141 374.679,218.141 374.950,218.141 375.221,218.141 375.491,218.141 375.762,218.141 376.033,218.141 376.304,218.141 376.575,218.141 376.846,218.141 377.116,218.141 377.387,218.141 377.658,218.141 377.929,218.141 378.200,218.141 378.471,218.141 378.741,218.141 379.012,218.141 379.283,218.141 379.554,218.141 379.825,218.141 380.095,218.141 380.366,218.141 380.637,218.141 380.908,218.141 381.179,218.141 381.450,218.141 381.720,218.141 381.991,218.141 382.262,218.141 382.533,218.141 382.804,218.141 383.075,218.141 383.345,218.141 383.616,218.141 383.887,218.141 384.158,218.141 384.429,218.141 384.699,218.141 384.970,218.141 385.241,218.141 385.512,218.141 385.783,218.141 386.054,218.141 386.324,218.141 386.595,218.141 386.866,218.141 387.137,218.141 387.408,218.141 387.679,218.141 387.949,218.141 388.220,218.141 388.491,218.141 388.762,218.141 389.033,218.141 389.303,218.141 389.574,218.141 389.845,218.141 390.116,218.141 390.387,218.141 390.658,218.141 390.928,218.141 391.199,218.141 391.470,218.141 391.741,218.141 392.012,218.141 392.283,218.141 392.553,218.141 392.824,218.141 393.095,218.141 393.366,218.141 393.637,218.141 393.907,218.141 394.178,218.141 394.449,218.141 394.720,218.141 394.991,218.141 395.262,218.141 395.532,218.141 395.803,218.141 396.074,218.141 396.345,218.141 396.616,218.141 396.886,218.141 397.157,218.141 397.428,218.141 397.699,218.141 397.970,218.141 398.241,218.141 398.511,218.141 398.782,218.141 399.053,218.141 399.324,218.141 399.595,218.141 399.866,218.141 400.136,218.141 400.407,218.141 400.678,218.141 400.949,218.141 401.220,218.141 401.490,218.141 401.761,218.141 402.032,218.141 402.303,218.141 402.574,218.141 402.845,218.141 403.115,218.141 403.386,218.141 403.657,218.141 403.928,218.141 404.199,218.141 404.470,218.141 404.740,218.141 405.011,218.141 405.282,218.141 405.553,218.141 405.824,218.141 406.094,218.141 406.365,218.141 406.636,218.141 406.907,218.141 407.178,218.141 407.449,218.141 407.719,218.141 407.990,218.141 408.261,218.141 408.532,218.141 408.803,218.141 409.074,218.141 409.344,218.141 409.615,218.141 409.886,218.141 410.157,218.141 410.428,218.141 410.698,218.141 410.969,218.141 411.240,218.141 411.511,218.141 411.782,218.141 412.053,218.141 412.323,218.141 412.594,218.141 412.865,218.141 413.136,218.141 413.407,218.141 413.678,218.141 413.948,218.141 414.219,218.141 414.490,218.141 414.761,218.141 415.032,218.141 415.302,218.141 415.573,218.141 415.844,218.141 416.115,218.141 416.386,218.141 416.657,218.141 416.927,218.141 417.198,218.141 417.469,218.141 417.740,218.141 418.011,218.141 418.282,218.141 418.552,218.141 418.823,218.141 419.094,218.141 419.365,218.141 419.636,218.141 419.906,218.141 420.177,218.141 420.448,218.141 420.719,218.141 420.990,218.141 421.261,218.141 421.531,218.141 421.802,218.141 422.073,218.141 422.344,218.141 422.615,218.141 422.885,218.141 423.156,218.141 423.427,218.141 423.698,218.141 423.969,218.141 424.240,218.141 424.510,218.141 424.781,218.141 425.052,218.141 425.323,218.141 425.594,218.141 425.865,218.141 426.135,218.141 426.406,218.141 426.677,218.141 426.948,218.141 427.219,218.141 427.489,218.141 427.760,218.141 428.031,218.141 428.302,218.141 428.573,218.141 428.844,218.141 429.114,218.141 429.385,218.141 429.656,218.141 429.927,218.141 430.198,218.141 430.469,218.141 430.739,218.141 431.010,218.141 431.281,218.141 431.552,218.141 431.823,218.141 432.093,218.141 432.364,218.141 432.635,218.141 432.906,218.141 433.177,218.141 433.448,218.141 433.718,218.141 433.989,218.141 434.260,218.141 434.531,218.141 434.802,218.141 435.073,218.141 435.343,218.141 435.614,218.141 435.885,218.141 436.156,218.141 436.427,218.141 436.697,218.141 436.968,218.141 437.239,218.141 437.510,218.141 437.781,218.141 438.052,218.141 438.322,218.141 438.593,218.141 438.864,218.141 439.135,218.141 439.406,218.141 439.677,218.141 439.947,218.141 440.218,218.141 440.489,218.141 440.760,218.141 441.031,218.141 441.301,218.141 441.572,218.141 441.843,218.141 442.114,218.141 442.385,218.141 442.656,218.141 442.926,218.141 443.197,218.141 443.468,218.141 443.739,218.141 444.010,218.141 444.280,218.141 444.551,218.141 444.822,218.141 445.093,218.141 445.364,218.141 445.635,218.141 445.905,218.141 446.176,218.141 446.447,218.141 446.718,218.141 446.989,218.141 447.260,218.141 447.530,218.141 447.801,218.141 448.072,218.141 448.343,218.141 448.614,218.141 448.884,218.141 449.155,218.141 449.426,218.141 449.697,218.141 449.968,218.141 450.239,218.141 450.509,218.141 450.780,218.141 451.051,218.141 451.322,218.141 451.593,218.141 451.864,218.141 452.134,218.141 452.405,218.141 452.676,218.141 452.947,218.141 453.218,218.141 453.488,218.141 453.759,218.141 454.030,218.141 454.301,218.141 454.572,218.141 454.843,218.141 455.113,218.141 455.384,218.141 455.655,218.141 455.926,218.141 456.197,218.109 456.468,75.258 456.738,70.908 457.009,218.106 457.280,218.141 457.551,218.141 457.822,218.141 458.092,218.141 458.363,218.141 458.634,218.141 458.905,218.141 459.176,218.141 459.447,218.141 459.717,218.141 459.988,218.141 460.259,218.141 460.530,218.141 460.801,218.141 461.072,218.141 461.342,218.141 461.613,218.141 461.884,218.141 462.155,218.141 462.426,218.141 462.696,218.141 462.967,218.141 463.238,218.141 463.509,218.141 463.780,218.141 464.051,218.141 464.321,218.141 464.592,218.141 464.863,218.141 465.134,218.141 465.405,218.141 465.675,218.141 465.946,218.141 466.217,218.141 466.488,218.141 466.759,218.141 467.030,218.141 467.300,218.141 467.571,218.141 467.842,218.141 468.113,218.141 468.384,218.141 468.655,218.141 468.925,218.141 469.196,218.141 469.467,218.141 469.738,218.141 470.009,218.141 470.279,218.141 470.550,218.141 470.821,218.141 471.092,218.141 471.363,218.141 471.634,218.141 471.904,218.141 472.175,218.141 472.446,218.141 472.717,218.141 472.988,218.141 473.259,218.141 473.529,218.141 473.800,218.141 474.071,218.141 474.342,218.141 474.613,218.141 474.883,218.141 475.154,218.141 475.425,218.141 475.696,218.141 475.967,218.141 476.238,218.141 476.508,218.141 476.779,218.141 477.050,218.141 477.321,218.141 477.592,218.141 477.863,218.141 478.133,218.141 478.404,218.141 478.675,218.141 478.946,218.141 479.217,218.141 479.487,218.141 479.758,218.141 480.029,218.141 480.300,218.141 480.571,218.141 480.842,218.141 481.112,218.141 481.383,218.141 481.654,218.141 481.925,218.141 482.196,218.141 482.467,218.141 482.737,218.141 483.008,218.141 483.279,218.141 483.550,218.141 483.821,218.141 484.091,218.141 484.362,218.141 484.633,218.141 484.904,218.141 485.175,218.141 485.446,218.141 485.716,218.141 485.987,218.141 486.258,218.141 486.529,218.141 486.800,218.141 487.071,218.141 487.341,218.141 487.612,218.141 487.883,218.141 488.154,218.141 488.425,218.141 488.695,218.141 488.966,218.141 489.237,218.141 489.508,218.141 489.779,218.141 490.050,218.141 490.320,218.141 490.591,218.141 490.862,218.141 491.133,218.141 491.404,218.141 491.674,218.141 491.945,218.141 492.216,218.141 492.487,218.141 492.758,218.141 493.029,218.141 493.299,218.141 493.570,218.141 493.841,218.141 494.112,218.141 494.383,218.141 494.654,218.141 494.924,218.141 495.195,218.141 495.466,218.141 495.737,218.141 496.008,218.141 496.278,218.141 496.549,218.141 496.820,218.141 497.091,218.141 497.362,218.141 497.633,218.141 497.903,218.141 498.174,218.141 498.445,218.141 498.716,218.141 498.987,218.141 499.258,218.141 499.528,218.141 499.799,218.141 500.070,218.141 500.341,218.141 500.612,218.141 500.882,218.141 501.153,218.141 501.424,218.141 501.695,218.141 501.966,218.141 502.237,218.141 502.507,218.141 502.778,218.141 503.049,218.141 503.320,218.141 503.591,218.141 503.862,218.141 504.132,218.141 504.403,218.141 504.674,218.141 504.945,218.141 505.216,218.141 505.486,218.141 505.757,218.141 506.028,218.141 506.299,218.141 506.570,218.141 506.841,218.141 507.111,218.141 507.382,218.141 507.653,218.141 507.924,218.141 508.195,218.141 508.466,218.141 508.736,218.141 509.007,218.141 509.278,218.141 509.549,218.141 509.820,218.141 510.090,218.141 510.361,218.141 510.632,218.141 510.903,218.141 511.174,218.141 511.445,218.141 511.715,218.141 511.986,218.141 512.257,218.141 512.528,218.141 512.799,218.141 513.069,218.141 513.340,218.141 513.611,218.141 513.882,218.141 514.153,218.141 514.424,218.141 514.694,218.141 514.965,218.141 515.236,218.141 515.507,218.141 515.778,218.141 516.049,218.141 516.319,218.141 516.590,218.141 516.861,218.141 517.132,218.141 517.403,218.141 517.673,218.141 517.944,218.141 518.215,218.141 518.486,218.141 518.757,218.141 519.028,218.141 519.298,218.141 519.569,218.141 519.840,218.141 520.111,218.141 520.382,218.141 520.653,218.141 520.923,218.141 521.194,218.141 521.465,218.141 521.736,218.141 522.007,218.141 522.277,218.141 522.548,218.141 522.819,218.141 523.090,218.141 523.361,218.141 523.632,218.141 523.902,218.141 524.173,218.141 524.444,218.141 524.715,218.141 524.986,218.141 525.257,218.141 525.527,218.141 525.798,218.141 526.069,218.141 526.340,218.141 526.611,218.141 526.881,218.141 527.152,218.141 527.423,218.141 527.694,218.141 527.965,218.141 528.236,218.141 528.506,218.141 528.777,218.141 529.048,218.141 529.319,218.141 529.590,218.141 529.861,218.141 530.131,218.141 530.402,218.141 530.673,218.141 530.944,218.141 531.215,218.141 531.485,218.141 531.756,218.141 532.027,218.141 532.298,218.141 532.569,218.141 532.840,218.141 533.110,218.141 533.381,218.141 533.652,218.141 533.923,218.141 534.194,218.141 534.464,218.141 534.735,218.141 535.006,218.141 535.277,218.141 535.548,218.141 535.819,218.141 536.089,218.141 536.360,218.141 536.631,218.141 536.902,218.141 537.173,218.141 537.444,218.141 537.714,218.141 537.985,218.141 538.256,218.141 538.527,218.141 538.798,218.141 539.068,218.141 539.339,218.141 539.610,218.141 539.881,218.141 540.152,218.141 540.423,218.141 540.693,218.141 540.964,218.141 541.235,218.141 541.506,218.141 541.777,218.141 542.048,218.141 542.318,218.141 542.589,218.141 542.860,218.141 543.131,218.141 543.402,218.141 543.672,218.141 543.943,218.141 544.214,218.141 544.485,218.141 544.756,218.141 545.027,218.141 545.297,218.141 545.568,218.141 545.839,218.141 546.110,218.141 546.381,218.141 546.652,218.141 546.922,218.141 547.193,218.141 547.464,218.141 547.735,218.141 548.006,218.141 548.276,218.141 548.547,218.141 548.818,218.141 549.089,218.141 549.360,218.141 549.631,218.141 549.901,218.141 550.172,218.141 550.443,218.141 550.714,218.141 550.985,218.141 551.256,218.141 551.526,218.141 551.797,218.141 552.068,218.141 552.339,218.141 552.610,218.141 552.880,218.141 553.151,218.141 553.422,218.141 553.693,218.141 553.964,218.141 554.235,218.141 554.505,218.141 554.776,218.141 555.047,218.141 555.318,218.141 555.589,218.141 555.860,218.141 556.130,218.141 556.401,218.141 556.672,218.141 556.943,218.141 557.214,218.141 557.484,218.141 557.755,218.141 558.026,218.141 558.297,218.141 558.568,218.141 558.839,218.141 559.109,218.141 559.380,218.141 559.651,218.141 559.922,218.141 560.193,218.141 560.463,218.141 560.734,218.141 561.005,218.141 561.276,218.141 561.547,218.141 561.818,218.141 562.088,218.141 562.359,218.141 562.630,218.141 562.901,218.141 563.172,218.141 563.443,218.141 563.713,218.141 563.984,218.141 564.255,218.141 564.526,218.141 564.797,218.141 565.067,218.141 565.338,218.141 565.609,218.141 565.880,218.141 566.151,218.141 566.422,218.141 566.692,218.141 566.963,218.141 567.234,218.141 567.505,218.141 567.776,218.141 568.047,218.141 568.317,218.141 568.588,218.141 568.859,218.141 569.130,218.141 569.401,218.141 569.671,218.141 569.942,218.141 570.213,218.141 570.484,218.141 570.755,218.141 571.026,218.141 571.296,218.141 571.567,218.141 571.838,218.141 572.109,218.141 572.380,218.141 572.651,218.141 572.921,218.141 573.192,218.141 573.463,218.141 573.734,218.141 574.005,218.141 574.275,218.141 574.546,218.141 574.817,218.141 575.088,218.141 575.359,218.141 575.630,218.141 575.900,218.141 576.171,218.141 576.442,218.141 576.713,218.141 576.984,218.141 577.255,218.141 577.525,218.141 577.796,218.141 578.067,218.141 578.338,218.141 578.609,218.141 578.879,218.141 579.150,218.141 579.421,218.141 579.692,218.141 579.963,218.141 580.234,218.141 580.504,218.141 580.775,218.141 581.046,218.141 581.317,218.141 581.588,218.141 581.858,218.141 582.129,218.141 582.400,218.141 582.671,218.141 582.942,218.141 583.213,218.141 583.483,218.141 583.754,218.141 584.025,218.141 584.296,218.141 584.567,218.141 584.838,218.141 585.108,218.141 585.379,218.141 585.650,218.141 585.921,218.141 586.192,218.141 586.462,218.141 586.733,218.141 587.004,218.141 587.275,218.141 587.546,218.141 587.817,218.141 588.087,218.141 588.358,218.141 588.629,218.141 588.900,218.141 589.171,218.141 589.442,218.141 589.712,218.141 589.983,218.141 590.254,218.141 590.525,218.141 590.796,218.141 591.066,218.141 591.337,218.141 591.608,218.141 591.879,218.141 592.150,218.141 592.421,218.141 592.691,218.141 592.962,218.141 593.233,218.141 593.504,218.141 593.775,218.141 594.046,218.141 594.316,218.141 594.587,218.141 594.858,218.141 595.129,218.141 595.400,218.141 595.670,218.141 595.941,218.141 596.212,218.141 596.483,218.141 596.754,218.141 597.025,218.141 597.295,218.141 597.566,218.141 597.837,218.141 598.108,218.141 598.379,218.141 598.650,218.141 598.920,218.141 599.191,218.141 599.462,218.141 599.733,218.141 600.004,218.141 600.274,218.141 600.545,218.141 600.816,218.141 601.087,218.141 601.358,218.141 601.629,218.141 601.899,218.141 602.170,218.141 602.441,218.141 602.712,218.141 602.983,218.141 603.253,218.141 603.524,218.141 603.795,218.141 604.066,218.141 604.337,218.141 604.608,218.141 604.878,218.141 605.149,218.141 605.420,218.141 605.691,218.141 605.962,218.141 606.233,218.141 606.503,218.141 606.774,218.141 607.045,218.141 607.316,218.141 607.587,218.141 607.857,218.141 608.128,218.141 608.399,218.141 608.670,218.141 608.941,218.141 609.212,218.141 609.482,218.141 609.753,218.141 610.024,218.141 610.295,218.141 610.566,218.141 610.837,218.141 611.107,218.141 611.378,218.141 611.649,218.141 611.920,218.141 612.191,218.141 612.461,218.141 612.732,218.141 613.003,218.141 613.274,218.141 613.545,218.141 613.816,218.141 614.086,218.141 614.357,218.141 614.628,218.141 614.899,218.141 615.170,218.141 615.441,218.141 615.711,218.141 615.982,218.141 616.253,218.141 616.524,218.141 616.795,218.141 617.065,218.141 617.336,218.141 617.607,218.141 617.878,218.141 618.149,218.141 618.420,218.141 618.690,218.141 618.961,218.141 619.232,218.141 619.503,218.141 619.774,218.141 620.045,218.141 620.315,218.141 620.586,218.141 620.857,218.141 621.128,218.141 621.399,218.141 621.669,218.141 621.940,218.141 622.211,218.141 622.482,218.141 622.753,218.141 623.024,218.141 623.294,218.141 623.565,218.141 623.836,218.141 624.107,218.141 624.378,218.141 624.649,218.141 624.919,218.141 625.190,218.141 625.461,218.141 625.732,218.141 626.003,218.141 626.273,218.141 626.544,218.141 626.815,218.141 627.086,218.141 627.357,218.141 627.628,218.141 627.898,218.141 628.169,218.141 628.440,218.141 628.711,218.141 628.982,218.141 629.252,218.141 629.523,218.141 629.794,218.141 630.065,218.141 630.336,218.141 630.607,218.141 630.877,218.141 631.148,218.141 631.419,218.141 631.690,218.141 631.961,218.141 632.232,218.141 632.502,218.141 "/>
<g>
</g>
</g>
<g id="ID000003" >
  <g transform="translate(361.056,30.565)">
    <g transform="rotate(-0.0)">
      <text x="0.000" y="0.000" font-family="Helvetica" text-anchor="middle" font-size="12pt" fill="#000000" >l = 0.21, x* = -0.50</text>
    </g>
  </g>
</g>
<g id="ID000004" >
</g>
<g id="ID000005" >
</g>
    </g>
    <g>
      <polyline fill="none" stroke="#000000" stroke-width="0.5pt" stroke-dasharray="none" points="145.021,218.141 145.021,212.725 "/>
      <polyline fill="none" stroke="#000000" stroke-width="0.5pt" stroke-dasharray="none" points="199.186,218.141 199.186,212.725 "/>
      <polyline fill="none" stroke="#000000" stroke-width="0.5pt" stroke-dasharray="none" points="253.350,218.141 253.350,212.725 "/>
      <polyline fill="none" stroke="#000000" stroke-width="0.5pt" stroke-dasharray="none" points="307.515,218.141 307.515,212.725 "/>
      <polyline fill="none" stroke="#000000" stroke-width="0.5pt" stroke-dasharray="none" points="361.680,218.141 361.680,212.725 "/>
      <polyline fill="none" stroke="#000000" stroke-width="0.5pt" stroke-dasharray="none" points="415.844,218.141 415.844,212.725 "/>
      <polyline fill="none" stroke="#000000" stroke-width="0.5pt" stroke-dasharray="none" points="470.009,218.141 470.009,212.725 "/>
      <polyline fill="none" stroke="#000000" stroke-width="0.5pt" stroke-dasharray="none" points="524.173,218.141 524.173,212.725 "/>
      <polyline fill="none" stroke="#000000" stroke-width="0.5pt" stroke-dasharray="none" points="578.338,218.141 578.338,212.725 "/>
      <polyline fill="none" stroke="#000000" stroke-width="0.5pt" stroke-dasharray="none" points="90.857,218.141 632.502,218.141 "/>
      <polyline fill="none" stroke="#000000" stroke-width="0.5pt" stroke-dasharray="none" points="145.021,39.313 145.021,44.729 "/>
      <polyline fill="none" stroke="#000000" stroke-width="0.5pt" stroke-dasharray="none" points="199.186,39.313 199.186,44.729 "/>
      <polyline fill="none" stroke="#000000" stroke-width="0.5pt" stroke-dasharray="none" points="253.350,39.313 253.350,44.729 "/>
      <polyline fill="none" stroke="#000000" stroke-width="0.5pt" stroke-dasharray="none" points="307.515,39.313 307.515,44.729 "/>
      <polyline fill="none" stroke="#000000" stroke-width="0.5pt" stroke-dasharray="none" points="361.680,39.313 361.680,44.729 "/>
      <polyline fill="none" stroke="#000000" stroke-width="0.5pt" stroke-dasharray="none" points="415.844,39.313 415.844,44.729 "/>
      <polyline fill="none" stroke="#000000" stroke-width="0.5pt" stroke-dasharray="none" points="470.009,39.313 470.009,44.729 "/>
      <polyline fill="none" stroke="#000000" stroke-width="0.5pt" stroke-dasharray="none" points="524.173,39.313 524.173,44.729 "/>
      <polyline fill="none" stroke="#000000" stroke-width="0.5pt" stroke-dasharray="none" points="578.338,39.313 578.338,44.729 "/>
      <polyline fill="none" stroke="#000000" stroke-width="0.5pt" stroke-dasharray="none" points="90.857,39.313 632.502,39.313 "/>
  <g transform="translate(90.857,236.445)">
    <g transform="rotate(-0.0)">
      <text x="0.000" y="0.000" font-family="Helvetica" text-anchor="middle" font-size="12pt" fill="#000000" >-1</text>
    </g>
  </g>
  <g transform="translate(145.021,236.445)">
    <g transform="rotate(-0.0)">
      <text x="0.000" y="0.000" font-family="Helvetica" text-anchor="middle" font-size="12pt" fill="#000000" >-0.8</text>
    </g>
  </g>
  <g transform="translate(199.186,236.445)">
    <g transform="rotate(-0.0)">
      <text x="0.000" y="0.000" font-family="Helvetica" text-anchor="middle" font-size="12pt" fill="#000000" >-0.6</text>
    </g>
  </g>
  <g transform="translate(253.350,236.445)">
    <g transform="rotate(-0.0)">
      <text x="0.000" y="0.000" font-family="Helvetica" text-anchor="middle" font-size="12pt" fill="#000000" >-0.4</text>
    </g>
  </g>
  <g transform="translate(307.515,236.445)">
    <g transform="rotate(-0.0)">
      <text x="0.000" y="0.000" font-family="Helvetica" text-anchor="middle" font-size="12pt" fill="#000000" >-0.2</text>
    </g>
  </g>
  <g transform="translate(361.680,236.445)">
    <g transform="rotate(-0.0)">
      <text x="0.000" y="0.000" font-family="Helvetica" text-anchor="middle" font-size="12pt" fill="#000000" >0</text>
    </g>
  </g>
  <g transform="translate(415.844,236.445)">
    <g transform="rotate(-0.0)">
      <text x="0.000" y="0.000" font-family="Helvetica" text-anchor="middle" font-size="12pt" fill="#000000" >0.2</text>
    </g>
  </g>
  <g transform="translate(470.009,236.445)">
    <g transform="rotate(-0.0)">
      <text x="0.000" y="0.000" font-family="Helvetica" text-anchor="middle" font-size="12pt" fill="#000000" >0.4</text>
    </g>
  </g>
  <g transform="translate(524.173,236.445)">
    <g transform="rotate(-0.0)">
      <text x="0.000" y="0.000" font-family="Helvetica" text-anchor="middle" font-size="12pt" fill="#000000" >0.6</text>
    </g>
  </g>
  <g transform="translate(578.338,236.445)">
    <g transform="rotate(-0.0)">
      <text x="0.000" y="0.000" font-family="Helvetica" text-anchor="middle" font-size="12pt" fill="#000000" >0.8</text>
    </g>
  </g>
  <g transform="translate(632.502,236.445)">
    <g transform="rotate(-0.0)">
      <text x="0.000" y="0.000" font-family="Helvetica" text-anchor="middle" font-size="12pt" fill="#000000" >1</text>
    </g>
  </g>
      <polyline fill="none" stroke="#000000" stroke-width="0.5pt" stroke-dasharray="none" points="90.857,182.376 96.273,182.376 "/>
      <polyline fill="none" stroke="#000000" stroke-width="0.5pt" stroke-dasharray="none" points="90.857,146.610 96.273,146.610 "/>
      <polyline fill="none" stroke="#000000" stroke-width="0.5pt" stroke-dasharray="none" points="90.857,110.844 96.273,110.844 "/>
      <polyline fill="none" stroke="#000000" stroke-width="0.5pt" stroke-dasharray="none" points="90.857,75.079 96.273,75.079 "/>
      <polyline fill="none" stroke="#000000" stroke-width="0.5pt" stroke-dasharray="none" points="90.857,218.141 90.857,39.313 "/>
      <polyline fill="none" stroke="#000000" stroke-width="0.5pt" stroke-dasharray="none" points="632.502,182.376 627.086,182.376 "/>
      <polyline fill="none" stroke="#000000" stroke-width="0.5pt" stroke-dasharray="none" points="632.502,146.610 627.086,146.610 "/>
      <polyline fill="none" stroke="#000000" stroke-width="0.5pt" stroke-dasharray="none" points="632.502,110.844 627.086,110.844 "/>
      <polyline fill="none" stroke="#000000" stroke-width="0.5pt" stroke-dasharray="none" points="632.502,75.079 627.086,75.079 "/>
      <polyline fill="none" stroke="#000000" stroke-width="0.5pt" stroke-dasharray="none" points="632.502,218.141 632.502,39.313 "/>
  <g transform="translate(80.024,223.758)">
    <g transform="rotate(-0.0)">
      <text x="0.000" y="0.000" font-family="Helvetica" text-anchor="end" font-size="12pt" fill="#000000" >0</text>
    </g>
  </g>
  <g transform="translate(80.024,187.992)">
    <g transform="rotate(-0.0)">
      <text x="0.000" y="0.000" font-family="Helvetica" text-anchor="end" font-size="12pt" fill="#000000" >100</text>
    </g>
  </g>
  <g transform="translate(80.024,152.226)">
    <g transform="rotate(-0.0)">
      <text x="0.000" y="0.000" font-family="Helvetica" text-anchor="end" font-size="12pt" fill="#000000" >200</text>
    </g>
  </g>
  <g transform="translate(80.024,116.460)">
    <g transform="rotate(-0.0)">
      <text x="0.000" y="0.000" font-family="Helvetica" text-anchor="end" font-size="12pt" fill="#000000" >300</text>
    </g>
  </g>
  <g transform="translate(80.024,80.695)">
    <g transform="rotate(-0.0)">
      <text x="0.000" y="0.000" font-family="Helvetica" text-anchor="end" font-size="12pt" fill="#000000" >400</text>
    </g>
  </g>
  <g transform="translate(80.024,44.929)">
    <g transform="rotate(-0.0)">
      <text x="0.000" y="0.000" font-family="Helvetica" text-anchor="end" font-size="12pt" fill="#000000" >500</text>
    </g>
  </g>
      <polyline fill="none" stroke="#000000" stroke-width="0.5pt" stroke-dasharray="none" points="90.857,218.141 90.857,216.353 "/>
      <polyline fill="none" stroke="#000000" stroke-width="0.5pt" stroke-dasharray="none" points="90.857,218.141 90.857,218.141 "/>
    </g>
  </g>
  <g id ="ID000006">
  <clipPath id="ID000007">
    <rect x="90.857" y="287.686" width="541.646" height="178.828"/>
  </clipPath>
      <polygon fill="#ffffff" fill-opacity="1.00" stroke="none" stroke-width="0.5pt" stroke-opacity="1.00" stroke-dasharray="none" points="90.857,466.514 632.502,466.514 632.502,287.686 90.857,287.686 "/>
      <polygon fill="#ffffff" fill-opacity="1.00" stroke="none" stroke-width="0.5pt" stroke-opacity="1.00" stroke-dasharray="none" points="90.857,287.686 632.502,287.686 632.502,287.686 90.857,287.686 "/>
      <polygon fill="#ffffff" fill-opacity="1.00" stroke="none" stroke-width="0.5pt" stroke-opacity="1.00" stroke-dasharray="none" points="90.857,466.514 90.857,466.514 90.857,287.686 90.857,287.686 "/>
    <g>
<g id="ID000008" clip-path="url(#ID000007)" >
      <polyline fill="none" stroke="#0000ff" stroke-width="0.5pt" stroke-dasharray="none" points="90.857,456.838 91.128,456.794 91.398,456.751 91.669,456.707 91.940,456.663 92.211,456.619 92.482,456.574 92.752,456.530 93.023,456.485 93.294,456.441 93.565,456.396 93.836,456.350 94.107,456.305 94.377,456.260 94.648,456.214 94.919,456.168 95.190,456.122 95.461,456.076 95.732,456.030 96.002,455.983 96.273,455.937 96.544,455.890 96.815,455.843 97.086,455.796 97.356,455.748 97.627,455.701 97.898,455.653 98.169,455.605 98.440,455.557 98.711,455.509 98.981,455.461 99.252,455.412 99.523,455.364 99.794,455.315 100.065,455.266 100.335,455.217 100.606,455.167 100.877,455.118 101.148,455.068 101.419,455.018 101.690,454.968 101.960,454.917 102.231,454.867 102.502,454.816 102.773,454.766 103.044,454.715 103.315,454.663 103.585,454.612 103.856,454.561 104.127,454.509 104.398,454.457 104.669,454.405 104.939,454.353 105.210,454.300 105.481,454.248 105.752,454.195 106.023,454.142 106.294,454.089 106.564,454.035 106.835,453.982 107.106,453.928 107.377,453.874 107.648,453.820 107.919,453.766 108.189,453.711 108.460,453.656 108.731,453.602 109.002,453.547 109.273,453.491 109.543,453.436 109.814,453.380 110.085,453.325 110.356,453.269 110.627,453.212 110.898,453.156 111.168,453.099 111.439,453.043 111.710,452.986 111.981,452.929 112.252,452.871 112.523,452.814 112.793,452.756 113.064,452.698 113.335,452.640 113.606,452.582 113.877,452.523 114.147,452.465 114.418,452.406 114.689,452.347 114.960,452.287 115.231,452.228 115.502,452.168 115.772,452.108 116.043,452.048 116.314,451.988 116.585,451.927 116.856,451.867 117.127,451.806 117.397,451.745 117.668,451.684 117.939,451.622 118.210,451.560 118.481,451.499 118.751,451.436 119.022,451.374 119.293,451.312 119.564,451.249 119.835,451.186 120.106,451.123 120.376,451.060 120.647,450.996 120.918,450.932 121.189,450.869 121.460,450.804 121.730,450.740 122.001,450.675 122.272,450.611 122.543,450.546 122.814,450.481 123.085,450.415 123.355,450.350 123.626,450.284 123.897,450.218 124.168,450.152 124.439,450.085 124.710,450.018 124.980,449.952 125.251,449.885 125.522,449.817 125.793,449.750 126.064,449.682 126.334,449.614 126.605,449.546 126.876,449.478 127.147,449.409 127.418,449.340 127.689,449.271 127.959,449.202 128.230,449.133 128.501,449.063 128.772,448.993 129.043,448.923 129.314,448.853 129.584,448.782 129.855,448.712 130.126,448.641 130.397,448.569 130.668,448.498 130.938,448.426 131.209,448.355 131.480,448.282 131.751,448.210 132.022,448.138 132.293,448.065 132.563,447.992 132.834,447.919 133.105,447.845 133.376,447.772 133.647,447.698 133.918,447.624 134.188,447.550 134.459,447.475 134.730,447.400 135.001,447.325 135.272,447.250 135.542,447.175 135.813,447.099 136.084,447.023 136.355,446.947 136.626,446.871 136.897,446.794 137.167,446.718 137.438,446.641 137.709,446.563 137.980,446.486 138.251,446.408 138.522,446.330 138.792,446.252 139.063,446.174 139.334,446.095 139.605,446.016 139.876,445.937 140.146,445.858 140.417,445.778 140.688,445.698 140.959,445.618 141.230,445.538 141.501,445.458 141.771,445.377 142.042,445.296 142.313,445.215 142.584,445.133 142.855,445.052 143.126,444.970 143.396,444.888 143.667,444.805 143.938,444.723 144.209,444.640 144.480,444.557 144.750,444.474 145.021,444.390 145.292,444.306 145.563,444.222 145.834,444.138 146.105,444.053 146.375,443.969 146.646,443.884 146.917,443.799 147.188,443.713 147.459,443.627 147.729,443.541 148.000,443.455 148.271,443.369 148.542,443.282 148.813,443.195 149.084,443.108 149.354,443.021 149.625,442.933 149.896,442.845 150.167,442.757 150.438,442.669 150.709,442.580 150.979,442.491 151.250,442.402 151.521,442.313 151.792,442.223 152.063,442.133 152.333,442.043 152.604,441.953 152.875,441.862 153.146,441.771 153.417,441.680 153.688,441.589 153.958,441.497 154.229,441.406 154.500,441.314 154.771,441.221 155.042,441.129 155.313,441.036 155.583,440.943 155.854,440.850 156.125,440.756 156.396,440.662 156.667,440.568 156.937,440.474 157.208,440.379 157.479,440.284 157.750,440.189 158.021,440.094 158.292,439.999 158.562,439.903 158.833,439.807 159.104,439.710 159.375,439.614 159.646,439.517 159.917,439.420 160.187,439.323 160.458,439.225 160.729,439.127 161.000,439.029 161.271,438.931 161.541,438.832 161.812,438.733 162.083,438.634 162.354,438.535 162.625,438.435 162.896,438.335 163.166,438.235 163.437,438.135 163.708,438.034 163.979,437.933 164.250,437.832 164.521,437.731 164.791,437.629 165.062,437.527 165.333,437.425 165.604,437.322 165.875,437.220 166.145,437.117 166.416,437.014 166.687,436.910 166.958,436.806 167.229,436.702 167.500,436.598 167.770,436.494 168.041,436.389 168.312,436.284 168.583,436.179 168.854,436.073 169.124,435.967 169.395,435.861 169.666,435.755 169.937,435.648 170.208,435.542 170.479,435.435 170.749,435.327 171.020,435.220 171.291,435.112 171.562,435.004 171.833,434.895 172.104,434.787 172.374,434.678 172.645,434.568 172.916,434.459 173.187,434.349 173.458,434.239 173.728,434.129 173.999,434.019 174.270,433.908 174.541,433.797 174.812,433.686 175.083,433.574 175.353,433.462 175.624,433.350 175.895,433.238 176.166,433.125 176.437,433.012 176.708,432.899 176.978,432.786 177.249,432.672 177.520,432.559 177.791,432.444 178.062,432.330 178.332,432.215 178.603,432.100 178.874,431.985 179.145,431.870 179.416,431.754 179.687,431.638 179.957,431.522 180.228,431.405 180.499,431.288 180.770,431.171 181.041,431.054 181.312,430.936 181.582,430.819 181.853,430.700 182.124,430.582 182.395,430.463 182.666,430.345 182.936,430.225 183.207,430.106 183.478,429.986 183.749,429.866 184.020,429.746 184.291,429.626 184.561,429.505 184.832,429.384 185.103,429.263 185.374,429.141 185.645,429.019 185.916,428.897 186.186,428.775 186.457,428.652 186.728,428.529 186.999,428.406 187.270,428.283 187.540,428.159 187.811,428.035 188.082,427.911 188.353,427.787 188.624,427.662 188.895,427.537 189.165,427.412 189.436,427.286 189.707,427.160 189.978,427.034 190.249,426.908 190.519,426.782 190.790,426.655 191.061,426.528 191.332,426.400 191.603,426.273 191.874,426.145 192.144,426.017 192.415,425.888 192.686,425.760 192.957,425.631 193.228,425.502 193.499,425.372 193.769,425.242 194.040,425.112 194.311,424.982 194.582,424.852 194.853,424.721 195.123,424.590 195.394,424.459 195.665,424.327 195.936,424.195 196.207,424.063 196.478,423.931 196.748,423.798 197.019,423.665 197.290,423.532 197.561,423.399 197.832,423.265 198.103,423.131 198.373,422.997 198.644,422.863 198.915,422.728 199.186,422.593 199.457,422.458 199.727,422.322 199.998,422.187 200.269,422.051 200.540,421.914 200.811,421.778 201.082,421.641 201.352,421.504 201.623,421.367 201.894,421.229 202.165,421.091 202.436,420.953 202.707,420.815 202.977,420.677 203.248,420.538 203.519,420.399 203.790,420.259 204.061,420.120 204.331,419.980 204.602,419.840 204.873,419.699 205.144,419.559 205.415,419.418 205.686,419.277 205.956,419.135 206.227,418.994 206.498,418.852 206.769,418.709 207.040,418.567 207.311,418.424 207.581,418.281 207.852,418.138 208.123,417.995 208.394,417.851 208.665,417.707 208.935,417.563 209.206,417.419 209.477,417.274 209.748,417.129 210.019,416.984 210.290,416.838 210.560,416.693 210.831,416.547 211.102,416.400 211.373,416.254 211.644,416.107 211.915,415.960 212.185,415.813 212.456,415.666 212.727,415.518 212.998,415.370 213.269,415.222 213.539,415.073 213.810,414.924 214.081,414.776 214.352,414.626 214.623,414.477 214.894,414.327 215.164,414.177 215.435,414.027 215.706,413.877 215.977,413.726 216.248,413.575 216.518,413.424 216.789,413.273 217.060,413.121 217.331,412.969 217.602,412.817 217.873,412.665 218.143,412.512 218.414,412.359 218.685,412.206 218.956,412.053 219.227,411.899 219.498,411.745 219.768,411.591 220.039,411.437 220.310,411.282 220.581,411.128 220.852,410.973 221.122,410.817 221.393,410.662 221.664,410.506 221.935,410.350 222.206,410.194 222.477,410.038 222.747,409.881 223.018,409.724 223.289,409.567 223.560,409.410 223.831,409.252 224.102,409.094 224.372,408.936 224.643,408.778 224.914,408.619 225.185,408.461 225.456,408.302 225.726,408.142 225.997,407.983 226.268,407.823 226.539,407.663 226.810,407.503 227.081,407.343 227.351,407.182 227.622,407.022 227.893,406.861 228.164,406.699 228.435,406.538 228.706,406.376 228.976,406.214 229.247,406.052 229.518,405.890 229.789,405.727 230.060,405.564 230.330,405.401 230.601,405.238 230.872,405.075 231.143,404.911 231.414,404.747 231.685,404.583 231.955,404.419 232.226,404.254 232.497,404.089 232.768,403.924 233.039,403.759 233.310,403.594 233.580,403.428 233.851,403.262 234.122,403.096 234.393,402.930 234.664,402.764 234.934,402.597 235.205,402.430 235.476,402.263 235.747,402.096 236.018,401.928 236.289,401.760 236.559,401.592 236.830,401.424 237.101,401.256 237.372,401.087 237.643,400.919 237.913,400.750 238.184,400.581 238.455,400.411 238.726,400.242 238.997,400.072 239.268,399.902 239.538,399.732 239.809,399.562 240.080,399.391 240.351,399.220 240.622,399.049 240.893,398.878 241.163,398.707 241.434,398.535 241.705,398.364 241.976,398.192 242.247,398.020 242.517,397.847 242.788,397.675 243.059,397.502 243.330,397.329 243.601,397.156 243.872,396.983 244.142,396.810 244.413,396.636 244.684,396.462 244.955,396.288 245.226,396.114 245.497,395.940 245.767,395.765 246.038,395.591 246.309,395.416 246.580,395.241 246.851,395.065 247.121,394.890 247.392,394.714 247.663,394.539 247.934,394.363 248.205,394.187 248.476,394.010 248.746,393.834 249.017,393.657 249.288,393.480 249.559,393.303 249.830,393.126 250.101,392.949 250.371,392.771 250.642,392.594 250.913,392.416 251.184,392.238 251.455,392.060 251.725,391.881 251.996,391.703 252.267,391.524 252.538,391.346 252.809,391.167 253.080,390.987 253.350,390.808 253.621,390.629 253.892,390.449 254.163,390.269 254.434,390.089 254.705,389.909 254.975,389.729 255.246,389.549 255.517,389.368 255.788,389.188 256.059,389.007 256.329,388.826 256.600,388.645 256.871,388.464 257.142,388.282 257.413,388.101 257.684,387.919 257.954,387.737 258.225,387.555 258.496,387.373 258.767,387.191 259.038,387.008 259.308,386.826 259.579,386.643 259.850,386.460 260.121,386.277 260.392,386.094 260.663,385.911 260.933,385.728 261.204,385.544 261.475,385.361 261.746,385.177 262.017,384.993 262.288,384.809 262.558,384.625 262.829,384.441 263.100,384.256 263.371,384.072 263.642,383.887 263.912,383.703 264.183,383.518 264.454,383.333 264.725,383.148 264.996,382.962 265.267,382.777 265.537,382.592 265.808,382.406 266.079,382.221 266.350,382.035 266.621,381.849 266.892,381.663 267.162,381.477 267.433,381.291 267.704,381.104 267.975,380.918 268.246,380.731 268.516,380.545 268.787,380.358 269.058,380.171 269.329,379.984 269.600,379.797 269.871,379.610 270.141,379.423 270.412,379.236 270.683,379.048 270.954,378.861 271.225,378.673 271.496,378.485 271.766,378.298 272.037,378.110 272.308,377.922 272.579,377.734 272.850,377.546 273.120,377.358 273.391,377.169 273.662,376.981 273.933,376.792 274.204,376.604 274.475,376.415 274.745,376.227 275.016,376.038 275.287,375.849 275.558,375.660 275.829,375.471 276.100,375.282 276.370,375.093 276.641,374.904 276.912,374.715 277.183,374.525 277.454,374.336 277.724,374.146 277.995,373.957 278.266,373.767 278.537,373.578 278.808,373.388 279.079,373.198 279.349,373.009 279.620,372.819 279.891,372.629 280.162,372.439 280.433,372.249 280.704,372.059 280.974,371.869 281.245,371.678 281.516,371.488 281.787,371.298 282.058,371.108 282.328,370.917 282.599,370.727 282.870,370.537 283.141,370.346 283.412,370.156 283.683,369.965 283.953,369.775 284.224,369.584 284.495,369.393 284.766,369.203 285.037,369.012 285.307,368.821 285.578,368.630 285.849,368.440 286.120,368.249 286.391,368.058 286.662,367.867 286.932,367.676 287.203,367.485 287.474,367.295 287.745,367.104 288.016,366.913 288.287,366.722 288.557,366.531 288.828,366.340 289.099,366.149 289.370,365.958 289.641,365.767 289.911,365.576 290.182,365.385 290.453,365.194 290.724,365.003 290.995,364.812 291.266,364.621 291.536,364.430 291.807,364.239 292.078,364.048 292.349,363.857 292.620,363.666 292.891,363.475 293.161,363.284 293.432,363.093 293.703,362.902 293.974,362.711 294.245,362.520 294.515,362.329 294.786,362.138 295.057,361.947 295.328,361.756 295.599,361.565 295.870,361.375 296.140,361.184 296.411,360.993 296.682,360.802 296.953,360.612 297.224,360.421 297.495,360.230 297.765,360.040 298.036,359.849 298.307,359.659 298.578,359.468 298.849,359.278 299.119,359.087 299.390,358.897 299.661,358.707 299.932,358.516 300.203,358.326 300.474,358.136 300.744,357.946 301.015,357.756 301.286,357.566 301.557,357.376 301.828,357.186 302.099,356.996 302.369,356.806 302.640,356.616 302.911,356.427 303.182,356.237 303.453,356.047 303.723,355.858 303.994,355.668 304.265,355.479 304.536,355.290 304.807,355.101 305.078,354.911 305.348,354.722 305.619,354.533 305.890,354.344 306.161,354.156 306.432,353.967 306.702,353.778 306.973,353.589 307.244,353.401 307.515,353.212 307.786,353.024 308.057,352.836 308.327,352.648 308.598,352.460 308.869,352.272 309.140,352.084 309.411,351.896 309.682,351.708 309.952,351.521 310.223,351.333 310.494,351.146 310.765,350.958 311.036,350.771 311.306,350.584 311.577,350.397 311.848,350.210 312.119,350.023 312.390,349.837 312.661,349.650 312.931,349.464 313.202,349.277 313.473,349.091 313.744,348.905 314.015,348.719 314.286,348.533 314.556,348.348 314.827,348.162 315.098,347.977 315.369,347.791 315.640,347.606 315.910,347.421 316.181,347.236 316.452,347.051 316.723,346.867 316.994,346.682 317.265,346.498 317.535,346.314 317.806,346.130 318.077,345.946 318.348,345.762 318.619,345.578 318.890,345.395 319.160,345.211 319.431,345.028 319.702,344.845 319.973,344.662 320.244,344.479 320.514,344.297 320.785,344.114 321.056,343.932 321.327,343.750 321.598,343.568 321.869,343.386 322.139,343.205 322.410,343.023 322.681,342.842 322.952,342.661 323.223,342.480 323.494,342.299 323.764,342.119 324.035,341.938 324.306,341.758 324.577,341.578 324.848,341.398 325.118,341.218 325.389,341.039 325.660,340.860 325.931,340.680 326.202,340.502 326.473,340.323 326.743,340.144 327.014,339.966 327.285,339.788 327.556,339.610 327.827,339.432 328.097,339.255 328.368,339.077 328.639,338.900 328.910,338.723 329.181,338.546 329.452,338.370 329.722,338.194 329.993,338.017 330.264,337.842 330.535,337.666 330.806,337.490 331.077,337.315 331.347,337.140 331.618,336.965 331.889,336.791 332.160,336.616 332.431,336.442 332.701,336.268 332.972,336.095 333.243,335.921 333.514,335.748 333.785,335.575 334.056,335.402 334.326,335.230 334.597,335.057 334.868,334.885 335.139,334.714 335.410,334.542 335.681,334.371 335.951,334.200 336.222,334.029 336.493,333.858 336.764,333.688 337.035,333.518 337.305,333.348 337.576,333.178 337.847,333.009 338.118,332.840 338.389,332.671 338.660,332.503 338.930,332.334 339.201,332.166 339.472,331.999 339.743,331.831 340.014,331.664 340.285,331.497 340.555,331.330 340.826,331.164 341.097,330.998 341.368,330.832 341.639,330.666 341.909,330.501 342.180,330.336 342.451,330.171 342.722,330.007 342.993,329.843 343.264,329.679 343.534,329.515 343.805,329.352 344.076,329.189 344.347,329.026 344.618,328.864 344.889,328.701 345.159,328.540 345.430,328.378 345.701,328.217 345.972,328.056 346.243,327.895 346.513,327.735 346.784,327.575 347.055,327.415 347.326,327.256 347.597,327.097 347.868,326.938 348.138,326.779 348.409,326.621 348.680,326.463 348.951,326.306 349.222,326.149 349.493,325.992 349.763,325.835 350.034,325.679 350.305,325.523 350.576,325.367 350.847,325.212 351.117,325.057 351.388,324.902 351.659,324.748 351.930,324.594 352.201,324.441 352.472,324.287 352.742,324.134 353.013,323.982 353.284,323.829 353.555,323.678 353.826,323.526 354.096,323.375 354.367,323.224 354.638,323.073 354.909,322.923 355.180,322.773 355.451,322.624 355.721,322.475 355.992,322.326 356.263,322.177 356.534,322.029 356.805,321.882 357.076,321.734 357.346,321.587 357.617,321.441 357.888,321.294 358.159,321.148 358.430,321.003 358.700,320.858 358.971,320.713 359.242,320.569 359.513,320.424 359.784,320.281 360.055,320.137 360.325,319.995 360.596,319.852 360.867,319.710 361.138,319.568 361.409,319.427 361.680,319.286 361.950,319.145 362.221,319.005 362.492,318.865 362.763,318.725 363.034,318.586 363.304,318.448 363.575,318.309 363.846,318.172 364.117,318.034 364.388,317.897 364.659,317.760 364.929,317.624 365.200,317.488 365.471,317.353 365.742,317.217 366.013,317.083 366.284,316.948 366.554,316.815 366.825,316.681 367.096,316.548 367.367,316.415 367.638,316.283 367.908,316.151 368.179,316.020 368.450,315.889 368.721,315.758 368.992,315.628 369.263,315.499 369.533,315.369 369.804,315.240 370.075,315.112 370.346,314.984 370.617,314.856 370.888,314.729 371.158,314.602 371.429,314.476 371.700,314.350 371.971,314.225 372.242,314.100 372.512,313.975 372.783,313.851 373.054,313.727 373.325,313.604 373.596,313.481 373.867,313.359 374.137,313.237 374.408,313.115 374.679,312.994 374.950,312.874 375.221,312.754 375.491,312.634 375.762,312.515 376.033,312.396 376.304,312.278 376.575,312.160 376.846,312.042 377.116,311.925 377.387,311.809 377.658,311.693 377.929,311.577 378.200,311.462 378.471,311.347 378.741,311.233 379.012,311.119 379.283,311.006 379.554,310.893 379.825,310.781 380.095,310.669 380.366,310.558 380.637,310.447 380.908,310.336 381.179,310.226 381.450,310.117 381.720,310.008 381.991,309.899 382.262,309.791 382.533,309.684 382.804,309.576 383.075,309.470 383.345,309.364 383.616,309.258 383.887,309.153 384.158,309.048 384.429,308.944 384.699,308.840 384.970,308.737 385.241,308.634 385.512,308.532 385.783,308.430 386.054,308.329 386.324,308.228 386.595,308.128 386.866,308.028 387.137,307.929 387.408,307.830 387.679,307.732 387.949,307.634 388.220,307.537 388.491,307.440 388.762,307.343 389.033,307.248 389.303,307.152 389.574,307.058 389.845,306.963 390.116,306.870 390.387,306.776 390.658,306.684 390.928,306.591 391.199,306.500 391.470,306.409 391.741,306.318 392.012,306.228 392.283,306.138 392.553,306.049 392.824,305.960 393.095,305.872 393.366,305.785 393.637,305.698 393.907,305.611 394.178,305.525 394.449,305.439 394.720,305.354 394.991,305.270 395.262,305.186 395.532,305.103 395.803,305.020 396.074,304.938 396.345,304.856 396.616,304.774 396.886,304.694 397.157,304.613 397.428,304.534 397.699,304.455 397.970,304.376 398.241,304.298 398.511,304.220 398.782,304.143 399.053,304.067 399.324,303.991 399.595,303.916 399.866,303.841 400.136,303.766 400.407,303.693 400.678,303.619 400.949,303.547 401.220,303.474 401.490,303.403 401.761,303.332 402.032,303.261 402.303,303.191 402.574,303.122 402.845,303.053 403.115,302.985 403.386,302.917 403.657,302.850 403.928,302.783 404.199,302.717 404.470,302.651 404.740,302.586 405.011,302.522 405.282,302.458 405.553,302.395 405.824,302.332 406.094,302.269 406.365,302.208 406.636,302.147 406.907,302.086 407.178,302.026 407.449,301.967 407.719,301.908 407.990,301.849 408.261,301.792 408.532,301.734 408.803,301.678 409.074,301.622 409.344,301.566 409.615,301.511 409.886,301.457 410.157,301.403 410.428,301.350 410.698,301.297 410.969,301.245 411.240,301.193 411.511,301.142 411.782,301.092 412.053,301.042 412.323,300.993 412.594,300.944 412.865,300.896 413.136,300.848 413.407,300.801 413.678,300.755 413.948,300.709 414.219,300.664 414.490,300.619 414.761,300.575 415.032,300.531 415.302,300.488 415.573,300.446 415.844,300.404 416.115,300.363 416.386,300.322 416.657,300.282 416.927,300.242 417.198,300.203 417.469,300.165 417.740,300.127 418.011,300.090 418.281,300.053 418.552,300.017 418.823,299.982 419.094,299.947 419.365,299.913 419.636,299.879 419.906,299.846 420.177,299.813 420.448,299.781 420.719,299.750 420.990,299.719 421.261,299.689 421.531,299.659 421.802,299.630 422.073,299.601 422.344,299.573 422.615,299.546 422.885,299.519 423.156,299.493 423.427,299.468 423.698,299.443 423.969,299.418 424.240,299.395 424.510,299.371 424.781,299.349 425.052,299.327 425.323,299.305 425.594,299.284 425.865,299.264 426.135,299.244 426.406,299.225 426.677,299.207 426.948,299.189 427.219,299.171 427.489,299.155 427.760,299.139 428.031,299.123 428.302,299.108 428.573,299.094 428.844,299.080 429.114,299.067 429.385,299.054 429.656,299.042 429.927,299.031 430.198,299.020 430.469,299.009 430.739,299.000 431.010,298.991 431.281,298.982 431.552,298.974 431.823,298.967 432.093,298.960 432.364,298.954 432.635,298.949 432.906,298.944 433.177,298.939 433.448,298.936 433.718,298.932 433.989,298.930 434.260,298.928 434.531,298.927 434.802,298.926 435.073,298.926 435.343,298.926 435.614,298.927 435.885,298.929 436.156,298.931 436.427,298.933 436.697,298.937 436.968,298.941 437.239,298.945 437.510,298.950 437.781,298.956 438.052,298.962 438.322,298.969 438.593,298.977 438.864,298.985 439.135,298.994 439.406,299.003 439.677,299.013 439.947,299.023 440.218,299.034 440.489,299.046 440.760,299.058 441.031,299.071 441.301,299.084 441.572,299.098 441.843,299.113 442.114,299.128 442.385,299.144 442.656,299.160 442.926,299.177 443.197,299.195 443.468,299.213 443.739,299.231 444.010,299.251 444.280,299.271 444.551,299.291 444.822,299.312 445.093,299.334 445.364,299.356 445.635,299.379 445.905,299.402 446.176,299.426 446.447,299.451 446.718,299.476 446.989,299.502 447.260,299.528 447.530,299.555 447.801,299.583 448.072,299.611 448.343,299.639 448.614,299.669 448.884,299.698 449.155,299.729 449.426,299.760 449.697,299.791 449.968,299.824 450.239,299.856 450.509,299.890 450.780,299.924 451.051,299.958 451.322,299.993 451.593,300.029 451.864,300.065 452.134,300.102 452.405,300.139 452.676,300.177 452.947,300.216 453.218,300.255 453.488,300.295 453.759,300.335 454.030,300.376 454.301,300.418 454.572,300.460 454.843,300.502 455.113,300.545 455.384,300.589 455.655,300.633 455.926,300.678 456.197,300.724 456.468,300.770 456.738,300.817 457.009,300.864 457.280,300.911 457.551,300.960 457.822,301.009 458.092,301.058 458.363,301.108 458.634,301.159 458.905,301.210 459.176,301.262 459.447,301.314 459.717,301.367 459.988,301.420 460.259,301.475 460.530,301.529 460.801,301.584 461.072,301.640 461.342,301.696 461.613,301.753 461.884,301.810 462.155,301.868 462.426,301.927 462.696,301.986 462.967,302.046 463.238,302.106 463.509,302.167 463.780,302.228 464.051,302.290 464.321,302.352 464.592,302.415 464.863,302.479 465.134,302.543 465.405,302.608 465.675,302.673 465.946,302.738 466.217,302.805 466.488,302.872 466.759,302.939 467.030,303.007 467.300,303.076 467.571,303.145 467.842,303.214 468.113,303.284 468.384,303.355 468.655,303.426 468.925,303.498 469.196,303.570 469.467,303.643 469.738,303.717 470.009,303.791 470.279,303.865 470.550,303.940 470.821,304.016 471.092,304.092 471.363,304.169 471.634,304.246 471.904,304.323 472.175,304.402 472.446,304.481 472.717,304.560 472.988,304.640 473.259,304.720 473.529,304.801 473.800,304.882 474.071,304.964 474.342,305.047 474.613,305.130 474.883,305.214 475.154,305.298 475.425,305.382 475.696,305.467 475.967,305.553 476.238,305.639 476.508,305.726 476.779,305.813 477.050,305.901 477.321,305.989 477.592,306.078 477.863,306.167 478.133,306.257 478.404,306.348 478.675,306.438 478.946,306.530 479.217,306.622 479.487,306.714 479.758,306.807 480.029,306.900 480.300,306.994 480.571,307.089 480.842,307.184 481.112,307.279 481.383,307.375 481.654,307.471 481.925,307.568 482.196,307.666 482.467,307.764 482.737,307.862 483.008,307.961 483.279,308.061 483.550,308.161 483.821,308.261 484.091,308.362 484.362,308.463 484.633,308.565 484.904,308.668 485.175,308.771 485.446,308.874 485.716,308.978 485.987,309.082 486.258,309.187 486.529,309.293 486.800,309.398 487.070,309.505 487.341,309.612 487.612,309.719 487.883,309.827 488.154,309.935 488.425,310.044 488.695,310.153 488.966,310.262 489.237,310.373 489.508,310.483 489.779,310.594 490.050,310.706 490.320,310.818 490.591,310.930 490.862,311.043 491.133,311.157 491.404,311.271 491.674,311.385 491.945,311.500 492.216,311.615 492.487,311.731 492.758,311.847 493.029,311.964 493.299,312.081 493.570,312.198 493.841,312.316 494.112,312.435 494.383,312.554 494.654,312.673 494.924,312.793 495.195,312.913 495.466,313.034 495.737,313.155 496.008,313.277 496.278,313.399 496.549,313.522 496.820,313.644 497.091,313.768 497.362,313.892 497.633,314.016 497.903,314.141 498.174,314.266 498.445,314.391 498.716,314.517 498.987,314.644 499.258,314.771 499.528,314.898 499.799,315.026 500.070,315.154 500.341,315.283 500.612,315.412 500.882,315.541 501.153,315.671 501.424,315.801 501.695,315.932 501.966,316.063 502.237,316.195 502.507,316.327 502.778,316.459 503.049,316.592 503.320,316.725 503.591,316.858 503.862,316.992 504.132,317.127 504.403,317.262 504.674,317.397 504.945,317.533 505.216,317.669 505.486,317.805 505.757,317.942 506.028,318.079 506.299,318.217 506.570,318.355 506.841,318.493 507.111,318.632 507.382,318.771 507.653,318.911 507.924,319.051 508.195,319.191 508.466,319.332 508.736,319.473 509.007,319.615 509.278,319.756 509.549,319.899 509.820,320.041 510.090,320.184 510.361,320.328 510.632,320.472 510.903,320.616 511.174,320.760 511.445,320.905 511.715,321.051 511.986,321.196 512.257,321.342 512.528,321.489 512.799,321.635 513.069,321.783 513.340,321.930 513.611,322.078 513.882,322.226 514.153,322.375 514.424,322.523 514.694,322.673 514.965,322.822 515.236,322.972 515.507,323.123 515.778,323.273 516.049,323.424 516.319,323.576 516.590,323.727 516.861,323.879 517.132,324.032 517.403,324.184 517.673,324.338 517.944,324.491 518.215,324.645 518.486,324.799 518.757,324.953 519.028,325.108 519.298,325.263 519.569,325.418 519.840,325.574 520.111,325.730 520.382,325.886 520.653,326.043 520.923,326.200 521.194,326.357 521.465,326.515 521.736,326.673 522.007,326.831 522.277,326.990 522.548,327.149 522.819,327.308 523.090,327.468 523.361,327.627 523.632,327.787 523.902,327.948 524.173,328.109 524.444,328.270 524.715,328.431 524.986,328.593 525.257,328.755 525.527,328.917 525.798,329.079 526.069,329.242 526.340,329.405 526.611,329.569 526.881,329.732 527.152,329.896 527.423,330.061 527.694,330.225 527.965,330.390 528.236,330.555 528.506,330.721 528.777,330.886 529.048,331.052 529.319,331.218 529.590,331.385 529.861,331.552 530.131,331.719 530.402,331.886 530.673,332.054 530.944,332.221 531.215,332.390 531.485,332.558 531.756,332.727 532.027,332.895 532.298,333.065 532.569,333.234 532.840,333.404 533.110,333.574 533.381,333.744 533.652,333.914 533.923,334.085 534.194,334.256 534.464,334.427 534.735,334.598 535.006,334.770 535.277,334.942 535.548,335.114 535.819,335.286 536.089,335.459 536.360,335.632 536.631,335.805 536.902,335.978 537.173,336.152 537.444,336.325 537.714,336.499 537.985,336.674 538.256,336.848 538.527,337.023 538.798,337.197 539.068,337.373 539.339,337.548 539.610,337.723 539.881,337.899 540.152,338.075 540.423,338.251 540.693,338.428 540.964,338.604 541.235,338.781 541.506,338.958 541.777,339.135 542.048,339.313 542.318,339.490 542.589,339.668 542.860,339.846 543.131,340.024 543.402,340.203 543.672,340.381 543.943,340.560 544.214,340.739 544.485,340.918 544.756,341.098 545.027,341.277 545.297,341.457 545.568,341.637 545.839,341.817 546.110,341.997 546.381,342.178 546.652,342.358 546.922,342.539 547.193,342.720 547.464,342.901 547.735,343.083 548.006,343.264 548.276,343.446 548.547,343.628 548.818,343.810 549.089,343.992 549.360,344.174 549.631,344.357 549.901,344.539 550.172,344.722 550.443,344.905 550.714,345.088 550.985,345.271 551.256,345.455 551.526,345.638 551.797,345.822 552.068,346.006 552.339,346.190 552.610,346.374 552.880,346.558 553.151,346.743 553.422,346.927 553.693,347.112 553.964,347.297 554.235,347.482 554.505,347.667 554.776,347.852 555.047,348.038 555.318,348.223 555.589,348.409 555.860,348.594 556.130,348.780 556.401,348.966 556.672,349.152 556.943,349.339 557.214,349.525 557.484,349.711 557.755,349.898 558.026,350.085 558.297,350.271 558.568,350.458 558.839,350.645 559.109,350.833 559.380,351.020 559.651,351.207 559.922,351.395 560.193,351.582 560.463,351.770 560.734,351.957 561.005,352.145 561.276,352.333 561.547,352.521 561.818,352.709 562.088,352.898 562.359,353.086 562.630,353.274 562.901,353.463 563.172,353.651 563.443,353.840 563.713,354.029 563.984,354.217 564.255,354.406 564.526,354.595 564.797,354.784 565.067,354.973 565.338,355.163 565.609,355.352 565.880,355.541 566.151,355.731 566.422,355.920 566.692,356.110 566.963,356.299 567.234,356.489 567.505,356.679 567.776,356.868 568.047,357.058 568.317,357.248 568.588,357.438 568.859,357.628 569.130,357.818 569.401,358.008 569.671,358.198 569.942,358.389 570.213,358.579 570.484,358.769 570.755,358.959 571.026,359.150 571.296,359.340 571.567,359.531 571.838,359.721 572.109,359.912 572.380,360.102 572.651,360.293 572.921,360.484 573.192,360.674 573.463,360.865 573.734,361.056 574.005,361.246 574.275,361.437 574.546,361.628 574.817,361.819 575.088,362.010 575.359,362.201 575.630,362.392 575.900,362.582 576.171,362.773 576.442,362.964 576.713,363.155 576.984,363.346 577.255,363.537 577.525,363.728 577.796,363.919 578.067,364.110 578.338,364.301 578.609,364.492 578.879,364.683 579.150,364.874 579.421,365.065 579.692,365.256 579.963,365.447 580.234,365.638 580.504,365.829 580.775,366.020 581.046,366.211 581.317,366.402 581.588,366.593 581.858,366.784 582.129,366.975 582.400,367.166 582.671,367.357 582.942,367.548 583.213,367.739 583.483,367.930 583.754,368.121 584.025,368.311 584.296,368.502 584.567,368.693 584.838,368.884 585.108,369.074 585.379,369.265 585.650,369.456 585.921,369.646 586.192,369.837 586.462,370.028 586.733,370.218 587.004,370.409 587.275,370.599 587.546,370.789 587.817,370.980 588.087,371.170 588.358,371.360 588.629,371.551 588.900,371.741 589.171,371.931 589.442,372.121 589.712,372.311 589.983,372.501 590.254,372.691 590.525,372.881 590.796,373.071 591.066,373.261 591.337,373.450 591.608,373.640 591.879,373.830 592.150,374.019 592.421,374.209 592.691,374.398 592.962,374.587 593.233,374.777 593.504,374.966 593.775,375.155 594.046,375.344 594.316,375.533 594.587,375.722 594.858,375.911 595.129,376.100 595.400,376.289 595.670,376.477 595.941,376.666 596.212,376.854 596.483,377.043 596.754,377.231 597.025,377.419 597.295,377.607 597.566,377.796 597.837,377.984 598.108,378.171 598.379,378.359 598.650,378.547 598.920,378.735 599.191,378.922 599.462,379.110 599.733,379.297 600.004,379.484 600.274,379.672 600.545,379.859 600.816,380.046 601.087,380.232 601.358,380.419 601.629,380.606 601.899,380.793 602.170,380.979 602.441,381.165 602.712,381.352 602.983,381.538 603.253,381.724 603.524,381.910 603.795,382.096 604.066,382.281 604.337,382.467 604.608,382.653 604.878,382.838 605.149,383.023 605.420,383.208 605.691,383.393 605.962,383.578 606.233,383.763 606.503,383.948 606.774,384.132 607.045,384.317 607.316,384.501 607.587,384.685 607.857,384.869 608.128,385.053 608.399,385.237 608.670,385.421 608.941,385.604 609.212,385.788 609.482,385.971 609.753,386.154 610.024,386.337 610.295,386.520 610.566,386.703 610.837,386.886 611.107,387.068 611.378,387.251 611.649,387.433 611.920,387.615 612.191,387.797 612.461,387.979 612.732,388.160 613.003,388.342 613.274,388.523 613.545,388.704 613.816,388.885 614.086,389.066 614.357,389.247 614.628,389.428 614.899,389.608 615.170,389.788 615.441,389.969 615.711,390.149 615.982,390.328 616.253,390.508 616.524,390.688 616.795,390.867 617.065,391.046 617.336,391.225 617.607,391.404 617.878,391.583 618.149,391.762 618.420,391.940 618.690,392.118 618.961,392.296 619.232,392.474 619.503,392.652 619.774,392.830 620.045,393.007 620.315,393.184 620.586,393.361 620.857,393.538 621.128,393.715 621.399,393.892 621.669,394.068 621.940,394.244 622.211,394.420 622.482,394.596 622.753,394.772 623.024,394.948 623.294,395.123 623.565,395.298 623.836,395.473 624.107,395.648 624.378,395.823 624.649,395.997 624.919,396.171 625.190,396.345 625.461,396.519 625.732,396.693 626.003,396.867 626.273,397.040 626.544,397.213 626.815,397.386 627.086,397.559 627.357,397.731 627.628,397.904 627.898,398.076 628.169,398.248 628.440,398.420 628.711,398.592 628.982,398.763 629.252,398.934 629.523,399.105 629.794,399.276 630.065,399.447 630.336,399.617 630.607,399.788 630.877,399.958 631.148,400.128 631.419,400.297 631.690,400.467 631.961,400.636 632.232,400.805 632.502,400.974 "/>
<g>
</g>
</g>
<g id="ID000009" >
  <g transform="translate(361.056,278.938)">
    <g transform="rotate(-0.0)">
      <text x="0.000" y="0.000" font-family="Helvetica" text-anchor="middle" font-size="12pt" fill="#000000" >l = 0.21, x* = 0.50</text>
    </g>
  </g>
</g>
<g id="ID000010" >
</g>
<g id="ID000011" >
</g>
    </g>
    <g>
      <polyline fill="none" stroke="#000000" stroke-width="0.5pt" stroke-dasharray="none" points="145.021,466.514 145.021,461.098 "/>
      <polyline fill="none" stroke="#000000" stroke-width="0.5pt" stroke-dasharray="none" points="199.186,466.514 199.186,461.098 "/>
      <polyline fill="none" stroke="#000000" stroke-width="0.5pt" stroke-dasharray="none" points="253.350,466.514 253.350,461.098 "/>
      <polyline fill="none" stroke="#000000" stroke-width="0.5pt" stroke-dasharray="none" points="307.515,466.514 307.515,461.098 "/>
      <polyline fill="none" stroke="#000000" stroke-width="0.5pt" stroke-dasharray="none" points="361.680,466.514 361.680,461.098 "/>
      <polyline fill="none" stroke="#000000" stroke-width="0.5pt" stroke-dasharray="none" points="415.844,466.514 415.844,461.098 "/>
      <polyline fill="none" stroke="#000000" stroke-width="0.5pt" stroke-dasharray="none" points="470.009,466.514 470.009,461.098 "/>
      <polyline fill="none" stroke="#000000" stroke-width="0.5pt" stroke-dasharray="none" points="524.173,466.514 524.173,461.098 "/>
      <polyline fill="none" stroke="#000000" stroke-width="0.5pt" stroke-dasharray="none" points="578.338,466.514 578.338,461.098 "/>
      <polyline fill="none" stroke="#000000" stroke-width="0.5pt" stroke-dasharray="none" points="90.857,466.514 632.502,466.514 "/>
      <polyline fill="none" stroke="#000000" stroke-width="0.5pt" stroke-dasharray="none" points="145.021,287.686 145.021,293.102 "/>
      <polyline fill="none" stroke="#000000" stroke-width="0.5pt" stroke-dasharray="none" points="199.186,287.686 199.186,293.102 "/>
      <polyline fill="none" stroke="#000000" stroke-width="0.5pt" stroke-dasharray="none" points="253.350,287.686 253.350,293.102 "/>
      <polyline fill="none" stroke="#000000" stroke-width="0.5pt" stroke-dasharray="none" points="307.515,287.686 307.515,293.102 "/>
      <polyline fill="none" stroke="#000000" stroke-width="0.5pt" stroke-dasharray="none" points="361.680,287.686 361.680,293.102 "/>
      <polyline fill="none" stroke="#000000" stroke-width="0.5pt" stroke-dasharray="none" points="415.844,287.686 415.844,293.102 "/>
      <polyline fill="none" stroke="#000000" stroke-width="0.5pt" stroke-dasharray="none" points="470.009,287.686 470.009,293.102 "/>
      <polyline fill="none" stroke="#000000" stroke-width="0.5pt" stroke-dasharray="none" points="524.173,287.686 524.173,293.102 "/>
      <polyline fill="none" stroke="#000000" stroke-width="0.5pt" stroke-dasharray="none" points="578.338,287.686 578.338,293.102 "/>
      <polyline fill="none" stroke="#000000" stroke-width="0.5pt" stroke-dasharray="none" points="90.857,287.686 632.502,287.686 "/>
  <g transform="translate(90.857,484.818)">
    <g transform="rotate(-0.0)">
      <text x="0.000" y="0.000" font-family="Helvetica" text-anchor="middle" font-size="12pt" fill="#000000" >-1</text>
    </g>
  </g>
  <g transform="translate(145.021,484.818)">
    <g transform="rotate(-0.0)">
      <text x="0.000" y="0.000" font-family="Helvetica" text-anchor="middle" font-size="12pt" fill="#000000" >-0.8</text>
    </g>
  </g>
  <g transform="translate(199.186,484.818)">
    <g transform="rotate(-0.0)">
      <text x="0.000" y="0.000" font-family="Helvetica" text-anchor="middle" font-size="12pt" fill="#000000" >-0.6</text>
    </g>
  </g>
  <g transform="translate(253.350,484.818)">
    <g transform="rotate(-0.0)">
      <text x="0.000" y="0.000" font-family="Helvetica" text-anchor="middle" font-size="12pt" fill="#000000" >-0.4</text>
    </g>
  </g>
  <g transform="translate(307.515,484.818)">
    <g transform="rotate(-0.0)">
      <text x="0.000" y="0.000" font-family="Helvetica" text-anchor="middle" font-size="12pt" fill="#000000" >-0.2</text>
    </g>
  </g>
  <g transform="translate(361.680,484.818)">
    <g transform="rotate(-0.0)">
      <text x="0.000" y="0.000" font-family="Helvetica" text-anchor="middle" font-size="12pt" fill="#000000" >0</text>
    </g>
  </g>
  <g transform="translate(415.844,484.818)">
    <g transform="rotate(-0.0)">
      <text x="0.000" y="0.000" font-family="Helvetica" text-anchor="middle" font-size="12pt" fill="#000000" >0.2</text>
    </g>
  </g>
  <g transform="translate(470.009,484.818)">
    <g transform="rotate(-0.0)">
      <text x="0.000" y="0.000" font-family="Helvetica" text-anchor="middle" font-size="12pt" fill="#000000" >0.4</text>
    </g>
  </g>
  <g transform="translate(524.173,484.818)">
    <g transform="rotate(-0.0)">
      <text x="0.000" y="0.000" font-family="Helvetica" text-anchor="middle" font-size="12pt" fill="#000000" >0.6</text>
    </g>
  </g>
  <g transform="translate(578.338,484.818)">
    <g transform="rotate(-0.0)">
      <text x="0.000" y="0.000" font-family="Helvetica" text-anchor="middle" font-size="12pt" fill="#000000" >0.8</text>
    </g>
  </g>
  <g transform="translate(632.502,484.818)">
    <g transform="rotate(-0.0)">
      <text x="0.000" y="0.000" font-family="Helvetica" text-anchor="middle" font-size="12pt" fill="#000000" >1</text>
    </g>
  </g>
      <polyline fill="none" stroke="#000000" stroke-width="0.5pt" stroke-dasharray="none" points="90.857,421.807 96.273,421.807 "/>
      <polyline fill="none" stroke="#000000" stroke-width="0.5pt" stroke-dasharray="none" points="90.857,377.100 96.273,377.100 "/>
      <polyline fill="none" stroke="#000000" stroke-width="0.5pt" stroke-dasharray="none" points="90.857,332.393 96.273,332.393 "/>
      <polyline fill="none" stroke="#000000" stroke-width="0.5pt" stroke-dasharray="none" points="90.857,466.514 90.857,287.686 "/>
      <polyline fill="none" stroke="#000000" stroke-width="0.5pt" stroke-dasharray="none" points="632.502,421.807 627.086,421.807 "/>
      <polyline fill="none" stroke="#000000" stroke-width="0.5pt" stroke-dasharray="none" points="632.502,377.100 627.086,377.100 "/>
      <polyline fill="none" stroke="#000000" stroke-width="0.5pt" stroke-dasharray="none" points="632.502,332.393 627.086,332.393 "/>
      <polyline fill="none" stroke="#000000" stroke-width="0.5pt" stroke-dasharray="none" points="632.502,466.514 632.502,287.686 "/>
  <g transform="translate(80.024,472.130)">
    <g transform="rotate(-0.0)">
      <text x="0.000" y="0.000" font-family="Helvetica" text-anchor="end" font-size="12pt" fill="#000000" >0</text>
    </g>
  </g>
  <g transform="translate(80.024,427.423)">
    <g transform="rotate(-0.0)">
      <text x="0.000" y="0.000" font-family="Helvetica" text-anchor="end" font-size="12pt" fill="#000000" >0.2</text>
    </g>
  </g>
  <g transform="translate(80.024,382.716)">
    <g transform="rotate(-0.0)">
      <text x="0.000" y="0.000" font-family="Helvetica" text-anchor="end" font-size="12pt" fill="#000000" >0.4</text>
    </g>
  </g>
  <g transform="translate(80.024,338.009)">
    <g transform="rotate(-0.0)">
      <text x="0.000" y="0.000" font-family="Helvetica" text-anchor="end" font-size="12pt" fill="#000000" >0.6</text>
    </g>
  </g>
  <g transform="translate(80.024,293.302)">
    <g transform="rotate(-0.0)">
      <text x="0.000" y="0.000" font-family="Helvetica" text-anchor="end" font-size="12pt" fill="#000000" >0.8</text>
    </g>
  </g>
      <polyline fill="none" stroke="#000000" stroke-width="0.5pt" stroke-dasharray="none" points="90.857,466.514 90.857,464.726 "/>
      <polyline fill="none" stroke="#000000" stroke-width="0.5pt" stroke-dasharray="none" points="90.857,466.514 90.857,466.514 "/>
    </g>
  </g>
  </g>
</svg>
