<?xml version="1.0" encoding="utf-8" standalone="no"?><!DOCTYPE svg PUBLIC "-//W3C//DTD SVG 1.1//EN" "http://www.w3.org/Graphics/SVG/1.1/DTD/svg11.dtd">
<svg preserveAspectRatio="xMinYMin meet" width="100%" height="100%" viewBox="0 0 698.898 524.173"  version="1.1" xmlns="http://www.w3.org/2000/svg" xmlns:xlink="http://www.w3.org/1999/xlink">
  <desc>Matlab Figure Converted by PLOT2SVG written by Juerg Schwizer</desc>
  <g id="topgroup">
  <rect x="0" y="0" width="698.898" height="524.173" fill="#ffffff" stroke="none" />
  <g id ="ID000000">
  <clipPath id="ID000001">
    <rect x="90.857" y="39.313" width="541.646" height="178.828"/>
  </clipPath>
      <polygon fill="#ffffff" fill-opacity="1.00" stroke="none" stroke-width="0.5pt" stroke-opacity="1.00" stroke-dasharray="none" points="90.857,218.141 632.502,218.141 632.502,39.313 90.857,39.313 "/>
      <polygon fill="#ffffff" fill-opacity="1.00" stroke="none" stroke-width="0.5pt" stroke-opacity="1.00" stroke-dasharray="none" points="90.857,39.313 632.502,39.313 632.502,39.313 90.857,39.313 "/>
      <polygon fill="#ffffff" fill-opacity="1.00" stroke="none" stroke-width="0.5pt" stroke-opacity="1.00" stroke-dasharray="none" points="90.857,218.141 90.857,218.141 90.857,39.313 90.857,39.313 "/>
    <g>
<g id="ID000002" clip-path="url(#ID000001)" >
      <polyline fill="none" stroke="#0000ff" stroke-width="0.5pt" stroke-dasharray="none" points="90.857,218.141 91.128,218.141 91.398,218.141 91.669,218.141 91.940,218.141 92.211,218.141 92.482,218.141 92.752,218.141 93.023,218.141 93.294,218.141 93.565,218.141 93.836,218.141 94.107,218.141 94.377,218.141 94.648,218.141 94.919,218.141 95.190,218.141 95.461,218.141 95.732,218.141 96.002,218.141 96.273,218.141 96.544,218.141 96.815,218.141 97.086,218.141 97.356,218.141 97.627,218.141 97.898,218.141 98.169,218.141 98.440,218.141 98.711,218.141 98.981,218.141 99.252,218.141 99.523,218.141 99.794,218.141 100.065,218.141 100.335,218.141 100.606,218.141 100.877,218.141 101.148,218.141 101.419,218.141 101.690,218.141 101.960,218.141 102.231,218.141 102.502,218.141 102.773,218.141 103.044,218.141 103.315,218.141 103.585,218.141 103.856,218.141 104.127,218.141 104.398,218.141 104.669,218.141 104.939,218.141 105.210,218.141 105.481,218.141 105.752,218.141 106.023,218.141 106.294,218.141 106.564,218.141 106.835,218.141 107.106,218.141 107.377,218.141 107.648,218.141 107.919,218.141 108.189,218.141 108.460,218.141 108.731,218.141 109.002,218.141 109.273,218.141 109.543,218.141 109.814,218.141 110.085,218.141 110.356,218.141 110.627,218.141 110.898,218.141 111.168,218.141 111.439,218.141 111.710,218.141 111.981,218.141 112.252,218.141 112.523,218.141 112.793,218.141 113.064,218.141 113.335,218.141 113.606,218.141 113.877,218.141 114.147,218.141 114.418,218.141 114.689,218.141 114.960,218.141 115.231,218.141 115.502,218.141 115.772,218.141 116.043,218.141 116.314,218.141 116.585,218.141 116.856,218.141 117.127,218.141 117.397,218.141 117.668,218.141 117.939,218.141 118.210,218.141 118.481,218.141 118.751,218.141 119.022,218.141 119.293,218.141 119.564,218.141 119.835,218.141 120.106,218.141 120.376,218.141 120.647,218.141 120.918,218.141 121.189,218.141 121.460,218.141 121.730,218.141 122.001,218.141 122.272,218.141 122.543,218.141 122.814,218.141 123.085,218.141 123.355,218.141 123.626,218.141 123.897,218.141 124.168,218.141 124.439,218.141 124.710,218.141 124.980,218.141 125.251,218.141 125.522,218.141 125.793,218.141 126.064,218.141 126.334,218.141 126.605,218.141 126.876,218.141 127.147,218.141 127.418,218.141 127.689,218.141 127.959,218.141 128.230,218.141 128.501,218.141 128.772,218.141 129.043,218.141 129.314,218.141 129.584,218.141 129.855,218.141 130.126,218.141 130.397,218.141 130.668,218.141 130.938,218.141 131.209,218.141 131.480,218.141 131.751,218.141 132.022,218.141 132.293,218.141 132.563,218.141 132.834,218.141 133.105,218.141 133.376,218.141 133.647,218.141 133.918,218.141 134.188,218.141 134.459,218.141 134.730,218.141 135.001,218.141 135.272,218.141 135.542,218.141 135.813,218.141 136.084,218.141 136.355,218.141 136.626,218.141 136.897,218.141 137.167,218.141 137.438,218.141 137.709,218.141 137.980,218.141 138.251,218.141 138.522,218.141 138.792,218.141 139.063,218.141 139.334,218.141 139.605,218.141 139.876,218.141 140.146,218.141 140.417,218.141 140.688,218.141 140.959,218.141 141.230,218.141 141.501,218.141 141.771,218.141 142.042,218.141 142.313,218.141 142.584,218.141 142.855,218.141 143.126,218.141 143.396,218.141 143.667,218.141 143.938,218.141 144.209,218.141 144.480,218.141 144.750,218.141 145.021,218.141 145.292,218.141 145.563,218.141 145.834,218.141 146.105,218.141 146.375,218.141 146.646,218.141 146.917,218.141 147.188,218.141 147.459,218.141 147.729,218.141 148.000,218.141 148.271,218.141 148.542,218.141 148.813,218.141 149.084,218.141 149.354,218.141 149.625,218.141 149.896,218.141 150.167,218.141 150.438,218.141 150.709,218.141 150.979,218.141 151.250,218.141 151.521,218.141 151.792,218.141 152.063,218.141 152.333,218.141 152.604,218.141 152.875,218.141 153.146,218.141 153.417,218.141 153.688,218.141 153.958,218.141 154.229,218.141 154.500,218.141 154.771,218.141 155.042,218.141 155.313,218.141 155.583,218.141 155.854,218.141 156.125,218.141 156.396,218.141 156.667,218.141 156.937,218.141 157.208,218.141 157.479,218.141 157.750,218.141 158.021,218.141 158.292,218.141 158.562,218.141 158.833,218.141 159.104,218.141 159.375,218.141 159.646,218.141 159.917,218.141 160.187,218.141 160.458,218.141 160.729,218.141 161.000,218.141 161.271,218.141 161.541,218.141 161.812,218.141 162.083,218.141 162.354,218.141 162.625,218.141 162.896,218.141 163.166,218.141 163.437,218.141 163.708,218.141 163.979,218.141 164.250,218.141 164.521,218.141 164.791,218.141 165.062,218.141 165.333,218.141 165.604,218.141 165.875,218.141 166.145,218.141 166.416,218.141 166.687,218.141 166.958,218.141 167.229,218.141 167.500,218.141 167.770,218.141 168.041,218.141 168.312,218.141 168.583,218.141 168.854,218.141 169.124,218.141 169.395,218.141 169.666,218.141 169.937,218.141 170.208,218.141 170.479,218.141 170.749,218.141 171.020,218.141 171.291,218.141 171.562,218.141 171.833,218.141 172.104,218.141 172.374,218.141 172.645,218.141 172.916,218.141 173.187,218.141 173.458,218.141 173.728,218.141 173.999,218.141 174.270,218.141 174.541,218.141 174.812,218.141 175.083,218.141 175.353,218.141 175.624,218.141 175.895,218.141 176.166,218.141 176.437,218.141 176.708,218.141 176.978,218.141 177.249,218.141 177.520,218.141 177.791,218.141 178.062,218.141 178.332,218.141 178.603,218.141 178.874,218.141 179.145,218.141 179.416,218.141 179.687,218.141 179.957,218.141 180.228,218.141 180.499,218.141 180.770,218.141 181.041,218.141 181.312,218.141 181.582,218.141 181.853,218.141 182.124,218.141 182.395,218.141 182.666,218.141 182.936,218.141 183.207,218.141 183.478,218.141 183.749,218.141 184.020,218.141 184.291,218.141 184.561,218.141 184.832,218.141 185.103,218.141 185.374,218.141 185.645,218.141 185.916,218.141 186.186,218.141 186.457,218.141 186.728,218.141 186.999,218.141 187.270,218.141 187.540,218.141 187.811,218.141 188.082,218.141 188.353,218.141 188.624,218.141 188.895,218.141 189.165,218.141 189.436,218.141 189.707,218.141 189.978,218.141 190.249,218.141 190.519,218.141 190.790,218.141 191.061,218.141 191.332,218.141 191.603,218.141 191.874,218.141 192.144,218.141 192.415,218.141 192.686,218.141 192.957,218.141 193.228,218.141 193.499,218.141 193.769,218.141 194.040,218.141 194.311,218.141 194.582,218.141 194.853,218.141 195.123,218.141 195.394,218.141 195.665,218.141 195.936,218.141 196.207,218.141 196.478,218.141 196.748,218.141 197.019,218.141 197.290,218.141 197.561,218.141 197.832,218.141 198.103,218.141 198.373,218.141 198.644,218.141 198.915,218.141 199.186,218.141 199.457,218.141 199.727,218.141 199.998,218.141 200.269,218.141 200.540,218.141 200.811,218.141 201.082,218.141 201.352,218.141 201.623,218.141 201.894,218.141 202.165,218.141 202.436,218.141 202.707,218.141 202.977,218.141 203.248,218.141 203.519,218.141 203.790,218.141 204.061,218.141 204.331,218.141 204.602,218.141 204.873,218.141 205.144,218.141 205.415,218.141 205.686,218.141 205.956,218.141 206.227,218.141 206.498,218.141 206.769,218.141 207.040,218.141 207.311,218.141 207.581,218.141 207.852,218.141 208.123,218.141 208.394,218.141 208.665,218.141 208.935,218.141 209.206,218.141 209.477,218.141 209.748,218.141 210.019,218.141 210.290,218.141 210.560,218.141 210.831,218.141 211.102,218.141 211.373,218.141 211.644,218.141 211.915,218.141 212.185,218.141 212.456,218.141 212.727,218.141 212.998,218.141 213.269,218.141 213.539,218.141 213.810,218.141 214.081,218.141 214.352,218.141 214.623,218.141 214.894,218.141 215.164,218.141 215.435,218.141 215.706,218.141 215.977,218.141 216.248,218.141 216.518,218.141 216.789,218.141 217.060,218.141 217.331,218.141 217.602,218.141 217.873,218.141 218.143,218.141 218.414,218.141 218.685,218.141 218.956,218.141 219.227,218.141 219.498,218.141 219.768,218.141 220.039,218.141 220.310,218.141 220.581,218.141 220.852,218.141 221.122,218.141 221.393,218.141 221.664,218.141 221.935,218.141 222.206,218.141 222.477,218.141 222.747,218.141 223.018,218.141 223.289,218.141 223.560,218.141 223.831,218.141 224.102,218.141 224.372,218.141 224.643,218.141 224.914,218.141 225.185,218.141 225.456,218.141 225.726,218.141 225.997,218.141 226.268,218.141 226.539,218.141 226.810,218.141 227.081,218.141 227.351,218.141 227.622,218.141 227.893,218.141 228.164,218.141 228.435,218.141 228.706,218.141 228.976,218.141 229.247,218.141 229.518,218.141 229.789,218.141 230.060,218.141 230.330,218.141 230.601,218.141 230.872,218.141 231.143,218.141 231.414,218.141 231.685,218.141 231.955,218.141 232.226,218.141 232.497,218.141 232.768,218.141 233.039,218.141 233.310,218.141 233.580,218.141 233.851,218.141 234.122,218.141 234.393,218.141 234.664,218.141 234.934,218.141 235.205,218.141 235.476,218.141 235.747,218.141 236.018,218.141 236.289,218.141 236.559,218.141 236.830,218.141 237.101,218.141 237.372,218.141 237.643,218.141 237.913,218.141 238.184,218.141 238.455,218.141 238.726,218.141 238.997,218.141 239.268,218.141 239.538,218.141 239.809,218.141 240.080,218.141 240.351,218.141 240.622,218.141 240.893,218.141 241.163,218.141 241.434,218.141 241.705,218.141 241.976,218.141 242.247,218.141 242.517,218.141 242.788,218.141 243.059,218.141 243.330,218.141 243.601,218.141 243.872,218.141 244.142,218.141 244.413,218.141 244.684,218.141 244.955,218.141 245.226,218.141 245.497,218.141 245.767,218.141 246.038,218.141 246.309,218.141 246.580,218.141 246.851,218.141 247.121,218.141 247.392,218.141 247.663,218.141 247.934,218.141 248.205,218.141 248.476,218.141 248.746,218.141 249.017,218.141 249.288,218.141 249.559,218.141 249.830,218.141 250.101,218.141 250.371,218.141 250.642,218.141 250.913,218.141 251.184,218.141 251.455,218.141 251.725,218.141 251.996,218.141 252.267,218.141 252.538,218.141 252.809,218.141 253.080,218.141 253.350,218.141 253.621,218.141 253.892,218.141 254.163,218.141 254.434,218.141 254.705,218.141 254.975,218.141 255.246,218.141 255.517,218.141 255.788,218.141 256.059,218.141 256.329,218.141 256.600,218.141 256.871,218.141 257.142,218.141 257.413,218.141 257.684,218.141 257.954,218.141 258.225,218.141 258.496,218.141 258.767,218.141 259.038,218.141 259.308,218.141 259.579,218.141 259.850,218.141 260.121,218.141 260.392,218.141 260.663,218.141 260.933,218.141 261.204,218.141 261.475,218.141 261.746,218.141 262.017,218.141 262.288,218.141 262.558,218.141 262.829,218.141 263.100,218.141 263.371,218.141 263.642,218.141 263.912,218.141 264.183,218.141 264.454,218.141 264.725,218.141 264.996,218.141 265.267,218.141 265.537,218.141 265.808,218.141 266.079,218.141 266.350,218.141 266.621,218.141 266.892,218.141 267.162,218.141 267.433,218.141 267.704,218.141 267.975,218.141 268.246,218.141 268.516,218.141 268.787,218.141 269.058,218.141 269.329,218.141 269.600,218.141 269.871,218.141 270.141,218.141 270.412,218.141 270.683,218.141 270.954,218.141 271.225,218.141 271.496,218.141 271.766,218.141 272.037,218.141 272.308,218.141 272.579,218.141 272.850,218.141 273.120,218.141 273.391,218.141 273.662,218.141 273.933,218.141 274.204,218.141 274.475,218.141 274.745,218.141 275.016,218.141 275.287,218.141 275.558,218.141 275.829,218.141 276.100,218.141 276.370,218.141 276.641,218.141 276.912,218.141 277.183,218.141 277.454,218.141 277.724,218.141 277.995,218.141 278.266,218.141 278.537,218.141 278.808,218.141 279.079,218.141 279.349,218.141 279.620,218.141 279.891,218.141 280.162,218.141 280.433,218.141 280.704,218.141 280.974,218.141 281.245,218.141 281.516,218.141 281.787,218.141 282.058,218.141 282.328,218.141 282.599,218.141 282.870,218.141 283.141,218.141 283.412,218.141 283.683,218.141 283.953,218.141 284.224,218.141 284.495,218.141 284.766,218.141 285.037,218.141 285.307,218.141 285.578,218.141 285.849,218.141 286.120,218.141 286.391,218.141 286.662,218.141 286.932,218.141 287.203,218.141 287.474,218.141 287.745,218.141 288.016,218.141 288.287,218.141 288.557,218.141 288.828,218.141 289.099,218.141 289.370,218.141 289.641,218.141 289.911,218.141 290.182,218.141 290.453,218.141 290.724,218.141 290.995,218.141 291.266,218.141 291.536,218.141 291.807,218.141 292.078,218.141 292.349,218.141 292.620,218.141 292.891,218.141 293.161,218.141 293.432,218.141 293.703,218.141 293.974,218.141 294.245,218.141 294.515,218.141 294.786,218.141 295.057,218.141 295.328,218.141 295.599,218.141 295.870,218.141 296.140,218.141 296.411,218.141 296.682,218.141 296.953,218.141 297.224,218.141 297.495,218.141 297.765,218.141 298.036,218.141 298.307,218.141 298.578,218.141 298.849,218.141 299.119,218.141 299.390,218.141 299.661,218.141 299.932,218.141 300.203,218.141 300.474,218.141 300.744,218.141 301.015,218.141 301.286,218.141 301.557,218.141 301.828,218.141 302.099,218.141 302.369,218.141 302.640,218.141 302.911,218.141 303.182,218.141 303.453,218.141 303.723,218.141 303.994,218.141 304.265,218.141 304.536,218.141 304.807,218.141 305.078,218.141 305.348,218.141 305.619,218.141 305.890,218.141 306.161,218.141 306.432,218.141 306.702,218.141 306.973,218.141 307.244,218.141 307.515,218.141 307.786,218.141 308.057,218.141 308.327,218.141 308.598,218.141 308.869,218.141 309.140,218.141 309.411,218.141 309.682,218.141 309.952,218.141 310.223,218.141 310.494,218.141 310.765,218.141 311.036,218.141 311.306,218.141 311.577,218.141 311.848,218.141 312.119,218.141 312.390,218.141 312.661,218.141 312.931,218.141 313.202,218.141 313.473,218.141 313.744,218.141 314.015,218.141 314.286,218.141 314.556,218.141 314.827,218.141 315.098,218.141 315.369,218.141 315.640,218.141 315.910,218.141 316.181,218.141 316.452,218.141 316.723,218.141 316.994,218.141 317.265,218.141 317.535,218.141 317.806,218.141 318.077,218.141 318.348,218.141 318.619,218.141 318.890,218.141 319.160,218.141 319.431,218.141 319.702,218.141 319.973,218.141 320.244,218.141 320.514,218.141 320.785,218.141 321.056,218.141 321.327,218.141 321.598,218.141 321.869,218.141 322.139,218.141 322.410,218.141 322.681,218.141 322.952,218.141 323.223,218.141 323.494,218.141 323.764,218.141 324.035,218.141 324.306,218.141 324.577,218.141 324.848,218.141 325.118,218.141 325.389,218.141 325.660,218.141 325.931,218.141 326.202,218.141 326.473,218.141 326.743,218.141 327.014,218.141 327.285,218.141 327.556,218.141 327.827,218.141 328.097,218.141 328.368,218.141 328.639,218.141 328.910,218.141 329.181,218.141 329.452,218.141 329.722,218.141 329.993,218.141 330.264,218.141 330.535,218.141 330.806,218.141 331.077,218.141 331.347,218.141 331.618,218.141 331.889,218.141 332.160,218.141 332.431,218.141 332.701,218.141 332.972,218.141 333.243,218.141 333.514,218.141 333.785,218.141 334.056,218.141 334.326,218.141 334.597,218.141 334.868,218.141 335.139,218.141 335.410,218.141 335.681,218.141 335.951,218.141 336.222,218.141 336.493,218.141 336.764,218.141 337.035,218.141 337.305,218.141 337.576,218.141 337.847,218.141 338.118,218.141 338.389,218.141 338.660,218.141 338.930,218.141 339.201,218.141 339.472,218.141 339.743,218.141 340.014,218.141 340.285,218.141 340.555,218.141 340.826,218.141 341.097,218.141 341.368,218.141 341.639,218.141 341.909,218.141 342.180,218.141 342.451,218.141 342.722,218.141 342.993,218.141 343.264,218.141 343.534,218.141 343.805,218.141 344.076,218.141 344.347,218.141 344.618,218.141 344.889,218.141 345.159,218.141 345.430,218.141 345.701,218.141 345.972,218.141 346.243,218.141 346.513,218.141 346.784,218.141 347.055,218.141 347.326,218.141 347.597,218.141 347.868,218.141 348.138,218.141 348.409,218.141 348.680,218.141 348.951,218.141 349.222,218.141 349.493,218.141 349.763,218.141 350.034,218.141 350.305,218.141 350.576,218.141 350.847,218.141 351.117,218.141 351.388,218.141 351.659,218.141 351.930,218.141 352.201,218.141 352.472,218.141 352.742,218.141 353.013,218.141 353.284,218.141 353.555,218.141 353.826,218.141 354.096,218.141 354.367,218.141 354.638,218.141 354.909,218.141 355.180,218.141 355.451,218.141 355.721,218.141 355.992,218.141 356.263,218.141 356.534,218.141 356.805,218.141 357.076,218.141 357.346,218.141 357.617,218.141 357.888,218.141 358.159,218.141 358.430,218.141 358.700,218.141 358.971,218.141 359.242,218.141 359.513,218.141 359.784,218.141 360.055,218.141 360.325,218.141 360.596,218.141 360.867,218.141 361.138,218.141 361.409,218.141 361.680,218.141 361.950,218.141 362.221,218.141 362.492,218.141 362.763,218.141 363.034,218.141 363.304,218.141 363.575,218.141 363.846,218.141 364.117,218.141 364.388,218.141 364.659,218.141 364.929,218.141 365.200,218.141 365.471,218.141 365.742,218.141 366.013,218.141 366.284,218.141 366.554,218.141 366.825,218.141 367.096,218.141 367.367,218.141 367.638,218.141 367.908,218.141 368.179,218.141 368.450,218.141 368.721,218.141 368.992,218.141 369.263,218.141 369.533,218.141 369.804,218.141 370.075,218.141 370.346,218.141 370.617,218.141 370.888,218.141 371.158,218.141 371.429,218.141 371.700,218.141 371.971,218.141 372.242,218.141 372.512,218.141 372.783,218.141 373.054,218.141 373.325,218.141 373.596,218.141 373.867,218.141 374.137,218.141 374.408,218.141 374.679,218.141 374.950,218.141 375.221,218.141 375.491,218.141 375.762,218.141 376.033,218.141 376.304,218.141 376.575,218.141 376.846,218.141 377.116,218.141 377.387,218.141 377.658,218.141 377.929,218.141 378.200,218.141 378.471,218.141 378.741,218.141 379.012,218.141 379.283,218.141 379.554,218.141 379.825,218.141 380.095,218.141 380.366,218.141 380.637,218.141 380.908,218.141 381.179,218.141 381.450,218.141 381.720,218.141 381.991,218.141 382.262,218.141 382.533,218.141 382.804,218.141 383.075,218.141 383.345,218.141 383.616,218.141 383.887,218.141 384.158,218.141 384.429,218.141 384.699,218.141 384.970,218.141 385.241,218.141 385.512,218.141 385.783,218.141 386.054,218.141 386.324,218.141 386.595,218.141 386.866,218.141 387.137,218.141 387.408,218.141 387.679,218.141 387.949,218.141 388.220,218.141 388.491,218.141 388.762,218.141 389.033,218.141 389.303,218.141 389.574,218.141 389.845,218.141 390.116,218.141 390.387,218.141 390.658,218.141 390.928,218.141 391.199,218.141 391.470,218.141 391.741,218.141 392.012,218.141 392.283,218.141 392.553,218.141 392.824,218.141 393.095,218.141 393.366,218.141 393.637,218.141 393.907,218.141 394.178,218.141 394.449,218.141 394.720,218.141 394.991,218.141 395.262,218.141 395.532,218.141 395.803,218.141 396.074,218.141 396.345,218.141 396.616,218.141 396.886,218.141 397.157,218.141 397.428,218.141 397.699,218.141 397.970,218.141 398.241,218.141 398.511,218.141 398.782,218.141 399.053,218.141 399.324,218.141 399.595,218.141 399.866,218.141 400.136,218.141 400.407,218.141 400.678,218.141 400.949,218.141 401.220,218.141 401.490,218.141 401.761,218.141 402.032,218.141 402.303,218.141 402.574,218.141 402.845,218.141 403.115,218.141 403.386,218.141 403.657,218.141 403.928,218.141 404.199,218.141 404.470,218.141 404.740,218.141 405.011,218.141 405.282,218.141 405.553,218.141 405.824,218.141 406.094,218.141 406.365,218.141 406.636,218.141 406.907,218.141 407.178,218.141 407.449,218.141 407.719,218.141 407.990,218.141 408.261,218.141 408.532,218.141 408.803,218.141 409.074,218.141 409.344,218.141 409.615,218.141 409.886,218.141 410.157,218.141 410.428,218.141 410.698,218.141 410.969,218.141 411.240,218.141 411.511,218.141 411.782,218.141 412.053,218.141 412.323,218.141 412.594,218.141 412.865,218.141 413.136,218.141 413.407,218.141 413.678,218.141 413.948,218.141 414.219,218.141 414.490,218.141 414.761,218.141 415.032,218.141 415.302,218.141 415.573,218.141 415.844,218.141 416.115,218.141 416.386,218.141 416.657,218.141 416.927,218.141 417.198,218.141 417.469,218.141 417.740,218.141 418.011,218.141 418.282,218.141 418.552,218.141 418.823,218.141 419.094,218.141 419.365,218.141 419.636,218.141 419.906,218.141 420.177,218.141 420.448,218.141 420.719,218.141 420.990,218.141 421.261,218.141 421.531,218.141 421.802,218.141 422.073,218.141 422.344,218.141 422.615,218.141 422.885,218.141 423.156,218.141 423.427,218.141 423.698,218.141 423.969,218.141 424.240,218.141 424.510,218.141 424.781,218.141 425.052,218.141 425.323,218.141 425.594,218.141 425.865,218.141 426.135,218.141 426.406,218.141 426.677,218.141 426.948,218.141 427.219,218.141 427.489,218.141 427.760,218.141 428.031,218.141 428.302,218.141 428.573,218.141 428.844,218.141 429.114,218.141 429.385,218.141 429.656,218.141 429.927,218.141 430.198,218.141 430.469,218.141 430.739,218.141 431.010,218.141 431.281,218.141 431.552,218.141 431.823,218.141 432.093,218.141 432.364,218.141 432.635,218.141 432.906,218.141 433.177,218.141 433.448,218.141 433.718,218.141 433.989,218.141 434.260,218.141 434.531,218.141 434.802,218.141 435.073,218.141 435.343,218.141 435.614,218.141 435.885,218.141 436.156,218.141 436.427,218.141 436.697,218.141 436.968,218.141 437.239,218.141 437.510,218.141 437.781,218.141 438.052,218.141 438.322,218.141 438.593,218.141 438.864,218.141 439.135,218.141 439.406,218.141 439.677,218.141 439.947,218.141 440.218,218.141 440.489,218.141 440.760,218.141 441.031,218.141 441.301,218.141 441.572,218.141 441.843,218.141 442.114,218.141 442.385,218.141 442.656,218.141 442.926,218.141 443.197,218.141 443.468,218.141 443.739,218.141 444.010,218.141 444.280,218.141 444.551,218.141 444.822,218.141 445.093,218.141 445.364,218.141 445.635,218.141 445.905,218.141 446.176,218.141 446.447,218.141 446.718,218.141 446.989,218.141 447.260,218.141 447.530,218.141 447.801,218.141 448.072,218.141 448.343,218.141 448.614,218.141 448.884,218.141 449.155,218.141 449.426,218.141 449.697,218.141 449.968,218.141 450.239,218.141 450.509,218.141 450.780,218.141 451.051,218.141 451.322,218.141 451.593,218.141 451.864,218.141 452.134,218.141 452.405,218.141 452.676,218.141 452.947,218.141 453.218,218.141 453.488,218.141 453.759,218.141 454.030,218.141 454.301,218.141 454.572,218.141 454.843,218.141 455.113,218.141 455.384,218.141 455.655,218.141 455.926,218.141 456.197,218.141 456.468,218.141 456.738,218.141 457.009,57.307 457.280,218.141 457.551,218.141 457.822,218.141 458.092,218.141 458.363,218.141 458.634,218.141 458.905,218.141 459.176,218.141 459.447,218.141 459.717,218.141 459.988,218.141 460.259,218.141 460.530,218.141 460.801,218.141 461.072,218.141 461.342,218.141 461.613,218.141 461.884,218.141 462.155,218.141 462.426,218.141 462.696,218.141 462.967,218.141 463.238,218.141 463.509,218.141 463.780,218.141 464.051,218.141 464.321,218.141 464.592,218.141 464.863,218.141 465.134,218.141 465.405,218.141 465.675,218.141 465.946,218.141 466.217,218.141 466.488,218.141 466.759,218.141 467.030,218.141 467.300,218.141 467.571,218.141 467.842,218.141 468.113,218.141 468.384,218.141 468.655,218.141 468.925,218.141 469.196,218.141 469.467,218.141 469.738,218.141 470.009,218.141 470.279,218.141 470.550,218.141 470.821,218.141 471.092,218.141 471.363,218.141 471.634,218.141 471.904,218.141 472.175,218.141 472.446,218.141 472.717,218.141 472.988,218.141 473.259,218.141 473.529,218.141 473.800,218.141 474.071,218.141 474.342,218.141 474.613,218.141 474.883,218.141 475.154,218.141 475.425,218.141 475.696,218.141 475.967,218.141 476.238,218.141 476.508,218.141 476.779,218.141 477.050,218.141 477.321,218.141 477.592,218.141 477.863,218.141 478.133,218.141 478.404,218.141 478.675,218.141 478.946,218.141 479.217,218.141 479.487,218.141 479.758,218.141 480.029,218.141 480.300,218.141 480.571,218.141 480.842,218.141 481.112,218.141 481.383,218.141 481.654,218.141 481.925,218.141 482.196,218.141 482.467,218.141 482.737,218.141 483.008,218.141 483.279,218.141 483.550,218.141 483.821,218.141 484.091,218.141 484.362,218.141 484.633,218.141 484.904,218.141 485.175,218.141 485.446,218.141 485.716,218.141 485.987,218.141 486.258,218.141 486.529,218.141 486.800,218.141 487.071,218.141 487.341,218.141 487.612,218.141 487.883,218.141 488.154,218.141 488.425,218.141 488.695,218.141 488.966,218.141 489.237,218.141 489.508,218.141 489.779,218.141 490.050,218.141 490.320,218.141 490.591,218.141 490.862,218.141 491.133,218.141 491.404,218.141 491.674,218.141 491.945,218.141 492.216,218.141 492.487,218.141 492.758,218.141 493.029,218.141 493.299,218.141 493.570,218.141 493.841,218.141 494.112,218.141 494.383,218.141 494.654,218.141 494.924,218.141 495.195,218.141 495.466,218.141 495.737,218.141 496.008,218.141 496.278,218.141 496.549,218.141 496.820,218.141 497.091,218.141 497.362,218.141 497.633,218.141 497.903,218.141 498.174,218.141 498.445,218.141 498.716,218.141 498.987,218.141 499.258,218.141 499.528,218.141 499.799,218.141 500.070,218.141 500.341,218.141 500.612,218.141 500.882,218.141 501.153,218.141 501.424,218.141 501.695,218.141 501.966,218.141 502.237,218.141 502.507,218.141 502.778,218.141 503.049,218.141 503.320,218.141 503.591,218.141 503.862,218.141 504.132,218.141 504.403,218.141 504.674,218.141 504.945,218.141 505.216,218.141 505.486,218.141 505.757,218.141 506.028,218.141 506.299,218.141 506.570,218.141 506.841,218.141 507.111,218.141 507.382,218.141 507.653,218.141 507.924,218.141 508.195,218.141 508.466,218.141 508.736,218.141 509.007,218.141 509.278,218.141 509.549,218.141 509.820,218.141 510.090,218.141 510.361,218.141 510.632,218.141 510.903,218.141 511.174,218.141 511.445,218.141 511.715,218.141 511.986,218.141 512.257,218.141 512.528,218.141 512.799,218.141 513.069,218.141 513.340,218.141 513.611,218.141 513.882,218.141 514.153,218.141 514.424,218.141 514.694,218.141 514.965,218.141 515.236,218.141 515.507,218.141 515.778,218.141 516.049,218.141 516.319,218.141 516.590,218.141 516.861,218.141 517.132,218.141 517.403,218.141 517.673,218.141 517.944,218.141 518.215,218.141 518.486,218.141 518.757,218.141 519.028,218.141 519.298,218.141 519.569,218.141 519.840,218.141 520.111,218.141 520.382,218.141 520.653,218.141 520.923,218.141 521.194,218.141 521.465,218.141 521.736,218.141 522.007,218.141 522.277,218.141 522.548,218.141 522.819,218.141 523.090,218.141 523.361,218.141 523.632,218.141 523.902,218.141 524.173,218.141 524.444,218.141 524.715,218.141 524.986,218.141 525.257,218.141 525.527,218.141 525.798,218.141 526.069,218.141 526.340,218.141 526.611,218.141 526.881,218.141 527.152,218.141 527.423,218.141 527.694,218.141 527.965,218.141 528.236,218.141 528.506,218.141 528.777,218.141 529.048,218.141 529.319,218.141 529.590,218.141 529.861,218.141 530.131,218.141 530.402,218.141 530.673,218.141 530.944,218.141 531.215,218.141 531.485,218.141 531.756,218.141 532.027,218.141 532.298,218.141 532.569,218.141 532.840,218.141 533.110,218.141 533.381,218.141 533.652,218.141 533.923,218.141 534.194,218.141 534.464,218.141 534.735,218.141 535.006,218.141 535.277,218.141 535.548,218.141 535.819,218.141 536.089,218.141 536.360,218.141 536.631,218.141 536.902,218.141 537.173,218.141 537.444,218.141 537.714,218.141 537.985,218.141 538.256,218.141 538.527,218.141 538.798,218.141 539.068,218.141 539.339,218.141 539.610,218.141 539.881,218.141 540.152,218.141 540.423,218.141 540.693,218.141 540.964,218.141 541.235,218.141 541.506,218.141 541.777,218.141 542.048,218.141 542.318,218.141 542.589,218.141 542.860,218.141 543.131,218.141 543.402,218.141 543.672,218.141 543.943,218.141 544.214,218.141 544.485,218.141 544.756,218.141 545.027,218.141 545.297,218.141 545.568,218.141 545.839,218.141 546.110,218.141 546.381,218.141 546.652,218.141 546.922,218.141 547.193,218.141 547.464,218.141 547.735,218.141 548.006,218.141 548.276,218.141 548.547,218.141 548.818,218.141 549.089,218.141 549.360,218.141 549.631,218.141 549.901,218.141 550.172,218.141 550.443,218.141 550.714,218.141 550.985,218.141 551.256,218.141 551.526,218.141 551.797,218.141 552.068,218.141 552.339,218.141 552.610,218.141 552.880,218.141 553.151,218.141 553.422,218.141 553.693,218.141 553.964,218.141 554.235,218.141 554.505,218.141 554.776,218.141 555.047,218.141 555.318,218.141 555.589,218.141 555.860,218.141 556.130,218.141 556.401,218.141 556.672,218.141 556.943,218.141 557.214,218.141 557.484,218.141 557.755,218.141 558.026,218.141 558.297,218.141 558.568,218.141 558.839,218.141 559.109,218.141 559.380,218.141 559.651,218.141 559.922,218.141 560.193,218.141 560.463,218.141 560.734,218.141 561.005,218.141 561.276,218.141 561.547,218.141 561.818,218.141 562.088,218.141 562.359,218.141 562.630,218.141 562.901,218.141 563.172,218.141 563.443,218.141 563.713,218.141 563.984,218.141 564.255,218.141 564.526,218.141 564.797,218.141 565.067,218.141 565.338,218.141 565.609,218.141 565.880,218.141 566.151,218.141 566.422,218.141 566.692,218.141 566.963,218.141 567.234,218.141 567.505,218.141 567.776,218.141 568.047,218.141 568.317,218.141 568.588,218.141 568.859,218.141 569.130,218.141 569.401,218.141 569.671,218.141 569.942,218.141 570.213,218.141 570.484,218.141 570.755,218.141 571.026,218.141 571.296,218.141 571.567,218.141 571.838,218.141 572.109,218.141 572.380,218.141 572.651,218.141 572.921,218.141 573.192,218.141 573.463,218.141 573.734,218.141 574.005,218.141 574.275,218.141 574.546,218.141 574.817,218.141 575.088,218.141 575.359,218.141 575.630,218.141 575.900,218.141 576.171,218.141 576.442,218.141 576.713,218.141 576.984,218.141 577.255,218.141 577.525,218.141 577.796,218.141 578.067,218.141 578.338,218.141 578.609,218.141 578.879,218.141 579.150,218.141 579.421,218.141 579.692,218.141 579.963,218.141 580.234,218.141 580.504,218.141 580.775,218.141 581.046,218.141 581.317,218.141 581.588,218.141 581.858,218.141 582.129,218.141 582.400,218.141 582.671,218.141 582.942,218.141 583.213,218.141 583.483,218.141 583.754,218.141 584.025,218.141 584.296,218.141 584.567,218.141 584.838,218.141 585.108,218.141 585.379,218.141 585.650,218.141 585.921,218.141 586.192,218.141 586.462,218.141 586.733,218.141 587.004,218.141 587.275,218.141 587.546,218.141 587.817,218.141 588.087,218.141 588.358,218.141 588.629,218.141 588.900,218.141 589.171,218.141 589.442,218.141 589.712,218.141 589.983,218.141 590.254,218.141 590.525,218.141 590.796,218.141 591.066,218.141 591.337,218.141 591.608,218.141 591.879,218.141 592.150,218.141 592.421,218.141 592.691,218.141 592.962,218.141 593.233,218.141 593.504,218.141 593.775,218.141 594.046,218.141 594.316,218.141 594.587,218.141 594.858,218.141 595.129,218.141 595.400,218.141 595.670,218.141 595.941,218.141 596.212,218.141 596.483,218.141 596.754,218.141 597.025,218.141 597.295,218.141 597.566,218.141 597.837,218.141 598.108,218.141 598.379,218.141 598.650,218.141 598.920,218.141 599.191,218.141 599.462,218.141 599.733,218.141 600.004,218.141 600.274,218.141 600.545,218.141 600.816,218.141 601.087,218.141 601.358,218.141 601.629,218.141 601.899,218.141 602.170,218.141 602.441,218.141 602.712,218.141 602.983,218.141 603.253,218.141 603.524,218.141 603.795,218.141 604.066,218.141 604.337,218.141 604.608,218.141 604.878,218.141 605.149,218.141 605.420,218.141 605.691,218.141 605.962,218.141 606.233,218.141 606.503,218.141 606.774,218.141 607.045,218.141 607.316,218.141 607.587,218.141 607.857,218.141 608.128,218.141 608.399,218.141 608.670,218.141 608.941,218.141 609.212,218.141 609.482,218.141 609.753,218.141 610.024,218.141 610.295,218.141 610.566,218.141 610.837,218.141 611.107,218.141 611.378,218.141 611.649,218.141 611.920,218.141 612.191,218.141 612.461,218.141 612.732,218.141 613.003,218.141 613.274,218.141 613.545,218.141 613.816,218.141 614.086,218.141 614.357,218.141 614.628,218.141 614.899,218.141 615.170,218.141 615.441,218.141 615.711,218.141 615.982,218.141 616.253,218.141 616.524,218.141 616.795,218.141 617.065,218.141 617.336,218.141 617.607,218.141 617.878,218.141 618.149,218.141 618.420,218.141 618.690,218.141 618.961,218.141 619.232,218.141 619.503,218.141 619.774,218.141 620.045,218.141 620.315,218.141 620.586,218.141 620.857,218.141 621.128,218.141 621.399,218.141 621.669,218.141 621.940,218.141 622.211,218.141 622.482,218.141 622.753,218.141 623.024,218.141 623.294,218.141 623.565,218.141 623.836,218.141 624.107,218.141 624.378,218.141 624.649,218.141 624.919,218.141 625.190,218.141 625.461,218.141 625.732,218.141 626.003,218.141 626.273,218.141 626.544,218.141 626.815,218.141 627.086,218.141 627.357,218.141 627.628,218.141 627.898,218.141 628.169,218.141 628.440,218.141 628.711,218.141 628.982,218.141 629.252,218.141 629.523,218.141 629.794,218.141 630.065,218.141 630.336,218.141 630.607,218.141 630.877,218.141 631.148,218.141 631.419,218.141 631.690,218.141 631.961,218.141 632.232,218.141 632.502,218.141 "/>
<g>
</g>
</g>
<g id="ID000003" >
  <g transform="translate(361.056,30.565)">
    <g transform="rotate(-0.0)">
      <text x="0.000" y="0.000" font-family="Helvetica" text-anchor="middle" font-size="12pt" fill="#000000" >l = 0.26, x* = -0.50</text>
    </g>
  </g>
</g>
<g id="ID000004" >
</g>
<g id="ID000005" >
</g>
    </g>
    <g>
      <polyline fill="none" stroke="#000000" stroke-width="0.5pt" stroke-dasharray="none" points="145.021,218.141 145.021,212.725 "/>
      <polyline fill="none" stroke="#000000" stroke-width="0.5pt" stroke-dasharray="none" points="199.186,218.141 199.186,212.725 "/>
      <polyline fill="none" stroke="#000000" stroke-width="0.5pt" stroke-dasharray="none" points="253.350,218.141 253.350,212.725 "/>
      <polyline fill="none" stroke="#000000" stroke-width="0.5pt" stroke-dasharray="none" points="307.515,218.141 307.515,212.725 "/>
      <polyline fill="none" stroke="#000000" stroke-width="0.5pt" stroke-dasharray="none" points="361.680,218.141 361.680,212.725 "/>
      <polyline fill="none" stroke="#000000" stroke-width="0.5pt" stroke-dasharray="none" points="415.844,218.141 415.844,212.725 "/>
      <polyline fill="none" stroke="#000000" stroke-width="0.5pt" stroke-dasharray="none" points="470.009,218.141 470.009,212.725 "/>
      <polyline fill="none" stroke="#000000" stroke-width="0.5pt" stroke-dasharray="none" points="524.173,218.141 524.173,212.725 "/>
      <polyline fill="none" stroke="#000000" stroke-width="0.5pt" stroke-dasharray="none" points="578.338,218.141 578.338,212.725 "/>
      <polyline fill="none" stroke="#000000" stroke-width="0.5pt" stroke-dasharray="none" points="90.857,218.141 632.502,218.141 "/>
      <polyline fill="none" stroke="#000000" stroke-width="0.5pt" stroke-dasharray="none" points="145.021,39.313 145.021,44.729 "/>
      <polyline fill="none" stroke="#000000" stroke-width="0.5pt" stroke-dasharray="none" points="199.186,39.313 199.186,44.729 "/>
      <polyline fill="none" stroke="#000000" stroke-width="0.5pt" stroke-dasharray="none" points="253.350,39.313 253.350,44.729 "/>
      <polyline fill="none" stroke="#000000" stroke-width="0.5pt" stroke-dasharray="none" points="307.515,39.313 307.515,44.729 "/>
      <polyline fill="none" stroke="#000000" stroke-width="0.5pt" stroke-dasharray="none" points="361.680,39.313 361.680,44.729 "/>
      <polyline fill="none" stroke="#000000" stroke-width="0.5pt" stroke-dasharray="none" points="415.844,39.313 415.844,44.729 "/>
      <polyline fill="none" stroke="#000000" stroke-width="0.5pt" stroke-dasharray="none" points="470.009,39.313 470.009,44.729 "/>
      <polyline fill="none" stroke="#000000" stroke-width="0.5pt" stroke-dasharray="none" points="524.173,39.313 524.173,44.729 "/>
      <polyline fill="none" stroke="#000000" stroke-width="0.5pt" stroke-dasharray="none" points="578.338,39.313 578.338,44.729 "/>
      <polyline fill="none" stroke="#000000" stroke-width="0.5pt" stroke-dasharray="none" points="90.857,39.313 632.502,39.313 "/>
  <g transform="translate(90.857,236.445)">
    <g transform="rotate(-0.0)">
      <text x="0.000" y="0.000" font-family="Helvetica" text-anchor="middle" font-size="12pt" fill="#000000" >-1</text>
    </g>
  </g>
  <g transform="translate(145.021,236.445)">
    <g transform="rotate(-0.0)">
      <text x="0.000" y="0.000" font-family="Helvetica" text-anchor="middle" font-size="12pt" fill="#000000" >-0.8</text>
    </g>
  </g>
  <g transform="translate(199.186,236.445)">
    <g transform="rotate(-0.0)">
      <text x="0.000" y="0.000" font-family="Helvetica" text-anchor="middle" font-size="12pt" fill="#000000" >-0.6</text>
    </g>
  </g>
  <g transform="translate(253.350,236.445)">
    <g transform="rotate(-0.0)">
      <text x="0.000" y="0.000" font-family="Helvetica" text-anchor="middle" font-size="12pt" fill="#000000" >-0.4</text>
    </g>
  </g>
  <g transform="translate(307.515,236.445)">
    <g transform="rotate(-0.0)">
      <text x="0.000" y="0.000" font-family="Helvetica" text-anchor="middle" font-size="12pt" fill="#000000" >-0.2</text>
    </g>
  </g>
  <g transform="translate(361.680,236.445)">
    <g transform="rotate(-0.0)">
      <text x="0.000" y="0.000" font-family="Helvetica" text-anchor="middle" font-size="12pt" fill="#000000" >0</text>
    </g>
  </g>
  <g transform="translate(415.844,236.445)">
    <g transform="rotate(-0.0)">
      <text x="0.000" y="0.000" font-family="Helvetica" text-anchor="middle" font-size="12pt" fill="#000000" >0.2</text>
    </g>
  </g>
  <g transform="translate(470.009,236.445)">
    <g transform="rotate(-0.0)">
      <text x="0.000" y="0.000" font-family="Helvetica" text-anchor="middle" font-size="12pt" fill="#000000" >0.4</text>
    </g>
  </g>
  <g transform="translate(524.173,236.445)">
    <g transform="rotate(-0.0)">
      <text x="0.000" y="0.000" font-family="Helvetica" text-anchor="middle" font-size="12pt" fill="#000000" >0.6</text>
    </g>
  </g>
  <g transform="translate(578.338,236.445)">
    <g transform="rotate(-0.0)">
      <text x="0.000" y="0.000" font-family="Helvetica" text-anchor="middle" font-size="12pt" fill="#000000" >0.8</text>
    </g>
  </g>
  <g transform="translate(632.502,236.445)">
    <g transform="rotate(-0.0)">
      <text x="0.000" y="0.000" font-family="Helvetica" text-anchor="middle" font-size="12pt" fill="#000000" >1</text>
    </g>
  </g>
      <polyline fill="none" stroke="#000000" stroke-width="0.5pt" stroke-dasharray="none" points="90.857,173.434 96.273,173.434 "/>
      <polyline fill="none" stroke="#000000" stroke-width="0.5pt" stroke-dasharray="none" points="90.857,128.727 96.273,128.727 "/>
      <polyline fill="none" stroke="#000000" stroke-width="0.5pt" stroke-dasharray="none" points="90.857,84.020 96.273,84.020 "/>
      <polyline fill="none" stroke="#000000" stroke-width="0.5pt" stroke-dasharray="none" points="90.857,218.141 90.857,39.313 "/>
      <polyline fill="none" stroke="#000000" stroke-width="0.5pt" stroke-dasharray="none" points="632.502,173.434 627.086,173.434 "/>
      <polyline fill="none" stroke="#000000" stroke-width="0.5pt" stroke-dasharray="none" points="632.502,128.727 627.086,128.727 "/>
      <polyline fill="none" stroke="#000000" stroke-width="0.5pt" stroke-dasharray="none" points="632.502,84.020 627.086,84.020 "/>
      <polyline fill="none" stroke="#000000" stroke-width="0.5pt" stroke-dasharray="none" points="632.502,218.141 632.502,39.313 "/>
  <g transform="translate(80.024,223.758)">
    <g transform="rotate(-0.0)">
      <text x="0.000" y="0.000" font-family="Helvetica" text-anchor="end" font-size="12pt" fill="#000000" >0</text>
    </g>
  </g>
  <g transform="translate(80.024,179.050)">
    <g transform="rotate(-0.0)">
      <text x="0.000" y="0.000" font-family="Helvetica" text-anchor="end" font-size="12pt" fill="#000000" >1000</text>
    </g>
  </g>
  <g transform="translate(80.024,134.343)">
    <g transform="rotate(-0.0)">
      <text x="0.000" y="0.000" font-family="Helvetica" text-anchor="end" font-size="12pt" fill="#000000" >2000</text>
    </g>
  </g>
  <g transform="translate(80.024,89.636)">
    <g transform="rotate(-0.0)">
      <text x="0.000" y="0.000" font-family="Helvetica" text-anchor="end" font-size="12pt" fill="#000000" >3000</text>
    </g>
  </g>
  <g transform="translate(80.024,44.929)">
    <g transform="rotate(-0.0)">
      <text x="0.000" y="0.000" font-family="Helvetica" text-anchor="end" font-size="12pt" fill="#000000" >4000</text>
    </g>
  </g>
      <polyline fill="none" stroke="#000000" stroke-width="0.5pt" stroke-dasharray="none" points="90.857,218.141 90.857,216.353 "/>
      <polyline fill="none" stroke="#000000" stroke-width="0.5pt" stroke-dasharray="none" points="90.857,218.141 90.857,218.141 "/>
    </g>
  </g>
  <g id ="ID000006">
  <clipPath id="ID000007">
    <rect x="90.857" y="287.686" width="541.646" height="178.828"/>
  </clipPath>
      <polygon fill="#ffffff" fill-opacity="1.00" stroke="none" stroke-width="0.5pt" stroke-opacity="1.00" stroke-dasharray="none" points="90.857,466.514 632.502,466.514 632.502,287.686 90.857,287.686 "/>
      <polygon fill="#ffffff" fill-opacity="1.00" stroke="none" stroke-width="0.5pt" stroke-opacity="1.00" stroke-dasharray="none" points="90.857,287.686 632.502,287.686 632.502,287.686 90.857,287.686 "/>
      <polygon fill="#ffffff" fill-opacity="1.00" stroke="none" stroke-width="0.5pt" stroke-opacity="1.00" stroke-dasharray="none" points="90.857,466.514 90.857,466.514 90.857,287.686 90.857,287.686 "/>
    <g>
<g id="ID000008" clip-path="url(#ID000007)" >
      <polyline fill="none" stroke="#0000ff" stroke-width="0.5pt" stroke-dasharray="none" points="90.857,466.442 91.128,466.442 91.398,466.441 91.669,466.440 91.940,466.439 92.211,466.438 92.482,466.437 92.752,466.436 93.023,466.436 93.294,466.435 93.565,466.434 93.836,466.433 94.107,466.432 94.377,466.431 94.648,466.430 94.919,466.429 95.190,466.428 95.461,466.427 95.732,466.426 96.002,466.425 96.273,466.424 96.544,466.423 96.815,466.422 97.086,466.421 97.356,466.420 97.627,466.419 97.898,466.418 98.169,466.417 98.440,466.416 98.711,466.415 98.981,466.413 99.252,466.412 99.523,466.411 99.794,466.410 100.065,466.409 100.335,466.408 100.606,466.406 100.877,466.405 101.148,466.404 101.419,466.403 101.690,466.402 101.960,466.400 102.231,466.399 102.502,466.398 102.773,466.397 103.044,466.395 103.315,466.394 103.585,466.393 103.856,466.391 104.127,466.390 104.398,466.389 104.669,466.387 104.939,466.386 105.210,466.384 105.481,466.383 105.752,466.381 106.023,466.380 106.294,466.379 106.564,466.377 106.835,466.376 107.106,466.374 107.377,466.372 107.648,466.371 107.919,466.369 108.189,466.368 108.460,466.366 108.731,466.365 109.002,466.363 109.273,466.361 109.543,466.360 109.814,466.358 110.085,466.356 110.356,466.355 110.627,466.353 110.898,466.351 111.168,466.349 111.439,466.348 111.710,466.346 111.981,466.344 112.252,466.342 112.523,466.340 112.793,466.338 113.064,466.336 113.335,466.335 113.606,466.333 113.877,466.331 114.147,466.329 114.418,466.327 114.689,466.325 114.960,466.323 115.231,466.321 115.502,466.319 115.772,466.316 116.043,466.314 116.314,466.312 116.585,466.310 116.856,466.308 117.127,466.306 117.397,466.303 117.668,466.301 117.939,466.299 118.210,466.297 118.481,466.294 118.751,466.292 119.022,466.290 119.293,466.287 119.564,466.285 119.835,466.283 120.106,466.280 120.376,466.278 120.647,466.275 120.918,466.273 121.189,466.270 121.460,466.268 121.730,466.265 122.001,466.262 122.272,466.260 122.543,466.257 122.814,466.254 123.085,466.252 123.355,466.249 123.626,466.246 123.897,466.243 124.168,466.241 124.439,466.238 124.710,466.235 124.980,466.232 125.251,466.229 125.522,466.226 125.793,466.223 126.064,466.220 126.334,466.217 126.605,466.214 126.876,466.211 127.147,466.208 127.418,466.205 127.689,466.201 127.959,466.198 128.230,466.195 128.501,466.192 128.772,466.188 129.043,466.185 129.314,466.182 129.584,466.178 129.855,466.175 130.126,466.171 130.397,466.168 130.668,466.164 130.938,466.161 131.209,466.157 131.480,466.154 131.751,466.150 132.022,466.146 132.293,466.142 132.563,466.139 132.834,466.135 133.105,466.131 133.376,466.127 133.647,466.123 133.918,466.119 134.188,466.115 134.459,466.111 134.730,466.107 135.001,466.103 135.272,466.099 135.542,466.095 135.813,466.091 136.084,466.086 136.355,466.082 136.626,466.078 136.897,466.073 137.167,466.069 137.438,466.065 137.709,466.060 137.980,466.056 138.251,466.051 138.522,466.046 138.792,466.042 139.063,466.037 139.334,466.032 139.605,466.028 139.876,466.023 140.146,466.018 140.417,466.013 140.688,466.008 140.959,466.003 141.230,465.998 141.501,465.993 141.771,465.988 142.042,465.983 142.313,465.977 142.584,465.972 142.855,465.967 143.126,465.962 143.396,465.956 143.667,465.951 143.938,465.945 144.209,465.940 144.480,465.934 144.750,465.928 145.021,465.923 145.292,465.917 145.563,465.911 145.834,465.905 146.105,465.899 146.375,465.893 146.646,465.887 146.917,465.881 147.188,465.875 147.459,465.869 147.729,465.863 148.000,465.856 148.271,465.850 148.542,465.844 148.813,465.837 149.084,465.831 149.354,465.824 149.625,465.818 149.896,465.811 150.167,465.804 150.438,465.797 150.709,465.791 150.979,465.784 151.250,465.777 151.521,465.770 151.792,465.763 152.063,465.755 152.333,465.748 152.604,465.741 152.875,465.734 153.146,465.726 153.417,465.719 153.688,465.711 153.958,465.704 154.229,465.696 154.500,465.688 154.771,465.681 155.042,465.673 155.313,465.665 155.583,465.657 155.854,465.649 156.125,465.641 156.396,465.632 156.667,465.624 156.937,465.616 157.208,465.607 157.479,465.599 157.750,465.590 158.021,465.582 158.292,465.573 158.562,465.564 158.833,465.556 159.104,465.547 159.375,465.538 159.646,465.529 159.917,465.520 160.187,465.510 160.458,465.501 160.729,465.492 161.000,465.482 161.271,465.473 161.541,465.463 161.812,465.454 162.083,465.444 162.354,465.434 162.625,465.424 162.896,465.414 163.166,465.404 163.437,465.394 163.708,465.384 163.979,465.373 164.250,465.363 164.521,465.352 164.791,465.342 165.062,465.331 165.333,465.320 165.604,465.310 165.875,465.299 166.145,465.288 166.416,465.277 166.687,465.265 166.958,465.254 167.229,465.243 167.500,465.231 167.770,465.220 168.041,465.208 168.312,465.196 168.583,465.184 168.854,465.173 169.124,465.161 169.395,465.148 169.666,465.136 169.937,465.124 170.208,465.111 170.479,465.099 170.749,465.086 171.020,465.074 171.291,465.061 171.562,465.048 171.833,465.035 172.104,465.022 172.374,465.009 172.645,464.995 172.916,464.982 173.187,464.968 173.458,464.955 173.728,464.941 173.999,464.927 174.270,464.913 174.541,464.899 174.812,464.885 175.083,464.870 175.353,464.856 175.624,464.842 175.895,464.827 176.166,464.812 176.437,464.797 176.708,464.782 176.978,464.767 177.249,464.752 177.520,464.737 177.791,464.721 178.062,464.706 178.332,464.690 178.603,464.674 178.874,464.658 179.145,464.642 179.416,464.626 179.687,464.610 179.957,464.593 180.228,464.577 180.499,464.560 180.770,464.543 181.041,464.527 181.312,464.509 181.582,464.492 181.853,464.475 182.124,464.458 182.395,464.440 182.666,464.422 182.936,464.404 183.207,464.387 183.478,464.368 183.749,464.350 184.020,464.332 184.291,464.313 184.561,464.295 184.832,464.276 185.103,464.257 185.374,464.238 185.645,464.219 185.916,464.199 186.186,464.180 186.457,464.160 186.728,464.141 186.999,464.121 187.270,464.101 187.540,464.080 187.811,464.060 188.082,464.039 188.353,464.019 188.624,463.998 188.895,463.977 189.165,463.956 189.436,463.935 189.707,463.913 189.978,463.892 190.249,463.870 190.519,463.848 190.790,463.826 191.061,463.804 191.332,463.781 191.603,463.759 191.874,463.736 192.144,463.713 192.415,463.690 192.686,463.667 192.957,463.644 193.228,463.620 193.499,463.596 193.769,463.573 194.040,463.549 194.311,463.524 194.582,463.500 194.853,463.476 195.123,463.451 195.394,463.426 195.665,463.401 195.936,463.376 196.207,463.350 196.478,463.325 196.748,463.299 197.019,463.273 197.290,463.247 197.561,463.220 197.832,463.194 198.103,463.167 198.373,463.140 198.644,463.113 198.915,463.086 199.186,463.059 199.457,463.031 199.727,463.003 199.998,462.975 200.269,462.947 200.540,462.919 200.811,462.890 201.082,462.861 201.352,462.832 201.623,462.803 201.894,462.774 202.165,462.744 202.436,462.714 202.707,462.684 202.977,462.654 203.248,462.624 203.519,462.593 203.790,462.562 204.061,462.531 204.331,462.500 204.602,462.469 204.873,462.437 205.144,462.405 205.415,462.373 205.686,462.341 205.956,462.308 206.227,462.276 206.498,462.243 206.769,462.210 207.040,462.176 207.311,462.143 207.581,462.109 207.852,462.075 208.123,462.040 208.394,462.006 208.665,461.971 208.935,461.936 209.206,461.901 209.477,461.866 209.748,461.830 210.019,461.794 210.290,461.758 210.560,461.722 210.831,461.685 211.102,461.648 211.373,461.611 211.644,461.574 211.915,461.537 212.185,461.499 212.456,461.461 212.727,461.423 212.998,461.384 213.269,461.345 213.539,461.306 213.810,461.267 214.081,461.228 214.352,461.188 214.623,461.148 214.894,461.108 215.164,461.067 215.435,461.026 215.706,460.985 215.977,460.944 216.248,460.902 216.518,460.861 216.789,460.819 217.060,460.776 217.331,460.734 217.602,460.691 217.873,460.648 218.143,460.604 218.414,460.561 218.685,460.517 218.956,460.472 219.227,460.428 219.498,460.383 219.768,460.338 220.039,460.293 220.310,460.247 220.581,460.201 220.852,460.155 221.122,460.109 221.393,460.062 221.664,460.015 221.935,459.968 222.206,459.920 222.477,459.872 222.747,459.824 223.018,459.776 223.289,459.727 223.560,459.678 223.831,459.629 224.102,459.579 224.372,459.529 224.643,459.479 224.914,459.428 225.185,459.378 225.456,459.326 225.726,459.275 225.997,459.223 226.268,459.171 226.539,459.119 226.810,459.066 227.081,459.013 227.351,458.960 227.622,458.906 227.893,458.852 228.164,458.798 228.435,458.744 228.706,458.689 228.976,458.634 229.247,458.578 229.518,458.522 229.789,458.466 230.060,458.410 230.330,458.353 230.601,458.296 230.872,458.238 231.143,458.181 231.414,458.122 231.685,458.064 231.955,458.005 232.226,457.946 232.497,457.887 232.768,457.827 233.039,457.767 233.310,457.706 233.580,457.645 233.851,457.584 234.122,457.523 234.393,457.461 234.664,457.399 234.934,457.336 235.205,457.273 235.476,457.210 235.747,457.146 236.018,457.083 236.289,457.018 236.559,456.954 236.830,456.889 237.101,456.823 237.372,456.757 237.643,456.691 237.913,456.625 238.184,456.558 238.455,456.491 238.726,456.423 238.997,456.355 239.268,456.287 239.538,456.218 239.809,456.149 240.080,456.080 240.351,456.010 240.622,455.940 240.893,455.869 241.163,455.798 241.434,455.727 241.705,455.655 241.976,455.583 242.247,455.511 242.517,455.438 242.788,455.365 243.059,455.291 243.330,455.217 243.601,455.143 243.872,455.068 244.142,454.993 244.413,454.917 244.684,454.841 244.955,454.765 245.226,454.688 245.497,454.611 245.767,454.534 246.038,454.456 246.309,454.377 246.580,454.299 246.851,454.219 247.121,454.140 247.392,454.060 247.663,453.979 247.934,453.899 248.205,453.817 248.476,453.736 248.746,453.654 249.017,453.571 249.288,453.488 249.559,453.405 249.830,453.321 250.101,453.237 250.371,453.153 250.642,453.068 250.913,452.982 251.184,452.896 251.455,452.810 251.725,452.723 251.996,452.636 252.267,452.549 252.538,452.461 252.809,452.372 253.080,452.284 253.350,452.194 253.621,452.105 253.892,452.014 254.163,451.924 254.434,451.833 254.705,451.741 254.975,451.649 255.246,451.557 255.517,451.464 255.788,451.371 256.059,451.277 256.329,451.183 256.600,451.089 256.871,450.994 257.142,450.898 257.413,450.802 257.684,450.706 257.954,450.609 258.225,450.512 258.496,450.414 258.767,450.316 259.038,450.217 259.308,450.118 259.579,450.018 259.850,449.918 260.121,449.817 260.392,449.716 260.663,449.615 260.933,449.513 261.204,449.411 261.475,449.308 261.746,449.204 262.017,449.101 262.288,448.996 262.558,448.892 262.829,448.786 263.100,448.681 263.371,448.574 263.642,448.468 263.912,448.361 264.183,448.253 264.454,448.145 264.725,448.036 264.996,447.927 265.267,447.818 265.537,447.708 265.808,447.597 266.079,447.486 266.350,447.375 266.621,447.263 266.892,447.150 267.162,447.037 267.433,446.924 267.704,446.810 267.975,446.695 268.246,446.581 268.516,446.465 268.787,446.349 269.058,446.233 269.329,446.116 269.600,445.998 269.871,445.881 270.141,445.762 270.412,445.643 270.683,445.524 270.954,445.404 271.225,445.284 271.496,445.163 271.766,445.041 272.037,444.919 272.308,444.797 272.579,444.674 272.850,444.550 273.120,444.427 273.391,444.302 273.662,444.177 273.933,444.052 274.204,443.926 274.475,443.799 274.745,443.672 275.016,443.545 275.287,443.417 275.558,443.288 275.829,443.159 276.100,443.029 276.370,442.899 276.641,442.769 276.912,442.637 277.183,442.506 277.454,442.374 277.724,442.241 277.995,442.108 278.266,441.974 278.537,441.840 278.808,441.705 279.079,441.570 279.349,441.434 279.620,441.297 279.891,441.161 280.162,441.023 280.433,440.885 280.704,440.747 280.974,440.608 281.245,440.468 281.516,440.328 281.787,440.188 282.058,440.047 282.328,439.905 282.599,439.763 282.870,439.620 283.141,439.477 283.412,439.333 283.683,439.189 283.953,439.044 284.224,438.899 284.495,438.753 284.766,438.607 285.037,438.460 285.307,438.313 285.578,438.165 285.849,438.016 286.120,437.867 286.391,437.718 286.662,437.567 286.932,437.417 287.203,437.266 287.474,437.114 287.745,436.962 288.016,436.809 288.287,436.656 288.557,436.502 288.828,436.348 289.099,436.193 289.370,436.037 289.641,435.881 289.911,435.725 290.182,435.568 290.453,435.410 290.724,435.252 290.995,435.094 291.266,434.934 291.536,434.775 291.807,434.615 292.078,434.454 292.349,434.293 292.620,434.131 292.891,433.968 293.161,433.805 293.432,433.642 293.703,433.478 293.974,433.314 294.245,433.149 294.515,432.983 294.786,432.817 295.057,432.650 295.328,432.483 295.599,432.315 295.870,432.147 296.140,431.979 296.411,431.809 296.682,431.639 296.953,431.469 297.224,431.298 297.495,431.127 297.765,430.955 298.036,430.782 298.307,430.610 298.578,430.436 298.849,430.262 299.119,430.087 299.390,429.912 299.661,429.737 299.932,429.561 300.203,429.384 300.474,429.207 300.744,429.029 301.015,428.851 301.286,428.672 301.557,428.493 301.828,428.313 302.099,428.133 302.369,427.952 302.640,427.770 302.911,427.589 303.182,427.406 303.453,427.223 303.723,427.040 303.994,426.856 304.265,426.671 304.536,426.486 304.807,426.301 305.078,426.115 305.348,425.928 305.619,425.741 305.890,425.554 306.161,425.366 306.432,425.177 306.702,424.988 306.973,424.799 307.244,424.609 307.515,424.418 307.786,424.227 308.057,424.035 308.327,423.843 308.598,423.651 308.869,423.458 309.140,423.264 309.411,423.070 309.682,422.875 309.952,422.680 310.223,422.485 310.494,422.289 310.765,422.092 311.036,421.895 311.306,421.698 311.577,421.500 311.848,421.301 312.119,421.102 312.390,420.903 312.661,420.703 312.931,420.502 313.202,420.301 313.473,420.100 313.744,419.898 314.015,419.696 314.286,419.493 314.556,419.289 314.827,419.086 315.098,418.881 315.369,418.677 315.640,418.472 315.910,418.266 316.181,418.060 316.452,417.853 316.723,417.646 316.994,417.439 317.265,417.231 317.535,417.022 317.806,416.813 318.077,416.604 318.348,416.394 318.619,416.184 318.890,415.974 319.160,415.762 319.431,415.551 319.702,415.339 319.973,415.126 320.244,414.914 320.514,414.700 320.785,414.486 321.056,414.272 321.327,414.058 321.598,413.843 321.869,413.627 322.139,413.411 322.410,413.195 322.681,412.978 322.952,412.761 323.223,412.543 323.494,412.325 323.764,412.107 324.035,411.888 324.306,411.669 324.577,411.449 324.848,411.229 325.118,411.009 325.389,410.788 325.660,410.567 325.931,410.345 326.202,410.123 326.473,409.901 326.743,409.678 327.014,409.455 327.285,409.231 327.556,409.007 327.827,408.783 328.097,408.558 328.368,408.333 328.639,408.107 328.910,407.882 329.181,407.655 329.452,407.429 329.722,407.202 329.993,406.975 330.264,406.747 330.535,406.519 330.806,406.290 331.077,406.062 331.347,405.833 331.618,405.603 331.889,405.374 332.160,405.143 332.431,404.913 332.701,404.682 332.972,404.451 333.243,404.220 333.514,403.988 333.785,403.756 334.056,403.523 334.326,403.291 334.597,403.058 334.868,402.824 335.139,402.591 335.410,402.357 335.681,402.122 335.951,401.888 336.222,401.653 336.493,401.418 336.764,401.182 337.035,400.947 337.305,400.711 337.576,400.474 337.847,400.238 338.118,400.001 338.389,399.764 338.660,399.526 338.930,399.289 339.201,399.051 339.472,398.813 339.743,398.574 340.014,398.335 340.285,398.096 340.555,397.857 340.826,397.618 341.097,397.378 341.368,397.138 341.639,396.898 341.909,396.658 342.180,396.417 342.451,396.176 342.722,395.935 342.993,395.694 343.264,395.452 343.534,395.210 343.805,394.969 344.076,394.726 344.347,394.484 344.618,394.242 344.889,393.999 345.159,393.756 345.430,393.513 345.701,393.269 345.972,393.026 346.243,392.782 346.513,392.539 346.784,392.295 347.055,392.050 347.326,391.806 347.597,391.562 347.868,391.317 348.138,391.072 348.409,390.827 348.680,390.582 348.951,390.337 349.222,390.092 349.493,389.846 349.763,389.601 350.034,389.355 350.305,389.109 350.576,388.863 350.847,388.617 351.117,388.371 351.388,388.124 351.659,387.878 351.930,387.632 352.201,387.385 352.472,387.138 352.742,386.892 353.013,386.645 353.284,386.398 353.555,386.151 353.826,385.904 354.096,385.657 354.367,385.409 354.638,385.162 354.909,384.915 355.180,384.667 355.451,384.420 355.721,384.173 355.992,383.925 356.263,383.678 356.534,383.430 356.805,383.183 357.076,382.935 357.346,382.687 357.617,382.440 357.888,382.192 358.159,381.945 358.430,381.697 358.700,381.449 358.971,381.202 359.242,380.954 359.513,380.707 359.784,380.459 360.055,380.211 360.325,379.964 360.596,379.716 360.867,379.469 361.138,379.222 361.409,378.974 361.680,378.727 361.950,378.480 362.221,378.233 362.492,377.986 362.763,377.739 363.034,377.492 363.304,377.245 363.575,376.998 363.846,376.751 364.117,376.505 364.388,376.258 364.659,376.012 364.929,375.766 365.200,375.519 365.471,375.273 365.742,375.027 366.013,374.782 366.284,374.536 366.554,374.290 366.825,374.045 367.096,373.800 367.367,373.554 367.638,373.309 367.908,373.065 368.179,372.820 368.450,372.575 368.721,372.331 368.992,372.087 369.263,371.843 369.533,371.599 369.804,371.356 370.075,371.112 370.346,370.869 370.617,370.626 370.888,370.383 371.158,370.141 371.429,369.898 371.700,369.656 371.971,369.414 372.242,369.173 372.512,368.931 372.783,368.690 373.054,368.449 373.325,368.208 373.596,367.968 373.867,367.728 374.137,367.488 374.408,367.248 374.679,367.009 374.950,366.769 375.221,366.531 375.491,366.292 375.762,366.054 376.033,365.816 376.304,365.578 376.575,365.341 376.846,365.104 377.116,364.867 377.387,364.631 377.658,364.395 377.929,364.159 378.200,363.924 378.471,363.689 378.741,363.454 379.012,363.220 379.283,362.986 379.554,362.752 379.825,362.519 380.095,362.286 380.366,362.053 380.637,361.821 380.908,361.589 381.179,361.358 381.450,361.127 381.720,360.896 381.991,360.666 382.262,360.436 382.533,360.207 382.804,359.978 383.075,359.750 383.345,359.522 383.616,359.294 383.887,359.067 384.158,358.840 384.429,358.614 384.699,358.388 384.970,358.162 385.241,357.937 385.512,357.713 385.783,357.489 386.054,357.265 386.324,357.042 386.595,356.820 386.866,356.598 387.137,356.376 387.408,356.155 387.679,355.935 387.949,355.714 388.220,355.495 388.491,355.276 388.762,355.057 389.033,354.839 389.303,354.622 389.574,354.405 389.845,354.189 390.116,353.973 390.387,353.758 390.658,353.543 390.928,353.329 391.199,353.115 391.470,352.902 391.741,352.690 392.012,352.478 392.283,352.267 392.553,352.056 392.824,351.846 393.095,351.637 393.366,351.428 393.637,351.220 393.907,351.012 394.178,350.805 394.449,350.598 394.720,350.393 394.991,350.188 395.262,349.983 395.532,349.779 395.803,349.576 396.074,349.374 396.345,349.172 396.616,348.970 396.886,348.770 397.157,348.570 397.428,348.371 397.699,348.172 397.970,347.974 398.241,347.777 398.511,347.581 398.782,347.385 399.053,347.190 399.324,346.996 399.595,346.802 399.866,346.609 400.136,346.417 400.407,346.225 400.678,346.034 400.949,345.844 401.220,345.655 401.490,345.467 401.761,345.279 402.032,345.092 402.303,344.905 402.574,344.720 402.845,344.535 403.115,344.351 403.386,344.168 403.657,343.985 403.928,343.804 404.199,343.623 404.470,343.443 404.740,343.263 405.011,343.085 405.282,342.907 405.553,342.730 405.824,342.554 406.094,342.379 406.365,342.204 406.636,342.031 406.907,341.858 407.178,341.686 407.449,341.515 407.719,341.345 407.990,341.175 408.261,341.007 408.532,340.839 408.803,340.672 409.074,340.506 409.344,340.341 409.615,340.176 409.886,340.013 410.157,339.850 410.428,339.689 410.698,339.528 410.969,339.368 411.240,339.209 411.511,339.051 411.782,338.894 412.053,338.737 412.323,338.582 412.594,338.427 412.865,338.274 413.136,338.121 413.407,337.969 413.678,337.819 413.948,337.669 414.219,337.520 414.490,337.372 414.761,337.225 415.032,337.078 415.302,336.933 415.573,336.789 415.844,336.646 416.115,336.503 416.386,336.362 416.657,336.222 416.927,336.082 417.198,335.944 417.469,335.806 417.740,335.670 418.011,335.534 418.282,335.400 418.552,335.266 418.823,335.134 419.094,335.002 419.365,334.871 419.636,334.742 419.906,334.613 420.177,334.486 420.448,334.359 420.719,334.234 420.990,334.109 421.261,333.986 421.531,333.863 421.802,333.742 422.073,333.621 422.344,333.502 422.615,333.384 422.885,333.266 423.156,333.150 423.427,333.035 423.698,332.921 423.969,332.807 424.240,332.695 424.510,332.584 424.781,332.474 425.052,332.365 425.323,332.258 425.594,332.151 425.865,332.045 426.135,331.941 426.406,331.837 426.677,331.735 426.948,331.633 427.219,331.533 427.489,331.434 427.760,331.335 428.031,331.238 428.302,331.142 428.573,331.048 428.844,330.954 429.114,330.861 429.385,330.770 429.656,330.679 429.927,330.590 430.198,330.502 430.469,330.414 430.739,330.328 431.010,330.243 431.281,330.160 431.552,330.077 431.823,329.995 432.093,329.915 432.364,329.836 432.635,329.758 432.906,329.681 433.177,329.605 433.448,329.530 433.718,329.456 433.989,329.384 434.260,329.312 434.531,329.242 434.802,329.173 435.073,329.105 435.343,329.038 435.614,328.973 435.885,328.908 436.156,328.845 436.427,328.783 436.697,328.722 436.968,328.662 437.239,328.603 437.510,328.546 437.781,328.489 438.052,328.434 438.322,328.380 438.593,328.327 438.864,328.275 439.135,328.225 439.406,328.175 439.677,328.127 439.947,328.080 440.218,328.034 440.489,327.989 440.760,327.946 441.031,327.903 441.301,327.862 441.572,327.822 441.843,327.783 442.114,327.746 442.385,327.709 442.656,327.674 442.926,327.640 443.197,327.607 443.468,327.575 443.739,327.545 444.010,327.515 444.280,327.487 444.551,327.460 444.822,327.434 445.093,327.410 445.364,327.386 445.635,327.364 445.905,327.343 446.176,327.323 446.447,327.305 446.718,327.287 446.989,327.271 447.260,327.256 447.530,327.242 447.801,327.229 448.072,327.218 448.343,327.208 448.614,327.198 448.884,327.191 449.155,327.184 449.426,327.178 449.697,327.174 449.968,327.171 450.239,327.169 450.509,327.168 450.780,327.169 451.051,327.170 451.322,327.173 451.593,327.177 451.864,327.182 452.134,327.189 452.405,327.197 452.676,327.205 452.947,327.215 453.218,327.227 453.488,327.239 453.759,327.253 454.030,327.268 454.301,327.284 454.572,327.301 454.843,327.319 455.113,327.339 455.384,327.359 455.655,327.381 455.926,327.405 456.197,327.429 456.468,327.454 456.738,327.481 457.009,327.509 457.280,327.538 457.551,327.569 457.822,327.600 458.092,327.633 458.363,327.666 458.634,327.702 458.905,327.738 459.176,327.775 459.447,327.814 459.717,327.853 459.988,327.894 460.259,327.936 460.530,327.980 460.801,328.024 461.072,328.070 461.342,328.117 461.613,328.165 461.884,328.214 462.155,328.264 462.426,328.316 462.696,328.368 462.967,328.422 463.238,328.477 463.509,328.533 463.780,328.590 464.051,328.649 464.321,328.709 464.592,328.769 464.863,328.831 465.134,328.894 465.405,328.959 465.675,329.024 465.946,329.090 466.217,329.158 466.488,329.227 466.759,329.297 467.030,329.368 467.300,329.440 467.571,329.514 467.842,329.588 468.113,329.664 468.384,329.741 468.655,329.819 468.925,329.898 469.196,329.978 469.467,330.059 469.738,330.142 470.009,330.225 470.279,330.310 470.550,330.396 470.821,330.482 471.092,330.570 471.363,330.660 471.634,330.750 471.904,330.841 472.175,330.934 472.446,331.027 472.717,331.122 472.988,331.217 473.259,331.314 473.529,331.412 473.800,331.511 474.071,331.611 474.342,331.712 474.613,331.815 474.883,331.918 475.154,332.022 475.425,332.128 475.696,332.234 475.967,332.342 476.238,332.451 476.508,332.560 476.779,332.671 477.050,332.783 477.321,332.896 477.592,333.010 477.863,333.125 478.133,333.241 478.404,333.358 478.675,333.476 478.946,333.595 479.217,333.715 479.487,333.837 479.758,333.959 480.029,334.082 480.300,334.206 480.571,334.332 480.842,334.458 481.112,334.585 481.383,334.714 481.654,334.843 481.925,334.973 482.196,335.105 482.467,335.237 482.737,335.370 483.008,335.505 483.279,335.640 483.550,335.776 483.821,335.914 484.091,336.052 484.362,336.191 484.633,336.331 484.904,336.473 485.175,336.615 485.446,336.758 485.716,336.902 485.987,337.047 486.258,337.193 486.529,337.340 486.800,337.487 487.071,337.636 487.341,337.786 487.612,337.936 487.883,338.088 488.154,338.240 488.425,338.394 488.695,338.548 488.966,338.703 489.237,338.859 489.508,339.016 489.779,339.174 490.050,339.333 490.320,339.493 490.591,339.654 490.862,339.815 491.133,339.977 491.404,340.141 491.674,340.305 491.945,340.470 492.216,340.636 492.487,340.802 492.758,340.970 493.029,341.138 493.299,341.308 493.570,341.478 493.841,341.649 494.112,341.820 494.383,341.993 494.654,342.167 494.924,342.341 495.195,342.516 495.466,342.692 495.737,342.869 496.008,343.046 496.278,343.224 496.549,343.404 496.820,343.583 497.091,343.764 497.362,343.946 497.633,344.128 497.903,344.311 498.174,344.495 498.445,344.679 498.716,344.865 498.987,345.051 499.258,345.238 499.528,345.426 499.799,345.614 500.070,345.803 500.341,345.993 500.612,346.184 500.882,346.375 501.153,346.567 501.424,346.760 501.695,346.953 501.966,347.147 502.237,347.342 502.507,347.538 502.778,347.734 503.049,347.931 503.320,348.129 503.591,348.327 503.862,348.526 504.132,348.726 504.403,348.927 504.674,349.128 504.945,349.329 505.216,349.532 505.486,349.735 505.757,349.939 506.028,350.143 506.299,350.348 506.570,350.554 506.841,350.760 507.111,350.967 507.382,351.174 507.653,351.382 507.924,351.591 508.195,351.800 508.466,352.010 508.736,352.221 509.007,352.432 509.278,352.644 509.549,352.856 509.820,353.069 510.090,353.282 510.361,353.496 510.632,353.711 510.903,353.926 511.174,354.142 511.445,354.358 511.715,354.575 511.986,354.792 512.257,355.010 512.528,355.228 512.799,355.447 513.069,355.667 513.340,355.886 513.611,356.107 513.882,356.328 514.153,356.549 514.424,356.771 514.694,356.994 514.965,357.217 515.236,357.440 515.507,357.664 515.778,357.888 516.049,358.113 516.319,358.339 516.590,358.564 516.861,358.791 517.132,359.017 517.403,359.244 517.673,359.472 517.944,359.700 518.215,359.928 518.486,360.157 518.757,360.386 519.028,360.616 519.298,360.846 519.569,361.077 519.840,361.308 520.111,361.539 520.382,361.770 520.653,362.003 520.923,362.235 521.194,362.468 521.465,362.701 521.736,362.935 522.007,363.168 522.277,363.403 522.548,363.637 522.819,363.872 523.090,364.108 523.361,364.343 523.632,364.579 523.902,364.816 524.173,365.052 524.444,365.289 524.715,365.526 524.986,365.764 525.257,366.002 525.527,366.240 525.798,366.479 526.069,366.717 526.340,366.956 526.611,367.196 526.881,367.435 527.152,367.675 527.423,367.915 527.694,368.156 527.965,368.396 528.236,368.637 528.506,368.878 528.777,369.120 529.048,369.362 529.319,369.603 529.590,369.845 529.861,370.088 530.131,370.330 530.402,370.573 530.673,370.816 530.944,371.059 531.215,371.303 531.485,371.546 531.756,371.790 532.027,372.034 532.298,372.278 532.569,372.522 532.840,372.767 533.110,373.011 533.381,373.256 533.652,373.501 533.923,373.746 534.194,373.991 534.464,374.237 534.735,374.482 535.006,374.728 535.277,374.974 535.548,375.220 535.819,375.466 536.089,375.712 536.360,375.958 536.631,376.204 536.902,376.451 537.173,376.698 537.444,376.944 537.714,377.191 537.985,377.438 538.256,377.685 538.527,377.932 538.798,378.179 539.068,378.426 539.339,378.673 539.610,378.920 539.881,379.168 540.152,379.415 540.423,379.663 540.693,379.910 540.964,380.157 541.235,380.405 541.506,380.652 541.777,380.900 542.048,381.148 542.318,381.395 542.589,381.643 542.860,381.890 543.131,382.138 543.402,382.386 543.672,382.633 543.943,382.881 544.214,383.129 544.485,383.376 544.756,383.624 545.027,383.871 545.297,384.119 545.568,384.366 545.839,384.613 546.110,384.861 546.381,385.108 546.652,385.355 546.922,385.603 547.193,385.850 547.464,386.097 547.735,386.344 548.006,386.591 548.276,386.838 548.547,387.084 548.818,387.331 549.089,387.578 549.360,387.824 549.631,388.071 549.901,388.317 550.172,388.563 550.443,388.809 550.714,389.055 550.985,389.301 551.256,389.547 551.526,389.793 551.797,390.038 552.068,390.283 552.339,390.529 552.610,390.774 552.880,391.019 553.151,391.264 553.422,391.508 553.693,391.753 553.964,391.997 554.235,392.241 554.505,392.485 554.776,392.729 555.047,392.973 555.318,393.216 555.589,393.460 555.860,393.703 556.130,393.946 556.401,394.189 556.672,394.431 556.943,394.674 557.214,394.916 557.484,395.158 557.755,395.399 558.026,395.641 558.297,395.882 558.568,396.124 558.839,396.364 559.109,396.605 559.380,396.846 559.651,397.086 559.922,397.326 560.193,397.566 560.463,397.805 560.734,398.044 561.005,398.283 561.276,398.522 561.547,398.761 561.818,398.999 562.088,399.237 562.359,399.475 562.630,399.712 562.901,399.949 563.172,400.186 563.443,400.423 563.713,400.659 563.984,400.895 564.255,401.131 564.526,401.367 564.797,401.602 565.067,401.837 565.338,402.071 565.609,402.306 565.880,402.540 566.151,402.773 566.422,403.007 566.692,403.240 566.963,403.473 567.234,403.705 567.505,403.937 567.776,404.169 568.047,404.401 568.317,404.632 568.588,404.863 568.859,405.093 569.130,405.323 569.401,405.553 569.671,405.783 569.942,406.012 570.213,406.241 570.484,406.469 570.755,406.697 571.026,406.925 571.296,407.152 571.567,407.379 571.838,407.606 572.109,407.832 572.380,408.058 572.651,408.284 572.921,408.509 573.192,408.734 573.463,408.958 573.734,409.182 574.005,409.406 574.275,409.629 574.546,409.852 574.817,410.075 575.088,410.297 575.359,410.518 575.630,410.740 575.900,410.961 576.171,411.181 576.442,411.401 576.713,411.621 576.984,411.840 577.255,412.059 577.525,412.278 577.796,412.496 578.067,412.714 578.338,412.931 578.609,413.148 578.879,413.364 579.150,413.580 579.421,413.796 579.692,414.011 579.963,414.225 580.234,414.440 580.504,414.654 580.775,414.867 581.046,415.080 581.317,415.293 581.588,415.505 581.858,415.716 582.129,415.927 582.400,416.138 582.671,416.349 582.942,416.558 583.213,416.768 583.483,416.977 583.754,417.185 584.025,417.393 584.296,417.601 584.567,417.808 584.838,418.015 585.108,418.221 585.379,418.427 585.650,418.632 585.921,418.837 586.192,419.041 586.462,419.245 586.733,419.448 587.004,419.651 587.275,419.854 587.546,420.056 587.817,420.257 588.087,420.458 588.358,420.659 588.629,420.859 588.900,421.059 589.171,421.258 589.442,421.456 589.712,421.654 589.983,421.852 590.254,422.049 590.525,422.246 590.796,422.442 591.066,422.638 591.337,422.833 591.608,423.028 591.879,423.222 592.150,423.415 592.421,423.609 592.691,423.801 592.962,423.994 593.233,424.185 593.504,424.376 593.775,424.567 594.046,424.757 594.316,424.947 594.587,425.136 594.858,425.325 595.129,425.513 595.400,425.701 595.670,425.888 595.941,426.074 596.212,426.260 596.483,426.446 596.754,426.631 597.025,426.816 597.295,427.000 597.566,427.183 597.837,427.366 598.108,427.549 598.379,427.731 598.650,427.912 598.920,428.093 599.191,428.274 599.462,428.454 599.733,428.633 600.004,428.812 600.274,428.990 600.545,429.168 600.816,429.345 601.087,429.522 601.358,429.698 601.629,429.874 601.899,430.049 602.170,430.224 602.441,430.398 602.712,430.572 602.983,430.745 603.253,430.917 603.524,431.089 603.795,431.261 604.066,431.432 604.337,431.602 604.608,431.772 604.878,431.942 605.149,432.111 605.420,432.279 605.691,432.447 605.962,432.614 606.233,432.781 606.503,432.947 606.774,433.112 607.045,433.278 607.316,433.442 607.587,433.606 607.857,433.770 608.128,433.933 608.399,434.095 608.670,434.257 608.941,434.419 609.212,434.580 609.482,434.740 609.753,434.900 610.024,435.059 610.295,435.218 610.566,435.376 610.837,435.534 611.107,435.691 611.378,435.847 611.649,436.003 611.920,436.159 612.191,436.314 612.461,436.468 612.732,436.622 613.003,436.776 613.274,436.929 613.545,437.081 613.816,437.233 614.086,437.384 614.357,437.535 614.628,437.685 614.899,437.835 615.170,437.984 615.441,438.132 615.711,438.280 615.982,438.428 616.253,438.575 616.524,438.721 616.795,438.867 617.065,439.013 617.336,439.158 617.607,439.302 617.878,439.446 618.149,439.589 618.420,439.732 618.690,439.874 618.961,440.016 619.232,440.157 619.503,440.298 619.774,440.438 620.045,440.577 620.315,440.717 620.586,440.855 620.857,440.993 621.128,441.131 621.399,441.268 621.669,441.404 621.940,441.540 622.211,441.675 622.482,441.810 622.753,441.945 623.024,442.079 623.294,442.212 623.565,442.345 623.836,442.477 624.107,442.609 624.378,442.740 624.649,442.871 624.919,443.001 625.190,443.131 625.461,443.260 625.732,443.389 626.003,443.517 626.273,443.644 626.544,443.771 626.815,443.898 627.086,444.024 627.357,444.150 627.628,444.275 627.898,444.399 628.169,444.523 628.440,444.647 628.711,444.770 628.982,444.893 629.252,445.015 629.523,445.136 629.794,445.257 630.065,445.378 630.336,445.498 630.607,445.617 630.877,445.736 631.148,445.855 631.419,445.973 631.690,446.090 631.961,446.207 632.232,446.324 632.502,446.440 "/>
<g>
</g>
</g>
<g id="ID000009" >
  <g transform="translate(361.056,278.938)">
    <g transform="rotate(-0.0)">
      <text x="0.000" y="0.000" font-family="Helvetica" text-anchor="middle" font-size="12pt" fill="#000000" >l = 0.26, x* = 0.50</text>
    </g>
  </g>
</g>
<g id="ID000010" >
</g>
<g id="ID000011" >
</g>
    </g>
    <g>
      <polyline fill="none" stroke="#000000" stroke-width="0.5pt" stroke-dasharray="none" points="145.021,466.514 145.021,461.098 "/>
      <polyline fill="none" stroke="#000000" stroke-width="0.5pt" stroke-dasharray="none" points="199.186,466.514 199.186,461.098 "/>
      <polyline fill="none" stroke="#000000" stroke-width="0.5pt" stroke-dasharray="none" points="253.350,466.514 253.350,461.098 "/>
      <polyline fill="none" stroke="#000000" stroke-width="0.5pt" stroke-dasharray="none" points="307.515,466.514 307.515,461.098 "/>
      <polyline fill="none" stroke="#000000" stroke-width="0.5pt" stroke-dasharray="none" points="361.680,466.514 361.680,461.098 "/>
      <polyline fill="none" stroke="#000000" stroke-width="0.5pt" stroke-dasharray="none" points="415.844,466.514 415.844,461.098 "/>
      <polyline fill="none" stroke="#000000" stroke-width="0.5pt" stroke-dasharray="none" points="470.009,466.514 470.009,461.098 "/>
      <polyline fill="none" stroke="#000000" stroke-width="0.5pt" stroke-dasharray="none" points="524.173,466.514 524.173,461.098 "/>
      <polyline fill="none" stroke="#000000" stroke-width="0.5pt" stroke-dasharray="none" points="578.338,466.514 578.338,461.098 "/>
      <polyline fill="none" stroke="#000000" stroke-width="0.5pt" stroke-dasharray="none" points="90.857,466.514 632.502,466.514 "/>
      <polyline fill="none" stroke="#000000" stroke-width="0.5pt" stroke-dasharray="none" points="145.021,287.686 145.021,293.102 "/>
      <polyline fill="none" stroke="#000000" stroke-width="0.5pt" stroke-dasharray="none" points="199.186,287.686 199.186,293.102 "/>
      <polyline fill="none" stroke="#000000" stroke-width="0.5pt" stroke-dasharray="none" points="253.350,287.686 253.350,293.102 "/>
      <polyline fill="none" stroke="#000000" stroke-width="0.5pt" stroke-dasharray="none" points="307.515,287.686 307.515,293.102 "/>
      <polyline fill="none" stroke="#000000" stroke-width="0.5pt" stroke-dasharray="none" points="361.680,287.686 361.680,293.102 "/>
      <polyline fill="none" stroke="#000000" stroke-width="0.5pt" stroke-dasharray="none" points="415.844,287.686 415.844,293.102 "/>
      <polyline fill="none" stroke="#000000" stroke-width="0.5pt" stroke-dasharray="none" points="470.009,287.686 470.009,293.102 "/>
      <polyline fill="none" stroke="#000000" stroke-width="0.5pt" stroke-dasharray="none" points="524.173,287.686 524.173,293.102 "/>
      <polyline fill="none" stroke="#000000" stroke-width="0.5pt" stroke-dasharray="none" points="578.338,287.686 578.338,293.102 "/>
      <polyline fill="none" stroke="#000000" stroke-width="0.5pt" stroke-dasharray="none" points="90.857,287.686 632.502,287.686 "/>
  <g transform="translate(90.857,484.818)">
    <g transform="rotate(-0.0)">
      <text x="0.000" y="0.000" font-family="Helvetica" text-anchor="middle" font-size="12pt" fill="#000000" >-1</text>
    </g>
  </g>
  <g transform="translate(145.021,484.818)">
    <g transform="rotate(-0.0)">
      <text x="0.000" y="0.000" font-family="Helvetica" text-anchor="middle" font-size="12pt" fill="#000000" >-0.8</text>
    </g>
  </g>
  <g transform="translate(199.186,484.818)">
    <g transform="rotate(-0.0)">
      <text x="0.000" y="0.000" font-family="Helvetica" text-anchor="middle" font-size="12pt" fill="#000000" >-0.6</text>
    </g>
  </g>
  <g transform="translate(253.350,484.818)">
    <g transform="rotate(-0.0)">
      <text x="0.000" y="0.000" font-family="Helvetica" text-anchor="middle" font-size="12pt" fill="#000000" >-0.4</text>
    </g>
  </g>
  <g transform="translate(307.515,484.818)">
    <g transform="rotate(-0.0)">
      <text x="0.000" y="0.000" font-family="Helvetica" text-anchor="middle" font-size="12pt" fill="#000000" >-0.2</text>
    </g>
  </g>
  <g transform="translate(361.680,484.818)">
    <g transform="rotate(-0.0)">
      <text x="0.000" y="0.000" font-family="Helvetica" text-anchor="middle" font-size="12pt" fill="#000000" >0</text>
    </g>
  </g>
  <g transform="translate(415.844,484.818)">
    <g transform="rotate(-0.0)">
      <text x="0.000" y="0.000" font-family="Helvetica" text-anchor="middle" font-size="12pt" fill="#000000" >0.2</text>
    </g>
  </g>
  <g transform="translate(470.009,484.818)">
    <g transform="rotate(-0.0)">
      <text x="0.000" y="0.000" font-family="Helvetica" text-anchor="middle" font-size="12pt" fill="#000000" >0.4</text>
    </g>
  </g>
  <g transform="translate(524.173,484.818)">
    <g transform="rotate(-0.0)">
      <text x="0.000" y="0.000" font-family="Helvetica" text-anchor="middle" font-size="12pt" fill="#000000" >0.6</text>
    </g>
  </g>
  <g transform="translate(578.338,484.818)">
    <g transform="rotate(-0.0)">
      <text x="0.000" y="0.000" font-family="Helvetica" text-anchor="middle" font-size="12pt" fill="#000000" >0.8</text>
    </g>
  </g>
  <g transform="translate(632.502,484.818)">
    <g transform="rotate(-0.0)">
      <text x="0.000" y="0.000" font-family="Helvetica" text-anchor="middle" font-size="12pt" fill="#000000" >1</text>
    </g>
  </g>
      <polyline fill="none" stroke="#000000" stroke-width="0.5pt" stroke-dasharray="none" points="90.857,406.905 96.273,406.905 "/>
      <polyline fill="none" stroke="#000000" stroke-width="0.5pt" stroke-dasharray="none" points="90.857,347.295 96.273,347.295 "/>
      <polyline fill="none" stroke="#000000" stroke-width="0.5pt" stroke-dasharray="none" points="90.857,466.514 90.857,287.686 "/>
      <polyline fill="none" stroke="#000000" stroke-width="0.5pt" stroke-dasharray="none" points="632.502,406.905 627.086,406.905 "/>
      <polyline fill="none" stroke="#000000" stroke-width="0.5pt" stroke-dasharray="none" points="632.502,347.295 627.086,347.295 "/>
      <polyline fill="none" stroke="#000000" stroke-width="0.5pt" stroke-dasharray="none" points="632.502,466.514 632.502,287.686 "/>
  <g transform="translate(80.024,472.130)">
    <g transform="rotate(-0.0)">
      <text x="0.000" y="0.000" font-family="Helvetica" text-anchor="end" font-size="12pt" fill="#000000" >0</text>
    </g>
  </g>
  <g transform="translate(80.024,412.521)">
    <g transform="rotate(-0.0)">
      <text x="0.000" y="0.000" font-family="Helvetica" text-anchor="end" font-size="12pt" fill="#000000" >0.5</text>
    </g>
  </g>
  <g transform="translate(80.024,352.911)">
    <g transform="rotate(-0.0)">
      <text x="0.000" y="0.000" font-family="Helvetica" text-anchor="end" font-size="12pt" fill="#000000" >1</text>
    </g>
  </g>
  <g transform="translate(80.024,293.302)">
    <g transform="rotate(-0.0)">
      <text x="0.000" y="0.000" font-family="Helvetica" text-anchor="end" font-size="12pt" fill="#000000" >1.5</text>
    </g>
  </g>
      <polyline fill="none" stroke="#000000" stroke-width="0.5pt" stroke-dasharray="none" points="90.857,466.514 90.857,464.726 "/>
      <polyline fill="none" stroke="#000000" stroke-width="0.5pt" stroke-dasharray="none" points="90.857,466.514 90.857,466.514 "/>
    </g>
  </g>
  </g>
</svg>
