<?xml version="1.0" encoding="utf-8" standalone="no"?><!DOCTYPE svg PUBLIC "-//W3C//DTD SVG 1.1//EN" "http://www.w3.org/Graphics/SVG/1.1/DTD/svg11.dtd">
<svg preserveAspectRatio="xMinYMin meet" width="100%" height="100%" viewBox="0 0 698.898 524.173"  version="1.1" xmlns="http://www.w3.org/2000/svg" xmlns:xlink="http://www.w3.org/1999/xlink">
  <desc>Matlab Figure Converted by PLOT2SVG written by Juerg Schwizer</desc>
  <g id="topgroup">
  <rect x="0" y="0" width="698.898" height="524.173" fill="#ffffff" stroke="none" />
  <g id ="ID000000">
  <clipPath id="ID000001">
    <rect x="90.857" y="39.313" width="541.646" height="178.828"/>
  </clipPath>
      <polygon fill="#ffffff" fill-opacity="1.00" stroke="none" stroke-width="0.5pt" stroke-opacity="1.00" stroke-dasharray="none" points="90.857,218.141 632.502,218.141 632.502,39.313 90.857,39.313 "/>
      <polygon fill="#ffffff" fill-opacity="1.00" stroke="none" stroke-width="0.5pt" stroke-opacity="1.00" stroke-dasharray="none" points="90.857,39.313 632.502,39.313 632.502,39.313 90.857,39.313 "/>
      <polygon fill="#ffffff" fill-opacity="1.00" stroke="none" stroke-width="0.5pt" stroke-opacity="1.00" stroke-dasharray="none" points="90.857,218.141 90.857,218.141 90.857,39.313 90.857,39.313 "/>
    <g>
<g id="ID000002" clip-path="url(#ID000001)" >
      <polyline fill="none" stroke="#0000ff" stroke-width="0.5pt" stroke-dasharray="none" points="90.857,218.141 91.128,218.141 91.398,218.141 91.669,218.141 91.940,218.141 92.211,218.141 92.482,218.141 92.752,218.141 93.023,218.141 93.294,218.141 93.565,218.141 93.836,218.141 94.107,218.141 94.377,218.141 94.648,218.141 94.919,218.141 95.190,218.141 95.461,218.141 95.732,218.141 96.002,218.141 96.273,218.141 96.544,218.141 96.815,218.141 97.086,218.141 97.356,218.141 97.627,218.141 97.898,218.141 98.169,218.141 98.440,218.141 98.711,218.141 98.981,218.141 99.252,218.141 99.523,218.141 99.794,218.141 100.065,218.141 100.335,218.141 100.606,218.141 100.877,218.141 101.148,218.141 101.419,218.141 101.690,218.141 101.960,218.141 102.231,218.141 102.502,218.141 102.773,218.141 103.044,218.141 103.315,218.141 103.585,218.141 103.856,218.141 104.127,218.141 104.398,218.141 104.669,218.141 104.939,218.141 105.210,218.141 105.481,218.141 105.752,218.141 106.023,218.141 106.294,218.141 106.564,218.141 106.835,218.141 107.106,218.141 107.377,218.141 107.648,218.141 107.919,218.141 108.189,218.141 108.460,218.141 108.731,218.141 109.002,218.141 109.273,218.141 109.543,218.141 109.814,218.141 110.085,218.141 110.356,218.141 110.627,218.141 110.898,218.141 111.168,218.141 111.439,218.141 111.710,218.141 111.981,218.141 112.252,218.141 112.523,218.141 112.793,218.141 113.064,218.141 113.335,218.141 113.606,218.141 113.877,218.141 114.147,218.141 114.418,218.141 114.689,218.141 114.960,218.141 115.231,218.141 115.502,218.141 115.772,218.141 116.043,218.141 116.314,218.141 116.585,218.141 116.856,218.141 117.127,218.141 117.397,218.141 117.668,218.141 117.939,218.141 118.210,218.141 118.481,218.141 118.751,218.141 119.022,218.141 119.293,218.141 119.564,218.141 119.835,218.141 120.106,218.141 120.376,218.141 120.647,218.141 120.918,218.141 121.189,218.141 121.460,218.141 121.730,218.141 122.001,218.141 122.272,218.141 122.543,218.141 122.814,218.141 123.085,218.141 123.355,218.141 123.626,218.141 123.897,218.141 124.168,218.141 124.439,218.141 124.710,218.141 124.980,218.141 125.251,218.141 125.522,218.141 125.793,218.141 126.064,218.141 126.334,218.141 126.605,218.141 126.876,218.141 127.147,218.141 127.418,218.141 127.689,218.141 127.959,218.141 128.230,218.141 128.501,218.141 128.772,218.141 129.043,218.141 129.314,218.141 129.584,218.141 129.855,218.141 130.126,218.141 130.397,218.141 130.668,218.141 130.938,218.141 131.209,218.141 131.480,218.141 131.751,218.141 132.022,218.141 132.293,218.141 132.563,218.141 132.834,218.141 133.105,218.141 133.376,218.141 133.647,218.141 133.918,218.141 134.188,218.141 134.459,218.141 134.730,218.141 135.001,218.141 135.272,218.141 135.542,218.141 135.813,218.141 136.084,218.141 136.355,218.141 136.626,218.141 136.897,218.141 137.167,218.141 137.438,218.141 137.709,218.141 137.980,218.141 138.251,218.141 138.522,218.141 138.792,218.141 139.063,218.141 139.334,218.141 139.605,218.141 139.876,218.141 140.146,218.141 140.417,218.141 140.688,218.141 140.959,218.141 141.230,218.141 141.501,218.141 141.771,218.141 142.042,218.141 142.313,218.141 142.584,218.141 142.855,218.141 143.126,218.141 143.396,218.141 143.667,218.141 143.938,218.141 144.209,218.141 144.480,218.141 144.750,218.141 145.021,218.141 145.292,218.141 145.563,218.141 145.834,218.141 146.105,218.141 146.375,218.141 146.646,218.141 146.917,218.141 147.188,218.141 147.459,218.141 147.729,218.141 148.000,218.141 148.271,218.141 148.542,218.141 148.813,218.141 149.084,218.141 149.354,218.141 149.625,218.141 149.896,218.141 150.167,218.141 150.438,218.141 150.709,218.141 150.979,218.141 151.250,218.141 151.521,218.141 151.792,218.141 152.063,218.141 152.333,218.141 152.604,218.141 152.875,218.141 153.146,218.141 153.417,218.141 153.688,218.141 153.958,218.141 154.229,218.141 154.500,218.141 154.771,218.141 155.042,218.141 155.313,218.141 155.583,218.141 155.854,218.141 156.125,218.141 156.396,218.141 156.667,218.141 156.937,218.141 157.208,218.141 157.479,218.141 157.750,218.141 158.021,218.141 158.292,218.141 158.562,218.141 158.833,218.141 159.104,218.141 159.375,218.141 159.646,218.141 159.917,218.141 160.187,218.141 160.458,218.141 160.729,218.141 161.000,218.141 161.271,218.141 161.541,218.141 161.812,218.141 162.083,218.141 162.354,218.141 162.625,218.141 162.896,218.141 163.166,218.141 163.437,218.141 163.708,218.141 163.979,218.141 164.250,218.141 164.521,218.141 164.791,218.141 165.062,218.141 165.333,218.141 165.604,218.141 165.875,218.141 166.145,218.141 166.416,218.141 166.687,218.141 166.958,218.141 167.229,218.141 167.500,218.141 167.770,218.141 168.041,218.141 168.312,218.141 168.583,218.141 168.854,218.141 169.124,218.141 169.395,218.141 169.666,218.141 169.937,218.141 170.208,218.141 170.479,218.141 170.749,218.141 171.020,218.141 171.291,218.141 171.562,218.141 171.833,218.141 172.104,218.141 172.374,218.141 172.645,218.141 172.916,218.141 173.187,218.141 173.458,218.141 173.728,218.141 173.999,218.141 174.270,218.141 174.541,218.141 174.812,218.141 175.083,218.141 175.353,218.141 175.624,218.141 175.895,218.141 176.166,218.141 176.437,218.141 176.708,218.141 176.978,218.141 177.249,218.141 177.520,218.141 177.791,218.141 178.062,218.141 178.332,218.141 178.603,218.141 178.874,218.141 179.145,218.141 179.416,218.141 179.687,218.141 179.957,218.141 180.228,218.141 180.499,218.141 180.770,218.141 181.041,218.141 181.312,218.141 181.582,218.141 181.853,218.141 182.124,218.141 182.395,218.141 182.666,218.141 182.936,218.141 183.207,218.141 183.478,218.141 183.749,218.141 184.020,218.141 184.291,218.141 184.561,218.141 184.832,218.141 185.103,218.141 185.374,218.141 185.645,218.141 185.916,218.141 186.186,218.141 186.457,218.141 186.728,218.141 186.999,218.141 187.270,218.141 187.540,218.141 187.811,218.141 188.082,218.141 188.353,218.141 188.624,218.141 188.895,218.141 189.165,218.141 189.436,218.141 189.707,218.141 189.978,218.141 190.249,218.141 190.519,218.141 190.790,218.141 191.061,218.141 191.332,218.141 191.603,218.141 191.874,218.141 192.144,218.141 192.415,218.141 192.686,218.141 192.957,218.141 193.228,218.141 193.499,218.141 193.769,218.141 194.040,218.141 194.311,218.141 194.582,218.141 194.853,218.141 195.123,218.141 195.394,218.141 195.665,218.141 195.936,218.141 196.207,218.141 196.478,218.141 196.748,218.141 197.019,218.141 197.290,218.141 197.561,218.141 197.832,218.141 198.103,218.141 198.373,218.141 198.644,218.141 198.915,218.141 199.186,218.141 199.457,218.141 199.727,218.141 199.998,218.141 200.269,218.141 200.540,218.141 200.811,218.141 201.082,218.141 201.352,218.141 201.623,218.141 201.894,218.141 202.165,218.141 202.436,218.141 202.707,218.141 202.977,218.141 203.248,218.141 203.519,218.141 203.790,218.141 204.061,218.141 204.331,218.141 204.602,218.141 204.873,218.141 205.144,218.141 205.415,218.141 205.686,218.141 205.956,218.141 206.227,218.141 206.498,218.141 206.769,218.141 207.040,218.141 207.311,218.141 207.581,218.141 207.852,218.141 208.123,218.141 208.394,218.141 208.665,218.141 208.935,218.141 209.206,218.141 209.477,218.141 209.748,218.141 210.019,218.141 210.290,218.141 210.560,218.141 210.831,218.141 211.102,218.141 211.373,218.141 211.644,218.141 211.915,218.141 212.185,218.141 212.456,218.141 212.727,218.141 212.998,218.141 213.269,218.141 213.539,218.141 213.810,218.141 214.081,218.141 214.352,218.141 214.623,218.141 214.894,218.141 215.164,218.141 215.435,218.141 215.706,218.141 215.977,218.141 216.248,218.141 216.518,218.141 216.789,218.141 217.060,218.141 217.331,218.141 217.602,218.141 217.873,218.141 218.143,218.141 218.414,218.141 218.685,218.141 218.956,218.141 219.227,218.141 219.498,218.141 219.768,218.141 220.039,218.141 220.310,218.141 220.581,218.141 220.852,218.141 221.122,218.141 221.393,218.141 221.664,218.141 221.935,218.141 222.206,218.141 222.477,218.141 222.747,218.141 223.018,218.141 223.289,218.141 223.560,218.141 223.831,218.141 224.102,218.141 224.372,218.141 224.643,218.141 224.914,218.141 225.185,218.141 225.456,218.141 225.726,218.141 225.997,218.141 226.268,218.141 226.539,218.141 226.810,218.141 227.081,218.141 227.351,218.141 227.622,218.141 227.893,218.141 228.164,218.141 228.435,218.141 228.706,218.141 228.976,218.141 229.247,218.141 229.518,218.141 229.789,218.141 230.060,218.141 230.330,218.141 230.601,218.141 230.872,218.141 231.143,218.141 231.414,218.141 231.685,218.141 231.955,218.141 232.226,218.141 232.497,218.141 232.768,218.141 233.039,218.141 233.310,218.141 233.580,218.141 233.851,218.141 234.122,218.141 234.393,218.141 234.664,218.141 234.934,218.141 235.205,218.141 235.476,218.141 235.747,218.141 236.018,218.141 236.289,218.141 236.559,218.141 236.830,218.141 237.101,218.141 237.372,218.141 237.643,218.141 237.913,218.141 238.184,218.141 238.455,218.141 238.726,218.141 238.997,218.141 239.268,218.141 239.538,218.141 239.809,218.141 240.080,218.141 240.351,218.141 240.622,218.141 240.893,218.141 241.163,218.141 241.434,218.141 241.705,218.141 241.976,218.141 242.247,218.141 242.517,218.141 242.788,218.141 243.059,218.141 243.330,218.141 243.601,218.141 243.872,218.141 244.142,218.141 244.413,218.141 244.684,218.141 244.955,218.141 245.226,218.141 245.497,218.141 245.767,218.141 246.038,218.141 246.309,218.141 246.580,218.141 246.851,218.141 247.121,218.141 247.392,218.141 247.663,218.141 247.934,218.141 248.205,218.141 248.476,218.141 248.746,218.141 249.017,218.141 249.288,218.141 249.559,218.141 249.830,218.141 250.101,218.141 250.371,218.141 250.642,218.141 250.913,218.141 251.184,218.141 251.455,218.141 251.725,218.141 251.996,218.141 252.267,218.141 252.538,218.141 252.809,218.141 253.080,218.141 253.350,218.141 253.621,218.141 253.892,218.141 254.163,218.141 254.434,218.141 254.705,218.141 254.975,218.141 255.246,218.141 255.517,218.141 255.788,218.141 256.059,218.141 256.329,218.141 256.600,218.141 256.871,218.141 257.142,218.141 257.413,218.141 257.684,218.141 257.954,218.141 258.225,218.141 258.496,218.141 258.767,218.141 259.038,218.141 259.308,218.141 259.579,218.141 259.850,218.141 260.121,218.141 260.392,218.141 260.663,218.141 260.933,218.141 261.204,218.141 261.475,218.141 261.746,218.141 262.017,218.141 262.288,218.141 262.558,218.141 262.829,218.141 263.100,218.141 263.371,218.141 263.642,218.141 263.912,218.141 264.183,218.141 264.454,218.141 264.725,218.141 264.996,218.141 265.267,218.141 265.537,218.141 265.808,218.141 266.079,218.141 266.350,218.141 266.621,218.141 266.892,218.141 267.162,218.141 267.433,218.141 267.704,218.141 267.975,218.141 268.246,218.141 268.516,218.141 268.787,218.141 269.058,218.141 269.329,218.141 269.600,218.141 269.871,218.141 270.141,218.141 270.412,218.141 270.683,218.141 270.954,218.141 271.225,218.141 271.496,218.141 271.766,218.141 272.037,218.141 272.308,218.141 272.579,218.141 272.850,218.141 273.120,218.141 273.391,218.141 273.662,218.141 273.933,218.141 274.204,218.141 274.475,218.141 274.745,218.141 275.016,218.141 275.287,218.141 275.558,218.141 275.829,218.141 276.100,218.141 276.370,218.141 276.641,218.141 276.912,218.141 277.183,218.141 277.454,218.141 277.724,218.141 277.995,218.141 278.266,218.141 278.537,218.141 278.808,218.141 279.079,218.141 279.349,218.141 279.620,218.141 279.891,218.141 280.162,218.141 280.433,218.141 280.704,218.141 280.974,218.141 281.245,218.141 281.516,218.141 281.787,218.141 282.058,218.141 282.328,218.141 282.599,218.141 282.870,218.141 283.141,218.141 283.412,218.141 283.683,218.141 283.953,218.141 284.224,218.141 284.495,218.141 284.766,218.141 285.037,218.141 285.307,218.141 285.578,218.141 285.849,218.141 286.120,218.141 286.391,218.141 286.662,218.141 286.932,218.141 287.203,218.141 287.474,218.141 287.745,218.141 288.016,218.141 288.287,218.141 288.557,218.141 288.828,218.141 289.099,218.141 289.370,218.141 289.641,218.141 289.911,218.141 290.182,218.141 290.453,218.141 290.724,218.141 290.995,218.141 291.266,218.141 291.536,218.141 291.807,218.141 292.078,218.141 292.349,218.141 292.620,218.141 292.891,218.141 293.161,218.141 293.432,218.141 293.703,218.141 293.974,218.141 294.245,218.141 294.515,218.141 294.786,218.141 295.057,218.141 295.328,218.141 295.599,218.141 295.870,218.141 296.140,218.141 296.411,218.141 296.682,218.141 296.953,218.141 297.224,218.141 297.495,218.141 297.765,218.141 298.036,218.141 298.307,218.141 298.578,218.141 298.849,218.141 299.119,218.141 299.390,218.141 299.661,218.141 299.932,218.141 300.203,218.141 300.474,218.141 300.744,218.141 301.015,218.141 301.286,218.141 301.557,218.141 301.828,218.141 302.099,218.141 302.369,218.141 302.640,218.141 302.911,218.141 303.182,218.141 303.453,218.141 303.723,218.141 303.994,218.141 304.265,218.141 304.536,218.141 304.807,218.141 305.078,218.141 305.348,218.141 305.619,218.141 305.890,218.141 306.161,218.141 306.432,218.141 306.702,218.141 306.973,218.141 307.244,218.141 307.515,218.141 307.786,218.141 308.057,218.141 308.327,218.141 308.598,218.141 308.869,218.141 309.140,218.141 309.411,218.141 309.682,218.141 309.952,218.141 310.223,218.141 310.494,218.141 310.765,218.141 311.036,218.141 311.306,218.141 311.577,218.141 311.848,218.141 312.119,218.141 312.390,218.141 312.661,218.141 312.931,218.141 313.202,218.141 313.473,218.141 313.744,218.141 314.015,218.141 314.286,218.141 314.556,218.141 314.827,218.141 315.098,218.141 315.369,218.141 315.640,218.141 315.910,218.141 316.181,218.141 316.452,218.141 316.723,218.141 316.994,218.141 317.265,218.141 317.535,218.141 317.806,218.141 318.077,218.141 318.348,218.141 318.619,218.141 318.890,218.141 319.160,218.141 319.431,218.141 319.702,218.141 319.973,218.141 320.244,218.141 320.514,218.141 320.785,218.141 321.056,218.141 321.327,218.141 321.598,218.141 321.869,218.141 322.139,218.141 322.410,218.141 322.681,218.141 322.952,218.141 323.223,218.141 323.494,218.141 323.764,218.141 324.035,218.141 324.306,218.141 324.577,218.141 324.848,218.141 325.118,218.141 325.389,218.141 325.660,218.141 325.931,218.141 326.202,218.141 326.473,218.141 326.743,218.141 327.014,218.141 327.285,218.141 327.556,218.141 327.827,218.141 328.097,218.141 328.368,218.141 328.639,218.141 328.910,218.141 329.181,218.141 329.452,218.141 329.722,218.141 329.993,218.141 330.264,218.141 330.535,218.141 330.806,218.141 331.077,218.141 331.347,218.141 331.618,218.141 331.889,218.141 332.160,218.141 332.431,218.141 332.701,218.141 332.972,218.141 333.243,218.141 333.514,218.141 333.785,218.141 334.056,218.141 334.326,218.141 334.597,218.141 334.868,218.141 335.139,218.141 335.410,218.141 335.681,218.141 335.951,218.141 336.222,218.141 336.493,218.141 336.764,218.141 337.035,218.141 337.305,218.141 337.576,218.141 337.847,218.141 338.118,218.141 338.389,218.141 338.660,218.141 338.930,218.141 339.201,218.141 339.472,218.141 339.743,218.141 340.014,218.141 340.285,218.141 340.555,218.141 340.826,218.141 341.097,218.141 341.368,218.141 341.639,218.141 341.909,218.141 342.180,218.141 342.451,218.141 342.722,218.141 342.993,218.141 343.264,218.141 343.534,218.141 343.805,218.141 344.076,218.141 344.347,218.141 344.618,218.141 344.889,218.141 345.159,218.141 345.430,218.141 345.701,218.141 345.972,218.141 346.243,218.141 346.513,218.141 346.784,218.141 347.055,218.141 347.326,218.141 347.597,218.141 347.868,218.141 348.138,218.141 348.409,218.141 348.680,218.141 348.951,218.141 349.222,218.141 349.493,218.141 349.763,218.141 350.034,218.141 350.305,218.141 350.576,218.141 350.847,218.141 351.117,218.141 351.388,218.141 351.659,218.141 351.930,218.141 352.201,218.141 352.472,218.141 352.742,218.141 353.013,218.141 353.284,218.141 353.555,218.141 353.826,218.141 354.096,218.141 354.367,218.141 354.638,218.141 354.909,218.141 355.180,218.141 355.451,218.141 355.721,218.141 355.992,218.141 356.263,218.141 356.534,218.141 356.805,218.141 357.076,218.141 357.346,218.141 357.617,218.141 357.888,218.141 358.159,218.141 358.430,218.141 358.700,218.141 358.971,218.141 359.242,218.141 359.513,218.141 359.784,218.141 360.055,218.141 360.325,218.141 360.596,218.141 360.867,218.141 361.138,218.141 361.409,218.141 361.680,218.141 361.950,218.141 362.221,218.141 362.492,218.141 362.763,218.141 363.034,218.141 363.304,218.141 363.575,218.141 363.846,218.141 364.117,218.141 364.388,218.141 364.659,218.141 364.929,218.141 365.200,218.141 365.471,218.141 365.742,218.141 366.013,218.141 366.284,218.141 366.554,218.141 366.825,218.141 367.096,218.141 367.367,218.141 367.638,218.141 367.908,218.141 368.179,218.141 368.450,218.141 368.721,218.141 368.992,218.141 369.263,218.141 369.533,218.141 369.804,218.141 370.075,218.141 370.346,218.141 370.617,218.141 370.888,218.141 371.158,218.141 371.429,218.141 371.700,218.141 371.971,218.141 372.242,218.141 372.512,218.141 372.783,218.141 373.054,218.141 373.325,218.141 373.596,218.141 373.867,218.141 374.137,218.141 374.408,218.141 374.679,218.141 374.950,218.141 375.221,218.141 375.491,218.141 375.762,218.141 376.033,218.141 376.304,218.141 376.575,218.141 376.846,218.141 377.116,218.141 377.387,218.141 377.658,218.141 377.929,218.141 378.200,218.141 378.471,218.141 378.741,218.141 379.012,218.141 379.283,218.141 379.554,218.141 379.825,218.141 380.095,218.141 380.366,218.141 380.637,218.141 380.908,218.141 381.179,218.141 381.450,218.141 381.720,218.141 381.991,218.141 382.262,218.141 382.533,218.141 382.804,218.141 383.075,218.141 383.345,218.141 383.616,218.141 383.887,218.141 384.158,218.141 384.429,218.141 384.699,218.141 384.970,218.141 385.241,218.141 385.512,218.141 385.783,218.141 386.054,218.141 386.324,218.141 386.595,218.141 386.866,218.141 387.137,218.141 387.408,218.141 387.679,218.141 387.949,218.141 388.220,218.141 388.491,218.141 388.762,218.141 389.033,218.141 389.303,218.141 389.574,218.141 389.845,218.141 390.116,218.141 390.387,218.141 390.658,218.141 390.928,218.141 391.199,218.141 391.470,218.141 391.741,218.141 392.012,218.141 392.283,218.141 392.553,218.141 392.824,218.141 393.095,218.141 393.366,218.141 393.637,218.141 393.907,218.141 394.178,218.141 394.449,218.141 394.720,218.141 394.991,218.141 395.262,218.141 395.532,218.141 395.803,218.141 396.074,218.141 396.345,218.141 396.616,218.141 396.886,218.141 397.157,218.141 397.428,218.141 397.699,218.141 397.970,218.141 398.241,218.141 398.511,218.141 398.782,218.141 399.053,218.141 399.324,218.141 399.595,218.141 399.866,218.141 400.136,218.141 400.407,218.141 400.678,218.141 400.949,218.141 401.220,218.141 401.490,218.141 401.761,218.141 402.032,218.141 402.303,218.141 402.574,218.141 402.845,218.141 403.115,218.141 403.386,218.141 403.657,218.141 403.928,218.141 404.199,218.141 404.470,218.141 404.740,218.141 405.011,218.141 405.282,218.141 405.553,218.141 405.824,218.141 406.094,218.141 406.365,218.141 406.636,218.141 406.907,218.141 407.178,218.141 407.449,218.141 407.719,218.141 407.990,218.141 408.261,218.141 408.532,218.141 408.803,218.141 409.074,218.141 409.344,218.141 409.615,218.141 409.886,218.141 410.157,218.141 410.428,218.141 410.698,218.141 410.969,218.141 411.240,218.141 411.511,218.141 411.782,218.141 412.053,218.141 412.323,218.141 412.594,218.141 412.865,218.141 413.136,218.141 413.407,218.141 413.678,218.141 413.948,218.141 414.219,218.141 414.490,218.141 414.761,218.141 415.032,218.141 415.302,218.141 415.573,218.141 415.844,218.141 416.115,218.141 416.386,218.141 416.657,218.141 416.927,218.141 417.198,218.141 417.469,218.141 417.740,218.141 418.011,218.141 418.282,218.141 418.552,218.141 418.823,218.141 419.094,218.141 419.365,218.141 419.636,218.141 419.906,218.141 420.177,218.141 420.448,218.141 420.719,218.141 420.990,218.141 421.261,218.141 421.531,218.141 421.802,218.141 422.073,218.141 422.344,218.141 422.615,218.141 422.885,218.141 423.156,218.141 423.427,218.141 423.698,218.141 423.969,218.141 424.240,218.141 424.510,218.141 424.781,218.141 425.052,218.141 425.323,218.141 425.594,218.141 425.865,218.141 426.135,218.141 426.406,218.141 426.677,218.141 426.948,218.141 427.219,218.141 427.489,218.141 427.760,218.141 428.031,218.141 428.302,218.141 428.573,218.141 428.844,218.141 429.114,218.141 429.385,218.141 429.656,218.141 429.927,218.141 430.198,218.141 430.469,218.141 430.739,218.141 431.010,218.141 431.281,218.141 431.552,218.141 431.823,218.141 432.093,218.141 432.364,218.141 432.635,218.141 432.906,218.141 433.177,218.141 433.448,218.141 433.718,218.141 433.989,218.141 434.260,218.141 434.531,218.141 434.802,218.141 435.073,218.141 435.343,218.141 435.614,218.141 435.885,218.141 436.156,218.141 436.427,218.141 436.697,218.141 436.968,218.141 437.239,218.141 437.510,218.141 437.781,218.141 438.052,218.141 438.322,218.141 438.593,218.141 438.864,218.141 439.135,218.141 439.406,218.141 439.677,218.141 439.947,218.141 440.218,218.141 440.489,218.141 440.760,218.141 441.031,218.141 441.301,218.141 441.572,218.141 441.843,218.141 442.114,218.141 442.385,218.141 442.656,218.141 442.926,218.141 443.197,218.141 443.468,218.141 443.739,218.141 444.010,218.141 444.280,218.141 444.551,218.141 444.822,218.141 445.093,218.141 445.364,218.141 445.635,218.141 445.905,218.141 446.176,218.141 446.447,218.141 446.718,218.141 446.989,218.141 447.260,218.141 447.530,218.141 447.801,218.141 448.072,218.141 448.343,218.141 448.614,218.141 448.884,218.141 449.155,218.141 449.426,218.141 449.697,218.141 449.968,218.141 450.239,218.141 450.509,218.141 450.780,218.141 451.051,218.141 451.322,218.141 451.593,218.141 451.864,218.141 452.134,218.141 452.405,218.141 452.676,218.141 452.947,218.141 453.218,218.141 453.488,218.141 453.759,218.141 454.030,218.141 454.301,218.141 454.572,218.141 454.843,218.141 455.113,218.141 455.384,218.141 455.655,218.141 455.926,218.141 456.197,218.141 456.468,218.141 456.738,218.141 457.009,102.811 457.280,218.141 457.551,218.141 457.822,218.141 458.092,218.141 458.363,218.141 458.634,218.141 458.905,218.141 459.176,218.141 459.447,218.141 459.717,218.141 459.988,218.141 460.259,218.141 460.530,218.141 460.801,218.141 461.072,218.141 461.342,218.141 461.613,218.141 461.884,218.141 462.155,218.141 462.426,218.141 462.696,218.141 462.967,218.141 463.238,218.141 463.509,218.141 463.780,218.141 464.051,218.141 464.321,218.141 464.592,218.141 464.863,218.141 465.134,218.141 465.405,218.141 465.675,218.141 465.946,218.141 466.217,218.141 466.488,218.141 466.759,218.141 467.030,218.141 467.300,218.141 467.571,218.141 467.842,218.141 468.113,218.141 468.384,218.141 468.655,218.141 468.925,218.141 469.196,218.141 469.467,218.141 469.738,218.141 470.009,218.141 470.279,218.141 470.550,218.141 470.821,218.141 471.092,218.141 471.363,218.141 471.634,218.141 471.904,218.141 472.175,218.141 472.446,218.141 472.717,218.141 472.988,218.141 473.259,218.141 473.529,218.141 473.800,218.141 474.071,218.141 474.342,218.141 474.613,218.141 474.883,218.141 475.154,218.141 475.425,218.141 475.696,218.141 475.967,218.141 476.238,218.141 476.508,218.141 476.779,218.141 477.050,218.141 477.321,218.141 477.592,218.141 477.863,218.141 478.133,218.141 478.404,218.141 478.675,218.141 478.946,218.141 479.217,218.141 479.487,218.141 479.758,218.141 480.029,218.141 480.300,218.141 480.571,218.141 480.842,218.141 481.112,218.141 481.383,218.141 481.654,218.141 481.925,218.141 482.196,218.141 482.467,218.141 482.737,218.141 483.008,218.141 483.279,218.141 483.550,218.141 483.821,218.141 484.091,218.141 484.362,218.141 484.633,218.141 484.904,218.141 485.175,218.141 485.446,218.141 485.716,218.141 485.987,218.141 486.258,218.141 486.529,218.141 486.800,218.141 487.071,218.141 487.341,218.141 487.612,218.141 487.883,218.141 488.154,218.141 488.425,218.141 488.695,218.141 488.966,218.141 489.237,218.141 489.508,218.141 489.779,218.141 490.050,218.141 490.320,218.141 490.591,218.141 490.862,218.141 491.133,218.141 491.404,218.141 491.674,218.141 491.945,218.141 492.216,218.141 492.487,218.141 492.758,218.141 493.029,218.141 493.299,218.141 493.570,218.141 493.841,218.141 494.112,218.141 494.383,218.141 494.654,218.141 494.924,218.141 495.195,218.141 495.466,218.141 495.737,218.141 496.008,218.141 496.278,218.141 496.549,218.141 496.820,218.141 497.091,218.141 497.362,218.141 497.633,218.141 497.903,218.141 498.174,218.141 498.445,218.141 498.716,218.141 498.987,218.141 499.258,218.141 499.528,218.141 499.799,218.141 500.070,218.141 500.341,218.141 500.612,218.141 500.882,218.141 501.153,218.141 501.424,218.141 501.695,218.141 501.966,218.141 502.237,218.141 502.507,218.141 502.778,218.141 503.049,218.141 503.320,218.141 503.591,218.141 503.862,218.141 504.132,218.141 504.403,218.141 504.674,218.141 504.945,218.141 505.216,218.141 505.486,218.141 505.757,218.141 506.028,218.141 506.299,218.141 506.570,218.141 506.841,218.141 507.111,218.141 507.382,218.141 507.653,218.141 507.924,218.141 508.195,218.141 508.466,218.141 508.736,218.141 509.007,218.141 509.278,218.141 509.549,218.141 509.820,218.141 510.090,218.141 510.361,218.141 510.632,218.141 510.903,218.141 511.174,218.141 511.445,218.141 511.715,218.141 511.986,218.141 512.257,218.141 512.528,218.141 512.799,218.141 513.069,218.141 513.340,218.141 513.611,218.141 513.882,218.141 514.153,218.141 514.424,218.141 514.694,218.141 514.965,218.141 515.236,218.141 515.507,218.141 515.778,218.141 516.049,218.141 516.319,218.141 516.590,218.141 516.861,218.141 517.132,218.141 517.403,218.141 517.673,218.141 517.944,218.141 518.215,218.141 518.486,218.141 518.757,218.141 519.028,218.141 519.298,218.141 519.569,218.141 519.840,218.141 520.111,218.141 520.382,218.141 520.653,218.141 520.923,218.141 521.194,218.141 521.465,218.141 521.736,218.141 522.007,218.141 522.277,218.141 522.548,218.141 522.819,218.141 523.090,218.141 523.361,218.141 523.632,218.141 523.902,218.141 524.173,218.141 524.444,218.141 524.715,218.141 524.986,218.141 525.257,218.141 525.527,218.141 525.798,218.141 526.069,218.141 526.340,218.141 526.611,218.141 526.881,218.141 527.152,218.141 527.423,218.141 527.694,218.141 527.965,218.141 528.236,218.141 528.506,218.141 528.777,218.141 529.048,218.141 529.319,218.141 529.590,218.141 529.861,218.141 530.131,218.141 530.402,218.141 530.673,218.141 530.944,218.141 531.215,218.141 531.485,218.141 531.756,218.141 532.027,218.141 532.298,218.141 532.569,218.141 532.840,218.141 533.110,218.141 533.381,218.141 533.652,218.141 533.923,218.141 534.194,218.141 534.464,218.141 534.735,218.141 535.006,218.141 535.277,218.141 535.548,218.141 535.819,218.141 536.089,218.141 536.360,218.141 536.631,218.141 536.902,218.141 537.173,218.141 537.444,218.141 537.714,218.141 537.985,218.141 538.256,218.141 538.527,218.141 538.798,218.141 539.068,218.141 539.339,218.141 539.610,218.141 539.881,218.141 540.152,218.141 540.423,218.141 540.693,218.141 540.964,218.141 541.235,218.141 541.506,218.141 541.777,218.141 542.048,218.141 542.318,218.141 542.589,218.141 542.860,218.141 543.131,218.141 543.402,218.141 543.672,218.141 543.943,218.141 544.214,218.141 544.485,218.141 544.756,218.141 545.027,218.141 545.297,218.141 545.568,218.141 545.839,218.141 546.110,218.141 546.381,218.141 546.652,218.141 546.922,218.141 547.193,218.141 547.464,218.141 547.735,218.141 548.006,218.141 548.276,218.141 548.547,218.141 548.818,218.141 549.089,218.141 549.360,218.141 549.631,218.141 549.901,218.141 550.172,218.141 550.443,218.141 550.714,218.141 550.985,218.141 551.256,218.141 551.526,218.141 551.797,218.141 552.068,218.141 552.339,218.141 552.610,218.141 552.880,218.141 553.151,218.141 553.422,218.141 553.693,218.141 553.964,218.141 554.235,218.141 554.505,218.141 554.776,218.141 555.047,218.141 555.318,218.141 555.589,218.141 555.859,218.141 556.130,218.141 556.401,218.141 556.672,218.141 556.943,218.141 557.214,218.141 557.484,218.141 557.755,218.141 558.026,218.141 558.297,218.141 558.568,218.141 558.839,218.141 559.109,218.141 559.380,218.141 559.651,218.141 559.922,218.141 560.193,218.141 560.463,218.141 560.734,218.141 561.005,218.141 561.276,218.141 561.547,218.141 561.818,218.141 562.088,218.141 562.359,218.141 562.630,218.141 562.901,218.141 563.172,218.141 563.443,218.141 563.713,218.141 563.984,218.141 564.255,218.141 564.526,218.141 564.797,218.141 565.067,218.141 565.338,218.141 565.609,218.141 565.880,218.141 566.151,218.141 566.422,218.141 566.692,218.141 566.963,218.141 567.234,218.141 567.505,218.141 567.776,218.141 568.047,218.141 568.317,218.141 568.588,218.141 568.859,218.141 569.130,218.141 569.401,218.141 569.671,218.141 569.942,218.141 570.213,218.141 570.484,218.141 570.755,218.141 571.026,218.141 571.296,218.141 571.567,218.141 571.838,218.141 572.109,218.141 572.380,218.141 572.651,218.141 572.921,218.141 573.192,218.141 573.463,218.141 573.734,218.141 574.005,218.141 574.275,218.141 574.546,218.141 574.817,218.141 575.088,218.141 575.359,218.141 575.630,218.141 575.900,218.141 576.171,218.141 576.442,218.141 576.713,218.141 576.984,218.141 577.255,218.141 577.525,218.141 577.796,218.141 578.067,218.141 578.338,218.141 578.609,218.141 578.879,218.141 579.150,218.141 579.421,218.141 579.692,218.141 579.963,218.141 580.234,218.141 580.504,218.141 580.775,218.141 581.046,218.141 581.317,218.141 581.588,218.141 581.858,218.141 582.129,218.141 582.400,218.141 582.671,218.141 582.942,218.141 583.213,218.141 583.483,218.141 583.754,218.141 584.025,218.141 584.296,218.141 584.567,218.141 584.838,218.141 585.108,218.141 585.379,218.141 585.650,218.141 585.921,218.141 586.192,218.141 586.462,218.141 586.733,218.141 587.004,218.141 587.275,218.141 587.546,218.141 587.817,218.141 588.087,218.141 588.358,218.141 588.629,218.141 588.900,218.141 589.171,218.141 589.442,218.141 589.712,218.141 589.983,218.141 590.254,218.141 590.525,218.141 590.796,218.141 591.066,218.141 591.337,218.141 591.608,218.141 591.879,218.141 592.150,218.141 592.421,218.141 592.691,218.141 592.962,218.141 593.233,218.141 593.504,218.141 593.775,218.141 594.046,218.141 594.316,218.141 594.587,218.141 594.858,218.141 595.129,218.141 595.400,218.141 595.670,218.141 595.941,218.141 596.212,218.141 596.483,218.141 596.754,218.141 597.025,218.141 597.295,218.141 597.566,218.141 597.837,218.141 598.108,218.141 598.379,218.141 598.650,218.141 598.920,218.141 599.191,218.141 599.462,218.141 599.733,218.141 600.004,218.141 600.274,218.141 600.545,218.141 600.816,218.141 601.087,218.141 601.358,218.141 601.629,218.141 601.899,218.141 602.170,218.141 602.441,218.141 602.712,218.141 602.983,218.141 603.253,218.141 603.524,218.141 603.795,218.141 604.066,218.141 604.337,218.141 604.608,218.141 604.878,218.141 605.149,218.141 605.420,218.141 605.691,218.141 605.962,218.141 606.233,218.141 606.503,218.141 606.774,218.141 607.045,218.141 607.316,218.141 607.587,218.141 607.857,218.141 608.128,218.141 608.399,218.141 608.670,218.141 608.941,218.141 609.212,218.141 609.482,218.141 609.753,218.141 610.024,218.141 610.295,218.141 610.566,218.141 610.837,218.141 611.107,218.141 611.378,218.141 611.649,218.141 611.920,218.141 612.191,218.141 612.461,218.141 612.732,218.141 613.003,218.141 613.274,218.141 613.545,218.141 613.816,218.141 614.086,218.141 614.357,218.141 614.628,218.141 614.899,218.141 615.170,218.141 615.441,218.141 615.711,218.141 615.982,218.141 616.253,218.141 616.524,218.141 616.795,218.141 617.065,218.141 617.336,218.141 617.607,218.141 617.878,218.141 618.149,218.141 618.420,218.141 618.690,218.141 618.961,218.141 619.232,218.141 619.503,218.141 619.774,218.141 620.045,218.141 620.315,218.141 620.586,218.141 620.857,218.141 621.128,218.141 621.399,218.141 621.669,218.141 621.940,218.141 622.211,218.141 622.482,218.141 622.753,218.141 623.024,218.141 623.294,218.141 623.565,218.141 623.836,218.141 624.107,218.141 624.378,218.141 624.649,218.141 624.919,218.141 625.190,218.141 625.461,218.141 625.732,218.141 626.003,218.141 626.273,218.141 626.544,218.141 626.815,218.141 627.086,218.141 627.357,218.141 627.628,218.141 627.898,218.141 628.169,218.141 628.440,218.141 628.711,218.141 628.982,218.141 629.252,218.141 629.523,218.141 629.794,218.141 630.065,218.141 630.336,218.141 630.607,218.141 630.877,218.141 631.148,218.141 631.419,218.141 631.690,218.141 631.961,218.141 632.232,218.141 632.502,218.141 "/>
<g>
</g>
</g>
<g id="ID000003" >
  <g transform="translate(361.056,30.565)">
    <g transform="rotate(-0.0)">
      <text x="0.000" y="0.000" font-family="Helvetica" text-anchor="middle" font-size="12pt" fill="#000000" >l = 0.36, x* = -0.50</text>
    </g>
  </g>
</g>
<g id="ID000004" >
</g>
<g id="ID000005" >
</g>
    </g>
    <g>
      <polyline fill="none" stroke="#000000" stroke-width="0.5pt" stroke-dasharray="none" points="145.021,218.141 145.021,212.725 "/>
      <polyline fill="none" stroke="#000000" stroke-width="0.5pt" stroke-dasharray="none" points="199.186,218.141 199.186,212.725 "/>
      <polyline fill="none" stroke="#000000" stroke-width="0.5pt" stroke-dasharray="none" points="253.350,218.141 253.350,212.725 "/>
      <polyline fill="none" stroke="#000000" stroke-width="0.5pt" stroke-dasharray="none" points="307.515,218.141 307.515,212.725 "/>
      <polyline fill="none" stroke="#000000" stroke-width="0.5pt" stroke-dasharray="none" points="361.680,218.141 361.680,212.725 "/>
      <polyline fill="none" stroke="#000000" stroke-width="0.5pt" stroke-dasharray="none" points="415.844,218.141 415.844,212.725 "/>
      <polyline fill="none" stroke="#000000" stroke-width="0.5pt" stroke-dasharray="none" points="470.009,218.141 470.009,212.725 "/>
      <polyline fill="none" stroke="#000000" stroke-width="0.5pt" stroke-dasharray="none" points="524.173,218.141 524.173,212.725 "/>
      <polyline fill="none" stroke="#000000" stroke-width="0.5pt" stroke-dasharray="none" points="578.338,218.141 578.338,212.725 "/>
      <polyline fill="none" stroke="#000000" stroke-width="0.5pt" stroke-dasharray="none" points="90.857,218.141 632.502,218.141 "/>
      <polyline fill="none" stroke="#000000" stroke-width="0.5pt" stroke-dasharray="none" points="145.021,39.313 145.021,44.729 "/>
      <polyline fill="none" stroke="#000000" stroke-width="0.5pt" stroke-dasharray="none" points="199.186,39.313 199.186,44.729 "/>
      <polyline fill="none" stroke="#000000" stroke-width="0.5pt" stroke-dasharray="none" points="253.350,39.313 253.350,44.729 "/>
      <polyline fill="none" stroke="#000000" stroke-width="0.5pt" stroke-dasharray="none" points="307.515,39.313 307.515,44.729 "/>
      <polyline fill="none" stroke="#000000" stroke-width="0.5pt" stroke-dasharray="none" points="361.680,39.313 361.680,44.729 "/>
      <polyline fill="none" stroke="#000000" stroke-width="0.5pt" stroke-dasharray="none" points="415.844,39.313 415.844,44.729 "/>
      <polyline fill="none" stroke="#000000" stroke-width="0.5pt" stroke-dasharray="none" points="470.009,39.313 470.009,44.729 "/>
      <polyline fill="none" stroke="#000000" stroke-width="0.5pt" stroke-dasharray="none" points="524.173,39.313 524.173,44.729 "/>
      <polyline fill="none" stroke="#000000" stroke-width="0.5pt" stroke-dasharray="none" points="578.338,39.313 578.338,44.729 "/>
      <polyline fill="none" stroke="#000000" stroke-width="0.5pt" stroke-dasharray="none" points="90.857,39.313 632.502,39.313 "/>
  <g transform="translate(90.857,236.445)">
    <g transform="rotate(-0.0)">
      <text x="0.000" y="0.000" font-family="Helvetica" text-anchor="middle" font-size="12pt" fill="#000000" >-1</text>
    </g>
  </g>
  <g transform="translate(145.021,236.445)">
    <g transform="rotate(-0.0)">
      <text x="0.000" y="0.000" font-family="Helvetica" text-anchor="middle" font-size="12pt" fill="#000000" >-0.8</text>
    </g>
  </g>
  <g transform="translate(199.186,236.445)">
    <g transform="rotate(-0.0)">
      <text x="0.000" y="0.000" font-family="Helvetica" text-anchor="middle" font-size="12pt" fill="#000000" >-0.6</text>
    </g>
  </g>
  <g transform="translate(253.350,236.445)">
    <g transform="rotate(-0.0)">
      <text x="0.000" y="0.000" font-family="Helvetica" text-anchor="middle" font-size="12pt" fill="#000000" >-0.4</text>
    </g>
  </g>
  <g transform="translate(307.515,236.445)">
    <g transform="rotate(-0.0)">
      <text x="0.000" y="0.000" font-family="Helvetica" text-anchor="middle" font-size="12pt" fill="#000000" >-0.2</text>
    </g>
  </g>
  <g transform="translate(361.680,236.445)">
    <g transform="rotate(-0.0)">
      <text x="0.000" y="0.000" font-family="Helvetica" text-anchor="middle" font-size="12pt" fill="#000000" >0</text>
    </g>
  </g>
  <g transform="translate(415.844,236.445)">
    <g transform="rotate(-0.0)">
      <text x="0.000" y="0.000" font-family="Helvetica" text-anchor="middle" font-size="12pt" fill="#000000" >0.2</text>
    </g>
  </g>
  <g transform="translate(470.009,236.445)">
    <g transform="rotate(-0.0)">
      <text x="0.000" y="0.000" font-family="Helvetica" text-anchor="middle" font-size="12pt" fill="#000000" >0.4</text>
    </g>
  </g>
  <g transform="translate(524.173,236.445)">
    <g transform="rotate(-0.0)">
      <text x="0.000" y="0.000" font-family="Helvetica" text-anchor="middle" font-size="12pt" fill="#000000" >0.6</text>
    </g>
  </g>
  <g transform="translate(578.338,236.445)">
    <g transform="rotate(-0.0)">
      <text x="0.000" y="0.000" font-family="Helvetica" text-anchor="middle" font-size="12pt" fill="#000000" >0.8</text>
    </g>
  </g>
  <g transform="translate(632.502,236.445)">
    <g transform="rotate(-0.0)">
      <text x="0.000" y="0.000" font-family="Helvetica" text-anchor="middle" font-size="12pt" fill="#000000" >1</text>
    </g>
  </g>
      <polyline fill="none" stroke="#000000" stroke-width="0.5pt" stroke-dasharray="none" points="90.857,173.434 96.273,173.434 "/>
      <polyline fill="none" stroke="#000000" stroke-width="0.5pt" stroke-dasharray="none" points="90.857,128.727 96.273,128.727 "/>
      <polyline fill="none" stroke="#000000" stroke-width="0.5pt" stroke-dasharray="none" points="90.857,84.020 96.273,84.020 "/>
      <polyline fill="none" stroke="#000000" stroke-width="0.5pt" stroke-dasharray="none" points="90.857,218.141 90.857,39.313 "/>
      <polyline fill="none" stroke="#000000" stroke-width="0.5pt" stroke-dasharray="none" points="632.502,173.434 627.086,173.434 "/>
      <polyline fill="none" stroke="#000000" stroke-width="0.5pt" stroke-dasharray="none" points="632.502,128.727 627.086,128.727 "/>
      <polyline fill="none" stroke="#000000" stroke-width="0.5pt" stroke-dasharray="none" points="632.502,84.020 627.086,84.020 "/>
      <polyline fill="none" stroke="#000000" stroke-width="0.5pt" stroke-dasharray="none" points="632.502,218.141 632.502,39.313 "/>
  <g transform="translate(80.024,223.758)">
    <g transform="rotate(-0.0)">
      <text x="0.000" y="0.000" font-family="Helvetica" text-anchor="end" font-size="12pt" fill="#000000" >0</text>
    </g>
  </g>
  <g transform="translate(80.024,179.050)">
    <g transform="rotate(-0.0)">
      <text x="0.000" y="0.000" font-family="Helvetica" text-anchor="end" font-size="12pt" fill="#000000" >2</text>
    </g>
  </g>
  <g transform="translate(80.024,134.343)">
    <g transform="rotate(-0.0)">
      <text x="0.000" y="0.000" font-family="Helvetica" text-anchor="end" font-size="12pt" fill="#000000" >4</text>
    </g>
  </g>
  <g transform="translate(80.024,89.636)">
    <g transform="rotate(-0.0)">
      <text x="0.000" y="0.000" font-family="Helvetica" text-anchor="end" font-size="12pt" fill="#000000" >6</text>
    </g>
  </g>
  <g transform="translate(80.024,44.929)">
    <g transform="rotate(-0.0)">
      <text x="0.000" y="0.000" font-family="Helvetica" text-anchor="end" font-size="12pt" fill="#000000" >8</text>
    </g>
  </g>
      <polyline fill="none" stroke="#000000" stroke-width="0.5pt" stroke-dasharray="none" points="90.857,218.141 90.857,216.353 "/>
      <polyline fill="none" stroke="#000000" stroke-width="0.5pt" stroke-dasharray="none" points="90.857,218.141 90.857,218.141 "/>
  <g transform="translate(90.857,31.193)">
    <g transform="rotate(-0.0)">
      <text x="0.000" y="0.000" font-family="Helvetica" text-anchor="start" font-size="12pt" fill="#000000" >&#215; 10<tspan font-size="7.0pt" dy="-7.0pt">-56</tspan></text>
    </g>
  </g>
    </g>
  </g>
  <g id ="ID000006">
  <clipPath id="ID000007">
    <rect x="90.857" y="287.686" width="541.646" height="178.828"/>
  </clipPath>
      <polygon fill="#ffffff" fill-opacity="1.00" stroke="none" stroke-width="0.5pt" stroke-opacity="1.00" stroke-dasharray="none" points="90.857,466.514 632.502,466.514 632.502,287.686 90.857,287.686 "/>
      <polygon fill="#ffffff" fill-opacity="1.00" stroke="none" stroke-width="0.5pt" stroke-opacity="1.00" stroke-dasharray="none" points="90.857,287.686 632.502,287.686 632.502,287.686 90.857,287.686 "/>
      <polygon fill="#ffffff" fill-opacity="1.00" stroke="none" stroke-width="0.5pt" stroke-opacity="1.00" stroke-dasharray="none" points="90.857,466.514 90.857,466.514 90.857,287.686 90.857,287.686 "/>
    <g>
<g id="ID000008" clip-path="url(#ID000007)" >
      <polyline fill="none" stroke="#0000ff" stroke-width="0.5pt" stroke-dasharray="none" points="90.857,466.514 91.128,466.514 91.398,466.514 91.669,466.514 91.940,466.514 92.211,466.514 92.482,466.514 92.752,466.514 93.023,466.514 93.294,466.514 93.565,466.514 93.836,466.514 94.107,466.514 94.377,466.514 94.648,466.514 94.919,466.514 95.190,466.514 95.461,466.514 95.732,466.514 96.002,466.514 96.273,466.514 96.544,466.514 96.815,466.514 97.086,466.514 97.356,466.514 97.627,466.514 97.898,466.514 98.169,466.514 98.440,466.514 98.711,466.514 98.981,466.514 99.252,466.514 99.523,466.514 99.794,466.514 100.065,466.514 100.335,466.514 100.606,466.514 100.877,466.514 101.148,466.514 101.419,466.514 101.690,466.514 101.960,466.514 102.231,466.514 102.502,466.514 102.773,466.514 103.044,466.514 103.315,466.514 103.585,466.514 103.856,466.514 104.127,466.514 104.398,466.514 104.669,466.514 104.939,466.514 105.210,466.514 105.481,466.514 105.752,466.514 106.023,466.514 106.294,466.514 106.564,466.514 106.835,466.514 107.106,466.514 107.377,466.514 107.648,466.514 107.919,466.514 108.189,466.514 108.460,466.514 108.731,466.514 109.002,466.514 109.273,466.514 109.543,466.514 109.814,466.514 110.085,466.514 110.356,466.514 110.627,466.514 110.898,466.514 111.168,466.514 111.439,466.514 111.710,466.514 111.981,466.514 112.252,466.514 112.523,466.514 112.793,466.514 113.064,466.514 113.335,466.514 113.606,466.514 113.877,466.514 114.147,466.514 114.418,466.514 114.689,466.514 114.960,466.514 115.231,466.514 115.502,466.514 115.772,466.514 116.043,466.514 116.314,466.514 116.585,466.514 116.856,466.514 117.127,466.514 117.397,466.514 117.668,466.514 117.939,466.514 118.210,466.514 118.481,466.514 118.751,466.514 119.022,466.514 119.293,466.514 119.564,466.514 119.835,466.514 120.106,466.514 120.376,466.514 120.647,466.514 120.918,466.514 121.189,466.514 121.460,466.514 121.730,466.514 122.001,466.514 122.272,466.514 122.543,466.514 122.814,466.514 123.085,466.514 123.355,466.514 123.626,466.514 123.897,466.514 124.168,466.514 124.439,466.514 124.710,466.514 124.980,466.514 125.251,466.514 125.522,466.514 125.793,466.514 126.064,466.514 126.334,466.514 126.605,466.514 126.876,466.514 127.147,466.514 127.418,466.514 127.689,466.514 127.959,466.514 128.230,466.514 128.501,466.514 128.772,466.514 129.043,466.514 129.314,466.514 129.584,466.514 129.855,466.514 130.126,466.514 130.397,466.514 130.668,466.514 130.938,466.514 131.209,466.514 131.480,466.514 131.751,466.514 132.022,466.514 132.293,466.514 132.563,466.514 132.834,466.514 133.105,466.514 133.376,466.514 133.647,466.514 133.918,466.514 134.188,466.514 134.459,466.514 134.730,466.514 135.001,466.514 135.272,466.514 135.542,466.514 135.813,466.514 136.084,466.514 136.355,466.514 136.626,466.514 136.897,466.514 137.167,466.514 137.438,466.514 137.709,466.514 137.980,466.514 138.251,466.514 138.522,466.514 138.792,466.514 139.063,466.514 139.334,466.514 139.605,466.514 139.876,466.514 140.146,466.514 140.417,466.514 140.688,466.514 140.959,466.514 141.230,466.514 141.501,466.514 141.771,466.514 142.042,466.514 142.313,466.514 142.584,466.514 142.855,466.514 143.126,466.514 143.396,466.514 143.667,466.514 143.938,466.514 144.209,466.514 144.480,466.514 144.750,466.514 145.021,466.514 145.292,466.514 145.563,466.514 145.834,466.514 146.105,466.514 146.375,466.514 146.646,466.514 146.917,466.514 147.188,466.514 147.459,466.514 147.729,466.514 148.000,466.514 148.271,466.514 148.542,466.514 148.813,466.514 149.084,466.514 149.354,466.514 149.625,466.514 149.896,466.514 150.167,466.514 150.438,466.514 150.709,466.514 150.979,466.514 151.250,466.514 151.521,466.514 151.792,466.514 152.063,466.514 152.333,466.514 152.604,466.514 152.875,466.514 153.146,466.514 153.417,466.514 153.688,466.514 153.958,466.514 154.229,466.514 154.500,466.514 154.771,466.514 155.042,466.514 155.313,466.514 155.583,466.514 155.854,466.514 156.125,466.514 156.396,466.514 156.667,466.514 156.937,466.514 157.208,466.514 157.479,466.514 157.750,466.514 158.021,466.514 158.292,466.514 158.562,466.514 158.833,466.514 159.104,466.514 159.375,466.514 159.646,466.514 159.917,466.514 160.187,466.514 160.458,466.514 160.729,466.514 161.000,466.514 161.271,466.514 161.541,466.514 161.812,466.514 162.083,466.514 162.354,466.514 162.625,466.514 162.896,466.514 163.166,466.514 163.437,466.514 163.708,466.514 163.979,466.514 164.250,466.514 164.521,466.514 164.791,466.514 165.062,466.514 165.333,466.514 165.604,466.514 165.875,466.514 166.145,466.514 166.416,466.514 166.687,466.514 166.958,466.514 167.229,466.514 167.500,466.514 167.770,466.514 168.041,466.514 168.312,466.514 168.583,466.514 168.854,466.514 169.124,466.514 169.395,466.514 169.666,466.514 169.937,466.514 170.208,466.514 170.479,466.514 170.749,466.514 171.020,466.514 171.291,466.514 171.562,466.514 171.833,466.514 172.104,466.514 172.374,466.514 172.645,466.514 172.916,466.514 173.187,466.514 173.458,466.514 173.728,466.514 173.999,466.514 174.270,466.514 174.541,466.514 174.812,466.514 175.083,466.514 175.353,466.514 175.624,466.514 175.895,466.514 176.166,466.514 176.437,466.514 176.708,466.514 176.978,466.514 177.249,466.514 177.520,466.514 177.791,466.514 178.062,466.514 178.332,466.514 178.603,466.514 178.874,466.514 179.145,466.514 179.416,466.514 179.687,466.514 179.957,466.514 180.228,466.514 180.499,466.514 180.770,466.514 181.041,466.514 181.312,466.514 181.582,466.514 181.853,466.514 182.124,466.514 182.395,466.514 182.666,466.514 182.936,466.514 183.207,466.514 183.478,466.514 183.749,466.514 184.020,466.514 184.291,466.514 184.561,466.514 184.832,466.514 185.103,466.514 185.374,466.514 185.645,466.514 185.916,466.514 186.186,466.514 186.457,466.514 186.728,466.514 186.999,466.514 187.270,466.514 187.540,466.514 187.811,466.514 188.082,466.514 188.353,466.514 188.624,466.514 188.895,466.514 189.165,466.514 189.436,466.514 189.707,466.514 189.978,466.514 190.249,466.514 190.519,466.514 190.790,466.514 191.061,466.514 191.332,466.514 191.603,466.514 191.874,466.514 192.144,466.514 192.415,466.514 192.686,466.514 192.957,466.514 193.228,466.514 193.499,466.514 193.769,466.514 194.040,466.514 194.311,466.514 194.582,466.514 194.853,466.514 195.123,466.514 195.394,466.514 195.665,466.514 195.936,466.514 196.207,466.514 196.478,466.514 196.748,466.514 197.019,466.514 197.290,466.514 197.561,466.514 197.832,466.514 198.103,466.514 198.373,466.514 198.644,466.514 198.915,466.514 199.186,466.514 199.457,466.514 199.727,466.514 199.998,466.514 200.269,466.514 200.540,466.514 200.811,466.514 201.082,466.514 201.352,466.514 201.623,466.514 201.894,466.514 202.165,466.514 202.436,466.514 202.707,466.514 202.977,466.514 203.248,466.514 203.519,466.514 203.790,466.514 204.061,466.514 204.331,466.514 204.602,466.514 204.873,466.514 205.144,466.514 205.415,466.514 205.686,466.514 205.956,466.514 206.227,466.514 206.498,466.514 206.769,466.514 207.040,466.514 207.311,466.514 207.581,466.514 207.852,466.514 208.123,466.514 208.394,466.514 208.665,466.514 208.935,466.514 209.206,466.514 209.477,466.514 209.748,466.514 210.019,466.514 210.290,466.514 210.560,466.514 210.831,466.514 211.102,466.514 211.373,466.514 211.644,466.514 211.915,466.514 212.185,466.514 212.456,466.514 212.727,466.514 212.998,466.514 213.269,466.514 213.539,466.514 213.810,466.514 214.081,466.514 214.352,466.514 214.623,466.514 214.894,466.514 215.164,466.514 215.435,466.514 215.706,466.514 215.977,466.514 216.248,466.514 216.518,466.514 216.789,466.514 217.060,466.514 217.331,466.514 217.602,466.514 217.873,466.514 218.143,466.514 218.414,466.514 218.685,466.514 218.956,466.514 219.227,466.514 219.498,466.514 219.768,466.514 220.039,466.514 220.310,466.514 220.581,466.514 220.852,466.514 221.122,466.514 221.393,466.514 221.664,466.514 221.935,466.514 222.206,466.514 222.477,466.514 222.747,466.514 223.018,466.514 223.289,466.514 223.560,466.514 223.831,466.514 224.102,466.514 224.372,466.514 224.643,466.514 224.914,466.514 225.185,466.514 225.456,466.514 225.726,466.514 225.997,466.514 226.268,466.514 226.539,466.514 226.810,466.514 227.081,466.514 227.351,466.514 227.622,466.514 227.893,466.514 228.164,466.514 228.435,466.514 228.706,466.514 228.976,466.514 229.247,466.514 229.518,466.514 229.789,466.514 230.060,466.514 230.330,466.514 230.601,466.514 230.872,466.514 231.143,466.514 231.414,466.514 231.685,466.514 231.955,466.514 232.226,466.514 232.497,466.514 232.768,466.514 233.039,466.514 233.310,466.514 233.580,466.514 233.851,466.514 234.122,466.514 234.393,466.514 234.664,466.514 234.934,466.514 235.205,466.514 235.476,466.514 235.747,466.514 236.018,466.514 236.289,466.514 236.559,466.514 236.830,466.514 237.101,466.514 237.372,466.514 237.643,466.514 237.913,466.514 238.184,466.514 238.455,466.514 238.726,466.514 238.997,466.514 239.268,466.514 239.538,466.514 239.809,466.514 240.080,466.514 240.351,466.514 240.622,466.514 240.893,466.514 241.163,466.514 241.434,466.514 241.705,466.514 241.976,466.514 242.247,466.514 242.517,466.514 242.788,466.514 243.059,466.514 243.330,466.514 243.601,466.514 243.872,466.514 244.142,466.514 244.413,466.514 244.684,466.514 244.955,466.514 245.226,466.514 245.497,466.514 245.767,466.514 246.038,466.514 246.309,466.514 246.580,466.514 246.851,466.514 247.121,466.514 247.392,466.514 247.663,466.514 247.934,466.514 248.205,466.514 248.476,466.514 248.746,466.514 249.017,466.514 249.288,466.514 249.559,466.514 249.830,466.514 250.101,466.514 250.371,466.514 250.642,466.514 250.913,466.514 251.184,466.514 251.455,466.514 251.725,466.514 251.996,466.514 252.267,466.514 252.538,466.514 252.809,466.514 253.080,466.514 253.350,466.514 253.621,466.514 253.892,466.514 254.163,466.514 254.434,466.514 254.705,466.514 254.975,466.514 255.246,466.514 255.517,466.514 255.788,466.514 256.059,466.514 256.329,466.514 256.600,466.514 256.871,466.514 257.142,466.514 257.413,466.514 257.684,466.514 257.954,466.514 258.225,466.514 258.496,466.514 258.767,466.514 259.038,466.514 259.308,466.514 259.579,466.514 259.850,466.514 260.121,466.514 260.392,466.514 260.663,466.514 260.933,466.514 261.204,466.514 261.475,466.514 261.746,466.514 262.017,466.514 262.288,466.514 262.558,466.514 262.829,466.514 263.100,466.514 263.371,466.514 263.642,466.514 263.912,466.514 264.183,466.514 264.454,466.514 264.725,466.514 264.996,466.514 265.267,466.514 265.537,466.514 265.808,466.514 266.079,466.514 266.350,466.514 266.621,466.514 266.892,466.514 267.162,466.514 267.433,466.514 267.704,466.514 267.975,466.514 268.246,466.514 268.516,466.514 268.787,466.514 269.058,466.514 269.329,466.514 269.600,466.514 269.871,466.514 270.141,466.514 270.412,466.514 270.683,466.514 270.954,466.514 271.225,466.514 271.496,466.514 271.766,466.514 272.037,466.514 272.308,466.514 272.579,466.514 272.850,466.514 273.120,466.514 273.391,466.514 273.662,466.514 273.933,466.514 274.204,466.514 274.475,466.514 274.745,466.514 275.016,466.514 275.287,466.514 275.558,466.514 275.829,466.514 276.100,466.514 276.370,466.514 276.641,466.514 276.912,466.514 277.183,466.514 277.454,466.514 277.724,466.514 277.995,466.514 278.266,466.514 278.537,466.514 278.808,466.514 279.079,466.514 279.349,466.514 279.620,466.514 279.891,466.514 280.162,466.514 280.433,466.514 280.704,466.514 280.974,466.514 281.245,466.514 281.516,466.514 281.787,466.514 282.058,466.514 282.328,466.514 282.599,466.514 282.870,466.514 283.141,466.514 283.412,466.514 283.683,466.514 283.953,466.514 284.224,466.514 284.495,466.514 284.766,466.514 285.037,466.514 285.307,466.514 285.578,466.514 285.849,466.514 286.120,466.514 286.391,466.514 286.662,466.514 286.932,466.514 287.203,466.514 287.474,466.514 287.745,466.514 288.016,466.514 288.287,466.514 288.557,466.514 288.828,466.514 289.099,466.514 289.370,466.514 289.641,466.514 289.911,466.514 290.182,466.514 290.453,466.514 290.724,466.514 290.995,466.514 291.266,466.514 291.536,466.514 291.807,466.514 292.078,466.514 292.349,466.514 292.620,466.514 292.891,466.514 293.161,466.514 293.432,466.514 293.703,466.514 293.974,466.514 294.245,466.514 294.515,466.514 294.786,466.514 295.057,466.514 295.328,466.514 295.599,466.514 295.870,466.514 296.140,466.514 296.411,466.514 296.682,466.514 296.953,466.514 297.224,466.514 297.495,466.514 297.765,466.514 298.036,466.514 298.307,466.514 298.578,466.514 298.849,466.514 299.119,466.514 299.390,466.514 299.661,466.514 299.932,466.514 300.203,466.514 300.474,466.514 300.744,466.514 301.015,466.514 301.286,466.514 301.557,466.514 301.828,466.514 302.099,466.514 302.369,466.514 302.640,466.514 302.911,466.514 303.182,466.514 303.453,466.514 303.723,466.514 303.994,466.514 304.265,466.514 304.536,466.514 304.807,466.514 305.078,466.514 305.348,466.514 305.619,466.514 305.890,466.514 306.161,466.514 306.432,466.514 306.702,466.514 306.973,466.514 307.244,466.514 307.515,466.514 307.786,466.514 308.057,466.514 308.327,466.514 308.598,466.514 308.869,466.514 309.140,466.514 309.411,466.514 309.682,466.514 309.952,466.514 310.223,466.514 310.494,466.514 310.765,466.514 311.036,466.514 311.306,466.514 311.577,466.514 311.848,466.514 312.119,466.514 312.390,466.514 312.661,466.514 312.931,466.514 313.202,466.514 313.473,466.514 313.744,466.513 314.015,466.513 314.286,466.513 314.556,466.513 314.827,466.513 315.098,466.513 315.369,466.513 315.640,466.513 315.910,466.513 316.181,466.513 316.452,466.513 316.723,466.513 316.994,466.513 317.265,466.513 317.535,466.513 317.806,466.513 318.077,466.513 318.348,466.513 318.619,466.513 318.890,466.513 319.160,466.512 319.431,466.512 319.702,466.512 319.973,466.512 320.244,466.512 320.514,466.512 320.785,466.512 321.056,466.512 321.327,466.512 321.598,466.512 321.869,466.511 322.139,466.511 322.410,466.511 322.681,466.511 322.952,466.511 323.223,466.511 323.494,466.511 323.764,466.511 324.035,466.510 324.306,466.510 324.577,466.510 324.848,466.510 325.118,466.510 325.389,466.509 325.660,466.509 325.931,466.509 326.202,466.509 326.473,466.509 326.743,466.508 327.014,466.508 327.285,466.508 327.556,466.508 327.827,466.507 328.097,466.507 328.368,466.507 328.639,466.506 328.910,466.506 329.181,466.506 329.452,466.505 329.722,466.505 329.993,466.505 330.264,466.504 330.535,466.504 330.806,466.503 331.077,466.503 331.347,466.502 331.618,466.502 331.889,466.501 332.160,466.501 332.431,466.500 332.701,466.500 332.972,466.499 333.243,466.499 333.514,466.498 333.785,466.497 334.056,466.497 334.326,466.496 334.597,466.495 334.868,466.494 335.139,466.494 335.410,466.493 335.681,466.492 335.951,466.491 336.222,466.490 336.493,466.489 336.764,466.488 337.035,466.487 337.305,466.486 337.576,466.485 337.847,466.484 338.118,466.483 338.389,466.481 338.660,466.480 338.930,466.479 339.201,466.477 339.472,466.476 339.743,466.474 340.014,466.473 340.285,466.471 340.555,466.470 340.826,466.468 341.097,466.466 341.368,466.464 341.639,466.462 341.909,466.460 342.180,466.458 342.451,466.456 342.722,466.454 342.993,466.452 343.264,466.450 343.534,466.447 343.805,466.445 344.076,466.442 344.347,466.439 344.618,466.437 344.889,466.434 345.159,466.431 345.430,466.428 345.701,466.424 345.972,466.421 346.243,466.418 346.513,466.414 346.784,466.411 347.055,466.407 347.326,466.403 347.597,466.399 347.868,466.395 348.138,466.390 348.409,466.386 348.680,466.381 348.951,466.377 349.222,466.372 349.493,466.367 349.763,466.361 350.034,466.356 350.305,466.350 350.576,466.345 350.847,466.339 351.117,466.333 351.388,466.326 351.659,466.320 351.930,466.313 352.201,466.306 352.472,466.299 352.742,466.291 353.013,466.284 353.284,466.276 353.555,466.268 353.826,466.259 354.096,466.251 354.367,466.242 354.638,466.232 354.909,466.223 355.180,466.213 355.451,466.203 355.721,466.193 355.992,466.182 356.263,466.171 356.534,466.159 356.805,466.148 357.076,466.135 357.346,466.123 357.617,466.110 357.888,466.097 358.159,466.083 358.430,466.069 358.700,466.055 358.971,466.040 359.242,466.025 359.513,466.009 359.784,465.993 360.055,465.976 360.325,465.959 360.596,465.941 360.867,465.923 361.138,465.904 361.409,465.885 361.680,465.865 361.950,465.844 362.221,465.823 362.492,465.802 362.763,465.780 363.034,465.757 363.304,465.733 363.575,465.709 363.846,465.684 364.117,465.659 364.388,465.633 364.659,465.606 364.929,465.578 365.200,465.550 365.471,465.521 365.742,465.491 366.013,465.460 366.284,465.428 366.554,465.396 366.825,465.362 367.096,465.328 367.367,465.293 367.638,465.257 367.908,465.220 368.179,465.182 368.450,465.143 368.721,465.103 368.992,465.062 369.263,465.020 369.533,464.976 369.804,464.932 370.075,464.887 370.346,464.840 370.617,464.792 370.888,464.743 371.158,464.693 371.429,464.641 371.700,464.588 371.971,464.534 372.242,464.479 372.512,464.422 372.783,464.363 373.054,464.304 373.325,464.243 373.596,464.180 373.867,464.116 374.137,464.050 374.408,463.983 374.679,463.914 374.950,463.843 375.221,463.771 375.491,463.697 375.762,463.621 376.033,463.544 376.304,463.464 376.575,463.383 376.846,463.300 377.116,463.215 377.387,463.128 377.658,463.039 377.929,462.948 378.200,462.855 378.471,462.760 378.741,462.663 379.012,462.564 379.283,462.462 379.554,462.358 379.825,462.252 380.095,462.143 380.366,462.032 380.637,461.919 380.908,461.803 381.179,461.685 381.450,461.564 381.720,461.441 381.991,461.315 382.262,461.186 382.533,461.055 382.804,460.921 383.075,460.784 383.345,460.644 383.616,460.501 383.887,460.356 384.158,460.207 384.429,460.056 384.699,459.901 384.970,459.743 385.241,459.582 385.512,459.418 385.783,459.251 386.054,459.080 386.324,458.906 386.595,458.728 386.866,458.547 387.137,458.363 387.408,458.175 387.679,457.983 387.949,457.788 388.220,457.589 388.491,457.386 388.762,457.180 389.033,456.970 389.303,456.755 389.574,456.537 389.845,456.315 390.116,456.089 390.387,455.859 390.658,455.624 390.928,455.386 391.199,455.143 391.470,454.896 391.741,454.644 392.012,454.388 392.283,454.128 392.553,453.863 392.824,453.594 393.095,453.320 393.366,453.041 393.637,452.758 393.907,452.470 394.178,452.177 394.449,451.879 394.720,451.577 394.991,451.269 395.262,450.957 395.532,450.639 395.803,450.316 396.074,449.989 396.345,449.656 396.616,449.318 396.886,448.974 397.157,448.626 397.428,448.272 397.699,447.912 397.970,447.547 398.241,447.177 398.511,446.801 398.782,446.420 399.053,446.033 399.324,445.640 399.595,445.242 399.866,444.838 400.136,444.428 400.407,444.012 400.678,443.590 400.949,443.163 401.220,442.730 401.490,442.291 401.761,441.845 402.032,441.394 402.303,440.937 402.574,440.474 402.845,440.004 403.115,439.529 403.386,439.047 403.657,438.559 403.928,438.065 404.199,437.565 404.470,437.058 404.740,436.545 405.011,436.026 405.282,435.501 405.553,434.969 405.824,434.431 406.094,433.887 406.365,433.336 406.636,432.779 406.907,432.215 407.178,431.645 407.449,431.069 407.719,430.486 407.990,429.897 408.261,429.301 408.532,428.699 408.803,428.091 409.074,427.476 409.344,426.855 409.615,426.227 409.886,425.593 410.157,424.953 410.428,424.306 410.698,423.653 410.969,422.994 411.240,422.328 411.511,421.656 411.782,420.978 412.053,420.293 412.323,419.602 412.594,418.905 412.865,418.202 413.136,417.493 413.407,416.777 413.678,416.056 413.948,415.328 414.219,414.595 414.490,413.855 414.761,413.110 415.032,412.358 415.302,411.601 415.573,410.839 415.844,410.070 416.115,409.296 416.386,408.516 416.657,407.731 416.927,406.940 417.198,406.144 417.469,405.342 417.740,404.535 418.011,403.723 418.282,402.906 418.552,402.084 418.823,401.257 419.094,400.424 419.365,399.588 419.636,398.746 419.906,397.900 420.177,397.049 420.448,396.193 420.719,395.334 420.990,394.470 421.261,393.602 421.531,392.729 421.802,391.853 422.073,390.973 422.344,390.089 422.615,389.202 422.885,388.311 423.156,387.417 423.427,386.519 423.698,385.618 423.969,384.714 424.240,383.807 424.510,382.898 424.781,381.985 425.052,381.070 425.323,380.153 425.594,379.233 425.865,378.311 426.135,377.388 426.406,376.462 426.677,375.535 426.948,374.605 427.219,373.675 427.489,372.743 427.760,371.810 428.031,370.876 428.302,369.942 428.573,369.006 428.844,368.070 429.114,367.134 429.385,366.197 429.656,365.260 429.927,364.324 430.198,363.388 430.469,362.452 430.739,361.517 431.010,360.582 431.281,359.648 431.552,358.716 431.823,357.785 432.093,356.855 432.364,355.927 432.635,355.001 432.906,354.076 433.177,353.154 433.448,352.234 433.718,351.317 433.989,350.402 434.260,349.491 434.531,348.582 434.802,347.676 435.073,346.774 435.343,345.876 435.614,344.981 435.885,344.091 436.156,343.204 436.427,342.322 436.697,341.444 436.968,340.571 437.239,339.703 437.510,338.840 437.781,337.982 438.052,337.130 438.322,336.283 438.593,335.442 438.864,334.607 439.135,333.778 439.406,332.956 439.677,332.140 439.947,331.331 440.218,330.529 440.489,329.734 440.760,328.946 441.031,328.165 441.301,327.393 441.572,326.627 441.843,325.870 442.114,325.122 442.385,324.381 442.656,323.649 442.926,322.925 443.197,322.211 443.468,321.505 443.739,320.809 444.010,320.122 444.280,319.444 444.551,318.776 444.822,318.118 445.093,317.470 445.364,316.832 445.635,316.204 445.905,315.587 446.176,314.980 446.447,314.384 446.718,313.799 446.989,313.225 447.260,312.662 447.530,312.110 447.801,311.570 448.072,311.041 448.343,310.524 448.614,310.019 448.884,309.526 449.155,309.045 449.426,308.576 449.697,308.120 449.968,307.676 450.239,307.244 450.509,306.825 450.780,306.419 451.051,306.026 451.322,305.646 451.593,305.278 451.864,304.924 452.134,304.583 452.405,304.256 452.676,303.942 452.947,303.641 453.218,303.354 453.488,303.081 453.759,302.821 454.030,302.575 454.301,302.343 454.572,302.125 454.843,301.921 455.113,301.731 455.384,301.555 455.655,301.393 455.926,301.245 456.197,301.111 456.468,300.992 456.738,300.887 457.009,300.796 457.280,300.719 457.551,300.657 457.822,300.609 458.092,300.576 458.363,300.556 458.634,300.552 458.905,300.561 459.176,300.585 459.447,300.623 459.717,300.676 459.988,300.743 460.259,300.824 460.530,300.920 460.801,301.030 461.072,301.154 461.342,301.292 461.613,301.445 461.884,301.611 462.155,301.792 462.426,301.987 462.696,302.196 462.967,302.418 463.238,302.655 463.509,302.905 463.780,303.170 464.051,303.447 464.321,303.739 464.592,304.044 464.863,304.363 465.134,304.694 465.405,305.040 465.675,305.398 465.946,305.770 466.217,306.154 466.488,306.552 466.759,306.962 467.030,307.385 467.300,307.821 467.571,308.269 467.842,308.730 468.113,309.203 468.384,309.688 468.655,310.185 468.925,310.694 469.196,311.215 469.467,311.747 469.738,312.291 470.009,312.846 470.279,313.413 470.550,313.991 470.821,314.579 471.092,315.179 471.363,315.789 471.634,316.410 471.904,317.041 472.175,317.683 472.446,318.334 472.717,318.995 472.988,319.667 473.259,320.347 473.529,321.038 473.800,321.737 474.071,322.446 474.342,323.163 474.613,323.890 474.883,324.624 475.154,325.368 475.425,326.119 475.696,326.879 475.967,327.647 476.238,328.422 476.508,329.205 476.779,329.995 477.050,330.793 477.321,331.597 477.592,332.409 477.863,333.227 478.133,334.051 478.404,334.882 478.675,335.719 478.946,336.562 479.217,337.410 479.487,338.265 479.758,339.124 480.029,339.989 480.300,340.859 480.571,341.733 480.842,342.613 481.112,343.496 481.383,344.384 481.654,345.276 481.925,346.172 482.196,347.072 482.467,347.975 482.737,348.882 483.008,349.791 483.279,350.704 483.550,351.620 483.821,352.538 484.091,353.458 484.362,354.381 484.633,355.306 484.904,356.233 485.175,357.162 485.446,358.092 485.716,359.024 485.987,359.956 486.258,360.890 486.529,361.825 486.800,362.761 487.071,363.697 487.341,364.633 487.612,365.570 487.883,366.506 488.154,367.443 488.425,368.379 488.695,369.315 488.966,370.250 489.237,371.185 489.508,372.118 489.779,373.051 490.050,373.982 490.320,374.912 490.591,375.841 490.862,376.768 491.133,377.693 491.404,378.616 491.674,379.537 491.945,380.456 492.216,381.373 492.487,382.287 492.758,383.198 493.029,384.107 493.299,385.013 493.570,385.916 493.841,386.816 494.112,387.712 494.383,388.605 494.654,389.495 494.924,390.382 495.195,391.264 495.466,392.143 495.737,393.018 496.008,393.889 496.278,394.755 496.549,395.618 496.820,396.476 497.091,397.330 497.362,398.179 497.633,399.024 497.903,399.864 498.174,400.700 498.445,401.530 498.716,402.356 498.987,403.176 499.258,403.992 499.528,404.802 499.799,405.607 500.070,406.407 500.341,407.201 500.612,407.990 500.882,408.774 501.153,409.552 501.424,410.324 501.695,411.091 501.966,411.852 502.237,412.607 502.507,413.356 502.778,414.100 503.049,414.837 503.320,415.569 503.591,416.295 503.862,417.014 504.132,417.727 504.403,418.435 504.674,419.136 504.945,419.831 505.216,420.520 505.486,421.202 505.757,421.878 506.028,422.548 506.299,423.212 506.570,423.869 506.841,424.520 507.111,425.165 507.382,425.803 507.653,426.435 507.924,427.061 508.195,427.680 508.466,428.293 508.736,428.899 509.007,429.499 509.278,430.092 509.549,430.679 509.820,431.260 510.090,431.834 510.361,432.402 510.632,432.963 510.903,433.518 511.174,434.067 511.445,434.609 511.715,435.145 511.986,435.675 512.257,436.198 512.528,436.715 512.799,437.226 513.069,437.731 513.340,438.229 513.611,438.721 513.882,439.207 514.153,439.686 514.424,440.160 514.694,440.627 514.965,441.089 515.236,441.544 515.507,441.993 515.778,442.436 516.049,442.873 516.319,443.305 516.590,443.730 516.861,444.150 517.132,444.564 517.403,444.972 517.673,445.374 517.944,445.770 518.215,446.161 518.486,446.546 518.757,446.926 519.028,447.300 519.298,447.668 519.569,448.031 519.840,448.389 520.111,448.741 520.382,449.088 520.653,449.430 520.923,449.766 521.194,450.097 521.465,450.423 521.736,450.744 522.007,451.060 522.277,451.371 522.548,451.677 522.819,451.978 523.090,452.274 523.361,452.565 523.632,452.852 523.902,453.133 524.173,453.411 524.444,453.683 524.715,453.951 524.986,454.214 525.257,454.473 525.527,454.728 525.798,454.978 526.069,455.223 526.340,455.465 526.611,455.702 526.881,455.935 527.152,456.164 527.423,456.389 527.694,456.610 527.965,456.827 528.236,457.039 528.506,457.249 528.777,457.454 529.048,457.655 529.319,457.853 529.590,458.047 529.861,458.237 530.131,458.424 530.402,458.607 530.673,458.787 530.944,458.964 531.215,459.137 531.485,459.306 531.756,459.473 532.027,459.636 532.298,459.796 532.569,459.952 532.840,460.106 533.110,460.257 533.381,460.404 533.652,460.549 533.923,460.691 534.194,460.829 534.464,460.965 534.735,461.099 535.006,461.229 535.277,461.357 535.548,461.482 535.819,461.604 536.089,461.724 536.360,461.842 536.631,461.957 536.902,462.069 537.173,462.179 537.444,462.287 537.714,462.393 537.985,462.496 538.256,462.597 538.527,462.695 538.798,462.792 539.068,462.886 539.339,462.978 539.610,463.069 539.881,463.157 540.152,463.243 540.423,463.328 540.693,463.410 540.964,463.491 541.235,463.569 541.506,463.646 541.777,463.721 542.048,463.795 542.318,463.867 542.589,463.937 542.860,464.005 543.131,464.072 543.402,464.137 543.672,464.201 543.943,464.263 544.214,464.324 544.485,464.383 544.756,464.441 545.027,464.497 545.297,464.552 545.568,464.606 545.839,464.658 546.110,464.709 546.381,464.759 546.652,464.808 546.922,464.855 547.193,464.902 547.464,464.947 547.735,464.991 548.006,465.034 548.276,465.075 548.547,465.116 548.818,465.156 549.089,465.194 549.360,465.232 549.631,465.269 549.901,465.305 550.172,465.340 550.443,465.373 550.714,465.407 550.985,465.439 551.256,465.470 551.526,465.501 551.797,465.530 552.068,465.559 552.339,465.587 552.610,465.615 552.880,465.641 553.151,465.667 553.422,465.693 553.693,465.717 553.964,465.741 554.235,465.764 554.505,465.787 554.776,465.809 555.047,465.830 555.318,465.851 555.589,465.871 555.860,465.891 556.130,465.910 556.401,465.929 556.672,465.947 556.943,465.964 557.214,465.981 557.484,465.998 557.755,466.014 558.026,466.030 558.297,466.045 558.568,466.060 558.839,466.074 559.109,466.088 559.380,466.101 559.651,466.114 559.922,466.127 560.193,466.139 560.463,466.151 560.734,466.163 561.005,466.174 561.276,466.185 561.547,466.196 561.818,466.206 562.088,466.216 562.359,466.226 562.630,466.235 562.901,466.245 563.172,466.253 563.443,466.262 563.713,466.270 563.984,466.278 564.255,466.286 564.526,466.294 564.797,466.301 565.067,466.308 565.338,466.315 565.609,466.322 565.880,466.328 566.151,466.335 566.422,466.341 566.692,466.347 566.963,466.352 567.234,466.358 567.505,466.363 567.776,466.368 568.047,466.373 568.317,466.378 568.588,466.383 568.859,466.387 569.130,466.392 569.401,466.396 569.671,466.400 569.942,466.404 570.213,466.408 570.484,466.412 570.755,466.415 571.026,466.419 571.296,466.422 571.567,466.425 571.838,466.429 572.109,466.432 572.380,466.435 572.651,466.437 572.921,466.440 573.192,466.443 573.463,466.445 573.734,466.448 574.005,466.450 574.275,466.453 574.546,466.455 574.817,466.457 575.088,466.459 575.359,466.461 575.630,466.463 575.900,466.465 576.171,466.467 576.442,466.469 576.713,466.470 576.984,466.472 577.255,466.473 577.525,466.475 577.796,466.476 578.067,466.478 578.338,466.479 578.609,466.480 578.879,466.482 579.150,466.483 579.421,466.484 579.692,466.485 579.963,466.486 580.234,466.487 580.504,466.488 580.775,466.489 581.046,466.490 581.317,466.491 581.588,466.492 581.858,466.493 582.129,466.494 582.400,466.495 582.671,466.495 582.942,466.496 583.213,466.497 583.483,466.498 583.754,466.498 584.025,466.499 584.296,466.499 584.567,466.500 584.838,466.501 585.108,466.501 585.379,466.502 585.650,466.502 585.921,466.503 586.192,466.503 586.462,466.503 586.733,466.504 587.004,466.504 587.275,466.505 587.546,466.505 587.817,466.505 588.087,466.506 588.358,466.506 588.629,466.506 588.900,466.507 589.171,466.507 589.442,466.507 589.712,466.508 589.983,466.508 590.254,466.508 590.525,466.508 590.796,466.509 591.066,466.509 591.337,466.509 591.608,466.509 591.879,466.510 592.150,466.510 592.421,466.510 592.691,466.510 592.962,466.510 593.233,466.510 593.504,466.511 593.775,466.511 594.046,466.511 594.316,466.511 594.587,466.511 594.858,466.511 595.129,466.511 595.400,466.512 595.670,466.512 595.941,466.512 596.212,466.512 596.483,466.512 596.754,466.512 597.025,466.512 597.295,466.512 597.566,466.512 597.837,466.512 598.108,466.512 598.379,466.513 598.650,466.513 598.920,466.513 599.191,466.513 599.462,466.513 599.733,466.513 600.004,466.513 600.274,466.513 600.545,466.513 600.816,466.513 601.087,466.513 601.358,466.513 601.629,466.513 601.899,466.513 602.170,466.513 602.441,466.513 602.712,466.513 602.983,466.513 603.253,466.513 603.524,466.513 603.795,466.514 604.066,466.514 604.337,466.514 604.608,466.514 604.878,466.514 605.149,466.514 605.420,466.514 605.691,466.514 605.962,466.514 606.233,466.514 606.503,466.514 606.774,466.514 607.045,466.514 607.316,466.514 607.587,466.514 607.857,466.514 608.128,466.514 608.399,466.514 608.670,466.514 608.941,466.514 609.212,466.514 609.482,466.514 609.753,466.514 610.024,466.514 610.295,466.514 610.566,466.514 610.837,466.514 611.107,466.514 611.378,466.514 611.649,466.514 611.920,466.514 612.191,466.514 612.461,466.514 612.732,466.514 613.003,466.514 613.274,466.514 613.545,466.514 613.816,466.514 614.086,466.514 614.357,466.514 614.628,466.514 614.899,466.514 615.170,466.514 615.441,466.514 615.711,466.514 615.982,466.514 616.253,466.514 616.524,466.514 616.795,466.514 617.065,466.514 617.336,466.514 617.607,466.514 617.878,466.514 618.149,466.514 618.420,466.514 618.690,466.514 618.961,466.514 619.232,466.514 619.503,466.514 619.774,466.514 620.045,466.514 620.315,466.514 620.586,466.514 620.857,466.514 621.128,466.514 621.399,466.514 621.669,466.514 621.940,466.514 622.211,466.514 622.482,466.514 622.753,466.514 623.024,466.514 623.294,466.514 623.565,466.514 623.836,466.514 624.107,466.514 624.378,466.514 624.649,466.514 624.919,466.514 625.190,466.514 625.461,466.514 625.732,466.514 626.003,466.514 626.273,466.514 626.544,466.514 626.815,466.514 627.086,466.514 627.357,466.514 627.628,466.514 627.898,466.514 628.169,466.514 628.440,466.514 628.711,466.514 628.982,466.514 629.252,466.514 629.523,466.514 629.794,466.514 630.065,466.514 630.336,466.514 630.607,466.514 630.877,466.514 631.148,466.514 631.419,466.514 631.690,466.514 631.961,466.514 632.232,466.514 632.502,466.514 "/>
<g>
</g>
</g>
<g id="ID000009" >
  <g transform="translate(361.056,278.938)">
    <g transform="rotate(-0.0)">
      <text x="0.000" y="0.000" font-family="Helvetica" text-anchor="middle" font-size="12pt" fill="#000000" >l = 0.36, x* = 0.50</text>
    </g>
  </g>
</g>
<g id="ID000010" >
</g>
<g id="ID000011" >
</g>
    </g>
    <g>
      <polyline fill="none" stroke="#000000" stroke-width="0.5pt" stroke-dasharray="none" points="145.021,466.514 145.021,461.098 "/>
      <polyline fill="none" stroke="#000000" stroke-width="0.5pt" stroke-dasharray="none" points="199.186,466.514 199.186,461.098 "/>
      <polyline fill="none" stroke="#000000" stroke-width="0.5pt" stroke-dasharray="none" points="253.350,466.514 253.350,461.098 "/>
      <polyline fill="none" stroke="#000000" stroke-width="0.5pt" stroke-dasharray="none" points="307.515,466.514 307.515,461.098 "/>
      <polyline fill="none" stroke="#000000" stroke-width="0.5pt" stroke-dasharray="none" points="361.680,466.514 361.680,461.098 "/>
      <polyline fill="none" stroke="#000000" stroke-width="0.5pt" stroke-dasharray="none" points="415.844,466.514 415.844,461.098 "/>
      <polyline fill="none" stroke="#000000" stroke-width="0.5pt" stroke-dasharray="none" points="470.009,466.514 470.009,461.098 "/>
      <polyline fill="none" stroke="#000000" stroke-width="0.5pt" stroke-dasharray="none" points="524.173,466.514 524.173,461.098 "/>
      <polyline fill="none" stroke="#000000" stroke-width="0.5pt" stroke-dasharray="none" points="578.338,466.514 578.338,461.098 "/>
      <polyline fill="none" stroke="#000000" stroke-width="0.5pt" stroke-dasharray="none" points="90.857,466.514 632.502,466.514 "/>
      <polyline fill="none" stroke="#000000" stroke-width="0.5pt" stroke-dasharray="none" points="145.021,287.686 145.021,293.102 "/>
      <polyline fill="none" stroke="#000000" stroke-width="0.5pt" stroke-dasharray="none" points="199.186,287.686 199.186,293.102 "/>
      <polyline fill="none" stroke="#000000" stroke-width="0.5pt" stroke-dasharray="none" points="253.350,287.686 253.350,293.102 "/>
      <polyline fill="none" stroke="#000000" stroke-width="0.5pt" stroke-dasharray="none" points="307.515,287.686 307.515,293.102 "/>
      <polyline fill="none" stroke="#000000" stroke-width="0.5pt" stroke-dasharray="none" points="361.680,287.686 361.680,293.102 "/>
      <polyline fill="none" stroke="#000000" stroke-width="0.5pt" stroke-dasharray="none" points="415.844,287.686 415.844,293.102 "/>
      <polyline fill="none" stroke="#000000" stroke-width="0.5pt" stroke-dasharray="none" points="470.009,287.686 470.009,293.102 "/>
      <polyline fill="none" stroke="#000000" stroke-width="0.5pt" stroke-dasharray="none" points="524.173,287.686 524.173,293.102 "/>
      <polyline fill="none" stroke="#000000" stroke-width="0.5pt" stroke-dasharray="none" points="578.338,287.686 578.338,293.102 "/>
      <polyline fill="none" stroke="#000000" stroke-width="0.5pt" stroke-dasharray="none" points="90.857,287.686 632.502,287.686 "/>
  <g transform="translate(90.857,484.818)">
    <g transform="rotate(-0.0)">
      <text x="0.000" y="0.000" font-family="Helvetica" text-anchor="middle" font-size="12pt" fill="#000000" >-1</text>
    </g>
  </g>
  <g transform="translate(145.021,484.818)">
    <g transform="rotate(-0.0)">
      <text x="0.000" y="0.000" font-family="Helvetica" text-anchor="middle" font-size="12pt" fill="#000000" >-0.8</text>
    </g>
  </g>
  <g transform="translate(199.186,484.818)">
    <g transform="rotate(-0.0)">
      <text x="0.000" y="0.000" font-family="Helvetica" text-anchor="middle" font-size="12pt" fill="#000000" >-0.6</text>
    </g>
  </g>
  <g transform="translate(253.350,484.818)">
    <g transform="rotate(-0.0)">
      <text x="0.000" y="0.000" font-family="Helvetica" text-anchor="middle" font-size="12pt" fill="#000000" >-0.4</text>
    </g>
  </g>
  <g transform="translate(307.515,484.818)">
    <g transform="rotate(-0.0)">
      <text x="0.000" y="0.000" font-family="Helvetica" text-anchor="middle" font-size="12pt" fill="#000000" >-0.2</text>
    </g>
  </g>
  <g transform="translate(361.680,484.818)">
    <g transform="rotate(-0.0)">
      <text x="0.000" y="0.000" font-family="Helvetica" text-anchor="middle" font-size="12pt" fill="#000000" >0</text>
    </g>
  </g>
  <g transform="translate(415.844,484.818)">
    <g transform="rotate(-0.0)">
      <text x="0.000" y="0.000" font-family="Helvetica" text-anchor="middle" font-size="12pt" fill="#000000" >0.2</text>
    </g>
  </g>
  <g transform="translate(470.009,484.818)">
    <g transform="rotate(-0.0)">
      <text x="0.000" y="0.000" font-family="Helvetica" text-anchor="middle" font-size="12pt" fill="#000000" >0.4</text>
    </g>
  </g>
  <g transform="translate(524.173,484.818)">
    <g transform="rotate(-0.0)">
      <text x="0.000" y="0.000" font-family="Helvetica" text-anchor="middle" font-size="12pt" fill="#000000" >0.6</text>
    </g>
  </g>
  <g transform="translate(578.338,484.818)">
    <g transform="rotate(-0.0)">
      <text x="0.000" y="0.000" font-family="Helvetica" text-anchor="middle" font-size="12pt" fill="#000000" >0.8</text>
    </g>
  </g>
  <g transform="translate(632.502,484.818)">
    <g transform="rotate(-0.0)">
      <text x="0.000" y="0.000" font-family="Helvetica" text-anchor="middle" font-size="12pt" fill="#000000" >1</text>
    </g>
  </g>
      <polyline fill="none" stroke="#000000" stroke-width="0.5pt" stroke-dasharray="none" points="90.857,421.807 96.273,421.807 "/>
      <polyline fill="none" stroke="#000000" stroke-width="0.5pt" stroke-dasharray="none" points="90.857,377.100 96.273,377.100 "/>
      <polyline fill="none" stroke="#000000" stroke-width="0.5pt" stroke-dasharray="none" points="90.857,332.393 96.273,332.393 "/>
      <polyline fill="none" stroke="#000000" stroke-width="0.5pt" stroke-dasharray="none" points="90.857,466.514 90.857,287.686 "/>
      <polyline fill="none" stroke="#000000" stroke-width="0.5pt" stroke-dasharray="none" points="632.502,421.807 627.086,421.807 "/>
      <polyline fill="none" stroke="#000000" stroke-width="0.5pt" stroke-dasharray="none" points="632.502,377.100 627.086,377.100 "/>
      <polyline fill="none" stroke="#000000" stroke-width="0.5pt" stroke-dasharray="none" points="632.502,332.393 627.086,332.393 "/>
      <polyline fill="none" stroke="#000000" stroke-width="0.5pt" stroke-dasharray="none" points="632.502,466.514 632.502,287.686 "/>
  <g transform="translate(80.024,472.130)">
    <g transform="rotate(-0.0)">
      <text x="0.000" y="0.000" font-family="Helvetica" text-anchor="end" font-size="12pt" fill="#000000" >0</text>
    </g>
  </g>
  <g transform="translate(80.024,427.423)">
    <g transform="rotate(-0.0)">
      <text x="0.000" y="0.000" font-family="Helvetica" text-anchor="end" font-size="12pt" fill="#000000" >1</text>
    </g>
  </g>
  <g transform="translate(80.024,382.716)">
    <g transform="rotate(-0.0)">
      <text x="0.000" y="0.000" font-family="Helvetica" text-anchor="end" font-size="12pt" fill="#000000" >2</text>
    </g>
  </g>
  <g transform="translate(80.024,338.009)">
    <g transform="rotate(-0.0)">
      <text x="0.000" y="0.000" font-family="Helvetica" text-anchor="end" font-size="12pt" fill="#000000" >3</text>
    </g>
  </g>
  <g transform="translate(80.024,293.302)">
    <g transform="rotate(-0.0)">
      <text x="0.000" y="0.000" font-family="Helvetica" text-anchor="end" font-size="12pt" fill="#000000" >4</text>
    </g>
  </g>
      <polyline fill="none" stroke="#000000" stroke-width="0.5pt" stroke-dasharray="none" points="90.857,466.514 90.857,464.726 "/>
      <polyline fill="none" stroke="#000000" stroke-width="0.5pt" stroke-dasharray="none" points="90.857,466.514 90.857,466.514 "/>
    </g>
  </g>
  </g>
</svg>
