<?xml version="1.0" encoding="utf-8" standalone="no"?><!DOCTYPE svg PUBLIC "-//W3C//DTD SVG 1.1//EN" "http://www.w3.org/Graphics/SVG/1.1/DTD/svg11.dtd">
<svg preserveAspectRatio="xMinYMin meet" width="100%" height="100%" viewBox="0 0 698.898 524.173"  version="1.1" xmlns="http://www.w3.org/2000/svg" xmlns:xlink="http://www.w3.org/1999/xlink">
  <desc>Matlab Figure Converted by PLOT2SVG written by Juerg Schwizer</desc>
  <g id="topgroup">
  <rect x="0" y="0" width="698.898" height="524.173" fill="#ffffff" stroke="none" />
  <g id ="ID000000">
  <clipPath id="ID000001">
    <rect x="90.857" y="39.313" width="541.646" height="178.828"/>
  </clipPath>
      <polygon fill="#ffffff" fill-opacity="1.00" stroke="none" stroke-width="0.5pt" stroke-opacity="1.00" stroke-dasharray="none" points="90.857,218.141 632.502,218.141 632.502,39.313 90.857,39.313 "/>
      <polygon fill="#ffffff" fill-opacity="1.00" stroke="none" stroke-width="0.5pt" stroke-opacity="1.00" stroke-dasharray="none" points="90.857,39.313 632.502,39.313 632.502,39.313 90.857,39.313 "/>
      <polygon fill="#ffffff" fill-opacity="1.00" stroke="none" stroke-width="0.5pt" stroke-opacity="1.00" stroke-dasharray="none" points="90.857,218.141 90.857,218.141 90.857,39.313 90.857,39.313 "/>
    <g>
<g id="ID000002" clip-path="url(#ID000001)" >
      <polyline fill="none" stroke="#0000ff" stroke-width="0.5pt" stroke-dasharray="none" points="90.857,218.141 91.128,218.141 91.398,218.141 91.669,218.141 91.940,218.141 92.211,218.141 92.482,218.141 92.752,218.141 93.023,218.141 93.294,218.141 93.565,218.141 93.836,218.141 94.107,218.141 94.377,218.141 94.648,218.141 94.919,218.141 95.190,218.141 95.461,218.141 95.732,218.141 96.002,218.141 96.273,218.141 96.544,218.141 96.815,218.141 97.086,218.141 97.356,218.141 97.627,218.141 97.898,218.141 98.169,218.141 98.440,218.141 98.711,218.141 98.981,218.141 99.252,218.141 99.523,218.141 99.794,218.141 100.065,218.141 100.335,218.141 100.606,218.141 100.877,218.141 101.148,218.141 101.419,218.141 101.690,218.141 101.960,218.141 102.231,218.141 102.502,218.141 102.773,218.141 103.044,218.141 103.315,218.141 103.585,218.141 103.856,218.141 104.127,218.141 104.398,218.141 104.669,218.141 104.939,218.141 105.210,218.141 105.481,218.141 105.752,218.141 106.023,218.141 106.294,218.141 106.564,218.141 106.835,218.141 107.106,218.141 107.377,218.141 107.648,218.141 107.919,218.141 108.189,218.141 108.460,218.141 108.731,218.141 109.002,218.141 109.273,218.141 109.543,218.141 109.814,218.141 110.085,218.141 110.356,218.141 110.627,218.141 110.898,218.141 111.168,218.141 111.439,218.141 111.710,218.141 111.981,218.141 112.252,218.141 112.523,218.141 112.793,218.141 113.064,218.141 113.335,218.141 113.606,218.141 113.877,218.141 114.147,218.141 114.418,218.141 114.689,218.141 114.960,218.141 115.231,218.141 115.502,218.141 115.772,218.141 116.043,218.141 116.314,218.141 116.585,218.141 116.856,218.141 117.127,218.141 117.397,218.141 117.668,218.141 117.939,218.141 118.210,218.141 118.481,218.141 118.751,218.141 119.022,218.141 119.293,218.141 119.564,218.141 119.835,218.141 120.106,218.141 120.376,218.141 120.647,218.141 120.918,218.141 121.189,218.141 121.460,218.141 121.730,218.141 122.001,218.141 122.272,218.141 122.543,218.141 122.814,218.141 123.085,218.141 123.355,218.141 123.626,218.141 123.897,218.141 124.168,218.141 124.439,218.141 124.710,218.141 124.980,218.141 125.251,218.141 125.522,218.141 125.793,218.141 126.064,218.141 126.334,218.141 126.605,218.141 126.876,218.141 127.147,218.141 127.418,218.141 127.689,218.141 127.959,218.141 128.230,218.141 128.501,218.141 128.772,218.141 129.043,218.141 129.314,218.141 129.584,218.141 129.855,218.141 130.126,218.141 130.397,218.141 130.668,218.141 130.938,218.141 131.209,218.141 131.480,218.141 131.751,218.141 132.022,218.141 132.293,218.141 132.563,218.141 132.834,218.141 133.105,218.141 133.376,218.141 133.647,218.141 133.918,218.141 134.188,218.141 134.459,218.141 134.730,218.141 135.001,218.141 135.272,218.141 135.542,218.141 135.813,218.141 136.084,218.141 136.355,218.141 136.626,218.141 136.897,218.141 137.167,218.141 137.438,218.141 137.709,218.141 137.980,218.141 138.251,218.141 138.522,218.141 138.792,218.141 139.063,218.141 139.334,218.141 139.605,218.141 139.876,218.141 140.146,218.141 140.417,218.141 140.688,218.141 140.959,218.141 141.230,218.141 141.501,218.141 141.771,218.141 142.042,218.141 142.313,218.141 142.584,218.141 142.855,218.141 143.125,218.141 143.396,218.141 143.667,218.141 143.938,218.141 144.209,218.141 144.480,218.141 144.750,218.141 145.021,218.141 145.292,218.141 145.563,218.141 145.834,218.141 146.105,218.141 146.375,218.141 146.646,218.141 146.917,218.141 147.188,218.141 147.459,218.141 147.729,218.141 148.000,218.141 148.271,218.141 148.542,218.141 148.813,218.141 149.084,218.141 149.354,218.141 149.625,218.141 149.896,218.141 150.167,218.141 150.438,218.141 150.709,218.141 150.979,218.141 151.250,218.141 151.521,218.141 151.792,218.141 152.063,218.141 152.333,218.141 152.604,218.141 152.875,218.141 153.146,218.141 153.417,218.141 153.688,218.141 153.958,218.141 154.229,218.141 154.500,218.141 154.771,218.141 155.042,218.141 155.313,218.141 155.583,218.141 155.854,218.141 156.125,218.141 156.396,218.141 156.667,218.141 156.937,218.141 157.208,218.141 157.479,218.141 157.750,218.141 158.021,218.141 158.292,218.141 158.562,218.141 158.833,218.141 159.104,218.141 159.375,218.141 159.646,218.141 159.917,218.141 160.187,218.141 160.458,218.141 160.729,218.141 161.000,218.141 161.271,218.141 161.541,218.141 161.812,218.141 162.083,218.141 162.354,218.141 162.625,218.141 162.896,218.141 163.166,218.141 163.437,218.141 163.708,218.141 163.979,218.141 164.250,218.141 164.521,218.141 164.791,218.141 165.062,218.141 165.333,218.141 165.604,218.141 165.875,218.141 166.145,218.141 166.416,218.141 166.687,218.141 166.958,218.141 167.229,218.141 167.500,218.141 167.770,218.141 168.041,218.141 168.312,218.141 168.583,218.141 168.854,218.141 169.124,218.141 169.395,218.141 169.666,218.141 169.937,218.141 170.208,218.141 170.479,218.141 170.749,218.141 171.020,218.141 171.291,218.141 171.562,218.141 171.833,218.141 172.104,218.141 172.374,218.141 172.645,218.141 172.916,218.141 173.187,218.141 173.458,218.141 173.728,218.141 173.999,218.141 174.270,218.141 174.541,218.141 174.812,218.141 175.083,218.141 175.353,218.141 175.624,218.141 175.895,218.141 176.166,218.141 176.437,218.141 176.708,218.141 176.978,218.141 177.249,218.141 177.520,218.141 177.791,218.141 178.062,218.141 178.332,218.141 178.603,218.141 178.874,218.141 179.145,218.141 179.416,218.141 179.687,218.141 179.957,218.141 180.228,218.141 180.499,218.141 180.770,218.141 181.041,218.141 181.312,218.141 181.582,218.141 181.853,218.141 182.124,218.141 182.395,218.141 182.666,218.141 182.936,218.141 183.207,218.141 183.478,218.141 183.749,218.141 184.020,218.141 184.291,218.141 184.561,218.141 184.832,218.141 185.103,218.141 185.374,218.141 185.645,218.141 185.916,218.141 186.186,218.141 186.457,218.141 186.728,218.141 186.999,218.141 187.270,218.141 187.540,218.141 187.811,218.141 188.082,218.141 188.353,218.141 188.624,218.141 188.895,218.141 189.165,218.141 189.436,218.141 189.707,218.141 189.978,218.141 190.249,218.141 190.519,218.141 190.790,218.141 191.061,218.141 191.332,218.141 191.603,218.141 191.874,218.141 192.144,218.141 192.415,218.141 192.686,218.141 192.957,218.141 193.228,218.141 193.499,218.141 193.769,218.141 194.040,218.141 194.311,218.141 194.582,218.141 194.853,218.141 195.123,218.141 195.394,218.141 195.665,218.141 195.936,218.141 196.207,218.141 196.478,218.141 196.748,218.141 197.019,218.141 197.290,218.141 197.561,218.141 197.832,218.141 198.103,218.141 198.373,218.141 198.644,218.141 198.915,218.141 199.186,218.141 199.457,218.141 199.727,218.141 199.998,218.141 200.269,218.141 200.540,218.141 200.811,218.141 201.082,218.141 201.352,218.141 201.623,218.141 201.894,218.141 202.165,218.141 202.436,218.141 202.707,218.141 202.977,218.141 203.248,218.141 203.519,218.141 203.790,218.141 204.061,218.141 204.331,218.141 204.602,218.141 204.873,218.141 205.144,218.141 205.415,218.141 205.686,218.141 205.956,218.141 206.227,218.141 206.498,218.141 206.769,218.141 207.040,218.141 207.311,218.141 207.581,218.141 207.852,218.141 208.123,218.141 208.394,218.141 208.665,218.141 208.935,218.141 209.206,218.141 209.477,218.141 209.748,218.141 210.019,218.141 210.290,218.141 210.560,218.141 210.831,218.141 211.102,218.141 211.373,218.141 211.644,218.141 211.915,218.141 212.185,218.141 212.456,218.141 212.727,218.141 212.998,218.141 213.269,218.141 213.539,218.141 213.810,218.141 214.081,218.141 214.352,218.141 214.623,218.141 214.894,218.141 215.164,218.141 215.435,218.141 215.706,218.141 215.977,218.141 216.248,218.141 216.518,218.141 216.789,218.141 217.060,218.141 217.331,218.141 217.602,218.141 217.873,218.141 218.143,218.141 218.414,218.141 218.685,218.141 218.956,218.141 219.227,218.141 219.498,218.141 219.768,218.141 220.039,218.141 220.310,218.141 220.581,218.141 220.852,218.141 221.122,218.141 221.393,218.141 221.664,218.141 221.935,218.141 222.206,218.141 222.477,218.141 222.747,218.141 223.018,218.141 223.289,218.141 223.560,218.141 223.831,218.141 224.102,218.141 224.372,218.141 224.643,218.141 224.914,218.141 225.185,218.141 225.456,218.141 225.726,218.141 225.997,218.141 226.268,218.141 226.539,218.141 226.810,218.141 227.081,218.141 227.351,218.141 227.622,218.141 227.893,218.141 228.164,218.141 228.435,218.141 228.706,218.141 228.976,218.141 229.247,218.141 229.518,218.141 229.789,218.141 230.060,218.141 230.330,218.141 230.601,218.141 230.872,218.141 231.143,218.141 231.414,218.141 231.685,218.141 231.955,218.141 232.226,218.141 232.497,218.141 232.768,218.141 233.039,218.141 233.310,218.141 233.580,218.141 233.851,218.141 234.122,218.141 234.393,218.141 234.664,218.141 234.934,218.141 235.205,218.141 235.476,218.141 235.747,218.141 236.018,218.141 236.289,218.141 236.559,218.141 236.830,218.141 237.101,218.141 237.372,218.141 237.643,218.141 237.913,218.141 238.184,218.141 238.455,218.141 238.726,218.141 238.997,218.141 239.268,218.141 239.538,218.141 239.809,218.141 240.080,218.141 240.351,218.141 240.622,218.141 240.893,218.141 241.163,218.141 241.434,218.141 241.705,218.141 241.976,218.141 242.247,218.141 242.517,218.141 242.788,218.141 243.059,218.141 243.330,218.141 243.601,218.141 243.872,218.141 244.142,218.141 244.413,218.141 244.684,218.141 244.955,218.141 245.226,218.141 245.497,218.141 245.767,218.141 246.038,218.141 246.309,218.141 246.580,218.141 246.851,218.141 247.121,218.141 247.392,218.141 247.663,218.141 247.934,218.141 248.205,218.141 248.476,218.141 248.746,218.141 249.017,218.141 249.288,218.141 249.559,218.141 249.830,218.141 250.101,218.141 250.371,218.141 250.642,218.141 250.913,218.141 251.184,218.141 251.455,218.141 251.725,218.141 251.996,218.141 252.267,218.141 252.538,218.141 252.809,218.141 253.080,218.141 253.350,218.141 253.621,218.141 253.892,218.141 254.163,218.141 254.434,218.141 254.705,218.141 254.975,218.141 255.246,218.141 255.517,218.141 255.788,218.141 256.059,218.141 256.329,218.141 256.600,218.141 256.871,218.141 257.142,218.141 257.413,218.141 257.684,218.141 257.954,218.141 258.225,218.141 258.496,218.141 258.767,218.141 259.038,218.141 259.308,218.141 259.579,218.141 259.850,218.141 260.121,218.141 260.392,218.141 260.663,218.141 260.933,218.141 261.204,218.141 261.475,218.141 261.746,218.141 262.017,218.141 262.288,218.141 262.558,218.141 262.829,218.141 263.100,218.141 263.371,218.141 263.642,218.141 263.912,218.141 264.183,218.141 264.454,218.141 264.725,218.141 264.996,218.141 265.267,218.141 265.537,218.141 265.808,218.141 266.079,218.141 266.350,218.141 266.621,218.141 266.892,218.141 267.162,218.141 267.433,218.141 267.704,218.141 267.975,218.141 268.246,218.141 268.516,218.141 268.787,218.141 269.058,218.141 269.329,218.141 269.600,218.141 269.871,218.141 270.141,218.141 270.412,218.141 270.683,218.141 270.954,218.141 271.225,218.141 271.496,218.141 271.766,218.141 272.037,218.141 272.308,218.141 272.579,218.141 272.850,218.141 273.120,218.141 273.391,218.141 273.662,218.141 273.933,218.141 274.204,218.141 274.475,218.141 274.745,218.141 275.016,218.141 275.287,218.141 275.558,218.141 275.829,218.141 276.100,218.141 276.370,218.141 276.641,218.141 276.912,218.141 277.183,218.141 277.454,218.141 277.724,218.141 277.995,218.141 278.266,218.141 278.537,218.141 278.808,218.141 279.079,218.141 279.349,218.141 279.620,218.141 279.891,218.141 280.162,218.141 280.433,218.141 280.704,218.141 280.974,218.141 281.245,218.141 281.516,218.141 281.787,218.141 282.058,218.141 282.328,218.141 282.599,218.141 282.870,218.141 283.141,218.141 283.412,218.141 283.683,218.141 283.953,218.141 284.224,218.141 284.495,218.141 284.766,218.141 285.037,218.141 285.307,218.141 285.578,218.141 285.849,218.141 286.120,218.141 286.391,218.141 286.662,218.141 286.932,218.141 287.203,218.141 287.474,218.141 287.745,218.141 288.016,218.141 288.287,218.141 288.557,218.141 288.828,218.141 289.099,218.141 289.370,218.141 289.641,218.141 289.911,218.141 290.182,218.141 290.453,218.141 290.724,218.141 290.995,218.141 291.266,218.141 291.536,218.141 291.807,218.141 292.078,218.141 292.349,218.141 292.620,218.141 292.891,218.141 293.161,218.141 293.432,218.141 293.703,218.141 293.974,218.141 294.245,218.141 294.515,218.141 294.786,218.141 295.057,218.141 295.328,218.141 295.599,218.141 295.870,218.141 296.140,218.141 296.411,218.141 296.682,218.141 296.953,218.141 297.224,218.141 297.495,218.141 297.765,218.141 298.036,218.141 298.307,218.141 298.578,218.141 298.849,218.141 299.119,218.141 299.390,218.141 299.661,218.141 299.932,218.141 300.203,218.141 300.474,218.141 300.744,218.141 301.015,218.141 301.286,218.141 301.557,218.141 301.828,218.141 302.099,218.141 302.369,218.141 302.640,218.141 302.911,218.141 303.182,218.141 303.453,218.141 303.723,218.141 303.994,218.141 304.265,218.141 304.536,218.141 304.807,218.141 305.078,218.141 305.348,218.141 305.619,218.141 305.890,218.141 306.161,218.141 306.432,218.141 306.702,218.141 306.973,218.141 307.244,218.141 307.515,218.141 307.786,218.141 308.057,218.141 308.327,218.141 308.598,218.141 308.869,218.141 309.140,218.141 309.411,218.141 309.682,218.141 309.952,218.141 310.223,218.141 310.494,218.141 310.765,218.141 311.036,218.141 311.306,218.141 311.577,218.141 311.848,218.141 312.119,218.141 312.390,218.141 312.661,218.141 312.931,218.141 313.202,218.141 313.473,218.141 313.744,218.141 314.015,218.141 314.286,218.141 314.556,218.141 314.827,218.141 315.098,218.141 315.369,218.141 315.640,218.141 315.910,218.141 316.181,218.141 316.452,218.141 316.723,218.141 316.994,218.141 317.265,218.141 317.535,218.141 317.806,218.141 318.077,218.141 318.348,218.141 318.619,218.141 318.890,218.141 319.160,218.141 319.431,218.141 319.702,218.141 319.973,218.141 320.244,218.141 320.514,218.141 320.785,218.141 321.056,218.141 321.327,218.141 321.598,218.141 321.869,218.141 322.139,218.141 322.410,218.141 322.681,218.141 322.952,218.141 323.223,218.141 323.494,218.141 323.764,218.141 324.035,218.141 324.306,218.141 324.577,218.141 324.848,218.141 325.118,218.141 325.389,218.141 325.660,218.141 325.931,218.141 326.202,218.141 326.473,218.141 326.743,218.141 327.014,218.141 327.285,218.141 327.556,218.141 327.827,218.141 328.097,218.141 328.368,218.141 328.639,218.141 328.910,218.141 329.181,218.141 329.452,218.141 329.722,218.141 329.993,218.141 330.264,218.141 330.535,218.141 330.806,218.141 331.077,218.141 331.347,218.141 331.618,218.141 331.889,218.141 332.160,218.141 332.431,218.141 332.701,218.141 332.972,218.141 333.243,218.141 333.514,218.141 333.785,218.141 334.056,218.141 334.326,218.141 334.597,218.141 334.868,218.141 335.139,218.141 335.410,218.141 335.681,218.141 335.951,218.141 336.222,218.141 336.493,218.141 336.764,218.141 337.035,218.141 337.305,218.141 337.576,218.141 337.847,218.141 338.118,218.141 338.389,218.141 338.660,218.141 338.930,218.141 339.201,218.141 339.472,218.141 339.743,218.141 340.014,218.141 340.285,218.141 340.555,218.141 340.826,218.141 341.097,218.141 341.368,218.141 341.639,218.141 341.909,218.141 342.180,218.141 342.451,218.141 342.722,218.141 342.993,218.141 343.264,218.141 343.534,218.141 343.805,218.141 344.076,218.141 344.347,218.141 344.618,218.141 344.889,218.141 345.159,218.141 345.430,218.141 345.701,218.141 345.972,218.141 346.243,218.141 346.513,218.141 346.784,218.141 347.055,218.141 347.326,218.141 347.597,218.141 347.868,218.141 348.138,218.141 348.409,218.141 348.680,218.141 348.951,218.141 349.222,218.141 349.493,218.141 349.763,218.141 350.034,218.141 350.305,218.141 350.576,218.141 350.847,218.141 351.117,218.141 351.388,218.141 351.659,218.141 351.930,218.141 352.201,218.141 352.472,218.141 352.742,218.141 353.013,218.141 353.284,218.141 353.555,218.141 353.826,218.141 354.096,218.141 354.367,218.141 354.638,218.141 354.909,218.141 355.180,218.141 355.451,218.141 355.721,218.141 355.992,218.141 356.263,218.141 356.534,218.141 356.805,218.141 357.076,218.141 357.346,218.141 357.617,218.141 357.888,218.141 358.159,218.141 358.430,218.141 358.700,218.141 358.971,218.141 359.242,218.141 359.513,218.141 359.784,218.141 360.055,218.141 360.325,218.141 360.596,218.141 360.867,218.141 361.138,218.141 361.409,218.141 361.680,218.141 361.950,218.141 362.221,218.141 362.492,218.141 362.763,218.141 363.034,218.141 363.304,218.141 363.575,218.141 363.846,218.141 364.117,218.141 364.388,218.141 364.659,218.141 364.929,218.141 365.200,218.141 365.471,218.141 365.742,218.141 366.013,218.141 366.284,218.141 366.554,218.141 366.825,218.141 367.096,218.141 367.367,218.141 367.638,218.141 367.908,218.141 368.179,218.141 368.450,218.141 368.721,218.141 368.992,218.141 369.263,218.141 369.533,218.141 369.804,218.141 370.075,218.141 370.346,218.141 370.617,218.141 370.888,218.141 371.158,218.141 371.429,218.141 371.700,218.141 371.971,218.141 372.242,218.141 372.512,218.141 372.783,218.141 373.054,218.141 373.325,218.141 373.596,218.141 373.867,218.141 374.137,218.141 374.408,218.141 374.679,218.141 374.950,218.141 375.221,218.141 375.491,218.141 375.762,218.141 376.033,218.141 376.304,218.141 376.575,218.141 376.846,218.141 377.116,218.141 377.387,218.141 377.658,218.141 377.929,218.141 378.200,218.141 378.471,218.141 378.741,218.141 379.012,218.141 379.283,218.141 379.554,218.141 379.825,218.141 380.095,218.141 380.366,218.141 380.637,218.141 380.908,218.141 381.179,218.141 381.450,218.141 381.720,218.141 381.991,218.141 382.262,218.141 382.533,218.141 382.804,218.141 383.075,218.141 383.345,218.141 383.616,218.141 383.887,218.141 384.158,218.141 384.429,218.141 384.699,218.141 384.970,218.141 385.241,218.141 385.512,218.141 385.783,218.141 386.054,218.141 386.324,218.141 386.595,218.141 386.866,218.141 387.137,218.141 387.408,218.141 387.679,218.141 387.949,218.141 388.220,218.141 388.491,218.141 388.762,218.141 389.033,218.141 389.303,218.141 389.574,218.141 389.845,218.141 390.116,218.141 390.387,218.141 390.658,218.141 390.928,218.141 391.199,218.141 391.470,218.141 391.741,218.141 392.012,218.141 392.283,218.141 392.553,218.141 392.824,218.141 393.095,218.141 393.366,218.141 393.637,218.141 393.907,218.141 394.178,218.141 394.449,218.141 394.720,218.141 394.991,218.141 395.262,218.141 395.532,218.141 395.803,218.141 396.074,218.141 396.345,218.141 396.616,218.141 396.886,218.141 397.157,218.141 397.428,218.141 397.699,218.141 397.970,218.141 398.241,218.141 398.511,218.141 398.782,218.141 399.053,218.141 399.324,218.141 399.595,218.141 399.866,218.141 400.136,218.141 400.407,218.141 400.678,218.141 400.949,218.141 401.220,218.141 401.490,218.141 401.761,218.141 402.032,218.141 402.303,218.141 402.574,218.141 402.845,218.141 403.115,218.141 403.386,218.141 403.657,218.141 403.928,218.141 404.199,218.141 404.470,218.141 404.740,218.141 405.011,218.141 405.282,218.141 405.553,218.141 405.824,218.141 406.094,218.141 406.365,218.141 406.636,218.141 406.907,218.141 407.178,218.141 407.449,218.141 407.719,218.141 407.990,218.141 408.261,218.141 408.532,218.141 408.803,218.141 409.074,218.141 409.344,218.141 409.615,218.141 409.886,218.141 410.157,218.141 410.428,218.141 410.698,218.141 410.969,218.141 411.240,218.141 411.511,218.141 411.782,218.141 412.053,218.141 412.323,218.141 412.594,218.141 412.865,218.141 413.136,218.141 413.407,218.141 413.678,218.141 413.948,218.141 414.219,218.141 414.490,218.141 414.761,218.141 415.032,218.141 415.302,218.141 415.573,218.141 415.844,218.141 416.115,218.141 416.386,218.141 416.657,218.141 416.927,218.141 417.198,218.141 417.469,218.141 417.740,218.141 418.011,218.141 418.282,218.141 418.552,218.141 418.823,218.141 419.094,218.141 419.365,218.141 419.636,218.141 419.906,218.141 420.177,218.141 420.448,218.141 420.719,218.141 420.990,218.141 421.261,218.141 421.531,218.141 421.802,218.141 422.073,218.141 422.344,218.141 422.615,218.141 422.885,218.141 423.156,218.141 423.427,218.141 423.698,218.141 423.969,218.141 424.240,218.141 424.510,218.141 424.781,218.141 425.052,218.141 425.323,218.141 425.594,218.141 425.865,218.141 426.135,218.141 426.406,218.141 426.677,218.141 426.948,218.141 427.219,218.141 427.489,218.141 427.760,218.141 428.031,218.141 428.302,218.141 428.573,218.141 428.844,218.141 429.114,218.141 429.385,218.141 429.656,218.141 429.927,218.141 430.198,218.141 430.469,218.141 430.739,218.141 431.010,218.141 431.281,218.141 431.552,218.141 431.823,218.141 432.093,218.141 432.364,218.141 432.635,218.141 432.906,218.141 433.177,218.141 433.448,218.141 433.718,218.141 433.989,218.141 434.260,218.141 434.531,218.141 434.802,218.141 435.073,218.141 435.343,218.141 435.614,218.141 435.885,218.141 436.156,218.141 436.427,218.141 436.697,218.141 436.968,218.141 437.239,218.141 437.510,218.141 437.781,218.141 438.052,218.141 438.322,218.141 438.593,218.141 438.864,218.141 439.135,218.141 439.406,218.141 439.677,218.141 439.947,218.141 440.218,218.141 440.489,218.141 440.760,218.141 441.031,218.141 441.301,218.141 441.572,218.141 441.843,218.141 442.114,218.141 442.385,218.141 442.656,218.141 442.926,218.141 443.197,218.141 443.468,218.141 443.739,218.141 444.010,218.141 444.280,218.141 444.551,218.141 444.822,218.141 445.093,218.141 445.364,218.141 445.635,218.141 445.905,218.141 446.176,218.141 446.447,218.141 446.718,218.141 446.989,218.141 447.260,218.141 447.530,218.141 447.801,218.141 448.072,218.141 448.343,218.141 448.614,218.141 448.884,218.141 449.155,218.141 449.426,218.141 449.697,218.141 449.968,218.141 450.239,218.141 450.509,218.141 450.780,218.141 451.051,218.141 451.322,218.141 451.593,218.141 451.864,218.141 452.134,218.141 452.405,218.141 452.676,218.141 452.947,218.141 453.218,218.141 453.488,218.141 453.759,218.141 454.030,218.141 454.301,218.141 454.572,218.141 454.843,218.141 455.113,218.141 455.384,218.141 455.655,218.141 455.926,218.141 456.197,218.141 456.468,218.141 456.738,218.141 457.009,50.918 457.280,218.141 457.551,218.141 457.822,218.141 458.092,218.141 458.363,218.141 458.634,218.141 458.905,218.141 459.176,218.141 459.447,218.141 459.717,218.141 459.988,218.141 460.259,218.141 460.530,218.141 460.801,218.141 461.072,218.141 461.342,218.141 461.613,218.141 461.884,218.141 462.155,218.141 462.426,218.141 462.696,218.141 462.967,218.141 463.238,218.141 463.509,218.141 463.780,218.141 464.051,218.141 464.321,218.141 464.592,218.141 464.863,218.141 465.134,218.141 465.405,218.141 465.675,218.141 465.946,218.141 466.217,218.141 466.488,218.141 466.759,218.141 467.030,218.141 467.300,218.141 467.571,218.141 467.842,218.141 468.113,218.141 468.384,218.141 468.655,218.141 468.925,218.141 469.196,218.141 469.467,218.141 469.738,218.141 470.009,218.141 470.279,218.141 470.550,218.141 470.821,218.141 471.092,218.141 471.363,218.141 471.634,218.141 471.904,218.141 472.175,218.141 472.446,218.141 472.717,218.141 472.988,218.141 473.259,218.141 473.529,218.141 473.800,218.141 474.071,218.141 474.342,218.141 474.613,218.141 474.883,218.141 475.154,218.141 475.425,218.141 475.696,218.141 475.967,218.141 476.238,218.141 476.508,218.141 476.779,218.141 477.050,218.141 477.321,218.141 477.592,218.141 477.863,218.141 478.133,218.141 478.404,218.141 478.675,218.141 478.946,218.141 479.217,218.141 479.487,218.141 479.758,218.141 480.029,218.141 480.300,218.141 480.571,218.141 480.842,218.141 481.112,218.141 481.383,218.141 481.654,218.141 481.925,218.141 482.196,218.141 482.467,218.141 482.737,218.141 483.008,218.141 483.279,218.141 483.550,218.141 483.821,218.141 484.091,218.141 484.362,218.141 484.633,218.141 484.904,218.141 485.175,218.141 485.446,218.141 485.716,218.141 485.987,218.141 486.258,218.141 486.529,218.141 486.800,218.141 487.071,218.141 487.341,218.141 487.612,218.141 487.883,218.141 488.154,218.141 488.425,218.141 488.695,218.141 488.966,218.141 489.237,218.141 489.508,218.141 489.779,218.141 490.050,218.141 490.320,218.141 490.591,218.141 490.862,218.141 491.133,218.141 491.404,218.141 491.674,218.141 491.945,218.141 492.216,218.141 492.487,218.141 492.758,218.141 493.029,218.141 493.299,218.141 493.570,218.141 493.841,218.141 494.112,218.141 494.383,218.141 494.654,218.141 494.924,218.141 495.195,218.141 495.466,218.141 495.737,218.141 496.008,218.141 496.278,218.141 496.549,218.141 496.820,218.141 497.091,218.141 497.362,218.141 497.633,218.141 497.903,218.141 498.174,218.141 498.445,218.141 498.716,218.141 498.987,218.141 499.258,218.141 499.528,218.141 499.799,218.141 500.070,218.141 500.341,218.141 500.612,218.141 500.882,218.141 501.153,218.141 501.424,218.141 501.695,218.141 501.966,218.141 502.237,218.141 502.507,218.141 502.778,218.141 503.049,218.141 503.320,218.141 503.591,218.141 503.862,218.141 504.132,218.141 504.403,218.141 504.674,218.141 504.945,218.141 505.216,218.141 505.486,218.141 505.757,218.141 506.028,218.141 506.299,218.141 506.570,218.141 506.841,218.141 507.111,218.141 507.382,218.141 507.653,218.141 507.924,218.141 508.195,218.141 508.466,218.141 508.736,218.141 509.007,218.141 509.278,218.141 509.549,218.141 509.820,218.141 510.090,218.141 510.361,218.141 510.632,218.141 510.903,218.141 511.174,218.141 511.445,218.141 511.715,218.141 511.986,218.141 512.257,218.141 512.528,218.141 512.799,218.141 513.069,218.141 513.340,218.141 513.611,218.141 513.882,218.141 514.153,218.141 514.424,218.141 514.694,218.141 514.965,218.141 515.236,218.141 515.507,218.141 515.778,218.141 516.049,218.141 516.319,218.141 516.590,218.141 516.861,218.141 517.132,218.141 517.403,218.141 517.673,218.141 517.944,218.141 518.215,218.141 518.486,218.141 518.757,218.141 519.028,218.141 519.298,218.141 519.569,218.141 519.840,218.141 520.111,218.141 520.382,218.141 520.653,218.141 520.923,218.141 521.194,218.141 521.465,218.141 521.736,218.141 522.007,218.141 522.277,218.141 522.548,218.141 522.819,218.141 523.090,218.141 523.361,218.141 523.632,218.141 523.902,218.141 524.173,218.141 524.444,218.141 524.715,218.141 524.986,218.141 525.257,218.141 525.527,218.141 525.798,218.141 526.069,218.141 526.340,218.141 526.611,218.141 526.881,218.141 527.152,218.141 527.423,218.141 527.694,218.141 527.965,218.141 528.236,218.141 528.506,218.141 528.777,218.141 529.048,218.141 529.319,218.141 529.590,218.141 529.861,218.141 530.131,218.141 530.402,218.141 530.673,218.141 530.944,218.141 531.215,218.141 531.485,218.141 531.756,218.141 532.027,218.141 532.298,218.141 532.569,218.141 532.840,218.141 533.110,218.141 533.381,218.141 533.652,218.141 533.923,218.141 534.194,218.141 534.464,218.141 534.735,218.141 535.006,218.141 535.277,218.141 535.548,218.141 535.819,218.141 536.089,218.141 536.360,218.141 536.631,218.141 536.902,218.141 537.173,218.141 537.444,218.141 537.714,218.141 537.985,218.141 538.256,218.141 538.527,218.141 538.798,218.141 539.068,218.141 539.339,218.141 539.610,218.141 539.881,218.141 540.152,218.141 540.423,218.141 540.693,218.141 540.964,218.141 541.235,218.141 541.506,218.141 541.777,218.141 542.048,218.141 542.318,218.141 542.589,218.141 542.860,218.141 543.131,218.141 543.402,218.141 543.672,218.141 543.943,218.141 544.214,218.141 544.485,218.141 544.756,218.141 545.027,218.141 545.297,218.141 545.568,218.141 545.839,218.141 546.110,218.141 546.381,218.141 546.652,218.141 546.922,218.141 547.193,218.141 547.464,218.141 547.735,218.141 548.006,218.141 548.276,218.141 548.547,218.141 548.818,218.141 549.089,218.141 549.360,218.141 549.631,218.141 549.901,218.141 550.172,218.141 550.443,218.141 550.714,218.141 550.985,218.141 551.256,218.141 551.526,218.141 551.797,218.141 552.068,218.141 552.339,218.141 552.610,218.141 552.880,218.141 553.151,218.141 553.422,218.141 553.693,218.141 553.964,218.141 554.235,218.141 554.505,218.141 554.776,218.141 555.047,218.141 555.318,218.141 555.589,218.141 555.860,218.141 556.130,218.141 556.401,218.141 556.672,218.141 556.943,218.141 557.214,218.141 557.484,218.141 557.755,218.141 558.026,218.141 558.297,218.141 558.568,218.141 558.839,218.141 559.109,218.141 559.380,218.141 559.651,218.141 559.922,218.141 560.193,218.141 560.463,218.141 560.734,218.141 561.005,218.141 561.276,218.141 561.547,218.141 561.818,218.141 562.088,218.141 562.359,218.141 562.630,218.141 562.901,218.141 563.172,218.141 563.443,218.141 563.713,218.141 563.984,218.141 564.255,218.141 564.526,218.141 564.797,218.141 565.067,218.141 565.338,218.141 565.609,218.141 565.880,218.141 566.151,218.141 566.422,218.141 566.692,218.141 566.963,218.141 567.234,218.141 567.505,218.141 567.776,218.141 568.047,218.141 568.317,218.141 568.588,218.141 568.859,218.141 569.130,218.141 569.401,218.141 569.671,218.141 569.942,218.141 570.213,218.141 570.484,218.141 570.755,218.141 571.026,218.141 571.296,218.141 571.567,218.141 571.838,218.141 572.109,218.141 572.380,218.141 572.651,218.141 572.921,218.141 573.192,218.141 573.463,218.141 573.734,218.141 574.005,218.141 574.275,218.141 574.546,218.141 574.817,218.141 575.088,218.141 575.359,218.141 575.630,218.141 575.900,218.141 576.171,218.141 576.442,218.141 576.713,218.141 576.984,218.141 577.255,218.141 577.525,218.141 577.796,218.141 578.067,218.141 578.338,218.141 578.609,218.141 578.879,218.141 579.150,218.141 579.421,218.141 579.692,218.141 579.963,218.141 580.234,218.141 580.504,218.141 580.775,218.141 581.046,218.141 581.317,218.141 581.588,218.141 581.858,218.141 582.129,218.141 582.400,218.141 582.671,218.141 582.942,218.141 583.213,218.141 583.483,218.141 583.754,218.141 584.025,218.141 584.296,218.141 584.567,218.141 584.838,218.141 585.108,218.141 585.379,218.141 585.650,218.141 585.921,218.141 586.192,218.141 586.462,218.141 586.733,218.141 587.004,218.141 587.275,218.141 587.546,218.141 587.817,218.141 588.087,218.141 588.358,218.141 588.629,218.141 588.900,218.141 589.171,218.141 589.442,218.141 589.712,218.141 589.983,218.141 590.254,218.141 590.525,218.141 590.796,218.141 591.066,218.141 591.337,218.141 591.608,218.141 591.879,218.141 592.150,218.141 592.421,218.141 592.691,218.141 592.962,218.141 593.233,218.141 593.504,218.141 593.775,218.141 594.046,218.141 594.316,218.141 594.587,218.141 594.858,218.141 595.129,218.141 595.400,218.141 595.670,218.141 595.941,218.141 596.212,218.141 596.483,218.141 596.754,218.141 597.025,218.141 597.295,218.141 597.566,218.141 597.837,218.141 598.108,218.141 598.379,218.141 598.650,218.141 598.920,218.141 599.191,218.141 599.462,218.141 599.733,218.141 600.004,218.141 600.274,218.141 600.545,218.141 600.816,218.141 601.087,218.141 601.358,218.141 601.629,218.141 601.899,218.141 602.170,218.141 602.441,218.141 602.712,218.141 602.983,218.141 603.253,218.141 603.524,218.141 603.795,218.141 604.066,218.141 604.337,218.141 604.608,218.141 604.878,218.141 605.149,218.141 605.420,218.141 605.691,218.141 605.962,218.141 606.233,218.141 606.503,218.141 606.774,218.141 607.045,218.141 607.316,218.141 607.587,218.141 607.857,218.141 608.128,218.141 608.399,218.141 608.670,218.141 608.941,218.141 609.212,218.141 609.482,218.141 609.753,218.141 610.024,218.141 610.295,218.141 610.566,218.141 610.837,218.141 611.107,218.141 611.378,218.141 611.649,218.141 611.920,218.141 612.191,218.141 612.461,218.141 612.732,218.141 613.003,218.141 613.274,218.141 613.545,218.141 613.816,218.141 614.086,218.141 614.357,218.141 614.628,218.141 614.899,218.141 615.170,218.141 615.441,218.141 615.711,218.141 615.982,218.141 616.253,218.141 616.524,218.141 616.795,218.141 617.065,218.141 617.336,218.141 617.607,218.141 617.878,218.141 618.149,218.141 618.420,218.141 618.690,218.141 618.961,218.141 619.232,218.141 619.503,218.141 619.774,218.141 620.045,218.141 620.315,218.141 620.586,218.141 620.857,218.141 621.128,218.141 621.399,218.141 621.669,218.141 621.940,218.141 622.211,218.141 622.482,218.141 622.753,218.141 623.024,218.141 623.294,218.141 623.565,218.141 623.836,218.141 624.107,218.141 624.378,218.141 624.649,218.141 624.919,218.141 625.190,218.141 625.461,218.141 625.732,218.141 626.003,218.141 626.273,218.141 626.544,218.141 626.815,218.141 627.086,218.141 627.357,218.141 627.628,218.141 627.898,218.141 628.169,218.141 628.440,218.141 628.711,218.141 628.982,218.141 629.252,218.141 629.523,218.141 629.794,218.141 630.065,218.141 630.336,218.141 630.607,218.141 630.877,218.141 631.148,218.141 631.419,218.141 631.690,218.141 631.961,218.141 632.232,218.141 632.502,218.141 "/>
<g>
</g>
</g>
<g id="ID000003" >
  <g transform="translate(361.056,30.565)">
    <g transform="rotate(-0.0)">
      <text x="0.000" y="0.000" font-family="Helvetica" text-anchor="middle" font-size="12pt" fill="#000000" >l = 0.31, x* = -0.50</text>
    </g>
  </g>
</g>
<g id="ID000004" >
</g>
<g id="ID000005" >
</g>
    </g>
    <g>
      <polyline fill="none" stroke="#000000" stroke-width="0.5pt" stroke-dasharray="none" points="145.021,218.141 145.021,212.725 "/>
      <polyline fill="none" stroke="#000000" stroke-width="0.5pt" stroke-dasharray="none" points="199.186,218.141 199.186,212.725 "/>
      <polyline fill="none" stroke="#000000" stroke-width="0.5pt" stroke-dasharray="none" points="253.350,218.141 253.350,212.725 "/>
      <polyline fill="none" stroke="#000000" stroke-width="0.5pt" stroke-dasharray="none" points="307.515,218.141 307.515,212.725 "/>
      <polyline fill="none" stroke="#000000" stroke-width="0.5pt" stroke-dasharray="none" points="361.680,218.141 361.680,212.725 "/>
      <polyline fill="none" stroke="#000000" stroke-width="0.5pt" stroke-dasharray="none" points="415.844,218.141 415.844,212.725 "/>
      <polyline fill="none" stroke="#000000" stroke-width="0.5pt" stroke-dasharray="none" points="470.009,218.141 470.009,212.725 "/>
      <polyline fill="none" stroke="#000000" stroke-width="0.5pt" stroke-dasharray="none" points="524.173,218.141 524.173,212.725 "/>
      <polyline fill="none" stroke="#000000" stroke-width="0.5pt" stroke-dasharray="none" points="578.338,218.141 578.338,212.725 "/>
      <polyline fill="none" stroke="#000000" stroke-width="0.5pt" stroke-dasharray="none" points="90.857,218.141 632.502,218.141 "/>
      <polyline fill="none" stroke="#000000" stroke-width="0.5pt" stroke-dasharray="none" points="145.021,39.313 145.021,44.729 "/>
      <polyline fill="none" stroke="#000000" stroke-width="0.5pt" stroke-dasharray="none" points="199.186,39.313 199.186,44.729 "/>
      <polyline fill="none" stroke="#000000" stroke-width="0.5pt" stroke-dasharray="none" points="253.350,39.313 253.350,44.729 "/>
      <polyline fill="none" stroke="#000000" stroke-width="0.5pt" stroke-dasharray="none" points="307.515,39.313 307.515,44.729 "/>
      <polyline fill="none" stroke="#000000" stroke-width="0.5pt" stroke-dasharray="none" points="361.680,39.313 361.680,44.729 "/>
      <polyline fill="none" stroke="#000000" stroke-width="0.5pt" stroke-dasharray="none" points="415.844,39.313 415.844,44.729 "/>
      <polyline fill="none" stroke="#000000" stroke-width="0.5pt" stroke-dasharray="none" points="470.009,39.313 470.009,44.729 "/>
      <polyline fill="none" stroke="#000000" stroke-width="0.5pt" stroke-dasharray="none" points="524.173,39.313 524.173,44.729 "/>
      <polyline fill="none" stroke="#000000" stroke-width="0.5pt" stroke-dasharray="none" points="578.338,39.313 578.338,44.729 "/>
      <polyline fill="none" stroke="#000000" stroke-width="0.5pt" stroke-dasharray="none" points="90.857,39.313 632.502,39.313 "/>
  <g transform="translate(90.857,236.445)">
    <g transform="rotate(-0.0)">
      <text x="0.000" y="0.000" font-family="Helvetica" text-anchor="middle" font-size="12pt" fill="#000000" >-1</text>
    </g>
  </g>
  <g transform="translate(145.021,236.445)">
    <g transform="rotate(-0.0)">
      <text x="0.000" y="0.000" font-family="Helvetica" text-anchor="middle" font-size="12pt" fill="#000000" >-0.8</text>
    </g>
  </g>
  <g transform="translate(199.186,236.445)">
    <g transform="rotate(-0.0)">
      <text x="0.000" y="0.000" font-family="Helvetica" text-anchor="middle" font-size="12pt" fill="#000000" >-0.6</text>
    </g>
  </g>
  <g transform="translate(253.350,236.445)">
    <g transform="rotate(-0.0)">
      <text x="0.000" y="0.000" font-family="Helvetica" text-anchor="middle" font-size="12pt" fill="#000000" >-0.4</text>
    </g>
  </g>
  <g transform="translate(307.515,236.445)">
    <g transform="rotate(-0.0)">
      <text x="0.000" y="0.000" font-family="Helvetica" text-anchor="middle" font-size="12pt" fill="#000000" >-0.2</text>
    </g>
  </g>
  <g transform="translate(361.680,236.445)">
    <g transform="rotate(-0.0)">
      <text x="0.000" y="0.000" font-family="Helvetica" text-anchor="middle" font-size="12pt" fill="#000000" >0</text>
    </g>
  </g>
  <g transform="translate(415.844,236.445)">
    <g transform="rotate(-0.0)">
      <text x="0.000" y="0.000" font-family="Helvetica" text-anchor="middle" font-size="12pt" fill="#000000" >0.2</text>
    </g>
  </g>
  <g transform="translate(470.009,236.445)">
    <g transform="rotate(-0.0)">
      <text x="0.000" y="0.000" font-family="Helvetica" text-anchor="middle" font-size="12pt" fill="#000000" >0.4</text>
    </g>
  </g>
  <g transform="translate(524.173,236.445)">
    <g transform="rotate(-0.0)">
      <text x="0.000" y="0.000" font-family="Helvetica" text-anchor="middle" font-size="12pt" fill="#000000" >0.6</text>
    </g>
  </g>
  <g transform="translate(578.338,236.445)">
    <g transform="rotate(-0.0)">
      <text x="0.000" y="0.000" font-family="Helvetica" text-anchor="middle" font-size="12pt" fill="#000000" >0.8</text>
    </g>
  </g>
  <g transform="translate(632.502,236.445)">
    <g transform="rotate(-0.0)">
      <text x="0.000" y="0.000" font-family="Helvetica" text-anchor="middle" font-size="12pt" fill="#000000" >1</text>
    </g>
  </g>
      <polyline fill="none" stroke="#000000" stroke-width="0.5pt" stroke-dasharray="none" points="90.857,173.434 96.273,173.434 "/>
      <polyline fill="none" stroke="#000000" stroke-width="0.5pt" stroke-dasharray="none" points="90.857,128.727 96.273,128.727 "/>
      <polyline fill="none" stroke="#000000" stroke-width="0.5pt" stroke-dasharray="none" points="90.857,84.020 96.273,84.020 "/>
      <polyline fill="none" stroke="#000000" stroke-width="0.5pt" stroke-dasharray="none" points="90.857,218.141 90.857,39.313 "/>
      <polyline fill="none" stroke="#000000" stroke-width="0.5pt" stroke-dasharray="none" points="632.502,173.434 627.086,173.434 "/>
      <polyline fill="none" stroke="#000000" stroke-width="0.5pt" stroke-dasharray="none" points="632.502,128.727 627.086,128.727 "/>
      <polyline fill="none" stroke="#000000" stroke-width="0.5pt" stroke-dasharray="none" points="632.502,84.020 627.086,84.020 "/>
      <polyline fill="none" stroke="#000000" stroke-width="0.5pt" stroke-dasharray="none" points="632.502,218.141 632.502,39.313 "/>
  <g transform="translate(80.024,223.758)">
    <g transform="rotate(-0.0)">
      <text x="0.000" y="0.000" font-family="Helvetica" text-anchor="end" font-size="12pt" fill="#000000" >0</text>
    </g>
  </g>
  <g transform="translate(80.024,179.050)">
    <g transform="rotate(-0.0)">
      <text x="0.000" y="0.000" font-family="Helvetica" text-anchor="end" font-size="12pt" fill="#000000" >1</text>
    </g>
  </g>
  <g transform="translate(80.024,134.343)">
    <g transform="rotate(-0.0)">
      <text x="0.000" y="0.000" font-family="Helvetica" text-anchor="end" font-size="12pt" fill="#000000" >2</text>
    </g>
  </g>
  <g transform="translate(80.024,89.636)">
    <g transform="rotate(-0.0)">
      <text x="0.000" y="0.000" font-family="Helvetica" text-anchor="end" font-size="12pt" fill="#000000" >3</text>
    </g>
  </g>
  <g transform="translate(80.024,44.929)">
    <g transform="rotate(-0.0)">
      <text x="0.000" y="0.000" font-family="Helvetica" text-anchor="end" font-size="12pt" fill="#000000" >4</text>
    </g>
  </g>
      <polyline fill="none" stroke="#000000" stroke-width="0.5pt" stroke-dasharray="none" points="90.857,218.141 90.857,216.353 "/>
      <polyline fill="none" stroke="#000000" stroke-width="0.5pt" stroke-dasharray="none" points="90.857,218.141 90.857,218.141 "/>
  <g transform="translate(90.857,31.193)">
    <g transform="rotate(-0.0)">
      <text x="0.000" y="0.000" font-family="Helvetica" text-anchor="start" font-size="12pt" fill="#000000" >&#215; 10<tspan font-size="7.0pt" dy="-7.0pt">-6</tspan></text>
    </g>
  </g>
    </g>
  </g>
  <g id ="ID000006">
  <clipPath id="ID000007">
    <rect x="90.857" y="287.686" width="541.646" height="178.828"/>
  </clipPath>
      <polygon fill="#ffffff" fill-opacity="1.00" stroke="none" stroke-width="0.5pt" stroke-opacity="1.00" stroke-dasharray="none" points="90.857,466.514 632.502,466.514 632.502,287.686 90.857,287.686 "/>
      <polygon fill="#ffffff" fill-opacity="1.00" stroke="none" stroke-width="0.5pt" stroke-opacity="1.00" stroke-dasharray="none" points="90.857,287.686 632.502,287.686 632.502,287.686 90.857,287.686 "/>
      <polygon fill="#ffffff" fill-opacity="1.00" stroke="none" stroke-width="0.5pt" stroke-opacity="1.00" stroke-dasharray="none" points="90.857,466.514 90.857,466.514 90.857,287.686 90.857,287.686 "/>
    <g>
<g id="ID000008" clip-path="url(#ID000007)" >
      <polyline fill="none" stroke="#0000ff" stroke-width="0.5pt" stroke-dasharray="none" points="90.857,466.514 91.128,466.514 91.398,466.514 91.669,466.514 91.940,466.514 92.211,466.514 92.482,466.514 92.752,466.514 93.023,466.514 93.294,466.514 93.565,466.514 93.836,466.514 94.107,466.514 94.377,466.514 94.648,466.514 94.919,466.514 95.190,466.514 95.461,466.514 95.732,466.514 96.002,466.514 96.273,466.514 96.544,466.514 96.815,466.514 97.086,466.514 97.356,466.514 97.627,466.514 97.898,466.514 98.169,466.514 98.440,466.514 98.711,466.514 98.981,466.514 99.252,466.514 99.523,466.514 99.794,466.514 100.065,466.514 100.335,466.514 100.606,466.514 100.877,466.514 101.148,466.514 101.419,466.514 101.690,466.514 101.960,466.514 102.231,466.514 102.502,466.514 102.773,466.514 103.044,466.514 103.315,466.514 103.585,466.514 103.856,466.514 104.127,466.514 104.398,466.514 104.669,466.514 104.939,466.514 105.210,466.514 105.481,466.514 105.752,466.514 106.023,466.514 106.294,466.514 106.564,466.514 106.835,466.514 107.106,466.514 107.377,466.514 107.648,466.514 107.919,466.514 108.189,466.514 108.460,466.514 108.731,466.514 109.002,466.514 109.273,466.514 109.543,466.514 109.814,466.514 110.085,466.514 110.356,466.514 110.627,466.514 110.898,466.514 111.168,466.514 111.439,466.514 111.710,466.514 111.981,466.514 112.252,466.514 112.523,466.514 112.793,466.514 113.064,466.514 113.335,466.514 113.606,466.514 113.877,466.514 114.147,466.514 114.418,466.514 114.689,466.514 114.960,466.514 115.231,466.514 115.502,466.514 115.772,466.514 116.043,466.514 116.314,466.514 116.585,466.514 116.856,466.514 117.127,466.514 117.397,466.514 117.668,466.514 117.939,466.514 118.210,466.514 118.481,466.514 118.751,466.514 119.022,466.514 119.293,466.514 119.564,466.514 119.835,466.514 120.106,466.514 120.376,466.514 120.647,466.514 120.918,466.514 121.189,466.514 121.460,466.514 121.730,466.514 122.001,466.514 122.272,466.514 122.543,466.514 122.814,466.514 123.085,466.514 123.355,466.514 123.626,466.514 123.897,466.514 124.168,466.514 124.439,466.514 124.710,466.514 124.980,466.514 125.251,466.514 125.522,466.514 125.793,466.514 126.064,466.514 126.334,466.514 126.605,466.514 126.876,466.514 127.147,466.514 127.418,466.514 127.689,466.514 127.959,466.514 128.230,466.514 128.501,466.514 128.772,466.514 129.043,466.514 129.314,466.514 129.584,466.514 129.855,466.514 130.126,466.514 130.397,466.514 130.668,466.514 130.938,466.514 131.209,466.514 131.480,466.514 131.751,466.514 132.022,466.514 132.293,466.514 132.563,466.514 132.834,466.514 133.105,466.514 133.376,466.514 133.647,466.514 133.918,466.514 134.188,466.514 134.459,466.514 134.730,466.514 135.001,466.514 135.272,466.514 135.542,466.514 135.813,466.514 136.084,466.514 136.355,466.514 136.626,466.514 136.897,466.514 137.167,466.514 137.438,466.514 137.709,466.514 137.980,466.514 138.251,466.514 138.522,466.514 138.792,466.514 139.063,466.514 139.334,466.514 139.605,466.514 139.876,466.514 140.146,466.514 140.417,466.514 140.688,466.514 140.959,466.514 141.230,466.514 141.501,466.514 141.771,466.514 142.042,466.514 142.313,466.514 142.584,466.514 142.855,466.514 143.126,466.514 143.396,466.514 143.667,466.514 143.938,466.514 144.209,466.514 144.480,466.514 144.750,466.514 145.021,466.514 145.292,466.514 145.563,466.514 145.834,466.514 146.105,466.514 146.375,466.514 146.646,466.514 146.917,466.514 147.188,466.514 147.459,466.514 147.729,466.514 148.000,466.514 148.271,466.514 148.542,466.514 148.813,466.514 149.084,466.514 149.354,466.514 149.625,466.514 149.896,466.514 150.167,466.514 150.438,466.514 150.709,466.514 150.979,466.514 151.250,466.514 151.521,466.514 151.792,466.514 152.063,466.514 152.333,466.514 152.604,466.514 152.875,466.514 153.146,466.514 153.417,466.514 153.688,466.514 153.958,466.514 154.229,466.514 154.500,466.514 154.771,466.514 155.042,466.514 155.313,466.514 155.583,466.514 155.854,466.514 156.125,466.514 156.396,466.514 156.667,466.514 156.937,466.514 157.208,466.514 157.479,466.514 157.750,466.514 158.021,466.514 158.292,466.514 158.562,466.514 158.833,466.514 159.104,466.514 159.375,466.514 159.646,466.514 159.917,466.514 160.187,466.514 160.458,466.514 160.729,466.514 161.000,466.514 161.271,466.514 161.541,466.514 161.812,466.514 162.083,466.514 162.354,466.514 162.625,466.514 162.896,466.514 163.166,466.514 163.437,466.514 163.708,466.514 163.979,466.514 164.250,466.514 164.521,466.514 164.791,466.514 165.062,466.514 165.333,466.514 165.604,466.514 165.875,466.514 166.145,466.514 166.416,466.514 166.687,466.514 166.958,466.514 167.229,466.514 167.500,466.514 167.770,466.514 168.041,466.514 168.312,466.514 168.583,466.514 168.854,466.514 169.124,466.514 169.395,466.514 169.666,466.514 169.937,466.514 170.208,466.514 170.479,466.514 170.749,466.514 171.020,466.514 171.291,466.514 171.562,466.514 171.833,466.514 172.104,466.514 172.374,466.514 172.645,466.514 172.916,466.514 173.187,466.514 173.458,466.514 173.728,466.514 173.999,466.514 174.270,466.514 174.541,466.514 174.812,466.514 175.083,466.514 175.353,466.514 175.624,466.514 175.895,466.514 176.166,466.514 176.437,466.514 176.708,466.514 176.978,466.514 177.249,466.514 177.520,466.514 177.791,466.514 178.062,466.514 178.332,466.514 178.603,466.514 178.874,466.514 179.145,466.514 179.416,466.514 179.687,466.514 179.957,466.514 180.228,466.514 180.499,466.514 180.770,466.514 181.041,466.514 181.312,466.514 181.582,466.514 181.853,466.514 182.124,466.514 182.395,466.514 182.666,466.514 182.936,466.514 183.207,466.514 183.478,466.514 183.749,466.514 184.020,466.514 184.291,466.514 184.561,466.514 184.832,466.514 185.103,466.514 185.374,466.514 185.645,466.514 185.916,466.514 186.186,466.514 186.457,466.513 186.728,466.513 186.999,466.513 187.270,466.513 187.540,466.513 187.811,466.513 188.082,466.513 188.353,466.513 188.624,466.513 188.895,466.513 189.165,466.513 189.436,466.513 189.707,466.513 189.978,466.513 190.249,466.513 190.519,466.513 190.790,466.513 191.061,466.513 191.332,466.513 191.603,466.513 191.874,466.513 192.144,466.513 192.415,466.513 192.686,466.513 192.957,466.513 193.228,466.513 193.499,466.513 193.769,466.513 194.040,466.513 194.311,466.513 194.582,466.513 194.853,466.513 195.123,466.513 195.394,466.513 195.665,466.513 195.936,466.513 196.207,466.513 196.478,466.512 196.748,466.512 197.019,466.512 197.290,466.512 197.561,466.512 197.832,466.512 198.103,466.512 198.373,466.512 198.644,466.512 198.915,466.512 199.186,466.512 199.457,466.512 199.727,466.512 199.998,466.512 200.269,466.512 200.540,466.512 200.811,466.512 201.082,466.512 201.352,466.512 201.623,466.512 201.894,466.511 202.165,466.511 202.436,466.511 202.707,466.511 202.977,466.511 203.248,466.511 203.519,466.511 203.790,466.511 204.061,466.511 204.331,466.511 204.602,466.511 204.873,466.511 205.144,466.511 205.415,466.510 205.686,466.510 205.956,466.510 206.227,466.510 206.498,466.510 206.769,466.510 207.040,466.510 207.311,466.510 207.581,466.510 207.852,466.510 208.123,466.510 208.394,466.509 208.665,466.509 208.935,466.509 209.206,466.509 209.477,466.509 209.748,466.509 210.019,466.509 210.290,466.509 210.560,466.508 210.831,466.508 211.102,466.508 211.373,466.508 211.644,466.508 211.915,466.508 212.185,466.508 212.456,466.507 212.727,466.507 212.998,466.507 213.269,466.507 213.539,466.507 213.810,466.507 214.081,466.506 214.352,466.506 214.623,466.506 214.894,466.506 215.164,466.506 215.435,466.506 215.706,466.505 215.977,466.505 216.248,466.505 216.518,466.505 216.789,466.505 217.060,466.504 217.331,466.504 217.602,466.504 217.873,466.504 218.143,466.503 218.414,466.503 218.685,466.503 218.956,466.503 219.227,466.502 219.498,466.502 219.768,466.502 220.039,466.502 220.310,466.501 220.581,466.501 220.852,466.501 221.122,466.501 221.393,466.500 221.664,466.500 221.935,466.500 222.206,466.499 222.477,466.499 222.747,466.499 223.018,466.498 223.289,466.498 223.560,466.498 223.831,466.497 224.102,466.497 224.372,466.496 224.643,466.496 224.914,466.496 225.185,466.495 225.456,466.495 225.726,466.494 225.997,466.494 226.268,466.494 226.539,466.493 226.810,466.493 227.081,466.492 227.351,466.492 227.622,466.491 227.893,466.491 228.164,466.490 228.435,466.490 228.706,466.489 228.976,466.489 229.247,466.488 229.518,466.488 229.789,466.487 230.060,466.487 230.330,466.486 230.601,466.485 230.872,466.485 231.143,466.484 231.414,466.484 231.685,466.483 231.955,466.482 232.226,466.482 232.497,466.481 232.768,466.480 233.039,466.479 233.310,466.479 233.580,466.478 233.851,466.477 234.122,466.476 234.393,466.476 234.664,466.475 234.934,466.474 235.205,466.473 235.476,466.472 235.747,466.472 236.018,466.471 236.289,466.470 236.559,466.469 236.830,466.468 237.101,466.467 237.372,466.466 237.643,466.465 237.913,466.464 238.184,466.463 238.455,466.462 238.726,466.461 238.997,466.460 239.268,466.459 239.538,466.458 239.809,466.456 240.080,466.455 240.351,466.454 240.622,466.453 240.893,466.452 241.163,466.450 241.434,466.449 241.705,466.448 241.976,466.446 242.247,466.445 242.517,466.444 242.788,466.442 243.059,466.441 243.330,466.439 243.601,466.438 243.872,466.436 244.142,466.435 244.413,466.433 244.684,466.432 244.955,466.430 245.226,466.428 245.497,466.427 245.767,466.425 246.038,466.423 246.309,466.421 246.580,466.420 246.851,466.418 247.121,466.416 247.392,466.414 247.663,466.412 247.934,466.410 248.205,466.408 248.476,466.406 248.746,466.404 249.017,466.402 249.288,466.399 249.559,466.397 249.830,466.395 250.101,466.393 250.371,466.390 250.642,466.388 250.913,466.385 251.184,466.383 251.455,466.380 251.725,466.378 251.996,466.375 252.267,466.373 252.538,466.370 252.809,466.367 253.080,466.364 253.350,466.362 253.621,466.359 253.892,466.356 254.163,466.353 254.434,466.350 254.705,466.347 254.975,466.343 255.246,466.340 255.517,466.337 255.788,466.334 256.059,466.330 256.329,466.327 256.600,466.323 256.871,466.320 257.142,466.316 257.413,466.312 257.684,466.309 257.954,466.305 258.225,466.301 258.496,466.297 258.767,466.293 259.038,466.289 259.308,466.285 259.579,466.280 259.850,466.276 260.121,466.272 260.392,466.267 260.663,466.263 260.933,466.258 261.204,466.254 261.475,466.249 261.746,466.244 262.017,466.239 262.288,466.234 262.558,466.229 262.829,466.224 263.100,466.219 263.371,466.213 263.642,466.208 263.912,466.202 264.183,466.197 264.454,466.191 264.725,466.185 264.996,466.179 265.267,466.173 265.537,466.167 265.808,466.161 266.079,466.155 266.350,466.148 266.621,466.142 266.892,466.135 267.162,466.129 267.433,466.122 267.704,466.115 267.975,466.108 268.246,466.101 268.516,466.093 268.787,466.086 269.058,466.078 269.329,466.071 269.600,466.063 269.871,466.055 270.141,466.047 270.412,466.039 270.683,466.031 270.954,466.023 271.225,466.014 271.496,466.005 271.766,465.997 272.037,465.988 272.308,465.979 272.579,465.969 272.850,465.960 273.120,465.951 273.391,465.941 273.662,465.931 273.933,465.921 274.204,465.911 274.475,465.901 274.745,465.890 275.016,465.880 275.287,465.869 275.558,465.858 275.829,465.847 276.100,465.836 276.370,465.824 276.641,465.813 276.912,465.801 277.183,465.789 277.454,465.777 277.724,465.765 277.995,465.752 278.266,465.739 278.537,465.727 278.808,465.713 279.079,465.700 279.349,465.687 279.620,465.673 279.891,465.659 280.162,465.645 280.433,465.631 280.704,465.616 280.974,465.602 281.245,465.587 281.516,465.571 281.787,465.556 282.058,465.540 282.328,465.525 282.599,465.509 282.870,465.492 283.141,465.476 283.412,465.459 283.683,465.442 283.953,465.425 284.224,465.407 284.495,465.389 284.766,465.371 285.037,465.353 285.307,465.334 285.578,465.315 285.849,465.296 286.120,465.277 286.391,465.257 286.662,465.237 286.932,465.217 287.203,465.197 287.474,465.176 287.745,465.155 288.016,465.133 288.287,465.112 288.557,465.090 288.828,465.067 289.099,465.045 289.370,465.022 289.641,464.999 289.911,464.975 290.182,464.951 290.453,464.927 290.724,464.902 290.995,464.877 291.266,464.852 291.536,464.826 291.807,464.800 292.078,464.774 292.349,464.747 292.620,464.720 292.891,464.693 293.161,464.665 293.432,464.637 293.703,464.609 293.974,464.580 294.245,464.550 294.515,464.521 294.786,464.490 295.057,464.460 295.328,464.429 295.599,464.398 295.870,464.366 296.140,464.334 296.411,464.301 296.682,464.268 296.953,464.235 297.224,464.201 297.495,464.166 297.765,464.132 298.036,464.096 298.307,464.061 298.578,464.025 298.849,463.988 299.119,463.951 299.390,463.913 299.661,463.875 299.932,463.836 300.203,463.797 300.474,463.758 300.744,463.718 301.015,463.677 301.286,463.636 301.557,463.594 301.828,463.552 302.099,463.510 302.369,463.466 302.640,463.422 302.911,463.378 303.182,463.333 303.453,463.288 303.723,463.242 303.994,463.195 304.265,463.148 304.536,463.100 304.807,463.052 305.078,463.003 305.348,462.953 305.619,462.903 305.890,462.852 306.161,462.801 306.432,462.749 306.702,462.696 306.973,462.643 307.244,462.589 307.515,462.535 307.786,462.479 308.057,462.423 308.327,462.367 308.598,462.310 308.869,462.252 309.140,462.193 309.411,462.134 309.682,462.074 309.952,462.013 310.223,461.951 310.494,461.889 310.765,461.826 311.036,461.763 311.306,461.698 311.577,461.633 311.848,461.567 312.119,461.501 312.390,461.433 312.661,461.365 312.931,461.296 313.202,461.226 313.473,461.155 313.744,461.084 314.015,461.012 314.286,460.939 314.556,460.865 314.827,460.790 315.098,460.715 315.369,460.638 315.640,460.561 315.910,460.483 316.181,460.404 316.452,460.324 316.723,460.243 316.994,460.162 317.265,460.079 317.535,459.996 317.806,459.911 318.077,459.826 318.348,459.740 318.619,459.653 318.890,459.564 319.160,459.475 319.431,459.385 319.702,459.294 319.973,459.202 320.244,459.109 320.514,459.015 320.785,458.920 321.056,458.824 321.327,458.727 321.598,458.629 321.869,458.530 322.139,458.430 322.410,458.329 322.681,458.227 322.952,458.124 323.223,458.019 323.494,457.914 323.764,457.807 324.035,457.700 324.306,457.591 324.577,457.481 324.848,457.370 325.118,457.258 325.389,457.145 325.660,457.030 325.931,456.915 326.202,456.798 326.473,456.680 326.743,456.561 327.014,456.441 327.285,456.319 327.556,456.197 327.827,456.073 328.097,455.948 328.368,455.821 328.639,455.694 328.910,455.565 329.181,455.435 329.452,455.304 329.722,455.171 329.993,455.037 330.264,454.902 330.535,454.766 330.806,454.628 331.077,454.489 331.347,454.348 331.618,454.206 331.889,454.063 332.160,453.919 332.431,453.773 332.701,453.626 332.972,453.477 333.243,453.328 333.514,453.176 333.785,453.023 334.056,452.869 334.326,452.714 334.597,452.557 334.868,452.399 335.139,452.239 335.410,452.077 335.681,451.915 335.951,451.750 336.222,451.585 336.493,451.418 336.764,451.249 337.035,451.079 337.305,450.907 337.576,450.734 337.847,450.559 338.118,450.383 338.389,450.205 338.660,450.026 338.930,449.845 339.201,449.663 339.472,449.479 339.743,449.293 340.014,449.106 340.285,448.918 340.555,448.727 340.826,448.535 341.097,448.342 341.368,448.147 341.639,447.950 341.909,447.751 342.180,447.551 342.451,447.349 342.722,447.146 342.993,446.941 343.264,446.734 343.534,446.526 343.805,446.316 344.076,446.104 344.347,445.890 344.618,445.675 344.889,445.458 345.159,445.239 345.430,445.019 345.701,444.797 345.972,444.573 346.243,444.347 346.513,444.120 346.784,443.891 347.055,443.660 347.326,443.427 347.597,443.192 347.868,442.956 348.138,442.718 348.409,442.478 348.680,442.236 348.951,441.993 349.222,441.747 349.493,441.500 349.763,441.251 350.034,441.000 350.305,440.747 350.576,440.493 350.847,440.236 351.117,439.978 351.388,439.718 351.659,439.456 351.930,439.192 352.201,438.926 352.472,438.658 352.742,438.389 353.013,438.117 353.284,437.844 353.555,437.569 353.826,437.291 354.096,437.012 354.367,436.731 354.638,436.448 354.909,436.163 355.180,435.877 355.451,435.588 355.721,435.297 355.992,435.004 356.263,434.710 356.534,434.413 356.805,434.115 357.076,433.814 357.346,433.512 357.617,433.208 357.888,432.901 358.159,432.593 358.430,432.283 358.700,431.970 358.971,431.656 359.242,431.340 359.513,431.022 359.784,430.701 360.055,430.379 360.325,430.055 360.596,429.729 360.867,429.401 361.138,429.071 361.409,428.739 361.680,428.405 361.950,428.068 362.221,427.730 362.492,427.390 362.763,427.048 363.034,426.704 363.304,426.358 363.575,426.010 363.846,425.660 364.117,425.308 364.388,424.954 364.659,424.598 364.929,424.240 365.200,423.880 365.471,423.518 365.742,423.154 366.013,422.788 366.284,422.420 366.554,422.050 366.825,421.678 367.096,421.304 367.367,420.928 367.638,420.551 367.908,420.171 368.179,419.789 368.450,419.405 368.721,419.019 368.992,418.632 369.263,418.242 369.533,417.851 369.804,417.457 370.075,417.062 370.346,416.664 370.617,416.265 370.888,415.864 371.158,415.460 371.429,415.055 371.700,414.648 371.971,414.239 372.242,413.828 372.512,413.416 372.783,413.001 373.054,412.584 373.325,412.166 373.596,411.746 373.867,411.323 374.137,410.899 374.408,410.474 374.679,410.046 374.950,409.616 375.221,409.185 375.491,408.752 375.762,408.317 376.033,407.880 376.304,407.441 376.575,407.001 376.846,406.558 377.116,406.114 377.387,405.669 377.658,405.221 377.929,404.772 378.200,404.321 378.471,403.868 378.741,403.414 379.012,402.957 379.283,402.500 379.554,402.040 379.825,401.579 380.095,401.116 380.366,400.651 380.637,400.185 380.908,399.717 381.179,399.248 381.450,398.777 381.720,398.304 381.991,397.830 382.262,397.355 382.533,396.877 382.804,396.398 383.075,395.918 383.345,395.436 383.616,394.953 383.887,394.468 384.158,393.982 384.429,393.494 384.699,393.005 384.970,392.514 385.241,392.022 385.512,391.529 385.783,391.034 386.054,390.538 386.324,390.040 386.595,389.541 386.866,389.041 387.137,388.540 387.408,388.037 387.679,387.533 387.949,387.028 388.220,386.521 388.491,386.013 388.762,385.505 389.033,384.994 389.303,384.483 389.574,383.971 389.845,383.457 390.116,382.943 390.387,382.427 390.658,381.910 390.928,381.393 391.199,380.874 391.470,380.354 391.741,379.833 392.012,379.311 392.283,378.789 392.553,378.265 392.824,377.741 393.095,377.215 393.366,376.689 393.637,376.162 393.907,375.634 394.178,375.105 394.449,374.576 394.720,374.045 394.991,373.514 395.262,372.983 395.532,372.450 395.803,371.917 396.074,371.384 396.345,370.849 396.616,370.314 396.886,369.779 397.157,369.243 397.428,368.706 397.699,368.169 397.970,367.632 398.241,367.094 398.511,366.556 398.782,366.017 399.053,365.478 399.324,364.938 399.595,364.398 399.866,363.858 400.136,363.318 400.407,362.777 400.678,362.236 400.949,361.695 401.220,361.154 401.490,360.613 401.761,360.071 402.032,359.530 402.303,358.988 402.574,358.446 402.845,357.905 403.115,357.363 403.386,356.822 403.657,356.280 403.928,355.739 404.199,355.197 404.470,354.656 404.740,354.115 405.011,353.574 405.282,353.034 405.553,352.494 405.824,351.954 406.094,351.414 406.365,350.875 406.636,350.336 406.907,349.797 407.178,349.259 407.449,348.722 407.719,348.185 407.990,347.648 408.261,347.112 408.532,346.577 408.803,346.042 409.074,345.508 409.344,344.974 409.615,344.441 409.886,343.909 410.157,343.378 410.428,342.848 410.698,342.318 410.969,341.789 411.240,341.261 411.511,340.734 411.782,340.208 412.053,339.683 412.323,339.159 412.594,338.636 412.865,338.114 413.136,337.593 413.407,337.073 413.678,336.555 413.948,336.037 414.219,335.521 414.490,335.006 414.761,334.493 415.032,333.980 415.302,333.469 415.573,332.960 415.844,332.451 416.115,331.945 416.386,331.439 416.657,330.936 416.927,330.433 417.198,329.933 417.469,329.433 417.740,328.936 418.011,328.440 418.282,327.946 418.552,327.453 418.823,326.963 419.094,326.474 419.365,325.987 419.636,325.501 419.906,325.018 420.177,324.536 420.448,324.057 420.719,323.579 420.990,323.103 421.261,322.630 421.531,322.158 421.802,321.688 422.073,321.221 422.344,320.756 422.615,320.293 422.885,319.832 423.156,319.373 423.427,318.917 423.698,318.462 423.969,318.011 424.240,317.561 424.510,317.114 424.781,316.669 425.052,316.227 425.323,315.788 425.594,315.350 425.865,314.916 426.135,314.483 426.406,314.054 426.677,313.627 426.948,313.202 427.219,312.781 427.489,312.362 427.760,311.946 428.031,311.532 428.302,311.121 428.573,310.714 428.844,310.309 429.114,309.906 429.385,309.507 429.656,309.111 429.927,308.717 430.198,308.327 430.469,307.939 430.739,307.555 431.010,307.174 431.281,306.796 431.552,306.420 431.823,306.048 432.093,305.680 432.364,305.314 432.635,304.951 432.906,304.592 433.177,304.236 433.448,303.884 433.718,303.534 433.989,303.188 434.260,302.846 434.531,302.506 434.802,302.171 435.073,301.838 435.343,301.509 435.614,301.184 435.885,300.862 436.156,300.543 436.427,300.229 436.697,299.917 436.968,299.610 437.239,299.306 437.510,299.005 437.781,298.708 438.052,298.415 438.322,298.126 438.593,297.840 438.864,297.558 439.135,297.280 439.406,297.006 439.677,296.735 439.947,296.468 440.218,296.206 440.489,295.946 440.760,295.691 441.031,295.440 441.301,295.193 441.572,294.949 441.843,294.710 442.114,294.474 442.385,294.243 442.656,294.016 442.926,293.792 443.197,293.573 443.468,293.357 443.739,293.146 444.010,292.939 444.280,292.736 444.551,292.537 444.822,292.342 445.093,292.151 445.364,291.965 445.635,291.783 445.905,291.604 446.176,291.430 446.447,291.261 446.718,291.095 446.989,290.934 447.260,290.777 447.530,290.624 447.801,290.476 448.072,290.331 448.343,290.192 448.614,290.056 448.884,289.925 449.155,289.798 449.426,289.675 449.697,289.557 449.968,289.443 450.239,289.333 450.509,289.228 450.780,289.127 451.051,289.031 451.322,288.939 451.593,288.851 451.864,288.768 452.134,288.689 452.405,288.615 452.676,288.545 452.947,288.479 453.218,288.418 453.488,288.362 453.759,288.309 454.030,288.262 454.301,288.218 454.572,288.180 454.843,288.145 455.113,288.115 455.384,288.090 455.655,288.069 455.926,288.052 456.197,288.040 456.468,288.033 456.738,288.029 457.009,288.031 457.280,288.036 457.551,288.047 457.822,288.061 458.092,288.081 458.363,288.104 458.634,288.132 458.905,288.165 459.176,288.202 459.447,288.244 459.717,288.290 459.988,288.340 460.259,288.395 460.530,288.454 460.801,288.518 461.072,288.586 461.342,288.658 461.613,288.735 461.884,288.817 462.155,288.903 462.426,288.993 462.696,289.088 462.967,289.187 463.238,289.290 463.509,289.398 463.780,289.510 464.051,289.626 464.321,289.747 464.592,289.872 464.863,290.002 465.134,290.136 465.405,290.274 465.675,290.416 465.946,290.563 466.217,290.714 466.488,290.869 466.759,291.029 467.030,291.193 467.300,291.361 467.571,291.533 467.842,291.709 468.113,291.890 468.384,292.075 468.655,292.264 468.925,292.457 469.196,292.654 469.467,292.856 469.738,293.061 470.009,293.271 470.279,293.484 470.550,293.702 470.821,293.924 471.092,294.150 471.363,294.380 471.634,294.614 471.904,294.851 472.175,295.093 472.446,295.339 472.717,295.589 472.988,295.842 473.259,296.100 473.529,296.361 473.800,296.626 474.071,296.895 474.342,297.168 474.613,297.444 474.883,297.725 475.154,298.009 475.425,298.297 475.696,298.588 475.967,298.884 476.238,299.183 476.508,299.485 476.779,299.792 477.050,300.101 477.321,300.415 477.592,300.732 477.863,301.052 478.133,301.376 478.404,301.704 478.675,302.035 478.946,302.369 479.217,302.707 479.487,303.048 479.758,303.393 480.029,303.741 480.300,304.092 480.571,304.447 480.842,304.805 481.112,305.166 481.383,305.530 481.654,305.898 481.925,306.268 482.196,306.642 482.467,307.019 482.737,307.399 483.008,307.783 483.279,308.169 483.550,308.558 483.821,308.950 484.091,309.345 484.362,309.743 484.633,310.144 484.904,310.548 485.175,310.955 485.446,311.365 485.716,311.777 485.987,312.192 486.258,312.610 486.529,313.030 486.800,313.454 487.071,313.880 487.341,314.308 487.612,314.739 487.883,315.173 488.154,315.609 488.425,316.048 488.695,316.489 488.966,316.933 489.237,317.379 489.508,317.827 489.779,318.278 490.050,318.731 490.320,319.187 490.591,319.645 490.862,320.105 491.133,320.567 491.404,321.031 491.674,321.498 491.945,321.966 492.216,322.437 492.487,322.910 492.758,323.385 493.029,323.862 493.299,324.341 493.570,324.821 493.841,325.304 494.112,325.789 494.383,326.275 494.654,326.763 494.924,327.253 495.195,327.745 495.466,328.239 495.737,328.734 496.008,329.231 496.278,329.729 496.549,330.229 496.820,330.731 497.091,331.234 497.362,331.739 497.633,332.245 497.903,332.753 498.174,333.262 498.445,333.772 498.716,334.284 498.987,334.797 499.258,335.311 499.528,335.827 499.799,336.344 500.070,336.862 500.341,337.381 500.612,337.902 500.882,338.423 501.153,338.946 501.424,339.470 501.695,339.994 501.966,340.520 502.237,341.047 502.507,341.574 502.778,342.102 503.049,342.632 503.320,343.162 503.591,343.693 503.862,344.225 504.132,344.757 504.403,345.290 504.674,345.824 504.945,346.359 505.216,346.894 505.486,347.430 505.757,347.966 506.028,348.503 506.299,349.040 506.570,349.578 506.841,350.116 507.111,350.655 507.382,351.194 507.653,351.734 507.924,352.274 508.195,352.814 508.466,353.354 508.736,353.895 509.007,354.436 509.278,354.977 509.549,355.518 509.820,356.059 510.090,356.601 510.361,357.143 510.632,357.684 510.903,358.226 511.174,358.767 511.445,359.309 511.715,359.851 511.986,360.392 512.257,360.934 512.528,361.475 512.799,362.016 513.069,362.557 513.340,363.098 513.611,363.638 513.882,364.178 514.153,364.718 514.424,365.258 514.694,365.797 514.965,366.336 515.236,366.875 515.507,367.413 515.778,367.950 516.049,368.488 516.319,369.024 516.590,369.561 516.861,370.096 517.132,370.631 517.403,371.166 517.673,371.700 517.944,372.233 518.215,372.766 518.486,373.298 518.757,373.829 519.028,374.360 519.298,374.889 519.569,375.419 519.840,375.947 520.111,376.474 520.382,377.001 520.653,377.527 520.923,378.052 521.194,378.576 521.465,379.099 521.736,379.621 522.007,380.142 522.277,380.662 522.548,381.181 522.819,381.700 523.090,382.217 523.361,382.733 523.632,383.248 523.902,383.762 524.173,384.275 524.444,384.786 524.715,385.297 524.986,385.806 525.257,386.314 525.527,386.821 525.798,387.327 526.069,387.832 526.340,388.335 526.611,388.837 526.881,389.338 527.152,389.837 527.423,390.335 527.694,390.832 527.965,391.327 528.236,391.821 528.506,392.314 528.777,392.805 529.048,393.295 529.319,393.783 529.590,394.270 529.861,394.756 530.131,395.240 530.402,395.722 530.673,396.203 530.944,396.682 531.215,397.160 531.485,397.637 531.756,398.112 532.027,398.585 532.298,399.056 532.569,399.526 532.840,399.995 533.110,400.462 533.381,400.927 533.652,401.390 533.923,401.852 534.194,402.313 534.464,402.771 534.735,403.228 535.006,403.683 535.277,404.137 535.548,404.588 535.819,405.038 536.089,405.486 536.360,405.933 536.631,406.378 536.902,406.821 537.173,407.262 537.444,407.701 537.714,408.139 537.985,408.575 538.256,409.009 538.527,409.441 538.798,409.871 539.068,410.300 539.339,410.726 539.610,411.151 539.881,411.574 540.152,411.995 540.423,412.414 540.693,412.831 540.964,413.247 541.235,413.660 541.506,414.072 541.777,414.482 542.048,414.890 542.318,415.296 542.589,415.700 542.860,416.102 543.131,416.502 543.402,416.900 543.672,417.296 543.943,417.691 544.214,418.083 544.485,418.473 544.756,418.862 545.027,419.248 545.297,419.633 545.568,420.015 545.839,420.396 546.110,420.775 546.381,421.151 546.652,421.526 546.922,421.899 547.193,422.270 547.464,422.638 547.735,423.005 548.006,423.370 548.276,423.733 548.547,424.094 548.818,424.452 549.089,424.809 549.360,425.164 549.631,425.517 549.901,425.868 550.172,426.217 550.443,426.563 550.714,426.908 550.985,427.251 551.256,427.592 551.526,427.931 551.797,428.268 552.068,428.603 552.339,428.936 552.610,429.267 552.880,429.596 553.151,429.923 553.422,430.248 553.693,430.570 553.964,430.891 554.235,431.210 554.505,431.527 554.776,431.843 555.047,432.156 555.318,432.467 555.589,432.776 555.860,433.083 556.130,433.388 556.401,433.691 556.672,433.993 556.943,434.292 557.214,434.589 557.484,434.885 557.755,435.178 558.026,435.470 558.297,435.759 558.568,436.047 558.839,436.333 559.109,436.616 559.380,436.898 559.651,437.178 559.922,437.456 560.193,437.732 560.463,438.006 560.734,438.278 561.005,438.549 561.276,438.817 561.547,439.084 561.818,439.349 562.088,439.611 562.359,439.872 562.630,440.131 562.901,440.389 563.172,440.644 563.443,440.897 563.713,441.149 563.984,441.399 564.255,441.647 564.526,441.893 564.797,442.137 565.067,442.380 565.338,442.620 565.609,442.859 565.880,443.096 566.151,443.332 566.422,443.565 566.692,443.797 566.963,444.027 567.234,444.255 567.505,444.481 567.776,444.706 568.047,444.929 568.317,445.150 568.588,445.369 568.859,445.587 569.130,445.803 569.401,446.017 569.671,446.230 569.942,446.440 570.213,446.650 570.484,446.857 570.755,447.063 571.026,447.267 571.296,447.469 571.567,447.670 571.838,447.869 572.109,448.067 572.380,448.262 572.651,448.457 572.921,448.649 573.192,448.840 573.463,449.030 573.734,449.217 574.005,449.404 574.275,449.588 574.546,449.771 574.817,449.953 575.088,450.133 575.359,450.311 575.630,450.488 575.900,450.663 576.171,450.837 576.442,451.009 576.713,451.180 576.984,451.349 577.255,451.517 577.525,451.683 577.796,451.848 578.067,452.011 578.338,452.173 578.609,452.334 578.879,452.493 579.150,452.650 579.421,452.806 579.692,452.961 579.963,453.114 580.234,453.266 580.504,453.417 580.775,453.566 581.046,453.713 581.317,453.860 581.588,454.005 581.858,454.148 582.129,454.291 582.400,454.432 582.671,454.571 582.942,454.710 583.213,454.847 583.483,454.982 583.754,455.117 584.025,455.250 584.296,455.382 584.567,455.512 584.838,455.642 585.108,455.770 585.379,455.897 585.650,456.022 585.921,456.146 586.192,456.270 586.462,456.392 586.733,456.512 587.004,456.632 587.275,456.750 587.546,456.867 587.817,456.983 588.087,457.098 588.358,457.212 588.629,457.325 588.900,457.436 589.171,457.546 589.442,457.656 589.712,457.764 589.983,457.871 590.254,457.976 590.525,458.081 590.796,458.185 591.066,458.288 591.337,458.389 591.608,458.490 591.879,458.589 592.150,458.688 592.421,458.785 592.691,458.881 592.962,458.977 593.233,459.071 593.504,459.165 593.775,459.257 594.046,459.348 594.316,459.439 594.587,459.528 594.858,459.617 595.129,459.704 595.400,459.791 595.670,459.877 595.941,459.961 596.212,460.045 596.483,460.128 596.754,460.210 597.025,460.291 597.295,460.372 597.566,460.451 597.837,460.529 598.108,460.607 598.379,460.684 598.650,460.760 598.920,460.835 599.191,460.909 599.462,460.982 599.733,461.055 600.004,461.127 600.274,461.197 600.545,461.268 600.816,461.337 601.087,461.405 601.358,461.473 601.629,461.540 601.899,461.606 602.170,461.672 602.441,461.737 602.712,461.800 602.983,461.864 603.253,461.926 603.524,461.988 603.795,462.049 604.066,462.109 604.337,462.169 604.608,462.228 604.878,462.286 605.149,462.344 605.420,462.400 605.691,462.457 605.962,462.512 606.233,462.567 606.503,462.621 606.774,462.675 607.045,462.728 607.316,462.780 607.587,462.832 607.857,462.883 608.128,462.933 608.399,462.983 608.670,463.032 608.941,463.081 609.212,463.129 609.482,463.176 609.753,463.223 610.024,463.269 610.295,463.315 610.566,463.360 610.837,463.404 611.107,463.449 611.378,463.492 611.649,463.535 611.920,463.577 612.191,463.619 612.461,463.660 612.732,463.701 613.003,463.742 613.274,463.781 613.545,463.821 613.816,463.859 614.086,463.898 614.357,463.935 614.628,463.973 614.899,464.010 615.170,464.046 615.441,464.082 615.711,464.117 615.982,464.152 616.253,464.187 616.524,464.221 616.795,464.255 617.065,464.288 617.336,464.321 617.607,464.353 617.878,464.385 618.149,464.416 618.420,464.447 618.690,464.478 618.961,464.508 619.232,464.538 619.503,464.568 619.774,464.597 620.045,464.626 620.315,464.654 620.586,464.682 620.857,464.709 621.128,464.737 621.399,464.763 621.669,464.790 621.940,464.816 622.211,464.842 622.482,464.867 622.753,464.892 623.024,464.917 623.294,464.941 623.565,464.965 623.836,464.989 624.107,465.012 624.378,465.035 624.649,465.058 624.919,465.081 625.190,465.103 625.461,465.125 625.732,465.146 626.003,465.167 626.273,465.188 626.544,465.209 626.815,465.229 627.086,465.249 627.357,465.269 627.628,465.289 627.898,465.308 628.169,465.327 628.440,465.345 628.711,465.364 628.982,465.382 629.252,465.400 629.523,465.417 629.794,465.435 630.065,465.452 630.336,465.469 630.607,465.486 630.877,465.502 631.148,465.518 631.419,465.534 631.690,465.550 631.961,465.565 632.232,465.580 632.502,465.596 "/>
<g>
</g>
</g>
<g id="ID000009" >
  <g transform="translate(361.056,278.938)">
    <g transform="rotate(-0.0)">
      <text x="0.000" y="0.000" font-family="Helvetica" text-anchor="middle" font-size="12pt" fill="#000000" >l = 0.31, x* = 0.50</text>
    </g>
  </g>
</g>
<g id="ID000010" >
</g>
<g id="ID000011" >
</g>
    </g>
    <g>
      <polyline fill="none" stroke="#000000" stroke-width="0.5pt" stroke-dasharray="none" points="145.021,466.514 145.021,461.098 "/>
      <polyline fill="none" stroke="#000000" stroke-width="0.5pt" stroke-dasharray="none" points="199.186,466.514 199.186,461.098 "/>
      <polyline fill="none" stroke="#000000" stroke-width="0.5pt" stroke-dasharray="none" points="253.350,466.514 253.350,461.098 "/>
      <polyline fill="none" stroke="#000000" stroke-width="0.5pt" stroke-dasharray="none" points="307.515,466.514 307.515,461.098 "/>
      <polyline fill="none" stroke="#000000" stroke-width="0.5pt" stroke-dasharray="none" points="361.680,466.514 361.680,461.098 "/>
      <polyline fill="none" stroke="#000000" stroke-width="0.5pt" stroke-dasharray="none" points="415.844,466.514 415.844,461.098 "/>
      <polyline fill="none" stroke="#000000" stroke-width="0.5pt" stroke-dasharray="none" points="470.009,466.514 470.009,461.098 "/>
      <polyline fill="none" stroke="#000000" stroke-width="0.5pt" stroke-dasharray="none" points="524.173,466.514 524.173,461.098 "/>
      <polyline fill="none" stroke="#000000" stroke-width="0.5pt" stroke-dasharray="none" points="578.338,466.514 578.338,461.098 "/>
      <polyline fill="none" stroke="#000000" stroke-width="0.5pt" stroke-dasharray="none" points="90.857,466.514 632.502,466.514 "/>
      <polyline fill="none" stroke="#000000" stroke-width="0.5pt" stroke-dasharray="none" points="145.021,287.686 145.021,293.102 "/>
      <polyline fill="none" stroke="#000000" stroke-width="0.5pt" stroke-dasharray="none" points="199.186,287.686 199.186,293.102 "/>
      <polyline fill="none" stroke="#000000" stroke-width="0.5pt" stroke-dasharray="none" points="253.350,287.686 253.350,293.102 "/>
      <polyline fill="none" stroke="#000000" stroke-width="0.5pt" stroke-dasharray="none" points="307.515,287.686 307.515,293.102 "/>
      <polyline fill="none" stroke="#000000" stroke-width="0.5pt" stroke-dasharray="none" points="361.680,287.686 361.680,293.102 "/>
      <polyline fill="none" stroke="#000000" stroke-width="0.5pt" stroke-dasharray="none" points="415.844,287.686 415.844,293.102 "/>
      <polyline fill="none" stroke="#000000" stroke-width="0.5pt" stroke-dasharray="none" points="470.009,287.686 470.009,293.102 "/>
      <polyline fill="none" stroke="#000000" stroke-width="0.5pt" stroke-dasharray="none" points="524.173,287.686 524.173,293.102 "/>
      <polyline fill="none" stroke="#000000" stroke-width="0.5pt" stroke-dasharray="none" points="578.338,287.686 578.338,293.102 "/>
      <polyline fill="none" stroke="#000000" stroke-width="0.5pt" stroke-dasharray="none" points="90.857,287.686 632.502,287.686 "/>
  <g transform="translate(90.857,484.818)">
    <g transform="rotate(-0.0)">
      <text x="0.000" y="0.000" font-family="Helvetica" text-anchor="middle" font-size="12pt" fill="#000000" >-1</text>
    </g>
  </g>
  <g transform="translate(145.021,484.818)">
    <g transform="rotate(-0.0)">
      <text x="0.000" y="0.000" font-family="Helvetica" text-anchor="middle" font-size="12pt" fill="#000000" >-0.8</text>
    </g>
  </g>
  <g transform="translate(199.186,484.818)">
    <g transform="rotate(-0.0)">
      <text x="0.000" y="0.000" font-family="Helvetica" text-anchor="middle" font-size="12pt" fill="#000000" >-0.6</text>
    </g>
  </g>
  <g transform="translate(253.350,484.818)">
    <g transform="rotate(-0.0)">
      <text x="0.000" y="0.000" font-family="Helvetica" text-anchor="middle" font-size="12pt" fill="#000000" >-0.4</text>
    </g>
  </g>
  <g transform="translate(307.515,484.818)">
    <g transform="rotate(-0.0)">
      <text x="0.000" y="0.000" font-family="Helvetica" text-anchor="middle" font-size="12pt" fill="#000000" >-0.2</text>
    </g>
  </g>
  <g transform="translate(361.680,484.818)">
    <g transform="rotate(-0.0)">
      <text x="0.000" y="0.000" font-family="Helvetica" text-anchor="middle" font-size="12pt" fill="#000000" >0</text>
    </g>
  </g>
  <g transform="translate(415.844,484.818)">
    <g transform="rotate(-0.0)">
      <text x="0.000" y="0.000" font-family="Helvetica" text-anchor="middle" font-size="12pt" fill="#000000" >0.2</text>
    </g>
  </g>
  <g transform="translate(470.009,484.818)">
    <g transform="rotate(-0.0)">
      <text x="0.000" y="0.000" font-family="Helvetica" text-anchor="middle" font-size="12pt" fill="#000000" >0.4</text>
    </g>
  </g>
  <g transform="translate(524.173,484.818)">
    <g transform="rotate(-0.0)">
      <text x="0.000" y="0.000" font-family="Helvetica" text-anchor="middle" font-size="12pt" fill="#000000" >0.6</text>
    </g>
  </g>
  <g transform="translate(578.338,484.818)">
    <g transform="rotate(-0.0)">
      <text x="0.000" y="0.000" font-family="Helvetica" text-anchor="middle" font-size="12pt" fill="#000000" >0.8</text>
    </g>
  </g>
  <g transform="translate(632.502,484.818)">
    <g transform="rotate(-0.0)">
      <text x="0.000" y="0.000" font-family="Helvetica" text-anchor="middle" font-size="12pt" fill="#000000" >1</text>
    </g>
  </g>
      <polyline fill="none" stroke="#000000" stroke-width="0.5pt" stroke-dasharray="none" points="90.857,421.807 96.273,421.807 "/>
      <polyline fill="none" stroke="#000000" stroke-width="0.5pt" stroke-dasharray="none" points="90.857,377.100 96.273,377.100 "/>
      <polyline fill="none" stroke="#000000" stroke-width="0.5pt" stroke-dasharray="none" points="90.857,332.393 96.273,332.393 "/>
      <polyline fill="none" stroke="#000000" stroke-width="0.5pt" stroke-dasharray="none" points="90.857,466.514 90.857,287.686 "/>
      <polyline fill="none" stroke="#000000" stroke-width="0.5pt" stroke-dasharray="none" points="632.502,421.807 627.086,421.807 "/>
      <polyline fill="none" stroke="#000000" stroke-width="0.5pt" stroke-dasharray="none" points="632.502,377.100 627.086,377.100 "/>
      <polyline fill="none" stroke="#000000" stroke-width="0.5pt" stroke-dasharray="none" points="632.502,332.393 627.086,332.393 "/>
      <polyline fill="none" stroke="#000000" stroke-width="0.5pt" stroke-dasharray="none" points="632.502,466.514 632.502,287.686 "/>
  <g transform="translate(80.024,472.130)">
    <g transform="rotate(-0.0)">
      <text x="0.000" y="0.000" font-family="Helvetica" text-anchor="end" font-size="12pt" fill="#000000" >0</text>
    </g>
  </g>
  <g transform="translate(80.024,427.423)">
    <g transform="rotate(-0.0)">
      <text x="0.000" y="0.000" font-family="Helvetica" text-anchor="end" font-size="12pt" fill="#000000" >0.5</text>
    </g>
  </g>
  <g transform="translate(80.024,382.716)">
    <g transform="rotate(-0.0)">
      <text x="0.000" y="0.000" font-family="Helvetica" text-anchor="end" font-size="12pt" fill="#000000" >1</text>
    </g>
  </g>
  <g transform="translate(80.024,338.009)">
    <g transform="rotate(-0.0)">
      <text x="0.000" y="0.000" font-family="Helvetica" text-anchor="end" font-size="12pt" fill="#000000" >1.5</text>
    </g>
  </g>
  <g transform="translate(80.024,293.302)">
    <g transform="rotate(-0.0)">
      <text x="0.000" y="0.000" font-family="Helvetica" text-anchor="end" font-size="12pt" fill="#000000" >2</text>
    </g>
  </g>
      <polyline fill="none" stroke="#000000" stroke-width="0.5pt" stroke-dasharray="none" points="90.857,466.514 90.857,464.726 "/>
      <polyline fill="none" stroke="#000000" stroke-width="0.5pt" stroke-dasharray="none" points="90.857,466.514 90.857,466.514 "/>
    </g>
  </g>
  </g>
</svg>
