<?xml version="1.0" encoding="utf-8" standalone="no"?><!DOCTYPE svg PUBLIC "-//W3C//DTD SVG 1.1//EN" "http://www.w3.org/Graphics/SVG/1.1/DTD/svg11.dtd">
<svg preserveAspectRatio="xMinYMin meet" width="100%" height="100%" viewBox="0 0 698.898 524.173"  version="1.1" xmlns="http://www.w3.org/2000/svg" xmlns:xlink="http://www.w3.org/1999/xlink">
  <desc>Matlab Figure Converted by PLOT2SVG written by Juerg Schwizer</desc>
  <g id="topgroup">
  <rect x="0" y="0" width="698.898" height="524.173" fill="#ffffff" stroke="none" />
  <g id ="ID000000">
  <clipPath id="ID000001">
    <rect x="90.857" y="39.313" width="541.646" height="178.828"/>
  </clipPath>
      <polygon fill="#ffffff" fill-opacity="1.00" stroke="none" stroke-width="0.5pt" stroke-opacity="1.00" stroke-dasharray="none" points="90.857,218.141 632.502,218.141 632.502,39.313 90.857,39.313 "/>
      <polygon fill="#ffffff" fill-opacity="1.00" stroke="none" stroke-width="0.5pt" stroke-opacity="1.00" stroke-dasharray="none" points="90.857,39.313 632.502,39.313 632.502,39.313 90.857,39.313 "/>
      <polygon fill="#ffffff" fill-opacity="1.00" stroke="none" stroke-width="0.5pt" stroke-opacity="1.00" stroke-dasharray="none" points="90.857,218.141 90.857,218.141 90.857,39.313 90.857,39.313 "/>
    <g>
<g id="ID000002" clip-path="url(#ID000001)" >
      <polyline fill="none" stroke="#0000ff" stroke-width="0.5pt" stroke-dasharray="none" points="90.857,128.727 91.128,128.727 91.398,128.727 91.669,128.727 91.940,128.727 92.211,128.727 92.482,128.727 92.752,128.727 93.023,128.727 93.294,128.727 93.565,128.727 93.836,128.727 94.107,128.727 94.377,128.727 94.648,128.727 94.919,128.727 95.190,128.727 95.461,128.727 95.732,128.727 96.002,128.727 96.273,128.727 96.544,128.727 96.815,128.727 97.086,128.727 97.356,128.727 97.627,128.727 97.898,128.727 98.169,128.727 98.440,128.727 98.711,128.727 98.981,128.727 99.252,128.727 99.523,128.727 99.794,128.727 100.065,128.727 100.335,128.727 100.606,128.727 100.877,128.727 101.148,128.727 101.419,128.727 101.690,128.727 101.960,128.727 102.231,128.727 102.502,128.727 102.773,128.727 103.044,128.727 103.315,128.727 103.585,128.727 103.856,128.727 104.127,128.727 104.398,128.727 104.669,128.727 104.939,128.727 105.210,128.727 105.481,128.727 105.752,128.727 106.023,128.727 106.294,128.727 106.564,128.727 106.835,128.727 107.106,128.727 107.377,128.727 107.648,128.727 107.919,128.727 108.189,128.727 108.460,128.727 108.731,128.727 109.002,128.727 109.273,128.727 109.543,128.727 109.814,128.727 110.085,128.727 110.356,128.727 110.627,128.727 110.898,128.727 111.168,128.727 111.439,128.727 111.710,128.727 111.981,128.727 112.252,128.727 112.523,128.727 112.793,128.727 113.064,128.727 113.335,128.727 113.606,128.727 113.877,128.727 114.147,128.727 114.418,128.727 114.689,128.727 114.960,128.727 115.231,128.727 115.502,128.727 115.772,128.727 116.043,128.727 116.314,128.727 116.585,128.727 116.856,128.727 117.127,128.727 117.397,128.727 117.668,128.727 117.939,128.727 118.210,128.727 118.481,128.727 118.751,128.727 119.022,128.727 119.293,128.727 119.564,128.727 119.835,128.727 120.106,128.727 120.376,128.727 120.647,128.727 120.918,128.727 121.189,128.727 121.460,128.727 121.730,128.727 122.001,128.727 122.272,128.727 122.543,128.727 122.814,128.727 123.085,128.727 123.355,128.727 123.626,128.727 123.897,128.727 124.168,128.727 124.439,128.727 124.710,128.727 124.980,128.727 125.251,128.727 125.522,128.727 125.793,128.727 126.064,128.727 126.334,128.727 126.605,128.727 126.876,128.727 127.147,128.727 127.418,128.727 127.689,128.727 127.959,128.727 128.230,128.727 128.501,128.727 128.772,128.727 129.043,128.727 129.314,128.727 129.584,128.727 129.855,128.727 130.126,128.727 130.397,128.727 130.668,128.727 130.938,128.727 131.209,128.727 131.480,128.727 131.751,128.727 132.022,128.727 132.293,128.727 132.563,128.727 132.834,128.727 133.105,128.727 133.376,128.727 133.647,128.727 133.918,128.727 134.188,128.727 134.459,128.727 134.730,128.727 135.001,128.727 135.272,128.727 135.542,128.727 135.813,128.727 136.084,128.727 136.355,128.727 136.626,128.727 136.897,128.727 137.167,128.727 137.438,128.727 137.709,128.727 137.980,128.727 138.251,128.727 138.522,128.727 138.792,128.727 139.063,128.727 139.334,128.727 139.605,128.727 139.876,128.727 140.146,128.727 140.417,128.727 140.688,128.727 140.959,128.727 141.230,128.727 141.501,128.727 141.771,128.727 142.042,128.727 142.313,128.727 142.584,128.727 142.855,128.727 143.126,128.727 143.396,128.727 143.667,128.727 143.938,128.727 144.209,128.727 144.480,128.727 144.750,128.727 145.021,128.727 145.292,128.727 145.563,128.727 145.834,128.727 146.105,128.727 146.375,128.727 146.646,128.727 146.917,128.727 147.188,128.727 147.459,128.727 147.729,128.727 148.000,128.727 148.271,128.727 148.542,128.727 148.813,128.727 149.084,128.727 149.354,128.727 149.625,128.727 149.896,128.727 150.167,128.727 150.438,128.727 150.709,128.727 150.979,128.727 151.250,128.727 151.521,128.727 151.792,128.727 152.063,128.727 152.333,128.727 152.604,128.727 152.875,128.727 153.146,128.727 153.417,128.727 153.688,128.727 153.958,128.727 154.229,128.727 154.500,128.727 154.771,128.727 155.042,128.727 155.313,128.727 155.583,128.727 155.854,128.727 156.125,128.727 156.396,128.727 156.667,128.727 156.937,128.727 157.208,128.727 157.479,128.727 157.750,128.727 158.021,128.727 158.292,128.727 158.562,128.727 158.833,128.727 159.104,128.727 159.375,128.727 159.646,128.727 159.917,128.727 160.187,128.727 160.458,128.727 160.729,128.727 161.000,128.727 161.271,128.727 161.541,128.727 161.812,128.727 162.083,128.727 162.354,128.727 162.625,128.727 162.896,128.727 163.166,128.727 163.437,128.727 163.708,128.727 163.979,128.727 164.250,128.727 164.521,128.727 164.791,128.727 165.062,128.727 165.333,128.727 165.604,128.727 165.875,128.727 166.145,128.727 166.416,128.727 166.687,128.727 166.958,128.727 167.229,128.727 167.500,128.727 167.770,128.727 168.041,128.727 168.312,128.727 168.583,128.727 168.854,128.727 169.124,128.727 169.395,128.727 169.666,128.727 169.937,128.727 170.208,128.727 170.479,128.727 170.749,128.727 171.020,128.727 171.291,128.727 171.562,128.727 171.833,128.727 172.104,128.727 172.374,128.727 172.645,128.727 172.916,128.727 173.187,128.727 173.458,128.727 173.728,128.727 173.999,128.727 174.270,128.727 174.541,128.727 174.812,128.727 175.083,128.727 175.353,128.727 175.624,128.727 175.895,128.727 176.166,128.727 176.437,128.727 176.708,128.727 176.978,128.727 177.249,128.727 177.520,128.727 177.791,128.727 178.062,128.727 178.332,128.727 178.603,128.727 178.874,128.727 179.145,128.727 179.416,128.727 179.687,128.727 179.957,128.727 180.228,128.727 180.499,128.727 180.770,128.727 181.041,128.727 181.312,128.727 181.582,128.727 181.853,128.727 182.124,128.727 182.395,128.727 182.666,128.727 182.936,128.727 183.207,128.727 183.478,128.727 183.749,128.727 184.020,128.727 184.291,128.727 184.561,128.727 184.832,128.727 185.103,128.727 185.374,128.727 185.645,128.727 185.916,128.727 186.186,128.727 186.457,128.727 186.728,128.727 186.999,128.727 187.270,128.727 187.540,128.727 187.811,128.727 188.082,128.727 188.353,128.727 188.624,128.727 188.895,128.727 189.165,128.727 189.436,128.727 189.707,128.727 189.978,128.727 190.249,128.727 190.519,128.727 190.790,128.727 191.061,128.727 191.332,128.727 191.603,128.727 191.874,128.727 192.144,128.727 192.415,128.727 192.686,128.727 192.957,128.727 193.228,128.727 193.499,128.727 193.769,128.727 194.040,128.727 194.311,128.727 194.582,128.727 194.853,128.727 195.123,128.727 195.394,128.727 195.665,128.727 195.936,128.727 196.207,128.727 196.478,128.727 196.748,128.727 197.019,128.727 197.290,128.727 197.561,128.727 197.832,128.727 198.103,128.727 198.373,128.727 198.644,128.727 198.915,128.727 199.186,128.727 199.457,128.727 199.727,128.727 199.998,128.727 200.269,128.727 200.540,128.727 200.811,128.727 201.082,128.727 201.352,128.727 201.623,128.727 201.894,128.727 202.165,128.727 202.436,128.727 202.707,128.727 202.977,128.727 203.248,128.727 203.519,128.727 203.790,128.727 204.061,128.727 204.331,128.727 204.602,128.727 204.873,128.727 205.144,128.727 205.415,128.727 205.686,128.727 205.956,128.727 206.227,128.727 206.498,128.727 206.769,128.727 207.040,128.727 207.311,128.727 207.581,128.727 207.852,128.727 208.123,128.727 208.394,128.727 208.665,128.727 208.935,128.727 209.206,128.727 209.477,128.727 209.748,128.727 210.019,128.727 210.290,128.727 210.560,128.727 210.831,128.727 211.102,128.727 211.373,128.727 211.644,128.727 211.915,128.727 212.185,128.727 212.456,128.727 212.727,128.727 212.998,128.727 213.269,128.727 213.539,128.727 213.810,128.727 214.081,128.727 214.352,128.727 214.623,128.727 214.894,128.727 215.164,128.727 215.435,128.727 215.706,128.727 215.977,128.727 216.248,128.727 216.518,128.727 216.789,128.727 217.060,128.727 217.331,128.727 217.602,128.727 217.873,128.727 218.143,128.727 218.414,128.727 218.685,128.727 218.956,128.727 219.227,128.727 219.498,128.727 219.768,128.727 220.039,128.727 220.310,128.727 220.581,128.727 220.852,128.727 221.122,128.727 221.393,128.727 221.664,128.727 221.935,128.727 222.206,128.727 222.477,128.727 222.747,128.727 223.018,128.727 223.289,128.727 223.560,128.727 223.831,128.727 224.102,128.727 224.372,128.727 224.643,128.727 224.914,128.727 225.185,128.727 225.456,128.727 225.726,128.727 225.997,128.727 226.268,128.727 226.539,128.727 226.810,128.727 227.081,128.727 227.351,128.727 227.622,128.727 227.893,128.727 228.164,128.727 228.435,128.727 228.706,128.727 228.976,128.727 229.247,128.727 229.518,128.727 229.789,128.727 230.060,128.727 230.330,128.727 230.601,128.727 230.872,128.727 231.143,128.727 231.414,128.727 231.685,128.727 231.955,128.727 232.226,128.727 232.497,128.727 232.768,128.727 233.039,128.727 233.310,128.727 233.580,128.727 233.851,128.727 234.122,128.727 234.393,128.727 234.664,128.727 234.934,128.727 235.205,128.727 235.476,128.727 235.747,128.727 236.018,128.727 236.289,128.727 236.559,128.727 236.830,128.727 237.101,128.727 237.372,128.727 237.643,128.727 237.913,128.727 238.184,128.727 238.455,128.727 238.726,128.727 238.997,128.727 239.268,128.727 239.538,128.727 239.809,128.727 240.080,128.727 240.351,128.727 240.622,128.727 240.893,128.727 241.163,128.727 241.434,128.727 241.705,128.727 241.976,128.727 242.247,128.727 242.517,128.727 242.788,128.727 243.059,128.727 243.330,128.727 243.601,128.727 243.872,128.727 244.142,128.727 244.413,128.727 244.684,128.727 244.955,128.727 245.226,128.727 245.497,128.727 245.767,128.727 246.038,128.727 246.309,128.727 246.580,128.727 246.851,128.727 247.121,128.727 247.392,128.727 247.663,128.727 247.934,128.727 248.205,128.727 248.476,128.727 248.746,128.727 249.017,128.727 249.288,128.727 249.559,128.727 249.830,128.727 250.101,128.727 250.371,128.727 250.642,128.727 250.913,128.727 251.184,128.727 251.455,128.727 251.725,128.727 251.996,128.727 252.267,128.727 252.538,128.727 252.809,128.727 253.080,128.727 253.350,128.727 253.621,128.727 253.892,128.727 254.163,128.727 254.434,128.727 254.705,128.727 254.975,128.727 255.246,128.727 255.517,128.727 255.788,128.727 256.059,128.727 256.329,128.727 256.600,128.727 256.871,128.727 257.142,128.727 257.413,128.727 257.684,128.727 257.954,128.727 258.225,128.727 258.496,128.727 258.767,128.727 259.038,128.727 259.308,128.727 259.579,128.727 259.850,128.727 260.121,128.727 260.392,128.727 260.663,128.727 260.933,128.727 261.204,128.727 261.475,128.727 261.746,128.727 262.017,128.727 262.288,128.727 262.558,128.727 262.829,128.727 263.100,128.727 263.371,128.727 263.642,128.727 263.912,128.727 264.183,128.727 264.454,128.727 264.725,128.727 264.996,128.727 265.267,128.727 265.537,128.727 265.808,128.727 266.079,128.727 266.350,128.727 266.621,128.727 266.892,128.727 267.162,128.727 267.433,128.727 267.704,128.727 267.975,128.727 268.246,128.727 268.516,128.727 268.787,128.727 269.058,128.727 269.329,128.727 269.600,128.727 269.871,128.727 270.141,128.727 270.412,128.727 270.683,128.727 270.954,128.727 271.225,128.727 271.496,128.727 271.766,128.727 272.037,128.727 272.308,128.727 272.579,128.727 272.850,128.727 273.120,128.727 273.391,128.727 273.662,128.727 273.933,128.727 274.204,128.727 274.475,128.727 274.745,128.727 275.016,128.727 275.287,128.727 275.558,128.727 275.829,128.727 276.100,128.727 276.370,128.727 276.641,128.727 276.912,128.727 277.183,128.727 277.454,128.727 277.724,128.727 277.995,128.727 278.266,128.727 278.537,128.727 278.808,128.727 279.079,128.727 279.349,128.727 279.620,128.727 279.891,128.727 280.162,128.727 280.433,128.727 280.704,128.727 280.974,128.727 281.245,128.727 281.516,128.727 281.787,128.727 282.058,128.727 282.328,128.727 282.599,128.727 282.870,128.727 283.141,128.727 283.412,128.727 283.683,128.727 283.953,128.727 284.224,128.727 284.495,128.727 284.766,128.727 285.037,128.727 285.307,128.727 285.578,128.727 285.849,128.727 286.120,128.727 286.391,128.727 286.662,128.727 286.932,128.727 287.203,128.727 287.474,128.727 287.745,128.727 288.016,128.727 288.287,128.727 288.557,128.727 288.828,128.727 289.099,128.727 289.370,128.727 289.641,128.727 289.911,128.727 290.182,128.727 290.453,128.727 290.724,128.727 290.995,128.727 291.266,128.727 291.536,128.727 291.807,128.727 292.078,128.727 292.349,128.727 292.620,128.727 292.891,128.727 293.161,128.727 293.432,128.727 293.703,128.727 293.974,128.727 294.245,128.727 294.515,128.727 294.786,128.727 295.057,128.727 295.328,128.727 295.599,128.727 295.870,128.727 296.140,128.727 296.411,128.727 296.682,128.727 296.953,128.727 297.224,128.727 297.495,128.727 297.765,128.727 298.036,128.727 298.307,128.727 298.578,128.727 298.849,128.727 299.119,128.727 299.390,128.727 299.661,128.727 299.932,128.727 300.203,128.727 300.474,128.727 300.744,128.727 301.015,128.727 301.286,128.727 301.557,128.727 301.828,128.727 302.099,128.727 302.369,128.727 302.640,128.727 302.911,128.727 303.182,128.727 303.453,128.727 303.723,128.727 303.994,128.727 304.265,128.727 304.536,128.727 304.807,128.727 305.078,128.727 305.348,128.727 305.619,128.727 305.890,128.727 306.161,128.727 306.432,128.727 306.702,128.727 306.973,128.727 307.244,128.727 307.515,128.727 307.786,128.727 308.057,128.727 308.327,128.727 308.598,128.727 308.869,128.727 309.140,128.727 309.411,128.727 309.682,128.727 309.952,128.727 310.223,128.727 310.494,128.727 310.765,128.727 311.036,128.727 311.306,128.727 311.577,128.727 311.848,128.727 312.119,128.727 312.390,128.727 312.661,128.727 312.931,128.727 313.202,128.727 313.473,128.727 313.744,128.727 314.015,128.727 314.286,128.727 314.556,128.727 314.827,128.727 315.098,128.727 315.369,128.727 315.640,128.727 315.910,128.727 316.181,128.727 316.452,128.727 316.723,128.727 316.994,128.727 317.265,128.727 317.535,128.727 317.806,128.727 318.077,128.727 318.348,128.727 318.619,128.727 318.890,128.727 319.160,128.727 319.431,128.727 319.702,128.727 319.973,128.727 320.244,128.727 320.514,128.727 320.785,128.727 321.056,128.727 321.327,128.727 321.598,128.727 321.869,128.727 322.139,128.727 322.410,128.727 322.681,128.727 322.952,128.727 323.223,128.727 323.494,128.727 323.764,128.727 324.035,128.727 324.306,128.727 324.577,128.727 324.848,128.727 325.118,128.727 325.389,128.727 325.660,128.727 325.931,128.727 326.202,128.727 326.473,128.727 326.743,128.727 327.014,128.727 327.285,128.727 327.556,128.727 327.827,128.727 328.097,128.727 328.368,128.727 328.639,128.727 328.910,128.727 329.181,128.727 329.452,128.727 329.722,128.727 329.993,128.727 330.264,128.727 330.535,128.727 330.806,128.727 331.077,128.727 331.347,128.727 331.618,128.727 331.889,128.727 332.160,128.727 332.431,128.727 332.701,128.727 332.972,128.727 333.243,128.727 333.514,128.727 333.785,128.727 334.056,128.727 334.326,128.727 334.597,128.727 334.868,128.727 335.139,128.727 335.410,128.727 335.681,128.727 335.951,128.727 336.222,128.727 336.493,128.727 336.764,128.727 337.035,128.727 337.305,128.727 337.576,128.727 337.847,128.727 338.118,128.727 338.389,128.727 338.660,128.727 338.930,128.727 339.201,128.727 339.472,128.727 339.743,128.727 340.014,128.727 340.285,128.727 340.555,128.727 340.826,128.727 341.097,128.727 341.368,128.727 341.639,128.727 341.909,128.727 342.180,128.727 342.451,128.727 342.722,128.727 342.993,128.727 343.264,128.727 343.534,128.727 343.805,128.727 344.076,128.727 344.347,128.727 344.618,128.727 344.889,128.727 345.159,128.727 345.430,128.727 345.701,128.727 345.972,128.727 346.243,128.727 346.513,128.727 346.784,128.727 347.055,128.727 347.326,128.727 347.597,128.727 347.868,128.727 348.138,128.727 348.409,128.727 348.680,128.727 348.951,128.727 349.222,128.727 349.493,128.727 349.763,128.727 350.034,128.727 350.305,128.727 350.576,128.727 350.847,128.727 351.117,128.727 351.388,128.727 351.659,128.727 351.930,128.727 352.201,128.727 352.472,128.727 352.742,128.727 353.013,128.727 353.284,128.727 353.555,128.727 353.826,128.727 354.096,128.727 354.367,128.727 354.638,128.727 354.909,128.727 355.180,128.727 355.451,128.727 355.721,128.727 355.992,128.727 356.263,128.727 356.534,128.727 356.805,128.727 357.076,128.727 357.346,128.727 357.617,128.727 357.888,128.727 358.159,128.727 358.430,128.727 358.700,128.727 358.971,128.727 359.242,128.727 359.513,128.727 359.784,128.727 360.055,128.727 360.325,128.727 360.596,128.727 360.867,128.727 361.138,128.727 361.409,128.727 361.680,128.727 361.950,128.727 362.221,128.727 362.492,128.727 362.763,128.727 363.034,128.727 363.304,128.727 363.575,128.727 363.846,128.727 364.117,128.727 364.388,128.727 364.659,128.727 364.929,128.727 365.200,128.727 365.471,128.727 365.742,128.727 366.013,128.727 366.284,128.727 366.554,128.727 366.825,128.727 367.096,128.727 367.367,128.727 367.638,128.727 367.908,128.727 368.179,128.727 368.450,128.727 368.721,128.727 368.992,128.727 369.263,128.727 369.533,128.727 369.804,128.727 370.075,128.727 370.346,128.727 370.617,128.727 370.888,128.727 371.158,128.727 371.429,128.727 371.700,128.727 371.971,128.727 372.242,128.727 372.512,128.727 372.783,128.727 373.054,128.727 373.325,128.727 373.596,128.727 373.867,128.727 374.137,128.727 374.408,128.727 374.679,128.727 374.950,128.727 375.221,128.727 375.491,128.727 375.762,128.727 376.033,128.727 376.304,128.727 376.575,128.727 376.846,128.727 377.116,128.727 377.387,128.727 377.658,128.727 377.929,128.727 378.200,128.727 378.471,128.727 378.741,128.727 379.012,128.727 379.283,128.727 379.554,128.727 379.825,128.727 380.095,128.727 380.366,128.727 380.637,128.727 380.908,128.727 381.179,128.727 381.450,128.727 381.720,128.727 381.991,128.727 382.262,128.727 382.533,128.727 382.804,128.727 383.075,128.727 383.345,128.727 383.616,128.727 383.887,128.727 384.158,128.727 384.429,128.727 384.699,128.727 384.970,128.727 385.241,128.727 385.512,128.727 385.783,128.727 386.054,128.727 386.324,128.727 386.595,128.727 386.866,128.727 387.137,128.727 387.408,128.727 387.679,128.727 387.949,128.727 388.220,128.727 388.491,128.727 388.762,128.727 389.033,128.727 389.303,128.727 389.574,128.727 389.845,128.727 390.116,128.727 390.387,128.727 390.658,128.727 390.928,128.727 391.199,128.727 391.470,128.727 391.741,128.727 392.012,128.727 392.283,128.727 392.553,128.727 392.824,128.727 393.095,128.727 393.366,128.727 393.637,128.727 393.907,128.727 394.178,128.727 394.449,128.727 394.720,128.727 394.991,128.727 395.262,128.727 395.532,128.727 395.803,128.727 396.074,128.727 396.345,128.727 396.616,128.727 396.886,128.727 397.157,128.727 397.428,128.727 397.699,128.727 397.970,128.727 398.241,128.727 398.511,128.727 398.782,128.727 399.053,128.727 399.324,128.727 399.595,128.727 399.866,128.727 400.136,128.727 400.407,128.727 400.678,128.727 400.949,128.727 401.220,128.727 401.490,128.727 401.761,128.727 402.032,128.727 402.303,128.727 402.574,128.727 402.845,128.727 403.115,128.727 403.386,128.727 403.657,128.727 403.928,128.727 404.199,128.727 404.470,128.727 404.740,128.727 405.011,128.727 405.282,128.727 405.553,128.727 405.824,128.727 406.094,128.727 406.365,128.727 406.636,128.727 406.907,128.727 407.178,128.727 407.449,128.727 407.719,128.727 407.990,128.727 408.261,128.727 408.532,128.727 408.803,128.727 409.074,128.727 409.344,128.727 409.615,128.727 409.886,128.727 410.157,128.727 410.428,128.727 410.698,128.727 410.969,128.727 411.240,128.727 411.511,128.727 411.782,128.727 412.053,128.727 412.323,128.727 412.594,128.727 412.865,128.727 413.136,128.727 413.407,128.727 413.678,128.727 413.948,128.727 414.219,128.727 414.490,128.727 414.761,128.727 415.032,128.727 415.302,128.727 415.573,128.727 415.844,128.727 416.115,128.727 416.386,128.727 416.657,128.727 416.927,128.727 417.198,128.727 417.469,128.727 417.740,128.727 418.011,128.727 418.282,128.727 418.552,128.727 418.823,128.727 419.094,128.727 419.365,128.727 419.636,128.727 419.906,128.727 420.177,128.727 420.448,128.727 420.719,128.727 420.990,128.727 421.261,128.727 421.531,128.727 421.802,128.727 422.073,128.727 422.344,128.727 422.615,128.727 422.885,128.727 423.156,128.727 423.427,128.727 423.698,128.727 423.969,128.727 424.240,128.727 424.510,128.727 424.781,128.727 425.052,128.727 425.323,128.727 425.594,128.727 425.865,128.727 426.135,128.727 426.406,128.727 426.677,128.727 426.948,128.727 427.219,128.727 427.489,128.727 427.760,128.727 428.031,128.727 428.302,128.727 428.573,128.727 428.844,128.727 429.114,128.727 429.385,128.727 429.656,128.727 429.927,128.727 430.198,128.727 430.469,128.727 430.739,128.727 431.010,128.727 431.281,128.727 431.552,128.727 431.823,128.727 432.093,128.727 432.364,128.727 432.635,128.727 432.906,128.727 433.177,128.727 433.448,128.727 433.718,128.727 433.989,128.727 434.260,128.727 434.531,128.727 434.802,128.727 435.073,128.727 435.343,128.727 435.614,128.727 435.885,128.727 436.156,128.727 436.427,128.727 436.697,128.727 436.968,128.727 437.239,128.727 437.510,128.727 437.781,128.727 438.052,128.727 438.322,128.727 438.593,128.727 438.864,128.727 439.135,128.727 439.406,128.727 439.677,128.727 439.947,128.727 440.218,128.727 440.489,128.727 440.760,128.727 441.031,128.727 441.301,128.727 441.572,128.727 441.843,128.727 442.114,128.727 442.385,128.727 442.656,128.727 442.926,128.727 443.197,128.727 443.468,128.727 443.739,128.727 444.010,128.727 444.280,128.727 444.551,128.727 444.822,128.727 445.093,128.727 445.364,128.727 445.635,128.727 445.905,128.727 446.176,128.727 446.447,128.727 446.718,128.727 446.989,128.727 447.260,128.727 447.530,128.727 447.801,128.727 448.072,128.727 448.343,128.727 448.614,128.727 448.884,128.727 449.155,128.727 449.426,128.727 449.697,128.727 449.968,128.727 450.239,128.727 450.509,128.727 450.780,128.727 451.051,128.727 451.322,128.727 451.593,128.727 451.864,128.727 452.134,128.727 452.405,128.727 452.676,128.727 452.947,128.727 453.218,128.727 453.488,128.727 453.759,128.727 454.030,128.727 454.301,128.727 454.572,128.727 454.843,128.727 455.113,128.727 455.384,128.727 455.655,128.727 455.926,128.727 456.197,128.727 456.468,128.727 456.738,128.727 457.009,128.727 457.280,128.727 457.551,128.727 457.822,128.727 458.092,128.727 458.363,128.727 458.634,128.727 458.905,128.727 459.176,128.727 459.447,128.727 459.717,128.727 459.988,128.727 460.259,128.727 460.530,128.727 460.801,128.727 461.072,128.727 461.342,128.727 461.613,128.727 461.884,128.727 462.155,128.727 462.426,128.727 462.696,128.727 462.967,128.727 463.238,128.727 463.509,128.727 463.780,128.727 464.051,128.727 464.321,128.727 464.592,128.727 464.863,128.727 465.134,128.727 465.405,128.727 465.675,128.727 465.946,128.727 466.217,128.727 466.488,128.727 466.759,128.727 467.030,128.727 467.300,128.727 467.571,128.727 467.842,128.727 468.113,128.727 468.384,128.727 468.655,128.727 468.925,128.727 469.196,128.727 469.467,128.727 469.738,128.727 470.009,128.727 470.279,128.727 470.550,128.727 470.821,128.727 471.092,128.727 471.363,128.727 471.634,128.727 471.904,128.727 472.175,128.727 472.446,128.727 472.717,128.727 472.988,128.727 473.259,128.727 473.529,128.727 473.800,128.727 474.071,128.727 474.342,128.727 474.613,128.727 474.883,128.727 475.154,128.727 475.425,128.727 475.696,128.727 475.967,128.727 476.238,128.727 476.508,128.727 476.779,128.727 477.050,128.727 477.321,128.727 477.592,128.727 477.863,128.727 478.133,128.727 478.404,128.727 478.675,128.727 478.946,128.727 479.217,128.727 479.487,128.727 479.758,128.727 480.029,128.727 480.300,128.727 480.571,128.727 480.842,128.727 481.112,128.727 481.383,128.727 481.654,128.727 481.925,128.727 482.196,128.727 482.467,128.727 482.737,128.727 483.008,128.727 483.279,128.727 483.550,128.727 483.821,128.727 484.091,128.727 484.362,128.727 484.633,128.727 484.904,128.727 485.175,128.727 485.446,128.727 485.716,128.727 485.987,128.727 486.258,128.727 486.529,128.727 486.800,128.727 487.071,128.727 487.341,128.727 487.612,128.727 487.883,128.727 488.154,128.727 488.425,128.727 488.695,128.727 488.966,128.727 489.237,128.727 489.508,128.727 489.779,128.727 490.050,128.727 490.320,128.727 490.591,128.727 490.862,128.727 491.133,128.727 491.404,128.727 491.674,128.727 491.945,128.727 492.216,128.727 492.487,128.727 492.758,128.727 493.029,128.727 493.299,128.727 493.570,128.727 493.841,128.727 494.112,128.727 494.383,128.727 494.654,128.727 494.924,128.727 495.195,128.727 495.466,128.727 495.737,128.727 496.008,128.727 496.278,128.727 496.549,128.727 496.820,128.727 497.091,128.727 497.362,128.727 497.633,128.727 497.903,128.727 498.174,128.727 498.445,128.727 498.716,128.727 498.987,128.727 499.258,128.727 499.528,128.727 499.799,128.727 500.070,128.727 500.341,128.727 500.612,128.727 500.882,128.727 501.153,128.727 501.424,128.727 501.695,128.727 501.966,128.727 502.237,128.727 502.507,128.727 502.778,128.727 503.049,128.727 503.320,128.727 503.591,128.727 503.862,128.727 504.132,128.727 504.403,128.727 504.674,128.727 504.945,128.727 505.216,128.727 505.486,128.727 505.757,128.727 506.028,128.727 506.299,128.727 506.570,128.727 506.841,128.727 507.111,128.727 507.382,128.727 507.653,128.727 507.924,128.727 508.195,128.727 508.466,128.727 508.736,128.727 509.007,128.727 509.278,128.727 509.549,128.727 509.820,128.727 510.090,128.727 510.361,128.727 510.632,128.727 510.903,128.727 511.174,128.727 511.445,128.727 511.715,128.727 511.986,128.727 512.257,128.727 512.528,128.727 512.799,128.727 513.069,128.727 513.340,128.727 513.611,128.727 513.882,128.727 514.153,128.727 514.424,128.727 514.694,128.727 514.965,128.727 515.236,128.727 515.507,128.727 515.778,128.727 516.049,128.727 516.319,128.727 516.590,128.727 516.861,128.727 517.132,128.727 517.403,128.727 517.673,128.727 517.944,128.727 518.215,128.727 518.486,128.727 518.757,128.727 519.028,128.727 519.298,128.727 519.569,128.727 519.840,128.727 520.111,128.727 520.382,128.727 520.653,128.727 520.923,128.727 521.194,128.727 521.465,128.727 521.736,128.727 522.007,128.727 522.277,128.727 522.548,128.727 522.819,128.727 523.090,128.727 523.361,128.727 523.632,128.727 523.902,128.727 524.173,128.727 524.444,128.727 524.715,128.727 524.986,128.727 525.257,128.727 525.527,128.727 525.798,128.727 526.069,128.727 526.340,128.727 526.611,128.727 526.881,128.727 527.152,128.727 527.423,128.727 527.694,128.727 527.965,128.727 528.236,128.727 528.506,128.727 528.777,128.727 529.048,128.727 529.319,128.727 529.590,128.727 529.861,128.727 530.131,128.727 530.402,128.727 530.673,128.727 530.944,128.727 531.215,128.727 531.485,128.727 531.756,128.727 532.027,128.727 532.298,128.727 532.569,128.727 532.840,128.727 533.110,128.727 533.381,128.727 533.652,128.727 533.923,128.727 534.194,128.727 534.464,128.727 534.735,128.727 535.006,128.727 535.277,128.727 535.548,128.727 535.819,128.727 536.089,128.727 536.360,128.727 536.631,128.727 536.902,128.727 537.173,128.727 537.444,128.727 537.714,128.727 537.985,128.727 538.256,128.727 538.527,128.727 538.798,128.727 539.068,128.727 539.339,128.727 539.610,128.727 539.881,128.727 540.152,128.727 540.423,128.727 540.693,128.727 540.964,128.727 541.235,128.727 541.506,128.727 541.777,128.727 542.048,128.727 542.318,128.727 542.589,128.727 542.860,128.727 543.131,128.727 543.402,128.727 543.672,128.727 543.943,128.727 544.214,128.727 544.485,128.727 544.756,128.727 545.027,128.727 545.297,128.727 545.568,128.727 545.839,128.727 546.110,128.727 546.381,128.727 546.652,128.727 546.922,128.727 547.193,128.727 547.464,128.727 547.735,128.727 548.006,128.727 548.276,128.727 548.547,128.727 548.818,128.727 549.089,128.727 549.360,128.727 549.631,128.727 549.901,128.727 550.172,128.727 550.443,128.727 550.714,128.727 550.985,128.727 551.256,128.727 551.526,128.727 551.797,128.727 552.068,128.727 552.339,128.727 552.610,128.727 552.880,128.727 553.151,128.727 553.422,128.727 553.693,128.727 553.964,128.727 554.235,128.727 554.505,128.727 554.776,128.727 555.047,128.727 555.318,128.727 555.589,128.727 555.860,128.727 556.130,128.727 556.401,128.727 556.672,128.727 556.943,128.727 557.214,128.727 557.484,128.727 557.755,128.727 558.026,128.727 558.297,128.727 558.568,128.727 558.839,128.727 559.109,128.727 559.380,128.727 559.651,128.727 559.922,128.727 560.193,128.727 560.463,128.727 560.734,128.727 561.005,128.727 561.276,128.727 561.547,128.727 561.818,128.727 562.088,128.727 562.359,128.727 562.630,128.727 562.901,128.727 563.172,128.727 563.443,128.727 563.713,128.727 563.984,128.727 564.255,128.727 564.526,128.727 564.797,128.727 565.067,128.727 565.338,128.727 565.609,128.727 565.880,128.727 566.151,128.727 566.422,128.727 566.692,128.727 566.963,128.727 567.234,128.727 567.505,128.727 567.776,128.727 568.047,128.727 568.317,128.727 568.588,128.727 568.859,128.727 569.130,128.727 569.401,128.727 569.671,128.727 569.942,128.727 570.213,128.727 570.484,128.727 570.755,128.727 571.026,128.727 571.296,128.727 571.567,128.727 571.838,128.727 572.109,128.727 572.380,128.727 572.651,128.727 572.921,128.727 573.192,128.727 573.463,128.727 573.734,128.727 574.005,128.727 574.275,128.727 574.546,128.727 574.817,128.727 575.088,128.727 575.359,128.727 575.630,128.727 575.900,128.727 576.171,128.727 576.442,128.727 576.713,128.727 576.984,128.727 577.255,128.727 577.525,128.727 577.796,128.727 578.067,128.727 578.338,128.727 578.609,128.727 578.879,128.727 579.150,128.727 579.421,128.727 579.692,128.727 579.963,128.727 580.234,128.727 580.504,128.727 580.775,128.727 581.046,128.727 581.317,128.727 581.588,128.727 581.858,128.727 582.129,128.727 582.400,128.727 582.671,128.727 582.942,128.727 583.213,128.727 583.483,128.727 583.754,128.727 584.025,128.727 584.296,128.727 584.567,128.727 584.838,128.727 585.108,128.727 585.379,128.727 585.650,128.727 585.921,128.727 586.192,128.727 586.462,128.727 586.733,128.727 587.004,128.727 587.275,128.727 587.546,128.727 587.817,128.727 588.087,128.727 588.358,128.727 588.629,128.727 588.900,128.727 589.171,128.727 589.442,128.727 589.712,128.727 589.983,128.727 590.254,128.727 590.525,128.727 590.796,128.727 591.066,128.727 591.337,128.727 591.608,128.727 591.879,128.727 592.150,128.727 592.421,128.727 592.691,128.727 592.962,128.727 593.233,128.727 593.504,128.727 593.775,128.727 594.046,128.727 594.316,128.727 594.587,128.727 594.858,128.727 595.129,128.727 595.400,128.727 595.670,128.727 595.941,128.727 596.212,128.727 596.483,128.727 596.754,128.727 597.025,128.727 597.295,128.727 597.566,128.727 597.837,128.727 598.108,128.727 598.379,128.727 598.650,128.727 598.920,128.727 599.191,128.727 599.462,128.727 599.733,128.727 600.004,128.727 600.274,128.727 600.545,128.727 600.816,128.727 601.087,128.727 601.358,128.727 601.629,128.727 601.899,128.727 602.170,128.727 602.441,128.727 602.712,128.727 602.983,128.727 603.253,128.727 603.524,128.727 603.795,128.727 604.066,128.727 604.337,128.727 604.608,128.727 604.878,128.727 605.149,128.727 605.420,128.727 605.691,128.727 605.962,128.727 606.233,128.727 606.503,128.727 606.774,128.727 607.045,128.727 607.316,128.727 607.587,128.727 607.857,128.727 608.128,128.727 608.399,128.727 608.670,128.727 608.941,128.727 609.212,128.727 609.482,128.727 609.753,128.727 610.024,128.727 610.295,128.727 610.566,128.727 610.837,128.727 611.107,128.727 611.378,128.727 611.649,128.727 611.920,128.727 612.191,128.727 612.461,128.727 612.732,128.727 613.003,128.727 613.274,128.727 613.545,128.727 613.816,128.727 614.086,128.727 614.357,128.727 614.628,128.727 614.899,128.727 615.170,128.727 615.441,128.727 615.711,128.727 615.982,128.727 616.253,128.727 616.524,128.727 616.795,128.727 617.065,128.727 617.336,128.727 617.607,128.727 617.878,128.727 618.149,128.727 618.420,128.727 618.690,128.727 618.961,128.727 619.232,128.727 619.503,128.727 619.774,128.727 620.045,128.727 620.315,128.727 620.586,128.727 620.857,128.727 621.128,128.727 621.399,128.727 621.669,128.727 621.940,128.727 622.211,128.727 622.482,128.727 622.753,128.727 623.024,128.727 623.294,128.727 623.565,128.727 623.836,128.727 624.107,128.727 624.378,128.727 624.649,128.727 624.919,128.727 625.190,128.727 625.461,128.727 625.732,128.727 626.003,128.727 626.273,128.727 626.544,128.727 626.815,128.727 627.086,128.727 627.357,128.727 627.628,128.727 627.898,128.727 628.169,128.727 628.440,128.727 628.711,128.727 628.982,128.727 629.252,128.727 629.523,128.727 629.794,128.727 630.065,128.727 630.336,128.727 630.607,128.727 630.877,128.727 631.148,128.727 631.419,128.727 631.690,128.727 631.961,128.727 632.232,128.727 632.502,128.727 "/>
<g>
</g>
</g>
<g id="ID000003" >
  <g transform="translate(361.056,30.565)">
    <g transform="rotate(-0.0)">
      <text x="0.000" y="0.000" font-family="Helvetica" text-anchor="middle" font-size="12pt" fill="#000000" >l = 0.46, x* = -0.50</text>
    </g>
  </g>
</g>
<g id="ID000004" >
</g>
<g id="ID000005" >
</g>
    </g>
    <g>
      <polyline fill="none" stroke="#000000" stroke-width="0.5pt" stroke-dasharray="none" points="145.021,218.141 145.021,212.725 "/>
      <polyline fill="none" stroke="#000000" stroke-width="0.5pt" stroke-dasharray="none" points="199.186,218.141 199.186,212.725 "/>
      <polyline fill="none" stroke="#000000" stroke-width="0.5pt" stroke-dasharray="none" points="253.350,218.141 253.350,212.725 "/>
      <polyline fill="none" stroke="#000000" stroke-width="0.5pt" stroke-dasharray="none" points="307.515,218.141 307.515,212.725 "/>
      <polyline fill="none" stroke="#000000" stroke-width="0.5pt" stroke-dasharray="none" points="361.680,218.141 361.680,212.725 "/>
      <polyline fill="none" stroke="#000000" stroke-width="0.5pt" stroke-dasharray="none" points="415.844,218.141 415.844,212.725 "/>
      <polyline fill="none" stroke="#000000" stroke-width="0.5pt" stroke-dasharray="none" points="470.009,218.141 470.009,212.725 "/>
      <polyline fill="none" stroke="#000000" stroke-width="0.5pt" stroke-dasharray="none" points="524.173,218.141 524.173,212.725 "/>
      <polyline fill="none" stroke="#000000" stroke-width="0.5pt" stroke-dasharray="none" points="578.338,218.141 578.338,212.725 "/>
      <polyline fill="none" stroke="#000000" stroke-width="0.5pt" stroke-dasharray="none" points="90.857,218.141 632.502,218.141 "/>
      <polyline fill="none" stroke="#000000" stroke-width="0.5pt" stroke-dasharray="none" points="145.021,39.313 145.021,44.729 "/>
      <polyline fill="none" stroke="#000000" stroke-width="0.5pt" stroke-dasharray="none" points="199.186,39.313 199.186,44.729 "/>
      <polyline fill="none" stroke="#000000" stroke-width="0.5pt" stroke-dasharray="none" points="253.350,39.313 253.350,44.729 "/>
      <polyline fill="none" stroke="#000000" stroke-width="0.5pt" stroke-dasharray="none" points="307.515,39.313 307.515,44.729 "/>
      <polyline fill="none" stroke="#000000" stroke-width="0.5pt" stroke-dasharray="none" points="361.680,39.313 361.680,44.729 "/>
      <polyline fill="none" stroke="#000000" stroke-width="0.5pt" stroke-dasharray="none" points="415.844,39.313 415.844,44.729 "/>
      <polyline fill="none" stroke="#000000" stroke-width="0.5pt" stroke-dasharray="none" points="470.009,39.313 470.009,44.729 "/>
      <polyline fill="none" stroke="#000000" stroke-width="0.5pt" stroke-dasharray="none" points="524.173,39.313 524.173,44.729 "/>
      <polyline fill="none" stroke="#000000" stroke-width="0.5pt" stroke-dasharray="none" points="578.338,39.313 578.338,44.729 "/>
      <polyline fill="none" stroke="#000000" stroke-width="0.5pt" stroke-dasharray="none" points="90.857,39.313 632.502,39.313 "/>
  <g transform="translate(90.857,236.445)">
    <g transform="rotate(-0.0)">
      <text x="0.000" y="0.000" font-family="Helvetica" text-anchor="middle" font-size="12pt" fill="#000000" >-1</text>
    </g>
  </g>
  <g transform="translate(145.021,236.445)">
    <g transform="rotate(-0.0)">
      <text x="0.000" y="0.000" font-family="Helvetica" text-anchor="middle" font-size="12pt" fill="#000000" >-0.8</text>
    </g>
  </g>
  <g transform="translate(199.186,236.445)">
    <g transform="rotate(-0.0)">
      <text x="0.000" y="0.000" font-family="Helvetica" text-anchor="middle" font-size="12pt" fill="#000000" >-0.6</text>
    </g>
  </g>
  <g transform="translate(253.350,236.445)">
    <g transform="rotate(-0.0)">
      <text x="0.000" y="0.000" font-family="Helvetica" text-anchor="middle" font-size="12pt" fill="#000000" >-0.4</text>
    </g>
  </g>
  <g transform="translate(307.515,236.445)">
    <g transform="rotate(-0.0)">
      <text x="0.000" y="0.000" font-family="Helvetica" text-anchor="middle" font-size="12pt" fill="#000000" >-0.2</text>
    </g>
  </g>
  <g transform="translate(361.680,236.445)">
    <g transform="rotate(-0.0)">
      <text x="0.000" y="0.000" font-family="Helvetica" text-anchor="middle" font-size="12pt" fill="#000000" >0</text>
    </g>
  </g>
  <g transform="translate(415.844,236.445)">
    <g transform="rotate(-0.0)">
      <text x="0.000" y="0.000" font-family="Helvetica" text-anchor="middle" font-size="12pt" fill="#000000" >0.2</text>
    </g>
  </g>
  <g transform="translate(470.009,236.445)">
    <g transform="rotate(-0.0)">
      <text x="0.000" y="0.000" font-family="Helvetica" text-anchor="middle" font-size="12pt" fill="#000000" >0.4</text>
    </g>
  </g>
  <g transform="translate(524.173,236.445)">
    <g transform="rotate(-0.0)">
      <text x="0.000" y="0.000" font-family="Helvetica" text-anchor="middle" font-size="12pt" fill="#000000" >0.6</text>
    </g>
  </g>
  <g transform="translate(578.338,236.445)">
    <g transform="rotate(-0.0)">
      <text x="0.000" y="0.000" font-family="Helvetica" text-anchor="middle" font-size="12pt" fill="#000000" >0.8</text>
    </g>
  </g>
  <g transform="translate(632.502,236.445)">
    <g transform="rotate(-0.0)">
      <text x="0.000" y="0.000" font-family="Helvetica" text-anchor="middle" font-size="12pt" fill="#000000" >1</text>
    </g>
  </g>
      <polyline fill="none" stroke="#000000" stroke-width="0.5pt" stroke-dasharray="none" points="90.857,173.434 96.273,173.434 "/>
      <polyline fill="none" stroke="#000000" stroke-width="0.5pt" stroke-dasharray="none" points="90.857,128.727 96.273,128.727 "/>
      <polyline fill="none" stroke="#000000" stroke-width="0.5pt" stroke-dasharray="none" points="90.857,84.020 96.273,84.020 "/>
      <polyline fill="none" stroke="#000000" stroke-width="0.5pt" stroke-dasharray="none" points="90.857,218.141 90.857,39.313 "/>
      <polyline fill="none" stroke="#000000" stroke-width="0.5pt" stroke-dasharray="none" points="632.502,173.434 627.086,173.434 "/>
      <polyline fill="none" stroke="#000000" stroke-width="0.5pt" stroke-dasharray="none" points="632.502,128.727 627.086,128.727 "/>
      <polyline fill="none" stroke="#000000" stroke-width="0.5pt" stroke-dasharray="none" points="632.502,84.020 627.086,84.020 "/>
      <polyline fill="none" stroke="#000000" stroke-width="0.5pt" stroke-dasharray="none" points="632.502,218.141 632.502,39.313 "/>
  <g transform="translate(80.024,223.758)">
    <g transform="rotate(-0.0)">
      <text x="0.000" y="0.000" font-family="Helvetica" text-anchor="end" font-size="12pt" fill="#000000" >-1</text>
    </g>
  </g>
  <g transform="translate(80.024,179.050)">
    <g transform="rotate(-0.0)">
      <text x="0.000" y="0.000" font-family="Helvetica" text-anchor="end" font-size="12pt" fill="#000000" >-0.5</text>
    </g>
  </g>
  <g transform="translate(80.024,134.343)">
    <g transform="rotate(-0.0)">
      <text x="0.000" y="0.000" font-family="Helvetica" text-anchor="end" font-size="12pt" fill="#000000" >0</text>
    </g>
  </g>
  <g transform="translate(80.024,89.636)">
    <g transform="rotate(-0.0)">
      <text x="0.000" y="0.000" font-family="Helvetica" text-anchor="end" font-size="12pt" fill="#000000" >0.5</text>
    </g>
  </g>
  <g transform="translate(80.024,44.929)">
    <g transform="rotate(-0.0)">
      <text x="0.000" y="0.000" font-family="Helvetica" text-anchor="end" font-size="12pt" fill="#000000" >1</text>
    </g>
  </g>
      <polyline fill="none" stroke="#000000" stroke-width="0.5pt" stroke-dasharray="none" points="90.857,218.141 90.857,216.353 "/>
      <polyline fill="none" stroke="#000000" stroke-width="0.5pt" stroke-dasharray="none" points="90.857,218.141 90.857,218.141 "/>
    </g>
  </g>
  <g id ="ID000006">
  <clipPath id="ID000007">
    <rect x="90.857" y="287.686" width="541.646" height="178.828"/>
  </clipPath>
      <polygon fill="#ffffff" fill-opacity="1.00" stroke="none" stroke-width="0.5pt" stroke-opacity="1.00" stroke-dasharray="none" points="90.857,466.514 632.502,466.514 632.502,287.686 90.857,287.686 "/>
      <polygon fill="#ffffff" fill-opacity="1.00" stroke="none" stroke-width="0.5pt" stroke-opacity="1.00" stroke-dasharray="none" points="90.857,287.686 632.502,287.686 632.502,287.686 90.857,287.686 "/>
      <polygon fill="#ffffff" fill-opacity="1.00" stroke="none" stroke-width="0.5pt" stroke-opacity="1.00" stroke-dasharray="none" points="90.857,466.514 90.857,466.514 90.857,287.686 90.857,287.686 "/>
    <g>
<g id="ID000008" clip-path="url(#ID000007)" >
      <polyline fill="none" stroke="#0000ff" stroke-width="0.5pt" stroke-dasharray="none" points="90.857,466.514 91.128,466.514 91.398,466.514 91.669,466.514 91.940,466.514 92.211,466.514 92.482,466.514 92.752,466.514 93.023,466.514 93.294,466.514 93.565,466.514 93.836,466.514 94.107,466.514 94.377,466.514 94.648,466.514 94.919,466.514 95.190,466.514 95.461,466.514 95.732,466.514 96.002,466.514 96.273,466.514 96.544,466.514 96.815,466.514 97.086,466.514 97.356,466.514 97.627,466.514 97.898,466.514 98.169,466.514 98.440,466.514 98.711,466.514 98.981,466.514 99.252,466.514 99.523,466.514 99.794,466.514 100.065,466.514 100.335,466.514 100.606,466.514 100.877,466.514 101.148,466.514 101.419,466.514 101.690,466.514 101.960,466.514 102.231,466.514 102.502,466.514 102.773,466.514 103.044,466.514 103.315,466.514 103.585,466.514 103.856,466.514 104.127,466.514 104.398,466.514 104.669,466.514 104.939,466.514 105.210,466.514 105.481,466.514 105.752,466.514 106.023,466.514 106.294,466.514 106.564,466.514 106.835,466.514 107.106,466.514 107.377,466.514 107.648,466.514 107.919,466.514 108.189,466.514 108.460,466.514 108.731,466.514 109.002,466.514 109.273,466.514 109.543,466.514 109.814,466.514 110.085,466.514 110.356,466.514 110.627,466.514 110.898,466.514 111.168,466.514 111.439,466.514 111.710,466.514 111.981,466.514 112.252,466.514 112.523,466.514 112.793,466.514 113.064,466.514 113.335,466.514 113.606,466.514 113.877,466.514 114.147,466.514 114.418,466.514 114.689,466.514 114.960,466.514 115.231,466.514 115.502,466.514 115.772,466.514 116.043,466.514 116.314,466.514 116.585,466.514 116.856,466.514 117.127,466.514 117.397,466.514 117.668,466.514 117.939,466.514 118.210,466.514 118.481,466.514 118.751,466.514 119.022,466.514 119.293,466.514 119.564,466.514 119.835,466.514 120.106,466.514 120.376,466.514 120.647,466.514 120.918,466.514 121.189,466.514 121.460,466.514 121.730,466.514 122.001,466.514 122.272,466.514 122.543,466.514 122.814,466.514 123.085,466.514 123.355,466.514 123.626,466.514 123.897,466.514 124.168,466.514 124.439,466.514 124.710,466.514 124.980,466.514 125.251,466.514 125.522,466.514 125.793,466.514 126.064,466.514 126.334,466.514 126.605,466.514 126.876,466.514 127.147,466.514 127.418,466.514 127.689,466.514 127.959,466.514 128.230,466.514 128.501,466.514 128.772,466.514 129.043,466.514 129.314,466.514 129.584,466.514 129.855,466.514 130.126,466.514 130.397,466.514 130.668,466.514 130.938,466.514 131.209,466.514 131.480,466.514 131.751,466.514 132.022,466.514 132.293,466.514 132.563,466.514 132.834,466.514 133.105,466.514 133.376,466.514 133.647,466.514 133.918,466.514 134.188,466.514 134.459,466.514 134.730,466.514 135.001,466.514 135.272,466.514 135.542,466.514 135.813,466.514 136.084,466.514 136.355,466.514 136.626,466.514 136.897,466.514 137.167,466.514 137.438,466.514 137.709,466.514 137.980,466.514 138.251,466.514 138.522,466.514 138.792,466.514 139.063,466.514 139.334,466.514 139.605,466.514 139.876,466.514 140.146,466.514 140.417,466.514 140.688,466.514 140.959,466.514 141.230,466.514 141.501,466.514 141.771,466.514 142.042,466.514 142.313,466.514 142.584,466.514 142.855,466.514 143.126,466.514 143.396,466.514 143.667,466.514 143.938,466.514 144.209,466.514 144.480,466.514 144.750,466.514 145.021,466.514 145.292,466.514 145.563,466.514 145.834,466.514 146.105,466.514 146.375,466.514 146.646,466.514 146.917,466.514 147.188,466.514 147.459,466.514 147.729,466.514 148.000,466.514 148.271,466.514 148.542,466.514 148.813,466.514 149.084,466.514 149.354,466.514 149.625,466.514 149.896,466.514 150.167,466.514 150.438,466.514 150.709,466.514 150.979,466.514 151.250,466.514 151.521,466.514 151.792,466.514 152.063,466.514 152.333,466.514 152.604,466.514 152.875,466.514 153.146,466.514 153.417,466.514 153.688,466.514 153.958,466.514 154.229,466.514 154.500,466.514 154.771,466.514 155.042,466.514 155.313,466.514 155.583,466.514 155.854,466.514 156.125,466.514 156.396,466.514 156.667,466.514 156.937,466.514 157.208,466.514 157.479,466.514 157.750,466.514 158.021,466.514 158.292,466.514 158.562,466.514 158.833,466.514 159.104,466.514 159.375,466.514 159.646,466.514 159.917,466.514 160.187,466.514 160.458,466.514 160.729,466.514 161.000,466.514 161.271,466.514 161.541,466.514 161.812,466.514 162.083,466.514 162.354,466.514 162.625,466.514 162.896,466.514 163.166,466.514 163.437,466.514 163.708,466.514 163.979,466.514 164.250,466.514 164.521,466.514 164.791,466.514 165.062,466.514 165.333,466.514 165.604,466.514 165.875,466.514 166.145,466.514 166.416,466.514 166.687,466.514 166.958,466.514 167.229,466.514 167.500,466.514 167.770,466.514 168.041,466.514 168.312,466.514 168.583,466.514 168.854,466.514 169.124,466.514 169.395,466.514 169.666,466.514 169.937,466.514 170.208,466.514 170.479,466.514 170.749,466.514 171.020,466.514 171.291,466.514 171.562,466.514 171.833,466.514 172.104,466.514 172.374,466.514 172.645,466.514 172.916,466.514 173.187,466.514 173.458,466.514 173.728,466.514 173.999,466.514 174.270,466.514 174.541,466.514 174.812,466.514 175.083,466.514 175.353,466.514 175.624,466.514 175.895,466.514 176.166,466.514 176.437,466.514 176.708,466.514 176.978,466.514 177.249,466.514 177.520,466.514 177.791,466.514 178.062,466.514 178.332,466.514 178.603,466.514 178.874,466.514 179.145,466.514 179.416,466.514 179.687,466.514 179.957,466.514 180.228,466.514 180.499,466.514 180.770,466.514 181.041,466.514 181.312,466.514 181.582,466.514 181.853,466.514 182.124,466.514 182.395,466.514 182.666,466.514 182.936,466.514 183.207,466.514 183.478,466.514 183.749,466.514 184.020,466.514 184.291,466.514 184.561,466.514 184.832,466.514 185.103,466.514 185.374,466.514 185.645,466.514 185.916,466.514 186.186,466.514 186.457,466.514 186.728,466.514 186.999,466.514 187.270,466.514 187.540,466.514 187.811,466.514 188.082,466.514 188.353,466.514 188.624,466.514 188.895,466.514 189.165,466.514 189.436,466.514 189.707,466.514 189.978,466.514 190.249,466.514 190.519,466.514 190.790,466.514 191.061,466.514 191.332,466.514 191.603,466.514 191.874,466.514 192.144,466.514 192.415,466.514 192.686,466.514 192.957,466.514 193.228,466.514 193.499,466.514 193.769,466.514 194.040,466.514 194.311,466.514 194.582,466.514 194.853,466.514 195.123,466.514 195.394,466.514 195.665,466.514 195.936,466.514 196.207,466.514 196.478,466.514 196.748,466.514 197.019,466.514 197.290,466.514 197.561,466.514 197.832,466.514 198.103,466.514 198.373,466.514 198.644,466.514 198.915,466.514 199.186,466.514 199.457,466.514 199.727,466.514 199.998,466.514 200.269,466.514 200.540,466.514 200.811,466.514 201.082,466.514 201.352,466.514 201.623,466.514 201.894,466.514 202.165,466.514 202.436,466.514 202.707,466.514 202.977,466.514 203.248,466.514 203.519,466.514 203.790,466.514 204.061,466.514 204.331,466.514 204.602,466.514 204.873,466.514 205.144,466.514 205.415,466.514 205.686,466.514 205.956,466.514 206.227,466.514 206.498,466.514 206.769,466.514 207.040,466.514 207.311,466.514 207.581,466.514 207.852,466.514 208.123,466.514 208.394,466.514 208.665,466.514 208.935,466.514 209.206,466.514 209.477,466.514 209.748,466.514 210.019,466.514 210.290,466.514 210.560,466.514 210.831,466.514 211.102,466.514 211.373,466.514 211.644,466.514 211.915,466.514 212.185,466.514 212.456,466.514 212.727,466.514 212.998,466.514 213.269,466.514 213.539,466.514 213.810,466.514 214.081,466.514 214.352,466.514 214.623,466.514 214.894,466.514 215.164,466.514 215.435,466.514 215.706,466.514 215.977,466.514 216.248,466.514 216.518,466.514 216.789,466.514 217.060,466.514 217.331,466.514 217.602,466.514 217.873,466.514 218.143,466.514 218.414,466.514 218.685,466.514 218.956,466.514 219.227,466.514 219.498,466.514 219.768,466.514 220.039,466.514 220.310,466.514 220.581,466.514 220.852,466.514 221.122,466.514 221.393,466.514 221.664,466.514 221.935,466.514 222.206,466.514 222.477,466.514 222.747,466.514 223.018,466.514 223.289,466.514 223.560,466.514 223.831,466.514 224.102,466.514 224.372,466.514 224.643,466.514 224.914,466.514 225.185,466.514 225.456,466.514 225.726,466.514 225.997,466.514 226.268,466.514 226.539,466.514 226.810,466.514 227.081,466.514 227.351,466.514 227.622,466.514 227.893,466.514 228.164,466.514 228.435,466.514 228.706,466.514 228.976,466.514 229.247,466.514 229.518,466.514 229.789,466.514 230.060,466.514 230.330,466.514 230.601,466.514 230.872,466.514 231.143,466.514 231.414,466.514 231.685,466.514 231.955,466.514 232.226,466.514 232.497,466.514 232.768,466.514 233.039,466.514 233.310,466.514 233.580,466.514 233.851,466.514 234.122,466.514 234.393,466.514 234.664,466.514 234.934,466.514 235.205,466.514 235.476,466.514 235.747,466.514 236.018,466.514 236.289,466.514 236.559,466.514 236.830,466.514 237.101,466.514 237.372,466.514 237.643,466.514 237.913,466.514 238.184,466.514 238.455,466.514 238.726,466.514 238.997,466.514 239.268,466.514 239.538,466.514 239.809,466.514 240.080,466.514 240.351,466.514 240.622,466.514 240.893,466.514 241.163,466.514 241.434,466.514 241.705,466.514 241.976,466.514 242.247,466.514 242.517,466.514 242.788,466.514 243.059,466.514 243.330,466.514 243.601,466.514 243.872,466.514 244.142,466.514 244.413,466.514 244.684,466.514 244.955,466.514 245.226,466.514 245.497,466.514 245.767,466.514 246.038,466.514 246.309,466.514 246.580,466.514 246.851,466.514 247.121,466.514 247.392,466.514 247.663,466.514 247.934,466.514 248.205,466.514 248.476,466.514 248.746,466.514 249.017,466.514 249.288,466.514 249.559,466.514 249.830,466.514 250.101,466.514 250.371,466.514 250.642,466.514 250.913,466.514 251.184,466.514 251.455,466.514 251.725,466.514 251.996,466.514 252.267,466.514 252.538,466.514 252.809,466.514 253.080,466.514 253.350,466.514 253.621,466.514 253.892,466.514 254.163,466.514 254.434,466.514 254.705,466.514 254.975,466.514 255.246,466.514 255.517,466.514 255.788,466.514 256.059,466.514 256.329,466.514 256.600,466.514 256.871,466.514 257.142,466.514 257.413,466.514 257.684,466.514 257.954,466.514 258.225,466.514 258.496,466.514 258.767,466.514 259.038,466.514 259.308,466.514 259.579,466.514 259.850,466.514 260.121,466.514 260.392,466.514 260.663,466.514 260.933,466.514 261.204,466.514 261.475,466.514 261.746,466.514 262.017,466.514 262.288,466.514 262.558,466.514 262.829,466.514 263.100,466.514 263.371,466.514 263.642,466.514 263.912,466.514 264.183,466.514 264.454,466.514 264.725,466.514 264.996,466.514 265.267,466.514 265.537,466.514 265.808,466.514 266.079,466.514 266.350,466.514 266.621,466.514 266.892,466.514 267.162,466.514 267.433,466.514 267.704,466.514 267.975,466.514 268.246,466.514 268.516,466.514 268.787,466.514 269.058,466.514 269.329,466.514 269.600,466.514 269.871,466.514 270.141,466.514 270.412,466.514 270.683,466.514 270.954,466.514 271.225,466.514 271.496,466.514 271.766,466.514 272.037,466.514 272.308,466.514 272.579,466.514 272.850,466.514 273.120,466.514 273.391,466.514 273.662,466.514 273.933,466.514 274.204,466.514 274.475,466.514 274.745,466.514 275.016,466.514 275.287,466.514 275.558,466.514 275.829,466.514 276.100,466.514 276.370,466.514 276.641,466.514 276.912,466.514 277.183,466.514 277.454,466.514 277.724,466.514 277.995,466.514 278.266,466.514 278.537,466.514 278.808,466.514 279.079,466.514 279.349,466.514 279.620,466.514 279.891,466.514 280.162,466.514 280.433,466.514 280.704,466.514 280.974,466.514 281.245,466.514 281.516,466.514 281.787,466.514 282.058,466.514 282.328,466.514 282.599,466.514 282.870,466.514 283.141,466.514 283.412,466.514 283.683,466.514 283.953,466.514 284.224,466.514 284.495,466.514 284.766,466.514 285.037,466.514 285.307,466.514 285.578,466.514 285.849,466.514 286.120,466.514 286.391,466.514 286.662,466.514 286.932,466.514 287.203,466.514 287.474,466.514 287.745,466.514 288.016,466.514 288.287,466.514 288.557,466.514 288.828,466.514 289.099,466.514 289.370,466.514 289.641,466.514 289.911,466.514 290.182,466.514 290.453,466.514 290.724,466.514 290.995,466.514 291.266,466.514 291.536,466.514 291.807,466.514 292.078,466.514 292.349,466.514 292.620,466.514 292.891,466.514 293.161,466.514 293.432,466.514 293.703,466.514 293.974,466.514 294.245,466.514 294.515,466.514 294.786,466.514 295.057,466.514 295.328,466.514 295.599,466.514 295.870,466.514 296.140,466.514 296.411,466.514 296.682,466.514 296.953,466.514 297.224,466.514 297.495,466.514 297.765,466.514 298.036,466.514 298.307,466.514 298.578,466.514 298.849,466.514 299.119,466.514 299.390,466.514 299.661,466.514 299.932,466.514 300.203,466.514 300.474,466.514 300.744,466.514 301.015,466.514 301.286,466.514 301.557,466.514 301.828,466.514 302.099,466.514 302.369,466.514 302.640,466.514 302.911,466.514 303.182,466.514 303.453,466.514 303.723,466.514 303.994,466.514 304.265,466.514 304.536,466.514 304.807,466.514 305.078,466.514 305.348,466.514 305.619,466.514 305.890,466.514 306.161,466.514 306.432,466.514 306.702,466.514 306.973,466.514 307.244,466.514 307.515,466.514 307.786,466.514 308.057,466.514 308.327,466.514 308.598,466.514 308.869,466.514 309.140,466.514 309.411,466.514 309.682,466.514 309.952,466.514 310.223,466.514 310.494,466.514 310.765,466.514 311.036,466.514 311.306,466.514 311.577,466.514 311.848,466.514 312.119,466.514 312.390,466.514 312.661,466.514 312.931,466.514 313.202,466.514 313.473,466.514 313.744,466.514 314.015,466.514 314.286,466.514 314.556,466.514 314.827,466.514 315.098,466.514 315.369,466.514 315.640,466.514 315.910,466.514 316.181,466.514 316.452,466.514 316.723,466.514 316.994,466.514 317.265,466.514 317.535,466.514 317.806,466.514 318.077,466.514 318.348,466.514 318.619,466.514 318.890,466.514 319.160,466.514 319.431,466.514 319.702,466.514 319.973,466.514 320.244,466.514 320.514,466.514 320.785,466.514 321.056,466.514 321.327,466.514 321.598,466.514 321.869,466.514 322.139,466.514 322.410,466.514 322.681,466.514 322.952,466.514 323.223,466.514 323.494,466.514 323.764,466.514 324.035,466.514 324.306,466.514 324.577,466.514 324.848,466.514 325.118,466.514 325.389,466.514 325.660,466.514 325.931,466.514 326.202,466.514 326.473,466.514 326.743,466.514 327.014,466.514 327.285,466.514 327.556,466.514 327.827,466.514 328.097,466.514 328.368,466.514 328.639,466.514 328.910,466.514 329.181,466.514 329.452,466.514 329.722,466.514 329.993,466.514 330.264,466.514 330.535,466.514 330.806,466.514 331.077,466.514 331.347,466.514 331.618,466.514 331.889,466.514 332.160,466.514 332.431,466.514 332.701,466.514 332.972,466.514 333.243,466.514 333.514,466.514 333.785,466.514 334.056,466.514 334.326,466.514 334.597,466.514 334.868,466.514 335.139,466.514 335.410,466.514 335.681,466.514 335.951,466.514 336.222,466.514 336.493,466.514 336.764,466.514 337.035,466.514 337.305,466.514 337.576,466.514 337.847,466.514 338.118,466.514 338.389,466.514 338.660,466.514 338.930,466.514 339.201,466.514 339.472,466.514 339.743,466.514 340.014,466.514 340.285,466.514 340.555,466.514 340.826,466.514 341.097,466.514 341.368,466.514 341.639,466.514 341.909,466.514 342.180,466.514 342.451,466.514 342.722,466.514 342.993,466.514 343.264,466.514 343.534,466.514 343.805,466.514 344.076,466.514 344.347,466.514 344.618,466.514 344.889,466.514 345.159,466.514 345.430,466.514 345.701,466.514 345.972,466.514 346.243,466.514 346.513,466.514 346.784,466.514 347.055,466.514 347.326,466.514 347.597,466.514 347.868,466.514 348.138,466.514 348.409,466.514 348.680,466.514 348.951,466.514 349.222,466.514 349.493,466.514 349.763,466.514 350.034,466.514 350.305,466.514 350.576,466.514 350.847,466.514 351.117,466.514 351.388,466.514 351.659,466.514 351.930,466.514 352.201,466.514 352.472,466.514 352.742,466.514 353.013,466.514 353.284,466.514 353.555,466.514 353.826,466.514 354.096,466.514 354.367,466.514 354.638,466.514 354.909,466.514 355.180,466.514 355.451,466.514 355.721,466.514 355.992,466.514 356.263,466.514 356.534,466.514 356.805,466.514 357.076,466.514 357.346,466.514 357.617,466.514 357.888,466.514 358.159,466.514 358.430,466.514 358.700,466.514 358.971,466.514 359.242,466.514 359.513,466.514 359.784,466.514 360.055,466.514 360.325,466.514 360.596,466.514 360.867,466.514 361.138,466.514 361.409,466.514 361.680,466.514 361.950,466.514 362.221,466.514 362.492,466.514 362.763,466.514 363.034,466.514 363.304,466.514 363.575,466.514 363.846,466.514 364.117,466.514 364.388,466.514 364.659,466.514 364.929,466.514 365.200,466.514 365.471,466.514 365.742,466.514 366.013,466.514 366.284,466.514 366.554,466.514 366.825,466.514 367.096,466.514 367.367,466.514 367.638,466.514 367.908,466.514 368.179,466.514 368.450,466.514 368.721,466.514 368.992,466.514 369.263,466.514 369.533,466.514 369.804,466.514 370.075,466.514 370.346,466.514 370.617,466.514 370.888,466.514 371.158,466.514 371.429,466.514 371.700,466.514 371.971,466.514 372.242,466.514 372.512,466.514 372.783,466.514 373.054,466.514 373.325,466.514 373.596,466.514 373.867,466.514 374.137,466.514 374.408,466.514 374.679,466.514 374.950,466.514 375.221,466.514 375.491,466.514 375.762,466.514 376.033,466.514 376.304,466.514 376.575,466.514 376.846,466.514 377.116,466.514 377.387,466.514 377.658,466.514 377.929,466.514 378.200,466.514 378.471,466.514 378.741,466.514 379.012,466.514 379.283,466.514 379.554,466.514 379.825,466.514 380.095,466.514 380.366,466.514 380.637,466.514 380.908,466.514 381.179,466.514 381.450,466.514 381.720,466.514 381.991,466.514 382.262,466.514 382.533,466.514 382.804,466.514 383.075,466.514 383.345,466.514 383.616,466.514 383.887,466.514 384.158,466.514 384.429,466.514 384.699,466.514 384.970,466.514 385.241,466.514 385.512,466.514 385.783,466.514 386.054,466.514 386.324,466.514 386.595,466.514 386.866,466.514 387.137,466.514 387.408,466.514 387.679,466.514 387.949,466.514 388.220,466.514 388.491,466.514 388.762,466.514 389.033,466.514 389.303,466.514 389.574,466.514 389.845,466.514 390.116,466.514 390.387,466.514 390.658,466.514 390.928,466.514 391.199,466.514 391.470,466.514 391.741,466.514 392.012,466.514 392.283,466.514 392.553,466.514 392.824,466.514 393.095,466.514 393.366,466.514 393.637,466.514 393.907,466.514 394.178,466.514 394.449,466.514 394.720,466.514 394.991,466.514 395.262,466.514 395.532,466.514 395.803,466.514 396.074,466.514 396.345,466.514 396.616,466.514 396.886,466.514 397.157,466.514 397.428,466.514 397.699,466.514 397.970,466.514 398.241,466.514 398.511,466.514 398.782,466.514 399.053,466.514 399.324,466.514 399.595,466.514 399.866,466.514 400.136,466.514 400.407,466.514 400.678,466.514 400.949,466.514 401.220,466.514 401.490,466.514 401.761,466.514 402.032,466.514 402.303,466.514 402.574,466.514 402.845,466.514 403.115,466.514 403.386,466.514 403.657,466.514 403.928,466.514 404.199,466.514 404.470,466.514 404.740,466.514 405.011,466.514 405.282,466.514 405.553,466.514 405.824,466.514 406.094,466.514 406.365,466.514 406.636,466.514 406.907,466.514 407.178,466.514 407.449,466.514 407.719,466.514 407.990,466.514 408.261,466.514 408.532,466.514 408.803,466.514 409.074,466.514 409.344,466.514 409.615,466.514 409.886,466.514 410.157,466.514 410.428,466.514 410.698,466.514 410.969,466.514 411.240,466.514 411.511,466.514 411.782,466.514 412.053,466.514 412.323,466.514 412.594,466.514 412.865,466.514 413.136,466.514 413.407,466.514 413.678,466.514 413.948,466.514 414.219,466.514 414.490,466.514 414.761,466.514 415.032,466.514 415.302,466.514 415.573,466.514 415.844,466.514 416.115,466.514 416.386,466.514 416.657,466.514 416.927,466.514 417.198,466.514 417.469,466.514 417.740,466.514 418.011,466.514 418.282,466.514 418.552,466.514 418.823,466.514 419.094,466.514 419.365,466.514 419.636,466.514 419.906,466.514 420.177,466.514 420.448,466.514 420.719,466.514 420.990,466.514 421.261,466.514 421.531,466.514 421.802,466.514 422.073,466.513 422.344,466.513 422.615,466.513 422.885,466.513 423.156,466.513 423.427,466.512 423.698,466.512 423.969,466.511 424.240,466.511 424.510,466.510 424.781,466.510 425.052,466.509 425.323,466.508 425.594,466.507 425.865,466.505 426.135,466.504 426.406,466.502 426.677,466.500 426.948,466.497 427.219,466.494 427.489,466.491 427.760,466.487 428.031,466.482 428.302,466.477 428.573,466.471 428.844,466.464 429.114,466.456 429.385,466.446 429.656,466.436 429.927,466.423 430.198,466.409 430.469,466.393 430.739,466.375 431.010,466.354 431.281,466.330 431.552,466.304 431.823,466.273 432.093,466.238 432.364,466.199 432.635,466.155 432.906,466.105 433.177,466.049 433.448,465.986 433.718,465.915 433.989,465.835 434.260,465.747 434.531,465.647 434.802,465.536 435.073,465.413 435.343,465.275 435.614,465.123 435.885,464.953 436.156,464.766 436.427,464.558 436.697,464.329 436.968,464.077 437.239,463.799 437.510,463.494 437.781,463.159 438.052,462.791 438.322,462.390 438.593,461.951 438.864,461.473 439.135,460.952 439.406,460.386 439.677,459.771 439.947,459.106 440.218,458.385 440.489,457.607 440.760,456.768 441.031,455.864 441.301,454.893 441.572,453.850 441.843,452.733 442.114,451.538 442.385,450.262 442.656,448.902 442.926,447.453 443.197,445.915 443.468,444.282 443.739,442.554 444.010,440.726 444.280,438.797 444.551,436.765 444.822,434.628 445.093,432.385 445.364,430.034 445.635,427.575 445.905,425.007 446.176,422.331 446.447,419.547 446.718,416.657 446.989,413.661 447.260,410.563 447.530,407.364 447.801,404.069 448.072,400.681 448.343,397.205 448.614,393.646 448.884,390.010 449.155,386.302 449.426,382.531 449.697,378.704 449.968,374.828 450.239,370.914 450.509,366.969 450.780,363.005 451.051,359.031 451.322,355.058 451.593,351.097 451.864,347.160 452.134,343.259 452.405,339.406 452.676,335.613 452.947,331.892 453.218,328.256 453.488,324.717 453.759,321.288 454.030,317.981 454.301,314.808 454.572,311.781 454.843,308.910 455.113,306.207 455.384,303.683 455.655,301.346 455.926,299.207 456.197,297.273 456.468,295.553 456.738,294.053 457.009,292.780 457.280,291.738 457.551,290.932 457.822,290.365 458.092,290.040 458.363,289.957 458.634,290.118 458.905,290.522 459.176,291.166 459.447,292.048 459.717,293.165 459.988,294.513 460.259,296.084 460.530,297.874 460.801,299.875 461.072,302.079 461.342,304.477 461.613,307.061 461.884,309.819 462.155,312.741 462.426,315.817 462.696,319.034 462.967,322.382 463.238,325.848 463.509,329.419 463.780,333.084 464.051,336.829 464.321,340.643 464.592,344.513 464.863,348.427 465.134,352.373 465.405,356.339 465.675,360.314 465.946,364.286 466.217,368.245 466.488,372.181 466.759,376.084 467.030,379.944 467.300,383.754 467.571,387.506 467.842,391.191 468.113,394.803 468.384,398.336 468.655,401.784 468.925,405.143 469.196,408.407 469.467,411.574 469.738,414.639 470.009,417.601 470.279,420.457 470.550,423.206 470.821,425.848 471.092,428.380 471.363,430.804 471.634,433.121 471.904,435.329 472.175,437.432 472.446,439.431 472.717,441.327 472.988,443.122 473.259,444.819 473.529,446.421 473.800,447.931 474.071,449.350 474.342,450.683 474.613,451.933 474.883,453.102 475.154,454.195 475.425,455.214 475.696,456.163 475.967,457.045 476.238,457.865 476.508,458.624 476.779,459.326 477.050,459.975 477.321,460.574 477.592,461.125 477.863,461.632 478.133,462.097 478.404,462.523 478.675,462.913 478.946,463.270 479.217,463.595 479.487,463.892 479.758,464.161 480.029,464.406 480.300,464.627 480.571,464.828 480.842,465.010 481.112,465.174 481.383,465.321 481.654,465.454 481.925,465.573 482.196,465.680 482.467,465.776 482.737,465.862 483.008,465.939 483.279,466.007 483.550,466.068 483.821,466.122 484.091,466.170 484.362,466.212 484.633,466.250 484.904,466.283 485.175,466.313 485.446,466.338 485.716,466.361 485.987,466.381 486.258,466.399 486.529,466.414 486.800,466.428 487.071,466.439 487.341,466.450 487.612,466.458 487.883,466.466 488.154,466.473 488.425,466.479 488.695,466.484 488.966,466.488 489.237,466.492 489.508,466.495 489.779,466.498 490.050,466.500 490.320,466.502 490.591,466.504 490.862,466.506 491.133,466.507 491.404,466.508 491.674,466.509 491.945,466.510 492.216,466.511 492.487,466.511 492.758,466.512 493.029,466.512 493.299,466.512 493.570,466.513 493.841,466.513 494.112,466.513 494.383,466.513 494.654,466.513 494.924,466.514 495.195,466.514 495.466,466.514 495.737,466.514 496.008,466.514 496.278,466.514 496.549,466.514 496.820,466.514 497.091,466.514 497.362,466.514 497.633,466.514 497.903,466.514 498.174,466.514 498.445,466.514 498.716,466.514 498.987,466.514 499.258,466.514 499.528,466.514 499.799,466.514 500.070,466.514 500.341,466.514 500.612,466.514 500.882,466.514 501.153,466.514 501.424,466.514 501.695,466.514 501.966,466.514 502.237,466.514 502.507,466.514 502.778,466.514 503.049,466.514 503.320,466.514 503.591,466.514 503.862,466.514 504.132,466.514 504.403,466.514 504.674,466.514 504.945,466.514 505.216,466.514 505.486,466.514 505.757,466.514 506.028,466.514 506.299,466.514 506.570,466.514 506.841,466.514 507.111,466.514 507.382,466.514 507.653,466.514 507.924,466.514 508.195,466.514 508.466,466.514 508.736,466.514 509.007,466.514 509.278,466.514 509.549,466.514 509.820,466.514 510.090,466.514 510.361,466.514 510.632,466.514 510.903,466.514 511.174,466.514 511.445,466.514 511.715,466.514 511.986,466.514 512.257,466.514 512.528,466.514 512.799,466.514 513.069,466.514 513.340,466.514 513.611,466.514 513.882,466.514 514.153,466.514 514.424,466.514 514.694,466.514 514.965,466.514 515.236,466.514 515.507,466.514 515.778,466.514 516.049,466.514 516.319,466.514 516.590,466.514 516.861,466.514 517.132,466.514 517.403,466.514 517.673,466.514 517.944,466.514 518.215,466.514 518.486,466.514 518.757,466.514 519.028,466.514 519.298,466.514 519.569,466.514 519.840,466.514 520.111,466.514 520.382,466.514 520.653,466.514 520.923,466.514 521.194,466.514 521.465,466.514 521.736,466.514 522.007,466.514 522.277,466.514 522.548,466.514 522.819,466.514 523.090,466.514 523.361,466.514 523.632,466.514 523.902,466.514 524.173,466.514 524.444,466.514 524.715,466.514 524.986,466.514 525.257,466.514 525.527,466.514 525.798,466.514 526.069,466.514 526.340,466.514 526.611,466.514 526.881,466.514 527.152,466.514 527.423,466.514 527.694,466.514 527.965,466.514 528.236,466.514 528.506,466.514 528.777,466.514 529.048,466.514 529.319,466.514 529.590,466.514 529.861,466.514 530.131,466.514 530.402,466.514 530.673,466.514 530.944,466.514 531.215,466.514 531.485,466.514 531.756,466.514 532.027,466.514 532.298,466.514 532.569,466.514 532.840,466.514 533.110,466.514 533.381,466.514 533.652,466.514 533.923,466.514 534.194,466.514 534.464,466.514 534.735,466.514 535.006,466.514 535.277,466.514 535.548,466.514 535.819,466.514 536.089,466.514 536.360,466.514 536.631,466.514 536.902,466.514 537.173,466.514 537.444,466.514 537.714,466.514 537.985,466.514 538.256,466.514 538.527,466.514 538.798,466.514 539.068,466.514 539.339,466.514 539.610,466.514 539.881,466.514 540.152,466.514 540.423,466.514 540.693,466.514 540.964,466.514 541.235,466.514 541.506,466.514 541.777,466.514 542.048,466.514 542.318,466.514 542.589,466.514 542.860,466.514 543.131,466.514 543.402,466.514 543.672,466.514 543.943,466.514 544.214,466.514 544.485,466.514 544.756,466.514 545.027,466.514 545.297,466.514 545.568,466.514 545.839,466.514 546.110,466.514 546.381,466.514 546.652,466.514 546.922,466.514 547.193,466.514 547.464,466.514 547.735,466.514 548.006,466.514 548.276,466.514 548.547,466.514 548.818,466.514 549.089,466.514 549.360,466.514 549.631,466.514 549.901,466.514 550.172,466.514 550.443,466.514 550.714,466.514 550.985,466.514 551.256,466.514 551.526,466.514 551.797,466.514 552.068,466.514 552.339,466.514 552.610,466.514 552.880,466.514 553.151,466.514 553.422,466.514 553.693,466.514 553.964,466.514 554.235,466.514 554.505,466.514 554.776,466.514 555.047,466.514 555.318,466.514 555.589,466.514 555.860,466.514 556.130,466.514 556.401,466.514 556.672,466.514 556.943,466.514 557.214,466.514 557.484,466.514 557.755,466.514 558.026,466.514 558.297,466.514 558.568,466.514 558.839,466.514 559.109,466.514 559.380,466.514 559.651,466.514 559.922,466.514 560.193,466.514 560.463,466.514 560.734,466.514 561.005,466.514 561.276,466.514 561.547,466.514 561.818,466.514 562.088,466.514 562.359,466.514 562.630,466.514 562.901,466.514 563.172,466.514 563.443,466.514 563.713,466.514 563.984,466.514 564.255,466.514 564.526,466.514 564.797,466.514 565.067,466.514 565.338,466.514 565.609,466.514 565.880,466.514 566.151,466.514 566.422,466.514 566.692,466.514 566.963,466.514 567.234,466.514 567.505,466.514 567.776,466.514 568.047,466.514 568.317,466.514 568.588,466.514 568.859,466.514 569.130,466.514 569.401,466.514 569.671,466.514 569.942,466.514 570.213,466.514 570.484,466.514 570.755,466.514 571.026,466.514 571.296,466.514 571.567,466.514 571.838,466.514 572.109,466.514 572.380,466.514 572.651,466.514 572.921,466.514 573.192,466.514 573.463,466.514 573.734,466.514 574.005,466.514 574.275,466.514 574.546,466.514 574.817,466.514 575.088,466.514 575.359,466.514 575.630,466.514 575.900,466.514 576.171,466.514 576.442,466.514 576.713,466.514 576.984,466.514 577.255,466.514 577.525,466.514 577.796,466.514 578.067,466.514 578.338,466.514 578.609,466.514 578.879,466.514 579.150,466.514 579.421,466.514 579.692,466.514 579.963,466.514 580.234,466.514 580.504,466.514 580.775,466.514 581.046,466.514 581.317,466.514 581.588,466.514 581.858,466.514 582.129,466.514 582.400,466.514 582.671,466.514 582.942,466.514 583.213,466.514 583.483,466.514 583.754,466.514 584.025,466.514 584.296,466.514 584.567,466.514 584.838,466.514 585.108,466.514 585.379,466.514 585.650,466.514 585.921,466.514 586.192,466.514 586.462,466.514 586.733,466.514 587.004,466.514 587.275,466.514 587.546,466.514 587.817,466.514 588.087,466.514 588.358,466.514 588.629,466.514 588.900,466.514 589.171,466.514 589.442,466.514 589.712,466.514 589.983,466.514 590.254,466.514 590.525,466.514 590.796,466.514 591.066,466.514 591.337,466.514 591.608,466.514 591.879,466.514 592.150,466.514 592.421,466.514 592.691,466.514 592.962,466.514 593.233,466.514 593.504,466.514 593.775,466.514 594.046,466.514 594.316,466.514 594.587,466.514 594.858,466.514 595.129,466.514 595.400,466.514 595.670,466.514 595.941,466.514 596.212,466.514 596.483,466.514 596.754,466.514 597.025,466.514 597.295,466.514 597.566,466.514 597.837,466.514 598.108,466.514 598.379,466.514 598.650,466.514 598.920,466.514 599.191,466.514 599.462,466.514 599.733,466.514 600.004,466.514 600.274,466.514 600.545,466.514 600.816,466.514 601.087,466.514 601.358,466.514 601.629,466.514 601.899,466.514 602.170,466.514 602.441,466.514 602.712,466.514 602.983,466.514 603.253,466.514 603.524,466.514 603.795,466.514 604.066,466.514 604.337,466.514 604.608,466.514 604.878,466.514 605.149,466.514 605.420,466.514 605.691,466.514 605.962,466.514 606.233,466.514 606.503,466.514 606.774,466.514 607.045,466.514 607.316,466.514 607.587,466.514 607.857,466.514 608.128,466.514 608.399,466.514 608.670,466.514 608.941,466.514 609.212,466.514 609.482,466.514 609.753,466.514 610.024,466.514 610.295,466.514 610.566,466.514 610.837,466.514 611.107,466.514 611.378,466.514 611.649,466.514 611.920,466.514 612.191,466.514 612.461,466.514 612.732,466.514 613.003,466.514 613.274,466.514 613.545,466.514 613.816,466.514 614.086,466.514 614.357,466.514 614.628,466.514 614.899,466.514 615.170,466.514 615.441,466.514 615.711,466.514 615.982,466.514 616.253,466.514 616.524,466.514 616.795,466.514 617.065,466.514 617.336,466.514 617.607,466.514 617.878,466.514 618.149,466.514 618.420,466.514 618.690,466.514 618.961,466.514 619.232,466.514 619.503,466.514 619.774,466.514 620.045,466.514 620.315,466.514 620.586,466.514 620.857,466.514 621.128,466.514 621.399,466.514 621.669,466.514 621.940,466.514 622.211,466.514 622.482,466.514 622.753,466.514 623.024,466.514 623.294,466.514 623.565,466.514 623.836,466.514 624.107,466.514 624.378,466.514 624.649,466.514 624.919,466.514 625.190,466.514 625.461,466.514 625.732,466.514 626.003,466.514 626.273,466.514 626.544,466.514 626.815,466.514 627.086,466.514 627.357,466.514 627.628,466.514 627.898,466.514 628.169,466.514 628.440,466.514 628.711,466.514 628.982,466.514 629.252,466.514 629.523,466.514 629.794,466.514 630.065,466.514 630.336,466.514 630.607,466.514 630.877,466.514 631.148,466.514 631.419,466.514 631.690,466.514 631.961,466.514 632.232,466.514 632.502,466.514 "/>
<g>
</g>
</g>
<g id="ID000009" >
  <g transform="translate(361.056,278.938)">
    <g transform="rotate(-0.0)">
      <text x="0.000" y="0.000" font-family="Helvetica" text-anchor="middle" font-size="12pt" fill="#000000" >l = 0.46, x* = 0.50</text>
    </g>
  </g>
</g>
<g id="ID000010" >
</g>
<g id="ID000011" >
</g>
    </g>
    <g>
      <polyline fill="none" stroke="#000000" stroke-width="0.5pt" stroke-dasharray="none" points="145.021,466.514 145.021,461.098 "/>
      <polyline fill="none" stroke="#000000" stroke-width="0.5pt" stroke-dasharray="none" points="199.186,466.514 199.186,461.098 "/>
      <polyline fill="none" stroke="#000000" stroke-width="0.5pt" stroke-dasharray="none" points="253.350,466.514 253.350,461.098 "/>
      <polyline fill="none" stroke="#000000" stroke-width="0.5pt" stroke-dasharray="none" points="307.515,466.514 307.515,461.098 "/>
      <polyline fill="none" stroke="#000000" stroke-width="0.5pt" stroke-dasharray="none" points="361.680,466.514 361.680,461.098 "/>
      <polyline fill="none" stroke="#000000" stroke-width="0.5pt" stroke-dasharray="none" points="415.844,466.514 415.844,461.098 "/>
      <polyline fill="none" stroke="#000000" stroke-width="0.5pt" stroke-dasharray="none" points="470.009,466.514 470.009,461.098 "/>
      <polyline fill="none" stroke="#000000" stroke-width="0.5pt" stroke-dasharray="none" points="524.173,466.514 524.173,461.098 "/>
      <polyline fill="none" stroke="#000000" stroke-width="0.5pt" stroke-dasharray="none" points="578.338,466.514 578.338,461.098 "/>
      <polyline fill="none" stroke="#000000" stroke-width="0.5pt" stroke-dasharray="none" points="90.857,466.514 632.502,466.514 "/>
      <polyline fill="none" stroke="#000000" stroke-width="0.5pt" stroke-dasharray="none" points="145.021,287.686 145.021,293.102 "/>
      <polyline fill="none" stroke="#000000" stroke-width="0.5pt" stroke-dasharray="none" points="199.186,287.686 199.186,293.102 "/>
      <polyline fill="none" stroke="#000000" stroke-width="0.5pt" stroke-dasharray="none" points="253.350,287.686 253.350,293.102 "/>
      <polyline fill="none" stroke="#000000" stroke-width="0.5pt" stroke-dasharray="none" points="307.515,287.686 307.515,293.102 "/>
      <polyline fill="none" stroke="#000000" stroke-width="0.5pt" stroke-dasharray="none" points="361.680,287.686 361.680,293.102 "/>
      <polyline fill="none" stroke="#000000" stroke-width="0.5pt" stroke-dasharray="none" points="415.844,287.686 415.844,293.102 "/>
      <polyline fill="none" stroke="#000000" stroke-width="0.5pt" stroke-dasharray="none" points="470.009,287.686 470.009,293.102 "/>
      <polyline fill="none" stroke="#000000" stroke-width="0.5pt" stroke-dasharray="none" points="524.173,287.686 524.173,293.102 "/>
      <polyline fill="none" stroke="#000000" stroke-width="0.5pt" stroke-dasharray="none" points="578.338,287.686 578.338,293.102 "/>
      <polyline fill="none" stroke="#000000" stroke-width="0.5pt" stroke-dasharray="none" points="90.857,287.686 632.502,287.686 "/>
  <g transform="translate(90.857,484.818)">
    <g transform="rotate(-0.0)">
      <text x="0.000" y="0.000" font-family="Helvetica" text-anchor="middle" font-size="12pt" fill="#000000" >-1</text>
    </g>
  </g>
  <g transform="translate(145.021,484.818)">
    <g transform="rotate(-0.0)">
      <text x="0.000" y="0.000" font-family="Helvetica" text-anchor="middle" font-size="12pt" fill="#000000" >-0.8</text>
    </g>
  </g>
  <g transform="translate(199.186,484.818)">
    <g transform="rotate(-0.0)">
      <text x="0.000" y="0.000" font-family="Helvetica" text-anchor="middle" font-size="12pt" fill="#000000" >-0.6</text>
    </g>
  </g>
  <g transform="translate(253.350,484.818)">
    <g transform="rotate(-0.0)">
      <text x="0.000" y="0.000" font-family="Helvetica" text-anchor="middle" font-size="12pt" fill="#000000" >-0.4</text>
    </g>
  </g>
  <g transform="translate(307.515,484.818)">
    <g transform="rotate(-0.0)">
      <text x="0.000" y="0.000" font-family="Helvetica" text-anchor="middle" font-size="12pt" fill="#000000" >-0.2</text>
    </g>
  </g>
  <g transform="translate(361.680,484.818)">
    <g transform="rotate(-0.0)">
      <text x="0.000" y="0.000" font-family="Helvetica" text-anchor="middle" font-size="12pt" fill="#000000" >0</text>
    </g>
  </g>
  <g transform="translate(415.844,484.818)">
    <g transform="rotate(-0.0)">
      <text x="0.000" y="0.000" font-family="Helvetica" text-anchor="middle" font-size="12pt" fill="#000000" >0.2</text>
    </g>
  </g>
  <g transform="translate(470.009,484.818)">
    <g transform="rotate(-0.0)">
      <text x="0.000" y="0.000" font-family="Helvetica" text-anchor="middle" font-size="12pt" fill="#000000" >0.4</text>
    </g>
  </g>
  <g transform="translate(524.173,484.818)">
    <g transform="rotate(-0.0)">
      <text x="0.000" y="0.000" font-family="Helvetica" text-anchor="middle" font-size="12pt" fill="#000000" >0.6</text>
    </g>
  </g>
  <g transform="translate(578.338,484.818)">
    <g transform="rotate(-0.0)">
      <text x="0.000" y="0.000" font-family="Helvetica" text-anchor="middle" font-size="12pt" fill="#000000" >0.8</text>
    </g>
  </g>
  <g transform="translate(632.502,484.818)">
    <g transform="rotate(-0.0)">
      <text x="0.000" y="0.000" font-family="Helvetica" text-anchor="middle" font-size="12pt" fill="#000000" >1</text>
    </g>
  </g>
      <polyline fill="none" stroke="#000000" stroke-width="0.5pt" stroke-dasharray="none" points="90.857,406.905 96.273,406.905 "/>
      <polyline fill="none" stroke="#000000" stroke-width="0.5pt" stroke-dasharray="none" points="90.857,347.295 96.273,347.295 "/>
      <polyline fill="none" stroke="#000000" stroke-width="0.5pt" stroke-dasharray="none" points="90.857,466.514 90.857,287.686 "/>
      <polyline fill="none" stroke="#000000" stroke-width="0.5pt" stroke-dasharray="none" points="632.502,406.905 627.086,406.905 "/>
      <polyline fill="none" stroke="#000000" stroke-width="0.5pt" stroke-dasharray="none" points="632.502,347.295 627.086,347.295 "/>
      <polyline fill="none" stroke="#000000" stroke-width="0.5pt" stroke-dasharray="none" points="632.502,466.514 632.502,287.686 "/>
  <g transform="translate(80.024,472.130)">
    <g transform="rotate(-0.0)">
      <text x="0.000" y="0.000" font-family="Helvetica" text-anchor="end" font-size="12pt" fill="#000000" >0</text>
    </g>
  </g>
  <g transform="translate(80.024,412.521)">
    <g transform="rotate(-0.0)">
      <text x="0.000" y="0.000" font-family="Helvetica" text-anchor="end" font-size="12pt" fill="#000000" >5</text>
    </g>
  </g>
  <g transform="translate(80.024,352.911)">
    <g transform="rotate(-0.0)">
      <text x="0.000" y="0.000" font-family="Helvetica" text-anchor="end" font-size="12pt" fill="#000000" >10</text>
    </g>
  </g>
  <g transform="translate(80.024,293.302)">
    <g transform="rotate(-0.0)">
      <text x="0.000" y="0.000" font-family="Helvetica" text-anchor="end" font-size="12pt" fill="#000000" >15</text>
    </g>
  </g>
      <polyline fill="none" stroke="#000000" stroke-width="0.5pt" stroke-dasharray="none" points="90.857,466.514 90.857,464.726 "/>
      <polyline fill="none" stroke="#000000" stroke-width="0.5pt" stroke-dasharray="none" points="90.857,466.514 90.857,466.514 "/>
    </g>
  </g>
  </g>
</svg>
