<?xml version="1.0" encoding="utf-8" standalone="no"?><!DOCTYPE svg PUBLIC "-//W3C//DTD SVG 1.1//EN" "http://www.w3.org/Graphics/SVG/1.1/DTD/svg11.dtd">
<svg preserveAspectRatio="xMinYMin meet" width="100%" height="100%" viewBox="0 0 698.898 524.173"  version="1.1" xmlns="http://www.w3.org/2000/svg" xmlns:xlink="http://www.w3.org/1999/xlink">
  <desc>Matlab Figure Converted by PLOT2SVG written by Juerg Schwizer</desc>
  <g id="topgroup">
  <rect x="0" y="0" width="698.898" height="524.173" fill="#ffffff" stroke="none" />
  <g id ="ID000000">
  <clipPath id="ID000001">
    <rect x="90.857" y="39.313" width="541.646" height="178.828"/>
  </clipPath>
      <polygon fill="#ffffff" fill-opacity="1.00" stroke="none" stroke-width="0.5pt" stroke-opacity="1.00" stroke-dasharray="none" points="90.857,218.141 632.502,218.141 632.502,39.313 90.857,39.313 "/>
      <polygon fill="#ffffff" fill-opacity="1.00" stroke="none" stroke-width="0.5pt" stroke-opacity="1.00" stroke-dasharray="none" points="90.857,39.313 632.502,39.313 632.502,39.313 90.857,39.313 "/>
      <polygon fill="#ffffff" fill-opacity="1.00" stroke="none" stroke-width="0.5pt" stroke-opacity="1.00" stroke-dasharray="none" points="90.857,218.141 90.857,218.141 90.857,39.313 90.857,39.313 "/>
    <g>
<g id="ID000002" clip-path="url(#ID000001)" >
      <polyline fill="none" stroke="#0000ff" stroke-width="0.5pt" stroke-dasharray="none" points="90.857,218.141 91.128,218.141 91.398,218.141 91.669,218.141 91.940,218.141 92.211,218.141 92.482,218.141 92.752,218.141 93.023,218.141 93.294,218.141 93.565,218.141 93.836,218.141 94.107,218.141 94.377,218.141 94.648,218.141 94.919,218.141 95.190,218.141 95.461,218.141 95.732,218.141 96.002,218.141 96.273,218.141 96.544,218.141 96.815,218.141 97.086,218.141 97.356,218.141 97.627,218.141 97.898,218.141 98.169,218.141 98.440,218.141 98.711,218.141 98.981,218.141 99.252,218.141 99.523,218.141 99.794,218.141 100.065,218.141 100.335,218.141 100.606,218.141 100.877,218.141 101.148,218.141 101.419,218.141 101.690,218.141 101.960,218.141 102.231,218.141 102.502,218.141 102.773,218.141 103.044,218.141 103.315,218.141 103.585,218.141 103.856,218.141 104.127,218.141 104.398,218.141 104.669,218.141 104.939,218.141 105.210,218.141 105.481,218.141 105.752,218.141 106.023,218.141 106.294,218.141 106.564,218.141 106.835,218.141 107.106,218.141 107.377,218.141 107.648,218.141 107.919,218.141 108.189,218.141 108.460,218.141 108.731,218.141 109.002,218.141 109.273,218.141 109.543,218.141 109.814,218.141 110.085,218.141 110.356,218.141 110.627,218.141 110.898,218.141 111.168,218.141 111.439,218.141 111.710,218.141 111.981,218.141 112.252,218.141 112.523,218.141 112.793,218.141 113.064,218.141 113.335,218.141 113.606,218.141 113.877,218.141 114.147,218.141 114.418,218.141 114.689,218.141 114.960,218.141 115.231,218.141 115.502,218.141 115.772,218.141 116.043,218.141 116.314,218.141 116.585,218.141 116.856,218.141 117.127,218.141 117.397,218.141 117.668,218.141 117.939,218.141 118.210,218.141 118.481,218.141 118.751,218.141 119.022,218.141 119.293,218.141 119.564,218.141 119.835,218.141 120.106,218.141 120.376,218.141 120.647,218.141 120.918,218.141 121.189,218.141 121.460,218.141 121.730,218.141 122.001,218.141 122.272,218.141 122.543,218.141 122.814,218.141 123.085,218.141 123.355,218.141 123.626,218.141 123.897,218.141 124.168,218.141 124.439,218.141 124.710,218.141 124.980,218.141 125.251,218.141 125.522,218.141 125.793,218.141 126.064,218.141 126.334,218.141 126.605,218.141 126.876,218.141 127.147,218.141 127.418,218.141 127.689,218.141 127.959,218.141 128.230,218.141 128.501,218.141 128.772,218.141 129.043,218.141 129.314,218.141 129.584,218.141 129.855,218.141 130.126,218.141 130.397,218.141 130.668,218.141 130.938,218.141 131.209,218.141 131.480,218.141 131.751,218.141 132.022,218.141 132.293,218.141 132.563,218.141 132.834,218.141 133.105,218.141 133.376,218.141 133.647,218.141 133.918,218.141 134.188,218.141 134.459,218.141 134.730,218.141 135.001,218.141 135.272,218.141 135.542,218.141 135.813,218.141 136.084,218.141 136.355,218.141 136.626,218.141 136.897,218.141 137.167,218.141 137.438,218.141 137.709,218.141 137.980,218.141 138.251,218.141 138.522,218.141 138.792,218.141 139.063,218.141 139.334,218.141 139.605,218.141 139.876,218.141 140.146,218.141 140.417,218.141 140.688,218.141 140.959,218.141 141.230,218.141 141.501,218.141 141.771,218.141 142.042,218.141 142.313,218.141 142.584,218.141 142.855,218.141 143.126,218.141 143.396,218.141 143.667,218.141 143.938,218.141 144.209,218.141 144.480,218.141 144.750,218.141 145.021,218.141 145.292,218.141 145.563,218.141 145.834,218.141 146.105,218.141 146.375,218.141 146.646,218.141 146.917,218.141 147.188,218.141 147.459,218.141 147.729,218.141 148.000,218.141 148.271,218.141 148.542,218.141 148.813,218.141 149.084,218.141 149.354,218.141 149.625,218.141 149.896,218.141 150.167,218.141 150.438,218.141 150.709,218.141 150.979,218.141 151.250,218.141 151.521,218.141 151.792,218.141 152.063,218.141 152.333,218.141 152.604,218.141 152.875,218.141 153.146,218.141 153.417,218.141 153.688,218.141 153.958,218.141 154.229,218.141 154.500,218.141 154.771,218.141 155.042,218.141 155.313,218.141 155.583,218.141 155.854,218.141 156.125,218.141 156.396,218.141 156.667,218.141 156.937,218.141 157.208,218.141 157.479,218.141 157.750,218.141 158.021,218.141 158.292,218.141 158.562,218.141 158.833,218.141 159.104,218.141 159.375,218.141 159.646,218.141 159.917,218.141 160.187,218.141 160.458,218.141 160.729,218.141 161.000,218.141 161.271,218.141 161.541,218.141 161.812,218.141 162.083,218.141 162.354,218.141 162.625,218.141 162.896,218.141 163.166,218.141 163.437,218.141 163.708,218.141 163.979,218.141 164.250,218.141 164.521,218.141 164.791,218.141 165.062,218.141 165.333,218.141 165.604,218.141 165.875,218.141 166.145,218.141 166.416,218.141 166.687,218.141 166.958,218.141 167.229,218.141 167.500,218.141 167.770,218.141 168.041,218.141 168.312,218.141 168.583,218.141 168.854,218.141 169.124,218.141 169.395,218.141 169.666,218.141 169.937,218.141 170.208,218.141 170.479,218.141 170.749,218.141 171.020,218.141 171.291,218.141 171.562,218.141 171.833,218.141 172.104,218.141 172.374,218.141 172.645,218.141 172.916,218.141 173.187,218.141 173.458,218.141 173.728,218.141 173.999,218.141 174.270,218.141 174.541,218.141 174.812,218.141 175.083,218.141 175.353,218.141 175.624,218.141 175.895,218.141 176.166,218.141 176.437,218.141 176.708,218.141 176.978,218.141 177.249,218.141 177.520,218.141 177.791,218.141 178.062,218.141 178.332,218.141 178.603,218.141 178.874,218.141 179.145,218.141 179.416,218.141 179.687,218.141 179.957,218.141 180.228,218.141 180.499,218.141 180.770,218.141 181.041,218.141 181.312,218.141 181.582,218.141 181.853,218.141 182.124,218.141 182.395,218.141 182.666,218.141 182.936,218.141 183.207,218.141 183.478,218.141 183.749,218.141 184.020,218.141 184.291,218.141 184.561,218.141 184.832,218.141 185.103,218.141 185.374,218.141 185.645,218.141 185.916,218.141 186.186,218.141 186.457,218.141 186.728,218.141 186.999,218.141 187.270,218.141 187.540,218.141 187.811,218.141 188.082,218.141 188.353,218.141 188.624,218.141 188.895,218.141 189.165,218.141 189.436,218.141 189.707,218.141 189.978,218.141 190.249,218.141 190.519,218.141 190.790,218.141 191.061,218.141 191.332,218.141 191.603,218.141 191.874,218.141 192.144,218.141 192.415,218.141 192.686,218.141 192.957,218.141 193.228,218.141 193.499,218.141 193.769,218.141 194.040,218.141 194.311,218.141 194.582,218.141 194.853,218.141 195.123,218.141 195.394,218.141 195.665,218.141 195.936,218.141 196.207,218.141 196.478,218.141 196.748,218.141 197.019,218.141 197.290,218.141 197.561,218.141 197.832,218.141 198.103,218.141 198.373,218.141 198.644,218.141 198.915,218.141 199.186,218.141 199.457,218.141 199.727,218.141 199.998,218.141 200.269,218.141 200.540,218.141 200.811,218.141 201.082,218.141 201.352,218.141 201.623,218.141 201.894,218.141 202.165,218.141 202.436,218.141 202.707,218.141 202.977,218.141 203.248,218.141 203.519,218.141 203.790,218.141 204.061,218.141 204.331,218.141 204.602,218.141 204.873,218.141 205.144,218.141 205.415,218.141 205.686,218.141 205.956,218.141 206.227,218.141 206.498,218.141 206.769,218.141 207.040,218.141 207.311,218.141 207.581,218.141 207.852,218.141 208.123,218.141 208.394,218.141 208.665,218.141 208.935,218.141 209.206,218.141 209.477,218.141 209.748,218.141 210.019,218.141 210.290,218.141 210.560,218.141 210.831,218.141 211.102,218.141 211.373,218.141 211.644,218.141 211.915,218.141 212.185,218.141 212.456,218.141 212.727,218.141 212.998,218.141 213.269,218.141 213.539,218.141 213.810,218.141 214.081,218.141 214.352,218.141 214.623,218.141 214.894,218.141 215.164,218.141 215.435,218.141 215.706,218.141 215.977,218.141 216.248,218.141 216.518,218.141 216.789,218.141 217.060,218.141 217.331,218.141 217.602,218.141 217.873,218.141 218.143,218.141 218.414,218.141 218.685,218.141 218.956,218.141 219.227,218.141 219.498,218.141 219.768,218.141 220.039,218.141 220.310,218.141 220.581,218.141 220.852,218.141 221.122,218.141 221.393,218.141 221.664,218.141 221.935,218.141 222.206,218.141 222.477,218.141 222.747,218.141 223.018,218.141 223.289,218.141 223.560,218.141 223.831,218.141 224.102,218.141 224.372,218.141 224.643,218.141 224.914,218.141 225.185,218.141 225.456,218.141 225.726,218.141 225.997,218.141 226.268,218.141 226.539,218.141 226.810,218.141 227.081,218.141 227.351,218.141 227.622,218.141 227.893,218.141 228.164,218.141 228.435,218.141 228.706,218.141 228.976,218.141 229.247,218.141 229.518,218.141 229.789,218.141 230.060,218.141 230.330,218.141 230.601,218.141 230.872,218.141 231.143,218.141 231.414,218.141 231.685,218.141 231.955,218.141 232.226,218.141 232.497,218.141 232.768,218.141 233.039,218.141 233.310,218.141 233.580,218.141 233.851,218.141 234.122,218.141 234.393,218.141 234.664,218.141 234.934,218.141 235.205,218.141 235.476,218.141 235.747,218.141 236.018,218.141 236.289,218.141 236.559,218.141 236.830,218.141 237.101,218.141 237.372,218.141 237.643,218.141 237.913,218.141 238.184,218.141 238.455,218.141 238.726,218.141 238.997,218.141 239.268,218.141 239.538,218.141 239.809,218.141 240.080,218.141 240.351,218.141 240.622,218.141 240.893,218.141 241.163,218.141 241.434,218.141 241.705,218.141 241.976,218.141 242.247,218.141 242.517,218.141 242.788,218.141 243.059,218.141 243.330,218.141 243.601,218.141 243.872,218.141 244.142,218.141 244.413,218.141 244.684,218.141 244.955,218.141 245.226,218.141 245.497,218.141 245.767,218.141 246.038,218.141 246.309,218.141 246.580,218.141 246.851,218.141 247.121,218.141 247.392,218.141 247.663,218.141 247.934,218.141 248.205,218.141 248.476,218.141 248.746,218.141 249.017,218.141 249.288,218.141 249.559,218.141 249.830,218.141 250.101,218.141 250.371,218.141 250.642,218.141 250.913,218.141 251.184,218.141 251.455,218.141 251.725,218.141 251.996,218.141 252.267,218.141 252.538,218.141 252.809,218.141 253.080,218.141 253.350,218.141 253.621,218.141 253.892,218.141 254.163,218.141 254.434,218.141 254.705,218.141 254.975,218.141 255.246,218.141 255.517,218.141 255.788,218.141 256.059,218.141 256.329,218.141 256.600,218.141 256.871,218.141 257.142,218.141 257.413,218.141 257.684,218.141 257.954,218.141 258.225,218.141 258.496,218.141 258.767,218.141 259.038,218.141 259.308,218.141 259.579,218.141 259.850,218.141 260.121,218.141 260.392,218.141 260.663,218.141 260.933,218.141 261.204,218.141 261.475,218.141 261.746,218.141 262.017,218.141 262.288,218.141 262.558,218.141 262.829,218.141 263.100,218.141 263.371,218.141 263.642,218.141 263.912,218.141 264.183,218.141 264.454,218.141 264.725,218.141 264.996,218.141 265.267,218.141 265.537,218.141 265.808,218.141 266.079,218.141 266.350,218.141 266.621,218.141 266.892,218.141 267.162,218.141 267.433,218.141 267.704,218.141 267.975,218.141 268.246,218.141 268.516,218.141 268.787,218.141 269.058,218.141 269.329,218.141 269.600,218.141 269.871,218.141 270.141,218.141 270.412,218.141 270.683,218.141 270.954,218.141 271.225,218.141 271.496,218.141 271.766,218.141 272.037,218.141 272.308,218.141 272.579,218.141 272.850,218.141 273.120,218.141 273.391,218.141 273.662,218.141 273.933,218.141 274.204,218.141 274.475,218.141 274.745,218.141 275.016,218.141 275.287,218.141 275.558,218.141 275.829,218.141 276.100,218.141 276.370,218.141 276.641,218.141 276.912,218.141 277.183,218.141 277.454,218.141 277.724,218.141 277.995,218.141 278.266,218.141 278.537,218.141 278.808,218.141 279.079,218.141 279.349,218.141 279.620,218.141 279.891,218.141 280.162,218.141 280.433,218.141 280.704,218.141 280.974,218.141 281.245,218.141 281.516,218.141 281.787,218.141 282.058,218.141 282.328,218.141 282.599,218.141 282.870,218.141 283.141,218.141 283.412,218.141 283.683,218.141 283.953,218.141 284.224,218.141 284.495,218.141 284.766,218.141 285.037,218.141 285.307,218.141 285.578,218.141 285.849,218.141 286.120,218.141 286.391,218.141 286.662,218.141 286.932,218.141 287.203,218.141 287.474,218.141 287.745,218.141 288.016,218.141 288.287,218.141 288.557,218.141 288.828,218.141 289.099,218.141 289.370,218.141 289.641,218.141 289.911,218.141 290.182,218.141 290.453,218.141 290.724,218.141 290.995,218.141 291.266,218.141 291.536,218.141 291.807,218.141 292.078,218.141 292.349,218.141 292.620,218.141 292.891,218.141 293.161,218.141 293.432,218.141 293.703,218.141 293.974,218.141 294.245,218.141 294.515,218.141 294.786,218.141 295.057,218.141 295.328,218.141 295.599,218.141 295.870,218.141 296.140,218.141 296.411,218.141 296.682,218.141 296.953,218.141 297.224,218.141 297.495,218.141 297.765,218.141 298.036,218.141 298.307,218.141 298.578,218.141 298.849,218.141 299.119,218.141 299.390,218.141 299.661,218.141 299.932,218.141 300.203,218.141 300.474,218.141 300.744,218.141 301.015,218.141 301.286,218.141 301.557,218.141 301.828,218.141 302.099,218.141 302.369,218.141 302.640,218.141 302.911,218.141 303.182,218.141 303.453,218.141 303.723,218.141 303.994,218.141 304.265,218.141 304.536,218.141 304.807,218.141 305.078,218.141 305.348,218.141 305.619,218.141 305.890,218.141 306.161,218.141 306.432,218.141 306.702,218.141 306.973,218.141 307.244,218.141 307.515,218.141 307.786,218.141 308.057,218.141 308.327,218.141 308.598,218.141 308.869,218.141 309.140,218.141 309.411,218.141 309.682,218.141 309.952,218.141 310.223,218.141 310.494,218.141 310.765,218.141 311.036,218.141 311.306,218.141 311.577,218.141 311.848,218.141 312.119,218.141 312.390,218.141 312.661,218.141 312.931,218.141 313.202,218.141 313.473,218.141 313.744,218.141 314.015,218.141 314.286,218.141 314.556,218.141 314.827,218.141 315.098,218.141 315.369,218.141 315.640,218.141 315.910,218.141 316.181,218.141 316.452,218.141 316.723,218.141 316.994,218.141 317.265,218.141 317.535,218.141 317.806,218.141 318.077,218.141 318.348,218.141 318.619,218.141 318.890,218.141 319.160,218.141 319.431,218.141 319.702,218.141 319.973,218.141 320.244,218.141 320.514,218.141 320.785,218.141 321.056,218.141 321.327,218.141 321.598,218.141 321.869,218.141 322.139,218.141 322.410,218.141 322.681,218.141 322.952,218.141 323.223,218.141 323.494,218.141 323.764,218.141 324.035,218.141 324.306,218.141 324.577,218.141 324.848,218.141 325.118,218.141 325.389,218.141 325.660,218.141 325.931,218.141 326.202,218.141 326.473,218.141 326.743,218.141 327.014,218.141 327.285,218.141 327.556,218.141 327.827,218.141 328.097,218.141 328.368,218.141 328.639,218.141 328.910,218.141 329.181,218.141 329.452,218.141 329.722,218.141 329.993,218.141 330.264,218.141 330.535,218.141 330.806,218.141 331.077,218.141 331.347,218.141 331.618,218.141 331.889,218.141 332.160,218.141 332.431,218.141 332.701,218.141 332.972,218.141 333.243,218.141 333.514,218.141 333.785,218.141 334.056,218.141 334.326,218.141 334.597,218.141 334.868,218.141 335.139,218.141 335.410,218.141 335.681,218.141 335.951,218.141 336.222,218.141 336.493,218.141 336.764,218.141 337.035,218.141 337.305,218.141 337.576,218.141 337.847,218.141 338.118,218.141 338.389,218.141 338.660,218.141 338.930,218.141 339.201,218.141 339.472,218.141 339.743,218.141 340.014,218.141 340.285,218.141 340.555,218.141 340.826,218.141 341.097,218.141 341.368,218.141 341.639,218.141 341.909,218.141 342.180,218.141 342.451,218.141 342.722,218.141 342.993,218.141 343.264,218.141 343.534,218.141 343.805,218.141 344.076,218.141 344.347,218.141 344.618,218.141 344.889,218.141 345.159,218.141 345.430,218.141 345.701,218.141 345.972,218.141 346.243,218.141 346.513,218.141 346.784,218.141 347.055,218.141 347.326,218.141 347.597,218.141 347.868,218.141 348.138,218.141 348.409,218.141 348.680,218.141 348.951,218.141 349.222,218.141 349.493,218.141 349.763,218.141 350.034,218.141 350.305,218.141 350.576,218.141 350.847,218.141 351.117,218.141 351.388,218.141 351.659,218.141 351.930,218.141 352.201,218.141 352.472,218.141 352.742,218.141 353.013,218.141 353.284,218.141 353.555,218.141 353.826,218.141 354.096,218.141 354.367,218.141 354.638,218.141 354.909,218.141 355.180,218.141 355.451,218.141 355.721,218.141 355.992,218.141 356.263,218.141 356.534,218.141 356.805,218.141 357.076,218.141 357.346,218.141 357.617,218.141 357.888,218.141 358.159,218.141 358.430,218.141 358.700,218.141 358.971,218.141 359.242,218.141 359.513,218.141 359.784,218.141 360.055,218.141 360.325,218.141 360.596,218.141 360.867,218.141 361.138,218.141 361.409,218.141 361.680,218.141 361.950,218.141 362.221,218.141 362.492,218.141 362.763,218.141 363.034,218.141 363.304,218.141 363.575,218.141 363.846,218.141 364.117,218.141 364.388,218.141 364.659,218.141 364.929,218.141 365.200,218.141 365.471,218.141 365.742,218.141 366.013,218.141 366.284,218.141 366.554,218.141 366.825,218.141 367.096,218.141 367.367,218.141 367.638,218.141 367.908,218.141 368.179,218.141 368.450,218.141 368.721,218.141 368.992,218.141 369.263,218.141 369.533,218.141 369.804,218.141 370.075,218.141 370.346,218.141 370.617,218.141 370.888,218.141 371.158,218.141 371.429,218.141 371.700,218.141 371.971,218.141 372.242,218.141 372.512,218.141 372.783,218.141 373.054,218.141 373.325,218.141 373.596,218.141 373.867,218.141 374.137,218.141 374.408,218.141 374.679,218.141 374.950,218.141 375.221,218.141 375.491,218.141 375.762,218.141 376.033,218.141 376.304,218.141 376.575,218.141 376.846,218.141 377.116,218.141 377.387,218.141 377.658,218.141 377.929,218.141 378.200,218.141 378.471,218.141 378.741,218.141 379.012,218.141 379.283,218.141 379.554,218.141 379.825,218.141 380.095,218.141 380.366,218.141 380.637,218.141 380.908,218.141 381.179,218.141 381.450,218.141 381.720,218.141 381.991,218.141 382.262,218.141 382.533,218.141 382.804,218.141 383.075,218.141 383.345,218.141 383.616,218.141 383.887,218.141 384.158,218.141 384.429,218.141 384.699,218.141 384.970,218.141 385.241,218.141 385.512,218.141 385.783,218.141 386.054,218.141 386.324,218.141 386.595,218.141 386.866,218.141 387.137,218.141 387.408,218.141 387.679,218.141 387.949,218.141 388.220,218.141 388.491,218.141 388.762,218.141 389.033,218.141 389.303,218.141 389.574,218.141 389.845,218.141 390.116,218.141 390.387,218.141 390.658,218.141 390.928,218.141 391.199,218.141 391.470,218.141 391.741,218.141 392.012,218.141 392.283,218.141 392.553,218.141 392.824,218.141 393.095,218.141 393.366,218.141 393.637,218.141 393.907,218.141 394.178,218.141 394.449,218.141 394.720,218.141 394.991,218.141 395.262,218.141 395.532,218.141 395.803,218.141 396.074,218.141 396.345,218.141 396.616,218.141 396.886,218.141 397.157,218.141 397.428,218.141 397.699,218.141 397.970,218.141 398.241,218.141 398.511,218.141 398.782,218.141 399.053,218.141 399.324,218.141 399.595,218.141 399.866,218.141 400.136,218.141 400.407,218.141 400.678,218.141 400.949,218.141 401.220,218.141 401.490,218.141 401.761,218.141 402.032,218.141 402.303,218.141 402.574,218.141 402.845,218.141 403.115,218.141 403.386,218.141 403.657,218.141 403.928,218.141 404.199,218.141 404.470,218.141 404.740,218.141 405.011,218.141 405.282,218.141 405.553,218.141 405.824,218.141 406.094,218.141 406.365,218.141 406.636,218.141 406.907,218.141 407.178,218.141 407.449,218.141 407.719,218.141 407.990,218.141 408.261,218.141 408.532,218.141 408.803,218.141 409.074,218.141 409.344,218.141 409.615,218.141 409.886,218.141 410.157,218.141 410.428,218.141 410.698,218.141 410.969,218.141 411.240,218.141 411.511,218.141 411.782,218.141 412.053,218.141 412.323,218.141 412.594,218.141 412.865,218.141 413.136,218.141 413.407,218.141 413.678,218.141 413.948,218.141 414.219,218.141 414.490,218.141 414.761,218.141 415.032,218.141 415.302,218.141 415.573,218.141 415.844,218.141 416.115,218.141 416.386,218.141 416.657,218.141 416.927,218.141 417.198,218.141 417.469,218.141 417.740,218.141 418.011,218.141 418.282,218.141 418.552,218.141 418.823,218.141 419.094,218.141 419.365,218.141 419.636,218.141 419.906,218.141 420.177,218.141 420.448,218.141 420.719,218.141 420.990,218.141 421.261,218.141 421.531,218.141 421.802,218.141 422.073,218.141 422.344,218.141 422.615,218.141 422.885,218.141 423.156,218.141 423.427,218.141 423.698,218.141 423.969,218.141 424.240,218.141 424.510,218.141 424.781,218.141 425.052,218.141 425.323,218.141 425.594,218.141 425.865,218.141 426.135,218.141 426.406,218.141 426.677,218.141 426.948,218.141 427.219,218.141 427.489,218.141 427.760,218.141 428.031,218.141 428.302,218.141 428.573,218.141 428.844,218.141 429.114,218.141 429.385,218.141 429.656,218.141 429.927,218.141 430.198,218.141 430.469,218.141 430.739,218.141 431.010,218.141 431.281,218.141 431.552,218.141 431.823,218.141 432.093,218.141 432.364,218.141 432.635,218.141 432.906,218.141 433.177,218.141 433.448,218.141 433.718,218.141 433.989,218.141 434.260,218.141 434.531,218.141 434.802,218.141 435.073,218.141 435.343,218.141 435.614,218.141 435.885,218.141 436.156,218.141 436.427,218.141 436.697,218.141 436.968,218.141 437.239,218.141 437.510,218.141 437.781,218.141 438.052,218.141 438.322,218.141 438.593,218.141 438.864,218.141 439.135,218.141 439.406,218.141 439.677,218.141 439.947,218.141 440.218,218.141 440.489,218.141 440.760,218.141 441.031,218.141 441.301,218.141 441.572,218.141 441.843,218.141 442.114,218.141 442.385,218.141 442.656,218.141 442.926,218.141 443.197,218.141 443.468,218.141 443.739,218.141 444.010,218.141 444.280,218.141 444.551,218.141 444.822,218.141 445.093,218.141 445.364,218.141 445.635,218.141 445.905,218.141 446.176,218.141 446.447,218.141 446.718,218.141 446.989,218.141 447.260,218.141 447.530,218.141 447.801,218.141 448.072,218.141 448.343,218.141 448.614,218.141 448.884,218.141 449.155,218.141 449.426,218.141 449.697,218.141 449.968,218.141 450.239,218.141 450.509,218.141 450.780,218.141 451.051,218.141 451.322,218.141 451.593,218.141 451.864,218.141 452.134,218.141 452.405,218.141 452.676,218.141 452.947,218.141 453.218,218.141 453.488,218.141 453.759,218.141 454.030,218.141 454.301,218.141 454.572,218.141 454.843,218.141 455.113,218.141 455.384,218.141 455.655,218.141 455.926,218.141 456.197,218.141 456.468,218.141 456.738,218.141 457.009,69.385 457.280,218.141 457.551,218.141 457.822,218.141 458.092,218.141 458.363,218.141 458.634,218.141 458.905,218.141 459.176,218.141 459.447,218.141 459.717,218.141 459.988,218.141 460.259,218.141 460.530,218.141 460.801,218.141 461.072,218.141 461.342,218.141 461.613,218.141 461.884,218.141 462.155,218.141 462.426,218.141 462.696,218.141 462.967,218.141 463.238,218.141 463.509,218.141 463.780,218.141 464.051,218.141 464.321,218.141 464.592,218.141 464.863,218.141 465.134,218.141 465.405,218.141 465.675,218.141 465.946,218.141 466.217,218.141 466.488,218.141 466.759,218.141 467.030,218.141 467.300,218.141 467.571,218.141 467.842,218.141 468.113,218.141 468.384,218.141 468.655,218.141 468.925,218.141 469.196,218.141 469.467,218.141 469.738,218.141 470.009,218.141 470.279,218.141 470.550,218.141 470.821,218.141 471.092,218.141 471.363,218.141 471.634,218.141 471.904,218.141 472.175,218.141 472.446,218.141 472.717,218.141 472.988,218.141 473.259,218.141 473.529,218.141 473.800,218.141 474.071,218.141 474.342,218.141 474.613,218.141 474.883,218.141 475.154,218.141 475.425,218.141 475.696,218.141 475.967,218.141 476.238,218.141 476.508,218.141 476.779,218.141 477.050,218.141 477.321,218.141 477.592,218.141 477.863,218.141 478.133,218.141 478.404,218.141 478.675,218.141 478.946,218.141 479.217,218.141 479.487,218.141 479.758,218.141 480.029,218.141 480.300,218.141 480.571,218.141 480.842,218.141 481.112,218.141 481.383,218.141 481.654,218.141 481.925,218.141 482.196,218.141 482.467,218.141 482.737,218.141 483.008,218.141 483.279,218.141 483.550,218.141 483.821,218.141 484.091,218.141 484.362,218.141 484.633,218.141 484.904,218.141 485.175,218.141 485.446,218.141 485.716,218.141 485.987,218.141 486.258,218.141 486.529,218.141 486.800,218.141 487.071,218.141 487.341,218.141 487.612,218.141 487.883,218.141 488.154,218.141 488.425,218.141 488.695,218.141 488.966,218.141 489.237,218.141 489.508,218.141 489.779,218.141 490.050,218.141 490.320,218.141 490.591,218.141 490.862,218.141 491.133,218.141 491.404,218.141 491.674,218.141 491.945,218.141 492.216,218.141 492.487,218.141 492.758,218.141 493.029,218.141 493.299,218.141 493.570,218.141 493.841,218.141 494.112,218.141 494.383,218.141 494.654,218.141 494.924,218.141 495.195,218.141 495.466,218.141 495.737,218.141 496.008,218.141 496.278,218.141 496.549,218.141 496.820,218.141 497.091,218.141 497.362,218.141 497.633,218.141 497.903,218.141 498.174,218.141 498.445,218.141 498.716,218.141 498.987,218.141 499.258,218.141 499.528,218.141 499.799,218.141 500.070,218.141 500.341,218.141 500.612,218.141 500.882,218.141 501.153,218.141 501.424,218.141 501.695,218.141 501.966,218.141 502.237,218.141 502.507,218.141 502.778,218.141 503.049,218.141 503.320,218.141 503.591,218.141 503.862,218.141 504.132,218.141 504.403,218.141 504.674,218.141 504.945,218.141 505.216,218.141 505.486,218.141 505.757,218.141 506.028,218.141 506.299,218.141 506.570,218.141 506.841,218.141 507.111,218.141 507.382,218.141 507.653,218.141 507.924,218.141 508.195,218.141 508.466,218.141 508.736,218.141 509.007,218.141 509.278,218.141 509.549,218.141 509.820,218.141 510.090,218.141 510.361,218.141 510.632,218.141 510.903,218.141 511.174,218.141 511.445,218.141 511.715,218.141 511.986,218.141 512.257,218.141 512.528,218.141 512.799,218.141 513.069,218.141 513.340,218.141 513.611,218.141 513.882,218.141 514.153,218.141 514.424,218.141 514.694,218.141 514.965,218.141 515.236,218.141 515.507,218.141 515.778,218.141 516.049,218.141 516.319,218.141 516.590,218.141 516.861,218.141 517.132,218.141 517.403,218.141 517.673,218.141 517.944,218.141 518.215,218.141 518.486,218.141 518.757,218.141 519.028,218.141 519.298,218.141 519.569,218.141 519.840,218.141 520.111,218.141 520.382,218.141 520.653,218.141 520.923,218.141 521.194,218.141 521.465,218.141 521.736,218.141 522.007,218.141 522.277,218.141 522.548,218.141 522.819,218.141 523.090,218.141 523.361,218.141 523.632,218.141 523.902,218.141 524.173,218.141 524.444,218.141 524.715,218.141 524.986,218.141 525.257,218.141 525.527,218.141 525.798,218.141 526.069,218.141 526.340,218.141 526.611,218.141 526.881,218.141 527.152,218.141 527.423,218.141 527.694,218.141 527.965,218.141 528.236,218.141 528.506,218.141 528.777,218.141 529.048,218.141 529.319,218.141 529.590,218.141 529.861,218.141 530.131,218.141 530.402,218.141 530.673,218.141 530.944,218.141 531.215,218.141 531.485,218.141 531.756,218.141 532.027,218.141 532.298,218.141 532.569,218.141 532.840,218.141 533.110,218.141 533.381,218.141 533.652,218.141 533.923,218.141 534.194,218.141 534.464,218.141 534.735,218.141 535.006,218.141 535.277,218.141 535.548,218.141 535.819,218.141 536.089,218.141 536.360,218.141 536.631,218.141 536.902,218.141 537.173,218.141 537.444,218.141 537.714,218.141 537.985,218.141 538.256,218.141 538.527,218.141 538.798,218.141 539.068,218.141 539.339,218.141 539.610,218.141 539.881,218.141 540.152,218.141 540.423,218.141 540.693,218.141 540.964,218.141 541.235,218.141 541.506,218.141 541.777,218.141 542.048,218.141 542.318,218.141 542.589,218.141 542.860,218.141 543.131,218.141 543.402,218.141 543.672,218.141 543.943,218.141 544.214,218.141 544.485,218.141 544.756,218.141 545.027,218.141 545.297,218.141 545.568,218.141 545.839,218.141 546.110,218.141 546.381,218.141 546.652,218.141 546.922,218.141 547.193,218.141 547.464,218.141 547.735,218.141 548.006,218.141 548.276,218.141 548.547,218.141 548.818,218.141 549.089,218.141 549.360,218.141 549.631,218.141 549.901,218.141 550.172,218.141 550.443,218.141 550.714,218.141 550.985,218.141 551.256,218.141 551.526,218.141 551.797,218.141 552.068,218.141 552.339,218.141 552.610,218.141 552.880,218.141 553.151,218.141 553.422,218.141 553.693,218.141 553.964,218.141 554.235,218.141 554.505,218.141 554.776,218.141 555.047,218.141 555.318,218.141 555.589,218.141 555.860,218.141 556.130,218.141 556.401,218.141 556.672,218.141 556.943,218.141 557.214,218.141 557.484,218.141 557.755,218.141 558.026,218.141 558.297,218.141 558.568,218.141 558.839,218.141 559.109,218.141 559.380,218.141 559.651,218.141 559.922,218.141 560.193,218.141 560.463,218.141 560.734,218.141 561.005,218.141 561.276,218.141 561.547,218.141 561.818,218.141 562.088,218.141 562.359,218.141 562.630,218.141 562.901,218.141 563.172,218.141 563.443,218.141 563.713,218.141 563.984,218.141 564.255,218.141 564.526,218.141 564.797,218.141 565.067,218.141 565.338,218.141 565.609,218.141 565.880,218.141 566.151,218.141 566.422,218.141 566.692,218.141 566.963,218.141 567.234,218.141 567.505,218.141 567.776,218.141 568.047,218.141 568.317,218.141 568.588,218.141 568.859,218.141 569.130,218.141 569.401,218.141 569.671,218.141 569.942,218.141 570.213,218.141 570.484,218.141 570.755,218.141 571.026,218.141 571.296,218.141 571.567,218.141 571.838,218.141 572.109,218.141 572.380,218.141 572.651,218.141 572.921,218.141 573.192,218.141 573.463,218.141 573.734,218.141 574.005,218.141 574.275,218.141 574.546,218.141 574.817,218.141 575.088,218.141 575.359,218.141 575.630,218.141 575.900,218.141 576.171,218.141 576.442,218.141 576.713,218.141 576.984,218.141 577.255,218.141 577.525,218.141 577.796,218.141 578.067,218.141 578.338,218.141 578.609,218.141 578.879,218.141 579.150,218.141 579.421,218.141 579.692,218.141 579.963,218.141 580.234,218.141 580.504,218.141 580.775,218.141 581.046,218.141 581.317,218.141 581.588,218.141 581.858,218.141 582.129,218.141 582.400,218.141 582.671,218.141 582.942,218.141 583.213,218.141 583.483,218.141 583.754,218.141 584.025,218.141 584.296,218.141 584.567,218.141 584.838,218.141 585.108,218.141 585.379,218.141 585.650,218.141 585.921,218.141 586.192,218.141 586.462,218.141 586.733,218.141 587.004,218.141 587.275,218.141 587.546,218.141 587.817,218.141 588.087,218.141 588.358,218.141 588.629,218.141 588.900,218.141 589.171,218.141 589.442,218.141 589.712,218.141 589.983,218.141 590.254,218.141 590.525,218.141 590.796,218.141 591.066,218.141 591.337,218.141 591.608,218.141 591.879,218.141 592.150,218.141 592.421,218.141 592.691,218.141 592.962,218.141 593.233,218.141 593.504,218.141 593.775,218.141 594.046,218.141 594.316,218.141 594.587,218.141 594.858,218.141 595.129,218.141 595.400,218.141 595.670,218.141 595.941,218.141 596.212,218.141 596.483,218.141 596.754,218.141 597.025,218.141 597.295,218.141 597.566,218.141 597.837,218.141 598.108,218.141 598.379,218.141 598.650,218.141 598.920,218.141 599.191,218.141 599.462,218.141 599.733,218.141 600.004,218.141 600.274,218.141 600.545,218.141 600.816,218.141 601.087,218.141 601.358,218.141 601.629,218.141 601.899,218.141 602.170,218.141 602.441,218.141 602.712,218.141 602.983,218.141 603.253,218.141 603.524,218.141 603.795,218.141 604.066,218.141 604.337,218.141 604.608,218.141 604.878,218.141 605.149,218.141 605.420,218.141 605.691,218.141 605.962,218.141 606.233,218.141 606.503,218.141 606.774,218.141 607.045,218.141 607.316,218.141 607.587,218.141 607.857,218.141 608.128,218.141 608.399,218.141 608.670,218.141 608.941,218.141 609.212,218.141 609.482,218.141 609.753,218.141 610.024,218.141 610.295,218.141 610.566,218.141 610.837,218.141 611.107,218.141 611.378,218.141 611.649,218.141 611.920,218.141 612.191,218.141 612.461,218.141 612.732,218.141 613.003,218.141 613.274,218.141 613.545,218.141 613.816,218.141 614.086,218.141 614.357,218.141 614.628,218.141 614.899,218.141 615.170,218.141 615.441,218.141 615.711,218.141 615.982,218.141 616.253,218.141 616.524,218.141 616.795,218.141 617.065,218.141 617.336,218.141 617.607,218.141 617.878,218.141 618.149,218.141 618.420,218.141 618.690,218.141 618.961,218.141 619.232,218.141 619.503,218.141 619.774,218.141 620.045,218.141 620.315,218.141 620.586,218.141 620.857,218.141 621.128,218.141 621.399,218.141 621.669,218.141 621.940,218.141 622.211,218.141 622.482,218.141 622.753,218.141 623.024,218.141 623.294,218.141 623.565,218.141 623.836,218.141 624.107,218.141 624.378,218.141 624.649,218.141 624.919,218.141 625.190,218.141 625.461,218.141 625.732,218.141 626.003,218.141 626.273,218.141 626.544,218.141 626.815,218.141 627.086,218.141 627.357,218.141 627.628,218.141 627.898,218.141 628.169,218.141 628.440,218.141 628.711,218.141 628.982,218.141 629.252,218.141 629.523,218.141 629.794,218.141 630.065,218.141 630.336,218.141 630.607,218.141 630.877,218.141 631.148,218.141 631.419,218.141 631.690,218.141 631.961,218.141 632.232,218.141 632.502,218.141 "/>
<g>
</g>
</g>
<g id="ID000003" >
  <g transform="translate(361.056,30.565)">
    <g transform="rotate(-0.0)">
      <text x="0.000" y="0.000" font-family="Helvetica" text-anchor="middle" font-size="12pt" fill="#000000" >l = 0.41, x* = -0.50</text>
    </g>
  </g>
</g>
<g id="ID000004" >
</g>
<g id="ID000005" >
</g>
    </g>
    <g>
      <polyline fill="none" stroke="#000000" stroke-width="0.5pt" stroke-dasharray="none" points="145.021,218.141 145.021,212.725 "/>
      <polyline fill="none" stroke="#000000" stroke-width="0.5pt" stroke-dasharray="none" points="199.186,218.141 199.186,212.725 "/>
      <polyline fill="none" stroke="#000000" stroke-width="0.5pt" stroke-dasharray="none" points="253.350,218.141 253.350,212.725 "/>
      <polyline fill="none" stroke="#000000" stroke-width="0.5pt" stroke-dasharray="none" points="307.515,218.141 307.515,212.725 "/>
      <polyline fill="none" stroke="#000000" stroke-width="0.5pt" stroke-dasharray="none" points="361.680,218.141 361.680,212.725 "/>
      <polyline fill="none" stroke="#000000" stroke-width="0.5pt" stroke-dasharray="none" points="415.844,218.141 415.844,212.725 "/>
      <polyline fill="none" stroke="#000000" stroke-width="0.5pt" stroke-dasharray="none" points="470.009,218.141 470.009,212.725 "/>
      <polyline fill="none" stroke="#000000" stroke-width="0.5pt" stroke-dasharray="none" points="524.173,218.141 524.173,212.725 "/>
      <polyline fill="none" stroke="#000000" stroke-width="0.5pt" stroke-dasharray="none" points="578.338,218.141 578.338,212.725 "/>
      <polyline fill="none" stroke="#000000" stroke-width="0.5pt" stroke-dasharray="none" points="90.857,218.141 632.502,218.141 "/>
      <polyline fill="none" stroke="#000000" stroke-width="0.5pt" stroke-dasharray="none" points="145.021,39.313 145.021,44.729 "/>
      <polyline fill="none" stroke="#000000" stroke-width="0.5pt" stroke-dasharray="none" points="199.186,39.313 199.186,44.729 "/>
      <polyline fill="none" stroke="#000000" stroke-width="0.5pt" stroke-dasharray="none" points="253.350,39.313 253.350,44.729 "/>
      <polyline fill="none" stroke="#000000" stroke-width="0.5pt" stroke-dasharray="none" points="307.515,39.313 307.515,44.729 "/>
      <polyline fill="none" stroke="#000000" stroke-width="0.5pt" stroke-dasharray="none" points="361.680,39.313 361.680,44.729 "/>
      <polyline fill="none" stroke="#000000" stroke-width="0.5pt" stroke-dasharray="none" points="415.844,39.313 415.844,44.729 "/>
      <polyline fill="none" stroke="#000000" stroke-width="0.5pt" stroke-dasharray="none" points="470.009,39.313 470.009,44.729 "/>
      <polyline fill="none" stroke="#000000" stroke-width="0.5pt" stroke-dasharray="none" points="524.173,39.313 524.173,44.729 "/>
      <polyline fill="none" stroke="#000000" stroke-width="0.5pt" stroke-dasharray="none" points="578.338,39.313 578.338,44.729 "/>
      <polyline fill="none" stroke="#000000" stroke-width="0.5pt" stroke-dasharray="none" points="90.857,39.313 632.502,39.313 "/>
  <g transform="translate(90.857,236.445)">
    <g transform="rotate(-0.0)">
      <text x="0.000" y="0.000" font-family="Helvetica" text-anchor="middle" font-size="12pt" fill="#000000" >-1</text>
    </g>
  </g>
  <g transform="translate(145.021,236.445)">
    <g transform="rotate(-0.0)">
      <text x="0.000" y="0.000" font-family="Helvetica" text-anchor="middle" font-size="12pt" fill="#000000" >-0.8</text>
    </g>
  </g>
  <g transform="translate(199.186,236.445)">
    <g transform="rotate(-0.0)">
      <text x="0.000" y="0.000" font-family="Helvetica" text-anchor="middle" font-size="12pt" fill="#000000" >-0.6</text>
    </g>
  </g>
  <g transform="translate(253.350,236.445)">
    <g transform="rotate(-0.0)">
      <text x="0.000" y="0.000" font-family="Helvetica" text-anchor="middle" font-size="12pt" fill="#000000" >-0.4</text>
    </g>
  </g>
  <g transform="translate(307.515,236.445)">
    <g transform="rotate(-0.0)">
      <text x="0.000" y="0.000" font-family="Helvetica" text-anchor="middle" font-size="12pt" fill="#000000" >-0.2</text>
    </g>
  </g>
  <g transform="translate(361.680,236.445)">
    <g transform="rotate(-0.0)">
      <text x="0.000" y="0.000" font-family="Helvetica" text-anchor="middle" font-size="12pt" fill="#000000" >0</text>
    </g>
  </g>
  <g transform="translate(415.844,236.445)">
    <g transform="rotate(-0.0)">
      <text x="0.000" y="0.000" font-family="Helvetica" text-anchor="middle" font-size="12pt" fill="#000000" >0.2</text>
    </g>
  </g>
  <g transform="translate(470.009,236.445)">
    <g transform="rotate(-0.0)">
      <text x="0.000" y="0.000" font-family="Helvetica" text-anchor="middle" font-size="12pt" fill="#000000" >0.4</text>
    </g>
  </g>
  <g transform="translate(524.173,236.445)">
    <g transform="rotate(-0.0)">
      <text x="0.000" y="0.000" font-family="Helvetica" text-anchor="middle" font-size="12pt" fill="#000000" >0.6</text>
    </g>
  </g>
  <g transform="translate(578.338,236.445)">
    <g transform="rotate(-0.0)">
      <text x="0.000" y="0.000" font-family="Helvetica" text-anchor="middle" font-size="12pt" fill="#000000" >0.8</text>
    </g>
  </g>
  <g transform="translate(632.502,236.445)">
    <g transform="rotate(-0.0)">
      <text x="0.000" y="0.000" font-family="Helvetica" text-anchor="middle" font-size="12pt" fill="#000000" >1</text>
    </g>
  </g>
      <polyline fill="none" stroke="#000000" stroke-width="0.5pt" stroke-dasharray="none" points="90.857,173.434 96.273,173.434 "/>
      <polyline fill="none" stroke="#000000" stroke-width="0.5pt" stroke-dasharray="none" points="90.857,128.727 96.273,128.727 "/>
      <polyline fill="none" stroke="#000000" stroke-width="0.5pt" stroke-dasharray="none" points="90.857,84.020 96.273,84.020 "/>
      <polyline fill="none" stroke="#000000" stroke-width="0.5pt" stroke-dasharray="none" points="90.857,218.141 90.857,39.313 "/>
      <polyline fill="none" stroke="#000000" stroke-width="0.5pt" stroke-dasharray="none" points="632.502,173.434 627.086,173.434 "/>
      <polyline fill="none" stroke="#000000" stroke-width="0.5pt" stroke-dasharray="none" points="632.502,128.727 627.086,128.727 "/>
      <polyline fill="none" stroke="#000000" stroke-width="0.5pt" stroke-dasharray="none" points="632.502,84.020 627.086,84.020 "/>
      <polyline fill="none" stroke="#000000" stroke-width="0.5pt" stroke-dasharray="none" points="632.502,218.141 632.502,39.313 "/>
  <g transform="translate(80.024,223.758)">
    <g transform="rotate(-0.0)">
      <text x="0.000" y="0.000" font-family="Helvetica" text-anchor="end" font-size="12pt" fill="#000000" >0</text>
    </g>
  </g>
  <g transform="translate(80.024,179.050)">
    <g transform="rotate(-0.0)">
      <text x="0.000" y="0.000" font-family="Helvetica" text-anchor="end" font-size="12pt" fill="#000000" >0.5</text>
    </g>
  </g>
  <g transform="translate(80.024,134.343)">
    <g transform="rotate(-0.0)">
      <text x="0.000" y="0.000" font-family="Helvetica" text-anchor="end" font-size="12pt" fill="#000000" >1</text>
    </g>
  </g>
  <g transform="translate(80.024,89.636)">
    <g transform="rotate(-0.0)">
      <text x="0.000" y="0.000" font-family="Helvetica" text-anchor="end" font-size="12pt" fill="#000000" >1.5</text>
    </g>
  </g>
  <g transform="translate(80.024,44.929)">
    <g transform="rotate(-0.0)">
      <text x="0.000" y="0.000" font-family="Helvetica" text-anchor="end" font-size="12pt" fill="#000000" >2</text>
    </g>
  </g>
      <polyline fill="none" stroke="#000000" stroke-width="0.5pt" stroke-dasharray="none" points="90.857,218.141 90.857,216.353 "/>
      <polyline fill="none" stroke="#000000" stroke-width="0.5pt" stroke-dasharray="none" points="90.857,218.141 90.857,218.141 "/>
  <g transform="translate(90.857,31.193)">
    <g transform="rotate(-0.0)">
      <text x="0.000" y="0.000" font-family="Helvetica" text-anchor="start" font-size="12pt" fill="#000000" >&#215; 10<tspan font-size="7.0pt" dy="-7.0pt">-224</tspan></text>
    </g>
  </g>
    </g>
  </g>
  <g id ="ID000006">
  <clipPath id="ID000007">
    <rect x="90.857" y="287.686" width="541.646" height="178.828"/>
  </clipPath>
      <polygon fill="#ffffff" fill-opacity="1.00" stroke="none" stroke-width="0.5pt" stroke-opacity="1.00" stroke-dasharray="none" points="90.857,466.514 632.502,466.514 632.502,287.686 90.857,287.686 "/>
      <polygon fill="#ffffff" fill-opacity="1.00" stroke="none" stroke-width="0.5pt" stroke-opacity="1.00" stroke-dasharray="none" points="90.857,287.686 632.502,287.686 632.502,287.686 90.857,287.686 "/>
      <polygon fill="#ffffff" fill-opacity="1.00" stroke="none" stroke-width="0.5pt" stroke-opacity="1.00" stroke-dasharray="none" points="90.857,466.514 90.857,466.514 90.857,287.686 90.857,287.686 "/>
    <g>
<g id="ID000008" clip-path="url(#ID000007)" >
      <polyline fill="none" stroke="#0000ff" stroke-width="0.5pt" stroke-dasharray="none" points="90.857,466.514 91.128,466.514 91.398,466.514 91.669,466.514 91.940,466.514 92.211,466.514 92.482,466.514 92.752,466.514 93.023,466.514 93.294,466.514 93.565,466.514 93.836,466.514 94.107,466.514 94.377,466.514 94.648,466.514 94.919,466.514 95.190,466.514 95.461,466.514 95.732,466.514 96.002,466.514 96.273,466.514 96.544,466.514 96.815,466.514 97.086,466.514 97.356,466.514 97.627,466.514 97.898,466.514 98.169,466.514 98.440,466.514 98.711,466.514 98.981,466.514 99.252,466.514 99.523,466.514 99.794,466.514 100.065,466.514 100.335,466.514 100.606,466.514 100.877,466.514 101.148,466.514 101.419,466.514 101.690,466.514 101.960,466.514 102.231,466.514 102.502,466.514 102.773,466.514 103.044,466.514 103.315,466.514 103.585,466.514 103.856,466.514 104.127,466.514 104.398,466.514 104.669,466.514 104.939,466.514 105.210,466.514 105.481,466.514 105.752,466.514 106.023,466.514 106.294,466.514 106.564,466.514 106.835,466.514 107.106,466.514 107.377,466.514 107.648,466.514 107.919,466.514 108.189,466.514 108.460,466.514 108.731,466.514 109.002,466.514 109.273,466.514 109.543,466.514 109.814,466.514 110.085,466.514 110.356,466.514 110.627,466.514 110.898,466.514 111.168,466.514 111.439,466.514 111.710,466.514 111.981,466.514 112.252,466.514 112.523,466.514 112.793,466.514 113.064,466.514 113.335,466.514 113.606,466.514 113.877,466.514 114.147,466.514 114.418,466.514 114.689,466.514 114.960,466.514 115.231,466.514 115.502,466.514 115.772,466.514 116.043,466.514 116.314,466.514 116.585,466.514 116.856,466.514 117.127,466.514 117.397,466.514 117.668,466.514 117.939,466.514 118.210,466.514 118.481,466.514 118.751,466.514 119.022,466.514 119.293,466.514 119.564,466.514 119.835,466.514 120.106,466.514 120.376,466.514 120.647,466.514 120.918,466.514 121.189,466.514 121.460,466.514 121.730,466.514 122.001,466.514 122.272,466.514 122.543,466.514 122.814,466.514 123.085,466.514 123.355,466.514 123.626,466.514 123.897,466.514 124.168,466.514 124.439,466.514 124.710,466.514 124.980,466.514 125.251,466.514 125.522,466.514 125.793,466.514 126.064,466.514 126.334,466.514 126.605,466.514 126.876,466.514 127.147,466.514 127.418,466.514 127.689,466.514 127.959,466.514 128.230,466.514 128.501,466.514 128.772,466.514 129.043,466.514 129.314,466.514 129.584,466.514 129.855,466.514 130.126,466.514 130.397,466.514 130.668,466.514 130.938,466.514 131.209,466.514 131.480,466.514 131.751,466.514 132.022,466.514 132.293,466.514 132.563,466.514 132.834,466.514 133.105,466.514 133.376,466.514 133.647,466.514 133.918,466.514 134.188,466.514 134.459,466.514 134.730,466.514 135.001,466.514 135.272,466.514 135.542,466.514 135.813,466.514 136.084,466.514 136.355,466.514 136.626,466.514 136.897,466.514 137.167,466.514 137.438,466.514 137.709,466.514 137.980,466.514 138.251,466.514 138.522,466.514 138.792,466.514 139.063,466.514 139.334,466.514 139.605,466.514 139.876,466.514 140.146,466.514 140.417,466.514 140.688,466.514 140.959,466.514 141.230,466.514 141.501,466.514 141.771,466.514 142.042,466.514 142.313,466.514 142.584,466.514 142.855,466.514 143.126,466.514 143.396,466.514 143.667,466.514 143.938,466.514 144.209,466.514 144.480,466.514 144.750,466.514 145.021,466.514 145.292,466.514 145.563,466.514 145.834,466.514 146.105,466.514 146.375,466.514 146.646,466.514 146.917,466.514 147.188,466.514 147.459,466.514 147.729,466.514 148.000,466.514 148.271,466.514 148.542,466.514 148.813,466.514 149.084,466.514 149.354,466.514 149.625,466.514 149.896,466.514 150.167,466.514 150.438,466.514 150.709,466.514 150.979,466.514 151.250,466.514 151.521,466.514 151.792,466.514 152.063,466.514 152.333,466.514 152.604,466.514 152.875,466.514 153.146,466.514 153.417,466.514 153.688,466.514 153.958,466.514 154.229,466.514 154.500,466.514 154.771,466.514 155.042,466.514 155.313,466.514 155.583,466.514 155.854,466.514 156.125,466.514 156.396,466.514 156.667,466.514 156.937,466.514 157.208,466.514 157.479,466.514 157.750,466.514 158.021,466.514 158.292,466.514 158.562,466.514 158.833,466.514 159.104,466.514 159.375,466.514 159.646,466.514 159.917,466.514 160.187,466.514 160.458,466.514 160.729,466.514 161.000,466.514 161.271,466.514 161.541,466.514 161.812,466.514 162.083,466.514 162.354,466.514 162.625,466.514 162.896,466.514 163.166,466.514 163.437,466.514 163.708,466.514 163.979,466.514 164.250,466.514 164.521,466.514 164.791,466.514 165.062,466.514 165.333,466.514 165.604,466.514 165.875,466.514 166.145,466.514 166.416,466.514 166.687,466.514 166.958,466.514 167.229,466.514 167.500,466.514 167.770,466.514 168.041,466.514 168.312,466.514 168.583,466.514 168.854,466.514 169.124,466.514 169.395,466.514 169.666,466.514 169.937,466.514 170.208,466.514 170.479,466.514 170.749,466.514 171.020,466.514 171.291,466.514 171.562,466.514 171.833,466.514 172.104,466.514 172.374,466.514 172.645,466.514 172.916,466.514 173.187,466.514 173.458,466.514 173.728,466.514 173.999,466.514 174.270,466.514 174.541,466.514 174.812,466.514 175.083,466.514 175.353,466.514 175.624,466.514 175.895,466.514 176.166,466.514 176.437,466.514 176.708,466.514 176.978,466.514 177.249,466.514 177.520,466.514 177.791,466.514 178.062,466.514 178.332,466.514 178.603,466.514 178.874,466.514 179.145,466.514 179.416,466.514 179.687,466.514 179.957,466.514 180.228,466.514 180.499,466.514 180.770,466.514 181.041,466.514 181.312,466.514 181.582,466.514 181.853,466.514 182.124,466.514 182.395,466.514 182.666,466.514 182.936,466.514 183.207,466.514 183.478,466.514 183.749,466.514 184.020,466.514 184.291,466.514 184.561,466.514 184.832,466.514 185.103,466.514 185.374,466.514 185.645,466.514 185.916,466.514 186.186,466.514 186.457,466.514 186.728,466.514 186.999,466.514 187.270,466.514 187.540,466.514 187.811,466.514 188.082,466.514 188.353,466.514 188.624,466.514 188.895,466.514 189.165,466.514 189.436,466.514 189.707,466.514 189.978,466.514 190.249,466.514 190.519,466.514 190.790,466.514 191.061,466.514 191.332,466.514 191.603,466.514 191.874,466.514 192.144,466.514 192.415,466.514 192.686,466.514 192.957,466.514 193.228,466.514 193.499,466.514 193.769,466.514 194.040,466.514 194.311,466.514 194.582,466.514 194.853,466.514 195.123,466.514 195.394,466.514 195.665,466.514 195.936,466.514 196.207,466.514 196.478,466.514 196.748,466.514 197.019,466.514 197.290,466.514 197.561,466.514 197.832,466.514 198.103,466.514 198.373,466.514 198.644,466.514 198.915,466.514 199.186,466.514 199.457,466.514 199.727,466.514 199.998,466.514 200.269,466.514 200.540,466.514 200.811,466.514 201.082,466.514 201.352,466.514 201.623,466.514 201.894,466.514 202.165,466.514 202.436,466.514 202.707,466.514 202.977,466.514 203.248,466.514 203.519,466.514 203.790,466.514 204.061,466.514 204.331,466.514 204.602,466.514 204.873,466.514 205.144,466.514 205.415,466.514 205.686,466.514 205.956,466.514 206.227,466.514 206.498,466.514 206.769,466.514 207.040,466.514 207.311,466.514 207.581,466.514 207.852,466.514 208.123,466.514 208.394,466.514 208.665,466.514 208.935,466.514 209.206,466.514 209.477,466.514 209.748,466.514 210.019,466.514 210.290,466.514 210.560,466.514 210.831,466.514 211.102,466.514 211.373,466.514 211.644,466.514 211.915,466.514 212.185,466.514 212.456,466.514 212.727,466.514 212.998,466.514 213.269,466.514 213.539,466.514 213.810,466.514 214.081,466.514 214.352,466.514 214.623,466.514 214.894,466.514 215.164,466.514 215.435,466.514 215.706,466.514 215.977,466.514 216.248,466.514 216.518,466.514 216.789,466.514 217.060,466.514 217.331,466.514 217.602,466.514 217.873,466.514 218.143,466.514 218.414,466.514 218.685,466.514 218.956,466.514 219.227,466.514 219.498,466.514 219.768,466.514 220.039,466.514 220.310,466.514 220.581,466.514 220.852,466.514 221.122,466.514 221.393,466.514 221.664,466.514 221.935,466.514 222.206,466.514 222.477,466.514 222.747,466.514 223.018,466.514 223.289,466.514 223.560,466.514 223.831,466.514 224.102,466.514 224.372,466.514 224.643,466.514 224.914,466.514 225.185,466.514 225.456,466.514 225.726,466.514 225.997,466.514 226.268,466.514 226.539,466.514 226.810,466.514 227.081,466.514 227.351,466.514 227.622,466.514 227.893,466.514 228.164,466.514 228.435,466.514 228.706,466.514 228.976,466.514 229.247,466.514 229.518,466.514 229.789,466.514 230.060,466.514 230.330,466.514 230.601,466.514 230.872,466.514 231.143,466.514 231.414,466.514 231.685,466.514 231.955,466.514 232.226,466.514 232.497,466.514 232.768,466.514 233.039,466.514 233.310,466.514 233.580,466.514 233.851,466.514 234.122,466.514 234.393,466.514 234.664,466.514 234.934,466.514 235.205,466.514 235.476,466.514 235.747,466.514 236.018,466.514 236.289,466.514 236.559,466.514 236.830,466.514 237.101,466.514 237.372,466.514 237.643,466.514 237.913,466.514 238.184,466.514 238.455,466.514 238.726,466.514 238.997,466.514 239.268,466.514 239.538,466.514 239.809,466.514 240.080,466.514 240.351,466.514 240.622,466.514 240.893,466.514 241.163,466.514 241.434,466.514 241.705,466.514 241.976,466.514 242.247,466.514 242.517,466.514 242.788,466.514 243.059,466.514 243.330,466.514 243.601,466.514 243.872,466.514 244.142,466.514 244.413,466.514 244.684,466.514 244.955,466.514 245.226,466.514 245.497,466.514 245.767,466.514 246.038,466.514 246.309,466.514 246.580,466.514 246.851,466.514 247.121,466.514 247.392,466.514 247.663,466.514 247.934,466.514 248.205,466.514 248.476,466.514 248.746,466.514 249.017,466.514 249.288,466.514 249.559,466.514 249.830,466.514 250.101,466.514 250.371,466.514 250.642,466.514 250.913,466.514 251.184,466.514 251.455,466.514 251.725,466.514 251.996,466.514 252.267,466.514 252.538,466.514 252.809,466.514 253.080,466.514 253.350,466.514 253.621,466.514 253.892,466.514 254.163,466.514 254.434,466.514 254.705,466.514 254.975,466.514 255.246,466.514 255.517,466.514 255.788,466.514 256.059,466.514 256.329,466.514 256.600,466.514 256.871,466.514 257.142,466.514 257.413,466.514 257.684,466.514 257.954,466.514 258.225,466.514 258.496,466.514 258.767,466.514 259.038,466.514 259.308,466.514 259.579,466.514 259.850,466.514 260.121,466.514 260.392,466.514 260.663,466.514 260.933,466.514 261.204,466.514 261.475,466.514 261.746,466.514 262.017,466.514 262.288,466.514 262.558,466.514 262.829,466.514 263.100,466.514 263.371,466.514 263.642,466.514 263.912,466.514 264.183,466.514 264.454,466.514 264.725,466.514 264.996,466.514 265.267,466.514 265.537,466.514 265.808,466.514 266.079,466.514 266.350,466.514 266.621,466.514 266.892,466.514 267.162,466.514 267.433,466.514 267.704,466.514 267.975,466.514 268.246,466.514 268.516,466.514 268.787,466.514 269.058,466.514 269.329,466.514 269.600,466.514 269.871,466.514 270.141,466.514 270.412,466.514 270.683,466.514 270.954,466.514 271.225,466.514 271.496,466.514 271.766,466.514 272.037,466.514 272.308,466.514 272.579,466.514 272.850,466.514 273.120,466.514 273.391,466.514 273.662,466.514 273.933,466.514 274.204,466.514 274.475,466.514 274.745,466.514 275.016,466.514 275.287,466.514 275.558,466.514 275.829,466.514 276.100,466.514 276.370,466.514 276.641,466.514 276.912,466.514 277.183,466.514 277.454,466.514 277.724,466.514 277.995,466.514 278.266,466.514 278.537,466.514 278.808,466.514 279.079,466.514 279.349,466.514 279.620,466.514 279.891,466.514 280.162,466.514 280.433,466.514 280.704,466.514 280.974,466.514 281.245,466.514 281.516,466.514 281.787,466.514 282.058,466.514 282.328,466.514 282.599,466.514 282.870,466.514 283.141,466.514 283.412,466.514 283.683,466.514 283.953,466.514 284.224,466.514 284.495,466.514 284.766,466.514 285.037,466.514 285.307,466.514 285.578,466.514 285.849,466.514 286.120,466.514 286.391,466.514 286.662,466.514 286.932,466.514 287.203,466.514 287.474,466.514 287.745,466.514 288.016,466.514 288.287,466.514 288.557,466.514 288.828,466.514 289.099,466.514 289.370,466.514 289.641,466.514 289.911,466.514 290.182,466.514 290.453,466.514 290.724,466.514 290.995,466.514 291.266,466.514 291.536,466.514 291.807,466.514 292.078,466.514 292.349,466.514 292.620,466.514 292.891,466.514 293.161,466.514 293.432,466.514 293.703,466.514 293.974,466.514 294.245,466.514 294.515,466.514 294.786,466.514 295.057,466.514 295.328,466.514 295.599,466.514 295.870,466.514 296.140,466.514 296.411,466.514 296.682,466.514 296.953,466.514 297.224,466.514 297.495,466.514 297.765,466.514 298.036,466.514 298.307,466.514 298.578,466.514 298.849,466.514 299.119,466.514 299.390,466.514 299.661,466.514 299.932,466.514 300.203,466.514 300.474,466.514 300.744,466.514 301.015,466.514 301.286,466.514 301.557,466.514 301.828,466.514 302.099,466.514 302.369,466.514 302.640,466.514 302.911,466.514 303.182,466.514 303.453,466.514 303.723,466.514 303.994,466.514 304.265,466.514 304.536,466.514 304.807,466.514 305.078,466.514 305.348,466.514 305.619,466.514 305.890,466.514 306.161,466.514 306.432,466.514 306.702,466.514 306.973,466.514 307.244,466.514 307.515,466.514 307.786,466.514 308.057,466.514 308.327,466.514 308.598,466.514 308.869,466.514 309.140,466.514 309.411,466.514 309.682,466.514 309.952,466.514 310.223,466.514 310.494,466.514 310.765,466.514 311.036,466.514 311.306,466.514 311.577,466.514 311.848,466.514 312.119,466.514 312.390,466.514 312.661,466.514 312.931,466.514 313.202,466.514 313.473,466.514 313.744,466.514 314.015,466.514 314.286,466.514 314.556,466.514 314.827,466.514 315.098,466.514 315.369,466.514 315.640,466.514 315.910,466.514 316.181,466.514 316.452,466.514 316.723,466.514 316.994,466.514 317.265,466.514 317.535,466.514 317.806,466.514 318.077,466.514 318.348,466.514 318.619,466.514 318.890,466.514 319.160,466.514 319.431,466.514 319.702,466.514 319.973,466.514 320.244,466.514 320.514,466.514 320.785,466.514 321.056,466.514 321.327,466.514 321.598,466.514 321.869,466.514 322.139,466.514 322.410,466.514 322.681,466.514 322.952,466.514 323.223,466.514 323.494,466.514 323.764,466.514 324.035,466.514 324.306,466.514 324.577,466.514 324.848,466.514 325.118,466.514 325.389,466.514 325.660,466.514 325.931,466.514 326.202,466.514 326.473,466.514 326.743,466.514 327.014,466.514 327.285,466.514 327.556,466.514 327.827,466.514 328.097,466.514 328.368,466.514 328.639,466.514 328.910,466.514 329.181,466.514 329.452,466.514 329.722,466.514 329.993,466.514 330.264,466.514 330.535,466.514 330.806,466.514 331.077,466.514 331.347,466.514 331.618,466.514 331.889,466.514 332.160,466.514 332.431,466.514 332.701,466.514 332.972,466.514 333.243,466.514 333.514,466.514 333.785,466.514 334.056,466.514 334.326,466.514 334.597,466.514 334.868,466.514 335.139,466.514 335.410,466.514 335.681,466.514 335.951,466.514 336.222,466.514 336.493,466.514 336.764,466.514 337.035,466.514 337.305,466.514 337.576,466.514 337.847,466.514 338.118,466.514 338.389,466.514 338.660,466.514 338.930,466.514 339.201,466.514 339.472,466.514 339.743,466.514 340.014,466.514 340.285,466.514 340.555,466.514 340.826,466.514 341.097,466.514 341.368,466.514 341.639,466.514 341.909,466.514 342.180,466.514 342.451,466.514 342.722,466.514 342.993,466.514 343.264,466.514 343.534,466.514 343.805,466.514 344.076,466.514 344.347,466.514 344.618,466.514 344.889,466.514 345.159,466.514 345.430,466.514 345.701,466.514 345.972,466.514 346.243,466.514 346.513,466.514 346.784,466.514 347.055,466.514 347.326,466.514 347.597,466.514 347.868,466.514 348.138,466.514 348.409,466.514 348.680,466.514 348.951,466.514 349.222,466.514 349.493,466.514 349.763,466.514 350.034,466.514 350.305,466.514 350.576,466.514 350.847,466.514 351.117,466.514 351.388,466.514 351.659,466.514 351.930,466.514 352.201,466.514 352.472,466.514 352.742,466.514 353.013,466.514 353.284,466.514 353.555,466.514 353.826,466.514 354.096,466.514 354.367,466.514 354.638,466.514 354.909,466.514 355.180,466.514 355.451,466.514 355.721,466.514 355.992,466.514 356.263,466.514 356.534,466.514 356.805,466.514 357.076,466.514 357.346,466.514 357.617,466.514 357.888,466.514 358.159,466.514 358.430,466.514 358.700,466.514 358.971,466.514 359.242,466.514 359.513,466.514 359.784,466.514 360.055,466.514 360.325,466.514 360.596,466.514 360.867,466.514 361.138,466.514 361.409,466.514 361.680,466.514 361.950,466.514 362.221,466.514 362.492,466.514 362.763,466.514 363.034,466.514 363.304,466.514 363.575,466.514 363.846,466.514 364.117,466.514 364.388,466.514 364.659,466.514 364.929,466.514 365.200,466.514 365.471,466.514 365.742,466.514 366.013,466.514 366.284,466.514 366.554,466.514 366.825,466.514 367.096,466.514 367.367,466.514 367.638,466.514 367.908,466.514 368.179,466.514 368.450,466.514 368.721,466.514 368.992,466.514 369.263,466.514 369.533,466.514 369.804,466.514 370.075,466.514 370.346,466.514 370.617,466.514 370.888,466.514 371.158,466.514 371.429,466.514 371.700,466.514 371.971,466.514 372.242,466.514 372.512,466.514 372.783,466.514 373.054,466.514 373.325,466.514 373.596,466.514 373.867,466.514 374.137,466.514 374.408,466.514 374.679,466.514 374.950,466.514 375.221,466.514 375.491,466.514 375.762,466.514 376.033,466.514 376.304,466.514 376.575,466.514 376.846,466.514 377.116,466.514 377.387,466.514 377.658,466.514 377.929,466.514 378.200,466.514 378.471,466.514 378.741,466.514 379.012,466.514 379.283,466.514 379.554,466.514 379.825,466.514 380.095,466.514 380.366,466.514 380.637,466.514 380.908,466.514 381.179,466.514 381.450,466.514 381.720,466.514 381.991,466.514 382.262,466.514 382.533,466.514 382.804,466.514 383.075,466.514 383.345,466.514 383.616,466.514 383.887,466.514 384.158,466.514 384.429,466.514 384.699,466.514 384.970,466.514 385.241,466.513 385.512,466.513 385.783,466.513 386.054,466.513 386.324,466.513 386.595,466.513 386.866,466.513 387.137,466.513 387.408,466.513 387.679,466.513 387.949,466.513 388.220,466.512 388.491,466.512 388.762,466.512 389.033,466.512 389.303,466.512 389.574,466.511 389.845,466.511 390.116,466.511 390.387,466.511 390.658,466.510 390.928,466.510 391.199,466.509 391.470,466.509 391.741,466.509 392.012,466.508 392.283,466.508 392.553,466.507 392.824,466.506 393.095,466.506 393.366,466.505 393.637,466.504 393.907,466.504 394.178,466.503 394.449,466.502 394.720,466.501 394.991,466.499 395.262,466.498 395.532,466.497 395.803,466.496 396.074,466.494 396.345,466.492 396.616,466.491 396.886,466.489 397.157,466.487 397.428,466.485 397.699,466.482 397.970,466.480 398.241,466.477 398.511,466.474 398.782,466.471 399.053,466.468 399.324,466.464 399.595,466.460 399.866,466.456 400.136,466.452 400.407,466.447 400.678,466.442 400.949,466.437 401.220,466.431 401.490,466.425 401.761,466.418 402.032,466.411 402.303,466.404 402.574,466.396 402.845,466.387 403.115,466.378 403.386,466.369 403.657,466.358 403.928,466.347 404.199,466.336 404.470,466.323 404.740,466.310 405.011,466.296 405.282,466.280 405.553,466.264 405.824,466.247 406.094,466.229 406.365,466.210 406.636,466.190 406.907,466.168 407.178,466.145 407.449,466.121 407.719,466.095 407.990,466.068 408.261,466.039 408.532,466.008 408.803,465.975 409.074,465.941 409.344,465.905 409.615,465.866 409.886,465.826 410.157,465.783 410.428,465.737 410.698,465.689 410.969,465.639 411.240,465.585 411.511,465.529 411.782,465.470 412.053,465.407 412.323,465.341 412.594,465.272 412.865,465.198 413.136,465.122 413.407,465.041 413.678,464.955 413.948,464.866 414.219,464.772 414.490,464.673 414.761,464.569 415.032,464.461 415.302,464.346 415.573,464.226 415.844,464.101 416.115,463.969 416.386,463.831 416.657,463.687 416.927,463.535 417.198,463.377 417.469,463.212 417.740,463.038 418.011,462.857 418.282,462.668 418.552,462.471 418.823,462.264 419.094,462.049 419.365,461.824 419.636,461.590 419.906,461.346 420.177,461.091 420.448,460.826 420.719,460.550 420.990,460.262 421.261,459.963 421.531,459.652 421.802,459.329 422.073,458.993 422.344,458.643 422.615,458.281 422.885,457.904 423.156,457.514 423.427,457.108 423.698,456.688 423.969,456.253 424.240,455.802 424.510,455.335 424.781,454.851 425.052,454.350 425.323,453.833 425.594,453.298 425.865,452.744 426.135,452.173 426.406,451.583 426.677,450.973 426.948,450.345 427.219,449.696 427.489,449.028 427.760,448.339 428.031,447.629 428.302,446.898 428.573,446.146 428.844,445.372 429.114,444.576 429.385,443.757 429.656,442.916 429.927,442.052 430.198,441.165 430.469,440.255 430.739,439.321 431.010,438.364 431.281,437.383 431.552,436.377 431.823,435.348 432.093,434.294 432.364,433.215 432.635,432.113 432.906,430.985 433.177,429.833 433.448,428.657 433.718,427.455 433.989,426.230 434.260,424.979 434.531,423.705 434.802,422.406 435.073,421.083 435.343,419.736 435.614,418.366 435.885,416.972 436.156,415.555 436.427,414.114 436.697,412.652 436.968,411.167 437.239,409.660 437.510,408.132 437.781,406.584 438.052,405.014 438.322,403.425 438.593,401.817 438.864,400.190 439.135,398.545 439.406,396.883 439.677,395.204 439.947,393.509 440.218,391.799 440.489,390.075 440.760,388.337 441.031,386.587 441.301,384.825 441.572,383.052 441.843,381.270 442.114,379.479 442.385,377.680 442.656,375.875 442.926,374.063 443.197,372.248 443.468,370.429 443.739,368.608 444.010,366.787 444.280,364.965 444.551,363.145 444.822,361.328 445.093,359.515 445.364,357.708 445.635,355.907 445.905,354.114 446.176,352.331 446.447,350.558 446.718,348.797 446.989,347.050 447.260,345.318 447.530,343.603 447.801,341.905 448.072,340.226 448.343,338.567 448.614,336.930 448.884,335.317 449.155,333.728 449.426,332.166 449.697,330.630 449.968,329.124 450.239,327.647 450.509,326.202 450.780,324.790 451.051,323.411 451.322,322.068 451.593,320.762 451.864,319.493 452.134,318.263 452.405,317.073 452.676,315.924 452.947,314.817 453.218,313.754 453.488,312.735 453.759,311.762 454.030,310.834 454.301,309.954 454.572,309.122 454.843,308.339 455.113,307.606 455.384,306.923 455.655,306.290 455.926,305.710 456.197,305.182 456.468,304.706 456.738,304.284 457.009,303.916 457.280,303.601 457.551,303.341 457.822,303.136 458.092,302.985 458.363,302.890 458.634,302.849 458.905,302.864 459.176,302.933 459.447,303.058 459.717,303.238 459.988,303.472 460.259,303.761 460.530,304.104 460.801,304.501 461.072,304.951 461.342,305.455 461.613,306.010 461.884,306.618 462.155,307.277 462.426,307.987 462.696,308.747 462.967,309.556 463.238,310.414 463.509,311.319 463.780,312.271 464.051,313.268 464.321,314.311 464.592,315.397 464.863,316.526 465.134,317.697 465.405,318.908 465.675,320.159 465.946,321.448 466.217,322.774 466.488,324.136 466.759,325.532 467.030,326.962 467.300,328.424 467.571,329.917 467.842,331.439 468.113,332.989 468.384,334.565 468.655,336.167 468.925,337.793 469.196,339.441 469.467,341.111 469.738,342.800 470.009,344.508 470.279,346.232 470.550,347.972 470.821,349.727 471.092,351.494 471.363,353.272 471.634,355.061 471.904,356.858 472.175,358.663 472.446,360.473 472.717,362.288 472.988,364.107 473.259,365.928 473.529,367.750 473.800,369.571 474.071,371.391 474.342,373.208 474.613,375.022 474.883,376.830 475.154,378.632 475.425,380.427 475.696,382.214 475.967,383.991 476.238,385.758 476.508,387.514 476.779,389.258 477.050,390.988 477.321,392.705 477.592,394.407 477.863,396.094 478.133,397.764 478.404,399.417 478.675,401.053 478.946,402.670 479.217,404.268 479.487,405.847 479.758,407.405 480.029,408.943 480.300,410.460 480.571,411.955 480.842,413.428 481.112,414.879 481.383,416.307 481.654,417.712 481.925,419.093 482.196,420.451 482.467,421.786 482.737,423.096 483.008,424.382 483.279,425.644 483.550,426.881 483.821,428.094 484.091,429.282 484.362,430.445 484.633,431.584 484.904,432.699 485.175,433.789 485.446,434.854 485.716,435.895 485.987,436.912 486.258,437.905 486.529,438.873 486.800,439.818 487.071,440.739 487.341,441.637 487.612,442.512 487.883,443.364 488.154,444.193 488.425,444.999 488.695,445.784 488.966,446.546 489.237,447.287 489.508,448.007 489.779,448.706 490.050,449.384 490.320,450.042 490.591,450.680 490.862,451.298 491.133,451.897 491.404,452.477 491.674,453.039 491.945,453.583 492.216,454.109 492.487,454.617 492.758,455.109 493.029,455.584 493.299,456.042 493.570,456.485 493.841,456.912 494.112,457.325 494.383,457.722 494.654,458.105 494.924,458.474 495.195,458.830 495.466,459.172 495.737,459.501 496.008,459.818 496.278,460.123 496.549,460.416 496.820,460.697 497.091,460.967 497.362,461.227 497.633,461.476 497.903,461.715 498.174,461.944 498.445,462.164 498.716,462.374 498.987,462.576 499.258,462.769 499.528,462.954 499.799,463.131 500.070,463.300 500.341,463.462 500.612,463.616 500.882,463.764 501.153,463.905 501.424,464.040 501.695,464.168 501.966,464.291 502.237,464.407 502.507,464.519 502.778,464.625 503.049,464.726 503.320,464.822 503.591,464.914 503.862,465.001 504.132,465.084 504.403,465.163 504.674,465.238 504.945,465.309 505.216,465.376 505.486,465.440 505.757,465.501 506.028,465.559 506.299,465.614 506.570,465.666 506.841,465.715 507.111,465.761 507.382,465.806 507.653,465.847 507.924,465.887 508.195,465.924 508.466,465.960 508.736,465.993 509.007,466.024 509.278,466.054 509.549,466.082 509.820,466.109 510.090,466.134 510.361,466.157 510.632,466.180 510.903,466.201 511.174,466.220 511.445,466.239 511.715,466.257 511.986,466.273 512.257,466.289 512.528,466.303 512.799,466.317 513.069,466.330 513.340,466.342 513.611,466.353 513.882,466.364 514.153,466.374 514.424,466.383 514.694,466.392 514.965,466.400 515.236,466.408 515.507,466.415 515.778,466.422 516.049,466.428 516.319,466.434 516.590,466.440 516.861,466.445 517.132,466.450 517.403,466.454 517.673,466.459 517.944,466.462 518.215,466.466 518.486,466.470 518.757,466.473 519.028,466.476 519.298,466.479 519.569,466.481 519.840,466.484 520.111,466.486 520.382,466.488 520.653,466.490 520.923,466.492 521.194,466.493 521.465,466.495 521.736,466.496 522.007,466.498 522.277,466.499 522.548,466.500 522.819,466.501 523.090,466.502 523.361,466.503 523.632,466.504 523.902,466.505 524.173,466.505 524.444,466.506 524.715,466.507 524.986,466.507 525.257,466.508 525.527,466.508 525.798,466.509 526.069,466.509 526.340,466.510 526.611,466.510 526.881,466.510 527.152,466.511 527.423,466.511 527.694,466.511 527.965,466.511 528.236,466.512 528.506,466.512 528.777,466.512 529.048,466.512 529.319,466.512 529.590,466.513 529.861,466.513 530.131,466.513 530.402,466.513 530.673,466.513 530.944,466.513 531.215,466.513 531.485,466.513 531.756,466.513 532.027,466.513 532.298,466.514 532.569,466.514 532.840,466.514 533.110,466.514 533.381,466.514 533.652,466.514 533.923,466.514 534.194,466.514 534.464,466.514 534.735,466.514 535.006,466.514 535.277,466.514 535.548,466.514 535.819,466.514 536.089,466.514 536.360,466.514 536.631,466.514 536.902,466.514 537.173,466.514 537.444,466.514 537.714,466.514 537.985,466.514 538.256,466.514 538.527,466.514 538.798,466.514 539.068,466.514 539.339,466.514 539.610,466.514 539.881,466.514 540.152,466.514 540.423,466.514 540.693,466.514 540.964,466.514 541.235,466.514 541.506,466.514 541.777,466.514 542.048,466.514 542.318,466.514 542.589,466.514 542.860,466.514 543.131,466.514 543.402,466.514 543.672,466.514 543.943,466.514 544.214,466.514 544.485,466.514 544.756,466.514 545.027,466.514 545.297,466.514 545.568,466.514 545.839,466.514 546.110,466.514 546.381,466.514 546.652,466.514 546.922,466.514 547.193,466.514 547.464,466.514 547.735,466.514 548.006,466.514 548.276,466.514 548.547,466.514 548.818,466.514 549.089,466.514 549.360,466.514 549.631,466.514 549.901,466.514 550.172,466.514 550.443,466.514 550.714,466.514 550.985,466.514 551.256,466.514 551.526,466.514 551.797,466.514 552.068,466.514 552.339,466.514 552.610,466.514 552.880,466.514 553.151,466.514 553.422,466.514 553.693,466.514 553.964,466.514 554.235,466.514 554.505,466.514 554.776,466.514 555.047,466.514 555.318,466.514 555.589,466.514 555.860,466.514 556.130,466.514 556.401,466.514 556.672,466.514 556.943,466.514 557.214,466.514 557.484,466.514 557.755,466.514 558.026,466.514 558.297,466.514 558.568,466.514 558.839,466.514 559.109,466.514 559.380,466.514 559.651,466.514 559.922,466.514 560.193,466.514 560.463,466.514 560.734,466.514 561.005,466.514 561.276,466.514 561.547,466.514 561.818,466.514 562.088,466.514 562.359,466.514 562.630,466.514 562.901,466.514 563.172,466.514 563.443,466.514 563.713,466.514 563.984,466.514 564.255,466.514 564.526,466.514 564.797,466.514 565.067,466.514 565.338,466.514 565.609,466.514 565.880,466.514 566.151,466.514 566.422,466.514 566.692,466.514 566.963,466.514 567.234,466.514 567.505,466.514 567.776,466.514 568.047,466.514 568.317,466.514 568.588,466.514 568.859,466.514 569.130,466.514 569.401,466.514 569.671,466.514 569.942,466.514 570.213,466.514 570.484,466.514 570.755,466.514 571.026,466.514 571.296,466.514 571.567,466.514 571.838,466.514 572.109,466.514 572.380,466.514 572.651,466.514 572.921,466.514 573.192,466.514 573.463,466.514 573.734,466.514 574.005,466.514 574.275,466.514 574.546,466.514 574.817,466.514 575.088,466.514 575.359,466.514 575.630,466.514 575.900,466.514 576.171,466.514 576.442,466.514 576.713,466.514 576.984,466.514 577.255,466.514 577.525,466.514 577.796,466.514 578.067,466.514 578.338,466.514 578.609,466.514 578.879,466.514 579.150,466.514 579.421,466.514 579.692,466.514 579.963,466.514 580.234,466.514 580.504,466.514 580.775,466.514 581.046,466.514 581.317,466.514 581.588,466.514 581.858,466.514 582.129,466.514 582.400,466.514 582.671,466.514 582.942,466.514 583.213,466.514 583.483,466.514 583.754,466.514 584.025,466.514 584.296,466.514 584.567,466.514 584.838,466.514 585.108,466.514 585.379,466.514 585.650,466.514 585.921,466.514 586.192,466.514 586.462,466.514 586.733,466.514 587.004,466.514 587.275,466.514 587.546,466.514 587.817,466.514 588.087,466.514 588.358,466.514 588.629,466.514 588.900,466.514 589.171,466.514 589.442,466.514 589.712,466.514 589.983,466.514 590.254,466.514 590.525,466.514 590.796,466.514 591.066,466.514 591.337,466.514 591.608,466.514 591.879,466.514 592.150,466.514 592.421,466.514 592.691,466.514 592.962,466.514 593.233,466.514 593.504,466.514 593.775,466.514 594.046,466.514 594.316,466.514 594.587,466.514 594.858,466.514 595.129,466.514 595.400,466.514 595.670,466.514 595.941,466.514 596.212,466.514 596.483,466.514 596.754,466.514 597.025,466.514 597.295,466.514 597.566,466.514 597.837,466.514 598.108,466.514 598.379,466.514 598.650,466.514 598.920,466.514 599.191,466.514 599.462,466.514 599.733,466.514 600.004,466.514 600.274,466.514 600.545,466.514 600.816,466.514 601.087,466.514 601.358,466.514 601.629,466.514 601.899,466.514 602.170,466.514 602.441,466.514 602.712,466.514 602.983,466.514 603.253,466.514 603.524,466.514 603.795,466.514 604.066,466.514 604.337,466.514 604.608,466.514 604.878,466.514 605.149,466.514 605.420,466.514 605.691,466.514 605.962,466.514 606.233,466.514 606.503,466.514 606.774,466.514 607.045,466.514 607.316,466.514 607.587,466.514 607.857,466.514 608.128,466.514 608.399,466.514 608.670,466.514 608.941,466.514 609.212,466.514 609.482,466.514 609.753,466.514 610.024,466.514 610.295,466.514 610.566,466.514 610.837,466.514 611.107,466.514 611.378,466.514 611.649,466.514 611.920,466.514 612.191,466.514 612.461,466.514 612.732,466.514 613.003,466.514 613.274,466.514 613.545,466.514 613.816,466.514 614.086,466.514 614.357,466.514 614.628,466.514 614.899,466.514 615.170,466.514 615.441,466.514 615.711,466.514 615.982,466.514 616.253,466.514 616.524,466.514 616.795,466.514 617.065,466.514 617.336,466.514 617.607,466.514 617.878,466.514 618.149,466.514 618.420,466.514 618.690,466.514 618.961,466.514 619.232,466.514 619.503,466.514 619.774,466.514 620.045,466.514 620.315,466.514 620.586,466.514 620.857,466.514 621.128,466.514 621.399,466.514 621.669,466.514 621.940,466.514 622.211,466.514 622.482,466.514 622.753,466.514 623.024,466.514 623.294,466.514 623.565,466.514 623.836,466.514 624.107,466.514 624.378,466.514 624.649,466.514 624.919,466.514 625.190,466.514 625.461,466.514 625.732,466.514 626.003,466.514 626.273,466.514 626.544,466.514 626.815,466.514 627.086,466.514 627.357,466.514 627.628,466.514 627.898,466.514 628.169,466.514 628.440,466.514 628.711,466.514 628.982,466.514 629.252,466.514 629.523,466.514 629.794,466.514 630.065,466.514 630.336,466.514 630.607,466.514 630.877,466.514 631.148,466.514 631.419,466.514 631.690,466.514 631.961,466.514 632.232,466.514 632.502,466.514 "/>
<g>
</g>
</g>
<g id="ID000009" >
  <g transform="translate(361.056,278.938)">
    <g transform="rotate(-0.0)">
      <text x="0.000" y="0.000" font-family="Helvetica" text-anchor="middle" font-size="12pt" fill="#000000" >l = 0.41, x* = 0.50</text>
    </g>
  </g>
</g>
<g id="ID000010" >
</g>
<g id="ID000011" >
</g>
    </g>
    <g>
      <polyline fill="none" stroke="#000000" stroke-width="0.5pt" stroke-dasharray="none" points="145.021,466.514 145.021,461.098 "/>
      <polyline fill="none" stroke="#000000" stroke-width="0.5pt" stroke-dasharray="none" points="199.186,466.514 199.186,461.098 "/>
      <polyline fill="none" stroke="#000000" stroke-width="0.5pt" stroke-dasharray="none" points="253.350,466.514 253.350,461.098 "/>
      <polyline fill="none" stroke="#000000" stroke-width="0.5pt" stroke-dasharray="none" points="307.515,466.514 307.515,461.098 "/>
      <polyline fill="none" stroke="#000000" stroke-width="0.5pt" stroke-dasharray="none" points="361.680,466.514 361.680,461.098 "/>
      <polyline fill="none" stroke="#000000" stroke-width="0.5pt" stroke-dasharray="none" points="415.844,466.514 415.844,461.098 "/>
      <polyline fill="none" stroke="#000000" stroke-width="0.5pt" stroke-dasharray="none" points="470.009,466.514 470.009,461.098 "/>
      <polyline fill="none" stroke="#000000" stroke-width="0.5pt" stroke-dasharray="none" points="524.173,466.514 524.173,461.098 "/>
      <polyline fill="none" stroke="#000000" stroke-width="0.5pt" stroke-dasharray="none" points="578.338,466.514 578.338,461.098 "/>
      <polyline fill="none" stroke="#000000" stroke-width="0.5pt" stroke-dasharray="none" points="90.857,466.514 632.502,466.514 "/>
      <polyline fill="none" stroke="#000000" stroke-width="0.5pt" stroke-dasharray="none" points="145.021,287.686 145.021,293.102 "/>
      <polyline fill="none" stroke="#000000" stroke-width="0.5pt" stroke-dasharray="none" points="199.186,287.686 199.186,293.102 "/>
      <polyline fill="none" stroke="#000000" stroke-width="0.5pt" stroke-dasharray="none" points="253.350,287.686 253.350,293.102 "/>
      <polyline fill="none" stroke="#000000" stroke-width="0.5pt" stroke-dasharray="none" points="307.515,287.686 307.515,293.102 "/>
      <polyline fill="none" stroke="#000000" stroke-width="0.5pt" stroke-dasharray="none" points="361.680,287.686 361.680,293.102 "/>
      <polyline fill="none" stroke="#000000" stroke-width="0.5pt" stroke-dasharray="none" points="415.844,287.686 415.844,293.102 "/>
      <polyline fill="none" stroke="#000000" stroke-width="0.5pt" stroke-dasharray="none" points="470.009,287.686 470.009,293.102 "/>
      <polyline fill="none" stroke="#000000" stroke-width="0.5pt" stroke-dasharray="none" points="524.173,287.686 524.173,293.102 "/>
      <polyline fill="none" stroke="#000000" stroke-width="0.5pt" stroke-dasharray="none" points="578.338,287.686 578.338,293.102 "/>
      <polyline fill="none" stroke="#000000" stroke-width="0.5pt" stroke-dasharray="none" points="90.857,287.686 632.502,287.686 "/>
  <g transform="translate(90.857,484.818)">
    <g transform="rotate(-0.0)">
      <text x="0.000" y="0.000" font-family="Helvetica" text-anchor="middle" font-size="12pt" fill="#000000" >-1</text>
    </g>
  </g>
  <g transform="translate(145.021,484.818)">
    <g transform="rotate(-0.0)">
      <text x="0.000" y="0.000" font-family="Helvetica" text-anchor="middle" font-size="12pt" fill="#000000" >-0.8</text>
    </g>
  </g>
  <g transform="translate(199.186,484.818)">
    <g transform="rotate(-0.0)">
      <text x="0.000" y="0.000" font-family="Helvetica" text-anchor="middle" font-size="12pt" fill="#000000" >-0.6</text>
    </g>
  </g>
  <g transform="translate(253.350,484.818)">
    <g transform="rotate(-0.0)">
      <text x="0.000" y="0.000" font-family="Helvetica" text-anchor="middle" font-size="12pt" fill="#000000" >-0.4</text>
    </g>
  </g>
  <g transform="translate(307.515,484.818)">
    <g transform="rotate(-0.0)">
      <text x="0.000" y="0.000" font-family="Helvetica" text-anchor="middle" font-size="12pt" fill="#000000" >-0.2</text>
    </g>
  </g>
  <g transform="translate(361.680,484.818)">
    <g transform="rotate(-0.0)">
      <text x="0.000" y="0.000" font-family="Helvetica" text-anchor="middle" font-size="12pt" fill="#000000" >0</text>
    </g>
  </g>
  <g transform="translate(415.844,484.818)">
    <g transform="rotate(-0.0)">
      <text x="0.000" y="0.000" font-family="Helvetica" text-anchor="middle" font-size="12pt" fill="#000000" >0.2</text>
    </g>
  </g>
  <g transform="translate(470.009,484.818)">
    <g transform="rotate(-0.0)">
      <text x="0.000" y="0.000" font-family="Helvetica" text-anchor="middle" font-size="12pt" fill="#000000" >0.4</text>
    </g>
  </g>
  <g transform="translate(524.173,484.818)">
    <g transform="rotate(-0.0)">
      <text x="0.000" y="0.000" font-family="Helvetica" text-anchor="middle" font-size="12pt" fill="#000000" >0.6</text>
    </g>
  </g>
  <g transform="translate(578.338,484.818)">
    <g transform="rotate(-0.0)">
      <text x="0.000" y="0.000" font-family="Helvetica" text-anchor="middle" font-size="12pt" fill="#000000" >0.8</text>
    </g>
  </g>
  <g transform="translate(632.502,484.818)">
    <g transform="rotate(-0.0)">
      <text x="0.000" y="0.000" font-family="Helvetica" text-anchor="middle" font-size="12pt" fill="#000000" >1</text>
    </g>
  </g>
      <polyline fill="none" stroke="#000000" stroke-width="0.5pt" stroke-dasharray="none" points="90.857,421.807 96.273,421.807 "/>
      <polyline fill="none" stroke="#000000" stroke-width="0.5pt" stroke-dasharray="none" points="90.857,377.100 96.273,377.100 "/>
      <polyline fill="none" stroke="#000000" stroke-width="0.5pt" stroke-dasharray="none" points="90.857,332.393 96.273,332.393 "/>
      <polyline fill="none" stroke="#000000" stroke-width="0.5pt" stroke-dasharray="none" points="90.857,466.514 90.857,287.686 "/>
      <polyline fill="none" stroke="#000000" stroke-width="0.5pt" stroke-dasharray="none" points="632.502,421.807 627.086,421.807 "/>
      <polyline fill="none" stroke="#000000" stroke-width="0.5pt" stroke-dasharray="none" points="632.502,377.100 627.086,377.100 "/>
      <polyline fill="none" stroke="#000000" stroke-width="0.5pt" stroke-dasharray="none" points="632.502,332.393 627.086,332.393 "/>
      <polyline fill="none" stroke="#000000" stroke-width="0.5pt" stroke-dasharray="none" points="632.502,466.514 632.502,287.686 "/>
  <g transform="translate(80.024,472.130)">
    <g transform="rotate(-0.0)">
      <text x="0.000" y="0.000" font-family="Helvetica" text-anchor="end" font-size="12pt" fill="#000000" >0</text>
    </g>
  </g>
  <g transform="translate(80.024,427.423)">
    <g transform="rotate(-0.0)">
      <text x="0.000" y="0.000" font-family="Helvetica" text-anchor="end" font-size="12pt" fill="#000000" >2</text>
    </g>
  </g>
  <g transform="translate(80.024,382.716)">
    <g transform="rotate(-0.0)">
      <text x="0.000" y="0.000" font-family="Helvetica" text-anchor="end" font-size="12pt" fill="#000000" >4</text>
    </g>
  </g>
  <g transform="translate(80.024,338.009)">
    <g transform="rotate(-0.0)">
      <text x="0.000" y="0.000" font-family="Helvetica" text-anchor="end" font-size="12pt" fill="#000000" >6</text>
    </g>
  </g>
  <g transform="translate(80.024,293.302)">
    <g transform="rotate(-0.0)">
      <text x="0.000" y="0.000" font-family="Helvetica" text-anchor="end" font-size="12pt" fill="#000000" >8</text>
    </g>
  </g>
      <polyline fill="none" stroke="#000000" stroke-width="0.5pt" stroke-dasharray="none" points="90.857,466.514 90.857,464.726 "/>
      <polyline fill="none" stroke="#000000" stroke-width="0.5pt" stroke-dasharray="none" points="90.857,466.514 90.857,466.514 "/>
    </g>
  </g>
  </g>
</svg>
